<svg id="Calque_1" data-name="Calque 1" xmlns="http://www.w3.org/2000/svg" viewBox="0 0 110 190"><defs><style>.cls-1{fill:#fff;}.cls-2{fill:none;stroke:#fff;stroke-linecap:round;stroke-linejoin:round;stroke-width:8px;}</style></defs><title>icon-flower-xebia-integration</title><path class="cls-1" d="M81,8.45c0.43,5.86-.08,13.59-4,18.45-4.09,5.06-11.71,7-17.13,7.73-0.41-5.83.08-13.6,4-18.45,4.09-5.06,11.71-7,17.14-7.73M87.08,0C83.33,0,66.16.59,57.64,11.15,48,23,53,43.06,53,43.06h0.73c3.74,0,20.92-.59,29.44-11.15C92.82,20,87.81,0,87.81,0H87.08Z" transform="translate(-0.21 0)"/><path class="cls-1" d="M87,58.09h0a46.14,46.14,0,0,1,13.45,2.27C98,67,93.44,75.68,86.29,79.22a22.56,22.56,0,0,1-10.06,2.09A46.14,46.14,0,0,1,62.78,79c2.43-6.61,7-15.32,14.18-18.85A22.56,22.56,0,0,1,87,58.09m0-8A30.51,30.51,0,0,0,73.41,53C57.63,60.82,53,83.85,53,83.85s11.08,5.46,23.19,5.46a30.51,30.51,0,0,0,13.61-2.92c15.78-7.81,20.36-30.84,20.36-30.84S99.13,50.09,87,50.09h0Z" transform="translate(-0.21 0)"/><path class="cls-1" d="M10,28.61h0c6.54,0,15.72,1.1,22.34,6.33,6.86,5.42,10.05,14.5,11.51,21H43.24c-6.54,0-15.72-1.1-22.34-6.33-6.86-5.42-10.05-14.5-11.51-21H10m0-8a58.56,58.56,0,0,0-9.81.76s1.14,23,15.73,34.49c8.41,6.65,19.45,8.06,27.3,8.06A58.56,58.56,0,0,0,53,63.16s-1.14-23-15.73-34.49C28.91,22,17.87,20.61,10,20.61h0Z" transform="translate(-0.21 0)"/><path class="cls-2" d="M53.45,129.36" transform="translate(-0.21 0)"/><path class="cls-1" d="M91.57,110.28l-1.83,11.07H17.15l-1.83-11.07H91.57m9.43-8h0Zm0,0H5.9l4.46,27.07H96.53L101,102.28h0Z" transform="translate(-0.21 0)"/><path class="cls-1" d="M81.17,137.36l-9,44.64H34.76l-9-44.64H81.17m9.78-8h0Zm0,0h-75L28.22,190H78.68L91,129.36h0Z" transform="translate(-0.21 0)"/><path class="cls-2" d="M53.45,129.36" transform="translate(-0.21 0)"/><line class="cls-2" x1="52.84" y1="102.28" x2="52.84" y2="43.06"/></svg>