<svg id="Calque_1" data-name="Calque 1" xmlns="http://www.w3.org/2000/svg" viewBox="0 0 455.19 90.18"><defs><style>.cls-1{fill:#6a205f;}.cls-2{fill:#6c1d5f;}</style></defs><title>footer-logo-xebia</title><g id="_Groupe_" data-name="&lt;Groupe&gt;"><g id="_Groupe_2" data-name="&lt;Groupe&gt;"><path id="_Tracé_transparent_" data-name="&lt;Tracé transparent&gt;" class="cls-1" d="M242.38,40.53H219.21c0.19,1.73,1.44,6.55,8.12,6.55a8,8,0,0,0,6.67-3.5h7.72c-0.46,1.42-3.82,10.12-13.81,10.12q-7,0-11.23-4.19a15.35,15.35,0,0,1-4.59-11.19,15.74,15.74,0,0,1,4.46-11.19q4.14-4.22,11-4.22T238.43,27q4,4.07,4,11.28ZM235,35.15c-1-4.38-4.06-5.77-7.91-5.77-2.65,0-7.37,2-7.37,5.77H235Z" transform="translate(-12.36 -9.86)"/><path id="_Tracé_transparent_2" data-name="&lt;Tracé transparent&gt;" class="cls-1" d="M253.11,14.26v11.4a19.4,19.4,0,0,1,10.24-2.77,14,14,0,0,1,10.52,4.4,15.1,15.1,0,0,1,4.2,10.9,15.41,15.41,0,0,1-4.24,11.13,14.11,14.11,0,0,1-10.62,4.37,18.3,18.3,0,0,1-10.11-2.41v1.57H246V14.26h7.11ZM269.78,38.6a8.7,8.7,0,0,0-2.31-6.27,7.75,7.75,0,0,0-5.87-2.47,8.28,8.28,0,0,0-6.15,2.39,8.37,8.37,0,0,0-2.34,6.16,8.48,8.48,0,0,0,2.31,6.24A8.08,8.08,0,0,0,261.51,47a7.92,7.92,0,0,0,5.9-2.39A8.29,8.29,0,0,0,269.78,38.6Z" transform="translate(-12.36 -9.86)"/><path id="_Tracé_transparent_3" data-name="&lt;Tracé transparent&gt;" class="cls-1" d="M288.25,23.7V52.86H281V23.7h7.22Z" transform="translate(-12.36 -9.86)"/><path id="_Tracé_transparent_4" data-name="&lt;Tracé transparent&gt;" class="cls-1" d="M288.25,14.36V21.2H281V14.36h7.22Z" transform="translate(-12.36 -9.86)"/><path id="_Tracé_transparent_5" data-name="&lt;Tracé transparent&gt;" class="cls-1" d="M316.25,23.7h6.62V52.86h-6.62V49.8a13,13,0,0,1-9.77,3.89A13.72,13.72,0,0,1,296,49.32,15.85,15.85,0,0,1,292,38.19,15.37,15.37,0,0,1,296,27.26a13.44,13.44,0,0,1,10.24-4.37c3.54,0,7.1.81,10,4.19V23.7ZM299.14,38.2a8.62,8.62,0,0,0,2.23,6.15,7.64,7.64,0,0,0,5.77,2.4,8.07,8.07,0,0,0,6-2.32,8.48,8.48,0,0,0,2.29-6.1,8.48,8.48,0,0,0-2.29-6.1,7.94,7.94,0,0,0-5.95-2.35,7.74,7.74,0,0,0-5.77,2.37A8.27,8.27,0,0,0,299.14,38.2Z" transform="translate(-12.36 -9.86)"/><polygon id="_Tracé_" data-name="&lt;Tracé&gt;" class="cls-1" points="214.17 0 196.27 0 177.29 19.24 158.31 0 140.42 0 168.34 29.5 140.42 59 158.31 59 177.29 39.76 196.27 59 214.17 59 186.24 29.5 214.17 0"/></g><g id="_Groupe_3" data-name="&lt;Groupe&gt;"><path id="_Tracé_transparent_6" data-name="&lt;Tracé transparent&gt;" class="cls-2" d="M19,88.87a5.3,5.3,0,0,0-2.85-1,2.51,2.51,0,0,0-2.68,2.42c0,3.39,6.06,1.77,6.06,6.23A3.55,3.55,0,0,1,15.79,100a5.92,5.92,0,0,1-3.26-1.12V97.76a5.21,5.21,0,0,0,3.21,1.36,2.57,2.57,0,0,0,2.68-2.53c0-3.62-6.06-2-6.06-6.23A3.51,3.51,0,0,1,16,87a6,6,0,0,1,2.95.8v1.08Z" transform="translate(-12.36 -9.86)"/><path id="_Tracé_transparent_7" data-name="&lt;Tracé transparent&gt;" class="cls-2" d="M30.14,100a6.53,6.53,0,1,1,0-13A6.53,6.53,0,1,1,30.14,100Zm0-12.13a5.61,5.61,0,1,0,5.65,5.61A5.57,5.57,0,0,0,30.18,87.9Z" transform="translate(-12.36 -9.86)"/><path id="_Tracé_transparent_8" data-name="&lt;Tracé transparent&gt;" class="cls-2" d="M48,88H42.49v4.83h5v0.82h-5v6.24h-1V87.16H48V88Z" transform="translate(-12.36 -9.86)"/><path id="_Tracé_transparent_9" data-name="&lt;Tracé transparent&gt;" class="cls-2" d="M61.06,88H56.28V99.87h-1V88H50.52V87.16H61.06V88Z" transform="translate(-12.36 -9.86)"/><path id="_Tracé_transparent_10" data-name="&lt;Tracé transparent&gt;" class="cls-2" d="M68.71,100H68.45L63.35,87.16h1l4.21,10.55,4.27-10.55h0.3l4.25,10.55,4.21-10.55h1L77.49,100H77.25L73,89.26Z" transform="translate(-12.36 -9.86)"/><path id="_Tracé_transparent_11" data-name="&lt;Tracé transparent&gt;" class="cls-2" d="M96.06,99.87H95l-2-4.4H86.81l-2,4.4h-1l5.87-12.81h0.54ZM89.9,88.67l-2.72,6h5.46Z" transform="translate(-12.36 -9.86)"/><path id="_Tracé_transparent_12" data-name="&lt;Tracé transparent&gt;" class="cls-2" d="M103.1,87.16c3.11,0,4.21,1.58,4.21,3.28a3.17,3.17,0,0,1-2.42,3.09,5.8,5.8,0,0,1,1.7,1.94l2.87,4.4H108.3l-2.22-3.49c-1.53-2.4-2-2.61-3.54-2.61h-1.71v6.1h-1V87.16h3.26ZM100.82,93h2.11c2.24,0,3.32-1,3.32-2.5s-1-2.48-3.36-2.48h-2.07v5Z" transform="translate(-12.36 -9.86)"/><path id="_Tracé_transparent_13" data-name="&lt;Tracé transparent&gt;" class="cls-2" d="M119.7,88h-5.95v5.09h5.8v0.82h-5.8v5.16h6.1v0.82h-7.08V87.16h6.93V88Z" transform="translate(-12.36 -9.86)"/><path id="_Tracé_transparent_14" data-name="&lt;Tracé transparent&gt;" class="cls-2" d="M136,87.16c5.41,0,6.93,3.56,6.93,6.36s-1.73,6.36-6.77,6.36h-4.62V87.16H136Zm-3.47,11.89h3.58c3.06,0,5.76-2,5.76-5.54,0-3.26-2.37-5.54-5.82-5.54h-3.52V99.05Z" transform="translate(-12.36 -9.86)"/><path id="_Tracé_transparent_15" data-name="&lt;Tracé transparent&gt;" class="cls-2" d="M154.51,88h-5.95v5.09h5.8v0.82h-5.8v5.16h6.1v0.82h-7.08V87.16h6.93V88Z" transform="translate(-12.36 -9.86)"/><path id="_Tracé_transparent_16" data-name="&lt;Tracé transparent&gt;" class="cls-2" d="M163.14,100h-0.28l-5.35-12.84h1L163,97.91l4.47-10.76h1Z" transform="translate(-12.36 -9.86)"/><path id="_Tracé_transparent_17" data-name="&lt;Tracé transparent&gt;" class="cls-2" d="M179.18,88h-5.95v5.09H179v0.82h-5.8v5.16h6.1v0.82h-7.08V87.16h6.93V88Z" transform="translate(-12.36 -9.86)"/><path id="_Tracé_transparent_18" data-name="&lt;Tracé transparent&gt;" class="cls-2" d="M184.58,99.05h6.28v0.82H183.6V87.16h1V99.05Z" transform="translate(-12.36 -9.86)"/><path id="_Tracé_transparent_19" data-name="&lt;Tracé transparent&gt;" class="cls-2" d="M200.76,100a6.53,6.53,0,1,1,6.75-6.52A6.55,6.55,0,0,1,200.76,100Zm0-12.13a5.61,5.61,0,1,0,5.65,5.61A5.57,5.57,0,0,0,200.8,87.9Z" transform="translate(-12.36 -9.86)"/><path id="_Tracé_transparent_20" data-name="&lt;Tracé transparent&gt;" class="cls-2" d="M215.63,87.16c3,0,4.16,1.53,4.16,3.35,0,1.64-1,3.41-4.25,3.41h-2.42v5.95h-1V87.16h3.5Zm-2.52,5.95h2.37c2.37,0,3.24-1.14,3.24-2.57S217.83,88,215.59,88h-2.48V93.1Z" transform="translate(-12.36 -9.86)"/><path id="_Tracé_transparent_21" data-name="&lt;Tracé transparent&gt;" class="cls-2" d="M234.53,87.16h1V99.87h-1V88.59h0l-4.81,5.95-4.81-5.95h0V99.87h-1V87.16h1l4.85,5.91Z" transform="translate(-12.36 -9.86)"/><path id="_Tracé_transparent_22" data-name="&lt;Tracé transparent&gt;" class="cls-2" d="M247.63,88h-5.95v5.09h5.8v0.82h-5.8v5.16h6.1v0.82h-7.08V87.16h6.93V88Z" transform="translate(-12.36 -9.86)"/><path id="_Tracé_transparent_23" data-name="&lt;Tracé transparent&gt;" class="cls-2" d="M263.49,99.87h-0.82L253,88.76V99.87h-1V87.16h0.84l9.64,11.11V87.16h1V99.87Z" transform="translate(-12.36 -9.86)"/><path id="_Tracé_transparent_24" data-name="&lt;Tracé transparent&gt;" class="cls-2" d="M277.78,88H273V99.87h-1V88h-4.77V87.16h10.53V88Z" transform="translate(-12.36 -9.86)"/><path id="_Tracé_transparent_25" data-name="&lt;Tracé transparent&gt;" class="cls-2" d="M294.08,87.16a14.13,14.13,0,0,1,1.44.06,8,8,0,0,1,2.61.71,6.34,6.34,0,0,1,3,3,6.27,6.27,0,0,1,.5,2.57,6,6,0,0,1-4.83,6.1,12.75,12.75,0,0,1-2.93.3l-4.94,0V87.16h5.18Zm-2,10.29h1.29a6.94,6.94,0,0,0,2.8-.37,3.66,3.66,0,0,0,2.13-3.6,3.55,3.55,0,0,0-2.14-3.56,5.46,5.46,0,0,0-2.46-.34h-1.6v7.87Z" transform="translate(-12.36 -9.86)"/><path id="_Tracé_transparent_26" data-name="&lt;Tracé transparent&gt;" class="cls-2" d="M316.52,100c-4.06,0-7.23-2.85-7.23-6.51S312.45,87,316.57,87s7.29,2.85,7.29,6.54S320.67,100,316.52,100Zm0-10.35a3.69,3.69,0,0,0-4,3.9,3.75,3.75,0,0,0,4,3.88,3.8,3.8,0,0,0,4-3.86A3.7,3.7,0,0,0,316.55,89.69Z" transform="translate(-12.36 -9.86)"/><path id="_Tracé_transparent_27" data-name="&lt;Tracé transparent&gt;" class="cls-2" d="M345,99.87h-2.65l-7-7.87v7.87h-3.15V87.16H335l6.8,7.49V87.16H345V99.87Z" transform="translate(-12.36 -9.86)"/><path id="_Tracé_transparent_28" data-name="&lt;Tracé transparent&gt;" class="cls-2" d="M363.2,99.87h-9.38V87.16h9.25v2.37h-6V92.1h5.76v2.39H357v3.06h6.17v2.33Z" transform="translate(-12.36 -9.86)"/><path id="_Tracé_transparent_29" data-name="&lt;Tracé transparent&gt;" class="cls-2" d="M387.61,87.16c1.85,0,2.52.13,3.34,0.63a3.68,3.68,0,0,1,1.66,3,3.27,3.27,0,0,1-1.08,2.44,4.16,4.16,0,0,1-1.1.67,4.54,4.54,0,0,1,1.83,2.39l0.5,1.08,0.34,0.71L393.48,99l0.34,0.71,0.09,0.2h-3.49l-0.07-.13-0.24-.52-0.24-.58-0.37-.82L389,96.74a3.3,3.3,0,0,0-1.7-2,2.76,2.76,0,0,0-.91-0.07h-0.47v5.18h-3.21V87.16h4.88Zm-1.68,5.22h1.32l0.24,0,0.39,0a1.37,1.37,0,0,0,1.42-1.42c0-1-.6-1.45-1.77-1.45h-1.6v2.91Z" transform="translate(-12.36 -9.86)"/><path id="_Tracé_transparent_30" data-name="&lt;Tracé transparent&gt;" class="cls-2" d="M404.6,99.87H401.4V87.16h3.21V99.87Z" transform="translate(-12.36 -9.86)"/><path id="_Tracé_transparent_31" data-name="&lt;Tracé transparent&gt;" class="cls-2" d="M425.62,90.79l-0.2-.09a10.93,10.93,0,0,0-4.53-1.06c-2.85,0-4.64,1.53-4.64,4,0,2.2,1.75,3.77,4.19,3.77a6,6,0,0,0,2.27-.45V95.45h-1.83V93.09h5.05v5.24A8.71,8.71,0,0,1,420.5,100c-4.42,0-7.55-2.7-7.55-6.52S416,87,420.63,87a12.66,12.66,0,0,1,3.28.43,10.2,10.2,0,0,1,1.71.62v2.76Z" transform="translate(-12.36 -9.86)"/><path id="_Tracé_transparent_32" data-name="&lt;Tracé transparent&gt;" class="cls-2" d="M447.28,99.87h-3.19V94.73h-6.3v5.14h-3.21V87.16h3.21v5.11h6.3V87.16h3.19V99.87Z" transform="translate(-12.36 -9.86)"/><path id="_Tracé_transparent_33" data-name="&lt;Tracé transparent&gt;" class="cls-2" d="M467.55,89.54H463V99.87h-3.23V89.54h-4.6V87.16h12.41v2.39Z" transform="translate(-12.36 -9.86)"/></g></g></svg>