<?xml version="1.0" encoding="utf-8"?>
<!-- Generator: Adobe Illustrator 19.2.1, SVG Export Plug-In . SVG Version: 6.00 Build 0)  -->
<svg version="1.1" id="Calque_1" xmlns="http://www.w3.org/2000/svg" xmlns:xlink="http://www.w3.org/1999/xlink" x="0px" y="0px"
	 viewBox="0 0 341 78" style="enable-background:new 0 0 341 78;" xml:space="preserve">
<style type="text/css">
	.st0{fill:#FFFFFF;}
	.st1{fill:#6A205F;}
	.st2{fill:#06A99C;}
</style>
<rect x="136.1" y="-0.1" class="st0" width="186.6" height="78"/>
<g id="XMLID_353_">
	<g id="XMLID_380_">
		<path id="XMLID_423_" class="st1" d="M60.1,41H44.5c0.1,1.2,1,4.4,5.4,4.4c1.2,0,3.3-0.5,4.5-2.3h5.2c-0.3,0.9-2.6,6.8-9.3,6.8
			c-3.1,0-5.6-0.9-7.5-2.8c-1.9-1.9-3.1-4.4-3.1-7.5c0-3.1,1.2-5.6,3-7.5c1.8-1.9,4.3-2.8,7.4-2.8c3.1,0,5.5,0.9,7.3,2.7
			c1.8,1.8,2.7,4.3,2.7,7.6L60.1,41z M55.1,37.4c-0.7-2.9-2.7-3.9-5.3-3.9c-1.8,0-4.9,1.4-4.9,3.9H55.1z"/>
		<path id="XMLID_414_" class="st1" d="M67.2,23.4v7.6c2.4-1.4,4.4-1.9,6.9-1.9c2.8,0,5.2,1,7.1,2.9c1.9,2,2.8,4.4,2.8,7.3
			c0,3-0.9,5.5-2.8,7.5c-1.9,2-4.3,2.9-7.1,2.9c-2.4,0-4.4-0.2-6.8-1.6v1.1h-4.8V23.4H67.2z M78.4,39.8c0-1.7-0.5-3.1-1.5-4.2
			c-1-1.1-2.4-1.7-3.9-1.7c-1.7,0-3.1,0.5-4.1,1.6c-1,1.1-1.6,2.4-1.6,4.1c0,1.7,0.5,3.1,1.5,4.2c1,1.1,2.4,1.6,4.1,1.6
			c1.6,0,2.9-0.5,4-1.6C77.9,42.7,78.4,41.4,78.4,39.8z"/>
		<path id="XMLID_410_" class="st1" d="M90.8,29.8v19.5H86V29.8H90.8z"/>
		<path id="XMLID_408_" class="st1" d="M90.8,23.5v4.6H86v-4.6H90.8z"/>
		<path id="XMLID_403_" class="st1" d="M109.6,29.8h4.4v19.5h-4.4v-2c-2,2-4.3,2.6-6.6,2.6c-2.8,0-5.1-1-7-2.9
			c-1.8-2-2.7-4.5-2.7-7.5c0-2.9,0.9-5.4,2.7-7.3c1.8-2,4.1-2.9,6.9-2.9c2.4,0,4.8,0.5,6.7,2.8V29.8z M98.1,39.5
			c0,1.7,0.5,3.1,1.5,4.1c1,1.1,2.3,1.6,3.9,1.6c1.7,0,3-0.5,4-1.6c1-1.1,1.5-2.4,1.5-4.1c0-1.7-0.5-3-1.5-4.1c-1-1-2.4-1.6-4-1.6
			c-1.5,0-2.8,0.5-3.9,1.6C98.6,36.6,98.1,37.9,98.1,39.5z"/>
		<polygon id="XMLID_402_" class="st1" points="49.4,20 37.4,20 24.7,32.9 12,20 0,20 18.7,39.5 0,59 12,59 24.7,46.1 37.4,59 
			49.4,59 30.7,39.5 		"/>
	</g>
</g>
<g>
	<path class="st2" d="M158.8,35.6c1-1.9,2.2-3.6,3.6-5.3c0.1-0.2,0.3-0.4,0.4-0.6c0.2-0.2,0.2-0.4,0.2-0.7c0-0.5-0.2-1-0.7-1.3
		c-0.5-0.4-0.9-0.6-1.4-0.6c-0.3,0-0.5,0.1-0.8,0.3c-0.3,0.2-0.5,0.5-0.8,0.8c-0.3,0.3-0.5,0.6-0.7,0.9c-0.2,0.3-0.4,0.6-0.5,0.8
		c-1.5,2.3-3,4.7-4.4,7.2c-1.4,2.5-2.8,5-4.2,7.3c-1.2,2.2-2.5,4.3-3.7,6.5c-1.2,2.1-2.4,4.3-3.6,6.5c-0.6,1.2-1.3,2.3-1.9,3.4
		c-0.6,1.2-1.1,2.3-1.5,3.6c-1.1-5-2.4-9.8-4.2-14.6c-1.7-4.8-3.9-9.3-6.5-13.7c-0.6-0.9-1.1-1.8-1.7-2.7c-0.6-0.9-1.2-1.7-2-2.4
		c-0.4-0.4-0.8-0.8-1.3-1.3c-0.5-0.5-1-0.8-1.6-0.8c-0.4,0-0.7,0.1-1.1,0.4c-0.4,0.3-0.8,0.6-1.1,1c-0.3,0.4-0.6,0.8-0.9,1.3
		c-0.2,0.4-0.3,0.8-0.3,1.2c0,0.3,0.2,0.7,0.6,1.1c0.4,0.4,0.7,0.8,0.9,1c0.8,0.9,1.5,1.9,2.1,3c0.6,1.1,1.2,2.2,1.7,3.2
		c2.3,4.7,4.5,9.6,6.3,14.8c1.9,5.2,3.2,10.4,4,15.5c0.1,0.4,0.1,0.8,0.2,1.2c0,0.5,0.1,0.9,0.2,1.3c0.1,0.4,0.3,0.8,0.6,1
		s0.7,0.4,1.2,0.4c0.8,0,1.4-0.1,1.8-0.3c0.4-0.2,0.7-0.5,0.9-0.9c0.2-0.4,0.3-0.8,0.4-1.3c0.1-0.5,0.2-1.1,0.4-1.7
		c0.2-0.7,0.5-1.5,0.9-2.3c0.4-0.9,0.8-1.7,1.3-2.6c0.5-0.9,0.9-1.7,1.4-2.6c0.5-0.8,0.9-1.6,1.2-2.3c1.8-3.4,3.7-6.9,5.6-10.3
		c1.9-3.4,3.8-6.8,5.8-10.2C156.7,39.3,157.8,37.5,158.8,35.6z"/>
	<path class="st2" d="M159.1,40.8c-0.6,0.8-0.9,1.6-0.9,2.5c0,0.7,0.2,1.3,0.6,1.8c0.4,0.5,1,0.8,1.7,0.8c0.9,0,1.7-0.4,2.3-1.1
		c0.6-0.8,1-1.6,1-2.5c0-0.7-0.2-1.3-0.7-1.8c-0.4-0.5-1-0.8-1.8-0.8C160.5,39.7,159.7,40.1,159.1,40.8z"/>
	<path class="st2" d="M298.7,49.7c0.1-0.1,0.2-0.3,0.2-0.6c0-0.5-0.2-0.8-0.6-1.1c-0.4-0.3-0.8-0.4-1.2-0.4c-0.4,0-0.8,0.2-1,0.5
		c-0.3,0.3-0.5,0.7-0.8,0.9c-1.9,2.8-3.7,5.6-5.3,8.6c-1.6,2.9-3.2,5.9-4.8,8.8c-0.3-1.3-0.7-2.7-1.2-4.2c-0.5-1.5-1.1-3-1.8-4.6
		c-0.7-1.5-1.4-3-2.2-4.3c-0.8-1.4-1.6-2.6-2.6-3.5c-0.3-0.3-0.6-0.6-0.9-0.8c-0.3-0.2-0.7-0.3-1.2-0.3c-0.6,0-1.2,0.3-1.8,0.9
		c-0.6,0.6-0.9,1.2-0.9,1.8c0,0.3,0.1,0.5,0.3,0.8c0.2,0.3,0.4,0.5,0.6,0.7c0.8,1,1.7,2.3,2.5,4c0.8,1.5,1.5,3.2,2.2,4.9
		c-0.3,0.4-0.5,0.7-0.7,1.1c-0.4,0.6-1,1.5-1.9,2.6c-0.8,1.1-1.7,2.1-2.7,3.1c-1,1-2,1.9-3,2.6c-1,0.7-1.9,1.1-2.8,1.1
		c-0.6,0-1-0.3-1.3-0.9c-0.3-0.6-0.5-1.2-0.7-2c-0.1-0.8-0.2-1.5-0.2-2.2c0-0.7,0-1.3,0-1.7c0-1.2,0.1-2.5,0.2-3.8
		c0.2-1.4,0.4-2.6,0.8-3.8c0.2-0.5,0.4-1.2,0.8-2c0.3-0.8,0.5-1.5,0.5-2c0-0.5-0.2-0.8-0.5-0.9s-0.7-0.2-1.1-0.2
		c-0.6,0-1.1,0.2-1.5,0.7c-0.3,0.4-0.6,0.9-0.9,1.4c-0.2,0.5-0.6,1.2-1,2.1c-0.4,0.9-1,2-1.6,3.1c-0.6,1.1-1.2,2.2-1.9,3.4
		c-0.7,1.2-1.3,2.2-2,3.2c-0.7,0.9-1.4,1.7-2,2.3c-0.6,0.6-1.2,0.9-1.7,0.9c-0.4,0-0.7-0.2-0.8-0.6c-0.1-0.4-0.1-0.8-0.1-1
		c0-2.6,0.5-5.1,1.6-7.3c1.1-2.3,2.5-4.3,4.3-6.2c1-1.1,2.1-2,3.2-2.8c1.1-0.8,2.3-1.6,3.6-2.3c0.2-0.1,0.3-0.2,0.5-0.3
		c0.1-0.1,0.2-0.3,0.2-0.5c0-0.5-0.3-1-0.8-1.4c-0.5-0.5-1-0.7-1.5-0.7c-2,0-4,0.7-5.8,2.1c-1.9,1.4-3.5,3.1-5,5.1
		c-1.4,2-2.6,4.2-3.5,6.5c-0.7,1.7-1.1,3.3-1.2,4.8c-0.4,0.5-0.8,1-1.3,1.5c-0.8,0.9-1.7,1.9-2.7,2.7c-1,0.9-1.9,1.6-2.9,2.2
		c-1,0.6-1.9,0.9-2.7,0.9c-0.5,0-0.8-0.1-1.1-0.4c-0.3-0.3-0.4-0.6-0.6-1c-0.1-0.4-0.2-0.8-0.2-1.2c0-0.4,0-0.8,0-1.1
		c0-2.7,0.2-5.3,0.5-8c0.3-2.6,0.5-5.3,0.5-8c0-0.6-0.1-1.3-0.2-2c-0.2-0.7-0.4-1.3-0.8-1.8c-0.3-0.6-0.8-1-1.3-1.4
		c-0.6-0.4-1.2-0.6-1.9-0.6c-1.1,0-2.1,0.3-3.1,1c-1,0.7-1.9,1.5-2.8,2.5c-0.9,1-1.6,2-2.4,3c-0.7,1.1-1.4,2-1.9,2.8
		c-0.9,1.3-1.9,2.7-2.8,4c-0.9,1.3-1.8,2.7-2.7,4c-0.1,0.1-0.2,0.4-0.4,0.7c-0.2,0.3-0.4,0.5-0.5,0.5c-0.1,0-0.2-0.1-0.2-0.2
		c0-0.1-0.1-0.2-0.1-0.3c-0.2-0.7-0.3-1.4-0.3-2.1c0-0.8,0-1.5,0-2.2c0-1.3,0-2.7,0.1-4c0-1.3,0.1-2.7,0.1-4c0-0.5,0-1-0.1-1.7
		c-0.1-0.6-0.2-1.3-0.4-1.9c-0.2-0.6-0.5-1.1-0.9-1.5c-0.4-0.4-0.9-0.6-1.5-0.6c-0.9,0-1.9,0.5-3,1.4c-1.1,0.9-2.2,2.1-3.2,3.3
		c-1,1.3-2,2.6-2.9,3.9c-0.9,1.3-1.6,2.4-2.1,3.1c0.2-1.3,0.5-2.7,0.8-4c0.3-1.3,0.7-2.6,1.2-3.9c0.2-0.5,0.4-1,0.7-1.7
		c0.3-0.6,0.6-1.3,0.8-2c0.3-0.7,0.5-1.3,0.7-2c0.2-0.6,0.3-1.2,0.3-1.7c0-0.5-0.1-0.9-0.3-1.2c-0.2-0.3-0.6-0.4-1.1-0.4
		c-1,0-2,0.2-3,0.7c-1.1,0.5-1.8,1.2-2.3,2.1c-0.3,0.6-0.6,1.5-1,2.9c-0.4,1.4-0.8,3-1.2,4.8c-0.4,1.8-0.8,3.7-1.2,5.8
		c-0.4,2-0.8,4-1.1,5.8c-0.1,0.7-0.2,1.5-0.3,2.1c-0.8,0.9-1.7,1.9-2.7,2.8c-1.1,1-2.2,1.9-3.3,2.7c-1.1,0.8-2.1,1.1-2.9,1.1
		c0.6-0.8,1-1.6,1.2-2.6c0.3-0.9,0.4-1.8,0.4-2.8c0-1.5-0.2-2.9-0.7-4.3c-0.5-1.4-1-2.8-1.7-4.2c-0.7-1.4-1.4-2.7-2.1-4
		c-0.7-1.3-1.4-2.7-1.9-4c0.4-1.1,0.8-2.2,1.1-3.3c0.3-1.2,0.5-2.3,0.5-3.5c0-0.4,0-0.8-0.1-1.2c-0.1-0.4-0.2-0.8-0.3-1.2
		c-0.2-0.4-0.4-0.7-0.7-1c-0.3-0.3-0.7-0.4-1.1-0.4c-0.8,0-1.6,0.3-2.2,0.9c-0.6,0.6-1.2,1.3-1.6,2.1c-0.4,0.8-0.7,1.7-1,2.6
		c-0.2,0.9-0.3,1.7-0.3,2.4c0,1.2,0.2,2.5,0.6,3.7c-0.9,2.9-2.2,5.7-3.7,8.3c-0.1,0.1-0.2,0.3-0.3,0.4c-0.5,0.7-1.1,1.7-2,3
		c-0.9,1.2-1.8,2.4-2.8,3.6c-1,1.2-2.1,2.2-3.2,3c-1.1,0.9-2.1,1.3-3,1.3c-0.6,0-1.1-0.3-1.4-0.8c-0.3-0.5-0.6-1.1-0.7-1.8
		c-0.2-0.7-0.3-1.4-0.3-2.1c0-0.7,0-1.2,0-1.7c0-2.1,0.2-4.2,0.6-6.1c0.1-0.5,0.3-1.1,0.6-1.8c0.2-0.7,0.5-1.3,0.7-2
		c0.2-0.7,0.4-1.3,0.6-1.9c0.2-0.6,0.2-1.2,0.2-1.6c0-1-0.5-1.5-1.6-1.5c-1.5,0-2.6,0.4-3.3,1.3c-0.7,0.9-1.3,1.9-1.7,3.1
		c-0.4,1.2-0.7,2.6-1,4.2c-0.3,1.6-0.4,3-0.4,4.3c0,1,0.1,2.2,0.2,3.6c0.1,1.4,0.4,2.6,0.9,3.9c0.5,1.2,1.1,2.3,1.9,3.1
		c0.8,0.9,1.9,1.3,3.3,1.3c1.2,0,2.5-0.4,3.8-1.2c1.3-0.8,2.5-1.8,3.8-2.9c1.2-1.1,2.3-2.4,3.3-3.6c0.1-0.1,0.1-0.2,0.2-0.2
		c0,0,0.1-0.1,0.2-0.1c0.7-0.7,1.4-1.5,2-2.6c0.7-1,1.3-2.1,1.9-3.2c0.6-1.1,1.1-2.2,1.6-3.3c0.5-1.1,0.9-2.1,1.2-3.1
		c0.6,0.8,1.1,1.8,1.7,2.9c0.6,1.1,1.1,2.3,1.6,3.5c0.5,1.2,0.8,2.4,1.1,3.6c0.3,1.2,0.4,2.3,0.4,3.4c0,1.7-0.5,3.2-1.4,4.3
		c-0.9,1.1-2.3,1.7-4.2,1.7c-0.9,0-1.8-0.1-2.6-0.3c-0.8-0.2-1.6-0.5-2.3-1c-0.2-0.1-0.4-0.3-0.6-0.3c-0.2-0.1-0.4-0.1-0.7-0.1
		c-0.7,0-1.1,0.3-1.1,1c0,0.3,0.1,0.6,0.2,0.8c0.1,0.2,0.3,0.5,0.6,0.7c1,1,2.3,1.6,3.8,1.9c1.5,0.3,3,0.4,4.3,0.4
		c2.5,0,4.7-0.3,6.8-0.9c2-0.6,3.9-1.4,5.6-2.5c1.2-0.8,2.2-1.6,3.3-2.6c0,0.5-0.1,0.9-0.1,1.2c0,0.4,0.1,0.8,0.3,1.1
		c0.2,0.3,0.6,0.4,1,0.4c0.6,0,1.2-0.2,1.6-0.7c0.4-0.4,0.7-0.9,0.9-1.4c0.2-0.6,0.7-1.4,1.3-2.6c0.6-1.2,1.4-2.6,2.3-4.1
		c0.9-1.5,1.8-3.1,2.8-4.7c1-1.6,2-3.1,2.9-4.4c0.9-1.3,1.8-2.4,2.6-3.3c0.8-0.9,1.4-1.3,1.9-1.3c0.4,0,0.6,0.2,0.6,0.6
		c0,0.4,0.1,0.7,0.1,0.9c0,0.5,0,1.3,0,2.5c0,1.2,0,2.5,0,4s0,3.1,0.1,4.7c0.1,1.6,0.2,3.1,0.4,4.5c0.2,1.4,0.4,2.5,0.8,3.3
		c0.3,0.9,0.7,1.3,1.2,1.3c0.5,0,0.8-0.1,1.1-0.3c0.3-0.2,0.5-0.5,0.8-0.9c0.4-0.6,0.9-1.4,1.6-2.7c0.7-1.2,1.4-2.6,2.3-4.1
		c0.9-1.5,1.8-3.1,2.8-4.7c1-1.6,2-3.1,2.9-4.5c0.9-1.3,1.8-2.4,2.7-3.3c0.8-0.9,1.5-1.3,2.1-1.3c0.3,0,0.5,0.1,0.7,0.3
		c0.2,0.2,0.3,0.5,0.3,0.8c0.1,0.3,0.1,0.6,0.1,0.9c0,0.3,0,0.6,0,0.8c0,2.1-0.1,4.2-0.3,6.3c-0.2,2.1-0.3,4.1-0.3,6.2
		c0,0.8,0,1.8,0.1,2.8c0.1,1.1,0.3,2.1,0.6,3c0.3,1,0.8,1.8,1.4,2.4c0.6,0.6,1.5,1,2.7,1c1.2,0,2.5-0.4,3.9-1.2
		c1.4-0.8,2.8-1.7,4.1-2.9c1.3-1.1,2.5-2.2,3.5-3.4c0.1,0.8,0.3,1.5,0.6,2.2c0.3,0.7,0.7,1.4,1.3,1.9c0.6,0.5,1.2,0.8,2.1,0.8
		c0.9,0,1.9-0.3,2.8-1c0.9-0.7,1.9-1.5,2.7-2.5c0.9-1,1.7-2,2.4-3c0.7-1,1.3-1.9,1.8-2.6c0,0.8,0,1.9,0.1,3.1
		c0.1,1.2,0.3,2.4,0.7,3.5c0.4,1.1,0.9,2.1,1.6,2.9c0.7,0.8,1.6,1.2,2.8,1.2c1.2,0,2.4-0.3,3.6-1c1.2-0.7,2.4-1.5,3.4-2.6
		c1.1-1,2.1-2.1,3-3.2c0.9-1.1,1.7-2.2,2.3-3c0.1-0.1,0.2-0.3,0.3-0.5c0.4,1,0.7,2,1,3.1c0.5,1.8,0.9,3.4,1.1,4.6
		c0.1,0.7,0.3,1.3,0.4,1.8c0.2,0.5,0.7,0.7,1.6,0.7c0.8,0,1.3-0.2,1.6-0.7c0.2-0.5,0.4-1,0.5-1.7c0.1-0.5,0.4-1.3,1-2.4
		c0.6-1.1,1.3-2.4,2.1-3.9c0.8-1.5,1.7-3.1,2.7-4.8c1-1.7,1.9-3.3,2.8-4.8c0.9-1.5,1.7-2.8,2.5-4c0.7-1.2,1.3-2,1.7-2.4
		C298.5,50,298.6,49.9,298.7,49.7z"/>
	<path class="st2" d="M305.3,45.9c0.9,0,1.7-0.4,2.3-1.1c0.6-0.8,1-1.6,1-2.5c0-0.7-0.2-1.3-0.7-1.8c-0.4-0.5-1-0.8-1.8-0.8
		c-0.9,0-1.7,0.4-2.3,1.2c-0.6,0.8-0.9,1.6-0.9,2.5c0,0.7,0.2,1.3,0.6,1.8C304,45.7,304.5,45.9,305.3,45.9z"/>
	<path class="st2" d="M340.7,60.9c-0.2-0.1-0.4-0.2-0.7-0.2c-0.5,0-0.9,0.2-1.2,0.6c-0.3,0.4-0.6,0.8-0.8,1.2
		c-0.7,1.2-1.5,2.3-2.4,3.5c-0.9,1.1-1.9,2.2-3,3.1c-1.1,0.9-2.3,1.6-3.6,2.2c-1.3,0.6-2.7,0.9-4.1,0.9c-1.6,0-2.8-0.4-3.5-1.3
		c-0.7-0.9-1-2.1-1-3.7c0-0.9,0.1-1.8,0.3-2.9c1.1-0.4,2.2-1.1,3.5-2.1c1.2-1,2.4-2.2,3.5-3.5c1.1-1.3,2-2.7,2.7-4.1
		c0.7-1.4,1.1-2.7,1.1-3.8c0-1.2-0.3-2.2-1-3c-0.7-0.8-1.6-1.2-2.9-1.2c-1.8,0-3.5,0.7-5.1,2.1c-1.5,1.4-2.9,3.2-4,5.2
		c-1.1,2-2,4.2-2.6,6.4c-0.3,1-0.4,1.8-0.6,2.7c-0.1,0.2-0.3,0.4-0.5,0.7c-0.9,1.2-1.8,2.4-2.8,3.6c-1,1.2-2.1,2.2-3.2,3
		c-1.1,0.9-2.1,1.3-3,1.3c-0.6,0-1.1-0.3-1.4-0.8c-0.3-0.5-0.6-1.1-0.7-1.8c-0.2-0.7-0.3-1.4-0.3-2.1c0-0.7,0-1.2,0-1.7
		c0-2.1,0.2-4.2,0.6-6.1c0.1-0.5,0.3-1.1,0.6-1.8c0.2-0.7,0.5-1.3,0.7-2c0.2-0.7,0.4-1.3,0.6-1.9c0.2-0.6,0.2-1.2,0.2-1.6
		c0-1-0.5-1.5-1.6-1.5c-1.5,0-2.6,0.4-3.3,1.3c-0.7,0.9-1.3,1.9-1.7,3.1c-0.4,1.2-0.7,2.6-1,4.2c-0.3,1.6-0.4,3-0.4,4.3
		c0,1,0.1,2.2,0.2,3.6c0.1,1.4,0.4,2.6,0.9,3.9c0.5,1.2,1.1,2.3,1.9,3.1c0.8,0.9,1.9,1.3,3.3,1.3c1.2,0,2.5-0.4,3.8-1.2
		c1.3-0.8,2.5-1.8,3.8-2.9c1.1-1.1,2.2-2.2,3.1-3.4c0.1,0.7,0.2,1.4,0.3,2c0.3,1.1,0.7,2.1,1.3,3c0.6,0.9,1.4,1.5,2.4,2.1
		c1,0.5,2.1,0.8,3.5,0.8c1.9,0,3.7-0.3,5.5-0.9c1.7-0.6,3.4-1.5,4.9-2.6c1.5-1.1,2.9-2.3,4.2-3.7c1.3-1.4,2.3-2.9,3.2-4.5
		c0.2-0.4,0.4-0.7,0.5-1c0.1-0.3,0.1-0.6,0.1-1.1C341,61.2,340.9,61,340.7,60.9z M321.6,58.6c0.4-1.3,0.9-2.6,1.5-4
		c0.6-1.3,1.2-2.5,1.9-3.5c0.7-1,1.4-1.5,2.1-1.5c0.5,0,0.8,0.2,0.9,0.5c0.2,0.3,0.2,0.7,0.2,1.1c0,0.9-0.3,1.9-0.8,2.9
		c-0.5,1-1.1,2-1.9,2.9c-0.7,0.9-1.5,1.8-2.4,2.6c-0.9,0.8-1.7,1.4-2.4,1.8C320.9,60.8,321.2,59.9,321.6,58.6z"/>
</g>
</svg>
