<svg id="Calque_1" data-name="Calque 1" xmlns="http://www.w3.org/2000/svg" viewBox="0 0 139.64 40"><defs><style>.cls-1{fill:#6d626b;}.cls-2{fill:#58bdbf;}.cls-3{fill:#8eb812;}.cls-4{fill:#6a205f;}.cls-5{fill:#c6c1c2;}</style></defs><title>logo-alliance-xebia-long</title><g id="_Groupe_" data-name="&lt;Groupe&gt;"><path class="cls-1" d="M53.11,12.66h1.45L60.9,27.73H59.32l-1.64-4h-8l-1.7,4H46.53Zm0.66,1.53-3.51,8.26h6.92Z"/><path class="cls-1" d="M62.22,12.66h1.4V26.46h7v1.28H62.22V12.66Z"/><path class="cls-1" d="M72,12.66h1.41V26.46h7v1.28H72V12.66Z"/><path class="cls-1" d="M81.81,12.66h1.41V27.73H81.81V12.66Z"/><path class="cls-1" d="M91.11,12.66h1.45L98.9,27.73H97.33l-1.64-4h-8l-1.7,4H84.54Zm0.66,1.53-3.51,8.26h6.92Z"/><path class="cls-1" d="M100.23,12.66H102l9.17,13.2h0V12.66h1.41V27.73h-1.81l-9.17-13.2h0v13.2h-1.4V12.66Z"/><path class="cls-1" d="M128.35,25.37a6.55,6.55,0,0,1-5.6,2.75A7.55,7.55,0,0,1,115,20.2a7.55,7.55,0,0,1,7.79-7.92,6.27,6.27,0,0,1,5.19,2.36l-1.15,1a4.81,4.81,0,0,0-4-2c-3.94,0-6.39,2.89-6.39,6.64s2.45,6.64,6.39,6.64a5.43,5.43,0,0,0,4.45-2.34Z"/><path class="cls-1" d="M130.08,12.66h9.22v1.28h-7.81V19.3h7.32v1.28h-7.32v5.88h8.15v1.28h-9.56V12.66Z"/><g id="_Groupe_2" data-name="&lt;Groupe&gt;"><polyline id="_Tracé_" data-name="&lt;Tracé&gt;" class="cls-2" points="23.53 12.23 23.53 17.85 17.85 17.85 0 0 11.3 0 23.53 12.23"/><polyline id="_Tracé_2" data-name="&lt;Tracé&gt;" class="cls-3" points="27.83 12.23 27.83 17.85 33.5 17.85 51.35 0 40.06 0 27.83 12.23"/><polyline class="cls-4" points="27.83 27.77 27.83 22.15 33.5 22.15 51.35 40 40.06 40 27.83 27.77"/><polyline class="cls-5" points="23.52 27.77 23.52 22.15 17.85 22.15 0 40 11.29 40 23.52 27.77"/></g></g></svg>