<svg id="Calque_1" data-name="Calque 1" xmlns="http://www.w3.org/2000/svg" viewBox="0 0 430 230"><defs><style>.cls-1{fill:none;}.cls-2{fill:#424661;}.cls-3{fill:#f9b03c;}</style></defs><title>BABD-logo</title><rect class="cls-1" width="430" height="230"/><path class="cls-2" d="M153.5,67.84a5,5,0,0,1-2,4.19A7.25,7.25,0,0,1,147,73.26l-7.93,0,.08-19.16,8.24,0a6.05,6.05,0,0,1,3.93,1.26,4.7,4.7,0,0,1,1.6,3.78,5,5,0,0,1-.3,1.73,4.06,4.06,0,0,1-1.46,2l-.59.39a4.83,4.83,0,0,1,1.54,1.09h0A4.76,4.76,0,0,1,153.5,67.84Zm-1.52,0A3.35,3.35,0,0,0,150.67,65a4.54,4.54,0,0,0-1.42-.7,6.57,6.57,0,0,0-1.84-.25L140.69,64l0,7.71h6.65a5.38,5.38,0,0,0,3.36-.94A3.44,3.44,0,0,0,152,67.83Zm-.55-8.73a3.61,3.61,0,0,0-1.09-2.67,4.84,4.84,0,0,0-2.92-.86h-6.73v6.91l6.73,0a4.51,4.51,0,0,0,2.87-.86,3,3,0,0,0,1.17-2.52Z"/><path class="cls-2" d="M168.6,73.36l-13.05-.05.08-19.16,13,.05v1.5l-11.49,0v6.91l10.77,0v1.52l-10.77,0,0,7.71,11.54,0Z"/><path class="cls-2" d="M190.45,73.45h-1.64l-2.34-6-8.46,0-1.24,3q-.65,1.57-1.18,3h-1.7l7.79-19.16H183Zm-4.57-7.52q-.47-1.28-.91-2.39l-.85-2.19-.85-2.22-.94-2.46-1.87,4.57q-.9,2.19-1.89,4.67Z"/><path class="cls-2" d="M211.27,68.09a5,5,0,0,1-2,4.19,7.24,7.24,0,0,1-4.44,1.23l-7.93,0L197,54.32l8.24,0a6,6,0,0,1,3.93,1.26,4.7,4.7,0,0,1,1.61,3.76,5,5,0,0,1-.3,1.73,4.66,4.66,0,0,1-.91,1.48,4.71,4.71,0,0,1-.55.48l-.59.39a4.83,4.83,0,0,1,1.54,1.09h0A4.76,4.76,0,0,1,211.27,68.09Zm-1.52,0a3.35,3.35,0,0,0-1.32-2.88,4.52,4.52,0,0,0-1.42-.7,6.57,6.57,0,0,0-1.84-.25h-6.73l0,7.71h6.65a5.38,5.38,0,0,0,3.36-1,3.44,3.44,0,0,0,1.34-2.93Zm-.55-8.73a3.61,3.61,0,0,0-1.09-2.67,4.84,4.84,0,0,0-2.92-.86h-6.73l0,6.91,6.73,0a4.51,4.51,0,0,0,2.85-.89,3,3,0,0,0,1.2-2.5Z"/><path class="cls-2" d="M226.36,73.6l-13.06-.05.08-19.16,13,.05v1.5l-11.43,0,0,6.92,10.77,0v1.52l-10.77,0,0,7.71,11.54,0Z"/><path class="cls-2" d="M241.77,56h-6.49l-.08,17.66h-1.49L233.79,56H227.3V54.43l14.47.06Z"/><path class="cls-2" d="M257.16,56.07h-6.49l-.08,17.66h-1.49l.08-17.66H242.7V54.49l14.47.06Z"/><path class="cls-2" d="M270.83,73.76l-13.05-.05.08-19.16,13,.05v1.52l-11.43,0V63l10.77,0v1.52l-10.77,0,0,7.71,11.54,0Z"/><path class="cls-2" d="M284.61,73.84l-3.66-8.53h-6.84l0,8.51h-1.52l.08-19.16,7.84,0q6,0,6,5.18,0,3.89-3.93,5.19l1.89,4.43,1.87,4.38ZM285,59.78q0-3.59-4.35-3.61l-6.46,0,0,7.61h6.22a5.29,5.29,0,0,0,3.28-1h0a3.71,3.71,0,0,0,1.33-3Z"/><path class="cls-3" d="M89.73,83.78a18,18,0,0,1,7.2,1.48,18.5,18.5,0,0,1,5.86,4,19.16,19.16,0,0,1,4,5.9,17.81,17.81,0,0,1,1.43,7.19,18,18,0,0,1-1.49,7.2,19,19,0,0,1-4,5.89,18.51,18.51,0,0,1-5.9,4,18,18,0,0,1-7.23,1.41l-10.74,0L79,83.73ZM89.62,110a8.21,8.21,0,0,0,3.1-.55,7.7,7.7,0,0,0,2.54-1.64,7.61,7.61,0,0,0,1.7-2.47,8,8,0,0,0,0-6.14,7.62,7.62,0,0,0-1.7-2.46,8.07,8.07,0,0,0-2.52-1.67,7.89,7.89,0,0,0-3.09-.63Z"/><path class="cls-3" d="M136.41,110.31l0,10.74-25.73-.11.16-37.08,25.73.11,0,10.74-15-.07V98L134,98l0,9L121.45,107v3.28Z"/><path class="cls-3" d="M159.49,84.08l11.76,0L161.17,120.8l-13.09-.05L138.32,84l11.76,0,4.63,18.38Z"/><path class="cls-3" d="M198.81,110.59l0,10.74L173,121.22l.16-37.06,25.73.11,0,10.74-15-.07v3.32l12.53.05,0,9-12.53-.05v3.28Z"/><path class="cls-3" d="M220.54,110.68l0,10.74-18.5-.08.16-37.08,10.74,0-.11,26.34Z"/><path class="cls-3" d="M239.94,83.71a18.76,18.76,0,0,1,7.48,1.54,19.24,19.24,0,1,1-15-.07A18.74,18.74,0,0,1,239.94,83.71Zm8.15,19.21a8.05,8.05,0,0,0-4.88-7.47,8.21,8.21,0,0,0-6.34,0,8.44,8.44,0,0,0-2.58,1.7,8.12,8.12,0,0,0,11.25,11.71l.18-.18a8.42,8.42,0,0,0,1.72-2.57A7.92,7.92,0,0,0,248.09,102.92Z"/><path class="cls-3" d="M289.16,101.62a14.6,14.6,0,0,1-5.85,9.62,15,15,0,0,1-5.1,2.38,14.23,14.23,0,0,1-5.83.26l0,7.77-10.74,0,.16-37.08,10.74,0a21.9,21.9,0,0,1,7.2,1.18,15.41,15.41,0,0,1,5.61,3.34,13.14,13.14,0,0,1,3.38,5.36A14.78,14.78,0,0,1,289.16,101.62Zm-10.73-2.3A3.49,3.49,0,0,0,275,95.78h-2.52l0,7.12h2.45a3.37,3.37,0,0,0,2.51-1,3.49,3.49,0,0,0,1-2.53Z"/><path class="cls-3" d="M317.21,111.1l0,10.74-25.73-.11.16-37.08,25.73.11,0,10.74-15-.07v3.32l12.53.05-.06,9-12.53-.05V111Z"/><path class="cls-3" d="M351.17,122l-11.56-.05q-2.29-3.38-3.79-5.41a34.38,34.38,0,0,0-2.46-3,5.57,5.57,0,0,0-1.4-1.23q-.46-.21-.64,0a1.34,1.34,0,0,0-.18.77v.87l0,8-10.74,0,.16-37.08,14.06.06a10.81,10.81,0,0,1,4.83,1.2,14.92,14.92,0,0,1,4.11,3,13.2,13.2,0,0,1,3,4.67,14,14,0,0,1,.93,5.32,14.5,14.5,0,0,1-1.18,5.34,15,15,0,0,1-3.16,4.72ZM337.1,98.5A3.49,3.49,0,0,0,333.67,95h-2.53l0,7.12h2.45a3.37,3.37,0,0,0,2.51-1A3.49,3.49,0,0,0,337.1,98.5Z"/><path class="cls-2" d="M155.63,133.61l-17.54,35.1a1.72,1.72,0,0,0,1.54,2.5H284.87a1.72,1.72,0,0,0,1.54-2.5l-17.52-35.1a2.16,2.16,0,0,0-1.93-1.19H157.56A2.16,2.16,0,0,0,155.63,133.61Zm89.89,1.78h4.76a.43.43,0,0,1,.41.3l.76,2.27a.43.43,0,0,1-.28.54h-5a.43.43,0,0,1-.42-.31l-.65-2.27a.43.43,0,0,1,.32-.52h.09Zm4.3,4.74.79,2.52a.43.43,0,0,1-.28.54H244.8a.43.43,0,0,1-.42-.32l-.66-2.52a.43.43,0,0,1,.28-.54h5.4a.43.43,0,0,1,.41.32Zm-12.24-4.74h4.77a.43.43,0,0,1,.42.32l.6,2.27a.43.43,0,0,1-.28.54h-5a.43.43,0,0,1-.42-.34l-.49-2.27a.43.43,0,0,1,.32-.52h.1Zm3.61,4.77.61,2.52a.43.43,0,0,1-.3.53l-.12,0h-5.44a.43.43,0,0,1-.42-.35l-.48-2.52a.43.43,0,0,1,.35-.5h5.36a.43.43,0,0,1,.44.31Zm-11.54-4.77h4.78a.43.43,0,0,1,.42.35l.44,2.27a.43.43,0,0,1-.34.51h-5a.43.43,0,0,1-.43-.37l-.33-2.27a.43.43,0,0,1,.36-.49Zm-41.42,9.23h5.24a.43.43,0,0,1,.43.49l-.41,2.8a.43.43,0,0,1-.43.37h-5.38a.43.43,0,0,1-.42-.51l.55-2.8a.43.43,0,0,1,.43-.34Zm-5.56-1.94.61-2.52a.43.43,0,0,1,.42-.33H189a.43.43,0,0,1,.42.51l-.48,2.52a.43.43,0,0,1-.42.35h-5.41a.43.43,0,0,1-.41-.55Zm8.8,0,.43-2.52a.43.43,0,0,1,.43-.36h5.29a.43.43,0,0,1,.43.48l-.3,2.52a.43.43,0,0,1-.43.38h-5.42a.43.43,0,0,1-.41-.45h0Zm5.31,1.91H202a.43.43,0,0,1,.43.44h0v0l-.22,2.8a.43.43,0,0,1-.43.4h-5.38a.43.43,0,0,1-.43-.49l.36-2.8a.43.43,0,0,1,.44-.38Zm3.5-1.88.25-2.52a.43.43,0,0,1,.43-.39h5.3a.43.43,0,0,1,.43.43h0l-.11,2.52a.43.43,0,0,1-.43.41h-5.43a.43.43,0,0,1-.42-.45h0Zm5.05,1.88h5.25a.43.43,0,0,1,.43.43l0,2.8a.43.43,0,0,1-.43.43h-5.39a.43.43,0,0,1-.43-.43h0l.16-2.8a.43.43,0,0,1,.44-.41Zm3.76-1.85.07-2.52a.43.43,0,0,1,.43-.42h5.3a.43.43,0,0,1,.43.42l.07,2.52a.43.43,0,0,1-.42.44h-5.47a.43.43,0,0,1-.41-.44Zm4.8,1.85h5.25a.43.43,0,0,1,.43.41l.16,2.8a.43.43,0,0,1-.41.45h-5.4a.43.43,0,0,1-.43-.43l0-2.8a.43.43,0,0,1,.43-.43h0Zm4-1.82-.11-2.52a.43.43,0,0,1,.42-.45h5.32a.43.43,0,0,1,.43.39l.25,2.52a.43.43,0,0,1-.39.47h-5.48a.43.43,0,0,1-.42-.41Zm4.54,1.82h5.28a.43.43,0,0,1,.43.38l.36,2.8a.43.43,0,0,1-.37.48H222.7a.43.43,0,0,1-.43-.4l-.22-2.8a.43.43,0,0,1,.4-.47h0Zm4.28-1.79-.3-2.52a.43.43,0,0,1,.38-.48h5.34a.43.43,0,0,1,.43.36l.43,2.52a.43.43,0,0,1-.35.5h-5.46a.43.43,0,0,1-.44-.38Zm-5-7.44h4.8a.43.43,0,0,1,.43.38l.29,2.27a.43.43,0,0,1-.37.48h-5a.43.43,0,0,1-.43-.4l-.18-2.27a.43.43,0,0,1,.4-.47h.05Zm-7.93,0h4.8a.43.43,0,0,1,.43.41l.13,2.27a.43.43,0,0,1-.41.45H213.8a.43.43,0,0,1-.43-.43v-2.27a.43.43,0,0,1,.43-.43h0Zm-7.92,0h4.8a.43.43,0,0,1,.43.43v2.27a.43.43,0,0,1-.43.43h-4.93a.43.43,0,0,1-.43-.43h0l.13-2.27a.43.43,0,0,1,.45-.41Zm-7.92,0h4.8a.43.43,0,0,1,.43.44h0v0l-.18,2.27a.43.43,0,0,1-.43.4h-4.93a.43.43,0,0,1-.43-.49l.29-2.27a.43.43,0,0,1,.47-.38Zm-7.92,0h4.78a.43.43,0,0,1,.43.49l-.33,2.27a.43.43,0,0,1-.43.37h-4.89a.43.43,0,0,1-.42-.51l.44-2.27a.43.43,0,0,1,.44-.34Zm-7.92,0h4.77a.43.43,0,0,1,.42.55l-.49,2.27a.43.43,0,0,1-.42.34H181.5a.43.43,0,0,1-.42-.55l.6-2.27a.43.43,0,0,1,.43-.34Zm-1.36,5-.64,2.52a.43.43,0,0,1-.42.32H174.3a.43.43,0,0,1-.41-.55l.79-2.52a.43.43,0,0,1,.41-.3h5.27a.43.43,0,0,1,.41.55Zm-6.57-5h4.76a.43.43,0,0,1,.42.55l-.65,2.27a.43.43,0,0,1-.42.31h-4.87A.43.43,0,0,1,173,138l.76-2.27a.43.43,0,0,1,.44-.31Zm-7.92,0H171a.43.43,0,0,1,.41.55l-.8,2.27a.43.43,0,0,1-.41.29h-4.85a.43.43,0,0,1-.4-.59l.93-2.29a.43.43,0,0,1,.43-.25Zm-1.78,4.44h7.36a.43.43,0,0,1,.41.55l-.84,2.52a.43.43,0,0,1-.41.3h-7.48a.43.43,0,0,1-.4-.59l1-2.52a.43.43,0,0,1,.41-.25Zm.33,14h-5.54a.43.43,0,0,1-.4-.59l1.25-3.12a.43.43,0,0,1,.4-.27H166a.43.43,0,0,1,.41.55l-1.09,3.12a.43.43,0,0,1-.41.31Zm1.94-5.51h-5.25a.43.43,0,0,1-.4-.59l1.13-2.8a.43.43,0,0,1,.4-.27h5.19a.43.43,0,0,1,.41.55l-1,2.8a.43.43,0,0,1-.42.31Zm7.19,5.51h-5.58a.43.43,0,0,1-.41-.55l1-3.12a.43.43,0,0,1,.41-.3h5.47a.43.43,0,0,1,.42.55l-.89,3.12a.43.43,0,0,1-.43.29Zm1.57-5.51h-5.35a.43.43,0,0,1-.41-.55l.94-2.8a.43.43,0,0,1,.41-.3h5.21a.43.43,0,0,1,.42.55l-.8,2.8a.43.43,0,0,1-.38.3Zm7.56,5.51h-5.57a.43.43,0,0,1-.42-.55l.83-3.12a.43.43,0,0,1,.42-.32h5.47a.43.43,0,0,1,.42.55l-.67,3.12a.43.43,0,0,1-.42.32Zm1.19-5.51h-5.36a.43.43,0,0,1-.42-.55l.74-2.8a.43.43,0,0,1,.42-.32h5.23a.43.43,0,0,1,.42.55l-.6,2.8a.43.43,0,0,1-.39.32ZM228.9,166.9H195.51a1.72,1.72,0,0,1-1.71-1.94l1-7.54a1.72,1.72,0,0,1,1.75-1.54H228a1.72,1.72,0,0,1,1.71,1.51l1,7.54a1.72,1.72,0,0,1-1.48,1.94l-.26,0Zm8.92-13.07H186.61a.43.43,0,0,1-.42-.51l.61-3.12a.43.43,0,0,1,.41-.34h50.05a.43.43,0,0,1,.42.35l.61,3.12a.43.43,0,0,1-.38.48h0Zm-1.09-5.51h-5.38a.43.43,0,0,1-.43-.37l-.41-2.8a.43.43,0,0,1,.37-.49h5.3a.43.43,0,0,1,.42.35l.55,2.8a.43.43,0,0,1-.37.48Zm10.2,5.51h-5.58a.43.43,0,0,1-.42-.34l-.67-3.12a.43.43,0,0,1,.3-.53l.12,0h5.47a.43.43,0,0,1,.42.32l.83,3.12a.43.43,0,0,1-.32.52H247Zm-1.46-5.51h-5.36a.43.43,0,0,1-.42-.34l-.6-2.8a.43.43,0,0,1,.3-.53l.12,0h5.23a.43.43,0,0,1,.42.32l.74,2.8a.43.43,0,0,1-.29.54h-.09Zm10.58,5.51h-5.54a.43.43,0,0,1-.42-.31l-.89-3.12a.43.43,0,0,1,.28-.54h5.61a.43.43,0,0,1,.41.3l1,3.12a.43.43,0,0,1-.32.52h-.1Zm-1.84-5.51h-5.35a.43.43,0,0,1-.42-.31l-.8-2.8a.43.43,0,0,1,.28-.54h5.34a.43.43,0,0,1,.41.3l.94,2.8a.43.43,0,0,1-.29.54h-.07Zm10.95,5.51h-5.52a.43.43,0,0,1-.41-.29l-1.09-3.12a.43.43,0,0,1,.28-.54H264a.43.43,0,0,1,.4.27l1.25,3.12a.43.43,0,0,1-.29.54h-.12ZM263,148.31h-5.33a.43.43,0,0,1-.41-.29l-1.59-4.5a.43.43,0,0,0-.41-.29H253.5a.43.43,0,0,1-.41-.3l-.84-2.52a.43.43,0,0,1,.28-.54H260a.43.43,0,0,1,.4.27l3.05,7.6a.43.43,0,0,1-.28.54H263ZM259,138.55H254.2a.43.43,0,0,1-.41-.29L253,136a.43.43,0,0,1,.28-.54h4.86a.43.43,0,0,1,.4.27l.91,2.27a.43.43,0,0,1-.28.54h-.08Z"/><path class="cls-3" d="M283.63,175.94H140.87a1.81,1.81,0,0,1-1.64-.79l-1.14-2.28c-.09-.19.11-.38.41-.38H286c.3,0,.5.19.41.38l-1.14,2.28A1.81,1.81,0,0,1,283.63,175.94Z"/></svg>