<?xml version="1.0" encoding="utf-8"?>
<!-- Generator: Adobe Illustrator 21.0.0, SVG Export Plug-In . SVG Version: 6.00 Build 0)  -->
<svg version="1.1" id="Calque_1" xmlns="http://www.w3.org/2000/svg" xmlns:xlink="http://www.w3.org/1999/xlink" x="0px" y="0px"
	 viewBox="0 0 194.2 69.1" style="enable-background:new 0 0 194.2 69.1;" xml:space="preserve">
<style type="text/css">
	.st0{fill:#F2F2F2;}
</style>
<path class="st0" d="M124.5,60.3c-16.3,3.9-33,6.4-49.8,7.4c-8.4,0.5-16.8,0.6-25.2,0.2c-4.2-0.2-8.4-0.6-12.6-1.1
	c-4.2-0.6-8.4-1.3-12.5-2.4c-4.1-1.1-8.2-2.4-12-4.5c-1-0.5-1.9-1.1-2.8-1.7c-0.9-0.6-1.8-1.3-2.6-2.1c-0.8-0.8-1.6-1.7-2.2-2.7
	c-0.6-1-1.1-2.1-1.5-3.2c-0.3-1.2-0.4-2.4-0.4-3.6c0.1-1.2,0.3-2.4,0.7-3.5c0.8-2.2,2.1-4.1,3.5-5.8c0.3-0.4,0.7-0.8,1.1-1.2
	c0.4-0.4,0.8-0.8,1.2-1.2c0.8-0.8,1.6-1.5,2.4-2.2c1.7-1.4,3.4-2.7,5.2-3.8c3.6-2.4,7.3-4.4,11.2-6.2c3.8-1.8,7.7-3.5,11.7-5
	c7.9-3,16-5.5,24.2-7.6c4.1-1,8.2-2,12.3-2.8c4.1-0.9,8.3-1.6,12.5-2.3c8.3-1.4,16.7-2.4,25.2-3.1c4.2-0.3,8.4-0.5,12.7-0.6
	c4.2-0.1,8.5-0.1,12.7,0.1c4.2,0.2,8.5,0.4,12.7,0.9c4.2,0.5,8.5,1.1,12.7,2c4.2,0.9,8.4,2.1,12.4,3.8c2,0.9,4,1.8,5.9,3
	c1.9,1.2,3.7,2.7,5.3,4.5c0.8,0.9,1.4,2,2,3.1c0.5,1.1,0.9,2.4,1,3.7c0.1,1.3,0,2.6-0.2,3.8c-0.3,1.2-0.7,2.3-1.3,3.4
	c-1.1,2.1-2.5,3.9-4.1,5.5c-1.6,1.6-3.2,3-5,4.3c-0.9,0.6-1.8,1.3-2.7,1.9c-0.9,0.6-1.8,1.2-2.7,1.7c-1.8,1.1-3.7,2.1-5.6,3.1
	c-3.8,1.9-7.7,3.5-11.7,5c-7.9,3-16,5.3-24.2,7.1l-0.1-0.5c8-2.5,15.9-5.3,23.5-8.7c3.8-1.7,7.6-3.5,11.2-5.5
	c3.6-2,7.1-4.2,10.3-6.8c1.6-1.3,3.1-2.6,4.4-4.1c1.3-1.5,2.5-3,3.2-4.7c0.4-0.8,0.7-1.7,0.8-2.5c0.2-0.8,0.2-1.7,0.1-2.5
	c-0.2-1.6-1-3.2-2.2-4.5c-1.2-1.3-2.7-2.5-4.3-3.5c-1.7-1-3.5-1.8-5.3-2.6c-3.7-1.5-7.7-2.5-11.7-3.3c-4-0.8-8.1-1.4-12.2-1.8
	c-4.1-0.4-8.2-0.7-12.4-0.9C137.1,6.1,135,6,133,6c-2.1,0-4.1,0-6.2,0c-2.1,0-4.2,0.1-6.2,0.2c-2.1,0.1-4.2,0.2-6.2,0.3
	C106,7,97.7,7.8,89.5,9c-4.1,0.6-8.2,1.3-12.3,2.1c-4.1,0.8-8.2,1.7-12.2,2.6c-8.1,2-16.1,4.3-23.9,7.1c-3.9,1.4-7.7,3-11.5,4.7
	c-3.7,1.8-7.4,3.7-10.9,5.9c-3.4,2.2-6.7,4.7-9.3,7.7c-1.3,1.5-2.4,3.1-3,4.9c-0.7,1.7-0.8,3.6-0.4,5.3c0.4,1.7,1.5,3.3,2.9,4.7
	c0.7,0.7,1.4,1.3,2.2,1.9c0.8,0.6,1.6,1.1,2.5,1.6c3.5,2,7.4,3.4,11.4,4.5c4,1.1,8.1,1.9,12.2,2.5c4.1,0.6,8.3,1.1,12.4,1.4
	c8.3,0.6,16.7,0.6,25.1,0.3c8.4-0.3,16.7-1.1,25-2.1c8.3-1.1,16.6-2.5,24.8-4.2L124.5,60.3z"/>
</svg>
