<svg id="Calque_1" data-name="Calque 1" xmlns="http://www.w3.org/2000/svg" viewBox="0 0 32.04 32.02"><defs><style>.cls-1{isolation:isolate;}.cls-2{fill:#fff;}.cls-3{fill:none;stroke:#fff;stroke-miterlimit:10;stroke-width:2px;}</style></defs><title>blanc-8</title><g id="_Groupe_" data-name=" Groupe "><g id="_Groupe_2" data-name=" Groupe 2"><g class="cls-1"><path class="cls-2" d="M21.1,12.21a3.84,3.84,0,0,1-.75,2.35,4.54,4.54,0,0,1-2,1.52,5,5,0,0,1,2.33,1.61,4,4,0,0,1,.88,2.54A4.5,4.5,0,0,1,20,23.87a5.84,5.84,0,0,1-3.9,1.29A6.29,6.29,0,0,1,12,23.87a4.43,4.43,0,0,1-1.59-3.64,3.91,3.91,0,0,1,.9-2.54,5.17,5.17,0,0,1,2.42-1.62,4.5,4.5,0,0,1-2.07-1.51,3.8,3.8,0,0,1-.76-2.35,4.18,4.18,0,0,1,1.44-3.42A5.69,5.69,0,0,1,16.12,7.6,5.34,5.34,0,0,1,19.7,8.79,4.23,4.23,0,0,1,21.1,12.21Zm-1.83,8a3.1,3.1,0,0,0-.91-2.3,3.06,3.06,0,0,0-2.24-.9,3.35,3.35,0,0,0-2.4.9,3,3,0,0,0-.95,2.3,3,3,0,0,0,.94,2.31,3.45,3.45,0,0,0,2.43.87,3,3,0,0,0,3.13-3.18Zm-.48-7.93a2.8,2.8,0,0,0-.77-2,2.54,2.54,0,0,0-1.9-.8,2.87,2.87,0,0,0-2.06.77,2.7,2.7,0,0,0-.81,2.06,2.79,2.79,0,0,0,2.89,2.92A2.48,2.48,0,0,0,18,14.35,3,3,0,0,0,18.79,12.24Z"/></g></g><circle id="_Tracé_" data-name=" Tracé " class="cls-3" cx="16.01" cy="16.01" r="15"/></g></svg>