<svg id="Calque_1" data-name="Calque 1" xmlns="http://www.w3.org/2000/svg" viewBox="0 0 25 25"><defs><style>.cls-1{fill:#434762;}.cls-2{isolation:isolate;}.cls-3{fill:#fff;}</style></defs><title>bullet-8</title><circle id="_Tracé_" data-name=" Tracé " class="cls-1" cx="12.5" cy="12.5" r="12.5"/><g class="cls-2"><path class="cls-3" d="M15.7,10.22a2.29,2.29,0,0,1-.38,1.31,2.58,2.58,0,0,1-1.05.89,3,3,0,0,1,1.29,1A2.29,2.29,0,0,1,16,14.81a2.6,2.6,0,0,1-1,2.15,3.81,3.81,0,0,1-2.46.77A4.12,4.12,0,0,1,10,17a2.55,2.55,0,0,1-1-2.15,2.24,2.24,0,0,1,.5-1.43,3.14,3.14,0,0,1,1.34-1,2.66,2.66,0,0,1-1.1-.89,2.22,2.22,0,0,1-.4-1.31,2.42,2.42,0,0,1,.9-2,3.64,3.64,0,0,1,2.33-.71,3.4,3.4,0,0,1,2.24.71A2.46,2.46,0,0,1,15.7,10.22ZM14,14.72a1.5,1.5,0,0,0-.41-1.09,1.37,1.37,0,0,0-1-.43,1.54,1.54,0,0,0-1.11.43A1.44,1.44,0,0,0,11,14.72a1.39,1.39,0,0,0,.44,1.08,1.61,1.61,0,0,0,1.13.4,1.38,1.38,0,0,0,1-.4A1.46,1.46,0,0,0,14,14.72Zm-.33-4.41a1.35,1.35,0,0,0-.31-.93A1,1,0,0,0,12.6,9a1.21,1.21,0,0,0-.9.34,1.28,1.28,0,0,0-.33.94,1.4,1.4,0,0,0,.34,1,1.17,1.17,0,0,0,.9.37,1,1,0,0,0,.79-.37A1.51,1.51,0,0,0,13.71,10.31Z"/></g></svg>