<svg id="Calque_1" data-name="Calque 1" xmlns="http://www.w3.org/2000/svg" viewBox="0 0 25 25"><defs><style>.cls-1{fill:#434762;}.cls-2{isolation:isolate;}.cls-3{fill:#fff;}</style></defs><title>bullet-2</title><circle id="_Tracé_" data-name=" Tracé " class="cls-1" cx="12.5" cy="12.5" r="12.5"/><g class="cls-2"><path class="cls-3" d="M16,17.59H9.28V16.28l3.08-3.49a7.72,7.72,0,0,0,1-1.38,2.29,2.29,0,0,0,.29-1,1.49,1.49,0,0,0-.31-1A1.13,1.13,0,0,0,12.4,9a1.18,1.18,0,0,0-1,.47A1.93,1.93,0,0,0,11,10.7H9.1v0A3,3,0,0,1,10,8.41a3.28,3.28,0,0,1,2.44-.92,3.38,3.38,0,0,1,2.38.78,2.73,2.73,0,0,1,.85,2.1A3,3,0,0,1,15.16,12a18.38,18.38,0,0,1-1.64,2l-1.64,2v0H16Z"/></g></svg>