<svg id="Calque_1" data-name="Calque 1" xmlns="http://www.w3.org/2000/svg" viewBox="0 0 25 25"><defs><style>.cls-1{fill:#434762;}.cls-2{isolation:isolate;}.cls-3{fill:#fff;}</style></defs><title>bullet-6</title><circle id="_Tracé_" data-name=" Tracé " class="cls-1" cx="12.5" cy="12.5" r="12.5"/><g class="cls-2"><path class="cls-3" d="M13.05,7.49a5.11,5.11,0,0,1,1.08.11,5.41,5.41,0,0,1,1,.31l-.36,1.46a7.74,7.74,0,0,0-.83-.24,4.19,4.19,0,0,0-.86-.08,1.72,1.72,0,0,0-1.41.67,2.91,2.91,0,0,0-.54,1.87v.32a2.79,2.79,0,0,1,.95-.61,3.36,3.36,0,0,1,1.23-.21,2.4,2.4,0,0,1,2,.91A3.69,3.69,0,0,1,16,14.36a3.3,3.3,0,0,1-.93,2.43,3.27,3.27,0,0,1-2.43.94,3.29,3.29,0,0,1-2.54-1.07,4.15,4.15,0,0,1-1-2.92V11.66a4.16,4.16,0,0,1,1.11-3A3.77,3.77,0,0,1,13.05,7.49Zm-.42,5.11a2.18,2.18,0,0,0-.92.17,1.41,1.41,0,0,0-.59.48v.53a3.18,3.18,0,0,0,.42,1.78,1.28,1.28,0,0,0,1.11.63,1.16,1.16,0,0,0,1-.52A2.23,2.23,0,0,0,14,14.36a2,2,0,0,0-.37-1.29A1.22,1.22,0,0,0,12.63,12.61Z"/></g></svg>