<svg id="Calque_1" data-name="Calque 1" xmlns="http://www.w3.org/2000/svg" viewBox="0 0 32.04 32.02"><defs><style>.cls-1{isolation:isolate;}.cls-2{fill:#ec654a;}.cls-3{fill:none;stroke:#ec654a;stroke-miterlimit:10;stroke-width:2px;}</style></defs><title>orange-3</title><g id="_Groupe_" data-name=" Groupe "><g id="_Groupe_2" data-name=" Groupe 2"><g class="cls-1"><path class="cls-2" d="M16,15.21a2.71,2.71,0,0,0,2.19-.77,3.27,3.27,0,0,0,.64-2.15,3,3,0,0,0-.7-2.08,2.61,2.61,0,0,0-2.07-.79,3.09,3.09,0,0,0-2.21.83A2.73,2.73,0,0,0,13,12.31h-2.2l0-.07A4.08,4.08,0,0,1,12.24,9,5.56,5.56,0,0,1,16.1,7.6a5.4,5.4,0,0,1,3.73,1.2,4.49,4.49,0,0,1,1.35,3.53,4,4,0,0,1-.63,2.18,4.23,4.23,0,0,1-1.75,1.54,4,4,0,0,1,2,1.56,4.6,4.6,0,0,1,.67,2.54A4.68,4.68,0,0,1,20,23.83a5.55,5.55,0,0,1-3.85,1.33,6.1,6.1,0,0,1-3.84-1.28,3.93,3.93,0,0,1-1.6-3.39l0-.07h2.2a2.77,2.77,0,0,0,.9,2.09,3.23,3.23,0,0,0,2.31.85,2.87,2.87,0,0,0,2.21-.87,3.22,3.22,0,0,0,.81-2.28,3.41,3.41,0,0,0-.74-2.4A3.06,3.06,0,0,0,16,17h-1.9V15.21Z"/></g></g><circle id="_Tracé_" data-name=" Tracé " class="cls-3" cx="16.01" cy="16.01" r="15"/></g></svg>