<svg id="Calque_1" data-name="Calque 1" xmlns="http://www.w3.org/2000/svg" viewBox="0 0 32.04 32.02"><defs><style>.cls-1{isolation:isolate;}.cls-2{fill:#ec654a;}.cls-3{fill:none;stroke:#ec654a;stroke-miterlimit:10;stroke-width:2px;}</style></defs><title>orange-2</title><g id="_Groupe_" data-name=" Groupe "><g id="_Groupe_2" data-name=" Groupe 2"><g class="cls-1"><path class="cls-2" d="M21.61,24.91H11V23.33l5.36-6.39a16.09,16.09,0,0,0,1.94-2.76,4.61,4.61,0,0,0,.51-2.07,2.76,2.76,0,0,0-.69-1.94,2.46,2.46,0,0,0-1.91-.76,2.86,2.86,0,0,0-2.3.93,3.43,3.43,0,0,0-.79,2.31H10.9l0-.07A4.6,4.6,0,0,1,12.27,9,5.35,5.35,0,0,1,16.22,7.6a5,5,0,0,1,3.6,1.27,4.34,4.34,0,0,1,1.31,3.27,5.21,5.21,0,0,1-.74,2.64A29.42,29.42,0,0,1,18.12,18l-4.3,5,0,.06h7.77Z"/></g></g><circle id="_Tracé_" data-name=" Tracé " class="cls-3" cx="16.01" cy="16.01" r="15"/></g></svg>