<svg id="Calque_1" data-name="Calque 1" xmlns="http://www.w3.org/2000/svg" viewBox="0 0 25 25"><defs><style>.cls-1{fill:#434762;}.cls-2{isolation:isolate;}.cls-3{fill:#fff;}</style></defs><title>bullet-5</title><circle id="_Tracé_" data-name=" Tracé " class="cls-1" cx="12.5" cy="12.5" r="12.5"/><g class="cls-2"><path class="cls-3" d="M9.43,13.2,10,7.64h5.55v1.6H11.64l-.27,2.32a2.39,2.39,0,0,1,.7-.34,3.33,3.33,0,0,1,.92-.15,2.64,2.64,0,0,1,2.15.86,3.64,3.64,0,0,1,.76,2.46,3.49,3.49,0,0,1-.83,2.4,3.2,3.2,0,0,1-2.53.94A3.83,3.83,0,0,1,10.2,17a2.28,2.28,0,0,1-.94-2v0l1.92-.09a1.26,1.26,0,0,0,.38,1,1.39,1.39,0,0,0,1,.35,1.17,1.17,0,0,0,1-.46,2.3,2.3,0,0,0,.33-1.33A2.36,2.36,0,0,0,13.55,13a1.2,1.2,0,0,0-1.05-.51,1.53,1.53,0,0,0-.88.21,1.16,1.16,0,0,0-.43.57Z"/></g></svg>