<svg id="Calque_1" data-name="Calque 1" xmlns="http://www.w3.org/2000/svg" viewBox="0 0 25 25"><defs><style>.cls-1{fill:#434762;}.cls-2{isolation:isolate;}.cls-3{fill:#fff;}</style></defs><title>bullet-10</title><circle id="_Tracé_" data-name=" Tracé " class="cls-1" cx="12.5" cy="12.5" r="12.5"/><g class="cls-2"><path class="cls-3" d="M9.92,17.59h-2V9.37H5.87V7.85l4-.36Z"/><path class="cls-3" d="M19.89,14A3.9,3.9,0,0,1,19,16.74a3.15,3.15,0,0,1-2.44,1,3.18,3.18,0,0,1-2.46-1A3.89,3.89,0,0,1,13.16,14V11.25a3.92,3.92,0,0,1,.92-2.75,3.15,3.15,0,0,1,2.44-1A3.16,3.16,0,0,1,19,8.5a3.9,3.9,0,0,1,.93,2.75Zm-2-2.95a2.58,2.58,0,0,0-.37-1.48,1.24,1.24,0,0,0-2,0A2.61,2.61,0,0,0,15.15,11v3.14a2.62,2.62,0,0,0,.36,1.5,1.18,1.18,0,0,0,1,.52,1.15,1.15,0,0,0,1-.52,2.64,2.64,0,0,0,.36-1.5Z"/></g></svg>