<svg id="Calque_1" data-name="Calque 1" xmlns="http://www.w3.org/2000/svg" viewBox="0 0 25 25"><defs><style>.cls-1{fill:#434762;}.cls-2{isolation:isolate;}.cls-3{fill:#fff;}</style></defs><title>bullet-3</title><circle id="_Tracé_" data-name=" Tracé " class="cls-1" cx="12.5" cy="12.5" r="12.5"/><g class="cls-2"><path class="cls-3" d="M12.44,11.74a1.38,1.38,0,0,0,1.06-.37,1.46,1.46,0,0,0,.35-1,1.27,1.27,0,0,0-.36-.93,1.35,1.35,0,0,0-1-.37,1.32,1.32,0,0,0-.92.33,1.1,1.1,0,0,0-.37.85H9.25v0a2.26,2.26,0,0,1,.9-1.93,3.6,3.6,0,0,1,2.33-.76,3.82,3.82,0,0,1,2.45.73,2.52,2.52,0,0,1,.91,2.09,2.17,2.17,0,0,1-.39,1.25,2.69,2.69,0,0,1-1.08.9,2.52,2.52,0,0,1,1.2.89A2.44,2.44,0,0,1,16,14.8,2.6,2.6,0,0,1,15,17a4,4,0,0,1-2.53.78A4,4,0,0,1,10.09,17a2.33,2.33,0,0,1-1-2.07v0h1.94a1.25,1.25,0,0,0,.39.94,1.4,1.4,0,0,0,1,.38,1.54,1.54,0,0,0,1.11-.4,1.34,1.34,0,0,0,.42-1,1.54,1.54,0,0,0-.4-1.17,1.61,1.61,0,0,0-1.16-.38h-1.1v-1.5Z"/></g></svg>