<svg id="Calque_1" data-name="Calque 1" xmlns="http://www.w3.org/2000/svg" viewBox="0 0 32.04 32.02"><defs><style>.cls-1{isolation:isolate;}.cls-2{fill:#fff;}.cls-3{fill:none;stroke:#fff;stroke-miterlimit:10;stroke-width:2px;}</style></defs><title>blanc-6</title><g id="_Groupe_" data-name=" Groupe "><g id="_Groupe_2" data-name=" Groupe 2"><g class="cls-1"><path class="cls-2" d="M16.77,7.6a10,10,0,0,1,2,.2,7.2,7.2,0,0,1,1.63.5l-.49,1.77a8.62,8.62,0,0,0-1.41-.47,7.26,7.26,0,0,0-1.72-.18,3.09,3.09,0,0,0-2.61,1.37,5.73,5.73,0,0,0-1,3.47v1.32a5.22,5.22,0,0,1,1.69-1.12A5.39,5.39,0,0,1,17,14a4.38,4.38,0,0,1,3.49,1.48,5.7,5.7,0,0,1,1.28,3.88,6,6,0,0,1-1.44,4.19,5,5,0,0,1-3.87,1.56,5.08,5.08,0,0,1-4-1.8,7.15,7.15,0,0,1-1.59-4.92V14.52a7.27,7.27,0,0,1,1.71-5A5.36,5.36,0,0,1,16.77,7.6Zm-.55,8.17a3.6,3.6,0,0,0-1.87.46,3.1,3.1,0,0,0-1.19,1.25v1.18a5.6,5.6,0,0,0,.94,3.43,2.81,2.81,0,0,0,2.31,1.26,2.56,2.56,0,0,0,2.22-1.1,4.82,4.82,0,0,0,.78-2.85,4,4,0,0,0-.84-2.65A2.93,2.93,0,0,0,16.22,15.77Z"/></g></g><circle id="_Tracé_" data-name=" Tracé " class="cls-3" cx="16.01" cy="16.01" r="15"/></g></svg>