<svg id="Calque_1" data-name="Calque 1" xmlns="http://www.w3.org/2000/svg" viewBox="0 0 25 25"><defs><style>.cls-1{fill:#434762;}.cls-2{isolation:isolate;}.cls-3{fill:#fff;}</style></defs><title>bullet-9</title><circle id="_Tracé_" data-name=" Tracé " class="cls-1" cx="12.5" cy="12.5" r="12.5"/><g class="cls-2"><path class="cls-3" d="M12.12,16.2a1.51,1.51,0,0,0,1.21-.56,2.33,2.33,0,0,0,.47-1.55v-.64a2.21,2.21,0,0,1-.79.65,2.26,2.26,0,0,1-1,.22,2.74,2.74,0,0,1-2.18-.9A3.6,3.6,0,0,1,9.05,11,3.46,3.46,0,0,1,10,8.48a3.16,3.16,0,0,1,2.39-1,3.22,3.22,0,0,1,2.45,1,3.93,3.93,0,0,1,.95,2.8V14a3.51,3.51,0,0,1-3.67,3.75A5.39,5.39,0,0,1,11,17.62a5.56,5.56,0,0,1-1-.32l.33-1.44a4.57,4.57,0,0,0,.84.26A4.77,4.77,0,0,0,12.12,16.2Zm.24-3.35a1.79,1.79,0,0,0,.85-.2,1.58,1.58,0,0,0,.59-.53V11a2.31,2.31,0,0,0-.38-1.43,1.23,1.23,0,0,0-1-.5,1.12,1.12,0,0,0-1,.56A2.43,2.43,0,0,0,11.05,11a2.51,2.51,0,0,0,.33,1.37A1.08,1.08,0,0,0,12.36,12.85Z"/></g></svg>