<svg id="Calque_1" data-name="Calque 1" xmlns="http://www.w3.org/2000/svg" viewBox="0 0 25 25"><defs><style>.cls-1{fill:#434762;}.cls-2{isolation:isolate;}.cls-3{fill:#fff;}</style></defs><title>bullet-12</title><circle id="_Tracé_" data-name=" Tracé " class="cls-1" cx="12.5" cy="12.5" r="12.5"/><g class="cls-2"><path class="cls-3" d="M9.92,17.59h-2V9.37H5.87V7.85l4-.36Z"/><path class="cls-3" d="M20,17.59H13.31V16.28l3.08-3.49a7.75,7.75,0,0,0,1-1.38,2.27,2.27,0,0,0,.29-1,1.49,1.49,0,0,0-.31-1A1.13,1.13,0,0,0,16.44,9a1.18,1.18,0,0,0-1,.47,1.93,1.93,0,0,0-.36,1.2H13.13v0A3,3,0,0,1,14,8.41a3.28,3.28,0,0,1,2.44-.92,3.38,3.38,0,0,1,2.38.78,2.72,2.72,0,0,1,.85,2.1A3,3,0,0,1,19.19,12a18.35,18.35,0,0,1-1.64,2l-1.64,2v0H20Z"/></g></svg>