<svg id="Calque_1" data-name="Calque 1" xmlns="http://www.w3.org/2000/svg" viewBox="0 0 32.04 32.02"><defs><style>.cls-1{isolation:isolate;}.cls-2{fill:#ec654a;}.cls-3{fill:none;stroke:#ec654a;stroke-miterlimit:10;stroke-width:2px;}</style></defs><title>orange-5</title><g id="_Groupe_" data-name=" Groupe "><g id="_Groupe_2" data-name=" Groupe 2"><g class="cls-1"><path class="cls-2" d="M11.31,17.33l1-9.48h8.54V9.9h-6.6l-.55,4.91a5.27,5.27,0,0,1,1.22-.67,4.29,4.29,0,0,1,1.52-.28,4.65,4.65,0,0,1,3.71,1.48,6,6,0,0,1,1.34,4.13,6,6,0,0,1-1.38,4.13,5.07,5.07,0,0,1-4,1.56A5.5,5.5,0,0,1,12.48,24a4.1,4.1,0,0,1-1.38-3.48l0-.07h2.09a2.85,2.85,0,0,0,.8,2.16,2.89,2.89,0,0,0,2.08.77,2.72,2.72,0,0,0,2.27-1,4.46,4.46,0,0,0,.81-2.82,4.07,4.07,0,0,0-.81-2.64,2.75,2.75,0,0,0-2.27-1,3.62,3.62,0,0,0-2,.41,2.4,2.4,0,0,0-.9,1.27Z"/></g></g><circle id="_Tracé_" data-name=" Tracé " class="cls-3" cx="16.01" cy="16.01" r="15"/></g></svg>