<?xml version="1.0" encoding="utf-8"?>
<!-- Generator: Adobe Illustrator 21.1.0, SVG Export Plug-In . SVG Version: 6.00 Build 0)  -->
<svg version="1.1" id="Calque_1" xmlns="http://www.w3.org/2000/svg" xmlns:xlink="http://www.w3.org/1999/xlink" x="0px" y="0px"
	 viewBox="0 0 200 200" style="enable-background:new 0 0 200 200;" xml:space="preserve">
<style type="text/css">
	.st0{fill:#EB6449;}
</style>
<path class="st0" d="M0,0v200h200V0H0z M60.9,145.2L44.2,132c11.1-6.6,22.9-20.8,24.9-32.6c-0.7,0.3-3.5,0.7-5.9,0.7
	c-11.4,0-20.4-9-20.4-21.8s10.4-23.6,23.6-23.6c14.2,0,26.7,11.4,26.7,31.5C93.1,110.2,79.9,131.7,60.9,145.2z M124.9,145.2
	L108.3,132c11.1-6.6,22.9-20.8,24.9-32.6c-0.7,0.3-3.5,0.7-5.9,0.7c-11.4,0-20.4-9-20.4-21.8s10.4-23.6,23.6-23.6
	c14.2,0,26.7,11.4,26.7,31.5C157.2,110.2,144,131.7,124.9,145.2z"/>
</svg>
