<?xml version="1.0" encoding="utf-8"?>
<!-- Generator: Adobe Illustrator 21.0.0, SVG Export Plug-In . SVG Version: 6.00 Build 0)  -->
<svg version="1.1" id="Calque_1" xmlns="http://www.w3.org/2000/svg" xmlns:xlink="http://www.w3.org/1999/xlink" x="0px" y="0px"
	 viewBox="0 0 150 110" style="enable-background:new 0 0 150 110;" xml:space="preserve">
<path d="M113.3,73.9c-2.3,0-4.4,0.9-6,2.3l-16-13.4c1.4-2,2.3-4.5,2.3-7.2c0-2.3-0.6-4.4-1.7-6.2l13.6-9.5c1.9,2.1,4.7,3.5,7.8,3.5
	c5.7,0,10.4-4.7,10.4-10.4s-4.7-10.4-10.4-10.4s-10.4,4.7-10.4,10.4c0,1.8,0.5,3.5,1.2,4.9l-13.6,9.5c-1.6-1.9-3.8-3.3-6.2-4l2-11.5
	c3.5,0,6.3-2.9,6.3-6.4c0-3.5-2.9-6.4-6.4-6.4s-6.4,2.9-6.4,6.4c0,2.7,1.7,5.1,4.1,6l-2,11.5c-0.3,0-0.7-0.1-1-0.1
	c-2.8,0-5.5,1-7.6,2.5l-19.2-21c1.1-1.4,1.8-3.1,1.8-5c0-4.4-3.5-7.9-7.9-7.9s-7.9,3.5-7.9,7.9s3.5,7.9,7.9,7.9
	c1.6,0,3.1-0.5,4.4-1.3l19.2,21c-2,2.2-3.2,5-3.3,8.1L41.7,57c-0.8-3.5-3.9-6.1-7.6-6.1c-4.3,0-7.8,3.5-7.8,7.8
	c0,4.3,3.5,7.8,7.8,7.8c4.1,0,7.5-3.2,7.8-7.2l26.6-1.8c0.6,3.8,2.9,7,6.1,8.9l-6.5,14.2c-0.9-0.3-1.8-0.4-2.7-0.4
	c-5,0-9.1,4.1-9.1,9.1s4.1,9.1,9.1,9.1s9.1-4.1,9.1-9.1c0-3.2-1.7-6.1-4.2-7.7l6.6-14.2c1.3,0.5,2.7,0.7,4.2,0.7
	c3.4,0,6.6-1.4,8.9-3.6L105.8,78c-0.9,1.4-1.4,3-1.4,4.8c0,4.9,4,8.9,8.9,8.9s8.9-4,8.9-8.9C122.3,77.9,118.3,73.9,113.3,73.9z"/>
</svg>
