<?xml version="1.0" encoding="utf-8"?>
<!-- Generator: Adobe Illustrator 21.0.0, SVG Export Plug-In . SVG Version: 6.00 Build 0)  -->
<svg version="1.1" id="Calque_1" xmlns="http://www.w3.org/2000/svg" xmlns:xlink="http://www.w3.org/1999/xlink" x="0px" y="0px"
	 viewBox="0 0 150 110" style="enable-background:new 0 0 150 110;" xml:space="preserve">
<g>
	<g>
		<path d="M35.2,52.8c1.3,0,2.4-0.7,3.2-2.2c0.8-1.5,1.3-3.3,1.3-5.6V34.4c0-2.5,0.7-4.4,2-5.7c1.4-1.4,3-2,4.8-2h3.8v4.2H49
			c-1.1,0-1.9,0.4-2.4,1.2C46.2,32.9,46,34,46,35.4V46c0,1.5-0.2,2.9-0.5,3.9c-0.3,1.1-0.7,2-1.2,2.7c-0.5,0.7-1,1.2-1.6,1.6
			c-0.6,0.4-1.1,0.6-1.6,0.7v0.1c0.5,0.1,1,0.3,1.6,0.7c0.6,0.3,1.1,0.9,1.6,1.6c0.5,0.7,0.9,1.6,1.2,2.7c0.3,1.1,0.5,2.5,0.5,4.1
			v10.4c0,1.5,0.2,2.6,0.7,3.5c0.5,0.8,1.3,1.2,2.4,1.2h1.3v4.2h-3.8c-1.9,0-3.5-0.7-4.8-2c-1.4-1.4-2-3.3-2-5.7V65.1
			c0-2.4-0.4-4.3-1.3-5.8S36.5,57,35.2,57V52.8z"/>
		<path d="M114.8,57c-1.3,0-2.4,0.7-3.2,2.2c-0.8,1.5-1.3,3.4-1.3,5.8v10.5c0,2.5-0.7,4.4-2,5.7c-1.4,1.3-3,2-4.8,2h-3.8v-4.2h1.3
			c1.1,0,1.9-0.4,2.4-1.2c0.5-0.8,0.7-2,0.7-3.5V64.1c0-1.6,0.2-2.9,0.5-4.1c0.3-1.1,0.7-2,1.2-2.7c0.5-0.7,1-1.2,1.5-1.6
			c0.6-0.3,1.1-0.6,1.6-0.7v-0.1c-0.5-0.1-1-0.3-1.6-0.7c-0.6-0.4-1.1-0.9-1.5-1.6c-0.5-0.7-0.9-1.6-1.2-2.7
			c-0.3-1.1-0.5-2.4-0.5-3.9V35.4c0-1.4-0.2-2.6-0.7-3.4c-0.5-0.8-1.3-1.2-2.4-1.2h-1.3v-4.2h3.8c1.9,0,3.5,0.7,4.8,2
			c1.4,1.4,2,3.3,2,5.7V45c0,2.3,0.4,4.2,1.3,5.6c0.8,1.5,1.9,2.2,3.2,2.2V57z"/>
		<path d="M68,77.1c2.9-1.3,5.1-2.9,6.5-4.7c1.4-1.8,2.2-4.2,2.3-7c-0.2,0-0.5,0.1-0.7,0.1c-0.2,0-0.4,0-0.7,0
			c-1.5,0-2.8-0.4-3.8-1.3c-1.1-0.9-1.6-2.2-1.6-3.9c0-1.7,0.6-3,1.7-3.9s2.4-1.4,3.9-1.4c2.1,0,3.7,0.8,4.7,2.4s1.6,3.8,1.6,6.5
			c0,4.1-1.1,7.6-3.2,10.4c-2.2,2.8-5.2,4.9-9,6.4L68,77.1z M69.6,41.8c0-1.8,0.5-3.2,1.6-4.3c1.1-1.1,2.4-1.6,4-1.6
			c1.6,0,2.9,0.5,4,1.6c1.1,1.1,1.6,2.5,1.6,4.3c0,1.8-0.5,3.2-1.6,4.3c-1.1,1.1-2.4,1.6-4,1.6c-1.6,0-2.9-0.5-4-1.6
			C70.1,45,69.6,43.6,69.6,41.8z"/>
	</g>
</g>
</svg>
