<?xml version="1.0" encoding="utf-8"?>
<!-- Generator: Adobe Illustrator 21.0.0, SVG Export Plug-In . SVG Version: 6.00 Build 0)  -->
<svg version="1.1" id="Calque_1" xmlns="http://www.w3.org/2000/svg" xmlns:xlink="http://www.w3.org/1999/xlink" x="0px" y="0px"
	 viewBox="0 0 150 110" style="enable-background:new 0 0 150 110;" xml:space="preserve">
<polygon points="125.7,31.1 122.2,34.6 142.5,55 122.2,75.4 125.7,78.9 149.6,55 "/>
<polygon points="24.3,31.1 0.4,55 24.3,78.9 27.8,75.4 7.5,55 27.8,34.6 "/>
<path d="M92.5,35c-1,0-2.1,0.1-3.1,0.3L87,30.9l-7.8,12.8l15,0.3L92,40c0.2,0,0.3,0,0.5,0c8.3,0,15,6.7,15,15c0,8.3-6.7,15-15,15
	s-15-6.7-15-15c0-11-9-20-20-20s-20,9-20,20c0,11,9,20,20,20c1,0,2.1-0.1,3.1-0.3l2.4,4.4l7.8-12.8l-15-0.3L58,70
	c-0.2,0-0.3,0-0.5,0c-8.3,0-15-6.7-15-15c0-8.3,6.7-15,15-15s15,6.7,15,15c0,11,9,20,20,20s20-9,20-20C112.5,44,103.5,35,92.5,35z"
	/>
</svg>
