<?xml version="1.0" encoding="utf-8"?>
<!-- Generator: Adobe Illustrator 21.0.0, SVG Export Plug-In . SVG Version: 6.00 Build 0)  -->
<svg version="1.1" id="Calque_1" xmlns="http://www.w3.org/2000/svg" xmlns:xlink="http://www.w3.org/1999/xlink" x="0px" y="0px"
	 viewBox="0 0 150 110" style="enable-background:new 0 0 150 110;" xml:space="preserve">
<g>
	<path d="M129.2,43.2H112c-2.2-9-7-17.1-13.7-23.5C78.8,1.3,48,2.2,29.6,21.6c-14.2,15-17.3,37.1-8,55.4c-0.8,2.2-1.1,4.4-1.1,6.8
		c0.1,5,2.2,9.7,5.9,13.2c3.5,3.3,8.1,5.2,12.9,5.2c0.2,0,0.4,0,0.5,0c2.7-0.1,5.2-0.7,7.5-1.8c5.6,2.2,11.5,3.2,17.4,3.2
		c12.5,0,24.9-4.8,34.1-13.8v7.9c0,2.5,2,4.5,4.5,4.5h25.9c2.5,0,4.5-2,4.5-4.5V47.7C133.7,45.2,131.7,43.2,129.2,43.2z M26.7,69.3
		c0.5-4.8,2.6-9.3,6-12.9c4.1-4.3,9.6-6.8,15.6-7c6-0.2,11.6,2,16,6.1c4.3,4.1,6.8,9.6,7,15.6c0.2,6-2,11.6-6.1,16
		c-2.7,2.9-6.1,4.9-9.8,6c4.6-7.4,3.5-17.3-3.1-23.5c-3.7-3.5-8.4-5.3-13.5-5.1C34.3,64.6,30,66.3,26.7,69.3z M52.7,96.5
		c0.1-0.1,0.2-0.2,0.3-0.3c0,0,0.1-0.1,0.1-0.1c5.3-0.9,10.1-3.4,13.8-7.4c4.5-4.8,6.9-11.1,6.8-17.7c-0.2-6.6-2.9-12.7-7.7-17.3
		c-4.8-4.5-11.1-6.9-17.7-6.8c-6.6,0.2-12.7,2.9-17.3,7.7c-4,4.2-6.4,9.7-6.7,15.4C21.9,59.4,25,48,32.7,39.8
		c12.8-13.5,34.2-14.1,47.8-1.3C87,44.7,90.8,53.1,91,62.1c0.2,9-3,17.6-9.2,24.2C74.2,94.3,63.4,98,52.7,96.5z M39.7,97.1
		c-3.7,0.1-7.2-1.2-9.9-3.8s-4.2-6-4.3-9.7c-0.1-3.7,1.2-7.2,3.8-9.9c2.5-2.7,6-4.2,9.7-4.3c0.1,0,0.3,0,0.4,0
		c3.5,0,6.9,1.3,9.5,3.8c5.5,5.2,5.8,14,0.5,19.5C46.8,95.5,43.4,97,39.7,97.1z M98.8,47.7v34.6c-0.7,0.9-1.5,1.8-2.3,2.7
		c-8.5,8.9-20.2,13.7-32.2,13.6c7.2-1.4,13.9-5.1,19.2-10.6c6.6-7,10.2-16.2,9.9-25.9c-0.3-9.7-4.3-18.6-11.3-25.3
		C67.6,23,44.7,23.7,31,38.2c-5.3,5.6-8.6,12.7-9.6,20.1c-0.9-12,3.2-24.1,11.8-33.3C49.7,7.6,77.4,6.8,94.8,23.4
		c5.8,5.5,9.9,12.3,12,19.8h-3.5C100.8,43.2,98.8,45.2,98.8,47.7z M128.7,97.1h-24.9V48.2h24.9V97.1z"/>
</g>
</svg>
