<?xml version="1.0" encoding="utf-8"?>
<!-- Generator: Adobe Illustrator 21.0.0, SVG Export Plug-In . SVG Version: 6.00 Build 0)  -->
<svg version="1.1" id="Calque_1" xmlns="http://www.w3.org/2000/svg" xmlns:xlink="http://www.w3.org/1999/xlink" x="0px" y="0px"
	 viewBox="0 0 150 110" style="enable-background:new 0 0 150 110;" xml:space="preserve">
<g>
	<g>
		<g id="Calque_2_5_">
			<g id="content_1_">
				<path d="M112,36.5c-0.2-0.6-0.4-1.1-0.7-1.6c-0.9-1.9-2.3-3.5-4.1-4.6L80.3,14.7C77,13,73,13,69.7,14.7L42.8,30.2
					c-1.8,1.1-3.2,2.7-4.1,4.6c-0.3,0.5-0.5,1.1-0.7,1.6c-0.3,1-0.5,2-0.5,3v31c0.1,3.8,2.1,7.2,5.3,9.2l26.8,15.5
					C73,97,77,97,80.3,95.2l26.8-15.5c3.2-2,5.2-5.5,5.3-9.2v-31C112.5,38.5,112.3,37.5,112,36.5z M72.4,19.4c1.7-0.8,3.6-0.8,5.3,0
					l26.8,15.5L77.6,50.3c-1.7,0.8-3.6,0.8-5.3,0L45.6,34.9L72.4,19.4z M107.1,70.5c-0.2,1.8-1.1,3.5-2.6,4.6L77.6,90.5
					c-1.7,0.7-3.6,0.7-5.3,0L45.5,75C44,74,43,72.3,42.9,70.5v-6.6l27.6,15.9c2.9,1.5,6.3,1.5,9.1,0l27.6-15.9V70.5z M107.1,61.2
					l-0.8,0.4l-28,16.2c-2.1,1.1-4.7,1.1-6.8,0l-28-16.2l-0.7-0.5v-9.3l27.6,15.9c2.9,1.5,6.3,1.5,9.1,0l27.6-15.9V61.2z
					 M107.1,49.2L78.4,65.7c-2.1,1.1-4.7,1.1-6.8,0l-28-16.2l-0.7-0.4v-9.6L69.7,55c3.3,1.8,7.3,1.8,10.7,0l26.8-15.5V49.2
					L107.1,49.2z"/>
			</g>
		</g>
	</g>
</g>
</svg>
