<?xml version="1.0" encoding="utf-8"?>
<!-- Generator: Adobe Illustrator 21.0.0, SVG Export Plug-In . SVG Version: 6.00 Build 0)  -->
<svg version="1.1" id="Calque_1" xmlns="http://www.w3.org/2000/svg" xmlns:xlink="http://www.w3.org/1999/xlink" x="0px" y="0px"
	 viewBox="0 0 150 110" style="enable-background:new 0 0 150 110;" xml:space="preserve">
<g>
	<path d="M106.7,90.7H49.4c-12.3,0-22.9-8.8-25.2-20.8c-1.3-6.7,0.1-13.6,3.9-19.3c3.8-5.6,9.6-9.5,16.2-10.8
		c4.8-11.3,15.3-19.1,27.5-20.4c8.9-0.9,17.6,1.7,24.6,7.4c6.9,5.6,11.2,13.5,12.1,22.3c9,1.4,16.3,8.6,17.6,17.7
		c0.8,5.7-1.2,12.1-5.4,16.9C116.9,88.1,111.8,90.7,106.7,90.7z M75.3,24.3c-1,0-1.9,0-2.9,0.1c-10.5,1.1-19.5,7.8-23.5,17.5l-1,2.3
		l-2.5,0.5c-5.4,1-10.1,4.1-13.2,8.7c-3.1,4.6-4.2,10.1-3.2,15.5c1.9,9.7,10.4,16.7,20.3,16.8h57.3c3.6,0,7.3-1.9,10.2-5.2
		c3.3-3.8,4.8-8.6,4.2-12.9c-1-7-6.6-12.5-13.6-13.5l-3.6-0.5l-0.4-3.6c-0.8-7.6-4.4-14.4-10.3-19.2C88.1,26.5,81.8,24.3,75.3,24.3z
		"/>
</g>
</svg>
