<?xml version="1.0" encoding="utf-8"?>
<!-- Generator: Adobe Illustrator 21.0.0, SVG Export Plug-In . SVG Version: 6.00 Build 0)  -->
<svg version="1.1" id="Calque_1" xmlns="http://www.w3.org/2000/svg" xmlns:xlink="http://www.w3.org/1999/xlink" x="0px" y="0px"
	 viewBox="0 0 150 110" style="enable-background:new 0 0 150 110;" xml:space="preserve">
<g>
	<g>
		<polygon points="141.1,103 130.7,97 130.7,101.8 106.2,101.8 106.2,104.2 130.7,104.2 130.7,109 		"/>
		<path d="M121.6,58.8c0-25.7-20.9-46.6-46.6-46.6c-13.6,0-25.9,5.9-34.4,15.2c-2.5,2.9-6.1,4.7-10,5C26.7,32.8,23,31.5,20,29
			c-2.9-2.5-4.7-6.1-5-10s0.9-7.6,3.5-10.6C23.5,2.7,32,1.8,38,6.1l-3.8,2.5l10.6,5.5l-0.6-12l-4.1,2.6C33.1-1,22.7-0.1,16.7,6.9
			c-3,3.4-4.4,7.8-4.1,12.3c0.3,4.5,2.4,8.6,5.9,11.6c3.1,2.7,7,4.1,11,4.1c0.4,0,0.9,0,1.3,0c1.7-0.1,3.4-0.5,5-1.1
			c-4.6,7.2-7.4,15.8-7.4,25.1c0,7.4,1.8,14.7,5.1,21.2l-5.9,4.7l18.5,7.4l-2.9-19.7l-5.7,4.5c-2.7-5.6-4.1-11.8-4.1-18.1
			c0-22.9,18.6-41.6,41.6-41.6s41.6,18.6,41.6,41.6S97.9,100.4,75,100.4H8.9v5H75C100.7,105.4,121.6,84.5,121.6,58.8z"/>
	</g>
</g>
</svg>
