<svg id="Calque_1" data-name="Calque 1" xmlns="http://www.w3.org/2000/svg" viewBox="0 0 170 105"><defs><style>.cls-1{fill:none;}.cls-2{fill:#ec654a;}.cls-3,.cls-4,.cls-5{fill:#fff;}.cls-3,.cls-4{stroke:#454862;stroke-miterlimit:10;}.cls-3{stroke-width:2px;}</style></defs><title>asset1</title><rect class="cls-1" width="170" height="105"/><path class="cls-2" d="M106.25,38h0a30.78,30.78,0,0,0-21.1-9.6H83A30.78,30.78,0,0,0,61.95,38h0a30.3,30.3,0,0,0-.6,41h0l.1.1A29.87,29.87,0,0,0,83,89.2h2.1A30.35,30.35,0,0,0,106.75,79h0a30.41,30.41,0,0,0-.5-41Zm-23.4-7.7a41.88,41.88,0,0,0-10.7,13c-3-1-5.9-3-8.5-4.7C68.35,34.1,76,31.1,82.85,30.3Zm-19.6,9.2A46.76,46.76,0,0,0,72,44.3a36.82,36.82,0,0,0-3,13.8H55.65a28.47,28.47,0,0,1,7.6-18.6Zm-7.6,19.9h13.3a37.48,37.48,0,0,0,2.7,13.2,37.9,37.9,0,0,0-9,4.5A28.49,28.49,0,0,1,55.65,59.4ZM63.15,78a37.9,37.9,0,0,1,9-4.5c2.9,7,7,10,10.8,14.3C76.25,86.8,67.85,83.3,63.15,78Zm20.3,9.3a46.19,46.19,0,0,1-10.3-14.1,39.74,39.74,0,0,1,10.3-1.8Zm0-17.1a43.82,43.82,0,0,0-10.8,2,40.11,40.11,0,0,1-2.7-12.8h13.4Zm0-12.2H70a35.41,35.41,0,0,1,3-13.6A41.05,41.05,0,0,0,83.55,46Zm0-12.9a45.09,45.09,0,0,1-10.3-1.6,39.89,39.89,0,0,1,10.3-12.8ZM112.25,58H99.15A38,38,0,0,0,96,44.2a47.8,47.8,0,0,0,8.8-4.3A29.31,29.31,0,0,1,112.25,58ZM104,38.6a39.32,39.32,0,0,1-8.3,4.5c-4.2-7.6-7-9.6-10.8-12.9C91.75,31.2,99.45,33.9,104,38.6Zm-19.5-7.9a41,41,0,0,1,10.2,12.8,38.79,38.79,0,0,1-10.2,1.6Zm0,15.2a41,41,0,0,0,10.4-1.6,37.35,37.35,0,0,1,3,13.6H84.55Zm0,13.5h13.3a40.11,40.11,0,0,1-2.7,12.8,42.26,42.26,0,0,0-10.6-2Zm0,27.9V71.4A41.37,41.37,0,0,1,95,73.3c-1.4,5.2-6.2,10-10.5,14Zm.5.5c3.7-4,8.1-6.7,11.2-14.4a39.16,39.16,0,0,1,8.5,4.7c-4.6,4.9-13.2,8.8-19.7,9.7ZM105.35,77a48.67,48.67,0,0,0-8.8-4.5,39.73,39.73,0,0,0,2.6-13.2h13.1a29.33,29.33,0,0,1-6.9,17.7Z"/><path class="cls-3" d="M106.45,52.6s-15.6-20.4,0-21.7C106.45,30.9,122.55,31.3,106.45,52.6Z"/><circle class="cls-4" cx="106.35" cy="37.9" r="2.9"/><path class="cls-2" d="M84.85,74.4l-3.8.5a15,15,0,0,1-3,0h-.1a25.15,25.15,0,0,0-22.7,7.8L49,89.4a2.84,2.84,0,0,0,0,4l11,10.9.1.1a3.08,3.08,0,0,0,1.9.6,3,3,0,0,0,2-.8l5.1-4.7a2.73,2.73,0,0,1,1.2-.6l21.6-2a15.81,15.81,0,0,0,9.4-3.1L120,78.7a4.5,4.5,0,0,0,.7-6.4l-.3-.3h0a4.57,4.57,0,0,0-5.9-.5l-13.3,9.2a4.64,4.64,0,0,0,.5-3.8,4.52,4.52,0,0,0-1.4-2.4,5.71,5.71,0,0,0-2.1-1.3"/><path class="cls-5" d="M118,76.2l-17.7,14.6-.7.6a12.75,12.75,0,0,1-7.8,2.5L70.15,96a4.94,4.94,0,0,0-3,1.4l-5,4.7L51.35,91.5l6.1-6.7a22.18,22.18,0,0,1,19.9-7,17.85,17.85,0,0,0,4,.1l14.8-2h.2a2,2,0,0,1,1.9.6,2.07,2.07,0,0,1,.6,1,2.15,2.15,0,0,1-1.4,2.6L81,84h-.1a2.53,2.53,0,0,0-1.6,3v.1a2.5,2.5,0,0,0,2.6,1.7l12.6.1,21.7-15.1a1.53,1.53,0,0,1,2,.2,1.57,1.57,0,0,1,0,2.2Z"/><polygon class="cls-5" points="98.35 83.4 94.35 86.2 86.85 86.2 98.35 83.4"/></svg>