<?xml version="1.0" encoding="utf-8"?>
<!-- Generator: Adobe Illustrator 21.1.0, SVG Export Plug-In . SVG Version: 6.00 Build 0)  -->
<svg version="1.1" id="Calque_1" xmlns="http://www.w3.org/2000/svg" xmlns:xlink="http://www.w3.org/1999/xlink" x="0px" y="0px"
	 viewBox="0 0 80 80" style="enable-background:new 0 0 80 80;" xml:space="preserve">
<style type="text/css">
	.st0{fill:#B3B3B3;}
</style>
<g>
	<path class="st0" d="M30.4,79.1c0.4,0.6,1.1,0.9,1.8,0.9h35.3c1,0,1.9-0.6,2.2-1.5c0-0.1,0.6-1.7,0.8-2.3c0.6-1.8,1.2-3.8,1.8-5.9
		c1-3.5,1.7-7,2.2-10.2c0.9-6.4,0.6-11.6-1.4-15.3c-2.3-4.3-6.9-7.2-13.1-9.2c-3-1-6.1-1.7-9.3-2.1c-1.1-0.2-2-0.3-2-0.3V8.2
		C48.7,3.7,45,0,40.5,0h-1.2c-4.5,0-8.2,3.7-8.2,8.2l0,41L24.6,44c-5.2-4.1-12.3-2.9-15.8,2.7l-0.9,1.4c-0.5,0.8-0.5,1.9,0.2,2.7
		L30.4,79.1z M12.8,49.2c2-3.2,5.9-3.9,8.9-1.5L32,56c1.5,1.2,3.8,0.1,3.8-1.8V8.2c0-2,1.6-3.5,3.5-3.5h1.2c1.9,0,3.5,1.6,3.5,3.5
		v27.1c0,1.2,1,2.3,2.2,2.3c0.2,0,0.5,0,1,0.1c0.8,0.1,1.8,0.2,2.8,0.3c2.9,0.4,5.8,1.1,8.5,1.9c5.2,1.7,8.9,4,10.4,7
		c1.4,2.6,1.6,6.9,0.9,12.4c-0.4,3-1.1,6.3-2,9.6c-0.5,2-1.1,3.9-1.7,5.6c-0.2,0.6-0.3,0.7-0.3,0.7H33.4L12.8,49.2z"/>
	<path class="st0" d="M10.7,18c0,0.9-0.6,1.2-1.3,0.7l-8.8-6.3c-0.8-0.5-0.7-1.4,0-1.9l8.8-6.3c0.8-0.5,1.3-0.2,1.3,0.7v3.3h13.1
		c0.9,0,1.6,0.7,1.6,1.7v3.2c0,0.9-0.7,1.7-1.6,1.7H10.7V18z"/>
	<path class="st0" d="M69.3,18c0,0.9,0.6,1.2,1.3,0.7l8.8-6.3c0.8-0.5,0.7-1.4,0-1.9l-8.8-6.3c-0.8-0.5-1.3-0.2-1.3,0.7v3.3H56.3
		c-0.9,0-1.6,0.7-1.6,1.7v3.2c0,0.9,0.7,1.7,1.6,1.7h13.1V18z"/>
</g>
</svg>
