<svg id="Calque_1" data-name="Calque 1" xmlns="http://www.w3.org/2000/svg" viewBox="0 0 170 105"><defs><style>.cls-1{fill:none;}.cls-2{fill:#ec664e;}.cls-3{fill:#ec654a;}.cls-4{fill:#fff;}</style></defs><title>asset7</title><rect class="cls-1" width="170" height="105"/><path class="cls-2" d="M84,22.1A10.93,10.93,0,0,0,73.09,33V48.64a10.93,10.93,0,0,0,21.86,0V33A10.93,10.93,0,0,0,84,22.1Zm9.57,27.36c0,4.77-4.3,8.63-9.6,8.63s-9.6-3.86-9.6-8.63V32.21c0-4.77,4.3-8.63,9.6-8.63s9.6,3.86,9.6,8.63Z"/><path class="cls-2" d="M102.76,81.61h-1.56V80.05a4.68,4.68,0,0,0-4.68-4.68H85.58V66a15.61,15.61,0,0,0,15.61-15.61V45.7a1.56,1.56,0,1,0-3.12,0v3.12a14.05,14.05,0,1,1-28.1,0V45.7a1.56,1.56,0,1,0-3.12,0v4.68A15.61,15.61,0,0,0,82.46,66v9.37H71.53a4.68,4.68,0,0,0-4.68,4.68v1.56H65.29a1.56,1.56,0,0,0-1.56,1.56v6.25A1.56,1.56,0,0,0,65.29,91h37.47a1.56,1.56,0,0,0,1.56-1.56V83.17A1.56,1.56,0,0,0,102.76,81.61ZM70,80.05a1.56,1.56,0,0,1,1.56-1.56h25a1.56,1.56,0,0,1,1.56,1.56v1.56H70Zm31.23,7.81H66.85V84.73h34.35Z"/><path class="cls-3" d="M84.83,74.39,81,74.88a10.18,10.18,0,0,1-3,0l-.1,0a25.24,25.24,0,0,0-22.66,7.86L49.1,89.39a2.86,2.86,0,0,0,0,4l11,10.86.15.13a3.11,3.11,0,0,0,1.87.62,2.8,2.8,0,0,0,2-.8l5.06-4.7A2.13,2.13,0,0,1,70.43,99l21.64-2a15.85,15.85,0,0,0,9.42-3.13L120,78.76a4.57,4.57,0,0,0,.35-6.77h0a4.55,4.55,0,0,0-5.87-.5l-13.25,9.2a5.11,5.11,0,0,0,.54-3.85,5.31,5.31,0,0,0-1.38-2.42,5.22,5.22,0,0,0-2.14-1.3"/><path class="cls-4" d="M118.07,76.26,100.35,90.85l-.7.56A13.09,13.09,0,0,1,91.9,94L70.2,96a5.15,5.15,0,0,0-3,1.36l-5,4.69L51.36,91.56l6.1-6.71a22.25,22.25,0,0,1,19.89-7,13.13,13.13,0,0,0,4,.06l14.8-1.95.15,0a2.07,2.07,0,0,1,1.93.59,2.3,2.3,0,0,1,.61,1,2.14,2.14,0,0,1-1.4,2.56l-16.37,4-.13,0a2.53,2.53,0,0,0-1.61,3l0,.11a2.47,2.47,0,0,0,2.59,1.66l12.6.09,21.62-15.19a1.57,1.57,0,0,1,2,.15,1.57,1.57,0,0,1-.11,2.32Z"/><polygon class="cls-4" points="98.35 83.39 94.3 86.23 86.84 86.18 98.35 83.39"/></svg>