<svg id="Calque_1" data-name="Calque 1" xmlns="http://www.w3.org/2000/svg" viewBox="0 0 170 105"><defs><style>.cls-1{fill:none;}.cls-2{fill:#ec654a;}.cls-3{fill:#fff;}</style></defs><title>asset8</title><rect class="cls-1" width="170" height="105"/><path class="cls-2" d="M87.94,53.13V42L65.12,53.13V26.84H52.8V85.68h58V42ZM62.78,29.35V57.78L85.6,46.33V57.78l22.81-11.45V60.87H55.27V29.35ZM55.27,61.84H81.1V83.17H55.27Zm27,21.33V61.84h26.18V83.17Z"/><path class="cls-2" d="M84.83,74.39,81,74.88a10.18,10.18,0,0,1-3,0l-.1,0a25.24,25.24,0,0,0-22.66,7.86L49.1,89.39a2.86,2.86,0,0,0,0,4l11,10.86.15.13a3.11,3.11,0,0,0,1.87.62,2.8,2.8,0,0,0,2-.8l5.06-4.7A2.13,2.13,0,0,1,70.43,99l21.64-2a15.85,15.85,0,0,0,9.42-3.13L120,78.76a4.57,4.57,0,0,0,.35-6.77h0a4.55,4.55,0,0,0-5.87-.5l-13.25,9.2a5.11,5.11,0,0,0,.54-3.85,5.31,5.31,0,0,0-1.38-2.42,5.22,5.22,0,0,0-2.14-1.3"/><path class="cls-3" d="M118.07,76.26,100.35,90.85l-.7.56A13.09,13.09,0,0,1,91.9,94L70.2,96a5.15,5.15,0,0,0-3,1.36l-5,4.69L51.36,91.56l6.1-6.71a22.25,22.25,0,0,1,19.89-7,13.13,13.13,0,0,0,4,.06l14.8-1.95.15,0a2.07,2.07,0,0,1,1.93.59,2.3,2.3,0,0,1,.61,1,2.14,2.14,0,0,1-1.4,2.56l-16.37,4-.13,0a2.53,2.53,0,0,0-1.61,3l0,.11a2.47,2.47,0,0,0,2.59,1.66l12.6.09,21.62-15.19a1.57,1.57,0,0,1,2,.15,1.57,1.57,0,0,1-.11,2.32Z"/><polygon class="cls-3" points="98.35 83.39 94.3 86.23 86.84 86.18 98.35 83.39"/></svg>