<svg id="Calque_1" data-name="Calque 1" xmlns="http://www.w3.org/2000/svg" viewBox="0 0 170 105"><defs><style>.cls-1{fill:none;}.cls-2{fill:#ec654a;}</style></defs><title>asset2</title><rect class="cls-1" width="170" height="105"/><path class="cls-2" d="M121.5,73.87A4.57,4.57,0,0,0,120.38,72h0a4.56,4.56,0,0,0-4.35-1.2V60.66a5.49,5.49,0,0,0-2-4.27h0a55,55,0,0,0-8.78-5.78V49.2a9.53,9.53,0,0,0,.67-1.67,7,7,0,0,0,1.51-3.08c.36-1.25.71-3-.27-4.41.44-3.07,0-5.41-1.19-7a4.61,4.61,0,0,0-1.78-1.4,6.91,6.91,0,0,0-2.21-1.76,8.52,8.52,0,0,0-4.23-1.14,8.13,8.13,0,0,0-.84,0,7.88,7.88,0,0,0-2.11.41,8.93,8.93,0,0,0-2.18,1.11,11,11,0,0,0-2.1,1.74A9.16,9.16,0,0,0,88,36.39a9.46,9.46,0,0,0-.11,3.69c-1,1.34-.61,3.13-.26,4.36a7,7,0,0,0,1.5,3.05,9.67,9.67,0,0,0,.66,1.68v1.36q-2.29,1.21-4.46,2.63l.71-1.64-.17-1.49-.27-.36c-.14-.19-.33-.41-.54-.66A3.1,3.1,0,0,1,84,46.6c.45-4.56-.34-8-2.27-9.94A5.77,5.77,0,0,0,77.82,35a6.55,6.55,0,0,0-3.88-1.21h0a8.62,8.62,0,0,0-3,.58l-.21.07c-1.69.52-5.21,1.6-6.48,9.27a65.31,65.31,0,0,0-.83,8.23l.08.59a5.25,5.25,0,0,0,3.34,3.22l-.93.28-.46.12a17.54,17.54,0,0,0-3.15,1.19,5.62,5.62,0,0,0-3.17,4.59V79.27a25.42,25.42,0,0,0-3.84,3.4L49.1,89.39a2.86,2.86,0,0,0,0,4l11,10.86.15.13a3.11,3.11,0,0,0,1.87.62,2.8,2.8,0,0,0,2-.8l5.06-4.7A2.13,2.13,0,0,1,70.43,99l21.64-2a15.85,15.85,0,0,0,9.42-3.13L120,78.76A4.54,4.54,0,0,0,121.5,73.87ZM91,53.17l2.07,6.56,4.29-2.32L92.7,51.58V48.44l-.08-.14A6.78,6.78,0,0,1,91.77,46l0-.45-.47,0s-.37-.21-.84-1.87c-.43-1.5-.2-1.86-.17-1.9s.12-.06.25-.06h.84l-.28-.8a5.91,5.91,0,0,1-.24-.93,6.48,6.48,0,0,1,0-2.91,6.37,6.37,0,0,1,1.72-3,8.47,8.47,0,0,1,1.63-1.34,6.14,6.14,0,0,1,1.52-.78,5.05,5.05,0,0,1,1.39-.26,5.68,5.68,0,0,1,3.49.75,4.17,4.17,0,0,1,1.68,1.5l.17.24.28,0a1.59,1.59,0,0,1,1,.67c.51.67,1,2.11.51,5.12a5.75,5.75,0,0,1-.24.9l-.31.88.93-.08s.16,0,.2,0,.28.36-.17,1.93a5.79,5.79,0,0,1-.75,1.86h-.5l-.09.49a6.62,6.62,0,0,1-.86,2.29l-.09.14v3.14l-4.69,5.83,4.31,2.33,1.93-6.57a52,52,0,0,1,8.3,5.46,2.61,2.61,0,0,1,1,2V72.44L101.25,80.7a5.11,5.11,0,0,0,.54-3.85,5.31,5.31,0,0,0-1.38-2.42A5.05,5.05,0,0,0,95.77,73l-7.58,1v-12A3.92,3.92,0,0,0,86,58.82a15.76,15.76,0,0,0-2.3-.91A52.23,52.23,0,0,1,91,53.17Zm1.13-.37L95.56,57,93.8,58Zm10.5.26L101.22,58,99.46,57ZM66.29,51.77a63.31,63.31,0,0,1,.78-7.63c1-5.91,3.15-6.58,4.44-7l.41-.13c3-1.14,4.55.54,4.61.61l.51.21a3,3,0,0,1,2.59.84c1.27,1.28,1.8,4.06,1.44,7.63a5.86,5.86,0,0,0,1.82,4.61l.18.21-.6,1.4a11.08,11.08,0,0,1-4.45.91l-.61.6v1.67l-2.86,9-3-9h0v-1.6l-.6-.6h-.15C67.31,53.48,66.44,52.08,66.29,51.77Zm14,8.25-1.36-.15a.55.55,0,0,0-.55.25l-2,2.85L78.3,56.9l.47.42.65.59ZM72.79,63.1l-2.13-2.94a.5.5,0,0,0-.54-.24l-1.36.15.84-2.12.6-.58.52-.5ZM62,62.06a2.73,2.73,0,0,1,1.54-2.17,14.71,14.71,0,0,1,2.65-1h0c.37-.08,1.23-.34,2-.58l-.78,2a.76.76,0,0,0,.42,1l.37.05,1.72-.18,4.7,6.53,4.53-6.56,1.71.18a.76.76,0,0,0,.85-.66l0-.38-.77-1.94c.78.25,1.6.49,1.95.57h0a14.83,14.83,0,0,1,2.66,1A2.73,2.73,0,0,1,87,62V74.12l-6,.76a10.18,10.18,0,0,1-3,0l-.1,0A25.24,25.24,0,0,0,62,77.47Zm56.14,14.38-17.79,14.5-.7.56A13.09,13.09,0,0,1,91.86,94L70.16,96a5.15,5.15,0,0,0-3,1.34L62.07,102,51.34,91.38l6.14-6.68a22.25,22.25,0,0,1,19.93-6.94,13.14,13.14,0,0,0,4,.09L96.21,76l.15,0a2.07,2.07,0,0,1,1.92.6,2.3,2.3,0,0,1,.6,1,2.14,2.14,0,0,1-1.41,2.55L81.09,84l-.13,0a2.53,2.53,0,0,0-1.63,3l0,.11a2.47,2.47,0,0,0,2.58,1.68l12.6.16,21.7-15.07a1.57,1.57,0,0,1,2,.17,1.57,1.57,0,0,1-.12,2.32ZM97.67,83.18,93.61,86l-7.46-.09Z"/></svg>