<svg id="Calque_1" data-name="Calque 1" xmlns="http://www.w3.org/2000/svg" viewBox="0 0 170 105"><defs><style>.cls-1{fill:none;}.cls-2{fill:#ec654a;}.cls-3{fill:#eb6648;}.cls-4{fill:#fff;}</style></defs><title>asset3</title><rect class="cls-1" width="170" height="105"/><path class="cls-2" d="M123.55,39.62a3.84,3.84,0,0,0-1.12-2.72l-1.5-1.51a3.8,3.8,0,0,0-5.41,0l-7.07,7.13v-7.6a1.35,1.35,0,0,0-1.34-1.36H57.38A1.35,1.35,0,0,0,56,34.91V85a1.35,1.35,0,0,0,1.34,1.36l43-2.23c.74,0,9.12-8.91,7.68-7.73l.36-20,14-14.09A3.84,3.84,0,0,0,123.55,39.62ZM105.42,79.49l-10.88,5-35.82-.79V36.27h47v9L81.14,70a1.36,1.36,0,0,0-.32.53l-2.5,7.57a1.36,1.36,0,0,0,.32,1.39,1.34,1.34,0,0,0,1.38.33l7.51-2.52A1.34,1.34,0,0,0,88,77l17.72-17.85ZM86.37,74.86l-4.66,1.56,1.55-4.69L111.82,43l3.1,3.13Zm34.16-34.43-3.7,3.73-1.55-1.56L113.72,41l3.7-3.73a1.13,1.13,0,0,1,1.6,0l1.5,1.51h0a1.15,1.15,0,0,1,0,1.61Z"/><path class="cls-3" d="M97,41.26H95.82c-.7,0-1.28.27-1.28.61s.57.61,1.28.61H97c.7,0,1.28-.27,1.28-.61S97.74,41.26,97,41.26Z"/><path class="cls-3" d="M90.28,41.26H67c-.71,0-1.28.27-1.28.61s.57.61,1.28.61H90.28c.7,0,1.28-.27,1.28-.61S91,41.26,90.28,41.26Z"/><path class="cls-3" d="M89.06,49H67c-.71,0-1.28.3-1.28.67s.57.67,1.28.67h22c.7,0,1.28-.3,1.28-.67S89.77,49,89.06,49Z"/><path class="cls-3" d="M81.08,56.83H67c-.71,0-1.28.3-1.28.67s.57.67,1.28.67H81.08c.71,0,1.28-.3,1.28-.67S81.79,56.83,81.08,56.83Z"/><path class="cls-3" d="M75,64.45H67c-.71,0-1.28.3-1.28.67s.57.67,1.28.67h8c.71,0,1.28-.3,1.28-.67S75.7,64.45,75,64.45Z"/><path class="cls-2" d="M83,74.39l-3.83.48a10.18,10.18,0,0,1-3,0l-.1,0a25.24,25.24,0,0,0-22.66,7.86l-6.18,6.72a2.86,2.86,0,0,0,0,4l11,10.86.15.13a3.11,3.11,0,0,0,1.87.62,2.8,2.8,0,0,0,2-.8l5.06-4.7A2.13,2.13,0,0,1,68.59,99l21.64-2a15.85,15.85,0,0,0,9.42-3.13l18.54-15.09a4.57,4.57,0,0,0,.35-6.77h0a4.55,4.55,0,0,0-5.87-.5L99.41,80.7a5.11,5.11,0,0,0,.54-3.85,5.31,5.31,0,0,0-1.38-2.42,5.22,5.22,0,0,0-2.14-1.3"/><path class="cls-4" d="M116.23,76.26,98.52,90.85l-.7.56A13.09,13.09,0,0,1,90.06,94L68.36,96a5.15,5.15,0,0,0-3,1.36l-5,4.69L49.52,91.56l6.1-6.71a22.25,22.25,0,0,1,19.89-7,13.13,13.13,0,0,0,4,.06l14.8-1.95.15,0a2.07,2.07,0,0,1,1.93.59,2.3,2.3,0,0,1,.61,1,2.14,2.14,0,0,1-1.4,2.56l-16.37,4-.13,0a2.53,2.53,0,0,0-1.61,3l0,.11a2.47,2.47,0,0,0,2.59,1.66L92.7,89l21.62-15.19a1.57,1.57,0,0,1,2,.15,1.57,1.57,0,0,1-.11,2.32Z"/><polygon class="cls-4" points="96.51 83.39 92.46 86.23 85.01 86.18 96.51 83.39"/></svg>