<svg id="Calque_1" data-name="Calque 1" xmlns="http://www.w3.org/2000/svg" viewBox="0 0 80 80"><defs><style>.cls-1{fill:#ec654a;}.cls-2,.cls-3,.cls-4{fill:#fff;}.cls-2,.cls-3{stroke:#444762;stroke-miterlimit:10;}.cls-2{stroke-width:2px;}</style></defs><title>asset1</title><path class="cls-1" d="M61.2,11.32v0A30.36,30.36,0,0,0,40.1,1.74l-.59,0h-.92l-.59,0A30.35,30.35,0,0,0,16.9,11.31v0h0a30.34,30.34,0,0,0-.59,41v0l.07.06A30.34,30.34,0,0,0,38,62.51l.59,0h.92l.59,0h0A30.34,30.34,0,0,0,61.73,52.35s0,0,0,0,0,0,0,0a30.34,30.34,0,0,0-.59-41ZM37.85,3.56a42,42,0,0,0-10.73,13c-3-1-5.86-3-8.55-4.68C23.32,7.44,31,4.43,37.85,3.56Zm-19.68,9.2a43.49,43.49,0,0,0,8.75,4.76,37.29,37.29,0,0,0-3,13.81H10.58A29.19,29.19,0,0,1,18.17,12.75ZM10.58,32.68h13.3a38.88,38.88,0,0,0,2.68,13.18,41.31,41.31,0,0,0-9,4.46A28.54,28.54,0,0,1,10.58,32.68Zm7.55,18.64a41,41,0,0,1,9-4.49c2.93,7,7,10,10.81,14.28C31.18,60.08,22.81,56.6,18.13,51.32Zm20.3,9.28A44.13,44.13,0,0,1,28.12,46.49a40.46,40.46,0,0,1,10.32-1.81Zm0-17.09a42.69,42.69,0,0,0-10.76,2A37.63,37.63,0,0,1,25,32.68H38.44Zm0-12.19H25a37.23,37.23,0,0,1,3-13.64,42.67,42.67,0,0,0,10.48,1.57Zm0-12.9a44,44,0,0,1-10.29-1.59A40.71,40.71,0,0,1,38.44,4ZM67.16,31.32H54.07a38,38,0,0,0-3.14-13.82,42.44,42.44,0,0,0,8.75-4.34A28.46,28.46,0,0,1,67.16,31.32ZM59,11.93a39.71,39.71,0,0,1-8.3,4.53c-4.23-7.58-7-9.56-10.81-12.9C46.68,4.49,54.37,7.16,59,11.93ZM39.54,4A40.26,40.26,0,0,1,49.71,16.77a43.13,43.13,0,0,1-10.17,1.64Zm0,15.23a42,42,0,0,0,10.38-1.57,37.54,37.54,0,0,1,3,13.64H39.54Zm0,13.43H52.89a38.5,38.5,0,0,1-2.7,12.82,41.6,41.6,0,0,0-10.65-2Zm0,27.92V44.65A41.36,41.36,0,0,1,50,46.58C48.62,51.8,43.84,56.56,39.54,60.6Zm.43.51c3.69-4,8.12-6.65,11.18-14.4a40.74,40.74,0,0,1,8.53,4.65C55.13,56.28,46.51,60.15,40,61.11Zm20.31-10.8a40.44,40.44,0,0,0-8.84-4.46,39.43,39.43,0,0,0,2.63-13.18H67.16A28.79,28.79,0,0,1,60.28,50.31Z"/><path class="cls-2" d="M61.4,25.87S45.77,5.44,61.4,4.2C61.4,4.2,77.48,4.64,61.4,25.87Z"/><circle class="cls-3" cx="61.35" cy="11.21" r="2.87"/><path class="cls-1" d="M39.8,47.68,36,48.16a10.18,10.18,0,0,1-3,0l-.1,0A25.24,25.24,0,0,0,10.24,56L4.06,62.68a2.86,2.86,0,0,0,0,4l11,10.86.15.13a3.11,3.11,0,0,0,1.87.62,2.8,2.8,0,0,0,2-.8l5.06-4.7a2.13,2.13,0,0,1,1.25-.56l21.64-2a15.85,15.85,0,0,0,9.42-3.13L75,52a4.57,4.57,0,0,0,.35-6.77h0a4.55,4.55,0,0,0-5.87-.5L56.22,54a5.11,5.11,0,0,0,.54-3.85,5.31,5.31,0,0,0-1.38-2.42,5.22,5.22,0,0,0-2.14-1.3"/><path class="cls-4" d="M73,49.54,55.32,64.14l-.7.56a13.09,13.09,0,0,1-7.76,2.54L25.17,69.33a5.15,5.15,0,0,0-3,1.36l-5,4.69L6.33,64.85l6.1-6.71a22.25,22.25,0,0,1,19.89-7,13.13,13.13,0,0,0,4,.06l14.8-1.95.15,0a2.07,2.07,0,0,1,1.93.59,2.3,2.3,0,0,1,.61,1,2.14,2.14,0,0,1-1.4,2.56L36,57.34l-.13,0a2.53,2.53,0,0,0-1.61,3l0,.11a2.47,2.47,0,0,0,2.59,1.66l12.6.09L71.12,47.07a1.57,1.57,0,0,1,2,.15A1.57,1.57,0,0,1,73,49.54Z"/><polygon class="cls-4" points="53.31 56.67 49.27 59.52 41.81 59.47 53.31 56.67"/></svg>