<?xml version="1.0" encoding="utf-8"?>
<!-- Generator: Adobe Illustrator 21.1.0, SVG Export Plug-In . SVG Version: 6.00 Build 0)  -->
<svg version="1.1" id="Calque_1" xmlns="http://www.w3.org/2000/svg" xmlns:xlink="http://www.w3.org/1999/xlink" x="0px" y="0px"
	 viewBox="0 0 650 450" style="enable-background:new 0 0 650 450;" xml:space="preserve">
<style type="text/css">
	.st0{fill:#FF6444;stroke:#CCCCCC;stroke-width:1.88;stroke-miterlimit:10;}
	.st1{fill:none;stroke:#C6C6C5;stroke-width:1.314;stroke-linejoin:round;}
	.st2{fill:none;stroke:#C6C6C5;stroke-width:1.314;stroke-linejoin:round;stroke-dasharray:2.6472,2.6472;}
	.st3{fill:#FFFFFF;}
	.st4{fill:#FFFFFF;stroke:#CCCCCC;stroke-width:1.6249;stroke-miterlimit:10;}
	.st5{fill:#FFFFFF;stroke:#CCCCCC;stroke-width:1.585;stroke-miterlimit:10;}
	.st6{fill:#FFFFFF;stroke:#CCCCCC;stroke-width:1.2821;stroke-miterlimit:10;}
	.st7{fill:#FFFFFF;stroke:#CCCCCC;stroke-width:1.6431;stroke-miterlimit:10;}
	.st8{fill:#FFFFFF;stroke:#CCCCCC;stroke-width:1.8949;stroke-miterlimit:10;}
	.st9{fill:#EB6449;}
	.st10{fill:none;stroke:#C6C6C5;stroke-width:1.314;stroke-linejoin:round;stroke-dasharray:2.6924,2.6924;}
	.st11{fill:none;stroke:#C6C6C5;stroke-width:1.314;stroke-linejoin:round;stroke-dasharray:2.6524,2.6524;}
	.st12{fill:none;stroke:#C6C6C5;stroke-width:1.314;stroke-linejoin:round;stroke-dasharray:2.6476,2.6476;}
	.st13{fill:#FFFFFF;stroke:#CCCCCC;stroke-width:1.314;stroke-miterlimit:10;}
	.st14{fill:#FF6444;}
	.st15{fill:#424661;}
	.st16{fill:none;stroke:#C6C6C5;stroke-width:1.314;stroke-linejoin:round;stroke-dasharray:2.5669,2.5669;}
	.st17{fill:none;stroke:#C6C6C5;stroke-width:1.314;stroke-linejoin:round;stroke-dasharray:2.6515,2.6515;}
</style>
<g>
	
		<ellipse transform="matrix(2.690372e-02 -0.9996 0.9996 2.690372e-02 4.967718e-02 778.9546)" class="st0" cx="400.1" cy="389.5" rx="59" ry="59"/>
	<g>
		<g>
			<line class="st1" x1="439.9" y1="60.5" x2="441.2" y2="60.5"/>
			<path class="st2" d="M443.9,60.5h139c0,0,17-2.2,17,11.7v143"/>
			<line class="st1" x1="599.8" y1="216.5" x2="599.8" y2="217.8"/>
		</g>
	</g>
	<g>
		<polygon class="st3" points="439.2,414.3 433.3,410.7 433.2,413.4 419.2,413.1 419.1,414.4 433.2,414.8 433.1,417.6 		"/>
		<path class="st3" d="M428.6,388.6c0.4-14.8-11.3-27.1-26-27.5c-7.8-0.2-15,3-20,8.2c-1.5,1.7-3.6,2.6-5.8,2.7
			c-2.2,0.1-4.4-0.7-6-2.2c-1.7-1.5-2.6-3.6-2.7-5.8c-0.1-2.2,0.7-4.4,2.2-6c2.9-3.2,7.8-3.6,11.3-1l-2.2,1.4l6,3.3l-0.1-6.9
			l-2.4,1.4c-4-3.4-10-3-13.5,0.9c-1.8,1.9-2.7,4.4-2.5,7c0.1,2.6,1.3,5,3.2,6.8c1.7,1.6,4,2.5,6.3,2.5c0.2,0,0.5,0,0.7,0
			c1,0,2-0.2,2.9-0.6c-2.8,4.1-4.5,9-4.6,14.3c-0.1,4.3,0.8,8.5,2.6,12.3l-3.5,2.6l10.5,4.5l-1.3-11.4l-3.4,2.5
			c-1.5-3.3-2.2-6.8-2.1-10.4c0.4-13.2,11.4-23.6,24.5-23.2c13.2,0.4,23.6,11.4,23.2,24.5c-0.4,13.2-11.4,23.6-24.5,23.2l-38-1
			l-0.1,2.9l38,1C415.9,415,428.2,403.3,428.6,388.6z"/>
	</g>
	
		<ellipse transform="matrix(2.690372e-02 -0.9996 0.9996 2.690372e-02 399.0395 779.3632)" class="st4" cx="599.8" cy="184.7" rx="48.7" ry="48.7"/>
	
		<ellipse transform="matrix(2.690372e-02 -0.9996 0.9996 2.690372e-02 390.034 522.345)" class="st5" cx="463.3" cy="60.8" rx="49.8" ry="49.8"/>
	
		<ellipse transform="matrix(2.690372e-02 -0.9996 0.9996 2.690372e-02 -101.5376 191.1782)" class="st6" cx="47.4" cy="147.7" rx="45.9" ry="45.9"/>
	
		<ellipse transform="matrix(2.690372e-02 -0.9996 0.9996 2.690372e-02 123.5117 248.3431)" class="st7" cx="189.3" cy="60.7" rx="59.2" ry="59.2"/>
	
		<ellipse transform="matrix(6.994416e-02 -0.9976 0.9976 6.994416e-02 -165.0755 382.8893)" class="st8" cx="122.8" cy="280" rx="50.6" ry="50.6"/>
	<g>
		<polygon class="st9" points="69.7,137.2 68.2,138.8 77.1,147.7 68.2,156.7 69.7,158.2 80.2,147.7 		"/>
		<polygon class="st9" points="25.1,137.2 14.6,147.7 25.1,158.2 26.7,156.7 17.8,147.7 26.7,138.8 		"/>
		<path class="st9" d="M55.1,139c-0.5,0-0.9,0-1.4,0.1l-1.1-1.9l-3.4,5.6l6.6,0.1l-0.9-1.7c0.1,0,0.1,0,0.2,0c3.6,0,6.6,3,6.6,6.6
			c0,3.6-3,6.6-6.6,6.6c-3.6,0-6.6-3-6.6-6.6c0-4.8-3.9-8.8-8.8-8.8s-8.8,3.9-8.8,8.8c0,4.8,3.9,8.8,8.8,8.8c0.5,0,0.9,0,1.4-0.1
			l1.1,1.9l3.4-5.6l-6.6-0.1l0.9,1.7c-0.1,0-0.1,0-0.2,0c-3.6,0-6.6-3-6.6-6.6c0-3.6,3-6.6,6.6-6.6c3.6,0,6.6,3,6.6,6.6
			c0,4.8,3.9,8.8,8.8,8.8c4.8,0,8.8-3.9,8.8-8.8C63.9,142.9,60,139,55.1,139z"/>
	</g>
	<g>
		<g>
			<line class="st1" x1="165.5" y1="387.7" x2="164.2" y2="387.7"/>
			<path class="st10" d="M161.5,387.7H131c0,0-8.2,1.6-8.2-8.5v-45.9"/>
			<line class="st1" x1="122.8" y1="331.9" x2="122.8" y2="330.6"/>
		</g>
	</g>
	<g>
		<g>
			<line class="st1" x1="174" y1="282.6" x2="175.3" y2="282.6"/>
			<path class="st11" d="M178,282.6h3.2c0,0,8.2,1.6,8.2-8.5V122.5"/>
			<line class="st1" x1="189.3" y1="121.2" x2="189.3" y2="119.9"/>
		</g>
	</g>
	<g>
		<g>
			<line class="st1" x1="513.5" y1="317.5" x2="512.2" y2="317.5"/>
			<path class="st12" d="M509.6,317.5h-36.8c0,0-9.6,1.5-9.6-8.2v-196"/>
			<line class="st1" x1="463.1" y1="111.9" x2="463.1" y2="110.6"/>
		</g>
	</g>
	<path class="st9" d="M216,77.5c-1.7,0-3.3,0.7-4.4,1.7l-11.8-10c1.1-1.5,1.7-3.4,1.7-5.3c0-1.7-0.4-3.3-1.2-4.6l10.1-7.1
		c1.4,1.6,3.5,2.6,5.8,2.6c4.3,0,7.7-3.5,7.7-7.7s-3.5-7.7-7.7-7.7s-7.7,3.5-7.7,7.7c0,1.3,0.3,2.6,0.9,3.7l-10.1,7
		c-1.2-1.4-2.8-2.4-4.6-3l1.5-8.5c2.6,0,4.7-2.1,4.7-4.7c0-2.6-2.1-4.7-4.7-4.7c-2.6,0-4.7,2.1-4.7,4.7c0,2,1.3,3.7,3.1,4.4
		l-1.5,8.5c-0.3,0-0.5,0-0.8,0c-2.1,0-4.1,0.7-5.6,1.9l-14.2-15.6c0.8-1,1.3-2.3,1.3-3.7c0-3.2-2.6-5.9-5.9-5.9
		c-3.2,0-5.9,2.6-5.9,5.9c0,3.2,2.6,5.9,5.9,5.9c1.2,0,2.3-0.4,3.2-1L185,57.6c-1.5,1.6-2.4,3.7-2.4,6L162.8,65
		c-0.6-2.6-2.9-4.5-5.7-4.5c-3.2,0-5.8,2.6-5.8,5.8c0,3.2,2.6,5.8,5.8,5.8c3,0,5.5-2.3,5.8-5.3l19.8-1.4c0.5,2.8,2.2,5.2,4.5,6.6
		l-4.9,10.5c-0.6-0.2-1.3-0.3-2-0.3c-3.7,0-6.8,3-6.8,6.8c0,3.7,3,6.8,6.8,6.8c3.7,0,6.8-3,6.8-6.8c0-2.4-1.3-4.5-3.1-5.7l4.9-10.5
		c1,0.3,2,0.5,3.1,0.5c2.6,0,4.9-1,6.6-2.7l11.8,10c-0.7,1-1,2.2-1,3.6c0,3.7,3,6.6,6.6,6.6s6.6-3,6.6-6.6
		C222.6,80.5,219.6,77.5,216,77.5z"/>
	
		<ellipse transform="matrix(2.690372e-02 -0.9996 0.9996 2.690372e-02 217.9535 860.8857)" class="st13" cx="551.2" cy="318.5" rx="37.7" ry="37.7"/>
	<g>
		<path class="st9" d="M531.4,317.4c0.6,0,1.2-0.4,1.6-1.1c0.4-0.7,0.6-1.7,0.6-2.8v-5.3c0-1.2,0.3-2.2,1-2.8c0.7-0.7,1.5-1,2.4-1
			h1.9v2.1h-0.6c-0.6,0-0.9,0.2-1.2,0.6c-0.2,0.4-0.3,1-0.3,1.7v5.2c0,0.8-0.1,1.4-0.2,2c-0.2,0.5-0.4,1-0.6,1.3
			c-0.2,0.3-0.5,0.6-0.8,0.8c-0.3,0.2-0.5,0.3-0.8,0.3v0.1c0.2,0,0.5,0.2,0.8,0.3c0.3,0.2,0.5,0.4,0.8,0.8c0.2,0.3,0.4,0.8,0.6,1.4
			c0.2,0.6,0.2,1.2,0.2,2v5.2c0,0.7,0.1,1.3,0.3,1.7c0.2,0.4,0.6,0.6,1.2,0.6h0.6v2.1H537c-0.9,0-1.7-0.3-2.4-1
			c-0.7-0.7-1-1.6-1-2.8v-5.2c0-1.2-0.2-2.1-0.6-2.9c-0.4-0.7-0.9-1.1-1.6-1.1V317.4z"/>
		<path class="st9" d="M570.9,319.5c-0.6,0-1.2,0.4-1.6,1.1c-0.4,0.7-0.6,1.7-0.6,2.9v5.2c0,1.2-0.3,2.2-1,2.8c-0.7,0.7-1.5,1-2.4,1
			h-1.9v-2.1h0.6c0.6,0,0.9-0.2,1.2-0.6c0.2-0.4,0.3-1,0.3-1.7V323c0-0.8,0.1-1.5,0.2-2c0.2-0.6,0.4-1,0.6-1.4
			c0.2-0.3,0.5-0.6,0.8-0.8c0.3-0.2,0.5-0.3,0.8-0.3v-0.1c-0.3,0-0.5-0.2-0.8-0.3c-0.3-0.2-0.5-0.5-0.8-0.8
			c-0.2-0.3-0.4-0.8-0.6-1.3c-0.2-0.5-0.2-1.2-0.2-2v-5.2c0-0.7-0.1-1.3-0.3-1.7c-0.2-0.4-0.6-0.6-1.2-0.6h-0.6v-2.1h1.9
			c0.9,0,1.7,0.3,2.4,1c0.7,0.7,1,1.6,1,2.8v5.3c0,1.1,0.2,2.1,0.6,2.8c0.4,0.7,0.9,1.1,1.6,1.1V319.5z"/>
		<path class="st9" d="M547.7,329.4c1.4-0.6,2.5-1.4,3.2-2.3c0.7-0.9,1.1-2.1,1.1-3.4c-0.1,0-0.2,0-0.3,0.1c-0.1,0-0.2,0-0.3,0
			c-0.7,0-1.4-0.2-1.9-0.6c-0.5-0.4-0.8-1.1-0.8-2c0-0.9,0.3-1.5,0.8-2c0.6-0.5,1.2-0.7,1.9-0.7c1,0,1.8,0.4,2.3,1.2
			s0.8,1.9,0.8,3.2c0,2-0.5,3.7-1.6,5.1c-1.1,1.4-2.6,2.5-4.5,3.2L547.7,329.4z M548.5,311.9c0-0.9,0.3-1.6,0.8-2.1
			c0.5-0.5,1.2-0.8,2-0.8c0.8,0,1.5,0.3,2,0.8c0.5,0.5,0.8,1.3,0.8,2.1c0,0.9-0.3,1.6-0.8,2.1c-0.5,0.5-1.2,0.8-2,0.8
			c-0.8,0-1.5-0.3-2-0.8C548.7,313.5,548.5,312.8,548.5,311.9z"/>
	</g>
	<g id="Calque_2_2_">
		<g id="content_3_">
			<path class="st9" d="M135.5,310.4h-25.4c-2.4,0-4.3-1.9-4.3-4.3v-52.2c0-2.4,1.9-4.3,4.3-4.3h25.4c2.4,0,4.3,1.9,4.3,4.3v52.2
				C139.9,308.5,137.9,310.4,135.5,310.4z M110.1,252.4c-0.8,0-1.4,0.6-1.4,1.4v52.2c0,0.8,0.6,1.4,1.4,1.4h25.4
				c0.8,0,1.4-0.6,1.4-1.4v-52.2c0-0.8-0.6-1.4-1.4-1.4H110.1z"/>
			<path class="st9" d="M132,256.4c0.5,0,1,0.4,1,1v36.3c0,0.5-0.4,1-1,1l0,0h-18.4c-0.5,0-1-0.4-1-1l0,0v-36.3c0-0.5,0.4-1,1-1l0,0
				H132 M132,255.4h-18.4c-1.1,0-1.9,0.9-1.9,1.9v36.3c0,1.1,0.9,1.9,1.9,1.9H132c1.1,0,1.9-0.9,1.9-1.9v-36.3
				C133.9,256.3,133.1,255.4,132,255.4L132,255.4z"/>
			<path class="st9" d="M122.8,305c-2,0-3.6-1.6-3.6-3.6s1.6-3.6,3.6-3.6s3.6,1.6,3.6,3.6C126.4,303.4,124.8,305,122.8,305z
				 M122.8,298.7c-1.5,0-2.6,1.2-2.6,2.6s1.2,2.6,2.6,2.6s2.6-1.2,2.6-2.6C125.4,299.9,124.3,298.7,122.8,298.7z"/>
		</g>
	</g>
	<g>
		<g id="Calque_2_1_">
			<g id="content_2_">
				<path class="st9" d="M485.9,49.5c-0.1-0.3-0.3-0.7-0.4-1c-0.6-1.2-1.4-2.2-2.5-2.8l-16.5-9.5c-2.1-1-4.5-1-6.5,0l-16.5,9.5
					c-1.1,0.7-2,1.7-2.5,2.8c-0.2,0.3-0.3,0.7-0.4,1c-0.2,0.6-0.3,1.2-0.3,1.8v19c0.1,2.3,1.3,4.4,3.3,5.7l16.5,9.5
					c2,1.1,4.5,1.1,6.5,0L483,76c2-1.2,3.2-3.4,3.3-5.7v-19C486.2,50.7,486.1,50.1,485.9,49.5z M461.6,39c1-0.5,2.2-0.5,3.2,0
					l16.5,9.5L464.8,58c-1,0.5-2.2,0.5-3.2,0l-16.5-9.5L461.6,39z M482.9,70.3c-0.1,1.1-0.7,2.2-1.6,2.8l-16.5,9.5
					c-1,0.5-2.2,0.5-3.2,0l-16.5-9.5c-0.9-0.7-1.5-1.7-1.6-2.8v-4.1l16.9,9.8c1.8,0.9,3.8,0.9,5.6,0l16.9-9.8V70.3z M482.9,64.6
					l-0.5,0.3l-17.2,9.9c-1.3,0.7-2.9,0.7-4.2,0l-17.2-9.9l-0.4-0.3v-5.7l16.9,9.8c1.8,0.9,3.8,0.9,5.6,0l16.9-9.8V64.6z
					 M482.9,57.3l-17.6,10.2c-1.3,0.7-2.9,0.7-4.2,0l-17.2-9.9l-0.4-0.3v-5.9l16.5,9.5c2,1.1,4.5,1.1,6.5,0l16.5-9.5V57.3
					L482.9,57.3z"/>
			</g>
		</g>
	</g>
	<path class="st9" d="M615.3,202.1h-28c-6,0-11.2-4.3-12.3-10.2c-0.6-3.3,0-6.6,1.9-9.4c1.9-2.7,4.7-4.6,7.9-5.3
		c2.3-5.5,7.5-9.3,13.4-9.9c4.3-0.4,8.6,0.8,12,3.6c3.3,2.7,5.4,6.6,5.9,10.9c4.4,0.7,7.9,4.2,8.6,8.6c0.4,2.8-0.6,5.9-2.6,8.3
		C620.3,200.9,617.8,202.1,615.3,202.1z M600,169.7c-0.5,0-1,0-1.4,0.1c-5.1,0.5-9.5,3.8-11.5,8.5l-0.5,1.1l-1.2,0.2
		c-2.6,0.5-4.9,2-6.4,4.3c-1.5,2.2-2.1,4.9-1.5,7.6c0.9,4.7,5.1,8.2,9.9,8.2h28c1.8,0,3.6-0.9,5-2.6c1.6-1.8,2.4-4.2,2.1-6.3
		c-0.5-3.4-3.2-6.1-6.6-6.6L614,184l-0.2-1.8c-0.4-3.7-2.2-7-5-9.4C606.2,170.8,603.2,169.7,600,169.7z"/>
	<g>
		<path class="st3" d="M312.7,291c-0.9,0-1.9-0.2-2.8-0.5c-1.9-0.7-3.5-2.2-4.5-4.1l-0.9-1.8l-1.3,1.5c-0.8,0.9-1.7,1.7-2.8,2.2
			c-1.1,0.5-2.3,0.8-3.4,0.8c-0.9,0-1.9-0.2-2.8-0.5c-3.2-1.2-5.4-4.4-5.6-8.1l-0.1-1.9l-1.8,0.8c-1,0.4-2.1,0.7-3.1,0.7
			c-0.9,0-1.9-0.2-2.8-0.5c-4-1.5-6.4-6.2-5.4-10.6l0.5-2.3l-2.3,0.8c-0.8,0.3-1.7,0.4-2.5,0.4c-0.9,0-1.9-0.2-2.7-0.5
			c-4.4-1.6-6.7-6.8-5.2-11.5l0.4-1.4l-0.8-0.6c-9.1-6.2-21.6-14.1-25.8-16.7l16.8-44.6c4.1,1.2,18.3,5.1,22.2,5.3l0.1,0
			c2.1,0,5.7-2,10.5-4.8l0.7-0.4c4.6-2.7,9.4-5.5,12.3-5.5l0.1,0c4.3,0.1,9.5,0.8,11.5,1.1l0.6,0.1l0.5-0.3c1.2-0.9,2.2-1.6,3.2-2.2
			c4.6-2.9,15.2-6.5,21.7-6.5c1.7,0,2.7,0.3,3.2,0.5c1.1,0.5,3.7,1.9,7,3.6c11,5.7,23,11.9,26.3,12.6c0.4,0.1,0.8,0.1,1.3,0.1
			c4.7,0,20-3.7,27.7-5.7l9,45.4l-16.7,8.5l-0.2,0.5c-0.7,2.1-1.8,3.7-3.2,4.9c-2.4,1.9-4.5,3.4-6.4,4.6l-1.1,0.7l0.6,1.1
			c1.8,3.2,1.6,7.3-0.5,10.2c-1.4,2-3.4,3.2-5.7,3.5c-0.3,0-0.7,0.1-1,0.1c-1.9,0-3.7-0.7-5.2-1.9l-4.1-3.5l0,2.8
			c0,2-0.6,3.8-1.7,5.4c-1.4,2-3.4,3.2-5.7,3.5c-0.3,0-0.7,0.1-1,0.1c-1.9,0-3.7-0.7-5.2-1.9l-2.9-2.5l0,2.8c0,2-0.6,3.8-1.7,5.4
			c-1.4,2-3.4,3.2-5.7,3.5c-0.3,0-0.7,0.1-1,0.1c-1.9,0-3.7-0.7-5.2-1.9l-2.5-2.1l-0.1,2.8c0,2-0.6,3.8-1.7,5.3
			c-1.4,2-3.4,3.2-5.7,3.5c-0.3,0-0.7,0.1-1,0.1c-1.9,0-3.7-0.7-5.2-1.9l-2.5-2l-0.8,1c-0.8,0.9-1.7,1.6-2.7,2.1
			C315.1,290.8,313.9,291,312.7,291z"/>
		
			<rect x="393.8" y="237.1" transform="matrix(0.8925 -0.4511 0.4511 0.8925 -64.4804 207.8115)" class="st14" width="19.8" height="4"/>
		<path class="st14" d="M394.3,230.2c-1.1,0.2-1.8,1.3-1.5,2.4c0.7,3,1.5,11.6-2.6,14.9c-3.2,2.6-5.5,4-6.7,4.7L328.1,209
			c-0.6-0.5-1.4-0.6-2.1-0.3c-0.1,0.1-14,6.2-20.2,8.9c-5.7,2.4-15.4,0.9-19.7-3c-1.5-1.4-2.2-3-2-4.5c0.2-1.2,1-2.3,2.3-2.9
			c1.4-0.7,3.7-1.5,6.1-2.4c5.6-2,9.5-3.5,11.3-5.4l0.2-0.2c2.5-2.6,7.2-7.4,13.1-11.2c6.1-4,19.5-7.1,22.3-5.8
			c1,0.5,3.6,1.8,6.9,3.5c12.1,6.3,23.4,12.1,27.1,12.8c5.3,1.1,26.8-4.7,31-5.8l-1.1-3.9c-9.5,2.6-25.8,6.4-29.2,5.7
			c-3.4-0.7-18.1-8.4-26-12.5c-3.5-1.8-6-3.1-7.1-3.6c-5-2.3-20.2,2.2-26.2,6.1c-1.1,0.7-2.2,1.5-3.2,2.3c-2-0.3-7.3-1.1-11.7-1.2
			c-3.2-0.1-8.1,2.8-13.3,5.7c-3.8,2.2-8.6,5-10.5,4.9c-3.8-0.1-17.1-3.9-21.9-5.3l-1.2,3.9c1.8,0.5,17.8,5.3,22.9,5.5
			c0.1,0,0.1,0,0.2,0c3,0,7.4-2.5,12.5-5.5c4-2.3,9-5.2,11.1-5.2c0,0,0,0,0,0c2.4,0,5.2,0.3,7.5,0.6c-2.7,2.3-4.8,4.5-6.2,6
			l-0.2,0.2c-1.3,1.3-6.2,3.1-9.8,4.4c-2.5,0.9-4.9,1.8-6.6,2.6c-2.5,1.2-4.1,3.4-4.5,6c-0.4,2.8,0.8,5.8,3.2,8
			c5.4,5.1,16.9,6.9,24,3.8c5.2-2.2,15.7-6.9,19.2-8.4l54.6,42.6c2.6,2.2,3,6.3,1,9.1c-1,1.3-2.3,2.2-3.8,2.4
			c-1.5,0.2-2.9-0.3-4.1-1.3l-8.1-6.8c-0.1,0-0.1-0.1-0.2-0.2c0,0-0.1,0-0.1-0.1l-32.2-27.3l-2.6,3.1l32.4,27.4c2.5,2.2,2.9,6.2,1,9
			c-1,1.3-2.3,2.2-3.8,2.4c-1.5,0.2-2.9-0.3-4.1-1.3l-7.1-6c0,0,0,0,0,0l-22.8-19.2c-0.9-0.7-2.1-0.6-2.8,0.2
			c-0.7,0.9-0.6,2.1,0.2,2.8l22.8,19.2c0,0,0,0,0,0l0,0c2.6,2.2,3,6.3,1,9.1c-1,1.3-2.3,2.2-3.8,2.4c-1.5,0.2-2.9-0.3-4.1-1.3
			l-5.9-4.9c-0.2-0.2-0.5-0.5-0.7-0.7c-0.1-0.1-0.3-0.2-0.4-0.3l-6.9-5.8c-0.6-3.5-3-6.6-6.3-7.9c-2.4-0.9-5-0.8-7.3,0.4
			c-0.5,0.2-0.9,0.5-1.3,0.8c-0.9-3-3.1-5.5-6-6.6c-2.4-0.9-5-0.8-7.3,0.4c-0.7,0.3-1.3,0.8-1.9,1.2c-1-2.6-3-4.8-5.7-5.8
			c-2.1-0.8-4.2-0.8-6.3-0.1c0.8-4.9-1.8-9.9-6.4-11.6c-2.4-0.9-5-0.8-7.3,0.4c-2.4,1.2-4.3,3.4-5.2,6.2l-1.8,5.9
			c-11.5-7.8-24.8-15.9-24.9-16l-2.1,3.4c0.1,0.1,14.2,8.7,25.7,16.6l-0.1,0.5c-1.7,5.4,1,11.3,6,13.2c1,0.4,2.1,0.6,3.2,0.6
			c1,0,2-0.2,3-0.5c-1.1,5.1,1.6,10.4,6.3,12.2c1.1,0.4,2.1,0.6,3.2,0.6c1.2,0,2.5-0.3,3.6-0.8c0.2,4.1,2.7,7.8,6.5,9.3
			c1.1,0.4,2.1,0.6,3.2,0.6c1.4,0,2.7-0.3,4-0.9c1.2-0.6,2.3-1.5,3.2-2.5c1.1,2.2,2.9,3.9,5.3,4.8c1.1,0.4,2.1,0.6,3.2,0.6
			c1.4,0,2.7-0.3,4-0.9c1.2-0.6,2.3-1.4,3.2-2.5l1.4,1.1c1.7,1.5,3.8,2.3,6,2.3c0.4,0,0.8,0,1.1-0.1c2.6-0.3,5-1.8,6.6-4
			c1.3-1.8,1.9-4,2-6.1l0.4,0.3c1.7,1.5,3.8,2.3,6,2.3c0.4,0,0.8,0,1.1-0.1c2.6-0.3,5-1.8,6.6-4c1.3-1.8,1.9-4,2-6.1l0.8,0.7
			c1.7,1.5,3.8,2.3,6,2.3c0.4,0,0.8,0,1.1-0.1c2.6-0.3,5-1.8,6.6-4c1.3-1.8,1.9-4,2-6.1l2,1.7c1.7,1.5,3.8,2.3,6,2.3
			c0.4,0,0.8,0,1.1-0.1c2.6-0.3,5-1.8,6.6-4c2.5-3.4,2.6-8.1,0.6-11.7c1.4-0.9,3.6-2.3,6.5-4.7c6.9-5.5,4.2-18.4,4-18.9
			C396.4,230.6,395.3,230,394.3,230.2z M269.4,264.8c-3-1.1-4.6-4.8-3.6-8.2l3.3-10.3c0.5-1.7,1.6-3,3.1-3.7
			c0.7-0.4,1.5-0.5,2.3-0.5c0.6,0,1.2,0.1,1.8,0.3c3,1.1,4.6,4.8,3.6,8.2l-3.3,10.3c-0.5,1.7-1.6,3-3.1,3.7
			C272.1,265.2,270.7,265.3,269.4,264.8z M281.8,277.1c-3-1.1-4.6-4.8-3.6-8.2l3.5-11c0.5-1.7,1.6-3,3.1-3.7
			c1.3-0.6,2.7-0.7,4.1-0.2c2.7,1,4.3,4,3.8,7.1l-4.1,13.1c-0.6,1.2-1.5,2.1-2.7,2.7C284.6,277.5,283.2,277.6,281.8,277.1z
			 M299.3,285.9c-1.3,0.6-2.7,0.7-4.1,0.2c-3-1.1-4.6-4.8-3.6-8.2l0.7-2.3c0.2-0.4,0.4-0.9,0.5-1.3l3.5-11c0.1-0.4,0.2-0.9,0.3-1.3
			c0.5-1.7,1.6-3,3.1-3.7c1.3-0.6,2.7-0.7,4.1-0.2c3,1.1,4.6,4.8,3.6,8.2l-3.9,12.3c0,0,0,0,0,0l-1.1,3.6
			C301.8,283.9,300.7,285.2,299.3,285.9z M315,287.8c-1.3,0.6-2.7,0.7-4.1,0.2c-3-1.1-4.6-4.8-3.6-8.2l3.9-12.3
			c0.5-1.7,1.6-3,3.1-3.7c1.3-0.6,2.7-0.7,4.1-0.2c3,1.1,4.6,4.8,3.6,8.2l-3.9,12.3C317.6,285.8,316.5,287.1,315,287.8z
			 M331.8,285.9c-1,1.3-2.3,2.2-3.8,2.4c-1.5,0.2-2.9-0.3-4.1-1.3l-2-1.6c0,0,0-0.1,0-0.1l3.9-12.3c0-0.1,0-0.2,0.1-0.3l5.3,4.4
			C333.4,279.5,333.7,283.2,331.8,285.9z"/>
		<path class="st15" d="M463.1,236.8c-0.1,0-0.2,0-0.4,0c-8.9,1.6-23.2,4-25.6,3.9c-1.6-0.1-4.1-3.3-5.4-5.6c-0.4-0.7-1.3-1.2-2.1-1
			l-14.8,2.4L404.7,185l16-3l5.5,35.5c0.1,0.3,0.3,0.6,0.7,0.6c0,0,0.1,0,0.1,0c0.4-0.1,0.6-0.4,0.6-0.8l-5.6-35.7
			c0.6-0.3,1.1-1,1.1-1.8c0-1.2,0.4-3.9,1.4-5.1c2.5-1.3,21.4-4,38.5-6.1v-4c-0.1,0-0.2,0-0.2,0c-17.5,2.1-38.9,5-41.1,7.1
			c-1.8,1.8-2.4,4.6-2.6,6.3l-17.2,3.2c-0.5,0.1-1,0.4-1.3,0.9c-0.3,0.4-0.4,1-0.3,1.5l11,55.5c0.2,1.1,1.2,1.8,2.3,1.6l15.3-2.5
			c1.4,2.2,4.5,6.3,8.1,6.4c0.1,0,0.1,0,0.2,0c4,0,22.4-3.3,25.9-3.9V236.8z"/>
		<path class="st15" d="M254.6,185.6l-14.4-7.4l2.3-5.2c0.5-1,0.5-2.2,0-3.3c-0.4-1-1.3-1.9-2.3-2.3l-50.1-19.8
			c-0.2-0.1-0.5-0.1-0.7-0.1v4.2l49.4,19.5c0,0,0.1,0.2,0.1,0.2l-29,66.4l-0.1,0.1l-19.6-8.6c-0.3-0.1-0.5-0.2-0.8-0.2v4.2l18.7,8.2
			c0.5,0.2,1.1,0.4,1.7,0.4c0.5,0,1-0.1,1.5-0.3c1-0.4,1.8-1.2,2.3-2.2l1.7-3.8l17.6,7c0.3,0.1,0.7,0.2,1,0.2c0.4,0,0.8-0.1,1.1-0.2
			c0.7-0.3,1.2-0.9,1.5-1.6l19.4-51.9v0C256.4,187.8,255.8,186.3,254.6,185.6z M222,220.1h6.1v7.5h-9.4L222,220.1z M254.6,188.6
			l-19.4,51.9c-0.1,0.4-0.4,0.7-0.8,0.8c-0.4,0.2-0.8,0.2-1.1,0l-17.6-7l2.4-5.4h10.6c0.4,0,0.7-0.3,0.7-0.7v-8.9
			c0-0.4-0.3-0.7-0.7-0.7h-6.2l17.1-39.3l14.3,7.4C254.6,187.2,254.9,187.9,254.6,188.6z"/>
	</g>
	
		<ellipse transform="matrix(6.994416e-02 -0.9976 0.9976 6.994416e-02 -196.8201 567.6918)" class="st13" cx="206" cy="389.4" rx="40.6" ry="40.6"/>
	<path class="st9" d="M229,384.4h-7.3c-1-3.8-2.9-7.2-5.8-10c-8.3-7.8-21.3-7.5-29.1,0.8c-6,6.4-7.4,15.7-3.4,23.5
		c-0.3,0.9-0.5,1.9-0.5,2.9c0.1,2.1,0.9,4.1,2.5,5.6c1.5,1.4,3.4,2.2,5.5,2.2c0.1,0,0.1,0,0.2,0c1.1,0,2.2-0.3,3.2-0.8
		c2.4,0.9,4.9,1.4,7.4,1.4c5.3,0,10.6-2,14.5-5.9v3.3c0,1.1,0.9,1.9,1.9,1.9h11c1.1,0,1.9-0.9,1.9-1.9v-21.2
		C231,385.2,230.1,384.4,229,384.4z M185.5,395.5c0.2-2,1.1-4,2.5-5.5c1.7-1.8,4.1-2.9,6.6-3c2.5-0.1,4.9,0.9,6.8,2.6
		c1.8,1.7,2.9,4.1,3,6.6c0.1,2.5-0.9,4.9-2.6,6.8c-1.1,1.2-2.6,2.1-4.2,2.5c1.9-3.1,1.5-7.3-1.3-10c-1.5-1.5-3.6-2.2-5.7-2.2
		C188.7,393.5,187,394.2,185.5,395.5z M196.6,407c0,0,0.1-0.1,0.1-0.1c0,0,0,0,0,0c2.2-0.4,4.3-1.5,5.9-3.1c1.9-2,2.9-4.7,2.9-7.5
		c-0.1-2.8-1.2-5.4-3.3-7.3c-2-1.9-4.7-2.9-7.5-2.9c-2.8,0.1-5.4,1.2-7.3,3.3c-1.7,1.8-2.7,4.1-2.8,6.5c-1-4.6,0.3-9.4,3.6-12.9
		c5.4-5.7,14.5-6,20.3-0.6c2.8,2.6,4.4,6.2,4.5,10c0.1,3.8-1.3,7.5-3.9,10.3C205.7,406.1,201.1,407.6,196.6,407z M191,407.3
		c-1.6,0-3.1-0.5-4.2-1.6c-1.1-1.1-1.8-2.5-1.8-4.1c0-1.6,0.5-3.1,1.6-4.2c1.1-1.1,2.5-1.8,4.1-1.8c0.1,0,0.1,0,0.2,0
		c1.5,0,2.9,0.6,4,1.6c2.3,2.2,2.4,5.9,0.2,8.3C194.1,406.6,192.6,407.2,191,407.3z M216.1,386.3V401c-0.3,0.4-0.6,0.8-1,1.1
		c-3.6,3.8-8.6,5.8-13.6,5.8c3.1-0.6,5.9-2.2,8.1-4.5c2.8-3,4.3-6.9,4.2-11c-0.1-4.1-1.8-7.9-4.8-10.7c-6.2-5.8-15.9-5.6-21.7,0.6
		c-2.3,2.4-3.6,5.4-4.1,8.5c-0.4-5.1,1.3-10.2,5-14.1c7-7.4,18.7-7.7,26.1-0.7c2.4,2.3,4.2,5.2,5.1,8.4h-1.5
		C217,384.4,216.1,385.2,216.1,386.3z M228.8,407.3h-10.6v-20.8h10.6V407.3z"/>
	<g>
		<g>
			<line class="st1" x1="71.5" y1="282.6" x2="70.2" y2="282.6"/>
			<path class="st16" d="M67.6,282.6h-5.3c0,0-15.9,0-15.9-13.9v-72.5"/>
			<line class="st1" x1="46.4" y1="195" x2="46.4" y2="193.7"/>
		</g>
	</g>
	<g>
		<g>
			<line class="st1" x1="551.7" y1="356.1" x2="551.6" y2="357.5"/>
			<path class="st17" d="M551.6,360.1l-0.4,15.1c0,0,0,15.9-13.9,15.9h-76.7"/>
			<line class="st1" x1="459.3" y1="391" x2="458" y2="391"/>
		</g>
	</g>
</g>
</svg>
