<?xml version="1.0" encoding="utf-8"?>
<!-- Generator: Adobe Illustrator 21.1.0, SVG Export Plug-In . SVG Version: 6.00 Build 0)  -->
<svg version="1.1" id="Calque_1" xmlns="http://www.w3.org/2000/svg" xmlns:xlink="http://www.w3.org/1999/xlink" x="0px" y="0px"
	 viewBox="0 0 280 560" style="enable-background:new 0 0 280 560;" xml:space="preserve">
<style type="text/css">
	.st0{fill:#FFFFFF;stroke:#CCCCCC;stroke-miterlimit:10;}
	.st1{fill:none;stroke:#C6C6C5;stroke-linejoin:round;}
	.st2{fill:none;stroke:#C6C6C5;stroke-linejoin:round;stroke-dasharray:1.9918,1.9918;}
	.st3{fill:#EB6449;}
	.st4{fill:none;stroke:#C6C6C5;stroke-linejoin:round;stroke-dasharray:2.0066,2.0066;}
	.st5{fill:none;stroke:#C6C6C5;stroke-linejoin:round;stroke-dasharray:2.0228,2.0228;}
	.st6{fill:none;stroke:#C6C6C5;stroke-linejoin:round;stroke-dasharray:1.9816,1.9816;}
	.st7{fill:#FFFFFF;}
	.st8{fill:#FF6444;}
	.st9{fill:#424661;}
</style>
<g>
	<g>
		
			<ellipse transform="matrix(2.690372e-02 -0.9996 0.9996 2.690372e-02 -368.7365 422.1133)" class="st0" cx="32.4" cy="400.5" rx="31.7" ry="31.7"/>
		<g>
			<g>
				<line class="st1" x1="243.1" y1="229.1" x2="243.1" y2="230.1"/>
				<path class="st2" d="M243.1,232.1v284.7c0,0,1.7,13.1-9,13.1H99.8"/>
				<line class="st1" x1="98.8" y1="529.8" x2="97.8" y2="529.8"/>
			</g>
		</g>
		<g>
			<polygon class="st3" points="51.3,413.1 48.4,411.3 48.4,412.7 41.4,412.5 41.3,413.2 48.3,413.4 48.3,414.8 			"/>
			<path class="st3" d="M46.1,400.3c0.2-7.3-5.6-13.5-13-13.7c-3.9-0.1-7.5,1.5-10,4.1c-0.7,0.8-1.8,1.3-2.9,1.4
				c-1.1,0.1-2.2-0.3-3-1.1c-0.8-0.7-1.3-1.8-1.4-2.9c-0.1-1.1,0.3-2.2,1.1-3c1.5-1.6,3.9-1.8,5.6-0.5l-1.1,0.7l3,1.7l-0.1-3.4
				l-1.2,0.7c-2-1.7-5-1.5-6.7,0.4c-0.9,1-1.3,2.2-1.3,3.5c0.1,1.3,0.6,2.5,1.6,3.4c0.9,0.8,2,1.2,3.1,1.3c0.1,0,0.2,0,0.4,0
				c0.5,0,1-0.1,1.4-0.3c-1.4,2-2.2,4.5-2.3,7.1c-0.1,2.1,0.4,4.2,1.3,6.1L19,407l5.2,2.3l-0.7-5.7l-1.7,1.2c-0.7-1.6-1.1-3.4-1-5.2
				c0.2-6.6,5.7-11.7,12.2-11.6s11.7,5.7,11.6,12.2c-0.2,6.6-5.7,11.7-12.2,11.6l-18.9-0.5l0,1.4l18.9,0.5
				C39.7,413.5,45.9,407.7,46.1,400.3z"/>
		</g>
		
			<ellipse transform="matrix(2.690372e-02 -0.9996 0.9996 2.690372e-02 -324.8599 578.0784)" class="st0" cx="134.5" cy="455.9" rx="30.3" ry="30.3"/>
		
			<ellipse transform="matrix(2.690372e-02 -0.9996 0.9996 2.690372e-02 -154.2224 622.8124)" class="st0" cx="242.8" cy="390.6" rx="31.7" ry="31.7"/>
		
			<ellipse transform="matrix(2.690372e-02 -0.9996 0.9996 2.690372e-02 74.7842 152.0457)" class="st0" cx="115.5" cy="37.6" rx="36.2" ry="36.2"/>
		
			<ellipse transform="matrix(2.690372e-02 -0.9996 0.9996 2.690372e-02 43.7309 430.2723)" class="st0" cx="242.9" cy="192.7" rx="36.4" ry="36.4"/>
		
			<ellipse transform="matrix(6.994416e-02 -0.9976 0.9976 6.994416e-02 79.4287 303.8066)" class="st0" cx="202.6" cy="109.3" rx="27" ry="27"/>
		
			<ellipse transform="matrix(6.994416e-02 -0.9976 0.9976 6.994416e-02 -112.6997 282.269)" class="st0" cx="95" cy="201.6" rx="31.2" ry="31.2"/>
		<polygon class="st3" points="133,29.3 131.8,30.6 138.9,37.6 131.8,44.7 133,45.9 141.3,37.6 		"/>
		<polygon class="st3" points="97.9,29.3 89.7,37.6 97.9,45.9 99.2,44.7 92.1,37.6 99.2,30.6 		"/>
		<path class="st3" d="M121.5,30.7c-0.4,0-0.7,0-1.1,0.1l-0.8-1.5l-2.7,4.4l5.2,0.1l-0.7-1.4c0.1,0,0.1,0,0.2,0
			c2.9,0,5.2,2.3,5.2,5.2s-2.3,5.2-5.2,5.2c-2.9,0-5.2-2.3-5.2-5.2c0-3.8-3.1-6.9-6.9-6.9c-3.8,0-6.9,3.1-6.9,6.9s3.1,6.9,6.9,6.9
			c0.4,0,0.7,0,1.1-0.1l0.8,1.5l2.7-4.4l-5.2-0.1l0.7,1.4c-0.1,0-0.1,0-0.2,0c-2.9,0-5.2-2.3-5.2-5.2s2.3-5.2,5.2-5.2
			c2.9,0,5.2,2.3,5.2,5.2c0,3.8,3.1,6.9,6.9,6.9c3.8,0,6.9-3.1,6.9-6.9S125.4,30.7,121.5,30.7z"/>
		<g>
			<g>
				<line class="st1" x1="32.5" y1="368.7" x2="32.5" y2="367.7"/>
				<path class="st4" d="M32.5,365.7V49.8c0,0,0-12.2,10.7-12.2h34.2"/>
				<line class="st1" x1="78.3" y1="37.6" x2="79.3" y2="37.6"/>
			</g>
		</g>
		<g>
			<g>
				<line class="st1" x1="94.8" y1="169.8" x2="94.8" y2="168.8"/>
				<path class="st5" d="M94.8,166.8v-51.2c0,0-1.2-6.3,6.6-6.3h70.7"/>
				<line class="st1" x1="173.1" y1="109.3" x2="174.1" y2="109.3"/>
			</g>
		</g>
		<g>
			<g>
				<line class="st1" x1="134.6" y1="425.6" x2="134.6" y2="424.6"/>
				<path class="st6" d="M134.6,422.7v-26.5c0,0-1.2-7.4,6.3-7.4h68.2"/>
				<line class="st1" x1="210.1" y1="388.7" x2="211.1" y2="388.7"/>
			</g>
		</g>
		<path class="st3" d="M259.5,202.3c-1.1,0-2,0.4-2.7,1.1l-7.3-6.1c0.6-0.9,1-2.1,1-3.3c0-1-0.3-2-0.8-2.8l6.2-4.3
			c0.9,1,2.1,1.6,3.5,1.6c2.6,0,4.7-2.1,4.7-4.7c0-2.6-2.1-4.7-4.7-4.7c-2.6,0-4.7,2.1-4.7,4.7c0,0.8,0.2,1.6,0.6,2.3l-6.2,4.3
			c-0.7-0.9-1.7-1.5-2.8-1.8l0.9-5.2c1.6,0,2.9-1.3,2.9-2.9c0-1.6-1.3-2.9-2.9-2.9c-1.6,0-2.9,1.3-2.9,2.9c0,1.2,0.8,2.3,1.9,2.7
			l-0.9,5.2c-0.2,0-0.3,0-0.5,0c-1.3,0-2.5,0.4-3.5,1.2l-8.8-9.6c0.5-0.6,0.8-1.4,0.8-2.3c0-2-1.6-3.6-3.6-3.6s-3.6,1.6-3.6,3.6
			s1.6,3.6,3.6,3.6c0.7,0,1.4-0.2,2-0.6l8.8,9.6c-0.9,1-1.5,2.3-1.5,3.7l-12.2,0.8c-0.4-1.6-1.8-2.8-3.5-2.8c-2,0-3.6,1.6-3.6,3.6
			c0,2,1.6,3.6,3.6,3.6c1.9,0,3.4-1.4,3.6-3.3l12.2-0.8c0.3,1.7,1.3,3.2,2.8,4l-3,6.5c-0.4-0.1-0.8-0.2-1.2-0.2
			c-2.3,0-4.2,1.9-4.2,4.2s1.9,4.2,4.2,4.2s4.2-1.9,4.2-4.2c0-1.5-0.8-2.8-1.9-3.5l3-6.5c0.6,0.2,1.2,0.3,1.9,0.3c1.6,0,3-0.6,4-1.7
			l7.3,6.1c-0.4,0.6-0.6,1.4-0.6,2.2c0,2.3,1.8,4.1,4.1,4.1c2.3,0,4.1-1.8,4.1-4.1C263.6,204.1,261.8,202.3,259.5,202.3z"/>
		
			<ellipse transform="matrix(2.690372e-02 -0.9996 0.9996 2.690372e-02 -462.4595 584.1833)" class="st0" cx="68.8" cy="529.6" rx="29" ry="29"/>
		<g>
			<path class="st3" d="M53.9,530c0.5,0,0.9-0.3,1.2-0.8c0.3-0.6,0.5-1.3,0.5-2.1v-4.1c0-0.9,0.3-1.7,0.8-2.2
				c0.5-0.5,1.1-0.8,1.8-0.8h1.4v1.6h-0.5c-0.4,0-0.7,0.2-0.9,0.5c-0.2,0.3-0.3,0.7-0.3,1.3v4c0,0.6-0.1,1.1-0.2,1.5
				c-0.1,0.4-0.3,0.8-0.5,1c-0.2,0.3-0.4,0.5-0.6,0.6c-0.2,0.1-0.4,0.2-0.6,0.3v0.1c0.2,0,0.4,0.1,0.6,0.3c0.2,0.1,0.4,0.3,0.6,0.6
				c0.2,0.3,0.3,0.6,0.5,1c0.1,0.4,0.2,0.9,0.2,1.5v4c0,0.6,0.1,1,0.3,1.3c0.2,0.3,0.5,0.5,0.9,0.5h0.5v1.6h-1.4
				c-0.7,0-1.3-0.3-1.8-0.8c-0.5-0.5-0.8-1.2-0.8-2.2v-4c0-0.9-0.2-1.6-0.5-2.2c-0.3-0.6-0.7-0.9-1.2-0.9V530z"/>
			<path class="st3" d="M84.3,531.6c-0.5,0-0.9,0.3-1.2,0.9c-0.3,0.6-0.5,1.3-0.5,2.2v4c0,0.9-0.3,1.7-0.8,2.2
				c-0.5,0.5-1.1,0.8-1.8,0.8h-1.4V540H79c0.4,0,0.7-0.2,0.9-0.5c0.2-0.3,0.3-0.8,0.3-1.3v-4c0-0.6,0.1-1.1,0.2-1.5
				c0.1-0.4,0.3-0.8,0.5-1c0.2-0.3,0.4-0.5,0.6-0.6c0.2-0.1,0.4-0.2,0.6-0.3v-0.1c-0.2,0-0.4-0.1-0.6-0.3c-0.2-0.1-0.4-0.3-0.6-0.6
				c-0.2-0.3-0.3-0.6-0.5-1c-0.1-0.4-0.2-0.9-0.2-1.5v-4c0-0.6-0.1-1-0.3-1.3c-0.2-0.3-0.5-0.5-0.9-0.5h-0.5V520H80
				c0.7,0,1.3,0.3,1.8,0.8c0.5,0.5,0.8,1.2,0.8,2.2v4.1c0,0.9,0.2,1.6,0.5,2.1c0.3,0.6,0.7,0.8,1.2,0.8V531.6z"/>
			<path class="st3" d="M66.5,539.2c1.1-0.5,1.9-1.1,2.5-1.8c0.6-0.7,0.8-1.6,0.9-2.7c-0.1,0-0.2,0-0.3,0c-0.1,0-0.2,0-0.3,0
				c-0.6,0-1.1-0.2-1.5-0.5c-0.4-0.3-0.6-0.8-0.6-1.5c0-0.7,0.2-1.2,0.6-1.5c0.4-0.3,0.9-0.5,1.5-0.5c0.8,0,1.4,0.3,1.8,0.9
				c0.4,0.6,0.6,1.4,0.6,2.5c0,1.6-0.4,2.9-1.2,4c-0.8,1.1-2,1.9-3.5,2.4L66.5,539.2z M67.1,525.8c0-0.7,0.2-1.2,0.6-1.6
				c0.4-0.4,0.9-0.6,1.5-0.6c0.6,0,1.1,0.2,1.5,0.6c0.4,0.4,0.6,1,0.6,1.6c0,0.7-0.2,1.2-0.6,1.6c-0.4,0.4-0.9,0.6-1.5,0.6
				c-0.6,0-1.1-0.2-1.5-0.6C67.3,527,67.1,526.4,67.1,525.8z"/>
		</g>
		<g id="Calque_2">
			<g id="content">
				<path class="st3" d="M209.4,125.5h-13.6c-1.3,0-2.3-1-2.3-2.3V95.4c0-1.3,1-2.3,2.3-2.3h13.6c1.3,0,2.3,1,2.3,2.3v27.8
					C211.7,124.5,210.7,125.5,209.4,125.5z M195.9,94.6c-0.4,0-0.8,0.3-0.8,0.8v27.8c0,0.4,0.3,0.8,0.8,0.8h13.6
					c0.4,0,0.8-0.3,0.8-0.8V95.4c0-0.4-0.3-0.8-0.8-0.8H195.9z"/>
				<path class="st3" d="M207.6,96.7c0.3,0,0.5,0.2,0.5,0.5v19.3c0,0.3-0.2,0.5-0.5,0.5l0,0h-9.8c-0.3,0-0.5-0.2-0.5-0.5l0,0V97.3
					c0-0.3,0.2-0.5,0.5-0.5l0,0H207.6 M207.6,96.2h-9.8c-0.6,0-1,0.5-1,1v19.3c0,0.6,0.5,1,1,1h9.8c0.6,0,1-0.5,1-1V97.3
					C208.6,96.7,208.1,96.2,207.6,96.2L207.6,96.2z"/>
				<path class="st3" d="M202.6,122.6c-1.1,0-1.9-0.9-1.9-1.9s0.9-1.9,1.9-1.9c1.1,0,1.9,0.9,1.9,1.9
					C204.6,121.8,203.7,122.6,202.6,122.6z M202.6,119.3c-0.8,0-1.4,0.6-1.4,1.4s0.6,1.4,1.4,1.4c0.8,0,1.4-0.6,1.4-1.4
					C204,119.9,203.4,119.3,202.6,119.3z"/>
			</g>
		</g>
		<path class="st3" d="M112.7,197.7h-5.6c-0.7-2.9-2.3-5.6-4.5-7.7c-6.3-6-16.4-5.7-22.4,0.6c-4.6,4.9-5.7,12.1-2.6,18.1
			c-0.2,0.7-0.4,1.4-0.4,2.2c0,1.6,0.7,3.2,1.9,4.3c1.1,1.1,2.6,1.7,4.2,1.7c0.1,0,0.1,0,0.2,0c0.9,0,1.7-0.2,2.5-0.6
			c1.8,0.7,3.8,1.1,5.7,1.1c4.1,0,8.1-1.6,11.1-4.5v2.6c0,0.8,0.7,1.5,1.5,1.5h8.5c0.8,0,1.5-0.7,1.5-1.5v-16.3
			C114.2,198.4,113.5,197.7,112.7,197.7z M79.3,206.2c0.2-1.6,0.8-3,2-4.2c1.3-1.4,3.1-2.2,5.1-2.3c1.9-0.1,3.8,0.7,5.2,2
			c1.4,1.3,2.2,3.1,2.3,5.1c0.1,1.9-0.7,3.8-2,5.2c-0.9,0.9-2,1.6-3.2,2c1.5-2.4,1.1-5.6-1-7.7c-1.2-1.1-2.8-1.7-4.4-1.7
			C81.7,204.7,80.4,205.3,79.3,206.2z M87.7,215.1c0,0,0.1-0.1,0.1-0.1c0,0,0,0,0,0c1.7-0.3,3.3-1.1,4.5-2.4
			c1.5-1.6,2.3-3.6,2.2-5.8c-0.1-2.2-1-4.2-2.5-5.6c-1.6-1.5-3.6-2.3-5.8-2.2c-2.2,0.1-4.2,1-5.6,2.5c-1.3,1.4-2.1,3.2-2.2,5
			c-0.8-3.5,0.2-7.3,2.8-9.9c4.2-4.4,11.2-4.6,15.6-0.4c2.1,2,3.4,4.8,3.4,7.7c0.1,2.9-1,5.7-3,7.9
			C94.8,214.4,91.2,215.6,87.7,215.1z M83.5,215.3c-1.2,0-2.3-0.4-3.2-1.2s-1.4-1.9-1.4-3.2c0-1.2,0.4-2.3,1.2-3.2
			c0.8-0.9,1.9-1.4,3.2-1.4c0,0,0.1,0,0.1,0c1.2,0,2.3,0.4,3.1,1.2c1.8,1.7,1.9,4.6,0.2,6.4C85.8,214.8,84.7,215.3,83.5,215.3z
			 M102.8,199.2v11.3c-0.2,0.3-0.5,0.6-0.8,0.9c-2.8,2.9-6.6,4.5-10.5,4.4c2.4-0.5,4.6-1.7,6.3-3.5c2.2-2.3,3.3-5.3,3.2-8.4
			c-0.1-3.2-1.4-6.1-3.7-8.3c-4.7-4.5-12.2-4.3-16.7,0.5c-1.7,1.8-2.8,4.1-3.1,6.6c-0.3-3.9,1-7.9,3.9-10.9
			c5.4-5.7,14.4-5.9,20.1-0.6c1.9,1.8,3.2,4,3.9,6.5h-1.1C103.5,197.7,102.8,198.4,102.8,199.2z M112.6,215.3h-8.1v-16h8.1V215.3z"
			/>
		<g>
			<g id="Calque_2_5_">
				<g id="content_1_">
					<path class="st3" d="M257.3,383.3c-0.1-0.2-0.2-0.4-0.3-0.6c-0.4-0.7-0.9-1.4-1.6-1.8l-10.5-6.1c-1.3-0.7-2.9-0.7-4.2,0
						l-10.5,6.1c-0.7,0.4-1.3,1.1-1.6,1.8c-0.1,0.2-0.2,0.4-0.3,0.6c-0.1,0.4-0.2,0.8-0.2,1.2v12.1c0.1,1.5,0.8,2.8,2.1,3.6
						l10.5,6.1c1.3,0.7,2.9,0.7,4.2,0l10.5-6.1c1.2-0.8,2-2.1,2.1-3.6v-12.1C257.5,384.1,257.4,383.7,257.3,383.3z M241.8,376.6
						c0.7-0.3,1.4-0.3,2.1,0l10.5,6.1l-10.5,6.1c-0.7,0.3-1.4,0.3-2.1,0l-10.5-6.1L241.8,376.6z M255.4,396.6
						c-0.1,0.7-0.4,1.4-1,1.8l-10.5,6.1c-0.7,0.3-1.4,0.3-2.1,0l-10.5-6.1c-0.6-0.4-1-1.1-1-1.8V394l10.8,6.2c1.1,0.6,2.4,0.6,3.6,0
						l10.8-6.2V396.6z M255.4,393l-0.3,0.2l-11,6.3c-0.8,0.4-1.8,0.4-2.7,0l-11-6.3l-0.3-0.2v-3.7l10.8,6.2c1.1,0.6,2.4,0.6,3.6,0
						l10.8-6.2V393z M255.4,388.3l-11.2,6.5c-0.8,0.4-1.8,0.4-2.7,0l-11-6.3l-0.3-0.2v-3.8l10.5,6.1c1.3,0.7,2.9,0.7,4.2,0l10.5-6.1
						V388.3L255.4,388.3z"/>
				</g>
			</g>
		</g>
		<path class="st3" d="M146.4,469.3h-21.5c-4.6,0-8.6-3.3-9.5-7.8c-0.5-2.5,0-5.1,1.5-7.2c1.4-2.1,3.6-3.6,6.1-4.1
			c1.8-4.3,5.7-7.2,10.3-7.6c3.3-0.3,6.6,0.6,9.2,2.8c2.6,2.1,4.2,5.1,4.6,8.4c3.4,0.5,6.1,3.2,6.6,6.6c0.3,2.2-0.4,4.5-2,6.3
			C150.2,468.3,148.3,469.3,146.4,469.3z M134.6,444.4c-0.4,0-0.7,0-1.1,0.1c-3.9,0.4-7.3,2.9-8.8,6.6l-0.4,0.9l-0.9,0.2
			c-2,0.4-3.8,1.6-5,3.3c-1.2,1.7-1.6,3.8-1.2,5.8c0.7,3.6,3.9,6.3,7.6,6.3h21.5c1.4,0,2.8-0.7,3.8-2c1.2-1.4,1.8-3.2,1.6-4.8
			c-0.4-2.6-2.5-4.7-5.1-5.1l-1.4-0.2l-0.1-1.4c-0.3-2.8-1.7-5.4-3.9-7.2C139.4,445.2,137.1,444.4,134.6,444.4z"/>
	</g>
	<path class="st7" d="M127.5,355.3c-0.7,0-1.4-0.1-2.1-0.4c-1.5-0.6-2.7-1.7-3.5-3.2l-0.7-1.4l-1,1.2c-0.6,0.7-1.3,1.3-2.1,1.7
		c-0.8,0.4-1.7,0.6-2.6,0.6c-0.7,0-1.4-0.1-2.1-0.4c-2.5-0.9-4.2-3.4-4.3-6.2l-0.1-1.5l-1.4,0.6c-0.8,0.3-1.6,0.5-2.4,0.5
		c-0.7,0-1.4-0.1-2.1-0.4c-3.1-1.2-4.9-4.7-4.2-8.2l0.4-1.8l-1.7,0.6c-0.6,0.2-1.3,0.3-1.9,0.3c-0.7,0-1.4-0.1-2.1-0.4
		c-3.4-1.3-5.1-5.2-4-8.9l0.3-1.1l-0.6-0.4c-7-4.8-16.6-10.8-19.8-12.8l12.9-34.3c3.2,0.9,14.1,4,17.1,4l0.1,0
		c1.6,0,4.4-1.5,8.1-3.7l0.6-0.3c3.6-2.1,7.3-4.2,9.4-4.2l0.1,0c3.3,0.1,7.3,0.6,8.9,0.9l0.4,0.1l0.3-0.3c0.9-0.7,1.7-1.2,2.4-1.7
		c3.5-2.3,11.7-5,16.7-5c1.3,0,2.1,0.2,2.5,0.4c0.8,0.4,2.8,1.4,5.4,2.8c8.5,4.4,17.7,9.2,20.3,9.7c0.3,0.1,0.6,0.1,1,0.1
		c3.6,0,15.4-2.9,21.3-4.4l6.9,34.9l-12.9,6.5l-0.1,0.4c-0.5,1.6-1.4,2.9-2.5,3.8c-1.8,1.4-3.5,2.6-4.9,3.5l-0.8,0.5l0.5,0.9
		c1.4,2.5,1.2,5.6-0.4,7.9c-1.1,1.5-2.6,2.5-4.4,2.7c-0.3,0-0.5,0-0.8,0c-1.4,0-2.8-0.5-4-1.5l-3.2-2.7l0,2.2c0,1.5-0.5,2.9-1.3,4.1
		c-1.1,1.5-2.6,2.5-4.4,2.7c-0.3,0-0.5,0-0.8,0c-1.4,0-2.8-0.5-4-1.5l-2.3-1.9l0,2.2c0,1.5-0.5,2.9-1.3,4.1
		c-1.1,1.5-2.6,2.5-4.4,2.7c-0.3,0-0.5,0-0.8,0c-1.4,0-2.8-0.5-4-1.5l-1.9-1.6l0,2.2c0,1.5-0.5,2.9-1.3,4.1
		c-1.1,1.5-2.6,2.5-4.4,2.7c-0.3,0-0.5,0-0.8,0c-1.4,0-2.8-0.5-4-1.5l-1.9-1.5l-0.6,0.8c-0.6,0.7-1.3,1.3-2.1,1.6
		C129.3,355.1,128.4,355.3,127.5,355.3z"/>
	
		<rect x="189.8" y="313.8" transform="matrix(0.8925 -0.4511 0.4511 0.8925 -121.0389 122.9854)" class="st8" width="15.2" height="3.1"/>
	<path class="st8" d="M190.2,308.5c-0.8,0.2-1.4,1-1.2,1.9c0.5,2.3,1.2,8.9-2,11.4c-2.5,2-4.2,3.1-5.1,3.6l-42.6-33.2
		c-0.5-0.4-1.1-0.4-1.6-0.2c-0.1,0-10.8,4.8-15.6,6.8c-4.4,1.9-11.8,0.7-15.1-2.3c-1.1-1-1.7-2.3-1.5-3.5c0.1-1,0.8-1.8,1.8-2.3
		c1.1-0.5,2.9-1.2,4.7-1.9c4.3-1.6,7.3-2.7,8.7-4.1l0.1-0.1c1.9-2,5.5-5.7,10.1-8.6c4.7-3,15-5.5,17.2-4.5c0.8,0.4,2.8,1.4,5.3,2.7
		c9.3,4.9,18,9.3,20.8,9.9c4.1,0.8,20.6-3.6,23.9-4.5l-0.8-3c-7.3,2-19.8,4.9-22.4,4.4c-2.6-0.5-13.9-6.4-20-9.6
		c-2.7-1.4-4.6-2.4-5.4-2.8c-3.8-1.8-15.5,1.7-20.1,4.7c-0.9,0.6-1.7,1.2-2.5,1.7c-1.6-0.2-5.7-0.8-9-0.9c-2.5-0.1-6.3,2.1-10.2,4.4
		c-3,1.7-6.6,3.9-8.1,3.8c-3-0.1-13.1-3-16.8-4.1l-0.9,3c1.4,0.4,13.7,4.1,17.6,4.2c0,0,0.1,0,0.1,0c2.3,0,5.7-2,9.6-4.2
		c3.1-1.8,6.9-4,8.6-4c0,0,0,0,0,0c1.9,0,4,0.2,5.8,0.5c-2.1,1.8-3.7,3.5-4.8,4.6l-0.1,0.1c-1,1-4.8,2.4-7.5,3.4
		c-2,0.7-3.8,1.4-5.1,2c-1.9,1-3.2,2.6-3.4,4.6c-0.3,2.2,0.6,4.4,2.5,6.2c4.2,3.9,13,5.3,18.5,2.9c4-1.7,12.1-5.3,14.7-6.5l42,32.8
		c2,1.7,2.3,4.8,0.8,7c-0.7,1-1.8,1.7-2.9,1.8c-1.1,0.1-2.2-0.2-3.1-1l-6.2-5.3c0,0-0.1-0.1-0.1-0.1c0,0-0.1,0-0.1-0.1l-24.8-21
		l-2,2.4l24.9,21.1c1.9,1.7,2.3,4.8,0.7,6.9c-0.7,1-1.8,1.7-2.9,1.8c-1.1,0.1-2.2-0.2-3.1-1l-5.4-4.6c0,0,0,0,0,0l-17.5-14.8
		c-0.7-0.6-1.6-0.5-2.2,0.2c-0.6,0.7-0.5,1.6,0.2,2.2l17.5,14.8c0,0,0,0,0,0l0,0c2,1.7,2.3,4.8,0.8,7c-0.7,1-1.8,1.7-2.9,1.8
		c-1.1,0.1-2.2-0.2-3.1-1l-4.5-3.8c-0.2-0.2-0.4-0.4-0.6-0.5c-0.1-0.1-0.2-0.1-0.3-0.2l-5.3-4.4c-0.5-2.7-2.3-5.1-4.9-6
		c-1.8-0.7-3.8-0.6-5.6,0.3c-0.4,0.2-0.7,0.4-1,0.6c-0.7-2.3-2.4-4.2-4.6-5.1c-1.8-0.7-3.8-0.6-5.6,0.3c-0.5,0.3-1,0.6-1.5,1
		c-0.8-2-2.3-3.7-4.4-4.5c-1.6-0.6-3.3-0.6-4.8,0c0.6-3.8-1.4-7.6-4.9-8.9c-1.8-0.7-3.8-0.6-5.6,0.3c-1.9,0.9-3.3,2.6-4,4.7
		l-1.4,4.5c-8.8-6-19-12.3-19.1-12.3l-1.6,2.7c0.1,0.1,10.9,6.7,19.8,12.8l-0.1,0.4c-1.3,4.1,0.8,8.7,4.6,10.1
		c0.8,0.3,1.6,0.5,2.5,0.5c0.8,0,1.5-0.1,2.3-0.4c-0.8,3.9,1.2,8,4.8,9.4c0.8,0.3,1.6,0.5,2.5,0.5c1,0,1.9-0.2,2.8-0.6
		c0.2,3.1,2.1,6,5,7.1c0.8,0.3,1.6,0.5,2.5,0.5c1.1,0,2.1-0.2,3.1-0.7c0.9-0.5,1.8-1.1,2.5-2c0.9,1.7,2.3,3,4.1,3.7
		c0.8,0.3,1.6,0.5,2.5,0.5c1.1,0,2.1-0.2,3.1-0.7c0.9-0.5,1.7-1.1,2.4-1.9l1.1,0.9c1.3,1.1,3,1.7,4.6,1.7c0.3,0,0.6,0,0.9-0.1
		c2-0.3,3.8-1.4,5.1-3.1c1-1.4,1.5-3,1.5-4.7l0.3,0.2c1.3,1.1,3,1.7,4.6,1.7c0.3,0,0.6,0,0.9-0.1c2-0.3,3.8-1.4,5.1-3.1
		c1-1.4,1.5-3.1,1.5-4.7l0.6,0.5c1.3,1.1,3,1.7,4.6,1.7c0.3,0,0.6,0,0.9-0.1c2-0.3,3.8-1.4,5.1-3.1c1-1.4,1.5-3.1,1.5-4.7l1.5,1.3
		c1.3,1.1,3,1.7,4.6,1.7c0.3,0,0.6,0,0.9-0.1c2-0.3,3.8-1.4,5.1-3.1c1.9-2.7,2-6.2,0.5-9c1.1-0.7,2.8-1.8,5-3.6
		c5.3-4.2,3.2-14.1,3.1-14.5C191.9,308.8,191.1,308.3,190.2,308.5z M94.2,335.1c-2.3-0.9-3.6-3.7-2.8-6.3l2.5-8
		c0.4-1.3,1.3-2.3,2.4-2.9c0.6-0.3,1.1-0.4,1.7-0.4c0.5,0,0.9,0.1,1.4,0.3c2.3,0.9,3.6,3.7,2.8,6.3l-2.5,8c-0.4,1.3-1.3,2.3-2.4,2.9
		C96.3,335.4,95.2,335.5,94.2,335.1z M103.8,344.5c-2.3-0.9-3.6-3.7-2.8-6.3l2.7-8.4c0.4-1.3,1.3-2.3,2.4-2.9c1-0.5,2.1-0.5,3.1-0.2
		c2.1,0.8,3.3,3.1,2.9,5.4l-3.2,10.1c-0.5,0.9-1.2,1.6-2.1,2.1C105.9,344.9,104.8,344.9,103.8,344.5z M117.2,351.3
		c-1,0.5-2.1,0.5-3.1,0.2c-2.3-0.9-3.6-3.7-2.8-6.3l0.6-1.8c0.2-0.3,0.3-0.7,0.4-1l2.7-8.4c0.1-0.3,0.2-0.7,0.2-1
		c0.4-1.3,1.3-2.3,2.4-2.8c1-0.5,2.1-0.5,3.1-0.2c2.3,0.9,3.6,3.7,2.8,6.3l-3,9.4c0,0,0,0,0,0l-0.9,2.8
		C119.1,349.8,118.3,350.8,117.2,351.3z M129.3,352.8c-1,0.5-2.1,0.5-3.1,0.2c-2.3-0.9-3.6-3.7-2.8-6.3l3-9.4
		c0.4-1.3,1.3-2.3,2.4-2.9c1-0.5,2.1-0.5,3.1-0.2c2.3,0.9,3.6,3.7,2.8,6.3l-3,9.4C131.2,351.2,130.4,352.2,129.3,352.8z
		 M142.2,351.3c-0.7,1-1.8,1.7-2.9,1.8c-1.1,0.1-2.2-0.2-3.2-1l-1.5-1.2c0,0,0-0.1,0-0.1l3-9.4c0-0.1,0-0.1,0.1-0.2l4.1,3.4
		C143.4,346.4,143.7,349.3,142.2,351.3z"/>
	<path class="st9" d="M243.2,313.6c-0.1,0-0.2,0-0.3,0c-6.9,1.2-17.8,3.1-19.7,3c-1.2,0-3.2-2.5-4.2-4.3c-0.3-0.6-1-0.9-1.6-0.8
		l-11.4,1.8l-7.8-39.7l12.3-2.3l4.3,27.3c0,0.3,0.3,0.4,0.5,0.4c0,0,0.1,0,0.1,0c0.3,0,0.5-0.3,0.4-0.6l-4.3-27.4
		c0.5-0.3,0.8-0.8,0.8-1.4c0-0.9,0.3-3,1.1-3.9c1.9-1,16.5-3.1,29.6-4.7v-3.1c-0.1,0-0.1,0-0.2,0c-13.5,1.6-29.9,3.8-31.6,5.5
		c-1.4,1.4-1.8,3.5-2,4.9l-13.3,2.4c-0.4,0.1-0.8,0.3-1,0.7c-0.2,0.3-0.3,0.8-0.2,1.2l8.4,42.7c0.2,0.8,1,1.4,1.8,1.2l11.8-1.9
		c1.1,1.7,3.4,4.8,6.2,4.9c0.1,0,0.1,0,0.2,0c3.1,0,17.2-2.5,19.9-3V313.6z"/>
	<path class="st9" d="M82.8,274.2l-11-5.7l1.8-4c0.3-0.8,0.4-1.7,0-2.5c-0.3-0.8-1-1.4-1.8-1.7L33.2,245c-0.2-0.1-0.4-0.1-0.6-0.1
		v3.2l38,15c0,0,0.1,0.1,0.1,0.1l-22.3,51.1l-0.1,0l-15-6.6c-0.2-0.1-0.4-0.1-0.6-0.1v3.2l14.4,6.3c0.4,0.2,0.8,0.3,1.3,0.3
		c0.4,0,0.8-0.1,1.2-0.2c0.8-0.3,1.4-0.9,1.8-1.7l1.3-2.9l13.6,5.4c0.3,0.1,0.5,0.2,0.8,0.2c0.3,0,0.6-0.1,0.9-0.2
		c0.5-0.2,0.9-0.7,1.1-1.2l14.9-39.9v0C84.2,275.9,83.8,274.7,82.8,274.2z M57.7,300.7h4.7v5.8h-7.2L57.7,300.7z M82.8,276.5
		l-14.9,39.9c-0.1,0.3-0.3,0.5-0.6,0.6c-0.3,0.1-0.6,0.1-0.9,0l-13.5-5.4l1.8-4.2h8.2c0.3,0,0.5-0.2,0.5-0.5v-6.8
		c0-0.3-0.2-0.5-0.5-0.5h-4.8l13.2-30.2l11,5.7C82.8,275.4,83,276,82.8,276.5z"/>
</g>
</svg>
