<?xml version="1.0" encoding="utf-8"?>
<!-- Generator: Adobe Illustrator 21.1.0, SVG Export Plug-In . SVG Version: 6.00 Build 0)  -->
<svg version="1.1" id="Calque_1" xmlns="http://www.w3.org/2000/svg" xmlns:xlink="http://www.w3.org/1999/xlink" x="0px" y="0px"
	 viewBox="0 0 600 600" style="enable-background:new 0 0 600 600;" xml:space="preserve">
<style type="text/css">
	.st0{fill:#FFFFFF;}
</style>
<path class="st0" d="M598.195,176.31c-0.498-24.887-5.213-49.51-13.944-72.821c-7.533-20.018-19.342-38.152-34.603-53.137
	c-14.985-15.261-33.119-27.07-53.137-34.603C473.2,7.018,448.577,2.303,423.69,1.805C391.691,0.346,381.476,0,300,0
	s-91.691,0.346-123.69,1.805c-24.887,0.498-49.51,5.213-72.821,13.944c-20.018,7.533-38.152,19.342-53.137,34.603
	c-15.261,14.985-27.07,33.119-34.603,53.137C7.018,126.8,2.303,151.423,1.805,176.31C0.346,208.309,0,218.524,0,300
	s0.346,91.691,1.805,123.69c0.498,24.887,5.213,49.51,13.944,72.821c7.533,20.018,19.342,38.152,34.603,53.137
	c14.985,15.262,33.119,27.071,53.137,34.603c23.311,8.731,47.934,13.446,72.821,13.944C208.309,599.656,218.524,600,300,600
	s91.691-0.344,123.69-1.805c24.887-0.498,49.51-5.213,72.821-13.944c40.298-15.585,72.155-47.442,87.74-87.74
	c8.731-23.311,13.446-47.934,13.944-72.821C599.654,391.691,600,381.476,600,300S599.654,208.309,598.195,176.31z M544.198,421.226
	c-0.225,19.023-3.72,37.866-10.331,55.705c-10.091,26.164-30.771,46.844-56.936,56.936c-17.839,6.611-36.682,10.106-55.705,10.331
	c-31.63,1.442-41.117,1.747-121.226,1.747s-89.596-0.305-121.226-1.748c-19.023-0.225-37.866-3.72-55.705-10.331
	c-13.031-4.808-24.818-12.476-34.495-22.441c-9.964-9.677-17.633-21.464-22.441-34.495c-6.611-17.839-10.106-36.682-10.331-55.705
	C54.36,389.591,54.055,380.105,54.055,300s0.305-89.591,1.748-121.226c0.225-19.023,3.72-37.866,10.331-55.705
	c4.808-13.031,12.476-24.818,22.441-34.495c9.677-9.964,21.464-17.633,34.495-22.441c17.839-6.611,36.682-10.106,55.705-10.331
	c31.635-1.442,41.121-1.747,121.226-1.747s89.591,0.305,121.226,1.748c19.023,0.225,37.866,3.72,55.705,10.331
	c13.031,4.808,24.818,12.476,34.495,22.441c9.964,9.677,17.633,21.464,22.441,34.495c6.611,17.839,10.106,36.682,10.331,55.705
	c1.442,31.633,1.748,41.123,1.748,121.226S545.64,389.591,544.198,421.226z M300,145.945c-85.082,0-154.055,68.973-154.055,154.055
	S214.918,454.055,300,454.055S454.055,385.082,454.055,300C454.054,214.918,385.082,145.946,300,145.945z M300,400
	c-55.228,0-100-44.772-100-100s44.772-100,100-100s100,44.772,100,100S355.228,400,300,400z M496.141,139.86
	c0,19.882-16.118,36-36,36c-19.882,0-36-16.118-36-36s16.118-36,36-36l0,0C480.023,103.86,496.141,119.978,496.141,139.86z"/>
</svg>
