<svg id="Calque_1" data-name="Calque 1" xmlns="http://www.w3.org/2000/svg" viewBox="0 0 128 87"><defs><style>.cls-1{fill:none;}.cls-2{fill:#6a205f;}</style></defs><title>logo-techtrends</title><g id="Calque_2" data-name="Calque 2"><rect class="cls-1" width="128" height="87"/></g><path class="cls-2" d="M81.24,23.54l-1.49,0V21.91H79.2c-10.53,0-14.06,2.52-15.2,3.88-1.14-1.36-4.67-3.88-15.2-3.88h-.54v1.65l-1.49,0H45.54V47.43h1.23c13,0,15.65,3,16,3.53h2.44c.41-.58,3.12-3.53,16-3.53h1.23V23.54Zm-18,22.82c-1.81-1.34-5.62-2.89-13.58-3V23.27c11.14.14,13.29,3.2,13.58,3.69Zm15.2-3c-8,.1-11.76,1.65-13.58,3V27c.31-.54,2.52-3.56,13.58-3.7Z"/><path d="M34.58,64.93a1.46,1.46,0,0,1,0-.7,5.69,5.69,0,0,1,.24-.8q.15-.4.33-.78l.29-.62.2-.42L36,61l.35-.75.36-.74.31-.63.21-.42a1.84,1.84,0,0,0-.62,0l-.9.19-1,.23c-.35.08-.67.14-1,.18a3,3,0,0,1-.76,0,.44.44,0,0,1-.4-.25q.08-.17.65-.37t1.45-.43q.88-.22,2-.45l2.22-.44,2.21-.38L43,56.5q.85-.11,1.37-.15t.55,0a.46.46,0,0,1,0,.24.2.2,0,0,1-.16.17L43.38,57l-1.48.24-1.48.26-1.34.25a1.55,1.55,0,0,0-.77.44,5.19,5.19,0,0,0-.73.91,10.81,10.81,0,0,0-.67,1.21q-.32.67-.6,1.35T35.79,63q-.25.64-.45,1.12a7.42,7.42,0,0,1-.36.75q-.15.27-.26.22L34.64,65Z"/><path d="M40.34,64.93a1.2,1.2,0,0,1-.59-.37A1.26,1.26,0,0,1,39.5,64a1.92,1.92,0,0,1,0-.64,4.11,4.11,0,0,1,.14-.64l.87-.89q.48-.5,1-1a12.4,12.4,0,0,1,1.13-.91,5.21,5.21,0,0,1,1.18-.64.33.33,0,0,1,.33,0,.51.51,0,0,1,.17.28,1.62,1.62,0,0,1,0,.45,3.39,3.39,0,0,1,0,.5,3.47,3.47,0,0,1-.1.44.64.64,0,0,1-.13.27,1.69,1.69,0,0,1-.4.29l-.66.36-.8.4-.81.42a7.47,7.47,0,0,0-.7.44,2.14,2.14,0,0,0-.47.44.53.53,0,0,0-.12.42q0,.2.35.38a4.13,4.13,0,0,0,1.06,0q.63-.09,1.28-.25l1.25-.32,1-.25.15.14a1.91,1.91,0,0,1-.54.44,5.78,5.78,0,0,1-.81.39,7.13,7.13,0,0,1-1,.3q-.51.12-1,.19A5.74,5.74,0,0,1,41,65,2.42,2.42,0,0,1,40.34,64.93Zm3.08-4.66s-.07,0-.19.1l-.45.31-.57.42-.56.42-.42.33q-.16.14-.14.15a1.17,1.17,0,0,0,.53-.06,4.56,4.56,0,0,0,.68-.26,5.36,5.36,0,0,0,.67-.38,2.83,2.83,0,0,0,.51-.42.58.58,0,0,0,.19-.37C43.7,60.39,43.6,60.32,43.42,60.27Z"/><path d="M45.92,64.93a1.33,1.33,0,0,1-.87-.64,1.59,1.59,0,0,1-.11-1,3.82,3.82,0,0,1,.44-1.17,7.5,7.5,0,0,1,.82-1.18,8.81,8.81,0,0,1,1-1,5,5,0,0,1,1-.68,1.4,1.4,0,0,1,.8-.18c.22,0,.36.2.42.49a.88.88,0,0,1-.05.43,2,2,0,0,1-.23.45,2.28,2.28,0,0,1-.33.39,1.59,1.59,0,0,1-.35.26.46.46,0,0,1-.31.06.24.24,0,0,1-.18-.21,4.9,4.9,0,0,1,.34-.49l.38-.46c0-.09-.15-.11-.29-.06a2,2,0,0,0-.52.29,6.21,6.21,0,0,0-.65.55,8.3,8.3,0,0,0-.66.72,6.71,6.71,0,0,0-.57.82,3.57,3.57,0,0,0-.37.82,1.62,1.62,0,0,0-.06.72.82.82,0,0,0,.37.55,3.64,3.64,0,0,0,1-.08A11.35,11.35,0,0,0,48,64q.58-.18,1.15-.4l1-.4.8-.28a.74.74,0,0,1,.43-.05c.12.06.16.14.11.24a1.05,1.05,0,0,1-.35.35,5.07,5.07,0,0,1-.7.4q-.43.21-.93.4t-1,.35q-.54.16-1,.26a6.37,6.37,0,0,1-.92.13A2,2,0,0,1,45.92,64.93Z"/><path d="M51.7,64.78a.14.14,0,0,1,0-.06.15.15,0,0,1,0-.06l.16-.34.26-.5.27-.5.18-.32.13-.21.27-.42.34-.55.37-.6.35-.56.27-.42.6-1,.7-1.11.71-1.08a9.18,9.18,0,0,1,.65-.87,2,2,0,0,1,.5-.45q.21-.11.28.15a1.22,1.22,0,0,1,0,.2,1.21,1.21,0,0,1,0,.2l-.24.34-.32.45-.31.45-.23.34-.37.55-.58.86-.66,1-.61,1q-.27.45-.43.77t-.12.41a2.67,2.67,0,0,0,.66-.31q.36-.22.71-.47l.72-.5a4.46,4.46,0,0,1,.67-.38,1.12,1.12,0,0,1,.54.22.94.94,0,0,1,.33.46c0,.08,0,.22,0,.42s0,.41,0,.63,0,.42,0,.62,0,.33,0,.41a.86.86,0,0,0,.13.33q.12.21.25.4l.24.35c.07.1.1.16.1.16a.7.7,0,0,1-.48,0,1.11,1.11,0,0,1-.4-.25,1.43,1.43,0,0,1-.29-.4,1.27,1.27,0,0,1-.13-.44c0-.08,0-.22,0-.42s0-.41,0-.62,0-.42,0-.62,0-.33,0-.41l-.3-.15s-.14,0-.26.07a4.13,4.13,0,0,0-.44.27l-.51.39-.5.41-.4.34-.21.19-.38.35-.57.54-.57.55-.36.36a1.2,1.2,0,0,1-.34,0A.28.28,0,0,1,51.7,64.78Z"/><path d="M60.68,64.93a1.43,1.43,0,0,1,0-.7,5.69,5.69,0,0,1,.24-.8q.16-.4.33-.78l.29-.62.2-.42.31-.64.35-.75.36-.74.31-.63.21-.42a1.83,1.83,0,0,0-.62,0l-.9.19-1,.23c-.35.08-.66.14-1,.18a3,3,0,0,1-.76,0,.44.44,0,0,1-.4-.25q.08-.17.65-.37t1.45-.43q.88-.22,2-.45l2.22-.44,2.21-.38,1.92-.28q.85-.11,1.37-.15t.54,0a.46.46,0,0,1,0,.24.2.2,0,0,1-.16.17L69.48,57,68,57.24l-1.48.26-1.34.25a1.56,1.56,0,0,0-.77.44,5.28,5.28,0,0,0-.73.91A11.05,11.05,0,0,0,63,60.31c-.21.45-.41.9-.6,1.35s-.37.89-.53,1.31-.32.8-.45,1.12a7.13,7.13,0,0,1-.36.75q-.16.27-.26.22L60.74,65Z"/><path d="M65.72,64.93a.79.79,0,0,1,0-.29c0-.19.05-.42.1-.69s.1-.58.16-.91.14-.65.22-1a8.42,8.42,0,0,1,.25-.81,1.36,1.36,0,0,1,.27-.48.12.12,0,0,1,.18,0,1.68,1.68,0,0,1,.17.2,1.57,1.57,0,0,0,.18.21.14.14,0,0,0,.2,0,8.91,8.91,0,0,1,.79-.91,4.86,4.86,0,0,1,1-.75,1.37,1.37,0,0,1,.28-.12l.53-.16.61-.14a2.45,2.45,0,0,1,.54,0,.4.4,0,0,1,.3.11c.05.07,0,.18-.08.35a2.71,2.71,0,0,0-1.09.25,4.37,4.37,0,0,0-1,.63,6.7,6.7,0,0,0-.87.89,12.55,12.55,0,0,0-.75,1q-.34.51-.62,1l-.49.88c-.14.26-.26.46-.36.62s-.17.23-.22.23L65.88,65Z"/><path d="M72.45,64.93a1.19,1.19,0,0,1-.59-.37A1.27,1.27,0,0,1,71.6,64a1.92,1.92,0,0,1,0-.64,4.16,4.16,0,0,1,.14-.64l.87-.89q.48-.5,1-1a12.35,12.35,0,0,1,1.13-.91,5.21,5.21,0,0,1,1.18-.64.33.33,0,0,1,.33,0,.51.51,0,0,1,.17.28,1.6,1.6,0,0,1,0,.45,3.27,3.27,0,0,1,0,.5,3.47,3.47,0,0,1-.1.44.65.65,0,0,1-.13.27,1.71,1.71,0,0,1-.4.29l-.66.36-.8.4-.81.42a7.47,7.47,0,0,0-.7.44,2.17,2.17,0,0,0-.47.44.53.53,0,0,0-.12.42q0,.2.35.38a4.13,4.13,0,0,0,1.06,0q.63-.09,1.28-.25l1.25-.32,1-.25.15.14a1.9,1.9,0,0,1-.54.44,5.76,5.76,0,0,1-.81.39,7.16,7.16,0,0,1-1,.3q-.51.12-1,.19a5.74,5.74,0,0,1-.9.06A2.42,2.42,0,0,1,72.45,64.93Zm3.08-4.66s-.07,0-.19.1l-.45.31-.57.42-.55.42-.42.33c-.11.09-.15.14-.14.15a1.17,1.17,0,0,0,.53-.06,4.57,4.57,0,0,0,.68-.26,5.38,5.38,0,0,0,.67-.38,2.8,2.8,0,0,0,.51-.42.58.58,0,0,0,.19-.37C75.8,60.39,75.71,60.32,75.52,60.27Z"/><path d="M81.72,64.93a2.1,2.1,0,0,1,.07-.8,5,5,0,0,1,.3-.78q.19-.39.4-.77t.37-.76a3.21,3.21,0,0,0,.22-.73,1.47,1.47,0,0,0-.05-.71,1.1,1.1,0,0,0-.75.05,4.24,4.24,0,0,0-.88.48,10.9,10.9,0,0,0-1,.76q-.49.44-1,.88l-.89.84a10.14,10.14,0,0,1-.77.66,1.92,1.92,0,0,1-.58.33.22.22,0,0,1-.3-.16l.09-.19.24-.46.34-.65.41-.74.42-.75.38-.66q.17-.29.29-.48a.81.81,0,0,1,.17-.21.49.49,0,0,1,.27.37,1.09,1.09,0,0,1-.07.42q-.08.22-.17.44a.63.63,0,0,0,0,.43l.58-.38c.24-.16.51-.32.8-.49l.9-.49a7,7,0,0,1,.88-.39,2.5,2.5,0,0,1,.74-.16.55.55,0,0,1,.48.19.86.86,0,0,1,.1.64,4.57,4.57,0,0,1-.41,1.22l-.1.23-.19.4-.22.48-.23.48-.18.4-.1.23a.7.7,0,0,0,0,.18c0,.09,0,.18,0,.28a2,2,0,0,1-.08.29.53.53,0,0,1-.12.21.08.08,0,0,1-.09,0l-.09,0L81.76,65Z"/><path d="M89.4,64.78a1.87,1.87,0,0,1-.41-.36A2.25,2.25,0,0,1,88.7,64a2.76,2.76,0,0,1-.2-.48,5.07,5.07,0,0,1-.13-.52h-.14a12.18,12.18,0,0,1-1.81,1.21,4.61,4.61,0,0,1-1.3.49,1.24,1.24,0,0,1-.82-.08.77.77,0,0,1-.38-.49,1.51,1.51,0,0,1,0-.77,3,3,0,0,1,.4-.88,4.27,4.27,0,0,1,.74-.84,4,4,0,0,1,1-.66,4.16,4.16,0,0,1,1.3-.33,4.28,4.28,0,0,1,1.53.16l.14-.14,1.74-3.31c.23,0,.36.13.41.29a1,1,0,0,1,0,.53,3,3,0,0,1-.21.57l-.2.41-.14.28-.26.49-.32.6-.32.61-.26.5-.14.28a1.63,1.63,0,0,0-.15.46,3.36,3.36,0,0,0,0,.49c0,.17,0,.33,0,.5l0,.48a.68.68,0,0,0,.2.36,2.26,2.26,0,0,0,.32.25l.35.22a1.07,1.07,0,0,1,.29.27.21.21,0,0,1-.21.16.89.89,0,0,1-.32-.05,1.77,1.77,0,0,1-.31-.14Zm-4.79-.55c0,.1.11.15.25.14a1.55,1.55,0,0,0,.51-.15,5.33,5.33,0,0,0,.68-.38q.38-.24.75-.52t.72-.58a6.44,6.44,0,0,0,.6-.58,3.45,3.45,0,0,0,.38-.49c.09-.14.1-.25.06-.33a1.93,1.93,0,0,0-.89-.21,3.05,3.05,0,0,0-1,.16,3.74,3.74,0,0,0-.93.46,3.3,3.3,0,0,0-.75.69,2.39,2.39,0,0,0-.43.84A1.6,1.6,0,0,0,84.6,64.24Z"/><path d="M91,64.93c-.1-.06-.1-.15,0-.26a2.21,2.21,0,0,1,.48-.36q.33-.19.76-.4l.84-.39.72-.32a2.07,2.07,0,0,0,.4-.21,1.31,1.31,0,0,0,.42-.47.32.32,0,0,0,0-.34A.78.78,0,0,0,94.2,62a4.73,4.73,0,0,0-.59-.15l-.7-.11-.69-.11a4.11,4.11,0,0,1-.56-.14.58.58,0,0,1-.32-.21.26.26,0,0,1,0-.3,1.77,1.77,0,0,1,.5-.43l.54-.36.76-.47q.41-.24.8-.44a3.05,3.05,0,0,1,.66-.25.51.51,0,0,1,.28,0,.69.69,0,0,1,.24.14.23.23,0,0,1,.08.2c0,.07-.06.14-.17.2l-1.4.73a15.41,15.41,0,0,0-1.36.79.14.14,0,0,0,0,.17.46.46,0,0,0,.13.11,10.89,10.89,0,0,1,1.75.29,3,3,0,0,1,1,.4.61.61,0,0,1,.3.47.81.81,0,0,1-.21.51,2.68,2.68,0,0,1-.59.51,7.7,7.7,0,0,1-.82.48q-.45.23-.92.42t-.87.31a6.41,6.41,0,0,1-.68.18A.58.58,0,0,1,91,64.93Z"/></svg>