<svg xmlns="http://www.w3.org/2000/svg" viewBox="0 0 200 80"><defs><style>.cls-1{fill:#f49724;}.cls-2{fill:#065495;}.cls-3{fill:#085496;}.cls-4{fill:none;}</style></defs><title>kinesis-logo</title><g id="Calque_2" data-name="Calque 2"><path class="cls-1" d="M9.71,52c0-6.46,3.85-11.37,9.29-12.7a12.25,12.25,0,0,1,13.78,6.31A12.08,12.08,0,0,1,29.86,60.3a9.86,9.86,0,0,1-1.67,1.1,6.79,6.79,0,0,0-3.89,6.55c.3,5.54-4.32,11.48-11,12A12.19,12.19,0,0,1,.18,69.62,11.84,11.84,0,0,1,5.65,57.55C7.4,56.49,9,56.66,9.78,58s.38,2.69-1.35,3.8A6.62,6.62,0,0,0,5.22,69a6.84,6.84,0,0,0,5.23,5.69,7,7,0,0,0,8.91-6.84,12.14,12.14,0,0,1,3.83-9,17.6,17.6,0,0,1,2.63-1.84A7.11,7.11,0,0,0,21.43,44,7,7,0,0,0,15,49.49a6.89,6.89,0,0,0,2.61,7.27,2.92,2.92,0,0,1,1.28,1.65,2.41,2.41,0,0,1-1,2.72,2.5,2.5,0,0,1-3-.08A11.76,11.76,0,0,1,9.71,52Z"/><path class="cls-2" d="M110.93,63.46c0-1.82,0-3.28,0-4.73,0-3.44,0-6.89,0-10.33,0-.87.21-1.23,1.11-1.13,1.23.14,2.88-.54,3.59.28s.21,2.3.21,3.51c0,6,0,12.08,0,18.11,0,1-.3,1.15-1.26,1.29-3.36.51-5.45-.66-7.08-3.76-2-3.9-4.69-7.49-7.08-11.21-.24-.37-.49-.72-.76-1.12-.39.4-.21.82-.21,1.18,0,4.47,0,8.95,0,13.42,0,1-.28,1.36-1.28,1.26s-2.62.46-3.38-.23-.25-2.19-.25-3.33c0-6,0-12,0-18,0-1.06.18-1.53,1.36-1.44,1.51.12,3.23-.36,4.49.23s1.76,2.38,2.59,3.65c2.36,3.63,4.69,7.29,7,10.93C110.23,62.43,110.47,62.78,110.93,63.46Z"/><path class="cls-2" d="M75.2,47.29c-2.92,3.61-5.59,7-8.34,10.24a1.22,1.22,0,0,0,0,1.9c2.51,3.08,5,6.21,7.43,9.33l1.13,1.46H69.56c-.6,0-.79-.53-1.07-.91-2.18-2.89-4.34-5.79-6.52-8.67-.25-.33-.41-.94-1-.73s-.22.71-.23,1.07c0,2.68,0,5.36,0,8,0,.89-.16,1.31-1.16,1.23a27.16,27.16,0,0,0-3.22,0c-.68,0-.95-.19-.94-.91q0-10.59,0-21.18c0-.74.31-.9,1-.87,1.38.06,3.16-.44,4,.24s.25,2.59.29,3.95c.05,1.79,0,3.57,0,5.36,0,.28-.17.67.21.83s.62-.22.82-.5c2.26-3,4.53-6,6.77-9a1.89,1.89,0,0,1,1.77-.9C71.84,47.34,73.34,47.29,75.2,47.29Z"/><path class="cls-3" d="M123.53,58.73c0-3.44,0-6.88,0-10.32,0-.86.2-1.15,1.11-1.14q7.24.06,14.48,0c.81,0,1.06.19,1.07,1,0,3.14.06,3.14-3.11,3.14-2.41,0-4.83,0-7.24,0-.92,0-1.17.29-1.12,1.15a23.76,23.76,0,0,1,0,3.08c-.06.86.28,1,1.08,1,2.37,0,4.74,0,7.11,0,.81,0,1.06.21,1.07,1,0,3,.07,3-3,3-1.79,0-3.58,0-5.36,0-.7,0-1,.22-.93.93,0,1.16.06,2.33,0,3.48,0,.82.32,1,1,.95,3.08,0,6.17,0,9.25,0,.94,0,1.2.24,1.19,1.19,0,3,0,3-3,3-4.16,0-8.31,0-12.47,0-.93,0-1.21-.25-1.2-1.19C123.56,65.61,123.53,62.17,123.53,58.73Z"/><path class="cls-2" d="M190.83,46.75a21.73,21.73,0,0,1,7.45,1.36c.86.34,1.37.69.94,1.73a8.82,8.82,0,0,0-.53,2.21c-.11.83-.46.76-1.07.49A16.82,16.82,0,0,0,191,51a5,5,0,0,0-2,.33,2,2,0,0,0-1.4,1.65,2,2,0,0,0,.93,2.07,10.85,10.85,0,0,0,3.2,1.31,27,27,0,0,1,4.54,1.57c2.24,1.14,3.67,2.82,3.68,5.45a6.41,6.41,0,0,1-3.58,6.13c-2.91,1.54-6,1.47-9.16,1a18.93,18.93,0,0,1-4.37-1.24c-.67-.28-1-.56-.73-1.38.35-1,.21-2.46.87-3s1.79.58,2.76.85a17.31,17.31,0,0,0,5.41.82,4.84,4.84,0,0,0,2.43-.66,2.18,2.18,0,0,0,.08-3.78A10.52,10.52,0,0,0,190.86,61c-1.32-.42-2.67-.75-3.94-1.27-3.47-1.4-5-3.67-4.59-6.85s2.51-5.19,6-5.82C189.24,46.85,190.23,46.81,190.83,46.75Z"/><path class="cls-2" d="M154.33,70.8a23.29,23.29,0,0,1-7.2-1.37c-1-.36-1.48-.81-1.06-1.92a9.38,9.38,0,0,0,.5-2.08c.1-.81.42-.8,1.06-.51a16.93,16.93,0,0,0,7.12,1.63,5.81,5.81,0,0,0,2.34-.47,2.28,2.28,0,0,0,1.51-2A2.18,2.18,0,0,0,157.34,62a15.81,15.81,0,0,0-3.64-1.3A19.68,19.68,0,0,1,149.33,59a5.79,5.79,0,0,1-3.19-5.62,6,6,0,0,1,3.68-5.62c3.26-1.47,6.64-1.21,10-.41,3.67.88,3.67,1,2.72,4.67-.21.79-.44.77-1,.5A16.46,16.46,0,0,0,155.15,51c-2.17-.06-3.43.63-3.69,1.94s.58,2.17,2.72,2.95A57.82,57.82,0,0,1,160.37,58c5.07,2.52,4.08,9.06.39,11.22A12.77,12.77,0,0,1,154.33,70.8Z"/><path class="cls-1" d="M32,80a11.77,11.77,0,0,1-6.47-1.88,2.52,2.52,0,0,1-1.17-3.22,2.37,2.37,0,0,1,3-1.32,13.22,13.22,0,0,1,2,.72,6.87,6.87,0,0,0,8.79-2.93A7.14,7.14,0,0,0,36.34,62a7.7,7.7,0,0,1-1.66-1.35,2.29,2.29,0,0,1-.28-3,2.44,2.44,0,0,1,3.1-.8A11.24,11.24,0,0,1,44,65.14,12.24,12.24,0,0,1,32,80Z"/><path class="cls-3" d="M170.22,58.79c0-3.48,0-7,0-10.45,0-.78.15-1.14,1-1.07,1.37.1,3.16-.43,4,.26s.28,2.59.28,4c0,5.85,0,11.7,0,17.55,0,.91-.21,1.3-1.18,1.21-1.33-.12-3,.54-3.89-.24s-.23-2.53-.26-3.85C170.19,63.7,170.22,61.25,170.22,58.79Z"/><path class="cls-3" d="M81.36,58.79c0-3.49,0-7,0-10.46,0-.8.18-1.13,1-1.06a21,21,0,0,0,3.08,0c.94-.07,1.22.25,1.21,1.19,0,3.75,0,7.51,0,11.26,0,3.13,0,6.26,0,9.38,0,.88-.25,1.21-1.13,1.13-1.33-.11-3.05.54-3.89-.23s-.24-2.52-.27-3.84C81.33,63.71,81.36,61.25,81.36,58.79Z"/></g><g id="Calque_1" data-name="Calque 1"><rect class="cls-4" width="200" height="80"/></g></svg>