<?xml version="1.0" encoding="utf-8"?>
<!-- Generator: Adobe Illustrator 20.0.0, SVG Export Plug-In . SVG Version: 6.00 Build 0)  -->
<svg version="1.1" id="Calque_1" xmlns="http://www.w3.org/2000/svg" xmlns:xlink="http://www.w3.org/1999/xlink" x="0px" y="0px"
	 viewBox="0 0 200 80" style="enable-background:new 0 0 200 80;" xml:space="preserve">
<style type="text/css">
	.st0{fill:#FEBB1A;}
	.st1{fill:#FEBB1B;}
</style>
<title>scala-logo</title>
<g>
	<path class="st0" d="M104.2,63.6c3.8-6.2,7.5-12.5,11.5-19.1c-4.9,0.7-9.3,1.4-13.8,2c-0.1-0.1-0.1-0.2-0.2-0.4
		c9.8-8.3,19.5-16.6,29.3-25c0.2,0.1,0.3,0.2,0.5,0.3c-3.9,6.2-7.8,12.3-11.9,18.9c4.3-0.5,8.1-0.9,11.9-1.3
		c0.1,0.1,0.1,0.2,0.2,0.3c-0.8,0.8-1.6,1.5-2.5,2.3c-7.8,7.1-15.6,14.1-23.3,21.2c-0.4,0.4-0.9,0.8-1.4,1.1
		C104.4,63.8,104.3,63.7,104.2,63.6z"/>
	<path class="st1" d="M44.8,57.3c-2.9,0-2.9,0-2.6-2.4c0.3-2.9,0.7-5.8,0.9-8.7c0-0.7,0.8-1.7-0.6-2c-1.3-0.3-1.8,0.5-2.2,1.6
		c-1.3,3.4-2.6,6.8-3.9,10.3c-0.4,1.1-4.5,2-5.3,1.2c-0.4-0.4,0-0.8,0.1-1.1c3.4-8.9,6.7-17.7,10.1-26.6c0.3-0.7,0.6-1.1,1.4-1.1
		c2.6,0.1,5.2-0.1,7.7,0.1c4.2,0.3,5.6,2.5,4.4,6.5c-1,3.2-2.5,6-5.6,7.6c-0.8,0.4-1,1-1,1.8c-0.3,3.5-0.8,7-0.9,10.5
		C47.2,57.1,46.4,57.7,44.8,57.3z M46.9,32c-1-0.3-1.5,0.3-1.9,1.4c-0.7,2-1.5,3.9-2.2,5.8c-0.4,1-0.2,1.4,1,1.4c3,0,5-1.7,6-5.2
		C50.5,33,49.8,32.1,46.9,32z"/>
	<path class="st0" d="M94.2,57.3c-2.5,0-2.6,0-2.3-2.5c0.3-3,0.7-5.9,1-8.9c0.1-0.6,0.6-1.6-0.6-1.8c-1-0.2-1.6,0.1-2,1.2
		c-1.2,3.4-2.5,6.7-3.8,10.1c-0.6,1.6-3.9,2.8-5.3,1.8c-0.8-0.5-0.1-1.2,0.1-1.8c2.9-7.8,5.9-15.6,8.9-23.3c1.4-3.7,1.4-3.7,5.3-3.7
		c2.1,0,4.2-0.2,6.3,0.3c2.7,0.7,3.8,2.2,3.2,4.9c-0.8,3.8-2.4,7.1-6,9c-0.8,0.4-1,0.9-1.1,1.7c-0.3,3.4-0.6,6.9-0.9,10.3
		C96.8,57.3,96.8,57.3,94.2,57.3z M96.9,32c-1.1-0.3-1.8,0.3-2.2,1.5c-0.7,2-1.4,3.9-2.2,5.9c-0.4,1-0.1,1.3,0.9,1.3
		c3.1,0.1,5.2-1.7,6.2-5.3C100.2,33,99.6,32.1,96.9,32z"/>
	<path class="st1" d="M175.1,27.7c4.3,0,6.4,3.4,4.6,7.4c-0.3,0.6-4.1,1.8-4.6,1.4c-0.6-0.4-0.1-1-0.1-1.5c0.2-1.1,0.7-2.4-0.7-3
		c-1.3-0.6-2.5,0-3.5,1c-1.7,1.6-1.9,3.8-0.6,5.7c1,1.4,2.1,2.7,3,4.1c2.5,3.6,2.1,7.7-0.8,11.5c-2.9,3.6-7.9,5.3-11.6,3.7
		c-2.1-0.9-3-2.9-2.5-5.8c0.4-2.5,2.5-4,5-3.7c0.6,0.1,0.6,0.4,0.6,0.8c-0.1,0.7-0.3,1.3-0.4,2c-0.1,1.1-0.3,2.3,1,2.8
		c1.2,0.5,2.4,0.1,3.3-0.8c1.7-1.7,2-4.6,0.6-6.5c-1-1.4-2-2.7-3.1-4.1c-1.6-2-1.9-4.3-1.1-6.7C165.8,30.9,170,27.7,175.1,27.7z"/>
	<path class="st1" d="M191.6,36.6c0.2-0.8,0.3-1.5,0.4-2.1c0.4-2.3-0.7-3.2-2.9-2.5c-2.5,0.9-3.7,4.1-2.2,6.3c0.9,1.4,2.1,2.7,3,4.1
		c2.6,3.7,2.4,7.7-0.6,11.6c-2.8,3.6-7.8,5.3-11.6,3.9c-2.4-0.9-3.3-3.1-2.5-6.5c0.2-0.9,0.1-2,1.5-2.4c3-0.8,3.6-0.5,3.5,2.6
		c0,1-0.1,2,1,2.4c1.1,0.4,2.1,0.2,3.1-0.6c1.9-1.5,2.4-4.6,1-6.6c-1-1.5-2.1-2.9-3.2-4.2c-1.7-2.2-2-4.5-1-7.1
		c1.9-5.2,6.4-8.3,11.5-7.9c3.8,0.3,6,4.7,3.6,7.7C195.4,36.7,193.4,36.4,191.6,36.6z"/>
	<path class="st1" d="M8.3,57.7c-5.8,0-8.2-4-5.8-8.3c0.3-0.5,3.9-1.6,4.5-1.4c0.4,0.2,0.3,0.5,0.3,0.9c-0.1,0.5-0.3,1-0.4,1.6
		c-0.1,1.1-0.4,2.4,1,3c1.3,0.5,2.4,0,3.3-1c1.6-1.7,1.9-4.2,0.5-6.2c-0.9-1.3-1.9-2.6-2.9-3.9c-1.6-2-1.9-4.2-1.1-6.7
		c1.6-4.9,5.8-7.9,10.9-7.7c3.8,0.2,5.9,4.1,3.8,7.4c-0.3,0.5-3.9,1.5-4.3,1.1c-0.6-0.5-0.1-1,0-1.5c0.1-1,0.6-2.1-0.5-2.8
		c-1.2-0.7-2.4-0.2-3.4,0.6c-1.8,1.5-2.1,3.7-0.9,5.6c0.7,1,1.4,2,2.2,2.9c2.6,3.1,3.1,6.5,1.2,10.2C14.8,55.4,11.7,57.5,8.3,57.7z"
		/>
	<path class="st1" d="M60.3,47.2c0.5-0.8,1-1.7,1.5-2.5c2.8-4.9,5.5-9.8,8.3-14.7c0.7-1.3,3.7-2.2,4.9-1.5c0.8,0.5,0,1.1-0.2,1.5
		c-2,3.5-4,6.9-6.1,10.3c-3.1,5.2-6.1,10.4-9.1,15.6c-0.7,1.2-4.3,2-5.4,1.3c-0.4-0.2-0.3-0.6-0.2-0.9c1.6-9,3.1-18,4.7-27
		c0.3-1.5,1.5-0.9,2.3-0.9c2.5-0.1,2.6,0,2.1,2.4c-1,5.4-2,10.7-3.1,16.1C60,47,60.1,47.1,60.3,47.2z"/>
	<path class="st1" d="M154,40.6c2,0,3.6,0,5.3,0c-0.7,3.7-0.7,3.8-4.2,3.7c-1.9-0.1-3,0.4-3.5,2.3c-0.6,2.1-1.5,4.1-2.3,6.1
		c-0.6,1.3-0.2,1.6,1.1,1.6c1.4-0.1,2.8,0,4.3,0c1,0,1.1,0.3,0.8,1.2c-0.5,1.9-1.4,2.8-3.5,2.6c-2.9-0.2-5.8-0.1-8.7,0
		c-1,0-1.3-0.2-0.9-1.3c3.5-9.2,7.1-18.5,10.6-27.7c0.3-0.8,0.8-1.1,1.7-1.1c3.3,0,6.5,0,9.8,0c1.1,0,1.3,0.3,1,1.4
		c-0.5,1.9-1.5,2.6-3.6,2.5c-4.5-0.2-4.5-0.1-6.1,4.1C155.1,37.5,154.6,38.9,154,40.6z"/>
	<path class="st1" d="M89.3,28.4c-0.8,3.7-0.8,3.7-4.4,3.7c-3.6,0-3.6,0-4.9,3.4c-0.1,0.3-0.3,0.6-0.4,0.9c-0.4,1.2-1.6,2.6-1,3.6
		c0.6,1.1,2.4,0.3,3.6,0.4c1.1,0.1,1.2,0.3,0.9,1.3c-0.5,1.8-1.3,2.9-3.4,2.5c-2.4-0.5-3.5,0.6-4.2,2.8c-0.5,1.9-1.3,3.7-2.1,5.5
		c-0.4,0.9-0.2,1.2,0.8,1.2c1.5,0,3,0,4.5,0c0.8,0,1.1,0.3,0.8,1.1c-0.5,1.5-1,2.8-3.1,2.6c-2.8-0.3-5.7-0.1-8.5,0
		c-1.1,0-1.5-0.2-1-1.4c3.4-8.8,6.8-17.7,10.1-26.6c0.3-0.8,0.7-1,1.5-1C82,28.4,85.6,28.4,89.3,28.4z"/>
	<path class="st1" d="M22.8,57.3c-1.4,0-2.7-0.1-4.1,0c-1.9,0.2-1.9-0.6-1.3-2.1c3.3-8.4,6.5-16.8,9.6-25.2c0.5-1.3,1.1-1.7,2.5-1.7
		c2.9,0.1,5.8,0.1,8.7,0c1.2,0,1.3,0.4,1,1.4c-0.5,1.6-1.2,2.4-3.1,2.3c-4.7-0.2-4.7-0.1-6.3,4.3c-0.1,0.3-0.2,0.5-0.3,0.8
		c-1.2,3.2-1.2,3.2,2.1,3.3c0.6,0,1.8-0.4,1.7,0.7c-0.2,1.1-0.3,2.5-1.6,3c-0.2,0.1-0.6,0.1-0.8,0c-3.4-0.8-4.9,1-5.6,4
		c-0.3,1.2-0.8,2.5-1.4,3.6c-0.9,1.7-0.2,2.1,1.5,1.9c0.7-0.1,1.5-0.1,2.2,0c0.8,0.2,2.3-0.7,2.2,0.7c-0.1,1.2-0.2,3.2-2.5,2.9
		C25.7,57.2,24.2,57.3,22.8,57.3z"/>
	<path class="st1" d="M144.4,28.1c-1.5,4-3,7.8-4.4,11.6c-1.6,4.2-3.2,8.5-4.9,12.7c-0.7,1.8-0.2,2.1,1.4,1.9c0.9-0.1,1.9-0.1,2.8,0
		c0.7,0.1,2.1-0.6,1.9,0.6c-0.2,1.1-0.1,3-2,3.1c-3.5,0.1-7,0.1-10.6,0c-1.8,0-0.7-1.1-0.5-1.6c2.1-5.6,4.2-11.1,6.4-16.7
		c1.2-3.2,2.5-6.4,3.6-9.7c0.5-1.5,1.2-2.2,2.9-2C142.1,28.2,143.1,28.1,144.4,28.1z"/>
	<path class="st0" d="M104.5,63.9c-0.2,0.3-0.4,0.5-0.7,0.2c0,0,0.3-0.3,0.4-0.5C104.3,63.7,104.4,63.8,104.5,63.9z"/>
</g>
</svg>
