<?xml version="1.0" encoding="utf-8"?>
<!-- Generator: Adobe Illustrator 21.0.2, SVG Export Plug-In . SVG Version: 6.00 Build 0)  -->
<svg version="1.1" id="Calque_1" xmlns="http://www.w3.org/2000/svg" xmlns:xlink="http://www.w3.org/1999/xlink" x="0px" y="0px"
	 viewBox="0 0 128 87" style="enable-background:new 0 0 128 87;" xml:space="preserve">
<style type="text/css">
	.st0{fill:none;}
	.st1{fill:#6A205F;}
</style>
<title>logo-xebicon</title>
<g id="Calque_2">
	<rect y="0" class="st0" width="128" height="87"/>
</g>
<g id="XMLID_301_">
	<g id="XMLID_334_">
		<path id="XMLID_346_" class="st1" d="M65.9,44.6h-9.5c0.1,0.7,0.6,2.7,3.3,2.7c0.8,0,2-0.3,2.7-1.4h3.2c-0.2,0.5-1.6,4.2-5.7,4.2
			c-1.9,0-3.4-0.6-4.7-1.8c-1.1-1.1-1.9-2.7-1.9-4.6s0.7-3.4,1.9-4.6s2.6-1.8,4.5-1.8s3.4,0.5,4.5,1.7c1.1,1.1,1.6,2.7,1.6,4.7V44.6
			z M62.8,42.4c-0.4-1.8-1.7-2.4-3.2-2.4c-1.1,0-3,0.8-3,2.4H62.8z"/>
		<path id="XMLID_343_" class="st1" d="M70.3,33.8v4.7c1.5-0.8,2.7-1.1,4.2-1.1c1.8,0,3.2,0.6,4.3,1.8c1.1,1.2,1.8,2.7,1.8,4.5
			c0,1.9-0.6,3.4-1.8,4.6c-1.1,1.2-2.6,1.8-4.4,1.8c-1.5,0-2.7-0.2-4.2-1v0.7h-3V33.9L70.3,33.8L70.3,33.8z M77.1,43.8
			c0-1-0.3-1.9-0.9-2.6c-0.7-0.7-1.4-1-2.4-1c-1,0-1.9,0.3-2.5,1c-0.7,0.7-1,1.5-1,2.5c0,1.1,0.3,1.9,0.9,2.6c0.7,0.7,1.5,1,2.5,1
			c1,0,1.8-0.3,2.4-1C76.9,45.6,77.1,44.8,77.1,43.8z"/>
		<path id="XMLID_341_" class="st1" d="M84.7,37.7v12h-3v-12H84.7z"/>
		<path id="XMLID_339_" class="st1" d="M84.7,33.9v2.8h-3v-2.8H84.7z"/>
		<path id="XMLID_336_" class="st1" d="M96.3,37.7H99v12h-2.7v-1.3c-1.3,1.3-2.6,1.6-4,1.6c-1.8,0-3.2-0.6-4.3-1.8
			c-1.1-1.2-1.7-2.7-1.7-4.6c0-1.8,0.5-3.3,1.7-4.5c1.1-1.2,2.5-1.8,4.2-1.8c1.5,0,2.9,0.3,4.1,1.8C96.3,39.1,96.3,37.7,96.3,37.7z
			 M89.2,43.7c0,1,0.3,1.9,0.9,2.5c0.6,0.7,1.4,1,2.4,1c1,0,1.9-0.3,2.5-0.9c0.6-0.7,0.9-1.5,0.9-2.5s-0.3-1.9-0.9-2.5
			c-0.6-0.7-1.4-1-2.5-1c-0.9,0-1.8,0.3-2.4,1C89.6,41.9,89.2,42.7,89.2,43.7z"/>
		<polygon id="XMLID_335_" class="st1" points="59.3,31.5 52,31.5 44.1,39.4 36.4,31.5 29,31.5 40.5,43.5 29,55.5 36.4,55.5 
			44.1,47.6 52,55.5 59.3,55.5 47.9,43.5 		"/>
	</g>
</g>
</svg>
