<svg id="Calque_1" data-name="Calque 1" xmlns="http://www.w3.org/2000/svg" viewBox="0 0 128 87"><defs><style>.cls-1{fill:none;}.cls-2{fill:#6a205f;}</style></defs><title>logo-xebia-training</title><g id="Calque_2" data-name="Calque 2"><rect class="cls-1" width="128" height="87"/></g><g id="_Groupe_" data-name="&lt;Groupe&gt;"><path id="_Tracé_transparent_" data-name="&lt;Tracé transparent&gt;" class="cls-2" d="M53.89,36.87H47.71a3.13,3.13,0,0,1,3-2.33,3,3,0,0,1,3.15,2.33M47.63,39h9.09c0-.19,0-.38,0-.57a5.94,5.94,0,0,0-1.08-3.73,6,6,0,0,0-4.92-2.55,6,6,0,0,0-5.83,6,6.11,6.11,0,0,0,1.69,4.18,5.88,5.88,0,0,0,9.74-2.13H53.48a3.05,3.05,0,0,1-2.7,1.42A2.88,2.88,0,0,1,47.63,39"/><path id="_Tracé_transparent_2" data-name="&lt;Tracé transparent&gt;" class="cls-2" d="M60.87,38.19a3.27,3.27,0,0,1,3.26-3.4,3.34,3.34,0,0,1,3.3,3.36A3.29,3.29,0,0,1,64,41.49a3.2,3.2,0,0,1-3.13-3.3m-.11-4.82V28.8h-2.6v15h2.6v-.92a5.54,5.54,0,0,0,3.53,1.2A5.6,5.6,0,0,0,68,42.77a6.06,6.06,0,0,0,2.13-4.66,6,6,0,0,0-1.92-4.42,5.62,5.62,0,0,0-3.91-1.5,5.17,5.17,0,0,0-3.55,1.18"/><path id="_Tracé_transparent_3" data-name="&lt;Tracé transparent&gt;" class="cls-2" d="M72,32.47h2.54V43.81H72Zm0-3.67h2.54v2.51H72Z"/><path id="_Tracé_transparent_4" data-name="&lt;Tracé transparent&gt;" class="cls-2" d="M78.89,38a3.23,3.23,0,0,1,3.23-3.25,3.32,3.32,0,0,1,3.19,3.37A3.21,3.21,0,1,1,78.89,38m6.74,5.77h2.52V32.47H85.61v1.36A4.07,4.07,0,0,0,82,32.19a5.46,5.46,0,0,0-4.2,1.74,5.92,5.92,0,0,0-1.62,4.15,5.81,5.81,0,0,0,5.89,6c1.75,0,2.89-.51,3.52-1.65Z"/></g><polygon id="_Tracé_" data-name="&lt;Tracé&gt;" class="cls-2" points="21.75 48.77 28.71 48.77 36.18 41.31 43.64 48.77 50.61 48.77 39.66 37.83 50.7 26.79 43.73 26.79 36.18 34.34 28.63 26.79 21.66 26.79 32.69 37.83 21.75 48.77"/><path d="M59.36,56.26a1.69,1.69,0,0,1,0-.81,6.62,6.62,0,0,1,.28-.93q.18-.47.39-.9l.34-.72.23-.49.36-.74.41-.87.42-.86.36-.73.24-.48a2.12,2.12,0,0,0-.72,0l-1,.22-1.17.27q-.6.14-1.11.21a3.49,3.49,0,0,1-.88,0,.51.51,0,0,1-.47-.3q.1-.19.76-.43t1.69-.5q1-.26,2.29-.53t2.58-.51q1.32-.24,2.57-.44t2.24-.33q1-.13,1.6-.18t.63,0a.54.54,0,0,1,0,.28.24.24,0,0,1-.19.2L69.59,47l-1.72.28-1.72.3-1.56.29a1.8,1.8,0,0,0-.89.52,6,6,0,0,0-.84,1.06,12.55,12.55,0,0,0-.78,1.41q-.37.78-.7,1.57T60.77,54q-.29.74-.53,1.3a8.58,8.58,0,0,1-.42.87q-.18.31-.3.26l-.1-.08Z"/><path d="M65.18,56.27a.83.83,0,0,1,0-.3q0-.29.1-.73t.17-1q.1-.52.23-1a8.56,8.56,0,0,1,.27-.85,1.41,1.41,0,0,1,.28-.51.12.12,0,0,1,.19,0,1.66,1.66,0,0,1,.18.21,1.66,1.66,0,0,0,.19.22.15.15,0,0,0,.21,0,9.24,9.24,0,0,1,.83-1,5.09,5.09,0,0,1,1-.79,1.38,1.38,0,0,1,.3-.12l.56-.16.64-.14a2.52,2.52,0,0,1,.56-.05.42.42,0,0,1,.32.12q.09.11-.09.36a2.84,2.84,0,0,0-1.15.26,4.57,4.57,0,0,0-1,.66,7.06,7.06,0,0,0-.92.94q-.43.52-.79,1.06t-.66,1.06l-.52.93q-.22.41-.38.65t-.23.25l-.13-.06Z"/><path d="M71.88,56.12a1,1,0,0,1-.36-.76,3.15,3.15,0,0,1,.15-1.13,7.24,7.24,0,0,1,.55-1.31A9.51,9.51,0,0,1,73,51.61a7.83,7.83,0,0,1,1-1.12,4.18,4.18,0,0,1,1.11-.74,2,2,0,0,1,1.09-.17,1.54,1.54,0,0,1,1,.59,1.35,1.35,0,0,1,.32.65,1.82,1.82,0,0,1,0,.67,3.8,3.8,0,0,1-.22.69l-.29.71a5.24,5.24,0,0,0-.23.74,2,2,0,0,0,0,.76.66.66,0,0,0,.29.51,1,1,0,0,0,.6.11,3.15,3.15,0,0,0,.79-.17,7.81,7.81,0,0,0,.88-.37q.44-.22.87-.46l.75-.45.73-.48q.38-.07.43.05t-.15.35a3.85,3.85,0,0,1-.59.53,7.54,7.54,0,0,1-.9.59,9.49,9.49,0,0,1-1.07.51,5.11,5.11,0,0,1-1.11.32,2.81,2.81,0,0,1-1,0,1.39,1.39,0,0,1-.79-.46,1.45,1.45,0,0,1-.22-.31.78.78,0,0,0-.23-.27l-.49.47q-.28.29-.62.58a8.41,8.41,0,0,1-.71.55,3.16,3.16,0,0,1-.76.39,1.84,1.84,0,0,1-.79.09A1.45,1.45,0,0,1,71.88,56.12Zm.15-.43a.45.45,0,0,0,.36.36,1.15,1.15,0,0,0,.64-.1,3.78,3.78,0,0,0,.81-.47,6.42,6.42,0,0,0,.87-.78,9.33,9.33,0,0,0,.82-1,7.16,7.16,0,0,0,.67-1.17,5.92,5.92,0,0,0,.41-1.24,3.47,3.47,0,0,0,0-1.25.64.64,0,0,0-.58-.1,2.31,2.31,0,0,0-.74.36,5.7,5.7,0,0,0-.81.71,10.87,10.87,0,0,0-.81.94Q73.3,52.45,73,53a9.91,9.91,0,0,0-.57,1.05A5,5,0,0,0,72,55,1.32,1.32,0,0,0,72,55.69Z"/><path d="M80.51,56.27a26.83,26.83,0,0,1,1-2.68,8.42,8.42,0,0,1,.75-1.4q.3-.4.41-.26t0,.72a9.51,9.51,0,0,1-.54,1.55A19,19,0,0,1,81,56.42a.48.48,0,0,1-.25,0A.25.25,0,0,1,80.51,56.27Zm2.37-6.18a.4.4,0,0,1,0-.09s0-.09,0-.13,0-.09,0-.13a.25.25,0,0,1,0-.08.67.67,0,0,1,.48,0,.34.34,0,0,1,.2.23.6.6,0,0,1,0,.32.47.47,0,0,1-.16.25.23.23,0,0,1-.24,0A.65.65,0,0,1,82.88,50.09Z"/><path d="M88.81,56.27a2.19,2.19,0,0,1,.08-.84,5.22,5.22,0,0,1,.31-.82q.19-.41.42-.81T90,53a3.43,3.43,0,0,0,.23-.77,1.55,1.55,0,0,0-.05-.75,1.15,1.15,0,0,0-.78.06,4.49,4.49,0,0,0-.93.51,11.39,11.39,0,0,0-1,.8q-.52.46-1,.93l-.94.89q-.45.42-.81.7a2,2,0,0,1-.61.35.23.23,0,0,1-.32-.16l.09-.2.25-.49.36-.68.43-.78.44-.79.4-.7q.18-.31.31-.5a.83.83,0,0,1,.17-.22.52.52,0,0,1,.28.39,1.15,1.15,0,0,1-.07.44q-.08.23-.18.46a.67.67,0,0,0,0,.46l.61-.4q.38-.25.84-.52t.95-.52a7.28,7.28,0,0,1,.93-.41,2.64,2.64,0,0,1,.78-.16.58.58,0,0,1,.5.2.91.91,0,0,1,.1.67,4.89,4.89,0,0,1-.43,1.28l-.11.24-.19.42-.23.5-.24.5-.2.42-.1.24a.82.82,0,0,0,0,.19c0,.09,0,.19,0,.3a2.17,2.17,0,0,1-.09.31.58.58,0,0,1-.13.22.09.09,0,0,1-.09,0l-.1,0-.08-.07Z"/><path d="M91.23,56.27a27,27,0,0,1,1-2.68,8.45,8.45,0,0,1,.75-1.4q.3-.4.41-.26t0,.72a9.57,9.57,0,0,1-.54,1.55,19,19,0,0,1-1.16,2.22.48.48,0,0,1-.25,0A.25.25,0,0,1,91.23,56.27Zm2.37-6.18a.39.39,0,0,1,0-.09s0-.09,0-.13,0-.09,0-.13a.24.24,0,0,1,0-.08.67.67,0,0,1,.48,0,.34.34,0,0,1,.2.23.6.6,0,0,1,0,.32.47.47,0,0,1-.16.25.23.23,0,0,1-.24,0A.65.65,0,0,1,93.6,50.09Z"/><path d="M99.53,56.27a2.19,2.19,0,0,1,.08-.84,5.22,5.22,0,0,1,.31-.82q.19-.41.42-.81t.39-.8a3.43,3.43,0,0,0,.23-.77,1.55,1.55,0,0,0-.05-.75,1.15,1.15,0,0,0-.78.06,4.49,4.49,0,0,0-.93.51,11.39,11.39,0,0,0-1,.8q-.52.46-1,.93l-.94.89q-.45.42-.81.7a2,2,0,0,1-.61.35.23.23,0,0,1-.32-.16l.09-.2.25-.49.36-.68.43-.78.44-.79.4-.7q.18-.31.31-.5a.83.83,0,0,1,.17-.22.52.52,0,0,1,.28.39,1.15,1.15,0,0,1-.07.44q-.08.23-.18.46a.67.67,0,0,0,0,.46l.61-.4q.38-.25.84-.52t.95-.52a7.28,7.28,0,0,1,.93-.41,2.64,2.64,0,0,1,.78-.16.58.58,0,0,1,.5.2.91.91,0,0,1,.1.67,4.89,4.89,0,0,1-.43,1.28l-.11.24-.19.42-.23.5-.24.5-.2.42-.1.24a.82.82,0,0,0,0,.19c0,.09,0,.19,0,.3a2.17,2.17,0,0,1-.09.31.58.58,0,0,1-.13.22.09.09,0,0,1-.09,0l-.1,0-.08-.07Z"/><path d="M100,60a1.66,1.66,0,0,1-.69-.43,2.1,2.1,0,0,1-.41-.61,2.24,2.24,0,0,1-.17-.67,2.15,2.15,0,0,1,0-.6.84.84,0,0,1,.16-.39.2.2,0,0,1,.27-.06A3.81,3.81,0,0,0,99.41,59a1.29,1.29,0,0,0,.76.71,1.65,1.65,0,0,0,1.06-.07,4.49,4.49,0,0,0,1.19-.67,7.78,7.78,0,0,0,1.14-1.09,7.9,7.9,0,0,0,.93-1.32,5.24,5.24,0,0,0,.54-1.37,2.3,2.3,0,0,0,0-1.22,10,10,0,0,1-1.6.94,2.18,2.18,0,0,1-1,.24.43.43,0,0,1-.42-.31,1.38,1.38,0,0,1,0-.7,4.42,4.42,0,0,1,.36-.93,8,8,0,0,1,.61-1,8.45,8.45,0,0,1,.75-.92,4.15,4.15,0,0,1,.8-.67,1.61,1.61,0,0,1,.75-.27.69.69,0,0,1,.6.29,2,2,0,0,1,.39,1.07,5.94,5.94,0,0,1,0,1.5,9.89,9.89,0,0,1-.42,1.72,12,12,0,0,1-.75,1.75,11.13,11.13,0,0,1-1,1.59,6.17,6.17,0,0,1-1.23,1.23,3.81,3.81,0,0,1-1.4.66A2.62,2.62,0,0,1,100,60Zm2.76-6.39a.38.38,0,0,0,0,.14c0,.07,0,.14,0,.22s0,.15,0,.22a.36.36,0,0,0,0,.14,1,1,0,0,0,.67-.07,2.46,2.46,0,0,0,.66-.44,4.45,4.45,0,0,0,.59-.67,5.91,5.91,0,0,0,.47-.75,3.9,3.9,0,0,0,.28-.67.78.78,0,0,0,0-.46q-.05-.15-.26-.1a1.89,1.89,0,0,0-.62.4l-.43.39q-.27.24-.55.52t-.51.58A2.19,2.19,0,0,0,102.72,53.66Z"/></svg>