<?xml version="1.0" encoding="utf-8"?>
<!-- Generator: Adobe Illustrator 20.0.0, SVG Export Plug-In . SVG Version: 6.00 Build 0)  -->
<svg version="1.1" id="Calque_1" xmlns="http://www.w3.org/2000/svg" xmlns:xlink="http://www.w3.org/1999/xlink" x="0px" y="0px"
	 viewBox="0 0 200 80" style="enable-background:new 0 0 200 80;" xml:space="preserve">
<style type="text/css">
	.st0{fill:#00D8FF;}
	.st1{fill:none;stroke:#00D8FF;stroke-width:3;}
</style>
<title>vuejs-logo</title>
<g id="Page-1" sketch:type="MSPage">
	<g id="logo-_x28_1_x29_" transform="translate(12.000000, 17.000000)" sketch:type="MSLayerGroup">
		<circle id="Oval" sketch:type="MSShapeGroup" class="st0" cx="22.3" cy="32.2" r="6">
		</circle>
		<path id="Shape" sketch:type="MSShapeGroup" class="st1" d="M22.3,20.1c8,0,15.4,1.1,21,3.1c6.8,2.3,10.9,5.9,10.9,9
			c0,3.3-4.4,7.1-11.7,9.5c-5.5,1.8-12.7,2.8-20.3,2.8c-7.8,0-15.2-0.9-20.7-2.8c-7-2.4-11.2-6.2-11.2-9.5c0-3.2,4-6.7,10.6-9
			C6.6,21.3,14.2,20.1,22.3,20.1L22.3,20.1z"/>
		<path id="Shape_1_" sketch:type="MSShapeGroup" class="st1" d="M11.8,26.2c4-6.9,8.7-12.8,13.2-16.7C30.3,4.8,35.5,3,38.2,4.6
			c2.9,1.7,3.9,7.3,2.4,14.8c-1.2,5.7-3.9,12.4-7.7,19C29,45.1,24.5,51,20.1,54.9c-5.6,4.9-11,6.6-13.8,5c-2.7-1.6-3.8-6.8-2.5-13.7
			C4.9,40.4,7.7,33.2,11.8,26.2L11.8,26.2z"/>
		<path id="Shape_2_" sketch:type="MSShapeGroup" class="st1" d="M11.8,38.4c-4-6.9-6.7-13.9-7.9-19.8c-1.4-7-0.4-12.4,2.4-14
			c2.9-1.7,8.3,0.3,14,5.3c4.3,3.8,8.8,9.6,12.6,16.2c3.9,6.7,6.8,13.6,8,19.3c1.4,7.3,0.3,12.8-2.5,14.5c-2.7,1.6-7.8-0.1-13.1-4.7
			C20.7,51.4,15.8,45.4,11.8,38.4L11.8,38.4z"/>
	</g>
	<path id="React" sketch:type="MSShapeGroup" class="st0" d="M107.3,60.5l-8.1-12.3c4.1-0.4,7.8-3.3,7.8-8.8c0-5.6-3.9-9.1-9.4-9.1
		H85.4v30.1h3.7v-12h6l7.7,12H107.3z M97.1,45.3h-7.9V33.8h7.9c3.6,0,6,2.3,6,5.7S100.6,45.3,97.1,45.3L97.1,45.3z M121.2,61.1
		c3.6,0,6.5-1.2,8.7-3.3l-1.6-2.2c-1.7,1.8-4.2,2.8-6.7,2.8c-4.7,0-7.6-3.4-7.9-7.5h17.7v-0.9c0-6.5-3.9-11.7-10.5-11.7
		c-6.2,0-10.7,5.1-10.7,11.4C110.1,56.4,114.8,61.1,121.2,61.1L121.2,61.1z M128,48.3h-14.3c0.2-3.3,2.5-7.3,7.1-7.3
		C125.8,41,128,45,128,48.3L128,48.3z M153.8,60.5v-15c0-5.3-3.8-7.4-8.4-7.4c-3.6,0-6.4,1.2-8.7,3.6l1.6,2.3c1.9-2.1,4.1-3,6.7-3
		c3.2,0,5.5,1.7,5.5,4.6v3.9c-1.8-2-4.2-3-7.2-3c-3.7,0-7.6,2.3-7.6,7.2c0,4.7,3.9,7.2,7.6,7.2c2.9,0,5.4-1,7.2-3v2.5H153.8z
		 M144.4,58.6c-3.2,0-5.4-2-5.4-4.7c0-2.8,2.2-4.8,5.4-4.8c2.4,0,4.7,0.9,6,2.7v4.1C149.1,57.7,146.8,58.6,144.4,58.6L144.4,58.6z
		 M170.2,61.1c4,0,6.3-1.6,8-3.8l-2.3-2.1c-1.4,1.9-3.3,2.8-5.6,2.8c-4.7,0-7.5-3.6-7.5-8.4s2.9-8.4,7.5-8.4c2.3,0,4.1,0.9,5.6,2.8
		l2.3-2.1c-1.7-2.2-4-3.8-8-3.8c-6.5,0-10.9,5-10.9,11.4C159.3,56.1,163.7,61.1,170.2,61.1L170.2,61.1z M188.5,61.1
		c2,0,3.2-0.6,4.1-1.4l-1-2.5c-0.5,0.5-1.4,0.9-2.3,0.9c-1.5,0-2.2-1.2-2.2-2.8V41.7h4.4v-3H187v-6h-3.4v6H180v3h3.6V56
		C183.6,59.2,185.3,61.1,188.5,61.1L188.5,61.1z"/>
</g>
</svg>
