<?xml version="1.0" encoding="utf-8"?>
<!-- Generator: Adobe Illustrator 20.0.0, SVG Export Plug-In . SVG Version: 6.00 Build 0)  -->
<svg version="1.1" id="Calque_1" xmlns="http://www.w3.org/2000/svg" xmlns:xlink="http://www.w3.org/1999/xlink" x="0px" y="0px"
	 viewBox="0 0 200 80" style="enable-background:new 0 0 200 80;" xml:space="preserve">
<style type="text/css">
	.st0{fill:#273783;}
	.st1{fill:#4F5C9C;}
	.st2{fill:#6974A9;}
	.st3{fill:#606CA5;}
	.st4{fill:#9DA4C6;}
	.st5{fill:#CFD2E3;}
	.st6{fill:#FBFDFB;}
	.st7{fill:#37468D;}
	.st8{fill:#646FA6;}
	.st9{fill:#303F89;}
	.st10{fill:#CCD1E1;}
	.st11{fill:#4A5797;}
	.st12{fill:#6C78AB;}
	.st13{fill:#233381;}
	.st14{fill:#C7CCDE;}
	.st15{fill:#34428B;}
	.st16{fill:#F1F2F6;}
	.st17{fill:#CACFE0;}
	.st18{fill:#32418A;}
	.st19{fill:#273784;}
</style>
<title>sigfox-logo</title>
<g>
	<path class="st0" d="M139.7,64.4c-0.4-0.1-0.5-0.7-1-0.6c-1.3,2.6-3.4,4.2-6.3,5c-3.3,0.9-6.7,1.2-10.1,1.1c-5.2-0.2-10.4,0-15.6,0
		c-3.7,0-7.5-0.8-10.3-3.8c-0.2-0.2-0.4-0.4-0.7-0.5c-0.1-0.1-0.2-0.2-0.3-0.3c-0.2-0.2-0.4-0.3-0.6-0.1c-0.2,0.2-0.2,0.4,0,0.6
		c0.1,1-0.3,1.3-1.3,1.5c-1.7,0.3-3.3,0.9-4.9,1.4c-0.2,0.1-0.5,0.3-0.8,0.3c-1.8-0.3-3.6,0.3-5.2,0.7c-2.4,0.5-4.8,0.4-7.2,0.4
		c-2.1-0.1-4.2-0.5-6.1-1.3c-0.9-0.4-2-0.3-2.9-0.9c-0.4-0.3-0.7,0.3-1,0.6c-0.4,0.6-0.6,1.3-1.3,1.7c-1.5,1.6-2.8,3.3-4,5.1l0,0
		c-0.7,0.9-1.5,1.6-2.1,2.6c-0.7,1.3-1.7,1.7-3.1,0.4c-1.1-1-2.4-1.8-3.6-2.8c-1.1-0.9-2.4-1.7-3.4-2.7c-1.3-1.2-2.8-2.3-4.3-3.3
		l0,0c-0.7-0.7-1.4-1.3-2.3-1.7l0,0c-1.7-1.7-3.7-3.2-5.7-4.6l0,0c-1.6-1.5-3.3-2.8-5.1-4l0,0c-2.5-2.2-5.2-4-7.8-6.1
		c-1.3-1-2.6-2-3.8-3.1c-1.4-1.4-3.2-2.4-4.6-3.9c0.6-1.3,1.4-2.5,2.5-3.5c0.7-0.7,1.3-1.4,1.7-2.3l0,0c0.7-0.7,1.3-1.4,1.7-2.3
		c0.2-0.2,0.4-0.4,0.6-0.6c0.7-0.7,1.3-1.4,1.7-2.3l0,0c0.7-0.7,1.3-1.4,1.7-2.3c0.2-0.2,0.4-0.4,0.6-0.6c1.3-1.7,2.8-3.3,4-5.1l0,0
		c0.7-0.7,1.3-1.4,1.7-2.3l0,0c1.5-1.6,2.8-3.3,4-5.1l0,0c1.5-1.6,2.8-3.3,4-5.1l0,0c2.2-2.4,4.2-4.9,6.1-7.4
		c1.6-2.1,3.5-4.1,4.9-6.3c0.3-0.4,0.6-0.1,1,0.1c0.2,0.2,0.4,0.4,0.6,0.6c1.4,1.3,3,2.3,4.6,3.4c0.2,0.2,0.4,0.4,0.6,0.6
		c1.4,1.3,3,2.4,4.6,3.4l0,0c0.9,0.7,1.5,1.7,2.6,2.1c0.6,0.2,0.7,0.7,0.3,1.4c-0.8,1.4-1.9,2.6-2.8,3.9c-1.6,2.4-3.6,4.5-5.3,6.9
		l0,0c-0.7,0.7-1.3,1.4-1.7,2.3l0,0c-0.8,0.9-1.8,1.7-2.3,2.8l0,0c-0.7,0.7-1.3,1.4-1.7,2.3l0,0c-1.5,1.6-2.8,3.3-4,5.1
		c-0.2,0.2-0.4,0.4-0.6,0.6c-0.7,0.7-1.3,1.4-1.7,2.3C42.8,39.9,42,41,41.1,42c-1.3,1.4-1.3,1.7,0.4,2.6c0.2,0.1,0.3,0.3,0.4,0.4
		c0.7,0.7,1.4,1.3,2.3,1.7l0,0c0.9,0.8,1.7,1.8,2.8,2.3l0,0c0.7,0.7,1.4,1.3,2.3,1.7l0,0c0.9,0.7,1.6,1.7,2.6,2.2
		c1.1,1.1,2.4,1.8,3.6,2.8c0.7-0.1,0.5-0.6,0.3-1l0,0c-0.3-0.4-0.4-0.9-0.4-1.3c-0.1-1.5-0.4-3.1-0.5-4.5c-0.2-2.8,0.2-5.7,1.4-8.4
		c1.6-3.8,3.6-7.3,7-9.7c1.4-0.6,2.4-1.8,3.9-2.2c2.1-0.6,4-1.7,6.3-1.6c1,0.1,2,0.3,2.8-0.5c0.1-0.1,0.4-0.1,0.5,0
		c1.7,1.1,3.6,0.4,5.5,1c3.8,1.2,7,3.2,9.6,6.2c0.4,0.6,0.7,1.1,1.1,1.7c0.5,0.4,0.7,0.1,0.7-0.4c0-1.7,0.5-3.3,0.7-5
		c0.2-2,1-4,2.6-5.5c1.1-1,2-2.3,3.4-2.9c0.6-0.3,1.2-0.4,1.8-0.5c1.8-0.3,3.5-1,5.4-1c6.5,0.1,13.1-0.2,19.6,0.1
		c3,0.1,6.1,0.5,8.5,2.9c1.3,1.3,2.6,2.6,3.3,4.4c0.1,0.3,0.1,0.6,0.5,0.6c0.3,0,0.5-0.3,0.6-0.5c0.8-1.7,1.6-3.3,3.2-4.4
		c1.7-1.2,3.5-2.2,5.7-2.5c8-1.2,15.9-0.4,23.9-0.4c2.5,0,5.1,0.9,7.4,2.4c2.2,1.5,3.3,3.6,4.2,5.8c0.5,1.3,0.9,2.9,0.8,4.5
		c-0.2,1.9,0,3.9,0,5.8c0,0.7,0.1,1.3-0.7,1.7c-0.5,0.2-0.6,0.8-0.4,1.3c2,4.5,1.6,9.2,1.7,13.9c0,2.7-0.6,5.2-1.7,7.6
		c-1.7,3.8-4.8,5.6-8.9,6.2c-8.1,1.2-16.2,0.4-24.3,0.4c-1.9,0-4.1-0.2-6-1.4c-0.5-0.3-1.2-0.2-1.7-0.6
		C141.9,66.8,140.8,65.6,139.7,64.4z"/>
	<path class="st1" d="M92,33.7c-0.9-0.4-1.3-1.2-2-1.8c-3.2-2.8-6.8-4.6-11.1-4.7c-0.5,0-0.9,0-1.4-0.3c-0.2-0.2-0.5-0.3-0.8-0.2
		c-3.6,0.9-7.5,0.8-10.8,2.8c-0.8,0.5-1.3,1.6-2.5,1.4c1.8-1.8,4.2-2.6,6.5-3.4c1.5-0.5,2.9-0.5,4.4-0.6c0.6,0,1.3,0.1,1.9-0.4
		c0.1-0.1,0.5-0.2,0.7-0.1c1.9,1.1,4,0.3,6,1.1c3.3,1.3,6.4,2.9,8.7,5.6C91.8,33.2,92.1,33.3,92,33.7z"/>
	<path class="st2" d="M43.6,69.6c1.6,0.1,2.4,1.5,3.4,2.3c2.1,1.6,4.2,3.1,6.2,4.8c0.8,0.7,1.8,1.2,2.5,2c0.7,0.7,1.7,0.2,2.3-1.1
		c0.5-1,1.1-1.8,2.1-2.3c-0.9,1.2-1.7,2.4-2.6,3.5c-0.5,0.7-1.4,0.8-1.9,0.3c-1.7-1.6-3.7-2.9-5.6-4.3c-2-1.6-3.9-3.4-6.2-4.7
		C43.7,69.9,43.7,69.7,43.6,69.6z"/>
	<path class="st2" d="M14.3,46.2c1.5,0.6,2.5,2,3.7,2.9c1.4,1.1,2.9,2.2,4.2,3.4c1.9,1.7,4,3.1,6,4.6c0.8,0.6,1.7,1.2,2.3,2.2
		c-1.1-0.4-1.9-1.4-2.8-2.1c-1.3-0.9-2.5-1.9-3.8-2.9c-2.3-1.8-4.4-3.9-7-5.4c-1-0.6-1.6-1.9-2.9-2.4C14,46.6,14.1,46.3,14.3,46.2z"
		/>
	<path class="st2" d="M50.5,1.3c-0.3,0.2-0.6-0.3-0.9,0.1C47.5,4.2,45.2,7,43,9.8c-1.4,1.8-2.6,3.9-4.6,5.2c0.8-1.1,1.4-2.3,2.3-3.2
		c2.4-2.5,4.3-5.3,6.3-8.1c0.7-1,1.8-1.6,2.3-2.8C49.7,0.4,50.3,0.6,50.5,1.3z"/>
	<path class="st2" d="M55.6,23.5c0-0.6,0.3-1.1,0.7-1.5c2.5-2.6,4.3-5.7,6.7-8.5c1.1-1.3,0.9-1.5-0.5-2.5c-0.7-0.5-1.5-1-1.8-1.9
		c1.2,0.4,1.8,1.5,2.9,2.1c1.3,0.7,0.2,1.8-0.2,2.4c-2.5,3.3-5.1,6.6-7.7,9.8C55.7,23.5,55.6,23.5,55.6,23.5z"/>
	<path class="st2" d="M35.6,63.3c1.6,0.4,2.6,1.7,3.8,2.6c0.7,0.5,1.6,1,1.9,2C39.4,66.3,37.5,64.8,35.6,63.3z"/>
	<path class="st2" d="M60.2,75.3c1-2,2.2-3.8,4-5.1C62.9,71.9,61.7,73.7,60.2,75.3z"/>
	<path class="st2" d="M38.5,14.9c-1,2-2.2,3.8-4,5.1C35.8,18.3,37,16.5,38.5,14.9z"/>
	<path class="st2" d="M45.9,36c1-2,2.2-3.8,4-5.1C48.7,32.7,47.4,34.4,45.9,36z"/>
	<path class="st2" d="M28.8,27.4c-0.3,0.9-3.2,4.7-4,5.1C25.9,30.6,27.3,29,28.8,27.4z"/>
	<path class="st2" d="M34.5,20c-1,2-2.2,3.8-4,5.1C31.8,23.4,33,21.6,34.5,20z"/>
	<path class="st2" d="M30.5,59.3c2,1,3.8,2.2,5.1,4C33.9,62.1,32.1,60.8,30.5,59.3z"/>
	<path class="st2" d="M60.7,9.2c-1.8-0.8-3.3-1.9-4.6-3.4C57.8,6.8,59.3,7.9,60.7,9.2z"/>
	<path class="st2" d="M55.6,5.2c-1.8-0.8-3.3-1.9-4.6-3.4C52.7,2.8,54.2,3.9,55.6,5.2z"/>
	<path class="st3" d="M55.6,55.9c-1.3-0.8-2.7-1.6-3.7-2.8c0.1-0.1,0.2-0.1,0.4,0c1.1,0.9,2.3,1.6,3.3,2.6
		C55.7,55.7,55.7,55.7,55.6,55.9C55.7,55.8,55.6,55.9,55.6,55.9z"/>
	<path class="st2" d="M142.9,67.5c0,0.1,0,0.2,0,0.3c-1.1-1.1-2.4-2-3.2-3.4C141,65.3,141.9,66.5,142.9,67.5z"/>
	<path class="st2" d="M51.6,28.6c0.2-1.4,1.3-2.1,2.3-2.8C53.3,26.8,52.4,27.7,51.6,28.6z"/>
	<path class="st2" d="M52.3,53c-0.1,0-0.3,0-0.4,0c-1-0.6-1.9-1.3-2.5-2.3C50.4,51.3,51.3,52.3,52.3,53z"/>
	<path class="st2" d="M47.1,49c-1.4-0.2-2.1-1.3-2.8-2.3C45.3,47.4,46.2,48.2,47.1,49z"/>
	<path class="st2" d="M41.3,67.9c1,0.2,1.8,0.7,2.3,1.7C42.8,69.1,42,68.6,41.3,67.9z"/>
	<path class="st2" d="M49.3,50.7c-1-0.2-1.8-0.7-2.3-1.7C47.9,49.5,48.7,50,49.3,50.7z"/>
	<path class="st2" d="M44.2,46.8c-1-0.2-1.8-0.7-2.3-1.7C42.8,45.5,43.6,46.1,44.2,46.8z"/>
	<path class="st2" d="M18.6,40.5c-0.2,1-0.7,1.8-1.7,2.3C17.3,41.9,17.9,41.2,18.6,40.5z"/>
	<path class="st2" d="M53.9,25.8c0.2-1,0.7-1.8,1.7-2.3C55.1,24.3,54.6,25.1,53.9,25.8z"/>
	<path class="st2" d="M20.3,38.2c-0.2,1-0.7,1.8-1.7,2.3C19,39.7,19.6,38.9,20.3,38.2z"/>
	<path class="st2" d="M30.5,25.1c-0.2,1-0.7,1.8-1.7,2.3C29.3,26.6,29.8,25.8,30.5,25.1z"/>
	<path class="st2" d="M43.7,38.9c0.2-1,0.7-1.8,1.7-2.3C44.9,37.4,44.4,38.2,43.7,38.9z"/>
	<path class="st2" d="M22.6,35.4c-0.2,1-0.7,1.8-1.7,2.3C21.3,36.8,21.8,36,22.6,35.4z"/>
	<path class="st2" d="M24.3,33.1c-0.2,1-0.7,1.8-1.7,2.3C23,34.5,23.6,33.8,24.3,33.1z"/>
	<path class="st2" d="M49.9,30.9c0.2-1,0.7-1.8,1.7-2.3C51.2,29.5,50.6,30.2,49.9,30.9z"/>
	<path class="st4" d="M94.8,65.8c-0.3-0.3-0.5-0.7-0.1-1c0.4-0.3,0.7,0,0.6,0.5C95,65.2,94.9,65.6,94.8,65.8z"/>
	<path class="st5" d="M55.6,55.9c0-0.1,0-0.2,0-0.3c0.3-0.2,0.3-0.6,0.3-0.9C56.4,55.3,56.5,55.7,55.6,55.9z"/>
	<path class="st6" d="M23.1,43.3c1.9-2.5,3.8-4.9,5.7-7.4c2.9-3.7,5.7-7.5,8.6-11.2c2-2.5,4-5,6-7.5c2.2-2.8,4.3-5.6,6.4-8.4
		c0.5-0.7,0.9-0.9,1.6-0.2c1.4,1.2,2.8,2.3,4.3,3.4c0.9,0.7,1.2,1.2,0.3,2.2c-3.7,4.6-7.4,9.3-11,14c-3,3.9-6,7.8-8.9,11.6
		c-1,1.2-1.9,2.6-3,3.7c-0.5,0.5-0.3,0.8,0.1,1.2c0.5,0.6,1.3,0.8,1.8,1.4c3.5,2.8,7.1,5.6,10.6,8.4c4.5,3.5,9,7,13.5,10.5
		c0.9,0.7,1.4,1.3,0.3,2.4c-1.2,1.2-2.2,2.6-3.1,4c-0.6,0.8-1.1,0.6-1.6,0.1c-2.7-2.1-5.4-4.3-8.1-6.4c-5.6-4.3-11.1-8.6-16.7-13
		c-1.9-1.5-3.8-3.1-5.7-4.6c-0.5-0.4-0.9-0.9-1.5-1.3c-1.2-0.9-1.3-1.1-0.2-2.3C22.8,43.9,23,43.6,23.1,43.3z"/>
	<path class="st7" d="M98.5,40.5c0-2.6,0-5.1,0.1-7.6c0.1-2.1,0.8-4.2,2.1-5.7c1.3-1.5,3.5-2.2,5.6-2.3c7-0.1,14-0.2,21,0
		c3.1,0.1,6.1,1,7.3,4.5c0.1,0.3,0.4,0.5,0.5,0.8c0.4,0.5-0.1,1.2,0.3,1.7c0,1.2,0,2.4,0,3.6c0,0.5,0,1.1-0.6,1.3
		c-2.5,0.8-4.9,2.2-7.6,2.3c-0.3-1.4,0-2.8-0.1-4.2c0-0.5,0.2-1-0.2-1.5c-6.2,0-12.3,0-18.5,0c-1.1,0-1.5,0.3-1.4,1.5
		c0.1,1.3,0.1,2.7,0,4c-0.1,1.1,0.3,1.4,1.4,1.4c6.7,0,13.5,0,20.2,0c3.7,0,6.2,2.7,6.9,6.3c0.6,3,0.4,5.9,0.4,8.9
		c0,2.5-0.5,4.9-1.9,7.1c-0.8,1.2-2.1,1.8-3.4,2.3c-1.9,0.8-4,0.6-6,0.6c-6.3,0-12.5,0-18.8,0c-1.9,0-3.8-0.4-5.4-1.6
		c-2-1.5-3.2-3.5-3.2-6.1c0-1,0.1-2,0-3c-0.2-1.5,0.3-2.6,1.8-2.7c1.8-0.2,3.3-1.2,5.1-1.4c1.5-0.1,2.2,0.4,2.3,2
		c0.1,0.9,0,1.8,0,2.7c0,0.7,0.1,1.1,0.9,1.1c6.4,0,12.8,0,19.2,0c0.7,0,0.9-0.3,0.9-0.9c0-1.8,0-3.5,0-5.3c0-1.2-0.8-1.2-1.7-1.2
		c-3.3,0-6.5,0-9.8,0c-3.6,0-7.2,0.1-10.8,0c-2.2,0-4.1-0.9-5.2-2.9c-0.7-1.2-1.1-2.5-1.3-3.9C98.5,41.5,98.9,41,98.5,40.5z"/>
	<path class="st7" d="M172.5,56.2c0-2-0.1-4,0-6c0-1.1-0.3-1.5-1.4-1.4c-6.8,0-13.6,0-20.4,0c-3.4,0-5.2-1.7-6.5-4.4
		c-0.4-0.8,0.1-1.8-0.4-2.7c-0.3-1.4-0.1-2.8-0.1-4.3c0.1-1.6-0.2-3.2,0.1-4.8c0.3-1.8,0.7-3.7,2-5.1c0.2-0.1,0.3-0.1,0.4,0.1
		c0.1,0.4-0.1,0.8-0.3,1.2c-1,1.8-1.2,3.7-1.1,5.6c0.1,3-0.3,6,0.4,9c0.4,1.5,1,2.7,2.3,3.5c1.2,0.8,2.6,1.2,4,1.2
		c6.4,0,12.9,0,19.3,0c2.1,0,2.3,0.2,2.3,2.3c0,1.7,0,3.4,0,5.1c0,1.1-0.5,1.7-1.6,1.7c-6.6,0-13.2,0-19.8,0c-1.1,0-1.6-0.5-1.6-1.6
		c0-1.1,0-2.2,0-3.3c0-0.8-0.3-1.1-1.2-0.9c-1.7,0.4-3.4,0.9-5.1,1.4c-0.5,0.2-0.9,0.5-0.9,1.1c-0.1,3,0.3,5.9,2.2,8.3
		c0.9,1.1,2.2,1.6,3.6,1.8c1.8,0.3,3.6,0.3,5.4,0.3c5.7,0,11.4,0,17.1,0c1.6,0,3.3-0.1,4.9-0.7c2.2-0.8,3.4-2.5,3.7-4.8
		c0.5-4.1,0.5-8.3,0-12.5c-0.3-2.6-2.1-4.4-4.6-5c-1.2-0.3-2.4-0.4-3.7-0.4c-5.9,0-11.8,0-17.6,0c-2.3,0-2.5-0.3-2.6-2.5
		c0-1.3,0-2.6,0-3.8c0.1-1.6,0.5-2.1,2.1-2.1c5.9,0,11.8,0,17.8,0c1.5,0,2,0.4,2,1.9c0,1.4,0.1,2.8-0.1,4.3
		c-0.1,0.2-0.2,0.3-0.3,0.4c-0.6-1.3-0.3-2.7-0.3-4c0-1.2-0.2-1.7-1.6-1.7c-6.1,0.1-12.2,0-18.3,0c-0.3,2.3-0.3,4.5,0,6.8
		c7,0,14,0,21,0c3,0,6.3,2.4,6.9,5.6c0.9,4.8,0.9,9.5-0.1,14.2c-0.6,2.5-2.5,4-5,4.8c-2.5,0.8-4.9,0.4-7.4,0.5
		c-5.5,0.1-11,0-16.5,0.1c-2.4,0-4.5-0.8-6.5-1.9c-1.3-0.7-1.4-2.4-2-3.6c-1-2.1-0.5-4.3-0.6-6.5c-0.1-1.4,1.3-1.4,1.9-1.4
		c1.9-0.3,3.6-1.3,5.5-1.5c0.6,0,0.9,0,1.2,0.5c0.5,1.2,0.2,2.4,0.3,3.6c0,0.6,0,1.1,0.1,1.7c0.2,0.4,0.6,0.3,1,0.3
		c6.5,0,13,0,19.6,0C172,56.3,172.3,56.3,172.5,56.2z"/>
	<path class="st8" d="M63,38.8c2.1-3.8,5.5-5.8,9.5-6.9c1.8-0.5,3.5-0.6,5.3-0.5c3,0.2,5.9,1.1,8.2,3.2c2.6,2.3,4.2,5.1,5,8.6
		c0.5,2.2,0.2,4.3,0.4,6.5c0.1,1.4-0.7,1.7-1.9,1.6c-6.1,0-12.2,0-18.3,0c-1.9,0-2,0-1.4,1.7c0.9,2.7,2.9,4.1,5.6,4.5
		c3.7,0.4,7.4,0.2,11-0.9c1.2-0.4,1.8-0.1,2,1.1c0.2,1.4,0.5,2.9,0.7,4.3c0.1,0.9-0.2,1.3-1.1,1.6c-4.6,1.5-9.3,1.8-14,1.3
		c-4.5-0.6-8.5-2.7-11-6.8c0.1-0.1,0.3-0.1,0.5-0.1c0.4,0.1,0.7,0.5,1,0.8c3.4,3.8,7.7,5.5,12.8,5.5c3.3,0,6.5-0.5,9.7-1.2
		c1.1-0.2,1.5-0.7,1.3-1.9c-0.1-0.9-0.4-1.9-0.5-2.8c-0.2-1.1-0.7-1.2-1.7-0.9c-3.9,1.1-7.8,1.5-11.8,0.6c-2.9-0.6-4.5-2.7-5.4-5.3
		c-0.6-1.8-0.1-2.4,1.8-2.5c5.9,0,11.8,0,17.6,0c2.2,0,2.2,0,2.2-2.2c0-1.5,0.1-3-0.2-4.5c-1.1-6.7-6.4-11.1-13.2-11.2
		c-4.1-0.1-7.6,1.1-10.8,3.6c-1.1,0.9-1.7,2.2-2.8,3C63.3,39,63.1,38.9,63,38.8z"/>
	<path class="st7" d="M146.1,27.5c-0.1,0-0.3,0-0.4,0c1.7-1.7,3.8-2.6,6.3-2.6c6,0.1,11.9,0.2,17.9,0c7.5-0.3,11.3,3.1,10.5,10.7
		c-0.1,0.5,0.2,1.1-0.3,1.6c-0.2-0.2-0.3-0.4-0.3-0.7c-0.2-1.8,0-3.7-0.5-5.5c-0.7-2.7-2.3-4.2-5-4.8c-1.1-0.2-2.2-0.3-3.4-0.3
		c-5.8,0-11.6,0-17.5,0c-2.3,0-4.5,0.2-6.5,1.5C146.7,27.5,146.4,27.6,146.1,27.5z"/>
	<path class="st9" d="M172.5,56.2c-0.3,0.4-0.8,0.3-1.2,0.3c-6.4,0-12.8,0-19.2,0c-0.4,0-0.9,0.1-1.2-0.3c0.2-0.1,0.4-0.1,0.5,0
		C158.4,56.2,165.5,56.2,172.5,56.2z"/>
	<path class="st10" d="M63.3,58.1c-0.1,0-0.2,0-0.3,0c-1.6-2.6-2.3-5.4-2.5-8.4c0-0.4,0.1-0.8,0.1-1.2c0.2-0.1,0.4-0.1,0.6,0.1
		c0.2,2.2,0.4,4.4,1.3,6.5c0.2,0.6,0.4,1.1,0.7,1.7C63.4,57.2,63.6,57.7,63.3,58.1z"/>
	<path class="st10" d="M60.9,48.5c-0.1,0-0.2,0-0.3,0c-0.3-3.2,0.5-6.1,2-8.9c0.1-0.2,0.3-0.5,0.4-0.7c0.1,0,0.2,0,0.3,0
		c0.3,0.4,0.2,0.8,0,1.2c-1.1,2.4-1.9,4.8-1.9,7.4C61.3,47.9,61.3,48.2,60.9,48.5z"/>
	<path class="st11" d="M180.1,36.5c0,0.2,0,0.4,0,0.6c0,0,0,0,0,0c-0.4,0.3-1-0.1-1.4,0.3c-1.5,0.5-3.1,0.9-4.6,1.5
		c-0.5,0.2-0.9,0.3-1.4,0.2c0-0.1,0-0.2,0-0.4c0.2-0.2,0.4-0.4,0.7-0.5c1.8-0.7,3.5-1.2,5.3-1.8C179.2,36.3,179.7,36.2,180.1,36.5z"
		/>
	<path class="st12" d="M35.1,46.3c0,0-0.1,0-0.1,0c-2.7-1.6-2.7-1.6-0.8-3.9c0.7-0.8,1-1.9,2.1-2.4c-0.5,1.4-1.5,2.4-2.4,3.4
		c-0.8,0.9-0.5,1.3,0.2,1.9C34.4,45.5,35,45.6,35.1,46.3z"/>
	<path class="st13" d="M151.4,56.2c-0.2,0-0.4,0-0.5,0c0-1.8,0-3.6,0-5.4c0.7,0.1,0.5,0.6,0.5,1.1C151.4,53.3,151.4,54.7,151.4,56.2
		z"/>
	<path class="st14" d="M23.1,43.3c-1.5,1.8-0.7,3,1,4c0.1,0.1,0.1,0.2,0.2,0.4c-0.9-0.3-1.4-1-2.2-1.5c-0.7-0.4-0.6-1.1-0.1-1.7
		C22.3,44.1,22.6,43.6,23.1,43.3z"/>
	<path class="st15" d="M152.6,40.2c-0.6-0.9-0.3-1.9-0.3-2.8c0-1.3-0.4-2.7,0.3-4C152.6,35.7,152.6,38,152.6,40.2z"/>
	<path class="st7" d="M127,33.4c0.6,1.3,0.1,2.8,0.3,4.1c0.1,0.5,0,1,0,1.5c-0.6-1.3-0.1-2.8-0.3-4.1C126.9,34.5,127,33.9,127,33.4z
		"/>
	<path class="st7" d="M143.8,32.6c0,1.6,0,3.2,0,4.8c-0.1,0.1-0.2,0.1-0.3,0C143.6,35.8,143.1,34.1,143.8,32.6z"/>
	<path class="st9" d="M143.5,37.4c0.1,0,0.2,0,0.3,0c0,1.4,0,2.8,0,4.3C143.1,40.3,143.6,38.8,143.5,37.4z"/>
	<path class="st7" d="M135.5,32c-0.5-0.5-0.2-1.1-0.3-1.7C135.7,30.8,135.4,31.4,135.5,32z"/>
	<path class="st7" d="M98.5,40.5c0.5,0.4,0.2,0.9,0.3,1.4C98.3,41.6,98.6,41,98.5,40.5z"/>
	<path class="st7" d="M178.7,37.4c0.4-0.4,0.9-0.2,1.4-0.3C179.8,37.6,179.2,37.3,178.7,37.4z"/>
	<path class="st16" d="M117.1,25.4c3.3,0,6.5,0,9.8,0c1.6,0,3.1,0.3,4.6,0.9c2,0.8,2.8,2.6,3.3,4.5c0.4,1.5,0.3,3,0.3,4.5
		c0,0.7-0.2,1.2-0.9,1.4c-1.8,0.6-3.5,1.2-5.2,1.7c-0.8,0.3-1.1-0.1-1.1-0.9c0-1.1,0-2.3,0-3.4c0-0.9-0.3-1.3-1.2-1.3
		c-6.2,0-12.4,0-18.6,0c-0.7,0-1.2,0.2-1.1,1c0,1.9,0,3.8,0,5.7c0,1.1,0.7,0.9,1.3,0.9c6.3,0,12.6,0,18.9,0c1.5,0,3,0.4,4.4,0.9
		c2.7,1,3.5,3.2,3.8,5.8c0.4,3.2,0.4,6.4,0.1,9.6c-0.6,6.8-3.5,7.8-8.5,7.9c-6.7,0.2-13.5,0.1-20.2,0c-1.7,0-3.5-0.1-5.1-1
		c-2.7-1.4-3.4-3.9-3.6-6.6c-0.1-0.8,0.1-1.6,0-2.4c-0.4-1.7,0.6-2.4,2-2.7c1.6-0.3,3.1-0.7,4.6-1.2c0.9-0.3,1.2,0.4,1.2,1.1
		c0,1.2,0.1,2.5,0,3.7c0,0.9,0.2,1.3,1.2,1.3c6.6,0,13.2,0,19.8,0c1,0,1.2-0.4,1.2-1.3c0-1.9-0.1-3.8,0-5.7c0-1.2-0.4-1.6-1.6-1.5
		c-6.4,0-12.9,0.1-19.3,0c-2.1,0-4.3-0.4-5.8-2.1c-1-1.1-1.6-2.4-1.8-3.9c-0.4-3.4-0.5-6.9,0-10.3c0.6-4.5,3.1-6.6,7.5-6.7
		C110.2,25.4,113.6,25.4,117.1,25.4z"/>
	<path class="st6" d="M180.1,36.5c-2.3,0.7-4.5,1.4-6.8,2.1c-0.6,0-0.4-0.5-0.5-0.8c0-1.3,0-2.7,0-4c0-0.8-0.3-1.2-1.2-1.2
		c-6.3,0-12.6,0-18.9,0c-0.9,0-1.2,0.4-1.2,1.2c0,2,0,4,0,6c0,1.1,0.8,1,1.5,1c6.2,0,12.4,0,18.6,0c1.6,0,3.1,0.3,4.5,0.9
		c2.8,1.2,3.9,3.6,3.9,6.5c0,3.5,0.2,7.1-0.1,10.6c-0.2,2.3-1.7,4.4-3.9,5.1c-1.4,0.4-2.9,0.6-4.3,0.6c-6.7,0-13.5,0-20.2,0
		c-1.4,0-2.7-0.1-4-0.6c-1.2-0.4-2.3-0.9-2.9-2.1c-1.3-1.6-1.4-3.5-1.7-5.4c-0.1-0.5,0-1,0-1.6c0-2,0-2.1,1.9-2.6
		c1.5-0.4,3.1-0.9,4.6-1.1c0.7-0.1,1,0,1,0.8c-0.1,1.3,0,2.6,0,3.8c0,0.9,0.2,1.3,1.2,1.3c6.7,0,13.4,0,20.2,0
		c0.9,0,1.3-0.4,1.3-1.3c0-1.9,0-3.9,0-5.8c0-1.6,0-1.6-1.6-1.6c-6.5,0-13.1,0-19.6,0c-1.7,0-3.3-0.5-4.7-1.3
		c-2.4-1.3-2.7-3.7-2.8-6c-0.1-3.2-0.3-6.5,0.2-9.8c0.2-1.5,1.1-2.6,1.6-3.9c1.9-1.5,4-2.1,6.4-2.1c6.4,0,12.9,0,19.3,0
		c1.1,0,2.3,0.2,3.3,0.5c3.7,1,4.7,4.2,4.9,7C180.2,34.1,180.1,35.3,180.1,36.5z"/>
	<path class="st3" d="M185.9,48.5c0-0.4,0.1-0.9-0.1-1.3c-0.8-1.8-0.5-3.9-1.6-5.6c-0.2-0.3-0.2-0.9,0.4-1.1
		c0.9-0.2,0.7-0.9,0.7-1.5c-0.2-3.2,0.4-6.4-0.5-9.7c-0.9-3.4-2.6-6.1-5.7-7.7c-2.4-1.2-4.9-1.8-7.7-1.8c-6.6,0-13.3,0-19.9,0
		c-1.4,0-2.8,0.3-4.1,0.8c-3.2,1.1-6.1,2.9-7.3,6.4c-0.1,0.3-0.3,0.7-0.8,0.8c-0.8-2-2.1-3.5-3.7-5c-2.4-2.3-5.4-2.7-8.3-2.8
		c-6.6-0.3-13.3,0-19.9-0.1c-1.7,0-3.3,0.6-4.9,0.8c-0.6,0.1-1.5,0.3-2.2,0.7c-1.4,0.7-2.3,1.9-3.4,2.9c-1.8,1.8-2.8,4.1-2.7,6.6
		c0,1.5-0.9,2.8-0.7,4.2c0,0-0.2,0.1-0.4,0.1c-0.1,0.4,0.1,0.6,0.6,0.6c0.2,0,0.5-0.1,0.4-0.3c-0.7-1.6,0.6-3,0.5-4.5
		c-0.2-2.2,0.9-4.2,2.1-5.9c2.5-3.7,6.4-4.8,10.4-4.8c7.6,0,15.3-0.8,22.9,0.4c1.2,0.2,2.4,0.4,3.3,0.9c2.7,1.5,4.9,3.4,5.6,6.5
		c0.1,0.3,0.1,0.6,0.5,0.6c0.4,0,0.4-0.3,0.5-0.6c0.5-1.1,0.9-2.2,1.6-3.1c2.5-3.3,6.2-4.7,10.2-4.9c5.7-0.3,11.4,0,17.1-0.1
		c2.6,0,5,0.1,7.5,0.9c2.5,0.8,4.7,1.8,6.2,4.1c1.5,2.3,2.5,4.8,2.5,7.5c0,1.8,0,3.7,0,5.5c0,0.8,0.1,1.6-0.8,2.1
		c-0.6,0.4-0.4,1.1-0.2,1.7c0.9,2.6,1.6,5.2,1.6,7.9c-0.1,3.3,0.4,6.7-0.6,10c-0.6,2-1.2,3.8-2.6,5.5c-2.6,3.2-6.3,4.1-9.8,4.2
		c-7.9,0.1-15.9,0.8-23.8-0.4c-2.1-0.3-4-0.9-5.9-1.7c0,0-0.1,0-0.1,0.1c0,0.1,0,0.1,0.1,0.2c0.4,0.7,1.2,0.4,1.7,0.8
		c2.2,1.3,4.7,1.5,7,1.5c8.1-0.1,16.2,0.7,24.3-0.5c3.2-0.5,5.9-2.2,7.5-4.8c1.7-2.7,2.5-5.9,2.4-9.3
		C185.9,53.1,185.9,50.8,185.9,48.5z"/>
	<path class="st17" d="M144.9,61.6c0,0.3,0,0.6,0,0.9c-2.3-2.7-2.3-6-2.1-9.2c0-1.2,1.3-0.9,2-1.2c1.5-0.5,3.1-0.8,4.6-1.2
		c1-0.3,1.3,0.1,1.2,1c-0.1,1.2,0,2.5,0,3.7c0,0.9,0.2,1.3,1.2,1.3c6.6,0,13.2,0,19.7,0c1,0,1.4-0.4,1.3-1.3c0-1.8-0.1-3.7,0-5.5
		c0.1-1.1-0.3-1.5-1.4-1.5c-6.6,0.1-13.2,0-19.7,0c-1.6,0-3.3-0.2-4.6-1.4c2.6,1.1,5.4,1.2,8.2,1.1c5.4-0.1,10.9,0,16.3,0
		c1.3,0,1.8,0.4,1.7,1.7c-0.1,1.8,0,3.7,0,5.5c0,1.2-0.4,1.9-1.9,1.9c-6.6,0-13.2,0-19.7,0c-1.1,0-1.5-0.4-1.5-1.5
		c0.1-1.3,0-2.6,0-3.8c0-0.7-0.2-0.8-0.8-0.7c-1.9,0.4-3.8,0.8-5.6,1.4c-0.4,0.1-0.7,0.2-0.7,0.7c-0.1,2.6,0.1,5.1,1,7.5
		C144.3,61.2,144.6,61.4,144.9,61.6z"/>
	<path class="st6" d="M60.9,48.5c-0.1-3.2,0.6-6.3,2.3-9.1c0.1-0.2,0.1-0.4,0.1-0.6c3.7-5.6,9.2-7.4,15.6-6.8
		c6.3,0.6,11.1,6.1,11.7,11.4c0.3,2.1,0.1,4.1,0.3,6.2c0.1,1.1-0.5,1.2-1.4,1.2c-6.3,0-12.7,0-19,0c-1.6,0-1.8,0.3-1.3,1.7
		c1.3,3.6,3.5,5.4,7.1,5.6c3.4,0.2,6.8,0.1,10-1.1c1.2-0.4,1.7-0.2,1.8,1.2c0.1,1.3,0.4,2.6,0.6,3.9c0.1,0.6,0.1,1-0.6,1.1
		c-5.3,1.3-10.6,2.1-16,0.8c-3.7-0.9-6.6-3-8.8-6c-0.6-1.6-1.3-3.1-1.8-4.7C61,51.8,61,50.1,60.9,48.5z"/>
	<path class="st6" d="M116.8,64.1c-3.6,0-7.1-0.1-10.7,0c-1.4,0-2.7-0.3-4-0.7c-1.7-0.5-2.5-1.8-3.1-3.5c-0.6-1.7-0.3-3.5-0.5-5.1
		c-0.3-1.7,0.8-2.4,2-2.5c1.3-0.1,2.5-0.8,3.8-0.8c0.9,0,1.1,0.3,1.1,1c0,1.3,0,2.6,0,3.8c0,0.7,0.3,1,1,1c6.9,0,13.7,0,20.6,0
		c0.9,0,1.2-0.4,1.2-1.2c0-2-0.1-4.1,0-6.1c0.1-1.3-0.4-1.8-1.8-1.8c-6.3,0.1-12.5,0.1-18.8,0c-3.6,0-6.4-1.4-7.8-5
		c-0.1-0.4-0.2-0.8-0.2-1.2c0-3.2-0.1-6.4,0-9.7c0.1-3,2.7-6.4,6.3-6.3c7.4,0.1,14.9,0,22.3,0c3.7,0,5.7,2.7,6,6.1
		c0.1,0.9-0.1,1.8,0,2.7c0.2,1.2-0.5,1.7-1.4,1.9c-1.2,0.3-2.3,0.7-3.4,1.1c-0.9,0.3-1.6,0.1-1.5-1.1c0.1-1.1,0-2.2,0-3.3
		c0-0.8-0.3-1.2-1.2-1.2c-6.4,0-12.9,0-19.3,0c-0.9,0-1.1,0.4-1.1,1.2c0,2,0.1,4,0,6c0,1.1,0.4,1.4,1.4,1.3c6.3,0,12.5-0.2,18.8,0.1
		c2.2,0.1,4.6,0.2,6.3,2c1.3,1.3,1.8,3,1.9,4.7c0.2,3.2,0.3,6.5,0,9.7c-0.2,2.3-0.8,4.8-3.2,6c-1.1,0.5-2.2,0.9-3.5,0.9
		C124.3,64.1,120.6,64.1,116.8,64.1z"/>
	<path class="st16" d="M76.3,45.9c-2.1,0-4.2,0-6.2,0c-1.8,0-1.8-0.1-1.3-1.8c0.4-1.3,0.9-2.4,1.7-3.5c1.2-1.6,2.9-2.3,4.7-2.6
		c2-0.4,4.1,0.1,5.8,1.2c1.5,1,2.3,2.6,2.8,4.4c0.1,0.2-0.1,0.5,0,0.7c1.1,1.8-0.3,1.6-1.4,1.6C80.4,45.9,78.3,45.9,76.3,45.9z"/>
	<path class="st18" d="M76.2,45.7c-2,0-4.1,0-6.1,0c-0.8,0-1.1-0.2-0.9-1.2c1.2-6.1,7.1-7,11.1-5c1.9,1,2.6,2.8,3.1,4.8
		c0.2,1-0.2,1.4-1.2,1.3C80.2,45.6,78.2,45.7,76.2,45.7z"/>
	<path class="st19" d="M76,45.4c-1.8,0-3.7,0-5.5,0c-0.6,0-1.1-0.1-0.6-0.8c0.4-0.6,0-1.4,0.4-2c1.1-2.2,3-3.2,5.4-3.4
		c1.6-0.1,3.1,0.1,4.6,1.1c1.1,0.7,2.5,3.2,2.4,4.5c-0.1,0.8-0.6,0.7-1.1,0.7C79.7,45.4,77.8,45.4,76,45.4z"/>
</g>
</svg>
