<svg xmlns="http://www.w3.org/2000/svg" viewBox="0 0 200 80"><defs><style>.cls-1{fill:#ba1818;}.cls-2{fill:#676767;}.cls-3{fill:none;}</style></defs><title>hbase-logo</title><g id="Calque_2" data-name="Calque 2"><path id="path3269" class="cls-1" d="M38.75,80H31.31V48.52l7.45,0ZM35,80H31.3V67.89h-24V80H0V48.51H7.34v12H35V80Z"/><path id="path3271" class="cls-1" d="M77.32,64a8,8,0,0,1,3.85,7.27A8.46,8.46,0,0,1,72.31,80H61.52V72.66H72.31q1.59,0,1.59-2.38T72.31,67.9H61.52V60.62H71.76q1.59,0,1.59-2.38t-1.59-2.38H61.52V48.52H71.76a8.48,8.48,0,0,1,6.6,2.69,8.63,8.63,0,0,1,2.2,6A8.08,8.08,0,0,1,77.32,64ZM61.52,80H41.81V60.62H61.52V67.9H49.14v4.77H61.52V80Zm0-24.14H49.14l0,5-7.34-.18,0-12.14H61.52v7.33Z"/><path id="path3273" class="cls-2" d="M84.55,40.34V37H90V35q0-1.09-.73-1.09H84.55V30.51H89.3a3.71,3.71,0,0,1,3,1.32A4.65,4.65,0,0,1,93.39,35v10H90V40.34H84.55Zm44.69,4.59H118.09a4.66,4.66,0,0,1-3.33-1.3,4.31,4.31,0,0,1-1.37-3.26V35.07a4.31,4.31,0,0,1,1.37-3.26,4.66,4.66,0,0,1,3.33-1.3h11.15v3.36H118.09q-1.34,0-1.34,1.2v5.29q0,1.2,1.34,1.2h11.15v3.36Zm35.38,0h-3.39V39.39H152.6v5.55h-3.36V30.51h3.36V36h8.63V30.51h3.39V44.93ZM200,33.87H188V36h11.23v3.36H188v2.18h12v3.36H184.62V30.51H200v3.36ZM84.55,30.51v3.36H79.78q-.7,0-.7,1.09v2h5.48v3.36H79.08v4.59H75.71V35a4.65,4.65,0,0,1,1.13-3.14,3.68,3.68,0,0,1,2.93-1.32h4.78ZM46.69,40.23V36.86h4.93q.73,0,.73-1.48t-.73-1.51H46.69V30.51h4.93a3.6,3.6,0,0,1,3,1.54,5.35,5.35,0,0,1,1.06,3.33,5.23,5.23,0,0,1-1.06,3.31,3.6,3.6,0,0,1-3,1.54Zm-29,4.71H14.31V40.34H8.84V37h5.48V35q0-1.09-.73-1.09H8.84V30.51h4.75a3.71,3.71,0,0,1,3,1.32A4.65,4.65,0,0,1,17.67,35v10ZM47,30.51v3.36H41v3h5.85L47,40.23H41v4.71H37.68V30.51H47ZM8.84,40.34H3.36v4.59H0V35a4.65,4.65,0,0,1,1.13-3.14,3.69,3.69,0,0,1,2.93-1.32H8.84v3.36H4.06q-.7,0-.7,1.09v2H8.84Z"/><path id="path3275" class="cls-1" d="M122.69,80h-7.33V70H103.4V62.64h11.95v-4.4q0-2.38-1.59-2.38H103.4V48.52h10.36a8.11,8.11,0,0,1,6.45,2.87,10.14,10.14,0,0,1,2.48,6.85ZM103.4,70H91.45V80H84.12V58.24a10.14,10.14,0,0,1,2.48-6.85A8,8,0,0,1,93,48.52H103.4v7.34H93q-1.53,0-1.53,2.38v4.4H103.4Z"/><path id="path3277" class="cls-1" d="M163.39,70.28A10.14,10.14,0,0,1,161,77.07,8.24,8.24,0,0,1,154.52,80H127.38V72.67h27.14q1.53,0,1.53-2.38t-1.53-2.38H134.78A8.24,8.24,0,0,1,128.3,65a9.76,9.76,0,0,1-2.45-6.72,10.07,10.07,0,0,1,2.51-6.85,8.13,8.13,0,0,1,6.42-2.87h27.14v7.33H134.78q-1.53,0-1.53,2.38t1.53,2.32h19.74A8.24,8.24,0,0,1,161,63.5,10.14,10.14,0,0,1,163.39,70.28Z"/><polygon id="polygon3279" class="cls-1" points="200 55.86 173.78 55.86 173.78 60.56 198.29 60.56 198.29 67.9 173.78 67.9 173.78 72.67 199.94 72.67 199.94 80 166.44 80 166.44 48.52 200 48.52 200 55.86"/></g><g id="Calque_1" data-name="Calque 1"><rect class="cls-3" width="200" height="80"/></g></svg>