<?xml version="1.0" encoding="utf-8"?>
<!-- Generator: Adobe Illustrator 20.0.0, SVG Export Plug-In . SVG Version: 6.00 Build 0)  -->
<svg version="1.1" id="Calque_1" xmlns="http://www.w3.org/2000/svg" xmlns:xlink="http://www.w3.org/1999/xlink" x="0px" y="0px"
	 viewBox="0 0 200 80" style="enable-background:new 0 0 200 80;" xml:space="preserve">
<style type="text/css">
	.st0{fill:#080808;}
	.st1{fill:#050505;}
	.st2{fill:#F9F9F9;}
	.st3{fill:#1A1A1A;}
	.st4{fill:#111111;}
	.st5{fill:#9E9E9E;}
	.st6{fill:#FEFE00;}
	.st7{fill:#66CBFE;}
	.st8{fill:#FEFECB;}
	.st9{fill:#CBCB00;}
	.st10{fill:#CACA00;}
	.st11{fill:#C9C900;}
	.st12{fill:#FBFB00;}
	.st13{fill:#F6F6C5;}
	.st14{fill:#C2C201;}
	.st15{fill:#C4C400;}
	.st16{fill:#BABA00;}
	.st17{fill:#5A5A37;}
	.st18{fill:#747400;}
	.st19{fill:#A3A300;}
	.st20{fill:#E5E592;}
	.st21{fill:#DEDEA7;}
	.st22{fill:#515100;}
	.st23{fill:#989800;}
	.st24{fill:#A2A200;}
	.st25{fill:#666600;}
	.st26{fill:#010100;}
	.st27{fill:#050500;}
	.st28{fill:#060600;}
	.st29{fill:#CACA01;}
	.st30{fill:#080800;}
	.st31{fill:#C7C700;}
	.st32{fill:#232300;}
	.st33{fill:#606000;}
	.st34{fill:#7D7D00;}
	.st35{fill:#6C6C00;}
	.st36{fill:#DCDC00;}
	.st37{fill:#969600;}
	.st38{fill:#848400;}
	.st39{fill:#FBFBC9;}
	.st40{fill:#FEFEFE;}
</style>
<title>hadoop-logo</title>
<g>
	<path d="M11,33.7c0.3-0.3,0.6-0.6,0.8-1c1.9-3.3,4.8-5.3,8.5-6.3c1.1-0.3,2.2-0.5,3.3-0.7c0.4-0.1,0.7-0.2,1-0.5
		c0.5-0.5,1-1,1.5-1.5c0.5-0.5,1.1-0.8,1.8-0.8c0.3,0,0.5-0.3,0.6-0.5c2.6-3.5,6.3-4.8,10.4-4.9c1.9,0,3.6,0.8,5.1,2
		c1.3,1,2.5,2.3,3.9,3.1c1.5,0.9,2.6,2.1,3.4,3.7c0.1,0.2,0.2,0.2,0.4,0.1c0.5-0.2,1-0.5,1.3-1c0.3-0.4,0.5-0.8,0.8-1.2
		c0.3-0.4,0.8-0.6,1.4-0.5c1,0.2,1.7,0.7,2.1,1.6c0.2,0.4,0.4,0.8,0.5,1.3c0.1,0.4,0.3,0.5,0.7,0.5c3.3,0,6.7,0,10,0
		c0.5,0,0.5,0.1,0.4,0.5c-0.4,1.8-0.8,3.7-1.3,5.5c-0.1,0.4,0,0.5,0.4,0.5c2.4,0,4.7,0,7.1,0c8.2,0,16.3,0,24.5,0
		c1.3,0,2.4,0.2,3.5,0.9c0.2,0.1,0.3,0.1,0.4,0c1.3-0.8,2.6-1.1,4.1-1c3,0,5.9,0,8.9,0c0.3,0,0.5-0.1,0.6-0.4
		c0.4-1.8,0.8-3.6,1.2-5.4c0.1-0.2,0.1-0.4,0.4-0.4c3.6,0,7.1,0,10.7,0c0,0,0.1,0,0.2,0c-0.3,1.5-0.7,3.1-1,4.6
		c-0.1,0.4-0.2,0.8-0.3,1.2c-0.1,0.6-0.1,0.6,0.5,0.6c3.3,0,6.6,0,9.9,0c2.2,0,4.4,0,6.5,0c1.2,0,2.3,0.2,3.3,0.9
		c0.2,0.1,0.3,0.1,0.4,0c1.2-0.6,2.5-0.9,3.9-0.9c12.5,0,24.9,0,37.4,0c0.6,0,1.3,0,1.9,0.2c2.1,0.5,3.4,2.2,3.3,4.4
		c-0.1,1.5-0.5,2.9-0.8,4.4c-0.6,2.7-1.1,5.3-1.8,8c-0.7,3.1-3.5,5.5-6.7,5.5c-3.2,0.1-6.4,0-9.5,0c-0.4,0-0.6,0.1-0.7,0.5
		c-0.4,1.8-0.8,3.6-1.2,5.4c-0.1,0.3-0.1,0.3-0.4,0.3c-3.5,0-7,0-10.5,0c-0.3,0-0.3-0.1-0.3-0.3c0.4-1.8,0.8-3.6,1.2-5.5
		c0.1-0.6,0.1-0.6-0.5-0.6c-5.5,0.1-11.1,0.1-16.6,0.2c-1.1,0-2.2-0.2-3.2-0.8c-0.2-0.1-0.3-0.1-0.5,0c-1.1,0.5-2.2,0.7-3.4,0.7
		c-24.4,0-48.8,0-73.2,0c-0.6,0-0.6,0-0.5-0.6c1-4.5,2-8.9,3-13.4c0.2-0.7,0.1-0.7-0.6-0.7c-1,0-2,0-3,0c-0.4,0-0.5,0.1-0.6,0.5
		c-1,4.4-2,8.7-3,13.1c-0.3,1.2-0.3,1.2-1.5,1.2c-3.1,0-6.3,0-9.4,0c-0.2,0-0.4,0-0.6,0c1.1-4.8,2.1-9.6,3.2-14.4
		c-2.1,1.2-4.3,1.4-6.6,1c-0.3-0.1-0.4,0.2-0.4,0.4c-0.3,1.4-1.1,2.5-2.5,3.1c-1.4,0.6-2.7,0.5-3.8-0.5c-0.6-0.5-1.2-1.1-1.8-1.6
		c-0.2,0.2,0,0.3,0.1,0.5c0.4,1.1,1,2.1,1.2,3.3c0.2,0.9,0.1,1.8,0.1,2.7c0,0.2,0,0.4,0.1,0.5c0.4,0.6,0.3,1.2,0.2,1.9
		c-0.2,0.9-0.7,1.4-1.6,1.4c-1.5,0.1-3,0.1-4.4-0.1c0,0-0.1,0-0.1,0c-0.6-0.5-1.1,0-1.5,0.4c-0.7,0.6-1.4,1.2-2,2
		c-0.8,1.3-2.9,1.6-4.1,0.5c-1.4-1.2-2.4-2.8-3-4.6c-0.3-1,0-1.6,1-2.2c-1.1,0-2,0-3-0.1c0.4,1.1-0.1,1.9-0.7,2.7
		c-0.3,0.5-0.6,0.9-0.5,1.6c0,0.3,0,0.6-0.1,1c-0.3,1.1-0.8,1.5-1.9,1.6c-1.6,0.1-3-0.5-4.5-0.9c-0.6-0.2-1.2-0.3-1.7-0.7
		c-0.6-0.5-0.8-1.1-0.6-1.8c0.1-0.4,0.3-0.9,0.5-1.3c-2.8-0.2-5.3-2.4-5.6-5.2c0-0.4,0-0.7,0.3-0.9c0.4-0.4,0.7-0.8,1.1-1.1
		c0.7-0.6,1-1.3,1.3-2.1c0.2-0.5,0.1-1,0-1.5c-0.1-1.3-0.2-2.7,0-4c0-0.2,0-0.3-0.3-0.3c-1.2,0.1-1.9-0.4-2.3-1.5
		c-0.2-0.5-0.3-1-0.7-1.5C6.6,34,6.5,33.5,6.6,33c0.3-1.6,2.6-3.5,4.3-3.6c0.1,0.1,0,0.2-0.1,0.3c-0.2,0.5-0.4,0.9,0,1.5
		c0.4,0.5,0.2,1.2,0.1,1.8c0,0.2,0,0.3-0.1,0.5c0,0.2-0.2,0.3-0.3,0.1c-0.2-0.2-0.3-0.4-0.4-0.6c-0.1,0.5-0.1,1.1-0.5,1.5
		C10.2,34.4,10.5,34,11,33.7z"/>
	<path class="st0" d="M5,33.5c-0.1-1.5,0.4-2.8,1.7-3.6c0,0,0.1-0.1,0.1-0.1c0,0,0,0,0.2,0C5.9,31,5.3,32.4,5.2,34
		C4.9,33.9,5.2,33.7,5,33.5z"/>
	<path class="st1" d="M31.4,17.5c-1.5,0.7-2.6,1.7-3.4,3.1C28,19.2,29.8,17.5,31.4,17.5z"/>
	<path class="st2" d="M11,33.7c-0.4,0.5-0.9,0.8-1.6,1.1c0.5-0.6,0.7-1.3,0.7-2c0.2,0.3,0.4,0.6,0.6,0.8c0.2,0.3,0.2,0,0.2-0.1
		C10.9,33.6,11,33.7,11,33.7z"/>
	<path class="st3" d="M5.5,30.4c-0.4,0.6-0.7,1.2-0.9,1.9C4.4,31.5,4.7,30.8,5.5,30.4z"/>
	<path class="st4" d="M29.4,17.7c-0.5,0.4-1,0.7-1.3,1.3C28.1,18.2,28.6,17.7,29.4,17.7z"/>
	<path class="st5" d="M5,33.5c0.1,0.1,0,0.4,0.2,0.5c0,0.1,0.1,0.2-0.1,0.4C5,34.1,5,33.8,5,33.5z"/>
	<path class="st6" d="M20.1,30.6c-0.6,0.9-1.1,1.9-1.6,2.9c-0.6,1.1-0.6,2.1,0.2,3.1c0,0,0.1,0.1,0.1,0.1c0.1,1.3,0.8,2.4,1.4,3.5
		c0.1,0.2,0.2,0.3,0.2,0.5c-0.5,1.1,0.1,1.8,0.9,2.5c0.4,0.3,0.8,0.7,1.2,0.9c1,0.8,2.2,1,3.5,0.8c1.1-0.2,2.2-0.7,3.3-1.1
		c0.7-0.3,1.5-0.5,2.2-0.8c0.6-0.2,1.1-0.3,1.7-0.2c0.4,0,0.6-0.1,0.7-0.4c0.4-0.9,0.7-1.9,0.6-2.9c-0.2-2.7-0.9-5.2-1.5-7.8
		c-0.2-0.8-0.3-1.5-0.4-2.3c-0.1-0.2,0-0.4-0.2-0.5c-0.5,2-0.4,3.9,0,5.9c0.3,1.7,0.4,3.4-0.1,5.1c-0.1,0.2-0.2,0.5-0.3,0.7
		c-0.1,0.2-0.2,0.3-0.4,0.3c-1.3,0.1-2.4,0.7-3.5,1.3c-0.7,0.3-1.3,0.7-2,1.1c-1.5,0.8-2.9,0.6-4.1-0.6c-0.9-0.9-1-1.3-0.5-2.5
		c0.7-1.5,1.5-2.8,2.3-4.2c0-0.1,0.1-0.1,0.1-0.2c-0.9,0.9-1.7,2-2.5,3.1c-0.3-0.8-0.8-1.4-1.2-2.1c0-0.8,0.2-1.5,0.5-2.1
		c1.4-2.3,2.8-4.7,4.2-7c0.9-1.4,1.9-2.7,3.2-3.9c0.7-0.3,1.4-0.3,2.1-0.4c0.7-0.1,1.4-0.3,2.2-0.4c0.1-0.2,0.3-0.2,0.5-0.2
		c0.9,0,1.5,0.5,2.1,1.1c-0.5-0.9-0.7-1.8-0.6-2.8c0.1-0.8,0.5-1.4,1.1-1.8c0.5-0.3,1-0.5,1.6-0.6c0.2-0.1,0.4,0,0.5-0.2
		c2-0.3,3.8,0.1,5.4,1.3c0.8,0.6,1.5,1.3,2.1,2.2c0.3,0.5,0.4,0.6,0.1,1.2c0.3,0,0.7-0.2,1,0c1.7,0.1,2.5,1.3,3,2.7
		c0.1,0.2,0.2,0.5-0.1,0.7c-0.4,0.2-0.9,0.4-1.4,0.5c-0.1,0.1-0.2,0.1-0.1,0.2c0.4,0.3,0.4,0.9,0.5,1.3c0,0.1,0,0.2-0.1,0.1
		c0.1,0.1,0.3,0.1,0.4,0c0.3,0,0.5,0,0.8,0c0.2,0.1,0.3,0,0.5,0c0.4,0.1,0.6,0.3,0.4,0.7c-1.5-0.5-2.6,0.2-3.2,2.2
		c0.5-0.8,1-1.7,2.1-1.8c0.1,0,0.2-0.1,0.2,0.1c-0.5,0.4-0.7,0.9-0.8,1.5c-0.1,0.4-0.1,0.9-0.1,1.3c0,0,0,0,0,0c0,0.1,0,0.2,0,0.2
		c0.1,0,0.1-0.1,0.1-0.2c0.2-0.6,0.4-1.2,0.6-1.8c0.2-0.5,0.5-0.8,1-1c0.4-0.2,0.6-0.1,0.6,0.4c0.1,1.1,0,2.1-0.2,3.2
		c0,0.2-0.1,0.3-0.1,0.6c0.3-0.3,0.3-0.6,0.4-0.9c0.5-1.6,0.7-3.2,0.4-4.9c-0.1-0.5,0.1-0.9,0.5-1c1.3-0.4,2.1-1.3,2.9-2.3
		c0.4-0.5,0.7-0.5,1.2-0.2c0.3,0.3,0.3,0.6,0.4,1c0.4,1.5,0.8,3.1,0.8,4.6c0,2.6-0.2,5.1-1.5,7.4c-1.1,1.9-2.9,2.9-5.1,3.2
		c-1.7,0.2-3.3,0-4.8-0.5c-0.2-0.1-0.4-0.1-0.7-0.2c-0.7-0.1-1.4-0.5-2-0.9c-0.1,0.1-0.1,0.3,0,0.4c0.1,0.7,0,1.3-0.2,1.9
		c-0.1,0.5-0.3,0.9-0.3,1.4c0,0.8,0.3,1.2,1.1,1.4c0.2,0.1,0.4,0,0.6,0c0.3,0,0.4,0.1,0.3,0.4c-0.8,0.3-1.6,0.1-2.3-0.4
		c-0.8-0.6-1.5-1.3-2.2-1.9c-0.1-0.1-0.3-0.3-0.5-0.3c-1-0.3-2-0.8-2.9-1.4c-0.1-0.1-0.2-0.1-0.3-0.1c-0.1,0-0.1,0.1-0.1,0.2
		c0.1,0.2,0.1,0.4,0.2,0.6c0.8,0.9,0.7,1.9,0.4,3c-0.4,1.3-0.7,2.7-1.3,3.9c-0.4,0.9-1,1.6-1.7,2.2c-0.6,0.5-1.2,1.1-1.9,1.6
		c-0.5,0.4-1.1,0.7-1.8,0.5c-0.4-0.1-0.6,0-0.8,0.4c-0.7,1.2-1.8,1.3-2.8,0.4c-0.4-0.5-0.6-1-0.7-1.5c-0.2-0.6,0-0.9,0.5-1.2
		c0.5-0.3,1.1-0.6,1.6-1c0.3-0.2,0.5-0.3,0.7,0.1c0,0.1,0.1,0.1,0.2,0.3c-0.2-1-0.1-1.9-0.1-2.8c0.1-0.2-0.1-0.4,0-0.6
		c0-0.2,0.1-0.3,0.2-0.5c0,0,0,0,0,0c-0.6,1.2-1.7,1.8-3,2c-1.1,0.2-2.1,0.3-3.2,0.3c-0.2,0-0.5,0-0.6-0.2c-0.1-0.5-0.2-1-0.3-1.5
		c-0.1-0.1-0.2-0.3-0.1-0.4c0,0.8-0.2,1.6-0.3,2.4c-0.3,1.7-1.1,3-2.7,3.8C18.1,53.3,18,53.6,18,54c0.1,0.9-0.4,1.3-1.3,1.4
		c-0.5,0-0.9,0-1.4-0.1c-0.2-0.1-0.5-0.1-0.7-0.2c-0.7-0.3-1.2-0.7-0.8-1.7c0.4-1,0.6-2.1,0.8-3.1c0-0.3-0.1-0.4-0.2-0.6
		c-0.9-1.4-1.7-2.8-2.2-4.3c-0.1-0.2-0.1-0.4-0.1-0.6c-0.2-0.7-0.3-1.4-0.3-2.1c-0.2-2.7,0-5.2,1.6-7.5c1.6-2.3,3.8-3.6,6.4-4.4
		C19.8,30.6,20,30.6,20.1,30.6z"/>
	<path class="st7" d="M91.6,35.2c2.9,0,5.8,0,8.8,0c1.6,0,2.8,1,3.1,2.4c0.2,0.8,0,1.6-0.2,2.3c-1,4.7-2.1,9.4-3.1,14.1
		c-0.1,0.3-0.2,0.4-0.5,0.4c-5.8,0-11.7,0-17.5,0c-2.3,0-3.7-1.7-3.2-4c0.3-1.3,0.6-2.6,0.9-3.9c0.5-2.3,2.7-4,5.1-4c4,0,8,0,12,0
		c0.4,0,0.5-0.1,0.6-0.5c0.3-1.6-0.3-2.4-2-2.4c-4.5,0-9,0-13.5,0c-0.7,0-0.7,0-0.5-0.6c0.3-1.2,0.5-2.3,0.8-3.5
		c0.1-0.3,0.2-0.4,0.5-0.4C85.6,35.2,88.6,35.2,91.6,35.2z"/>
	<path class="st7" d="M182.5,35.3c2.6,0,5.1,0,7.7,0c0.4,0,0.9,0,1.3,0.1c1.6,0.4,2.7,1.9,2.3,3.6c-0.8,3.9-1.7,7.8-2.6,11.7
		c-0.5,2.2-2.9,4-5.1,3.9c-3.6-0.1-7.2,0-10.7,0c-0.4,0-0.5,0.1-0.6,0.5c-0.4,1.9-0.8,3.7-1.2,5.6c-0.1,0.3-0.2,0.4-0.5,0.4
		c-1.5,0-3.1,0-4.6,0c-0.4,0-0.4-0.1-0.3-0.5c1.8-8.3,3.7-16.6,5.5-24.8c0.1-0.3,0.2-0.5,0.6-0.5C177,35.4,179.8,35.3,182.5,35.3z"
		/>
	<path class="st7" d="M113.3,54.5c-2.7,0-5.4,0-8.1,0c-1.7,0-2.9-0.9-3.2-2.4c-0.1-0.7,0-1.4,0.1-2.1c0.8-3.5,1.6-7.1,2.4-10.6
		c0.5-2.4,2.6-4.1,5.1-4.1c3.6,0,7.2,0,10.7,0c0.4,0,0.5-0.1,0.6-0.5c0.4-1.9,0.8-3.7,1.2-5.6c0.1-0.3,0.2-0.4,0.5-0.4
		c1.5,0,3.1,0,4.6,0c0.3,0,0.4,0.1,0.3,0.4c-1.8,8.3-3.7,16.6-5.5,24.8c-0.1,0.4-0.2,0.5-0.6,0.5C118.8,54.5,116.1,54.5,113.3,54.5z
		"/>
	<path class="st7" d="M134.2,54.6c-2.3,0-4.6,0-6.8,0c-2.4,0-3.8-1.7-3.3-4c0.8-3.8,1.6-7.5,2.5-11.3c0.6-2.4,2.6-4,5.1-4
		c4.6,0,9.1,0,13.7,0c1.8,0,2.9,0.9,3.3,2.4c0.1,0.5,0.1,1.1,0,1.6c-0.8,3.8-1.7,7.5-2.5,11.3c-0.5,2.3-2.7,4-5.1,4
		C138.7,54.6,136.5,54.6,134.2,54.6z"/>
	<path class="st7" d="M157.3,54.6c-2.3,0-4.6,0-6.8,0c-2.4,0-3.8-1.7-3.3-4c0.8-3.7,1.6-7.4,2.5-11.1c0.6-2.5,2.6-4.1,5.1-4.1
		c4.5,0,9.1,0,13.6,0c1.8,0,2.9,0.8,3.3,2.2c0.2,0.6,0.1,1.2,0,1.8c-0.8,3.7-1.6,7.3-2.4,11c-0.6,2.6-3,4.3-5.2,4.2
		C161.8,54.5,159.6,54.6,157.3,54.6z"/>
	<path class="st7" d="M68.8,39.9c-1.2,0-2.4,0-3.6,0c-0.4,0-0.5,0.1-0.6,0.5c-1,4.5-2,8.9-3,13.4c-0.1,0.5-0.3,0.7-0.8,0.7
		c-1.4,0-2.9,0-4.3,0c-0.4,0-0.4-0.1-0.4-0.4c1.1-5,2.3-10.1,3.4-15.1c0.7-3.2,1.4-6.4,2.1-9.5c0.1-0.5,0.3-0.6,0.8-0.6
		c1.4,0,2.9,0,4.3,0c0.4,0,0.4,0.1,0.3,0.4c-0.4,1.9-0.8,3.8-1.3,5.7c-0.1,0.4,0,0.5,0.4,0.5c3.5,0,7.1,0,10.6,0
		c0.6,0,1.2,0,1.7,0.3c1.4,0.6,2.1,2,1.8,3.6c-1.1,5-2.2,9.9-3.3,14.9c-0.1,0.2-0.1,0.3-0.4,0.3c-1.6,0-3.1,0-4.7,0
		c-0.4,0-0.3-0.2-0.3-0.5c0.7-3.2,1.4-6.3,2.1-9.5c0.2-0.9,0.4-1.7,0.6-2.6c0.2-1.1-0.4-2-1.6-2C71.4,39.9,70.1,39.9,68.8,39.9
		C68.8,39.9,68.8,39.9,68.8,39.9z"/>
	<path class="st8" d="M20.1,30.6c-3,0.8-5.5,2.4-7.1,5.2c-0.7,1.3-1.1,2.7-1.2,4.1c-0.1,1.6,0.1,3.1,0.3,4.7c0,0.1,0.1,0.2-0.1,0.2
		c-3.4-8.6,2.1-17,11.2-17.9C22.2,28.2,21.1,29.4,20.1,30.6z"/>
	<path class="st9" d="M26.4,54.1c0.1,0,0.2,0.1,0.3,0.1c1,0.6,1.9,0.4,2.4-0.6c0.2-0.4,0.4-0.6,0.9-0.4c0.7,0.2,1.3,0,1.8-0.5
		c0.6-0.6,1.2-1.1,1.9-1.6c1.3-1.1,1.9-2.6,2.4-4.2c0.3-0.8,0.4-1.7,0.7-2.5c0.2-0.7,0.1-1.3-0.3-1.9c-0.2-0.3-0.3-0.7-0.5-1.1
		c0-0.1-0.1-0.2,0-0.2c0.1,0,0.2,0,0.2,0.1c0.5,0.7,1.2,1.3,2.1,1.6c0.3,0.1,0.4,0.3,0.3,0.6c-0.1,0.6-0.2,1.2-0.4,1.8
		c-0.6,2.3-1.5,4.5-3,6.4c-0.3,0.4-0.7,0.8-1.1,1.1c-1,0.7-1.9,1.5-2.9,2.2c-0.2,0.2-0.4,0.5-0.5,0.7c-0.9,1.2-2,1.3-3,0.2
		C27.1,55.4,26.7,54.8,26.4,54.1z"/>
	<path class="st9" d="M32.6,29.5c0.4,1.4,0.7,2.8,1.1,4.3c0.4,1.6,0.7,3.3,1,4.9c0.2,1.4,0.1,2.7-0.5,3.9c-0.2,0.3-0.4,0.5-0.8,0.5
		c-1.4-0.1-2.7,0.5-4,1c-1.2,0.4-2.3,0.9-3.5,1.1c-1.1,0.2-2.2,0-3.1-0.7c-0.1-0.1-0.2-0.1-0.2-0.3c1.5,0.6,3,0.4,4.4-0.4
		c1.2-0.7,2.4-1.4,3.8-1.8c0.5-0.1,0.9-0.3,1.4-0.3c0.4,0,0.6-0.2,0.7-0.6c0.8-2.4,0.7-4.7,0.2-7.1C32.8,32.5,32.6,31,32.6,29.5z"/>
	<path class="st9" d="M35,53.1c1-1,1.7-2.3,2.4-3.5c0.7-1.3,1-2.7,1.5-4c0.5,1.3,1,2.6,0.9,4c0,0.7-0.1,1.4,0.2,2.1
		c0.2,0.4,0.1,0.9-0.1,1.3c-0.1,0.3-0.4,0.4-0.6,0.4c-1.3,0-2.7,0.1-4-0.1C35.2,53.2,35.1,53.2,35,53.1z"/>
	<path class="st9" d="M44.8,40.7c0.6,0,1.2,0.2,1.9,0.3c2.1,0.4,4.2,0.4,6.2-0.7c1.4-0.8,2.4-2,3-3.4c0.6-1.5,0.8-3.1,0.9-4.7
		c0.2-2.5-0.4-4.8-1-7.2c0.3,0.1,0.5,0.4,0.6,0.7c1.3,3.7,1.8,7.5,0.4,11.3c-0.4,1.1-1.1,2.2-2,3c-1.1,1-2.4,1.5-3.9,1.7
		C48.8,42,46.7,41.5,44.8,40.7z"/>
	<path class="st8" d="M27.9,23.9c-0.2,0.5-0.7,0.8-1,1.2c-1,1.2-1.9,2.5-2.7,3.9c-0.8,1.4-1.6,2.8-2.5,4.2c-0.7,1.1-1.4,2.3-1.6,3.6
		c-0.2-0.2-0.4-0.5-0.5-0.7c-0.5-0.6-0.5-1.3-0.2-2.1c0.7-1.5,1.5-2.9,2.6-4.2c1.6-1.7,2.9-3.5,4.6-5.1C26.9,24.4,27.3,24,27.9,23.9
		z"/>
	<path class="st9" d="M15.3,55.3c0.4,0,0.8,0,1.2,0c1,0,1.5-0.6,1.3-1.6c-0.1-0.3,0-0.4,0.3-0.6c1.9-0.9,2.8-2.4,3-4.4
		c0.1-0.7,0.2-1.4,0.4-2.2c0,0.3,0.1,0.5,0.1,0.8c-0.2,0.7-0.1,1.5-0.1,2.2c0.1,1.3-0.1,2.4-0.9,3.4c-0.4,0.5-0.6,1-0.5,1.6
		c0,0.2,0,0.4-0.1,0.6C20,55.8,19.8,56,19.2,56C17.8,56.1,16.6,55.7,15.3,55.3z"/>
	<path class="st8" d="M37,18.8c-0.3,0.1-0.6,0.2-0.9,0.3c-1.7,0.7-2,1.6-1.7,3.4c0.1,0.6,0.4,1.1,0.6,1.7c-0.7-0.6-1.4-1.2-2.3-1.3
		c-0.2-0.1-0.5,0-0.7,0c-0.8,0-1.6,0-2.4,0c1.7-2.6,4.5-3.5,7.3-4.2C37,18.7,37,18.8,37,18.8z"/>
	<path class="st6" d="M9.7,49.7c-0.6-0.6-1-1.3-1.1-2.1c-0.1-0.4,0-0.7,0.3-1c0.5-0.5,1-1,1.5-1.5c0.2,0.1,0.2,0.2,0.3,0.4
		c0.3,0.9,0.7,1.8,1.2,2.7c0.3,0.5,0.1,1.4-0.4,1.7c0,0-0.1,0.1-0.1,0.1C10.8,49.9,10.2,50.1,9.7,49.7z"/>
	<path class="st9" d="M9.7,49.7c0.5,0.2,1,0,1.5,0.2c0.2,0.1,0.3-0.2,0.4-0.3c0.3-0.5,0.5-0.9,0.1-1.5c-0.6-0.9-1-1.9-1.3-2.9
		c0.1-0.3,0.3-0.6,0.5-1c0.2,0.5,0.4,1.1,0.6,1.6c0.5,1.4,1.2,2.7,2,4c0.4,0.7,0,1.6-0.8,1.6c-0.3,0-0.5,0-0.8-0.1
		C11,50.8,10.3,50.3,9.7,49.7z"/>
	<path class="st9" d="M9.2,32c-0.1,0.9,0,1.8-0.6,2.5c-0.2,0.3,0.2,0.6,0.3,0.9c0.1,0.3,0.4,0.3,0.7,0.2c0.5-0.1,0.9-0.4,1.4-0.7
		c0.1,0.8-0.3,1.3-1,1.5c-1,0.2-1.4,0-1.7-0.8c-0.2-0.4-0.2-0.9-0.5-1.3c-0.2-1,0.2-1.7,1-2.2C8.9,32,9,31.9,9.2,32z"/>
	<path class="st9" d="M21.9,48.9c0.1,0.1,0.2,0.1,0.4,0.1c1.6,0,3.1-0.2,4.6-0.6c0.8-0.2,1.1-0.8,1.5-1.4c0.2-0.2,0.4-0.4,0.6-0.6
		c-0.1,0.3-0.3,0.6-0.4,0.9c-0.1,0.1-0.1,0.3-0.2,0.4c-0.1,0.3-0.3,0.6-0.3,0.9c-0.1,0.5-0.4,0.6-0.8,0.7c-1.7,0.2-3.4,0.3-5.1,0
		C22.1,49.2,21.9,49.2,21.9,48.9z"/>
	<path class="st10" d="M44.3,45.4c0-0.3-0.1-0.4-0.4-0.4c-0.2,0-0.4,0.1-0.5-0.1c0.4,0,0.7,0,1.1-0.1c0,0,0.1-0.1,0.1-0.1
		c0,0-0.1,0-0.1,0c-0.6,0-1.1,0-1.6-0.5c0.3-0.1,0.5,0.1,0.7,0.1c1.3,0.3,2.2-0.2,2.4-1.5c0-0.1,0.1-0.3,0.1-0.4
		c0.1-0.4,0.3-0.3,0.5-0.2c0.3,0.1,0.2,0.2,0.2,0.4c-0.3,1.4-0.9,2.4-2.3,2.8C44.4,45.4,44.3,45.4,44.3,45.4z"/>
	<path class="st9" d="M20.4,40.8c-0.7-1-1.3-2-1.6-3.2c-0.1-0.3,0-0.6,0-0.9c0.6,0.8,1.2,1.6,1.7,2.4C20.8,39.7,20.7,40.3,20.4,40.8
		z"/>
	<path class="st10" d="M49,26.6c0.1-0.1,0.1-0.3,0.1-0.4c-0.3-1.1-0.9-2.1-1.9-2.7c-0.3-0.2-0.7-0.1-1-0.2c0.1-0.1,0.3-0.1,0.5,0
		c1,0,1.7,0.6,2.4,1.2c0.6,0.6,1.1,1.4,1.5,2.3C49.9,26.8,49.5,26.5,49,26.6z"/>
	<path class="st11" d="M46.6,23.3c-0.2,0-0.3,0-0.5,0c-0.4,0-0.8,0.1-1.3,0.2c0.7-0.7,0.3-1.1-0.1-1.6c-0.5-0.6-1-1.2-1.6-1.7
		C43,20.1,43,20,42.9,19.9c0.7,0.4,1.2,0.9,1.8,1.4c0.7,0.5,1.3,1.1,2,1.7c-0.1,0.2-0.3,0.1-0.5,0.2C46.3,23.2,46.5,23.3,46.6,23.3z
		"/>
	<path class="st12" d="M9.2,32c-0.8,0.5-1.5,1.1-1.4,2.2c0,0.1,0,0.1-0.1,0.2c-0.3-0.3-0.3-0.7-0.2-1.1c0.3-1.1,1.1-1.7,1.9-2.3
		c0,0,0.1,0,0.1,0.1C9.4,31.3,9.3,31.6,9.2,32z"/>
	<path class="st13" d="M48.2,28.1c0.1-0.3,0.3-0.4,0.6-0.4c0.3,0.1,0.4,0.2,0.4,0.5c0,0.2-0.2,0.3-0.4,0.3c-0.2,0-0.3,0.1-0.5,0.1
		C48.1,28.5,48,28.3,48.2,28.1z"/>
	<path class="st14" d="M48.2,28.1c0,0.2,0,0.4,0.2,0.6c-0.1,0-0.1,0-0.2,0.1c-0.1,0-0.1,0-0.1,0c-0.1-0.1-0.2-0.3-0.2-0.5
		c0-0.3-0.1-0.5-0.3-0.7c-0.2-0.2-0.2-0.4,0.2-0.4c0.1,0.4,0.4,0,0.5,0.2C48.2,27.6,47.9,27.8,48.2,28.1z"/>
	<path class="st15" d="M50,29.6c0-0.5-0.2-0.7-0.7-0.7c-0.1,0-0.1-0.1-0.2-0.1c0.2,0,0.4,0,0.6,0c0.5-0.1,0.6,0.2,0.7,0.6
		C50.4,29.8,50.3,29.7,50,29.6z"/>
	<path class="st16" d="M10.3,32c-0.5-0.1-0.6-0.3-0.3-0.7C10.3,31.5,10.3,31.7,10.3,32z"/>
	<path class="st17" d="M32,23c0.2-0.1,0.5-0.2,0.7,0c-0.2,0-0.3,0.1-0.5,0.1C32.1,23,32,23,32,23z"/>
	<path class="st18" d="M28.5,47.7c0-0.2,0.1-0.3,0.2-0.4c0,0.2,0,0.4-0.1,0.6C28.6,47.9,28.6,47.7,28.5,47.7z"/>
	<path class="st19" d="M50.6,27.4c-0.2-0.1-0.3-0.3-0.3-0.4c0.2-0.1,0.2,0,0.2,0.1C50.6,27.1,50.6,27.2,50.6,27.4z"/>
	<path class="st20" d="M37,18.8c0,0-0.1-0.1-0.1-0.1c0.2-0.1,0.4-0.1,0.6-0.1C37.4,18.8,37.2,18.8,37,18.8z"/>
	<path class="st21" d="M12,44.9c0-0.1,0.1-0.1,0.1-0.2c0.1,0.2,0.1,0.4,0.1,0.6C12.1,45.2,12,45,12,44.9z"/>
	<path class="st22" d="M48.3,33c0,0.1-0.1,0.2-0.2,0.4c0-0.2,0-0.4,0.1-0.5C48.2,33,48.3,33,48.3,33z"/>
	<path class="st23" d="M48,28.7c0,0,0.1,0,0.1,0c0.1,0,0.1,0.1,0.2,0.1c-0.1,0.1-0.3,0.1-0.4,0.1C47.9,28.8,48,28.8,48,28.7z"/>
	<path class="st24" d="M49.1,30.1c0-0.1-0.1-0.1-0.2-0.1c0.1-0.1,0.3-0.1,0.4-0.1C49.3,30,49.2,30.1,49.1,30.1z"/>
	<path class="st25" d="M44.4,44.7c0.1-0.1,0.2-0.1,0.3-0.1c-0.1,0.1-0.1,0.2-0.2,0.2C44.4,44.8,44.4,44.8,44.4,44.7z"/>
	<path class="st9" d="M32.4,25c0.2,0,0.5,0,0.7,0c-2.5,1.1-4.2,2.8-4.5,5.7c0-0.2-0.1-0.3-0.1-0.5c0-0.2,0-0.4,0-0.5
		c0-0.3,0-0.6-0.3-0.7c-0.4-0.1-0.6,0.2-0.7,0.5c-0.3,0.6-0.6,1.3-0.9,1.9c-0.5,1-1.2,1.8-1.9,2.7c-0.1,0-0.1,0-0.1-0.1
		c0.6-1.2,1.2-2.4,1.6-3.6c0.4-1.1,0.9-2.2,1.5-3.2c0.2-0.3,0.4-0.6,0.8-0.8c0.1-0.1,0.2-0.1,0.3,0c0.1,0.1,0.1,0.2,0,0.3
		c-0.2,0.5-0.2,1-0.2,1.5c0.1-0.3,0.2-0.7,0.4-1c0.5-1.2,1.5-1.6,2.7-1.9c0.1,0,0.2,0,0.3-0.1C32.1,25,32.3,25,32.4,25z"/>
	<path d="M38.9,30.7c0.4-0.6,0.9-1.2,1.4-1.7c0.4-0.4,0.9-0.6,1.5-0.7c0.3-0.1,0.7-0.1,1-0.2c-0.4,0.4-0.2,0.7,0.2,1
		c0.1,0.1,0.1,0.2,0.2,0.3c0.1,0.4,0.3,0.5,0.6,0.4c0.1,0,0.2,0,0.4,0c0.1,0,0.2-0.1,0.2,0.1c0,0-0.1,0-0.1,0
		C43.1,30.3,42,31,41,31.9C41,31.9,40.9,32,40.7,32c-0.1,0-0.1-0.1-0.2-0.1c0-0.1,0-0.2,0.1-0.3c0.2-0.2,0.3-0.4,0.5-0.6
		c0.1-0.1,0.4-0.2,0.2-0.4c-0.1-0.2-0.4-0.2-0.6-0.1c-0.2,0.1-0.2,0.2-0.3,0.4c0,0.1,0,0.3-0.1,0.4c-0.3,0-0.4-0.3-0.5-0.5
		c-0.1-0.3-0.2-0.3-0.5-0.1C39.3,30.7,39.1,30.9,38.9,30.7z"/>
	<path class="st26" d="M32.1,25.2c-0.3,0.1-0.6,0.3-1,0.3c-1.4,0.2-1.9,1.3-2.3,2.4c-0.1,0.2-0.1,0.4-0.2,0.7
		c-0.2-0.8-0.2-1.6,0.3-2.3c-0.5,0.3-0.8,0.6-1.1,1c-0.5,0.8-0.9,1.7-1.3,2.6c-0.1,0.2-0.1,0.4-0.3,0.4c0.2-1.2,0.7-2.4,1.2-3.5
		c0.2-0.4,0.4-0.7,0.7-1c0.3-0.3,0.6-0.4,1-0.5c0.9-0.1,1.9-0.2,2.8-0.3C32,25,32.1,25,32.1,25.2z"/>
	<path class="st10" d="M51.6,27.9c1.4-0.3,2.4-1,3.2-2.2c0.1-0.1,0.2-0.2,0.3-0.3c0.1-0.1,0.3-0.3,0.4-0.1c0.2,0.2-0.1,0.3-0.1,0.4
		c-0.5,1-1.4,1.7-2.4,2.2c-0.4,0.2-0.8,0.2-1.2,0.1C51.6,28,51.6,28,51.6,27.9z"/>
	<path class="st27" d="M51.7,28c1.3,0.1,2.1-0.6,2.9-1.4c0.3-0.3,0.4-0.6,0.7-0.8c0,0.6-0.3,1-0.7,1.4C53.8,28,52.9,28.6,51.7,28
		C51.6,28,51.6,28,51.7,28z"/>
	<path class="st10" d="M40.8,32c1.1-0.9,2.2-1.7,3.5-2.2c-0.6,0.4-1.3,0.8-1.9,1.2c-0.9,0.6-1.6,1.4-2.2,2.4c0-0.5,0-0.9,0.2-1.2
		C40.5,32.2,40.6,32,40.8,32z"/>
	<path class="st28" d="M37.2,27.7c0-1.4,0.5-2.2,1.8-2.6c0.1,0,0.3-0.2,0.3,0.1c-0.8,0.7-1.5,1.5-1.7,2.5c0,0.1-0.1,0.2-0.2,0.2
		C37.2,27.9,37.3,27.8,37.2,27.7z"/>
	<path class="st29" d="M38.9,30.7c0.3,0,0.4-0.2,0.6-0.3c0.2-0.2,0.4-0.3,0.4,0.1c0,0.3,0.2,0.5,0.4,0.7c0.2,0.1,0.4,0.1,0.4,0.4
		c0,0.1-0.1,0.2-0.1,0.3c0,0.1-0.1,0.2-0.2,0.2c-0.3-0.2-0.7-0.4-0.8-0.8c-0.1-0.3-0.3-0.5-0.7-0.3c-0.1,0-0.2,0-0.3,0
		C38.6,30.7,38.8,30.8,38.9,30.7z"/>
	<path class="st10" d="M37.2,27.7c0.1,0.2,0.1,0.1,0.2-0.1c0.3-1,0.8-1.8,1.7-2.3c0.1,0,0.1-0.1,0.2-0.1c-0.1,0.4-0.5,0.5-0.7,0.8
		c-0.7,0.9-1,1.9-1.2,3.1C37.3,28.6,37.3,28.2,37.2,27.7z"/>
	<path class="st11" d="M43.8,29.7c-0.4,0.2-0.6,0.2-0.7-0.3c-0.1-0.4-0.5-0.7-0.9-0.9c0.1-0.2,0.5-0.2,0.6-0.5
		C43,28.6,43.6,29.1,43.8,29.7z"/>
	<path class="st30" d="M43.1,38.9c0,0-0.1,0.1-0.1,0.1c0,0.1-0.1,0.1-0.1,0.1c-0.6,0.2-1,0.6-1.2,1.2c0,0.1-0.1,0.2-0.2,0.3
		c-0.1,0-0.1-0.1-0.1-0.2c0-0.2,0.1-0.4,0.1-0.6c0.1-0.5,0.3-0.7,0.8-0.8c0.3-0.1,0.6-0.1,0.9-0.2C43.1,38.8,43.1,38.8,43.1,38.9
		C43.1,38.8,43.1,38.9,43.1,38.9z"/>
	<path class="st31" d="M41.4,40.5c0.2-0.8,0.7-1.4,1.6-1.6c-0.5,0.5-1.1,1.1-1.6,1.7C41.4,40.6,41.4,40.6,41.4,40.5
		C41.4,40.5,41.4,40.5,41.4,40.5z"/>
	<path class="st32" d="M40.4,32.1c0.1-0.1,0.1-0.2,0.2-0.2c0,0,0.1,0.1,0.1,0.1c-0.1,0.1-0.2,0.3-0.4,0.3
		C40.4,32.2,40.4,32.1,40.4,32.1z"/>
	<path class="st33" d="M32.1,25.2c-0.1,0-0.1-0.1-0.2-0.1c0.2-0.1,0.4-0.1,0.6-0.1C32.3,25,32.2,25.1,32.1,25.2z"/>
	<path class="st34" d="M44.4,29.8c-0.1,0-0.1-0.1-0.2-0.1c0.1-0.1,0.3-0.1,0.4-0.1C44.6,29.8,44.5,29.8,44.4,29.8z"/>
	<path class="st35" d="M41.4,40.5c0,0,0,0.1,0,0.1c-0.1,0-0.1,0.1-0.2,0c-0.1-0.1,0-0.2,0.1-0.3C41.4,40.4,41.3,40.5,41.4,40.5z"/>
	<path class="st36" d="M24.6,33.9C24.6,34,24.7,34,24.6,33.9c0.1,0.2,0,0.3-0.1,0.3C24.4,34.1,24.5,34,24.6,33.9z"/>
	<path class="st37" d="M51.7,28C51.6,28,51.6,28.1,51.7,28c-0.2,0.1-0.3,0.1-0.3,0c0.1,0,0.1,0,0.2-0.1C51.6,27.9,51.6,28,51.7,28z"
		/>
	<path class="st38" d="M43.1,38.9c0,0,0-0.1,0-0.1c0.1-0.1,0.2-0.1,0.2,0C43.4,38.8,43.2,38.8,43.1,38.9z"/>
	<path d="M90.7,49.9c-1.5,0-2.9,0-4.4,0c-0.5,0-1-0.1-1.2-0.6c-0.2-0.5-0.1-1,0.2-1.5c0.4-0.5,0.8-0.7,1.4-0.7c3.1,0,6.1,0,9.2,0
		c0.3,0,0.4,0.1,0.3,0.4c-0.2,0.7-0.3,1.4-0.5,2.1c-0.1,0.3-0.2,0.4-0.5,0.4C93.7,49.9,92.2,49.9,90.7,49.9z"/>
	<path d="M180.1,50.1c-1.3,0-2.5,0-3.8,0c-0.3,0-0.4,0-0.3-0.4c0.7-3.2,1.4-6.3,2.1-9.5c0.1-0.2,0.1-0.3,0.4-0.3c2.5,0,5,0,7.5,0
		c1.3,0,2,0.8,1.7,2.1c-0.4,2-0.9,4-1.3,6c-0.3,1.2-1.4,2-2.7,2C182.5,50.1,181.3,50.1,180.1,50.1z"/>
	<path d="M119.9,39.8c-0.4,1.9-0.9,3.9-1.3,5.8c-0.3,1.3-0.6,2.6-0.9,3.9c-0.1,0.3-0.2,0.5-0.6,0.5c-2.4,0-4.8,0-7.2,0
		c-1.4,0-2.1-0.9-1.8-2.3c0.4-1.9,0.8-3.8,1.3-5.7c0.3-1.3,1.4-2.2,2.8-2.2c2.5,0,5.1,0,7.6,0C119.7,39.7,119.8,39.8,119.9,39.8z"/>
	<path d="M135.2,50.1c-1.1,0-2.3,0-3.4,0c-1.2,0-1.9-0.9-1.7-2.1c0.4-2,0.9-4,1.3-6c0.3-1.2,1.3-2.1,2.6-2.1c2.3,0,4.6,0,6.9,0
		c1.2,0,1.9,0.9,1.7,2.1c-0.4,2-0.9,4-1.3,6c-0.3,1.2-1.4,2.1-2.7,2.1C137.4,50.1,136.3,50.1,135.2,50.1z"/>
	<path d="M158.4,50.1c-1.1,0-2.3,0-3.4,0c-1.2,0-1.9-0.9-1.7-2c0.4-2,0.9-4,1.3-6c0.3-1.2,1.3-2.1,2.5-2.1c2.3,0,4.7,0,7,0
		c1.2,0,1.9,0.9,1.6,2.1c-0.4,2-0.9,3.9-1.3,5.9c-0.3,1.4-1.4,2.2-2.8,2.2C160.6,50.1,159.5,50.1,158.4,50.1z"/>
	<path class="st39" d="M40.7,31.6c-0.1-0.1-0.3-0.3-0.4-0.4c0-0.3,0-0.7,0.3-0.9c0.2-0.1,0.5-0.2,0.7,0c0.4,0.2,0.4,0.4,0.1,0.6
		C41.2,31.1,41,31.3,40.7,31.6z"/>
	<path class="st40" d="M177.9,48.5c0.5-2.3,1-4.5,1.5-6.7c0-0.2,0.2-0.3,0.3-0.3c1,0,2,0,3,0c0.5,0,0.6,0.2,0.5,0.7
		c-0.4,1.8-0.8,3.6-1.2,5.5c-0.1,0.7-0.3,0.8-1,0.8C180,48.5,179,48.5,177.9,48.5z"/>
	<path class="st40" d="M111.7,48.3c-0.5,0-1,0-1.4,0c-0.5,0-0.7-0.2-0.5-0.7c0.4-1.9,0.8-3.7,1.2-5.6c0.1-0.5,0.4-0.7,0.9-0.7
		c1,0,1.9,0,2.9,0c0.3,0,0.3,0.1,0.3,0.4c-0.5,2.1-1,4.2-1.4,6.3c-0.1,0.3-0.2,0.3-0.4,0.3C112.7,48.3,112.2,48.3,111.7,48.3z"/>
	<path class="st40" d="M134.1,48.5c-0.6,0-1.2,0-1.8,0c-0.6,0-0.7-0.2-0.6-0.7c0.4-1.9,0.8-3.8,1.3-5.6c0.1-0.4,0.4-0.6,0.8-0.6
		c1.3,0,2.5,0,3.8,0c0.5,0,0.6,0.2,0.5,0.8c-0.4,1.6-0.7,3.3-1.1,4.9c-0.3,1.3-0.3,1.3-1.6,1.3C134.9,48.5,134.5,48.5,134.1,48.5z"
		/>
	<path class="st40" d="M157.3,48.5c-0.6,0-1.2,0-1.8,0c-0.5,0-0.7-0.1-0.6-0.7c0.4-1.9,0.8-3.8,1.2-5.6c0.1-0.4,0.4-0.7,0.8-0.7
		c1.2,0,2.5,0,3.7,0c0.5,0,0.6,0.2,0.5,0.7c-0.4,1.9-0.8,3.8-1.2,5.7c-0.1,0.4-0.4,0.6-0.8,0.6C158.6,48.5,157.9,48.5,157.3,48.5
		C157.3,48.5,157.3,48.5,157.3,48.5z"/>
</g>
</svg>
