<svg id="Calque_1" data-name="Calque 1" xmlns="http://www.w3.org/2000/svg" viewBox="0 0 200 80"><defs><style>.cls-1{fill:none;}.cls-2{fill:#33aae1;}.cls-3{fill:#3aa9e0;}</style></defs><title>azure-logo</title><g id="Calque_1-2" data-name="Calque 1"><rect class="cls-1" width="200" height="80"/></g><g id="Livello_1"><g id="g3000"><path id="path13" class="cls-2" d="M0,56l11.41-1.57v11H0ZM11.41,66.86V77.74L0,76.18V66.86H11.41Zm1.26-12.59,15.18-2.09V65.45H12.67ZM27.85,66.86V80L12.67,77.92V66.86Z"/><g id="flowRoot2989"><path id="path3031" class="cls-3" d="M53.61,74.31H51V64.12q0-1.25.16-3.07h0a10.69,10.69,0,0,1-.44,1.48L45.87,74.31H44L39.25,62.63a10.82,10.82,0,0,1-.42-1.57h0q.09.95.09,3.09V74.31H36.41V58.56h3.74l4.21,10.49a15.35,15.35,0,0,1,.63,1.8H45q.41-1.24.67-1.85L50,58.56h3.61Z"/><path id="path3033" class="cls-3" d="M58.56,60.7a1.57,1.57,0,0,1-1.09-.41,1.33,1.33,0,0,1-.45-1,1.36,1.36,0,0,1,.45-1,1.55,1.55,0,0,1,1.09-.42,1.6,1.6,0,0,1,1.12.42,1.35,1.35,0,0,1,.46,1,1.34,1.34,0,0,1-.46,1A1.59,1.59,0,0,1,58.56,60.7Zm1.28,13.61H57.25V63.06h2.59Z"/><path id="path3035" class="cls-3" d="M71.43,73.8a6.48,6.48,0,0,1-3.25.78A5.56,5.56,0,0,1,64.07,73,5.49,5.49,0,0,1,62.5,69a5.79,5.79,0,0,1,6.18-6.15,6.65,6.65,0,0,1,2.76.54v2.37a4.23,4.23,0,0,0-2.55-.88,3.57,3.57,0,0,0-2.69,1.09,4,4,0,0,0-1.05,2.86,3.77,3.77,0,0,0,1,2.76,3.54,3.54,0,0,0,2.65,1,4.19,4.19,0,0,0,2.64-1Z"/><path id="path3037" class="cls-3" d="M80.65,65.49a2.17,2.17,0,0,0-1.35-.36,2.32,2.32,0,0,0-1.92,1,4.51,4.51,0,0,0-.77,2.78v5.38H74V63.06H76.6v2.32h0a3.91,3.91,0,0,1,1.17-1.85,2.66,2.66,0,0,1,1.76-.66,2.23,2.23,0,0,1,1.07.21Z"/><path id="path3039" class="cls-3" d="M87.57,74.58A5.73,5.73,0,0,1,83.35,73a5.64,5.64,0,0,1-1.58-4.18,5.87,5.87,0,0,1,1.65-4.43,6.12,6.12,0,0,1,4.44-1.59A5.54,5.54,0,0,1,92,64.35a5.92,5.92,0,0,1,1.5,4.29,5.57,5.57,0,0,1-6,5.93Zm.12-9.74a3,3,0,0,0-2.4,1,4.32,4.32,0,0,0-.88,2.88,4.07,4.07,0,0,0,.89,2.78,3,3,0,0,0,2.39,1,2.87,2.87,0,0,0,2.35-1,4.38,4.38,0,0,0,.82-2.85A4.44,4.44,0,0,0,90,65.84a2.86,2.86,0,0,0-2.35-1Z"/><path id="path3041" class="cls-3" d="M95.46,74V71.6a5.23,5.23,0,0,0,3.21,1.09q2.35,0,2.35-1.36a1.06,1.06,0,0,0-.2-.65,1.88,1.88,0,0,0-.54-.48,4.43,4.43,0,0,0-.8-.37l-1-.37a11,11,0,0,1-1.27-.58,3.82,3.82,0,0,1-.94-.7,2.61,2.61,0,0,1-.56-.88,3.19,3.19,0,0,1-.19-1.15,2.63,2.63,0,0,1,.39-1.43,3.36,3.36,0,0,1,1-1,5.08,5.08,0,0,1,1.5-.64,7,7,0,0,1,1.73-.21,8,8,0,0,1,2.84.47v2.23a4.84,4.84,0,0,0-2.77-.81,3.74,3.74,0,0,0-.89.1,2.31,2.31,0,0,0-.68.27,1.36,1.36,0,0,0-.44.42,1,1,0,0,0-.16.54,1.15,1.15,0,0,0,.16.62,1.41,1.41,0,0,0,.46.45,4,4,0,0,0,.74.35l1,.35a14.51,14.51,0,0,1,1.32.6,4.48,4.48,0,0,1,1,.7,2.72,2.72,0,0,1,.64.9,3,3,0,0,1,.22,1.21,2.73,2.73,0,0,1-.4,1.49,3.32,3.32,0,0,1-1.07,1.05,5,5,0,0,1-1.55.62,8.14,8.14,0,0,1-1.85.2A7.88,7.88,0,0,1,95.46,74Z"/><path id="path3043" class="cls-3" d="M111.13,74.58A5.73,5.73,0,0,1,106.9,73a5.64,5.64,0,0,1-1.58-4.18A5.87,5.87,0,0,1,107,64.39a6.12,6.12,0,0,1,4.44-1.59,5.54,5.54,0,0,1,4.18,1.55,5.92,5.92,0,0,1,1.5,4.29,5.57,5.57,0,0,1-6,5.93Zm.12-9.74a3,3,0,0,0-2.4,1,4.32,4.32,0,0,0-.88,2.88,4.07,4.07,0,0,0,.89,2.78,3,3,0,0,0,2.39,1,2.87,2.87,0,0,0,2.35-1,4.37,4.37,0,0,0,.82-2.85,4.44,4.44,0,0,0-.82-2.87A2.86,2.86,0,0,0,111.25,64.83Z"/><path id="path3045" class="cls-3" d="M126.2,59.74a2.39,2.39,0,0,0-1.2-.3q-1.89,0-1.89,2.1v1.53h2.66v2h-2.65v9.25h-2.59V65.06h-2v-2h2V61.24a3.52,3.52,0,0,1,1.18-2.81,4.36,4.36,0,0,1,3-1,4.45,4.45,0,0,1,1.52.21Z"/><path id="path3047" class="cls-3" d="M133.67,74.19a4.56,4.56,0,0,1-2,.37q-3.33,0-3.33-3.14V65.07h-1.91v-2h1.91v-2.6l2.59-.73v3.33h2.74v2h-2.74v5.62a2.19,2.19,0,0,0,.37,1.43,1.55,1.55,0,0,0,1.23.43,1.8,1.8,0,0,0,1.14-.37v2Z"/><path id="path3049" class="cls-3" d="M155.66,74.31h-2.92l-1.44-4H145l-1.39,4h-2.91l6-15.75h3Zm-5.06-6.14-2.22-6.28a7.26,7.26,0,0,1-.21-1h0a6.33,6.33,0,0,1-.22,1l-2.2,6.28Z"/><path id="path3051" class="cls-3" d="M166,64.13l-6.18,8.19H166v2h-9.79v-1l6.31-8.31h-5.71v-2H166Z"/><path id="path3053" class="cls-3" d="M178.19,74.31H175.6V72.53h0a3.74,3.74,0,0,1-3.51,2q-4.06,0-4.06-4.79V63.06h2.59v6.46q0,3,2.38,3a2.42,2.42,0,0,0,1.89-.83,3.16,3.16,0,0,0,.74-2.19V63.06h2.59Z"/><path id="path3055" class="cls-3" d="M188.21,65.49a2.17,2.17,0,0,0-1.35-.36,2.32,2.32,0,0,0-1.92,1,4.51,4.51,0,0,0-.77,2.78v5.38h-2.59V63.06h2.59v2.32h0a3.91,3.91,0,0,1,1.17-1.85,2.66,2.66,0,0,1,1.76-.66,2.22,2.22,0,0,1,1.07.21Z"/><path id="path3057" class="cls-3" d="M199.75,69.38H192a3.21,3.21,0,0,0,1,2.41,3.68,3.68,0,0,0,2.56.85,5.72,5.72,0,0,0,3.36-1.08v2.05a7.78,7.78,0,0,1-4.13,1,5.16,5.16,0,0,1-4-1.53,6.06,6.06,0,0,1-1.44-4.31,5.93,5.93,0,0,1,1.58-4.28,5.21,5.21,0,0,1,3.93-1.65,4.54,4.54,0,0,1,3.63,1.48,6.09,6.09,0,0,1,1.29,4.12Zm-2.5-1.8a3.26,3.26,0,0,0-.66-2.14,2.22,2.22,0,0,0-1.79-.76,2.54,2.54,0,0,0-1.89.8,3.64,3.64,0,0,0-1,2.1h5.3Z"/></g></g></g></svg>