<svg id="Calque_1" data-name="Calque 1" xmlns="http://www.w3.org/2000/svg" viewBox="0 0 128 87"><defs><style>.cls-1{fill:none;}.cls-2{fill:#6a205f;}</style></defs><title>logo-xebia-studio</title><g id="Calque_2" data-name="Calque 2"><rect class="cls-1" width="128" height="87"/></g><path d="M77.35,54a1.84,1.84,0,0,0,.56-.1.47.47,0,0,0,.31-.2.41.41,0,0,0-.05-.41A1.12,1.12,0,0,1,78,53a.28.28,0,0,0-.26-.15H74.69v-.2a2,2,0,0,1,.2-.87,7.25,7.25,0,0,1,.41-.92c.1-.2.2-.46.31-.67a2.88,2.88,0,0,0,.2-.61h0v-.36a.83.83,0,0,0-.15-.46.69.69,0,0,0-.31-.36c-.15-.1-.26-.05-.46.05a4.08,4.08,0,0,0-.41.82,6.83,6.83,0,0,0-.36.92c-.1.31-.26.61-.36.92s-.2.61-.31.87a1.83,1.83,0,0,1-.2.56l-.15.46a.74.74,0,0,1-.51.31,3.52,3.52,0,0,1-.67.1c-.15,0-.31.05-.46.05a1.63,1.63,0,0,0-.46.15l-.41.26c-.05.05-.1.15-.15.2a5.6,5.6,0,0,0-1.07-1.18,14.42,14.42,0,0,0-1.84-1.18,28.55,28.55,0,0,0-2.66-1.07,2.15,2.15,0,0,1-.26-.1c0-.15.15-.31.51-.51a10.48,10.48,0,0,1,1.28-.56c.51-.2,1.07-.41,1.64-.61s1.18-.36,1.69-.51,1-.31,1.38-.41a4.76,4.76,0,0,0,.72-.2c.1-.41.05-.67-.1-.82a1.2,1.2,0,0,0-.82-.26,4.37,4.37,0,0,0-1.28.2,9.8,9.8,0,0,0-1.59.56c-.56.2-1.13.51-1.69.77s-1,.56-1.48.87a4.53,4.53,0,0,0-1,.87.8.8,0,0,0-.31.72A1.8,1.8,0,0,0,64,51c.2.1.41.26.67.36s.51.26.77.36.51.26.77.36c.41.2.87.36,1.28.56a9.38,9.38,0,0,1,1.23.67,3.24,3.24,0,0,1,.87.72,1.09,1.09,0,0,1,.36.82,1.52,1.52,0,0,1-.26.72,4.14,4.14,0,0,1-.82.87,5.81,5.81,0,0,1-1.18.77,6,6,0,0,1-1.23.46,11.31,11.31,0,0,1-1.28.26A12.47,12.47,0,0,1,63.8,58H63a2.5,2.5,0,0,1-.56-.36c-.2-.15-.36-.31-.51-.41a1,1,0,0,0-.41.36.44.44,0,0,0,0,.36,1.55,1.55,0,0,0,.26.36c.15.1.26.2.41.31l.41.26c.15.1.2.1.26.1h0a4.32,4.32,0,0,0,.87.26,5.67,5.67,0,0,0,1,.1,7.2,7.2,0,0,0,1.43-.15,11.7,11.7,0,0,0,1.43-.41,5,5,0,0,0,1.28-.67,5.93,5.93,0,0,0,1.07-.82,3.18,3.18,0,0,0,.72-1,2.75,2.75,0,0,0,.26-1.07,1.13,1.13,0,0,0-.05-.41.84.84,0,0,0,.51.1,1.42,1.42,0,0,0,.46-.05c.15-.05.31-.05.41-.1s.31-.05.46-.1a.65.65,0,0,1-.05.31c-.05.1-.05.2-.1.31v.1a2.07,2.07,0,0,0-.15.51c-.05.26-.15.51-.2.77s-.15.56-.26.82-.15.51-.2.67a.19.19,0,0,1-.05.15.38.38,0,0,0-.05.26c0,.1,0,.26.05.31h0a.51.51,0,0,0,.26.36.45.45,0,0,0,.36-.05,1.36,1.36,0,0,0,.31-.26c.1-.1.15-.2.2-.26.2-.72.41-1.38.67-2.1a16.63,16.63,0,0,1,.77-2,.61.61,0,0,1,.36-.36,1.73,1.73,0,0,1,.61-.2c.26-.05.51-.05.77-.1a3.62,3.62,0,0,0,.77-.05A.86.86,0,0,0,77.35,54Z"/><path d="M95.05,53.45c-.1,0-.26.1-.41.31a8.53,8.53,0,0,0-.61,1c-.26.46-.46,1-.77,1.69s-.51,1.33-.77,2.15l-.1-.1a1.55,1.55,0,0,0-.36-.26c-.15-.1-.26-.2-.41-.31a.78.78,0,0,1-.26-.36.46.46,0,0,0-.05-.26h0c0-.15-.05-.31-.05-.46v-.46a2.49,2.49,0,0,1,.05-.61c.05-.2.1-.41.15-.56s.05-.1.1-.26a3,3,0,0,1,.2-.41A4.73,4.73,0,0,1,92,54c.1-.2.2-.36.31-.56a5.58,5.58,0,0,1,.31-.56,2.74,2.74,0,0,0,.26-.56,1.5,1.5,0,0,1,.2-.41.86.86,0,0,0,.1-.26h0v-.05l.15-.31a3.52,3.52,0,0,0,.15-.41l.15-.46a1.42,1.42,0,0,0,.05-.46.77.77,0,0,0-.2-.56,1.17,1.17,0,0,0-.72-.31q-.54,1-1.07,2.15L90.65,53.4l-.05.05-.72-.15a3.15,3.15,0,0,0-.67-.05,4.4,4.4,0,0,0-2,.46,5.84,5.84,0,0,0-1.53,1.07,4.24,4.24,0,0,0-1,1.38,4,4,0,0,0-.36,1.33,1.63,1.63,0,0,0,.15.72H83.08l-.46-.51a.77.77,0,0,1-.2-.56,2.55,2.55,0,0,1,.2-1c.15-.36.31-.72.46-1s.31-.67.41-.92a2.74,2.74,0,0,0,.2-.82.83.83,0,0,0-.15-.46,1.11,1.11,0,0,0-.46-.36,5.09,5.09,0,0,0-.56.51c-.2.2-.41.46-.67.72s-.46.51-.72.82-.51.56-.77.87-.56.56-.82.82a9.82,9.82,0,0,1-.77.72,3.94,3.94,0,0,1-.67.46,1.36,1.36,0,0,1-.51.15,1.49,1.49,0,0,1,.1-.46,2.39,2.39,0,0,1,.26-.51c.1-.2.26-.41.36-.61s.26-.41.41-.61.26-.41.41-.61a3.44,3.44,0,0,0,.36-.56,4.73,4.73,0,0,0,.26-.51,1.49,1.49,0,0,0,.1-.46q0-.46-.61-.77a5.7,5.7,0,0,0-.46.51c-.2.26-.41.56-.67.87s-.46.72-.72,1.13-.46.77-.67,1.18a5.32,5.32,0,0,0-.41,1,1.2,1.2,0,0,0-.05.72h0a1.61,1.61,0,0,0,.51.82,1.08,1.08,0,0,0,.67.26,1.58,1.58,0,0,0,.67-.15,5.11,5.11,0,0,0,.72-.41c.26-.15.46-.36.72-.51s.46-.41.67-.56.41-.36.56-.51a.92.92,0,0,1,.36-.26v.2c.05.26.1.51.15.72a2.57,2.57,0,0,0,.26.67,2.27,2.27,0,0,0,.41.56,1.89,1.89,0,0,0,.72.41h0l.46.15a1.42,1.42,0,0,0,.46.05,1,1,0,0,0,.41-.05H84a1.51,1.51,0,0,0,.15-.2,2.17,2.17,0,0,1,.26-.36c.05-.15.15-.26.15-.36v-.05c.05.05.05.1.1.15a1.27,1.27,0,0,0,1,.41,4,4,0,0,0,.72-.1,5.54,5.54,0,0,0,.92-.36,5.36,5.36,0,0,0,1.13-.67c.41-.26.87-.61,1.33-1A8,8,0,0,0,90.14,58a2.8,2.8,0,0,0,.82.92c.05.05.1.05.15.1a1.12,1.12,0,0,0,.26.15.73.73,0,0,0,.31.1.65.65,0,0,0,.31.05.74.74,0,0,0,.36-.1v-.05a.39.39,0,0,0,.26.1.84.84,0,0,0,.51-.05,20.47,20.47,0,0,0,1.18-2.4A9.63,9.63,0,0,0,94.9,55a6.68,6.68,0,0,0,.15-1.18C95.26,53.6,95.21,53.45,95.05,53.45Zm-5.37,1.43a3.35,3.35,0,0,1-.41.67,4.91,4.91,0,0,1-.72.77,5.89,5.89,0,0,1-.87.72,4.8,4.8,0,0,1-.92.61,3.92,3.92,0,0,1-.87.36h0a2.09,2.09,0,0,1,.2-1.74,4.86,4.86,0,0,1,.82-1A4.09,4.09,0,0,1,88,54.63a3.52,3.52,0,0,1,1.23-.26h.26a.46.46,0,0,1,.26.05A.84.84,0,0,1,89.68,54.88Z"/><path d="M96.18,52a1,1,0,0,0,.15-.56.86.86,0,0,0-.15-.51.59.59,0,0,0-.51-.2.31.31,0,0,0-.2.05c-.05.05-.15.05-.31.1,0,.05-.05.1-.05.15a.56.56,0,0,1-.05.26v.46a1.18,1.18,0,0,0,.31.46.46.46,0,0,0,.36.15A1.11,1.11,0,0,0,96.18,52Z"/><path d="M101.91,53.91a3.82,3.82,0,0,0-.36-.61,1.24,1.24,0,0,0-.67-.41,2.48,2.48,0,0,0-.92-.15h-.61a1.52,1.52,0,0,0-.67.31c-.26.2-.51.36-.82.61a6.59,6.59,0,0,0-.82.87,7.31,7.31,0,0,0-.72,1c-.2.36-.36.72-.51,1a3.68,3.68,0,0,0-.2,1,2.08,2.08,0,0,0,.26.92,1.58,1.58,0,0,0,.77.61,2.22,2.22,0,0,0,1,.2,2.67,2.67,0,0,0,1.07-.2,6.55,6.55,0,0,0,1-.56,3.51,3.51,0,0,0,.87-.87,12.41,12.41,0,0,0,.72-1,4.86,4.86,0,0,0,.46-1.07,3.82,3.82,0,0,0,.15-1A.54.54,0,0,0,101.91,53.91Zm-1,1.33c-.15.26-.31.56-.51.87a5.48,5.48,0,0,1-.72.82,10.24,10.24,0,0,1-.82.72,5.19,5.19,0,0,1-.82.51,2.2,2.2,0,0,1-.72.2A.41.41,0,0,1,96.9,58a.76.76,0,0,1-.05-.36,2.08,2.08,0,0,1,.26-.92,5.19,5.19,0,0,1,.67-.92c.26-.31.56-.56.82-.87s.56-.51.82-.72l.15-.15c.05-.05.1-.1.15-.1a1.92,1.92,0,0,1,.51-.05,1.35,1.35,0,0,1,.72.15.47.47,0,0,1,.2.41A2.46,2.46,0,0,1,100.94,55.24Z"/><path class="cls-2" d="M58.22,37.69H52a3.1,3.1,0,0,1,3-2.3,3,3,0,0,1,3.17,2.3M52,39.79h9.11v-.56a6,6,0,0,0-6-6.29,5.93,5.93,0,0,0-5.83,6A6.14,6.14,0,0,0,51,43.17,5.68,5.68,0,0,0,55.2,45a5.74,5.74,0,0,0,5.47-3.89H57.81A3.05,3.05,0,0,1,55.1,42.5,2.93,2.93,0,0,1,52,39.79"/><path class="cls-2" d="M65.23,39a3.26,3.26,0,0,1,3.27-3.38A3.36,3.36,0,0,1,71.83,39a3.3,3.3,0,1,1-6.6,0m-.1-4.81V29.66H62.52v15h2.61v-1a5.54,5.54,0,0,0,3.53,1.18,5.65,5.65,0,0,0,3.73-1.33,6.08,6.08,0,0,0,2.15-4.66A5.83,5.83,0,0,0,68.66,33a4.93,4.93,0,0,0-3.53,1.18"/><path class="cls-2" d="M76.33,33.29h2.56V44.65H76.33Zm0-3.68h2.56v2.51H76.33Z"/><path class="cls-2" d="M83.24,38.87a3.21,3.21,0,0,1,3.22-3.22A3.3,3.3,0,0,1,89.63,39a3.2,3.2,0,1,1-6.39-.15M90,44.65H92.5V33.29H89.94v1.38A4.1,4.1,0,0,0,86.36,33a5.52,5.52,0,0,0-4.19,1.74,6,6,0,0,0,4.25,10.13c1.74,0,2.92-.51,3.53-1.64Z"/><polygon class="cls-2" points="26.1 49.61 33.05 49.61 40.52 42.14 47.99 49.61 54.95 49.61 44 38.67 55.05 27.62 48.04 27.62 40.52 35.19 32.95 27.62 25.99 27.62 37.04 38.67 26.1 49.61"/></svg>