<svg xmlns="http://www.w3.org/2000/svg" viewBox="0 0 128 87"><defs><style>.cls-1{fill:none;}.cls-2{fill:#339;}.cls-3{fill:#fff;}</style></defs><title>logo-pcd</title><g id="Calque_1" data-name="Calque 1"><g id="Calque_2" data-name="Calque 2"><rect class="cls-1" width="128" height="87"/></g></g><g id="Calque_2-2" data-name="Calque 2"><rect class="cls-2" x="7.37" y="50.58" width="113.27" height="12.39" rx="1.77" ry="1.77"/><path class="cls-3" d="M23.29,59.25v-5H26a1.06,1.06,0,0,1,1.2,1.2v.71a1.06,1.06,0,0,1-1.2,1.2H24v1.86ZM24,56.69h2a.45.45,0,0,0,.53-.53v-.64A.45.45,0,0,0,26,55H24Z"/><path class="cls-3" d="M29.93,54.29l1.91,5h-.71l-.44-1.15H28.44L28,59.25h-.71l1.93-5h.71Zm-1.2,3.11h1.7l-.85-2.19Z"/><path class="cls-3" d="M36.57,56.06c0,.69-.3,1.1-.88,1.19l.94,2h-.8l-.92-2H33.35v2h-.71v-5h2.73a1.06,1.06,0,0,1,1.2,1.2V56Zm-3.22.5h2a.45.45,0,0,0,.53-.53v-.5a.45.45,0,0,0-.53-.53h-2Z"/><path class="cls-3" d="M38.39,54.29v5h-.71v-5h.71Z"/><path class="cls-3" d="M40.32,57.13a.8.8,0,0,1-.28-.05.78.78,0,0,1-.39-.39.73.73,0,0,1-.05-.28V55a.8.8,0,0,1,.05-.28.67.67,0,0,1,.16-.23,1.06,1.06,0,0,1,.23-.16.73.73,0,0,1,.28-.05h2.42a.8.8,0,0,1,.28.05.78.78,0,0,1,.39.39.73.73,0,0,1,.05.28v.64h-.71V55H40.32V56.4h2.42a.8.8,0,0,1,.28.05.78.78,0,0,1,.39.39.73.73,0,0,1,.05.28v1.42a.8.8,0,0,1-.05.28.78.78,0,0,1-.39.39.73.73,0,0,1-.28.05h-2.5a.8.8,0,0,1-.28-.05.78.78,0,0,1-.39-.39.73.73,0,0,1-.05-.28v-.64h.71v.64h2.5V57.13Z"/><path class="cls-3" d="M46.71,55a.8.8,0,0,1,.05-.28.67.67,0,0,1,.16-.23,1.06,1.06,0,0,1,.23-.16.73.73,0,0,1,.28-.05h2.71a.8.8,0,0,1,.28.05.78.78,0,0,1,.39.39.73.73,0,0,1,.05.28v.64h-.71V55H47.45v3.55h2.71v-.64h.71v.64a.8.8,0,0,1-.05.28.78.78,0,0,1-.39.39.73.73,0,0,1-.28.05H47.43a.8.8,0,0,1-.28-.05.78.78,0,0,1-.39-.39.73.73,0,0,1-.05-.28V55Z"/><path class="cls-3" d="M56.18,58.54a.8.8,0,0,1-.05.28.78.78,0,0,1-.39.39.73.73,0,0,1-.28.05H52.6a.8.8,0,0,1-.28-.05.78.78,0,0,1-.39-.39.73.73,0,0,1-.05-.28V55a.8.8,0,0,1,.05-.28.67.67,0,0,1,.16-.23,1.06,1.06,0,0,1,.23-.16.73.73,0,0,1,.28-.05h2.85a.8.8,0,0,1,.28.05.78.78,0,0,1,.39.39.73.73,0,0,1,.05.28v3.56ZM52.62,55v3.56h2.85V55H52.62Z"/><path class="cls-3" d="M58.09,59.25h-.71v-5h.71l3,3.86V54.28h.71v5h-.71l-3-3.86Z"/><path class="cls-3" d="M62.58,54.29h4V55H64.94v4.26h-.71V55H62.58v-.71Z"/><path class="cls-3" d="M69,54.29l1.91,5h-.71l-.44-1.15H67.5l-.44,1.15h-.71l1.93-5H69ZM67.77,57.4h1.7l-.85-2.19Z"/><path class="cls-3" d="M72.41,54.29v5H71.7v-5h.71Z"/><path class="cls-3" d="M74.32,59.25h-.71v-5h.71l3,3.86V54.28H78v5h-.71l-3-3.86Z"/><path class="cls-3" d="M79.24,54.29h3.63V55H79.95v1.42h2.5v.71h-2.5v1.42h2.92v.71H79.24Z"/><path class="cls-3" d="M87.79,56.06c0,.69-.3,1.1-.88,1.19l.94,2H87l-.92-2H84.57v2h-.71v-5h2.73a1.06,1.06,0,0,1,1.2,1.2V56h0Zm-3.22.5h2a.45.45,0,0,0,.53-.53v-.5a.45.45,0,0,0-.53-.53h-2v1.56Z"/><path class="cls-3" d="M91,59.25v-5H93.5a1.89,1.89,0,0,1,.73.12,1.55,1.55,0,0,1,.9.9,1.89,1.89,0,0,1,.12.73v1.49a2,2,0,0,1-.12.73,1.47,1.47,0,0,1-.35.55,1.63,1.63,0,0,1-.55.35,1.89,1.89,0,0,1-.73.12H91Zm2.53-.71a.93.93,0,0,0,1-1V56a1.22,1.22,0,0,0-.07-.44,1,1,0,0,0-.19-.32.74.74,0,0,0-.32-.19A1.11,1.11,0,0,0,93.5,55H91.68v3.54Z"/><path class="cls-3" d="M98.51,54.29l1.93,5h-.71l-.44-1.15H97l-.44,1.15h-.71l1.91-5h.71Zm-1.2,3.11H99l-.85-2.19Z"/><path class="cls-3" d="M101,54.29l1.45,2.32,1.45-2.32h.83l-1.93,3v2h-.71v-2l-1.93-3H101v0Z"/><path id="bg-pcd" class="cls-3" d="M51.82,24.65V48.1s3.5,0,5.3-.25c3.47-.43,2.07-3.75,6.57-3.75s3,3.31,6.5,3.75a51.57,51.57,0,0,0,5.17.25V24.65H51.82Z"/><g id="logo"><path class="cls-2" d="M71.68,28.28H70.62a.2.2,0,0,0-.19.18v.09h1a.08.08,0,0,1,.09.09V45H70.44a.08.08,0,0,0,.07.09h1.17a.2.2,0,0,0,.19-.18V28.46A.2.2,0,0,0,71.68,28.28Z"/><path class="cls-2" d="M69.11,28.28H68.05a.2.2,0,0,0-.19.18v.09h1a.08.08,0,0,1,.09.09V45h-.74a.08.08,0,0,0,.07.09h.86a.2.2,0,0,0,.19-.18V28.46A.2.2,0,0,0,69.11,28.28Z"/><path class="cls-2" d="M58.85,28.28h-1a.2.2,0,0,0-.19.18v.09h1a.08.08,0,0,1,.09.09V45H57.62a.08.08,0,0,0,.07.09h1.17a.2.2,0,0,0,.19-.18V28.46A.23.23,0,0,0,58.85,28.28Z"/><path class="cls-2" d="M56.28,28.28H55.23a.2.2,0,0,0-.19.18v.09h1a.08.08,0,0,1,.09.09V45H55a.08.08,0,0,0,.07.09h1.17a.2.2,0,0,0,.19-.18V28.46A.2.2,0,0,0,56.28,28.28Z"/><path class="cls-2" d="M73.1,26.63H54.33a.41.41,0,0,0-.4.41V45.8a.41.41,0,0,0,.4.4h3.87a.27.27,0,0,0,.19-.09H54.33A.29.29,0,0,1,54,45.8V27H73a.08.08,0,0,1,.09.09v19H69a.22.22,0,0,0,.19.09H73.1a.41.41,0,0,0,.4-.41V27A.41.41,0,0,0,73.1,26.63Z"/><path class="cls-2" d="M76.11,26.33v-1.5a.8.8,0,0,0-.79-.81h-1.5a.78.78,0,0,0-.61.28h-19a.78.78,0,0,0-.62-.28H52.14a.8.8,0,0,0-.81.79h0v1.45a.78.78,0,0,0,.28.62v19a.78.78,0,0,0-.28.62V48a.8.8,0,0,0,.79.81H53.6a.84.84,0,0,0,.53-.18h1a.39.39,0,0,0,.19,0l1.58-.4a.86.86,0,0,1,.28,0h2.48a.33.33,0,0,0,.31-.28,3.77,3.77,0,0,1,7.43,0,.31.31,0,0,0,.31.28h2.85a.86.86,0,0,1,.28,0l1.58.4a.39.39,0,0,0,.19,0h.65a.84.84,0,0,0,.53.18h1.46a.8.8,0,0,0,.81-.79h0V46.55a.78.78,0,0,0-.28-.62v-19A.67.67,0,0,0,76.11,26.33ZM62.48,43.62a.3.3,0,0,1-.28-.43c.09-.22.22-.53.34-.9a.3.3,0,0,1,.28-.22h1.73a.3.3,0,0,1,.28.22c.12.37.25.68.34.9a.3.3,0,0,1-.28.43Zm.87-2.51a.31.31,0,0,1-.31-.37,20.15,20.15,0,0,0,.68-5.27,20.15,20.15,0,0,0,.68,5.27.3.3,0,0,1-.21.36h-.84ZM75.05,26.61a.08.08,0,0,1-.07.09h-.12a.08.08,0,0,0-.09.09V46.09a.08.08,0,0,0,.07.09H75a.08.08,0,0,1,.09.09v1.42a.08.08,0,0,1-.07.09H73.53a.08.08,0,0,1-.09-.09.08.08,0,0,0-.07-.09h-1l-1.55-.37a2.09,2.09,0,0,0-.43-.06,2.08,2.08,0,0,1-2-1,19.94,19.94,0,0,1-3.13-6.22,80.77,80.77,0,0,1-1-9.66,1.85,1.85,0,0,1,.4-.93V29h-.28a1.11,1.11,0,0,0-.56-1V27h-.19V28a1.11,1.11,0,0,0-.56,1h-.28v.34a1.71,1.71,0,0,1,.4.93,79.48,79.48,0,0,1-1,9.66A20.56,20.56,0,0,1,59,46.15c-.59.9-1,1-1.64,1a2.09,2.09,0,0,0-.43.06l-1.55.37H54.06a.08.08,0,0,0-.09.09.08.08,0,0,1-.07.09H52.44a.08.08,0,0,1-.09-.09V46.29a.08.08,0,0,1,.07-.09h.12a.08.08,0,0,0,.09-.09V26.81a.08.08,0,0,0-.07-.09h-.12a.08.08,0,0,1-.09-.09V25.21a.08.08,0,0,1,0-.11h1.48a.08.08,0,0,1,.09.09v.08a.08.08,0,0,0,.07.09H73.35a.08.08,0,0,0,.1-.09v-.09a.08.08,0,0,1,.08-.09H75a.08.08,0,0,1,.09.09v1.42h0Z"/><path class="cls-2" d="M61.24,28.65V40.91a.07.07,0,0,0,.12,0,4.39,4.39,0,0,0,.22-.68V28.46a.2.2,0,0,0-.19-.18H60.34a.2.2,0,0,0-.19.18v.09h1C61.21,28.55,61.24,28.58,61.24,28.65Z"/><path class="cls-2" d="M66.38,28.65v13a.23.23,0,0,0,0,.12c.06.12.16.31.22.47a.07.07,0,0,0,.12,0V28.46a.2.2,0,0,0-.19-.18H65.51a.2.2,0,0,0-.19.18v.09h1A.1.1,0,0,1,66.38,28.65Z"/></g></g></svg>