<svg id="Calque_1" data-name="Calque 1" xmlns="http://www.w3.org/2000/svg" viewBox="0 0 130 70"><defs><style>.cls-1{fill:none;}.cls-2{fill:#6b215f;}</style></defs><title>logo-xskillz</title><rect class="cls-1" width="130" height="70"/><polygon id="_Tracé_" data-name="&lt;Tracé&gt;" class="cls-2" points="29.19 25 22.51 25 15.41 32.19 8.32 25 1.64 25 12.07 36 1.64 47 8.32 47 15.41 39.81 22.51 47 29.19 47 18.76 36 29.19 25"/><path class="cls-1" d="M34.64,31.08a2.08,2.08,0,0,0,0,.35,1.23,1.23,0,0,0,.06.38l2.49-2.49a4.46,4.46,0,0,0-.92.16Z"/><polygon class="cls-1" points="54 33.46 54 34.22 57.83 30.68 60.61 27 54 33.46"/><polygon class="cls-1" points="55.88 33.39 54.5 34.77 54.5 35.13 55.88 33.39"/><path class="cls-2" d="M46.92,41.12l-6.11,6.11c.34-.06.67-.14,1-.22l5-5A7.22,7.22,0,0,0,46.92,41.12Z"/><path class="cls-2" d="M34.69,37.59l.57.19,3.94-3.94-.61-.15Z"/><path class="cls-2" d="M46.61,42.74l-4,4A7.7,7.7,0,0,0,44.15,46l1.78-1.78A6.06,6.06,0,0,0,46.61,42.74Z"/><path class="cls-2" d="M38.85,38.69l.6.16,3.75-3.75-.53-.23Z"/><path class="cls-2" d="M37.79,38.43l.61.14,3.86-3.86-.56-.19Z"/><path class="cls-2" d="M46.7,38.72,38,47.43h.76l8.1-8.1A5.66,5.66,0,0,0,46.7,38.72Z"/><path class="cls-2" d="M35.69,37.91l.59.16,4-4-.6-.15Z"/><path class="cls-2" d="M43.24,31.11l3-3-.41-.35L42.8,30.8Z"/><path class="cls-2" d="M39.88,39l.57.19,3.61-3.61-.49-.27Z"/><path class="cls-2" d="M46.91,39.82l-7.59,7.59.83-.08,6.79-6.79A7.18,7.18,0,0,0,46.91,39.82Z"/><path class="cls-2" d="M37.34,38.33l3.94-3.94-.59-.17-4,4Z"/><path class="cls-2" d="M34.73,25.73,30.06,30.4a5.93,5.93,0,0,0-.14.9l5.83-5.83A9.62,9.62,0,0,0,34.73,25.73Z"/><path class="cls-2" d="M38.05,25.24h-.21L30,33.07a5.57,5.57,0,0,0,.15.6l8.42-8.42Z"/><path class="cls-2" d="M36.43,25.35,29.9,31.87a7.11,7.11,0,0,0,0,.71l7.32-7.32Q36.84,25.29,36.43,25.35Z"/><path class="cls-2" d="M30.32,29.59l3.51-3.51A6.56,6.56,0,0,0,30.32,29.59Z"/><path class="cls-2" d="M37.53,33.44l-3.79,3.79.54.22,3.86-3.86Z"/><path class="cls-2" d="M40.85,39.31a4.35,4.35,0,0,1,.5.26l3.5-3.5-.44-.32Z"/><path class="cls-2" d="M45.15,36.32,41.68,39.8a1.81,1.81,0,0,1,.36.39l3.5-3.5Q45.35,36.5,45.15,36.32Z"/><path class="cls-2" d="M42.21,40.57a1.48,1.48,0,0,1,.06.42,1.93,1.93,0,0,1,0,.3l3.86-3.86a5.05,5.05,0,0,0-.32-.44Z"/><path class="cls-2" d="M39.13,25.27l-8.81,8.81a4.93,4.93,0,0,0,.24.51l9.26-9.26Z"/><path class="cls-2" d="M43.89,31.65l1.83-2.46-2.17,2.17Z"/><path class="cls-2" d="M39.47,43.32l-3.89,3.89.66.1,4.2-4.2A5.23,5.23,0,0,1,39.47,43.32Z"/><path class="cls-2" d="M33.2,41.71l-3.11,3.11.43.33L33.66,42Z"/><path class="cls-2" d="M34.61,31.42a2.08,2.08,0,0,1,0-.35l-3.86,3.86a5,5,0,0,0,.32.43l3.57-3.57A1.23,1.23,0,0,1,34.61,31.42Z"/><path class="cls-2" d="M34,42.21l-3.16,3.16.46.29,3.2-3.2Z"/><path class="cls-2" d="M34.86,32.17l-3.5,3.5q.19.19.39.37l3.49-3.49A1.8,1.8,0,0,1,34.86,32.17Z"/><path class="cls-2" d="M46.32,37.79l-9.58,9.58.71.05,9.11-9.11A5,5,0,0,0,46.32,37.79Z"/><path class="cls-2" d="M37.15,29.32l3.8-3.8-.64-.11-4.08,4.08A4.46,4.46,0,0,1,37.15,29.32Z"/><path class="cls-2" d="M31.77,40.51l-.37.37-1.79,2.54,2.54-2.54Z"/><path class="cls-2" d="M32.45,41.14l-3.07,3.07.4.36,3.09-3.09Z"/><path class="cls-2" d="M36.51,33.14l-3.65,3.65.5.26,3.74-3.74Z"/><path class="cls-2" d="M35.59,32.75l-3.53,3.53.45.31,3.6-3.6A5,5,0,0,1,35.59,32.75Z"/><path class="cls-2" d="M34.89,42.64l-3.23,3.23.5.26,3.28-3.28Z"/><path class="cls-2" d="M41.59,30.14,44.76,27l-.48-.28-3.22,3.22Z"/><path class="cls-2" d="M38.54,43.38h-.43L34.49,47l.61.14,3.75-3.75Z"/><path class="cls-2" d="M42.45,30.58l3.09-3.09-.44-.31L42,30.32Z"/><path class="cls-2" d="M40.64,29.77l3.27-3.27-.52-.24L40.05,29.6Z"/><path class="cls-2" d="M38.45,29.33,42,25.77l-.6-.16L37.73,29.3Z"/><path class="cls-2" d="M35.86,43l-3.32,3.32.53.22,3.38-3.38Z"/><path class="cls-2" d="M36.92,43.24l-3.44,3.44.57.18,3.53-3.53Z"/><path class="cls-2" d="M39.6,29.5,43,26.1l-.56-.2L39,29.39Z"/><polygon class="cls-2" points="50 37.48 54 32.9 54 32.15 50 36.72 50 37.48"/><polygon class="cls-2" points="50 36.16 54 31.59 54 30.83 50 35.41 50 36.16"/><polygon class="cls-2" points="54.58 46.99 54.58 46.59 54.12 46.99 54.58 46.99"/><polygon class="cls-2" points="50 28.28 52.73 25 51.98 25 50 27.53 50 28.28"/><polygon class="cls-2" points="50 34.85 54 30.27 54 29.52 50 34.09 50 34.85"/><polygon class="cls-2" points="50 30.91 54 26.34 54 25.58 50 30.16 50 30.91"/><polygon class="cls-2" points="50 33.54 54 28.96 54 28.2 50 32.78 50 33.54"/><polygon class="cls-2" points="50 29.6 54.05 25 53.29 25 50 28.84 50 29.6"/><polygon class="cls-2" points="50.08 26.97 51.42 25.66 50.66 25.66 50.08 26.21 50.08 26.97"/><polygon class="cls-2" points="54 35.13 54 34.77 50 39.35 50 40.1 64.55 25 63.8 25 55.67 33.11 54 35.13"/><polygon class="cls-2" points="50.01 25.56 50.01 25.66 50.11 25.56 50.01 25.56"/><polygon class="cls-2" points="50 38.03 50 38.79 54 34.22 54 33.46 50 38.03"/><polygon class="cls-2" points="58.12 30.4 63.24 25 62.48 25 61.04 26.58 58.12 30.4"/><polygon class="cls-2" points="50 32.22 54 27.65 54 26.89 50 31.47 50 32.22"/><polygon class="cls-2" points="58.49 41.37 58.81 41.8 61.81 38.8 61.48 38.38 58.49 41.37"/><polygon class="cls-2" points="54 41.34 50 45.91 50 46.67 54 42.09 54 41.34"/><polygon class="cls-2" points="64.39 42.03 61.31 45.12 61.63 45.55 64.73 42.45 64.39 42.03"/><polygon class="cls-2" points="67.83 25 67.74 25 50 43.29 50 44.04 64.14 29.62 67.83 25"/><polygon class="cls-2" points="63.81 41.3 60.75 44.37 61.07 44.8 64.15 41.72 63.81 41.3"/><polygon class="cls-2" points="63.23 40.57 60.18 43.62 60.51 44.05 63.56 40.99 63.23 40.57"/><polygon class="cls-2" points="65.11 25 50 40.66 50 41.42 65.87 25 65.11 25"/><polygon class="cls-2" points="67.31 45.73 65.94 47.14 66.7 47.14 67.65 46.17 67.31 45.73"/><polygon class="cls-2" points="64.98 42.76 61.88 45.87 62.2 46.3 65.31 43.18 64.98 42.76"/><polygon class="cls-2" points="66.42 25 50 41.97 50 42.73 67.18 25 66.42 25"/><polygon class="cls-2" points="65.56 43.49 62.44 46.62 62.76 47.05 65.9 43.91 65.56 43.49"/><polygon class="cls-2" points="66.73 44.93 64.63 47 65.39 47 67.06 45.34 66.73 44.93"/><polygon class="cls-2" points="66.14 44.2 63.32 47 64.07 47 66.48 44.6 66.14 44.2"/><polygon class="cls-2" points="67.9 46.38 67.26 46.99 68.01 46.99 68.23 46.78 67.9 46.38"/><polygon class="cls-2" points="57.92 40.63 58.25 41.06 61.23 38.07 60.89 37.65 57.92 40.63"/><polygon class="cls-2" points="57.12 39.56 60.06 36.62 59.73 36.19 56.8 39.13 57.12 39.56"/><polygon class="cls-2" points="54 40.45 55.97 38.41 56.41 38.81 59.41 35.88 59.25 35.64 61.05 33.54 50 44.6 50 45.36 54 40.78 54 40.45"/><polygon class="cls-2" points="57.36 39.88 57.68 40.31 60.65 37.34 60.31 36.92 57.36 39.88"/><polygon class="cls-2" points="62.64 39.84 59.62 42.87 59.94 43.3 62.98 40.26 62.64 39.84"/><polygon class="cls-2" points="54 42.65 50.18 47 50.94 47 54 43.41 54 42.65"/><polygon class="cls-2" points="54.5 45.28 52.81 47.14 53.57 47.14 54.5 46.03 54.5 45.28"/><polygon class="cls-2" points="54 43.97 51.5 47 52.25 47 54 44.72 54 43.97"/><polygon class="cls-2" points="62.06 39.11 59.05 42.12 59.38 42.55 62.4 39.53 62.06 39.11"/><polygon class="cls-2" points="75 40.55 70 45.12 70 45.88 75 41.3 75 40.55"/><polygon class="cls-2" points="70 28.8 73.75 25 72.99 25 70 28.05 70 28.8"/><polygon class="cls-2" points="70 42.5 70 43.25 75 38.68 75 37.92 70 42.5"/><polygon class="cls-2" points="70 41.18 70 41.94 75 37.36 75 36.61 70 41.18"/><polygon class="cls-2" points="70 37.24 70 38 75 33.42 75 32.67 70 37.24"/><polygon class="cls-2" points="70 31.43 75 26.86 75 26.1 70 30.68 70 31.43"/><polygon class="cls-2" points="70 39.87 70 40.63 75 36.05 75 35.29 70 39.87"/><polygon class="cls-2" points="70 27.49 72.43 25 71.68 25 70 26.74 70 27.49"/><polygon class="cls-2" points="70 30.12 75.06 25 74.3 25 70 29.36 70 30.12"/><polygon class="cls-2" points="70 35.93 70 36.69 75 32.11 75 31.35 70 35.93"/><polygon class="cls-2" points="70.47 25.58 70.47 26.18 71.12 25.58 70.47 25.58"/><polygon class="cls-2" points="70 34.62 70 35.37 75 30.8 75 30.04 70 34.62"/><polygon class="cls-2" points="75 43.17 71.2 47 71.95 47 75 43.93 75 43.17"/><polygon class="cls-2" points="75 41.86 70 46.44 70 47 70.64 47 75 42.62 75 41.86"/><polygon class="cls-2" points="70 38.56 70 39.31 75 34.74 75 33.98 70 38.56"/><polygon class="cls-2" points="70 43.81 70 44.56 75 39.99 75 39.23 70 43.81"/><polygon class="cls-2" points="75.07 45.8 73.82 46.99 74.58 46.99 75.07 46.56 75.07 45.8"/><polygon class="cls-2" points="75 44.49 72.51 47 73.27 47 75 45.24 75 44.49"/><polygon class="cls-2" points="70 32.74 75 28.17 75 27.41 70 31.99 70 32.74"/><polygon class="cls-2" points="70 34.06 75 29.48 75 28.73 70 33.3 70 34.06"/><polygon class="cls-2" points="88.36 43 84.33 47 85.09 47 89.11 43 88.36 43"/><polygon class="cls-2" points="90.98 43 86.96 47 87.71 47 91.74 43 90.98 43"/><polygon class="cls-2" points="89.67 43 85.64 47 86.4 47 90.43 43 89.67 43"/><polygon class="cls-2" points="79 34.62 83 30.01 83 29.25 79 33.86 79 34.62"/><polygon class="cls-2" points="79 42.5 83 37.89 83 37.13 79 41.74 79 42.5"/><polygon class="cls-2" points="84.42 43 80.39 47 81.15 47 85.17 43 84.42 43"/><polygon class="cls-2" points="79 33.3 83 28.7 83 27.94 79 32.55 79 33.3"/><polygon class="cls-2" points="87.05 43 83.02 47 83.77 47 87.8 43 87.05 43"/><polygon class="cls-2" points="85.73 43 81.7 47 82.46 47 86.49 43 85.73 43"/><polygon class="cls-2" points="79 28.05 81.63 25 80.87 25 79 27.29 79 28.05"/><polygon class="cls-2" points="93 45.12 90.9 47 91.65 47 93 45.88 93 45.12"/><polygon class="cls-2" points="93 43.81 89.58 47 90.34 47 93 44.56 93 43.81"/><polygon class="cls-2" points="83 38.45 79 43.05 79 43.81 83 39.2 83 38.45"/><polygon class="cls-2" points="93 43 92.3 43 88.27 47 89.03 47 93 43.25 93 43"/><polygon class="cls-2" points="83 39.76 79 44.37 79 45.12 83 40.52 83 39.76"/><polygon class="cls-2" points="83 41.07 79 45.68 79 46.44 83 41.83 83 41.07"/><polygon class="cls-2" points="79 39.87 83 35.26 83 34.51 79 39.11 79 39.87"/><polygon class="cls-2" points="79 35.93 83 31.32 83 30.57 79 35.17 79 35.93"/><polygon class="cls-2" points="79 30.68 83 26.07 83 25 83.5 25 79 29.92 79 30.68"/><polygon class="cls-2" points="79.14 26.74 80.31 25.58 79.56 25.58 79.14 25.98 79.14 26.74"/><polygon class="cls-2" points="79 41.18 83 36.58 83 35.82 79 40.43 79 41.18"/><polygon class="cls-2" points="79 37.24 83 32.64 83 31.88 79 36.49 79 37.24"/><polygon class="cls-2" points="83 43 83 42.39 79 46.99 79 47 79.83 47 83.86 43 83 43"/><polygon class="cls-2" points="79 29.36 82.94 25 82.18 25 79 28.61 79 29.36"/><polygon class="cls-2" points="79 38.56 83 33.95 83 33.19 79 37.8 79 38.56"/><polygon class="cls-2" points="79 31.99 83 27.38 83 26.63 79 31.23 79 31.99"/><polygon class="cls-2" points="92.8 46.99 92.8 46.43 92.21 46.99 92.8 46.99"/><polygon class="cls-2" points="109 43 109.37 43 105.34 47 106.1 47 109 43.73 109 43"/><polygon class="cls-2" points="109.44 45.6 107.97 47.14 108.73 47.14 109.44 46.35 109.44 45.6"/><polygon class="cls-2" points="100 43 100 42.87 96.15 47 96.91 47 100.93 43 100 43"/><polygon class="cls-2" points="95.54 27.22 97.39 25.66 96.63 25.66 95.54 26.46 95.54 27.22"/><polygon class="cls-2" points="95 28.53 98.7 25 97.94 25 95 27.77 95 28.53"/><polygon class="cls-2" points="95 35.1 100 30.49 100 29.73 95 34.34 95 35.1"/><polygon class="cls-2" points="109 44.28 106.66 47 107.41 47 109 45.04 109 44.28"/><polygon class="cls-2" points="100 41.55 95 46.16 95 46.92 100 42.31 100 41.55"/><polygon class="cls-2" points="100 38.92 95 43.53 95 44.29 100 39.68 100 38.92"/><polygon class="cls-2" points="101.49 43 97.46 47 98.22 47 102.25 43 101.49 43"/><polygon class="cls-2" points="95 37.72 100 33.12 100 32.36 95 36.97 95 37.72"/><polygon class="cls-2" points="108.06 43 104.03 47 104.79 47 108.81 43 108.06 43"/><polygon class="cls-2" points="95 32.47 100 27.86 100 27.11 95 31.71 95 32.47"/><polygon class="cls-2" points="95 31.16 100 26.55 100 25.79 95 30.4 95 31.16"/><polygon class="cls-2" points="95 29.84 100.01 25 99.26 25 95 29.09 95 29.84"/><polygon class="cls-2" points="95 36.41 100 31.8 100 31.05 95 35.65 95 36.41"/><polygon class="cls-2" points="106.75 43 102.72 47 103.47 47 107.5 43 106.75 43"/><polygon class="cls-2" points="95 33.78 100 29.18 100 28.42 95 33.03 95 33.78"/><polygon class="cls-2" points="100 40.24 95 44.85 95 45.6 100 40.99 100 40.24"/><polygon class="cls-2" points="95.69 25.58 95.69 25.9 96.07 25.58 95.69 25.58"/><polygon class="cls-2" points="109.42 47.05 109.42 46.91 109.28 47.05 109.42 47.05"/><polygon class="cls-2" points="95 41.66 100 37.05 100 36.3 95 40.91 95 41.66"/><polygon class="cls-2" points="95 39.04 100 34.43 100 33.67 95 38.28 95 39.04"/><polygon class="cls-2" points="95 40.35 100 35.74 100 34.98 95 39.59 95 40.35"/><polygon class="cls-2" points="104.12 43 100.09 47 100.85 47 104.87 43 104.12 43"/><polygon class="cls-2" points="105.43 43 101.4 47 102.16 47 106.19 43 105.43 43"/><polygon class="cls-2" points="102.81 43 98.78 47 99.53 47 103.56 43 102.81 43"/><polygon class="cls-2" points="95 42.22 95 42.98 100 38.37 100 37.61 95 42.22"/><polygon class="cls-2" points="128 45.3 126.36 47 127.11 47 128 46.05 128 45.3"/><polygon class="cls-2" points="113.06 29 117.09 25 116.33 25 112.3 29 113.06 29"/><polygon class="cls-2" points="128 43.98 125.04 47 125.8 47 128 44.74 128 43.98"/><polygon class="cls-2" points="128.13 46.99 128.13 46.61 127.67 46.99 128.13 46.99"/><polygon class="cls-2" points="128 43 127.76 43 123.73 47 124.49 47 128 43.43 128 43"/><polygon class="cls-2" points="119.88 43 115.85 47 116.61 47 120.63 43 119.88 43"/><polygon class="cls-2" points="113.05 40.97 127 26.58 127 25.82 114.96 38.09 113.05 40.97"/><polygon class="cls-2" points="115.68 29 119.71 25 118.96 25 114.93 29 115.68 29"/><polygon class="cls-2" points="112 43.34 112 44.03 127 27.89 127 27.14 111.61 43.09 112 43.34"/><polygon class="cls-2" points="114.37 29 118.4 25 117.64 25 113.61 29 114.37 29"/><polygon class="cls-2" points="111.74 25.56 111.74 25.65 111.83 25.56 111.74 25.56"/><polygon class="cls-2" points="112 29 111.74 29 115.77 25 115.02 25 112 28.83 112 29"/><polygon class="cls-2" points="122.75 36.19 111.91 47 112.67 47 120.64 39.04 122.75 36.19"/><polygon class="cls-2" points="117.73 43 119.08 41.15 113.22 47 113.98 47 118.01 43 117.73 43"/><polygon class="cls-2" points="119.62 29 123.65 25 122.9 25 118.87 29 119.62 29"/><polygon class="cls-2" points="118.56 43 114.54 47 115.29 47 119.32 43 118.56 43"/><polygon class="cls-2" points="126.53 31.24 112 45.91 112 46.66 124.49 34.11 126.53 31.24"/><polygon class="cls-2" points="122.5 43 118.48 47 119.23 47 123.26 43 122.5 43"/><polygon class="cls-2" points="127 28.45 112 44.59 112 45.35 127 29.2 127 28.45"/><polygon class="cls-2" points="112 28.28 114.46 25 113.7 25 112 27.52 112 28.28"/><polygon class="cls-2" points="117.19 35.68 127.59 25 126.84 25 119.31 32.66 117.19 35.68"/><polygon class="cls-2" points="125.13 43 121.1 47 121.86 47 125.89 43 125.13 43"/><polygon class="cls-2" points="117 29 121.03 25 120.27 25 116.24 29 117 29"/><polygon class="cls-2" points="121.89 29 120.88 30.38 126.28 25 125.52 25 121.5 29 121.89 29"/><polygon class="cls-2" points="118.31 29 122.34 25 121.58 25 117.56 29 118.31 29"/><polygon class="cls-2" points="123.82 43 119.79 47 120.55 47 124.57 43 123.82 43"/><polygon class="cls-2" points="121.19 43 117.16 47 117.92 47 121.95 43 121.19 43"/><polygon class="cls-2" points="111.96 26.96 113.15 25.66 112.39 25.66 111.96 26.21 111.96 26.96"/><polygon class="cls-2" points="126.44 43 122.42 47 123.17 47 127.2 43 126.44 43"/><polygon class="cls-2" points="120.94 29 124.97 25 124.21 25 120.18 29 120.94 29"/></svg>