<?xml version="1.0" encoding="utf-8"?>
<!-- Generator: Adobe Illustrator 22.1.0, SVG Export Plug-In . SVG Version: 6.00 Build 0)  -->
<svg version="1.1" id="Calque_1" xmlns="http://www.w3.org/2000/svg" xmlns:xlink="http://www.w3.org/1999/xlink" x="0px" y="0px"
	 viewBox="0 0 200 80" style="enable-background:new 0 0 200 80;" xml:space="preserve">
<style type="text/css">
	.st0{fill:none;}
	.st1{fill:#2C374C;}
</style>
<g id="Calque_1_1_">
	<rect class="st0" width="200" height="80"/>
</g>
<g>
	<g>
		<g id="Calque_2_5_">
			<g id="content_1_">
				<path class="st1" d="M135.6,22.2c-0.2-0.6-0.4-1.1-0.7-1.5c-0.9-1.8-2.2-3.4-3.9-4.4l-25.9-15c-3.2-1.6-7-1.6-10.2,0L69,16.1
					c-1.7,1.1-3.1,2.6-3.9,4.4c-0.3,0.5-0.5,1.1-0.7,1.5c-0.3,1-0.5,1.9-0.5,2.9v29.8c0.1,3.7,2,6.9,5.1,8.9l25.8,14.9
					c3.3,1.8,7.1,1.8,10.3,0.1l25.8-14.9c3.1-1.9,5-5.3,5.1-8.9V25.1C136.1,24.1,135.9,23.2,135.6,22.2z M97.5,5.8
					c1.6-0.8,3.5-0.8,5.1,0l25.8,14.9l-25.9,14.8c-1.6,0.8-3.5,0.8-5.1,0L71.7,20.7L97.5,5.8z M130.9,54.9c-0.2,1.7-1.1,3.4-2.5,4.4
					l-25.9,14.8c-1.6,0.7-3.5,0.7-5.1,0L71.6,59.3c-1.4-1-2.4-2.6-2.5-4.3v-6.4l26.6,15.3c2.8,1.4,6.1,1.4,8.8,0L131,48.6
					L130.9,54.9L130.9,54.9z M130.9,46l-0.8,0.4l-27,15.6c-2,1.1-4.5,1.1-6.5,0l-27-15.6L69,45.9v-9l26.6,15.3
					c2.8,1.4,6.1,1.4,8.8,0l26.6-15.3C130.9,36.9,130.9,46,130.9,46z M130.9,34.4l-27.6,15.9c-2,1.1-4.5,1.1-6.5,0l-27-15.6
					l-0.7-0.4v-9.2L94.9,40c3.2,1.7,7,1.7,10.3,0L131,25.1L130.9,34.4L130.9,34.4z"/>
			</g>
		</g>
	</g>
</g>
</svg>
