<svg xmlns="http://www.w3.org/2000/svg" viewBox="0 0 128 87"><defs><style>.cls-1{fill:none;}.cls-2{fill:#6b215f;}</style></defs><title>logo-bigdata</title><g id="Calque_2" data-name="Calque 2"><rect class="cls-1" width="128" height="87"/></g><g id="Calque_1" data-name="Calque 1"><path class="cls-2" d="M29,33.27h3.14q.69,0,1.44,0a9.59,9.59,0,0,1,1.45.2,6.11,6.11,0,0,1,1.34.46,3.62,3.62,0,0,1,1.11.82,3.82,3.82,0,0,1,.75,1.27,5.27,5.27,0,0,1,.28,1.82v1a4.6,4.6,0,0,1-.23,1.5,4.44,4.44,0,0,1-.62,1.2,3.72,3.72,0,0,1-.87.86,2.92,2.92,0,0,1-1,.46V43a3.32,3.32,0,0,1,2.29,1.44,5.31,5.31,0,0,1,.77,3v1a6.78,6.78,0,0,1-.25,1.93,4.33,4.33,0,0,1-.69,1.4,3.8,3.8,0,0,1-1.05,1,5.47,5.47,0,0,1-1.34.58,8.54,8.54,0,0,1-1.56.29q-.83.08-1.7.08H29ZM32.64,42a4.06,4.06,0,0,0,1.14-.15,2.3,2.3,0,0,0,.88-.47,2.06,2.06,0,0,0,.56-.83,3.39,3.39,0,0,0,.2-1.23v-.84a5,5,0,0,0-.14-1.27,2.3,2.3,0,0,0-.47-.93,2,2,0,0,0-.86-.58,3.75,3.75,0,0,0-1.3-.2H32V42Zm.29,9.54a3.72,3.72,0,0,0,1.13-.16A2.18,2.18,0,0,0,35.49,50a3.54,3.54,0,0,0,.2-1.24V47.19a5.12,5.12,0,0,0-.14-1.27,2.25,2.25,0,0,0-.47-.93,2.08,2.08,0,0,0-.86-.57,3.7,3.7,0,0,0-1.29-.2H32v7.35Z"/><path class="cls-2" d="M40.55,33.27h3.1V53.71h-3.1Z"/><path class="cls-2" d="M50.29,53.91a5.31,5.31,0,0,1-.84-.08,3.5,3.5,0,0,1-1-.33,4.17,4.17,0,0,1-1-.71,4.41,4.41,0,0,1-.88-1.22A7.68,7.68,0,0,1,46,49.7a12.65,12.65,0,0,1-.24-2.64V39.82A12,12,0,0,1,46,37.18a7,7,0,0,1,.67-1.84,4.08,4.08,0,0,1,1-1.19,4.34,4.34,0,0,1,1.13-.68,4.72,4.72,0,0,1,1.16-.31A8.63,8.63,0,0,1,51,33.09a5.69,5.69,0,0,1,2.1.34,3.64,3.64,0,0,1,1.39.93,3.54,3.54,0,0,1,.77,1.38,5.88,5.88,0,0,1,.23,1.68,8.8,8.8,0,0,1-.08,1.21q-.08.56-.21,1.23H52.68v-1q0-3.36-1.81-3.36a2,2,0,0,0-.85.17,1.38,1.38,0,0,0-.6.57,3.11,3.11,0,0,0-.35,1.06A9.87,9.87,0,0,0,49,39v9.26a9.26,9.26,0,0,0,.11,1.59,3,3,0,0,0,.35,1,1.34,1.34,0,0,0,.59.54,2,2,0,0,0,.84.16,1.47,1.47,0,0,0,.89-.27,2,2,0,0,0,.61-.74,3.92,3.92,0,0,0,.35-1.1,7.81,7.81,0,0,0,.11-1.38V45.4H51.22v-2h4.61V53.71H53.77l-.34-1.94a4.18,4.18,0,0,1-1.35,1.63A3.22,3.22,0,0,1,50.29,53.91Z"/><path class="cls-2" d="M57.71,33.27h3.22q.73,0,1.51,0a6.83,6.83,0,0,1,1.53.26,5,5,0,0,1,1.41.66,4.09,4.09,0,0,1,1.17,1.26,6.87,6.87,0,0,1,.8,2,13.1,13.1,0,0,1,.29,3v5.94a13.18,13.18,0,0,1-.29,3,6.79,6.79,0,0,1-.8,2,4.11,4.11,0,0,1-1.17,1.25,5,5,0,0,1-1.41.66,6.83,6.83,0,0,1-1.53.26q-.78,0-1.51,0H57.71ZM61.6,51.55A3.79,3.79,0,0,0,63,51.33a1.71,1.71,0,0,0,.86-.76,4,4,0,0,0,.44-1.48,19.38,19.38,0,0,0,.12-2.38V40.37A19.38,19.38,0,0,0,64.28,38a4,4,0,0,0-.44-1.48,1.71,1.71,0,0,0-.86-.76,3.79,3.79,0,0,0-1.38-.22h-.79v16Z"/><path class="cls-2" d="M71.68,33.27h3.57L79,53.71H75.89l-.56-3.66H71.59l-.54,3.66H67.91ZM75,47.72,73.53,37.53H73.4L72,47.72Z"/><path class="cls-2" d="M81.91,35.72H78.62V33.27h9.67v2.44H85v18h-3.1Z"/><path class="cls-2" d="M91.65,33.27h3.57L99,53.71H95.86l-.56-3.66H91.57L91,53.71H87.88Zm3.29,14.44L93.51,37.53h-.13L91.93,47.72Z"/></g></svg>