<?xml version="1.0" encoding="utf-8"?>
<!-- Generator: Adobe Illustrator 20.1.0, SVG Export Plug-In . SVG Version: 6.00 Build 0)  -->
<svg version="1.1" id="Calque_1" xmlns="http://www.w3.org/2000/svg" xmlns:xlink="http://www.w3.org/1999/xlink" x="0px" y="0px"
	 viewBox="0 0 128 87" style="enable-background:new 0 0 128 87;" xml:space="preserve">
<style type="text/css">
	.st0{fill:none;}
	.st1{fill:#FFFFFF;}
	.st2{fill:#333399;}
</style>
<title>logo-pcd</title>
<g id="Calque_1_1_">
	<g id="Calque_2">
		<rect class="st0" width="128" height="87"/>
	</g>
</g>
<path id="bg-pcd" class="st1" d="M51.8,24.6v23.4c0,0,3.5,0,5.3-0.2c3.5-0.4,2.1-3.8,6.6-3.8s3,3.3,6.5,3.8c1.7,0.2,3.4,0.3,5.2,0.2
	V24.6H51.8z"/>
<g id="logo">
	<path class="st2" d="M71.7,28.3h-1.1c-0.1,0-0.2,0.1-0.2,0.2v0.1h1c0,0,0.1,0,0.1,0.1c0,0,0,0,0,0V45h-1.1c0,0,0,0.1,0.1,0.1
		c0,0,0,0,0,0h1.2c0.1,0,0.2-0.1,0.2-0.2V28.5C71.9,28.4,71.8,28.3,71.7,28.3z"/>
	<path class="st2" d="M69.1,28.3h-1.1c-0.1,0-0.2,0.1-0.2,0.2v0.1h1c0,0,0.1,0,0.1,0.1c0,0,0,0,0,0V45h-0.7c0,0,0,0.1,0.1,0.1
		c0,0,0,0,0,0h0.9c0.1,0,0.2-0.1,0.2-0.2V28.5C69.3,28.4,69.2,28.3,69.1,28.3C69.1,28.3,69.1,28.3,69.1,28.3z"/>
	<path class="st2" d="M58.8,28.3h-1c-0.1,0-0.2,0.1-0.2,0.2v0.1h1c0,0,0.1,0,0.1,0.1c0,0,0,0,0,0V45h-1.1c0,0,0,0.1,0.1,0.1
		c0,0,0,0,0,0h1.2c0.1,0,0.2-0.1,0.2-0.2V28.5C59,28.4,58.9,28.3,58.8,28.3z"/>
	<path class="st2" d="M56.3,28.3h-1c-0.1,0-0.2,0.1-0.2,0.2v0.1h1c0,0,0.1,0,0.1,0.1c0,0,0,0,0,0V45H55c0,0,0,0.1,0.1,0.1
		c0,0,0,0,0,0h1.2c0.1,0,0.2-0.1,0.2-0.2V28.5C56.4,28.4,56.4,28.3,56.3,28.3z"/>
	<path class="st2" d="M73.1,26.6H54.3c-0.2,0-0.4,0.2-0.4,0.4v18.8c0,0.2,0.2,0.4,0.4,0.4h3.9c0.1,0,0.1,0,0.2-0.1h-4.1
		c-0.2,0-0.3-0.1-0.3-0.2c0,0,0,0,0-0.1V27h19c0,0,0.1,0,0.1,0.1c0,0,0,0,0,0v19H69c0,0.1,0.1,0.1,0.2,0.1h3.9
		c0.2,0,0.4-0.2,0.4-0.4V27C73.5,26.8,73.3,26.6,73.1,26.6z"/>
	<path class="st2" d="M76.1,26.3v-1.5c0-0.4-0.3-0.8-0.8-0.8c0,0,0,0,0,0h-1.5c-0.2,0-0.5,0.1-0.6,0.3h-19c-0.2-0.2-0.4-0.3-0.6-0.3
		h-1.5c-0.4,0-0.8,0.3-0.8,0.8c0,0,0,0,0,0l0,0v1.5c0,0.2,0.1,0.5,0.3,0.6v19c-0.2,0.2-0.3,0.4-0.3,0.6V48c0,0.4,0.3,0.8,0.8,0.8
		c0,0,0,0,0,0h1.5c0.2,0,0.4-0.1,0.5-0.2h1c0.1,0,0.1,0,0.2,0l1.6-0.4c0.1,0,0.2,0,0.3,0h2.5c0.2,0,0.3-0.1,0.3-0.3
		c0.4-2.1,2.3-3.4,4.4-3.1c1.6,0.3,2.8,1.5,3.1,3.1c0,0.2,0.1,0.3,0.3,0.3h2.8c0.1,0,0.2,0,0.3,0l1.6,0.4c0.1,0,0.1,0,0.2,0h0.7
		c0.2,0.1,0.3,0.2,0.5,0.2h1.5c0.4,0,0.8-0.3,0.8-0.8c0,0,0,0,0,0l0,0v-1.5c0-0.2-0.1-0.5-0.3-0.6v-19C76,26.8,76.1,26.6,76.1,26.3z
		 M62.5,43.6c-0.2,0-0.3-0.1-0.3-0.3c0,0,0-0.1,0-0.1c0.1-0.2,0.2-0.5,0.3-0.9c0-0.1,0.1-0.2,0.3-0.2h1.7c0.1,0,0.2,0.1,0.3,0.2
		c0.1,0.4,0.2,0.7,0.3,0.9c0.1,0.1,0,0.3-0.1,0.4c0,0-0.1,0-0.1,0H62.5z M63.3,41.1c-0.2,0-0.3-0.1-0.3-0.3c0,0,0,0,0-0.1
		c0.5-1.7,0.7-3.5,0.7-5.3c0,1.8,0.2,3.6,0.7,5.3c0,0.2-0.1,0.3-0.2,0.4L63.3,41.1L63.3,41.1z M75.1,26.6
		C75.1,26.7,75,26.7,75.1,26.6C75,26.7,75,26.7,75.1,26.6l-0.2,0.1c0,0-0.1,0-0.1,0.1c0,0,0,0,0,0v19.3c0,0,0,0.1,0.1,0.1
		c0,0,0,0,0,0H75c0,0,0.1,0,0.1,0.1c0,0,0,0,0,0v1.4c0,0,0,0.1-0.1,0.1c0,0,0,0,0,0h-1.5c0,0-0.1,0-0.1-0.1c0,0,0,0,0,0
		c0,0,0-0.1-0.1-0.1c0,0,0,0,0,0h-1l-1.6-0.4c-0.1,0-0.3-0.1-0.4-0.1c-0.8,0.1-1.6-0.3-2-1c-1.4-1.9-2.5-4-3.1-6.2
		c-0.5-3.2-0.9-6.4-1-9.7c0-0.3,0.2-0.7,0.4-0.9V29h-0.3c0-0.4-0.2-0.8-0.6-1v-1h-0.2v1c-0.4,0.2-0.6,0.6-0.6,1h-0.3v0.3
		c0.2,0.3,0.4,0.6,0.4,0.9c-0.1,3.2-0.5,6.5-1,9.7c-0.7,2.2-1.8,4.3-3.2,6.2c-0.6,0.9-1,1-1.6,1c-0.1,0-0.3,0-0.4,0.1l-1.5,0.4h-1.3
		c0,0-0.1,0-0.1,0.1c0,0,0,0,0,0c0,0,0,0.1-0.1,0.1c0,0,0,0,0,0h-1.5c0,0-0.1,0-0.1-0.1c0,0,0,0,0,0v-1.4c0,0,0-0.1,0.1-0.1
		c0,0,0,0,0,0h0.1c0,0,0.1,0,0.1-0.1c0,0,0,0,0,0V26.8c0,0,0-0.1-0.1-0.1c0,0,0,0,0,0h-0.1c0,0-0.1,0-0.1-0.1c0,0,0,0,0,0v-1.4
		c0,0,0-0.1,0-0.1h1.5c0,0,0.1,0,0.1,0.1c0,0,0,0,0,0v0.1c0,0,0,0.1,0.1,0.1c0,0,0,0,0,0h19.4c0,0,0.1,0,0.1-0.1c0,0,0,0,0,0v-0.1
		c0,0,0-0.1,0.1-0.1c0,0,0,0,0,0H75c0,0,0.1,0,0.1,0.1c0,0,0,0,0,0L75.1,26.6L75.1,26.6L75.1,26.6z"/>
	<path class="st2" d="M61.2,28.6v12.3c0,0,0.1,0,0.1,0c0,0,0,0,0,0c0.1-0.2,0.2-0.4,0.2-0.7V28.5c0-0.1-0.1-0.2-0.2-0.2h-1.1
		c-0.1,0-0.2,0.1-0.2,0.2v0.1h1C61.2,28.5,61.2,28.6,61.2,28.6z"/>
	<path class="st2" d="M66.4,28.6v13c0,0,0,0.1,0,0.1c0.1,0.1,0.2,0.3,0.2,0.5c0,0,0.1,0,0.1,0c0,0,0,0,0,0V28.5
		c0-0.1-0.1-0.2-0.2-0.2h-1c-0.1,0-0.2,0.1-0.2,0.2v0.1h1C66.4,28.6,66.4,28.6,66.4,28.6z"/>
</g>
<g>
	<polygon class="st2" points="67.8,57.4 69.5,57.4 68.6,55.2 	"/>
	<rect x="52.6" y="55" class="st2" width="2.8" height="3.6"/>
	<path class="st2" d="M35.9,56.2c0-0.1,0-0.1,0-0.2v-0.5c0-0.2-0.1-0.5-0.4-0.5c-0.1,0-0.1,0-0.2,0h-2v1.6h2
		C35.6,56.6,35.8,56.5,35.9,56.2z"/>
	<path class="st2" d="M26.2,55c-0.1,0-0.1,0-0.2,0h-2v1.7h2c0.2,0,0.5-0.1,0.5-0.4c0-0.1,0-0.1,0-0.2v-0.6
		C26.6,55.3,26.4,55,26.2,55z"/>
	<path class="st2" d="M87.1,56.2c0-0.1,0-0.1,0-0.2v-0.5c0-0.2-0.1-0.5-0.4-0.5c-0.1,0-0.1,0-0.2,0h-2v1.6h2
		C86.8,56.6,87.1,56.5,87.1,56.2z"/>
	<polygon class="st2" points="28.7,57.4 30.4,57.4 29.6,55.2 	"/>
	<path class="st2" d="M118.9,50.6H9.1c-1,0-1.8,0.8-1.8,1.8v8.9c0,1,0.8,1.8,1.8,1.8h109.7c1,0,1.8-0.8,1.8-1.8v-8.9
		C120.6,51.4,119.8,50.6,118.9,50.6z M27.2,55.5v0.7c0.1,0.6-0.3,1.1-0.9,1.2c-0.1,0-0.2,0-0.3,0h-2v1.9l-0.7,0v-5H26
		c0.6-0.1,1.1,0.3,1.2,0.9C27.2,55.2,27.2,55.3,27.2,55.5z M31.1,59.3l-0.4-1.1h-2.2L28,59.2h-0.7l1.9-5h0.7v0l1.9,5H31.1z
		 M35.8,59.2l-0.9-2h-1.6v2h-0.7v-5h2.7c0.6-0.1,1.1,0.3,1.2,0.9c0,0.1,0,0.2,0,0.3V56v0.1c0,0.7-0.3,1.1-0.9,1.2l0.9,2H35.8z
		 M38.4,59.3h-0.7v-5h0.7V59.3z M43.5,55.6h-0.7V55h-2.4v1.4h2.4c0.1,0,0.2,0,0.3,0c0.2,0.1,0.3,0.2,0.4,0.4c0,0.1,0.1,0.2,0.1,0.3
		v1.4c0,0.1,0,0.2-0.1,0.3c-0.1,0.2-0.2,0.3-0.4,0.4c-0.1,0-0.2,0.1-0.3,0h-2.5c-0.1,0-0.2,0-0.3,0c-0.2-0.1-0.3-0.2-0.4-0.4
		c0-0.1-0.1-0.2,0-0.3v-0.6h0.7v0.6h2.5v-1.4h-2.4c-0.1,0-0.2,0-0.3,0c-0.2-0.1-0.3-0.2-0.4-0.4c0-0.1-0.1-0.2-0.1-0.3V55
		c0-0.1,0-0.2,0.1-0.3c0-0.1,0.1-0.2,0.2-0.2c0.1-0.1,0.1-0.1,0.2-0.2c0.1,0,0.2-0.1,0.3,0h2.4c0.1,0,0.2,0,0.3,0
		c0.2,0.1,0.3,0.2,0.4,0.4c0,0.1,0.1,0.2,0.1,0.3V55.6z M50.9,58.5c0,0.1,0,0.2,0,0.3c-0.1,0.2-0.2,0.3-0.4,0.4
		c-0.1,0-0.2,0.1-0.3,0.1h-2.7c-0.1,0-0.2,0-0.3-0.1c-0.2-0.1-0.3-0.2-0.4-0.4c0-0.1-0.1-0.2,0-0.3V55c0-0.1,0-0.2,0-0.3
		c0-0.1,0.1-0.2,0.2-0.2c0.1-0.1,0.1-0.1,0.2-0.2c0.1,0,0.2-0.1,0.3,0h2.7c0.1,0,0.2,0,0.3,0c0.2,0.1,0.3,0.2,0.4,0.4
		c0,0.1,0.1,0.2,0,0.3v0.6h-0.7V55h-2.7v3.5h2.7v-0.6h0.7V58.5z M56.1,58.8c-0.1,0.2-0.2,0.3-0.4,0.4c-0.1,0-0.2,0.1-0.3,0h-2.9
		c-0.1,0-0.2,0-0.3,0c-0.2-0.1-0.3-0.2-0.4-0.4c0-0.1-0.1-0.2,0-0.3V55c0-0.1,0-0.2,0-0.3c0-0.1,0.1-0.2,0.2-0.2
		c0.1-0.1,0.1-0.1,0.2-0.2c0.1,0,0.2-0.1,0.3,0h2.9c0.1,0,0.2,0,0.3,0c0.2,0.1,0.3,0.2,0.4,0.4c0,0.1,0.1,0.2,0,0.3v3.6l0,0
		C56.2,58.6,56.2,58.7,56.1,58.8z M61.8,59.3h-0.7l-3-3.9v3.8h-0.7v-5h0.7l3,3.9v-3.8h0.7V59.3z M64.9,59.3h-0.7V55h-1.6v-0.7h4V55
		h-1.6V59.3z M70.2,59.3l-0.4-1.1h-2.3l-0.4,1.1h-0.7l1.9-5H69l1.9,5H70.2z M72.4,59.3h-0.7v-5c0,0,0.7,0,0.7,0V59.3z M78,59.3h-0.7
		l-3-3.9l0,3.8h-0.7v-5h0.7l3,3.9v-3.8H78V59.3z M82.9,55H80v1.4h2.5v0.7H80v1.4h2.9v0.7h-3.6v-5h3.6V55z M87,59.2l-0.9-2h-1.5v2
		h-0.7v-5h2.7c0.6-0.1,1.1,0.3,1.2,0.9c0,0.1,0,0.2,0,0.3V56v0.1c0,0.7-0.3,1.1-0.9,1.2l0.9,2H87z M95.2,57.5c0,0.2,0,0.5-0.1,0.7
		c-0.1,0.2-0.2,0.4-0.3,0.6c-0.2,0.2-0.3,0.3-0.6,0.3c-0.2,0.1-0.5,0.1-0.7,0.1H91v-5h2.5c0.2,0,0.5,0,0.7,0.1
		c0.4,0.2,0.7,0.5,0.9,0.9c0.1,0.2,0.1,0.5,0.1,0.7V57.5z M99.7,59.3l-0.4-1.1H97l-0.4,1.1h-0.7l1.9-5h0.7h0l1.9,5H99.7z
		 M102.8,57.3v2h-0.7v-2l-1.9-3h0.8l1.5,2.3l1.5-2.3h0.8L102.8,57.3z"/>
	<path class="st2" d="M94.3,55.2c-0.1-0.1-0.2-0.2-0.3-0.2c-0.1,0-0.3-0.1-0.5,0h-1.8v3.5h1.9c0.5,0,1-0.3,1-0.9c0,0,0-0.1,0-0.1V56
		c0-0.1,0-0.3-0.1-0.4C94.4,55.4,94.4,55.3,94.3,55.2z"/>
	<polygon class="st2" points="97.3,57.4 99,57.4 98.2,55.2 	"/>
</g>
</svg>
