<svg id="Calque_1" data-name="Calque 1" xmlns="http://www.w3.org/2000/svg" viewBox="0 0 130 70"><defs><style>.cls-1{fill:none;}.cls-2{fill:#6c215f;}</style></defs><title>logo-outils</title><rect class="cls-1" width="130" height="70"/><path class="cls-2" d="M63.69,19.34H61.13V16.68a.69.69,0,0,0-.69-.69h-.13L39.67,19.32h0A.69.69,0,0,0,39,20v39.8a.69.69,0,0,0,.65.73H63.69a.69.69,0,0,0,.69-.69V20.05a.69.69,0,0,0-.67-.71Zm-3.93-1.85v1.85H48.34ZM63,59.16H40.33V20.72H63ZM91,18.73a.69.69,0,0,0-.1-.15l0-.07L82.23,9.83h0a.76.76,0,0,0-.49-.2L60.51,9.46h-.65a.69.69,0,0,0-.69.69v3.53a.69.69,0,1,0,1.38,0V10.84L81,11v8a.69.69,0,0,0,.69.69h7.92V53.91H66.59a.69.69,0,0,0,0,1.38H90.36A.69.69,0,0,0,91,54.6V19A.69.69,0,0,0,91,18.73ZM82.42,12l6.26,6.31H82.42ZM59.66,50.49a.69.69,0,0,1-.69.69H44.83a.69.69,0,1,1,0-1.38H59a.69.69,0,0,1,.69.68ZM54.23,54a.69.69,0,0,1-.69.69H44.83a.69.69,0,1,1,0-1.38h8.7a.69.69,0,0,1,.7.68Z"/><path class="cls-2" d="M84.33,24.13a.69.69,0,0,1-.69.69H69.5a.69.69,0,1,1,0-1.38H83.65a.69.69,0,0,1,.69.68Z"/><path class="cls-2" d="M84.33,28a.69.69,0,0,1-.69.69H69.5a.69.69,0,1,1,0-1.38H83.65a.69.69,0,0,1,.69.68Z"/><path class="cls-2" d="M84.33,31.84a.69.69,0,0,1-.69.69H69.5a.69.69,0,1,1,0-1.38H83.65a.69.69,0,0,1,.69.68Z"/><path class="cls-2" d="M78.89,35.69a.69.69,0,0,1-.69.69H69.5a.69.69,0,1,1,0-1.38h8.7a.69.69,0,0,1,.7.68Z"/></svg>