<svg id="Calque_1" data-name="Calque 1" xmlns="http://www.w3.org/2000/svg" viewBox="0 0 200 80"><defs><style>.cls-1{isolation:isolate;}.cls-2{fill:#666;}</style></defs><title>logo-deep-learning</title><g class="cls-1"><path class="cls-2" d="M86.06,23.12a9.68,9.68,0,0,1-.61,3.52,7.78,7.78,0,0,1-1.73,2.71A7.7,7.7,0,0,1,81,31.09a9.3,9.3,0,0,1-3.46.62H71.16V14.52h6.43a9.3,9.3,0,0,1,3.46.62,7.66,7.66,0,0,1,2.68,1.75,7.85,7.85,0,0,1,1.73,2.72A9.68,9.68,0,0,1,86.06,23.12Zm-2.39,0a8.63,8.63,0,0,0-.43-2.83A6,6,0,0,0,82,18.18a5.23,5.23,0,0,0-1.92-1.32,6.64,6.64,0,0,0-2.51-.46H73.5V29.83h4.09a6.64,6.64,0,0,0,2.51-.46A5.25,5.25,0,0,0,82,28.06,5.9,5.9,0,0,0,83.24,26,8.63,8.63,0,0,0,83.67,23.12Z"/><path class="cls-2" d="M99.83,14.52v1.9H91.57v5.71h6.68v1.82H91.57v5.87h8.26v1.9H89.23V14.52Z"/><path class="cls-2" d="M113.77,14.52v1.9h-8.26v5.71h6.68v1.82h-6.68v5.87h8.26v1.9h-10.6V14.52Z"/><path class="cls-2" d="M119.67,25.28v6.43h-2.32V14.52h5.08a9.54,9.54,0,0,1,2.84.38,5.47,5.47,0,0,1,2,1.07,4.34,4.34,0,0,1,1.18,1.68,5.92,5.92,0,0,1,.39,2.2,5.59,5.59,0,0,1-.42,2.2,4.73,4.73,0,0,1-1.23,1.72,5.71,5.71,0,0,1-2,1.12,8.62,8.62,0,0,1-2.75.4Zm0-1.85h2.76a5.38,5.38,0,0,0,1.76-.26,3.59,3.59,0,0,0,1.28-.74,3.07,3.07,0,0,0,.78-1.13,3.88,3.88,0,0,0,.26-1.45,3.3,3.3,0,0,0-1-2.57,4.43,4.43,0,0,0-3.07-.92h-2.76Z"/></g><g class="cls-1"><path class="cls-2" d="M27.1,62.27h9.3v2.45H24.19V43.22H27.1Z"/><path class="cls-2" d="M53.85,43.22v2.37H43.53v7.14h8.35V55H43.53v7.33H53.85v2.37H40.6V43.22Z"/><path class="cls-2" d="M76.71,64.71H74.46a1,1,0,0,1-.63-.2,1.19,1.19,0,0,1-.36-.5l-2-5.19H61.81L59.8,64a1.17,1.17,0,0,1-.36.48,1,1,0,0,1-.63.21H56.56l8.6-21.5h3Zm-14.08-8h8L67.27,48a16.42,16.42,0,0,1-.65-2q-.16.62-.32,1.13T66,48Z"/><path class="cls-2" d="M83.6,55.74v9h-2.9V43.22h6.07a13.25,13.25,0,0,1,3.52.41,6.71,6.71,0,0,1,2.45,1.19,4.77,4.77,0,0,1,1.43,1.88,6.29,6.29,0,0,1,.46,2.47,6.18,6.18,0,0,1-.36,2.13,5.62,5.62,0,0,1-1,1.78,6.24,6.24,0,0,1-1.67,1.34,8.22,8.22,0,0,1-2.23.84,3.08,3.08,0,0,1,1,.92l6.27,8.54H94a1.27,1.27,0,0,1-1.17-.62l-5.58-7.68a1.63,1.63,0,0,0-.55-.52,2,2,0,0,0-.9-.16Zm0-2.12h3a7.41,7.41,0,0,0,2.24-.31,4.57,4.57,0,0,0,1.62-.87,3.6,3.6,0,0,0,1-1.34,4.38,4.38,0,0,0,.33-1.72,3.42,3.42,0,0,0-1.27-2.89,6.12,6.12,0,0,0-3.77-1H83.6Z"/><path class="cls-2" d="M102.8,43.31a1.5,1.5,0,0,1,.43.4l12.45,16.2q0-.39-.06-.76t0-.71V43.22h2.55v21.5h-1.47a1.24,1.24,0,0,1-.58-.12,1.46,1.46,0,0,1-.46-.41L103.21,48q0,.38,0,.74c0,.24,0,.46,0,.66V64.71h-2.55V43.22h1.5A1.3,1.3,0,0,1,102.8,43.31Z"/><path class="cls-2" d="M127.84,64.71h-2.91V43.22h2.91Z"/><path class="cls-2" d="M136.67,43.31a1.5,1.5,0,0,1,.43.4l12.45,16.2c0-.26,0-.51-.06-.76s0-.48,0-.71V43.22H152v21.5h-1.47a1.25,1.25,0,0,1-.58-.12,1.44,1.44,0,0,1-.46-.41L137.08,48q0,.38,0,.74c0,.24,0,.46,0,.66V64.71h-2.55V43.22h1.5A1.3,1.3,0,0,1,136.67,43.31Z"/><path class="cls-2" d="M167.84,62.6a14.33,14.33,0,0,0,1.6-.08,10.07,10.07,0,0,0,1.37-.25,9.22,9.22,0,0,0,1.21-.4q.57-.23,1.14-.53V56.6h-3.33a.63.63,0,0,1-.46-.17.54.54,0,0,1-.17-.4V54.38h6.6v8.25a11.87,11.87,0,0,1-1.69,1,11.37,11.37,0,0,1-1.87.73,13.65,13.65,0,0,1-2.14.44,20.08,20.08,0,0,1-2.48.14,11.17,11.17,0,0,1-4.29-.8A9.88,9.88,0,0,1,160,61.9a10.19,10.19,0,0,1-2.2-3.47A12.18,12.18,0,0,1,157,54a12.5,12.5,0,0,1,.77-4.48,9.65,9.65,0,0,1,5.67-5.72A12.43,12.43,0,0,1,168,43a14.07,14.07,0,0,1,2.37.19,11.22,11.22,0,0,1,2,.54,9.5,9.5,0,0,1,1.73.86,10.5,10.5,0,0,1,1.49,1.13L174.79,47a.76.76,0,0,1-.66.41,1.06,1.06,0,0,1-.52-.17q-.37-.21-.84-.51a7.28,7.28,0,0,0-1.13-.58,9.17,9.17,0,0,0-1.58-.47,10.38,10.38,0,0,0-2.15-.2,8.71,8.71,0,0,0-3.29.59,6.94,6.94,0,0,0-2.5,1.69,7.49,7.49,0,0,0-1.59,2.67A10.49,10.49,0,0,0,160,54a10.64,10.64,0,0,0,.58,3.64,7.67,7.67,0,0,0,1.63,2.71A7,7,0,0,0,164.66,62,8.36,8.36,0,0,0,167.84,62.6Z"/></g></svg>