<svg id="Calque_1" data-name="Calque 1" xmlns="http://www.w3.org/2000/svg" viewBox="0 0 430 230"><defs><style>.cls-1{fill:none;}.cls-2{fill:#6c215f;}</style></defs><title>logo-xebicon2</title><rect class="cls-1" width="430" height="230"/><g id="Calque_1-2" data-name="Calque 1"><path class="cls-2" d="M156.53,95.56a18.52,18.52,0,0,0-13.84,5.32A19.87,19.87,0,0,0,137.06,115a19,19,0,0,0,18.49,19.45q.69,0,1.37,0a18.34,18.34,0,0,0,17.42-12.77h-9.63a10.05,10.05,0,0,1-8.4,4.43,9.17,9.17,0,0,1-10.21-8q0-.13,0-.26h29.19V115a19.53,19.53,0,0,0-5-14.24A18.34,18.34,0,0,0,156.53,95.56ZM146.65,111c0-4.74,6-7.27,9.17-7.27a9,9,0,0,1,10,7.27Z"/><path class="cls-2" d="M201.76,95.56A24.45,24.45,0,0,0,188.83,99V84.68h-9V133.4h9v-2a23.1,23.1,0,0,0,12.74,3.06A17.82,17.82,0,0,0,215,128.94a19.44,19.44,0,0,0,5.35-14.06A19.07,19.07,0,0,0,215,101.25,17.6,17.6,0,0,0,201.76,95.56Zm5.13,27.51a10,10,0,0,1-7.46,3.06,10.21,10.21,0,0,1-7.67-3.06,10.7,10.7,0,0,1-3.06-7.88,10.57,10.57,0,0,1,3.06-7.76,10.45,10.45,0,0,1,7.76-3.06,9.78,9.78,0,0,1,7.43,3.06,11,11,0,0,1,3.06,7.92,10.45,10.45,0,0,1-3.12,7.7Z"/><rect class="cls-2" x="224.07" y="96.6" width="9.11" height="36.8"/><rect class="cls-2" x="224.07" y="84.8" width="9.11" height="8.65"/><polygon class="cls-2" points="155.27 78.2 132.69 78.2 108.73 102.47 84.77 78.2 62.18 78.2 97.45 115 62.18 151.8 84.77 151.8 108.73 127.53 132.69 151.8 155.27 151.8 120.03 115 155.27 78.2"/><path class="cls-2" d="M310.92,96a19.25,19.25,0,1,0,19.25,19.25A19.25,19.25,0,0,0,310.92,96Zm0,30.07a10.85,10.85,0,1,1,10.85-10.85A10.85,10.85,0,0,1,310.92,126Z"/><path class="cls-2" d="M265.63,126a16.47,16.47,0,1,1,11.92-27.84h12a26.53,26.53,0,1,0,0,22.77h-12A16.41,16.41,0,0,1,265.63,126Z"/><path class="cls-2" d="M357.1,110A7,7,0,0,0,343,110h0V133.4h-9.17V96.72H343v2.17a13.11,13.11,0,0,1,10.48-4.22,13.91,13.91,0,0,1,14.29,13.51q0,.56,0,1.13V133.4H357.1Z"/></g></svg>