<svg id="Calque_1" data-name="Calque 1" xmlns="http://www.w3.org/2000/svg" viewBox="0 0 130 70"><defs><style>.cls-1{fill:none;}.cls-2{fill:#232021;}.cls-3{fill:#252223;}.cls-4{fill:#242223;}.cls-5{fill:#454545;}.cls-6{fill:#282526;}.cls-7{fill:#221f20;}.cls-8{fill:#ecb60c;}.cls-9{fill:#d6a80d;}.cls-10{fill:#d7a915;}.cls-11{fill:#d6ad25;}.cls-12{fill:#332f2f;}.cls-13{fill:#eab621;}.cls-14{fill:#5f5e5e;}.cls-15{fill:#3e3e3e;}.cls-16{fill:#585858;}.cls-17{fill:#616060;}.cls-18{fill:#7e7e7e;}.cls-19{fill:#5b5a59;}.cls-20{fill:#656565;}.cls-21{fill:#5e5d5e;}.cls-22{fill:#575757;}.cls-23{fill:#ddc75a;}.cls-24{fill:#474747;}.cls-25{fill:#323232;}.cls-26{fill:#313132;}.cls-27{fill:#4e4c4d;}</style></defs><title>logo-devoxxfrance</title><rect class="cls-1" width="130" height="70"/><g id="PO2qqx.tif"><path class="cls-2" d="M21.54,33.38l.13-1.48h3.84c1.31,0,2.61,0,3.92,0,1.65.07,2.33.82,2.34,2.47,0,1,0,2.06,0,3.09a2.1,2.1,0,0,1-2.28,2.41c-1.38.08-2.77,0-4.15.06H21.54ZM30,33.29H23.3v5.42h6.54A16.58,16.58,0,0,0,30,33.29Z"/><path class="cls-3" d="M64.11,49l.16,1.47h3.37l.57-.67,1.41.11c-.58.69-.93,1.49-1.37,1.55a14.66,14.66,0,0,1-4.22,0c-1.16-.19-1.5-1.86-1.16-4.21a1.88,1.88,0,0,1,2-1.78c.47,0,1,0,1.43,0,2.68,0,3.28.68,3,3.5Zm.22-2.28-.2,1.12h4l-.29-1.12Z"/><path class="cls-2" d="M43.68,45.53v6.2c-1.53,0-3,.07-4.5,0a1.72,1.72,0,0,1-1.73-1.87c0-.71,0-1.42,0-2.13,0-1.46.64-2.11,2.08-2.16S42.27,45.53,43.68,45.53Zm-1.26,1.31H38.84v3.64h3.58Z"/><path class="cls-2" d="M23.43,48.42v3.27l-1.24.07V44h6.67l.14,1.1H23.47v2.17h5.38v1.19Z"/><path class="cls-4" d="M52.24,51.71H50.9V46.8H47.23v4.88H46V45.55c1.53,0,3-.07,4.51,0a1.75,1.75,0,0,1,1.76,1.87C52.26,48.82,52.24,50.2,52.24,51.71Z"/><path class="cls-3" d="M59.71,49.78l1,.12c-.28,1.76-1,2-4.29,1.85-1.48-.09-2-.71-2.08-2.31-.07-3,.26-3.69,1.79-3.89,3-.4,4.21.06,4.6,1.82l-1.05.16-.56-.74H55.78v3.49C57.29,50.89,59,50.68,59.71,49.78Z"/><path class="cls-5" d="M104.44,41.67a14.12,14.12,0,0,0,2.62-1.4,2.87,2.87,0,0,0,.61-3.58c-.55-.92-1.58-1.08-3.15-.53-.8,1.27-1.56,2.53-2.37,3.74A4,4,0,0,1,99,41.82c-1.38.09-2.76.25-4.15.36A3.52,3.52,0,0,1,91,39.82c-.33-.79-.68-1.58-1-2.39-.89.11-1.12.63-.91,1.35a8.75,8.75,0,0,0,.59,1.29l-.17.21c-1.16-1.78-1.14-1.95.37-3.71l.24-.31c.15.49.29,1,.46,1.47,1.37,3.86,1.79,4,5.84,4,3.55,0,5.69-1.63,7.1-4.69a11,11,0,0,1,1.46-1.9V32.66l.24-.3.16.08v2.89l2.11.46a3.22,3.22,0,0,1,.63,3.71,3.43,3.43,0,0,1-3,2.3,1.65,1.65,0,0,0-.43.15Z"/><path class="cls-6" d="M30.92,45.6c4.17-.36,5-.08,5.39,1.76l-1,.17-.62-.77h-2.5v5H30.92Z"/><path class="cls-2" d="M69.42,37.43c-.35,2-.9,2.45-2.92,2.47-1.54,0-3.09,0-4.63,0-2,0-2.7-.74-2.71-2.73,0-1,0-2,0-3,0-1.34.65-2.17,1.95-2.23,2.09-.1,4.19-.08,6.29,0,1.24.05,1.85.92,2,2.11ZM61,38.58h6.53V33.3H61Z"/><path class="cls-7" d="M42.26,38.64l1.62.13L44,39.84H34.73V32h8.71V33.1h-7v2.16h7.1l-.17,1.23H36.43v2.23L38,38.64Z"/><path class="cls-2" d="M55.77,31.94h1.87l-5.7,8H50.78l-5.69-8H47l4.38,6.28Z"/><path class="cls-8" d="M78.22,38.91l-1.12,1H75.41l-.36-.44,2.07-1.61,1-.91,1.28-1.19-1.24-1.09,1-.91,1.17,1.06,2.74-2.92H84.9l-3.6,3.8,4.36,4.2H83.45L80.1,36.52l-.9,1.43Z"/><path class="cls-2" d="M78.09,37l-1,.91L76,36.74l-3,3.18h-2l3.86-4.15L71.25,32H73.2L75.92,35l1.19-1.27,1-1.05.91-.76h1.82l-1.7,1.83-1,.91-1.24,1.15Z"/><path class="cls-9" d="M91,25.25c-.2-3.86,2.34-6.89,5.83-7,3.93-.17,7.09,3.05,7.42,7.83-1.22-3.87-3.51-6.33-7.48-6.17C93.5,20,91.88,22.37,91,25.25Z"/><path class="cls-10" d="M101.15,25.27c-2.54-3.28-6.36-2.61-8,1.39a4,4,0,0,1,3.1-4.46A4.25,4.25,0,0,1,101.44,25Z"/><path class="cls-11" d="M94.59,27.91C94.59,26,95.75,25,97.71,25a2.57,2.57,0,0,1,2.65,2.84,3,3,0,0,0-5.77,0Z"/><path class="cls-12" d="M78.22,38.91l1-1,2,1.94H79Z"/><path class="cls-13" d="M78.15,32.71l-1,1.05-1.78-1.49.2-.3h2.09Z"/><path class="cls-14" d="M89.72,32.66l.67-2.07,1.69-.37.79-.15h.64v.26l-2.23.48,2.46.4a.85.85,0,0,1,0,.21l-3.17-.27L90,32.69Z"/><path class="cls-15" d="M92.84,42.64v4.75l.3.25-1.57,1.22-.21-.22,1.16-1.32q0-2.18,0-4.37Z"/><path class="cls-16" d="M104.44,41.67l.24.28a6.5,6.5,0,0,1-1,4c-.26.35,0,1.16.13,1.73a4.07,4.07,0,0,0,.71,1.07l-.18.16A3.41,3.41,0,0,1,103.06,46l.23-.28a3.16,3.16,0,0,0,1-2.67A8.86,8.86,0,0,1,104.44,41.67Z"/><path class="cls-5" d="M95.42,29.84l8.1.23q0,.11,0,.23l-8.09-.23Q95.42,30,95.42,29.84Z"/><path class="cls-17" d="M92.84,42.64l-.31.31c-1.66-.16-2.39-1.36-3-2.68l.17-.21C90.46,41.26,91.15,42.57,92.84,42.64Z"/><path class="cls-18" d="M103.29,45.73l-.23.28V40.5h.23Z"/><path class="cls-19" d="M89.72,32.66l.29,0,.11,3.56-.24.31Z"/><path class="cls-20" d="M91.37,48.64l.21.22-2.22,2.4-.3-.27Z"/><path class="cls-14" d="M106.2,39.4l-1.48.1v-2l1.41-.55.27.19,0,0a.83.83,0,0,0,0,.18l-.16.16-1.28.11v1.65h1Z"/><path class="cls-21" d="M103.52,30.3q0-.11,0-.23c.81,0,1.62.06,1.63,1.18l-.24.52-.32-.92L104,31l-.5-.22Z"/><path class="cls-22" d="M104.56,48.79l1.85,1.54-.44.43-1.59-1.8Z"/><path class="cls-23" d="M101.15,25.27l.29-.3.63,1.8-.3.11Z"/><path class="cls-14" d="M106.7,38.63l-.49.77-.14-.14.24-1.75.16-.16.17.06.07.25.14.28q0,.2,0,.39Z"/><path class="cls-24" d="M95.42,29.84q0,.11,0,.23l-1.9.27v-.26L94,30l.81-.14Z"/><path class="cls-25" d="M104.91,31.77l.24-.52.08,1.11-.24.3Z"/><path class="cls-26" d="M93.75,31.23l5.19,0,.52.22h-5.7A.85.85,0,0,0,93.75,31.23Z"/><path class="cls-27" d="M99.46,31.43l-.52-.22,4.54-.47.5.22-1.42.33-.8.16Z"/></g></svg>