<svg id="Calque_1" data-name="Calque 1" xmlns="http://www.w3.org/2000/svg" viewBox="0 0 1080 1080"><defs><style>.cls-1{fill:#74c3fe;}.cls-2{fill:#8f3500;}.cls-3{fill:#fdfdfd;}.cls-4{fill:#22e967;}.cls-5{fill:#06fd99;}.cls-6{fill:#00fefe;}.cls-7{fill:#db2b00;}.cls-8{fill:#006a9a;}.cls-9{fill:#43acfd;}.cls-10{fill:#009200;}.cls-11{fill:#006e9c;}.cls-12{fill:#0073a4;}.cls-13{fill:#204b97;}.cls-14{fill:#b2c3fd;}.cls-15{fill:#dd2a00;}.cls-16{fill:#c42d00;}.cls-17{fill:#bc1b00;}.cls-18{fill:#d6c3fc;}.cls-19{fill:#b0c7fd;}.cls-20{fill:#6e1100;}.cls-21{fill:#3d70eb;}</style></defs><title>logo-airflow</title><path class="cls-1" d="M138.9,584l-1.52-1.23a7.48,7.48,0,0,1,3.47-4.73l.31.33C141.82,580.82,143,583.46,138.9,584Z"/><path class="cls-2" d="M511,150c-2.13-2.67-5.22-4.65-6-8.31,12.38,10,24.83,19.86,37.11,29.95,10.4,8.54,20.52,17.43,30.93,26,11.92,9.77,24.07,19.25,36,29,10.43,8.5,20.66,17.25,31,25.79s20.67,16.69,30.91,25.15,20.45,17.49,31,25.87q7.14,5.69,14.1,11.59c-3.55,2.75-6-.18-8.32-1.94-9.73-7.45-19.31-15.08-28.89-22.72-19.28-15.39-38.37-31-57.15-47-21.54-18.37-43.72-36-65.14-54.49-14.52-12.54-30-24-43.26-38C512.76,150.28,512.26,148.89,511,150Z"/><path class="cls-3" d="M982.21,41.85q-.21-6-.43-11.95L983,30C982.28,33.9,983.69,38,982.21,41.85Z"/><path class="cls-4" d="M504.05,537.58c.1,0,0,0,0,0Z"/><path class="cls-4" d="M574,933.05h0c-8.93-11.78-17.34-23.9-24.31-37-25.27-47.37-33.92-98.68-35.5-151.54-.86-28.59,1.16-57.08,4.7-85.48,2.51-20.17,5.56-40.23,9.75-60.11q3.78-17.93,7.55-35.87a2.94,2.94,0,0,0-1.36-1.38c-9.21-4.08-14.38-11.13-15.61-21.11-.18-1.49-.6-2.92-2.21-3.55a14.37,14.37,0,0,0-5.92-.52c-2.18.2-4.75-.6-6.49,1.06h-.78c-29.46-.09-57,7.61-83.42,20.21-9.07,4.47-17.44,10.11-26,15.34a21.93,21.93,0,0,1-2.87,2.75,210.71,210.71,0,0,0-40,38.38c-2.25,2.83-5.12,5.22-6.07,8.92,0,0,0,0,0,.06-1.9.54-2.78,2.32-3.88,3.8-4.27,5.73-8.19,11.71-11.89,17.82-11.91,19.67-22.3,40-29.13,62.1-1,3.34-1,5.85,2,8.32,14.22,11.44,28.07,23.35,42.5,34.54,7.13,5.2,13.39,11.49,20.63,16.53a4.82,4.82,0,0,0,1.26.32c0,1.09,1.55.76,2,1.41,17.12,14,34.28,27.85,51.35,41.87,13.89,11.41,27.67,23,41.51,34.44Q486.94,865.2,512.09,886l1.88,1h0c1.81,2.66,4.58,4.15,7.19,5.82h0a1.38,1.38,0,0,0,.81.51h0l1,.92c4.26,1.93,7.16,5.71,11,8.18,6.63,4.24,11.35,11,18.79,14.13l.19,0A3.17,3.17,0,0,0,554,919c7.65,7.65,16.07,14.39,24.57,21.05C578.86,936.59,575.4,935.5,574,933.05Z"/><path class="cls-5" d="M554,918c1.19.74,1,2,1,3.08-4.77-1.74-7.84-5.77-11.64-8.8-6.57-5.23-13-10.69-19.43-16a4.67,4.67,0,0,1,4.06,1.47c5.64,5.82,13.19,9.27,18.68,15.31C548.6,915.1,551.5,916.33,554,918Z"/><path class="cls-6" d="M36.39,101.48c20.59-.12,41.18-.05,61.76,0q114.79,0,229.59,0c2.71-.23,5.25.88,7.92.94,14.81.35,29.56,1.5,44.3,3,27.22,2.77,54.21,6.88,80.57,14.32,15.42,4.35,30.43,9.86,43,20.44,14.53,12,29.38,23.53,43.85,35.54,27.68,23,55.55,45.7,83.31,68.57q32.2,26.52,64.46,53c6.82,5.57,13.32,11.53,20.59,16.53a4.88,4.88,0,0,0,1.1,0,3,3,0,0,0,.84,1.87q30.14,25.06,60.58,49.74c3.8,3.08,4.76,5.83,3.09,10.57a314.1,314.1,0,0,1-27.8,59.14c-1.11,1.82-3.4,3.59-1.25,6.15,2.35-.18,3.23-2.16,4.41-3.69,6.32-8.16,11.09-17.33,16.75-25.92,1.26-1.91,2.14-5.34,4.2-5.1,2.44.29,3.16,3.79,4.51,6a5.32,5.32,0,0,1,.53,1.91c2,11.44,4.87,22.7,7.16,34.07a13.33,13.33,0,0,1,.22,6.4c-1.08,3.81.84,4.69,4.21,4.5,5.6-.31,10.61-2.53,15.73-4.48s10.31-4.48,15.82-5.72a12.61,12.61,0,0,0,4.64-1.73c14.86-8.49,29.66-17.09,43.93-26.58a645.24,645.24,0,0,0,59-42.64c1.37-1.12,3.06-2,3.51-3.88,1.83.12,3-1.16,4.22-2.17A429.87,429.87,0,0,0,979.21,337a11.93,11.93,0,0,0,1.38-1.72c-.17,4.92-.49,9.83-.81,14.74-1.69,26.44-4.33,52.78-9.28,78.8-4.92,25.87-10.12,51.76-25.85,73.9-.27.47-.57.93-.86,1.39-1.9,0-3,1.73-4.31,2.84a234.89,234.89,0,0,1-74.77,42.26c-32.3,11.28-65.68,16.62-99.63,18.22a503.38,503.38,0,0,1-63.84-.94c-4.79-.38-9.6-.66-14.39-1.16-10.89-1.14-21.74-2.68-32.63-3.79-27.85-4.13-55.45-9.6-82.89-15.89-.81-.07-1.58-.34-2.39-.44a4.87,4.87,0,0,0-2.34.21,4.57,4.57,0,0,0-2.11,2.64c-3.53,8.52-9.9,13.31-19,14.6-1.28.18-2.67.21-3.49,1.51,0,12.58.06,25.11,1.89,37.65a209.81,209.81,0,0,0,17.45,59c5.06,10.84,11.75,20.71,17.74,31,4.66,9.16,11.56,16.62,18.49,24,19.29,20.62,41.7,37.23,66.34,50.83a296.08,296.08,0,0,0,44,20.12c2.15.76,4.68,2.14,6.57,0,4.2-4.65,9.09-8.82,11.43-14.92Q741,752.52,757.16,734c5.08-6.79,10.13-13.59,16.16-19.59a5.1,5.1,0,0,0,1.28,2.25c10.35,10.85,21.71,20.63,32.8,30.7.69.63,1.61,1.28,2.64.41,0-2.26-2.55-3-3-4.94-9-8.6-17.92-17.36-27.18-25.7-2.93-2.64-3.26-4.05-.65-7.17,13.32-15.93,26.37-32.09,39.53-48.14Q839.93,636,861.16,610.2q20-24.24,39.94-48.46c11.73-14.23,23.14-28.74,35.26-42.62s21.65-29.18,27.2-47a370,370,0,0,0,12.7-55.93c4.77-32.06,8-64.2,8-96.7-.24-82.14-.05-164.28,0-246.42,0-13.15.51-26.3.7-39.45,0-2,.76-4.49-2-5.62l0,0,0,0h0l0-.05,0,0c-3.19-2.31-4.51.76-6,2.35-12.41,13.24-24.7,26.6-37,39.91L823.72,195.51q-31.94,34.42-63.87,68.86c-13.25,14.28-26.59,28.49-39.73,42.87-2.63,2.88-4.55,3.27-7.33.41a81.54,81.54,0,0,0-6.9-5.76c-63-51.82-126.27-103.42-189-155.6-16.16-13.44-33.43-23.86-53.68-29.51-27.17-7.58-54.82-12.18-82.86-14.91-20-1.95-40-3.94-60.17-3.89M724.79,306.61l.1.07-.12,0ZM982.14,29.15c.14-.14.29-.28.43-.43a7.3,7.3,0,0,0-.35.74C982.19,29.35,982.16,29.25,982.14,29.15Z"/><path class="cls-1" d="M149.07,574c-1.68,1.69-3.35,3.41-5.06,5.07-1.07,1-2,1.13-2.2-.68L148,573h0C148.38,573.31,149,573.41,149.07,574Z"/><path class="cls-6" d="M751.65,442.83c4.41-3.37,7.2-8.07,10.09-12.62,4.45-7,8.55-14.17,12.92-21.2a16.49,16.49,0,0,1,3.15-3.18c.73-.66,2-.59,1.94.33-.22,4.74,4.17,7.33,4.8,12.12,1.48,11.4,4.58,22.58,7,33.87.27,1.27.73,2.9.21,3.87-2.8,5.17.5,4.31,3.64,4,5.22-.5,9.81-2.89,14.68-4.48,5.43-1.77,10.26-5.34,16.25-5.4-.34,2.2-2.32,2.67-3.84,3.55-22.45,13.08-46.11,23.66-70,33.71-18.63,8.2-37.83,14.86-57,21.54-1.7.31-3.36,1.08-5.13.43-1.31-3.3,1.89-3.84,3.42-5.06,11-8.85,21.61-18.11,31-28.77,6.82-7.74,13.06-15.9,19.4-24C746.86,448.86,747.47,444.28,751.65,442.83Z"/><path class="cls-7" d="M751.65,442.83,745,452c-1.19,0-2,2.64-3.48.49.83-4.59,4-7.95,6.68-11.34,6.16-7.86,10.28-16.92,15.81-25.12a287.09,287.09,0,0,0,16.41-37.9c1.28-3.56,1.05-6.78-2.18-9.42-6.68-5.45-13.25-11-19.9-16.51-10.58-8.73-21.29-17.3-31.72-26.2-3.13-2.67-8-3.91-8.55-9.08,10.8,8.69,21.65,17.3,32.37,26.09,10.3,8.45,20.3,17.27,30.78,25.49,2.86,2.24,3.05,3.81,2.06,6.93a296.38,296.38,0,0,1-30.47,65.3C752.36,441.37,752,442.11,751.65,442.83Z"/><path class="cls-8" d="M752.17,486.24c25.35-10.72,50.29-22.27,74.13-36.1,12.47-6.53,24.46-13.88,36.43-21.28,3.74-2.31,7.5-4.59,11.25-6.89,2.39,2,3.88-1.47,6-1,.41,3.07-2.15,3.72-4,4.85-7.32,4.42-14.69,8.75-22,13.11a30.56,30.56,0,0,0-3.48,2.74c-10.36,5-19.87,11.69-30.45,16.31a16.43,16.43,0,0,0-3.53,2.7c-8.54,4.29-17.31,8.11-25.83,12.46-10.7,5.28-22,9.23-32.8,14.24C755.93,488.28,753.24,490.55,752.17,486.24Z"/><path d="M519,540.34l.73-4.21c-1.11-3.48.66-6.15,2.6-8.66,5.91-7.65,13.53-11.67,23.4-10.7a47.65,47.65,0,0,1,4.69,1c12.33,4.36,17.92,12.63,17.85,26.36a4.64,4.64,0,0,1-1.44,3.71c-4.11,11.78-12.29,18-24.87,18.31l-4.81-1.08C525.69,561.91,519.3,553.21,519,540.34Z"/><path class="cls-9" d="M510.49,884.16c-10.68-9.52-21.94-18.36-33-27.45q-46.61-38.38-93.32-76.64c-4.46-3.67-8.44-8.06-13.91-10.43a2.4,2.4,0,0,0-.71,0L368.06,768a4.25,4.25,0,0,1-1-.14h0c-6.39-6-13.24-11.38-20.14-16.73h0c-5.39-4.28-10.85-8.47-16.14-12.86-8.7-7.22-17-14.92-26.05-21.7-3.16-2.37-3.08-3.76-2.09-7,5.81-19.12,14.43-36.95,24.35-54.18,6.07-10.55,12.4-21,20.3-30.29,11.72-16.38,25.82-30.44,41.53-43,2.5-2,5.86-3.07,7.2-6.38-2.31-1.57-4.52-.42-6.66.37-3.12,1.16-6.23,2.35-9.39,3.41a733.75,733.75,0,0,0-84,34.64,777.37,777.37,0,0,0-91,52c-13.35,9.09-26.32,18.7-39.3,28.28-4,3.25-7.93,6.59-11.9,9.88-1.6,1.33-3.94,2.26-4.11,4.79-4.42.91-6.69,5-10.26,7.16-4.36,3.86-9.41,7.08-12.07,12.5l-.17,0c-1.85.47-3.59,1-3.91,3.32-3.74,4.65-8.85,8-12.18,13.06a3.79,3.79,0,0,0-2.19,2.52l-.82.51c1.65-28.29,3.85-56.51,8.36-84.51,3.28-20.39,7.62-40.48,14.59-60,2.31-6.45,6-12.21,8.39-18.59a2.12,2.12,0,0,0-2-2.33c-3.28,6.35-6.82,12.57-9.34,19.3-9,24-13.33,49-17,74.24-3.17,21.88-5.18,43.89-6.27,66-1.59,2.61-.85,5.5-.85,8.25q-.07,147.38,0,294.75c0,1.33,0,2.66,0,4,0,4.21,1.66,6,5.86,4h0q36.7-39.54,73.4-79.08,35.16-37.91,70.29-75.84,35-37.72,70.05-75.38,21.6-23.23,43.2-46.46c2.44-2.64,4.4-3.24,7.54-.65q45.8,37.92,91.81,75.59C481,863.66,496,875.8,511,888h2.07C513.53,885.83,511.67,885.2,510.49,884.16ZM107.76,1052.9h0Zm0,0,.07-.08,0,.09Z"/><path class="cls-10" d="M1058.56,977.13c-15.1-13.77-30.24-27.49-45.26-41.35C994.5,918.42,975.79,901,957,883.54q-20.28-18.82-40.6-37.61-27.79-25.77-55.55-51.56-25.34-23.65-50.53-47.46c-1-.91-1.83-2-3.3-2.08a2.86,2.86,0,0,0,.27,2.53c-11.48-10.15-23.24-20-33.36-31.58-.33-.08-.75-.19-1,0a66.55,66.55,0,0,0-15.89,19.51l-.29.13a7.58,7.58,0,0,0-1.57,1.21c-10,10.84-18.93,22.62-28.36,34-.84,1-1.62,2.21-1.23,3.64-3.81,4.37-7.77,8.63-11.32,13.21-1.22,1.58-1.86,1.66-3.51,1-8.13-3.32-16.55-6-24.44-9.82-15.62-7.53-31-15.46-45.27-25.53a304.36,304.36,0,0,1-30.71-24.33c-10.87-10-20.41-21.15-29.53-32.69-.29-1-.55-1.92-.77-2.9-2.06-5.16-5.76-9.32-8.54-14a200.68,200.68,0,0,1-28.22-106.19c0-2.45.43-5-1.16-7.24-1.76-1.16-3.55-2-5.6-.63a7,7,0,0,0-1.35,3.2c-1.63,9-3.72,17.85-5.52,26.79-4.9,24.35-9,48.81-11.88,73.48-2.59,22.12-3.89,44.3-4.31,66.56-.15,7.84.77,15.63.91,23.43a323.35,323.35,0,0,0,2.68,32.81,339.85,339.85,0,0,0,15.48,68.44c9.26,27.36,22.56,52.53,40.79,75a10.11,10.11,0,0,0,2.11,2.5c-6.89-5.4-13.33-11.35-20.16-16.83C545,912.52,535.2,903.87,525,895.79a17.94,17.94,0,0,0-1.56-1.31,12.54,12.54,0,0,0-1.11-.76c-2.19-1.86-4.65-3.36-6.85-5.19-.71-.64-3.42-.41-4.4-.54-.75,0,.52-.58,0,0,4.61,5.53,10.69,9.39,16.12,14,13.7,11.55,27.66,22.78,41.5,34.16,6.67,5.48,12.64,12.24,20.09,16.24a175.82,175.82,0,0,0,39.86,15.56,517,517,0,0,0,79,13.32c18.85,1.77,37.67,3.82,56.63,3.85q25.49,0,51,0,119.69,0,239.38,0c2.34,0,5.34,1,6.39-2.35C1061.78,980.32,1060.24,978.65,1058.56,977.13Zm-335.78,4.16a.28.28,0,0,1,.18-.47.29.29,0,0,0,.12-.06,3,3,0,0,0,.22.23Z"/><path class="cls-11" d="M570.14,548.83c2-1.49,4-.66,6.15-.25,13.54,2.64,27,5.93,40.71,7.42,14,2.19,28.1,3.68,42.21,5.05,6.66.88,13.21,2.61,20,2.67a42.38,42.38,0,0,0,7.72,1c1.61,0,3.8-.37,4.1,2.28-9.64.17-19.13-1.25-28.62-2.66-2.73-.41-5.57-1.07-8.24.43C625.85,561,598,555,570.14,548.83Z"/><path class="cls-11" d="M709,568c12.28-.34,24.55-.7,36.83-1,1.74,0,3.7-.67,5.17,1-3,.45-6.19-1-9,1-9.28,0-18.55,0-27.83,0C712.42,568.95,710.48,569.59,709,568Z"/><path class="cls-8" d="M909,403c-4.62,2.75-8.7,6.43-14,8a52,52,0,0,1,16-11l0,0C911.65,401.88,909.8,402.09,909,403Z"/><path class="cls-12" d="M691,567c-3.75-2.2-8.22,0-12-2a1.88,1.88,0,0,1,2.21-2.06c5.62.6,11.43-.27,16.85,2,.65,1.67.18,2.53-1.71,2.33-1.44-.15-2.86-.73-4.34-.29h-.5Z"/><path class="cls-11" d="M692,567c1.61-2.66,4.28,1,6-1a1.32,1.32,0,0,1,2,0c2.23,2.4,5.77-.4,8,2C702.67,567.57,697.23,569,692,567Z"/><path class="cls-8" d="M888,416a14,14,0,0,1-8,5A14.67,14.67,0,0,1,888,416Z"/><path class="cls-8" d="M895,411c-1.63,2.66-3.8,4.56-7,5C890,413.89,892,411.79,895,411Z"/><path class="cls-13" d="M237,528.85A395.37,395.37,0,0,1,304.7,517.2a520.26,520.26,0,0,1,67.72-1.4c19.88,1,39.66,2.69,59.43,5,28,3.21,55.58,8.51,83.08,14.41-5.83,2.72-11-1.17-16.58-1.58A31.2,31.2,0,0,1,495,533c-16.18-2.56-32.44-4.53-48.68-6.6-12.69-1.61-25.33-3.68-38-5.17-9.85-1.15-19.76-2.21-29.64-2.58-19.89-.74-39.83-1.42-59.72-.11a404,404,0,0,0-65.79,9.73c-17.06,4-33.33,10.22-49.3,17.34-3.86,1.72-7.48,4.51-12.13,3.91L191,549l1-2.91c4.08-4.41,10-5.45,15.09-7.84a21.22,21.22,0,0,1,7-2.22c3.73.21,6.7-2.22,9.92-3.4C228.29,531.05,232.82,530.56,237,528.85Z"/><path class="cls-14" d="M214.08,536c-7.22,3.66-15.16,5.73-22.07,10.06L188,548c-.25-2.8,2-3.23,3.84-4q10.1-4.43,20.19-8.9Z"/><path class="cls-13" d="M172,561l-1,0c3.82-2.64,7.27-5.92,12-7l.22.69C180.36,558.35,177.11,561.29,172,561Z"/><path class="cls-13" d="M183,554a14.74,14.74,0,0,1,8-5l0,0c-1.36,4.19-3.42,5.47-8,5Z"/><path class="cls-15" d="M689.81,509c-11.55,6.83-22.84,14.08-35.35,19.24a204.54,204.54,0,0,1-51.6,13.88A248.87,248.87,0,0,1,567.1,544c.22-12.36-5.18-20.91-17-25.08a2.18,2.18,0,0,1-.46-2.79c2.06-1.64,3.72-.17,5.36.79,7.27,4.23,12.36,10.21,14.65,18.42a12.11,12.11,0,0,1,.48,1.44c.49,3.91,3.36,3.93,6.32,4,18.26.16,36.06-2.77,53.61-7.6,29.45-8.11,54.84-23.26,77.34-43.72A295.28,295.28,0,0,0,729,468c2.93-3.72,6-7.34,9-11,2-.7,2.53-2.8,4-4,1.13,0,1.5-2.15,3-1a235,235,0,0,1-33.39,38.8C704.67,497.21,697.09,502.94,689.81,509Z"/><path class="cls-16" d="M738,457c-2.28,4.25-5,8.16-9,11A26.2,26.2,0,0,1,738,457Z"/><path class="cls-15" d="M779.34,368.26c-2-1.82-4.16-3.29-6.18-5-12-10.21-24.37-19.94-36.41-30.1-6.31-5.33-13.31-9.87-18.7-16.26l-.89-1.93-1.09.06c-3.21.27-5.63-1.44-8-3.26-24.31-18.9-48.45-38-72-57.85q-33.63-28.27-67.29-56.5c-13.13-11-26.32-21.93-39.26-33.17-4.9-4.26-9.69-8.64-14.49-13-1-.93-2.22-4.13-4.53-1.15a68.85,68.85,0,0,0,13.09,18.31,3.17,3.17,0,0,1,.54.08L530,178a20.73,20.73,0,0,0,5.47,9.66,15.06,15.06,0,0,1,1.26,1.23c.4,1.05.8,2.11,1.29,3.12,4.93,10.12,9.79,20.26,13.1,31.06a159.76,159.76,0,0,1,7.94,25.85,29.48,29.48,0,0,0,.81,7.82c2.31,10.33,4.56,20.68,5.61,31.24,2.46,18.43,4.27,36.91,3.95,55.56-.13,7.47-.09,14.94,0,22.41.53,11.36-.88,22.6-1.91,33.87a43.27,43.27,0,0,1-.07,6c-2,16.17-3.63,32.39-6.39,48.46-.36,2.07-.91,4.23.41,6.13a7.3,7.3,0,0,1-.87.88,4.67,4.67,0,0,0-.82,1.79c-3,16.47-6.55,32.82-10,49.19-.27,1.28-.56,2.62.39,3.81,1.55.09,2.74,1,4,1.71C561.64,521.83,566,528.34,569,536c-.39,4.63,2,6.23,6.33,6,5.79-.27,11.56-.41,17.36-.85a196.57,196.57,0,0,0,51.2-11.27c19.08-6.78,36-17.25,52.25-29.2,6.6-4.86,12.15-10.76,18.38-16a70,70,0,0,0,12.8-14.21l1.57-1.54a9.13,9.13,0,0,0,.9-1.08c2.67-3.58,5-7.44,8.86-10,1.7-1.25,3.15-2.67,3.34-5,2.54-4,4.86-8.23,7.67-12.08a139.86,139.86,0,0,0,12.86-21.81,21.12,21.12,0,0,1,2.16-2.59c7.25-12.37,12.11-25.79,17-39.19A7.92,7.92,0,0,0,779.34,368.26ZM556,505h0v0S556,505,556,505Zm99.08,17.95.08.09H655Z"/><path class="cls-17" d="M497.91,372.51c-2.19-5.66-3-11.92-7.14-16.75-.22-.18-.43-.38-.63-.58a12.24,12.24,0,0,0-5-11.21l0,0c1.6-2,.25-3.82-.5-5.63-4.34-10.53-9.19-20.83-13.69-31.29-.68-.9-1.13-2.11-2.46-2.07.3-1.47-.5-2.75-1.06-4.05-2-4.74-4.27-9.39-6.5-14-8.19-16.28-16.56-32.46-26-48.06-8.32-14.52-17.13-28.74-26.77-42.43-7.4-11.14-15.36-21.89-23.4-32.58-3.51-3.95-6-8.84-10.72-11.65l-2.09-2h0l-16.05-19h0c-1.05-2.24-2.93-3.71-4.8-5.18h0a75.7,75.7,0,0,0-9-9.91h0q0-.46,0-.93L334.08,108h0a5.73,5.73,0,0,0-3.09-2.86h0L329.9,104l-.88-1h0a6.12,6.12,0,0,0-.08-.91c-2-.06-4-.16-6-.16q-96.7,0-193.39,0c-10.49,0-21,.08-31.48.13l-62,0h0l-11,.09,0,1h0c-.21,2,1.41,2.89,2.57,4,4.68,4.48,9.35,9,14.18,13.3C55.56,132.76,69.07,145.33,82.46,158q27.52,26,55.55,51.53c13.89,12.63,27.56,25.51,41.32,38.28q28,25.94,55.89,51.9c12.27,11.46,24.16,23.35,36.75,34.44,6.11,5.38,11.62,11.38,18,16.5s11.95,11.06,17.88,16.64c1.69,1.59,3,3.1.94,5.48-5,5.81-9.78,11.72-14.64,17.61Q276.56,411.71,259,433c-11.16,13.6-22.22,27.27-33.39,40.86-11.8,14.36-23.7,28.63-35.52,43-11.5,14-23,27.89-34.35,42-5.06,6.31-10.9,12-14.89,19.16l.56.41a2.88,2.88,0,0,0,1.36,0c2.57-1.22,4.22-3.44,6-5.51,2.85-4.09,6.25-7.75,9.4-11.6,7.48-9.13,14.64-18.56,22.28-27.51,10.35-12.12,20.17-24.67,30.46-36.82,10-11.79,19.58-23.93,29.32-35.93,9.3-11.46,18.79-22.8,28.24-34.16q15.45-18.57,30.77-37.25c4.4-5.37,9.55-10.23,12.62-16.62h0c.81-.17,1.24-1,1.84-1.56a56,56,0,0,0,4.43-5.08c3.56-4.54,7.38-8.87,10.95-13.4.79-1,2.48-1.77,1.88-3.36h0c2.17-1.23,3.41-3.34,4.92-5.19,3.48-4.24,7-8.41,10.45-12.7.86-1.08,2.6-2.16,1.52-3.74h.18c4.8-2,6.76-6.5,9.35-10.44a1.32,1.32,0,0,0-.32-1.67c4.72-1.19,6.59-5.43,9.18-8.86a1.59,1.59,0,0,0-.12-2.07,21.22,21.22,0,0,0,5.22-5.68c2.15-3.54,4.83-4.64,9.41-2.87a328.52,328.52,0,0,1,54.33,26.73,279.15,279.15,0,0,1,51.74,41.3c3.46,3.48,6.28,7.61,10.16,10.73A2.52,2.52,0,0,0,497.91,372.51Z"/><path class="cls-18" d="M516,535a70.85,70.85,0,0,0,6.1-9c3-5.34,8.59-7.81,14-9.69,2.92-1,5.89-1.61,8.29-4.06l1.21,3.63c1,.55,1,1.22.26,2-14.61.51-21.74,5.49-26.09,18.21C518.43,536.07,517,536.3,516,535Z"/><path class="cls-11" d="M981.83,334.81c-1.2,1.11-2.46,2.16-3.6,3.33-13,13.34-26.41,26.29-41.25,37.64-7.67,6.07-15.13,12.42-23,18.15-13.17,9.55-26.62,18.72-40,28,1.35,1.92,1.42,2,5.19.27a8.44,8.44,0,0,1-2.27,1.82c-6.25,3.6-12.59,7.08-18.67,10.95-2.84,1.81-6.5,2.62-8.23,6h0c-1.7.58-3.59.86-5.06,1.79a198.7,198.7,0,0,1-25.35,14A7.07,7.07,0,0,0,816,460h0L790,472h0c-11.54,5.07-23.08,10.12-34.6,15.24-1.55.69-2.52.45-3.22-1-2.31.92-4.64,1.79-6.92,2.77-16.47,7-33.54,12.5-50.21,19h0l-5.23,1c-2.71-1.28-4.35.86-6.19,2.06a187.58,187.58,0,0,1-49,22.92,200.52,200.52,0,0,1-61.84,8.7c-2,0-4-.21-5.66,1.32l-.23,3.86,2,.24h0l1.26.74c1.81-.73,3.54-.14,5.32.25,13.81,3.09,27.63,6.12,41.63,8.22,2.91.13,5.82.33,8.72.57A215.41,215.41,0,0,0,659,562c2.19.55,4.38,1.06,6.58,1.5-1.7-.21-3.39-.43-5.08-.7-2.14-.34-5-1.16-6.35,2,20.54,2.79,41.14,5.07,61.84,5.86,28.9,1.1,57.75.68,86.51-3.38,25.32-3.57,49.95-9.47,73.77-18.77,25.44-9.94,48.14-24.28,68.69-42.17,9-11,14-24,18.14-37.33,5-16,8.3-32.53,10.86-49.12,1.72-11.2,3.09-22.48,4.26-33.78.88-8.5,1.92-17,2.48-25.53S983,343.44,981.83,334.81Zm-289.62,231a12.59,12.59,0,0,0-1.77-.17c-3.13-.19-6.27.17-9.39-.31l-2.61-.37H679c6.44-1.63,12.7,0,19,1h1.7c0,.12,0,.24-.05.38a3.88,3.88,0,0,0,.32.3A25.25,25.25,0,0,1,692.21,565.84Zm50.71,1.81h-.57l.65-.06ZM909.8,401.81l-.7.28c-.47.24-.93.49-1.39.74l2.43-1.53Z"/><path class="cls-11" d="M789,565c6.63-1.27,13.18-3.06,20-3C802.48,564,795.86,565.32,789,565Z"/><path class="cls-19" d="M546.45,496.62c-.58-17.1-4-33.65-9-49.92C529.29,420.09,515.77,396.4,498,375a249.45,249.45,0,0,0-37.21-35.39c-24.45-19.18-51.45-33.79-80.51-44.67-2.67-1-5.28-1.37-7.38,1-2.52,2.83-5.39,5.42-6.83,9.07-2,4.53-5.87,7.56-9.26,11-1.53,5-6.07,7.86-8.77,12L335,343.89h0L330.64,349l-13.45,17-4.46,4.83c-1.5,0-.73,1.78-1.72,2.17-11.73,15.81-25,30.39-37.3,45.72-12,14.88-24.17,29.58-36.29,44.33-12.55,15.27-25,30.64-37.78,45.71-6.89,8.12-13.49,16.48-20.38,24.6-7.21,8.49-14.18,17.28-21,26.11-3.46,4.45-8.16,8-10.2,13.51l0,0,1.07,1c2-1.69,3.93-3.5,6-5.07A312,312,0,0,1,188,548a4.58,4.58,0,0,1,2.91-2.57c6.25-1.79,11.69-5.5,17.91-7.38,1.35-.41,3.18-.61,3.2-2.6a3.12,3.12,0,0,0,1.83,1.4c8.34-1.49,16.05-5,24.08-7.42,1.76.74,3.55-.14,5.28-.52,5.83-1.29,11.63-2.7,17.49-3.92,28.23-5.84,56.84-7.68,85.54-8.49,14.77-.42,29.5,1.11,44.25,1.74,13,.55,25.83,1.84,38.64,3.44,26.31,3.29,52.53,7.32,78.45,13.09,2.34.52,4.87,1.09,7.38.45L516,535c2.16-.48,3.38-2,4.3-3.87,5.49-10.79,15-14.79,26.36-15.72C548.27,509.13,546.66,502.89,546.45,496.62Z"/><path class="cls-20" d="M570.91,366.05h0c.63-26.47.25-52.88-4-79.1h0c-.3-2.11-.51-4.24-.91-6.33-2-10.51-3.19-21.19-6.76-31.35.17-.13.36-.27.55-.44-.67-9.23-4.29-17.63-7.33-26.19C548.15,210.2,543.19,198.07,536,187c-2.51-2.54-3.16-6.32-5.79-8.77-.11-4.54-3.08-7.36-6.29-10L511,150c-.68-3.72-4.71-5-6-8.31-8.56-7.87-18.86-12.83-29.59-16.73-30.28-11-62-15.43-93.74-19-17.5-1.94-35.14-2.66-52.72-3.92a1.08,1.08,0,0,0-.31,1.06,6.56,6.56,0,0,0,.83,1.58,6.21,6.21,0,0,0,1.28,1.29,23.4,23.4,0,0,1,3.2,3.07,55.1,55.1,0,0,0,4.84,4.72c1,.76,2,2,3.22,1.24v0a1.44,1.44,0,0,0-.26,1.32c2.36,3.76,5.57,6.79,8.52,10a30.71,30.71,0,0,1,5,5.45c5.22,6.49,10.86,12.64,16.11,19.1.82.67,1.56,1.7,2.67,1.06,0,0,0,.07,0,.11a83.64,83.64,0,0,0,10,12h0l23.24,32.7h0c1.79,2.76,3.61,5.5,5.37,8.28Q423.29,222.06,434,239l14.64,27.07,11.32,21,8,18,1.91,2h0c1.07,2.76,2.09,5.54,3.23,8.27,4,9.57,8.87,18.77,12,28.71,2.13,3.82,4.09,7.7,4.88,12.05,3.1,6.11,5.8,12.38,7,19.18,1.67,3.81,4.85,6.48,7.27,9.73,28.9,38.88,42.3,82.66,41.33,131l.26,2,4.22,1q.05-1.43.11-2.86c1.29-5.58,2.67-11.14,3.85-16.75,2.69-12.79,5.27-25.6,7.9-38.4l2.66-19.11C566.52,427.91,568.41,414,569,400h0a215,215,0,0,0,1.93-34Z"/><path class="cls-21" d="M520.34,536c-1.19-1.28-2.83-1.42-4.4-1.72a6.4,6.4,0,0,0-1.6,0c-6.83,1.44-12.94-2.33-19.52-2.68q-5.59-.49-11.17-1c-16.15-2.42-32.3-4.86-48.47-7.19a480.1,480.1,0,0,0-50.75-5c-18-.65-36-1.9-54.19-.78l-3.1.21c-9,.29-18,.74-26.93,1.81-9.74,1.16-19.45,2.51-29.06,4.3-3.6.6-7.19,1.23-10.78,1.94A252.06,252.06,0,0,0,210.77,541c-6.29,2.65-12.21,6.27-18.94,7.83a2.35,2.35,0,0,0,.39-2.84c-1.91-.89-3.25.44-4.74,1.21-13.59,7.6-27.31,15-38.45,26.19-2.74,1.2-3.57,5.14-7.22,5a1.87,1.87,0,0,0-.64,0c-1.37,1.63.7,4.64-2.26,5.63A138.06,138.06,0,0,0,125,617.34c-8.08,28.8-12.47,58.22-15,88-1.26,14.51-2.89,29-3.07,43.55,1,.77,1.7.09,2.42-.48a28.74,28.74,0,0,1,2.62-3.15c3.14-3.17,6.41-6.21,9.38-9.53.86-1,2.69-2,1.51-3.58.14,0,.26-.05.41-.06l3.54-2.15A127.74,127.74,0,0,1,140.11,717h0l9.89-8c5.15-4.91,11.36-8.58,16.09-14h0c4.89-2.08,8.53-6,12.76-9,8.78-6.28,17.49-12.67,26.22-19h0a4.76,4.76,0,0,0,2.66-1.18,767.4,767.4,0,0,1,161.48-81.29c8.81-3.23,17.59-6.78,26.82-8.82l25.16-14.66h0c1.52-.61,3.06-1.16,4.55-1.83,25.08-11.38,51.2-18.27,78.92-18.3,4.73-1.84,9.58-.73,14.39-.6A3.5,3.5,0,0,0,520.34,536ZM174.59,559.8c2.28-1.52,4.59-3,7-4.34A29.22,29.22,0,0,1,174.59,559.8ZM190.37,550a11.18,11.18,0,0,1-5.45,3.47Q187.65,551.71,190.37,550Z"/></svg>