<?xml version="1.0" encoding="utf-8"?>
<!-- Generator: Adobe Illustrator 20.0.0, SVG Export Plug-In . SVG Version: 6.00 Build 0)  -->
<svg version="1.1" id="Calque_1" xmlns="http://www.w3.org/2000/svg" xmlns:xlink="http://www.w3.org/1999/xlink" x="0px" y="0px"
	 viewBox="0 0 200 80" style="enable-background:new 0 0 200 80;" xml:space="preserve">
<style type="text/css">
	.st0{fill:#666666;}
	.st1{fill:none;}
</style>
<title>scala-logo</title>
<g id="Calque_2">
	<path class="st0" d="M98.9,25c0.1,0.7-0.4,1.4-1.2,1.5c-0.7,0.1-1.4-0.4-1.5-1.2c0-0.1,0-0.2,0-0.3c0-0.8,0.6-1.4,1.3-1.5l0,0
		C98.3,23.6,98.9,24.2,98.9,25L98.9,25z M96.8,68.9V35.3h1.4v33.6H96.8z M144,45c0,16.9-9.4,24.6-19.7,24.6c-10.5,0-19-8.3-19-23.9
		c0-16,8.8-24.6,19.7-24.6C135.8,21.1,144,29.5,144,45z M106.7,45.4c0,12.8,6.2,22.8,17.7,22.8s18.2-10.3,18.2-22.9
		c0-11.7-5.3-22.5-17.4-22.5S106.7,32.8,106.7,45.4L106.7,45.4z M149,65.3c2.9,1.9,6.3,2.9,9.7,3c6.5,0,12.3-4.6,12.3-11.2
		c0-6.2-3.8-9.5-10.4-12.2c-5.9-2.5-11.1-5.2-11.1-11.8c0-6.9,5.5-11.8,12.9-11.8c4,0,7,1.1,8.4,2.1l-0.6,1.2
		c-1.2-0.8-4.4-1.9-7.9-1.9c-7.8,0-11.2,5.9-11.2,10.3c0,6,4.7,8,10.7,10.9c7,3.4,10.7,6.4,10.7,13c0,7.1-5,12.8-14,12.8
		c-3.7,0-8-1.2-10.1-2.9L149,65.3L149,65.3z"/>
</g>
<g id="Calque_1_1_">
	<rect x="89.2" y="21.4" class="st1" width="123" height="49.2"/>
</g>
<path class="st0" d="M84.1,55.6c-1,2.3-2.2,4.5-3.6,6.5c-1.9,2.7-3.4,4.6-4.6,5.6c-1.9,1.7-3.8,2.6-6,2.6c-1.5,0-3.4-0.4-5.5-1.3
	c-2.1-0.9-4.1-1.3-5.9-1.3c-1.9,0-3.9,0.4-6.1,1.3s-3.9,1.3-5.3,1.4c-2,0.1-4.1-0.8-6.1-2.7c-1.3-1.1-2.9-3.1-4.8-5.8
	c-2.1-2.9-3.8-6.3-5.1-10.2c-1.5-4.2-2.2-8.3-2.2-12.2c0-4.5,1-8.4,2.9-11.6c1.5-2.6,3.6-4.7,6.1-6.2s5.3-2.2,8.3-2.3
	c1.6,0,3.7,0.5,6.4,1.5c2.6,1,4.3,1.5,5.1,1.5c0.6,0,2.4-0.6,5.6-1.8c3-1.1,5.5-1.5,7.6-1.4c5.6,0.5,9.9,2.7,12.7,6.7
	c-5,3.1-7.5,7.3-7.5,12.8c0,4.3,1.6,7.8,4.6,10.6c1.4,1.3,2.9,2.3,4.6,3C84.9,53.5,84.5,54.6,84.1,55.6L84.1,55.6z M71.2,4.7
	c0,3.3-1.2,6.5-3.7,9.4c-2.9,3.4-6.5,5.4-10.4,5.1c0-0.4-0.1-0.8-0.1-1.3c0-3.2,1.4-6.7,3.9-9.5c1.2-1.4,2.8-2.6,4.7-3.6
	c1.9-0.9,3.7-1.4,5.4-1.5C71.2,3.8,71.2,4.3,71.2,4.7L71.2,4.7z"/>
</svg>
