<svg xmlns="http://www.w3.org/2000/svg" viewBox="0 0 128 87"><defs><style>.cls-1{fill:none;}.cls-2{fill:#010101;}</style></defs><title>logo-devoxx</title><g id="Calque_2" data-name="Calque 2"><rect class="cls-1" width="128" height="87"/></g><g id="Calque_1" data-name="Calque 1"><path class="cls-2" d="M77.94,35.93h-8.5a3.13,3.13,0,0,0-3.13,3.13v8.89a3.13,3.13,0,0,0,3.13,3.13h8.5a3.13,3.13,0,0,0,3.13-3.13V39.06A3.13,3.13,0,0,0,77.94,35.93Zm.76,12a.76.76,0,0,1-.76.76h-8.5a.76.76,0,0,1-.76-.76V39.06a.76.76,0,0,1,.76-.76h8.5a.76.76,0,0,1,.76.76Z"/><path class="cls-2" d="M25.72,35.93H14V51.07H25.72a3.54,3.54,0,0,0,3.51-3,32.68,32.68,0,0,0,.29-4.54,34,34,0,0,0-.29-4.62A3.54,3.54,0,0,0,25.72,35.93ZM26.89,47.7a1.18,1.18,0,0,1-1.17,1H16.37V38.3h9.35a1.18,1.18,0,0,1,1.17,1,31.75,31.75,0,0,1,.26,4.25A30.42,30.42,0,0,1,26.89,47.7Z"/><polygon class="cls-2" points="46.8 38.3 46.74 35.93 32.36 35.93 32.36 51.07 46.74 51.07 46.74 48.75 34.73 48.75 34.73 44.45 46.74 44.45 46.74 42.13 34.73 42.13 34.73 38.3 46.8 38.3"/><polygon class="cls-2" points="56.67 48.32 50.76 35.93 48.13 35.93 55.36 51.07 57.98 51.07 65.21 35.93 62.58 35.93 56.67 48.32"/><polygon class="cls-2" points="94.88 35.93 90.19 41.63 85.5 35.93 82.43 35.93 88.66 43.5 82.43 51.07 85.5 51.07 90.19 45.37 94.88 51.07 97.94 51.07 91.72 43.5 97.94 35.93 94.88 35.93"/><polygon class="cls-2" points="114 35.93 110.93 35.93 106.25 41.63 101.56 35.93 98.49 35.93 104.71 43.5 98.49 51.07 101.56 51.07 106.25 45.37 110.93 51.07 114 51.07 107.78 43.5 114 35.93"/></g></svg>