<?xml version="1.0" encoding="utf-8"?>
<!-- Generator: Adobe Illustrator 20.0.0, SVG Export Plug-In . SVG Version: 6.00 Build 0)  -->
<svg version="1.1" id="Calque_1" xmlns="http://www.w3.org/2000/svg" xmlns:xlink="http://www.w3.org/1999/xlink" x="0px" y="0px"
	 viewBox="0 0 200 80" style="enable-background:new 0 0 200 80;" xml:space="preserve">
<style type="text/css">
	.st0{fill:#3A2050;}
	.st1{font-family:'Arial-BoldMT';}
	.st2{font-size:19.0483px;}
</style>
<title>mqtt-logo</title>
<g id="Calque_2">
	<g id="layer1">
		<g id="text6660">
			<path id="path7641" class="st0" d="M2,66V8.7h17.3l10.4,39.1L39.9,8.7h17.4V66H46.6V20.8L35.2,66H24.1L12.8,20.8V66H2"/>
			<path id="path7643" class="st0" d="M105.3,59c2.8,2,5.9,3.6,9.2,4.8l-4.3,8.3c-1.8-0.5-3.5-1.3-5.1-2.1c-0.4-0.2-2.9-1.9-7.7-5.1
				c-3.9,1.7-8.2,2.5-12.5,2.5c-8.8,0-15.7-2.6-20.6-7.8c-5-5.2-7.5-12.5-7.5-21.8c0-9.3,2.5-16.6,7.5-21.8c5-5.2,11.8-7.8,20.3-7.8
				c8.5,0,15.2,2.6,20.2,7.8s7.5,12.5,7.5,21.8c0.1,4.4-0.6,8.9-2.1,13C109.2,53.7,107.5,56.5,105.3,59 M96,52.5
				c1.5-1.9,2.7-4,3.3-6.3c0.8-2.8,1.2-5.6,1.1-8.5c0-6.6-1.5-11.5-4.4-14.8c-6-6.3-16-6.6-22.4-0.6c0,0,0,0,0,0l-0.6,0.6
				c-2.9,3.3-4.4,8.2-4.4,14.8c0,6.6,1.5,11.6,4.4,15c2.8,3.2,6.9,5.1,11.1,5c1.6,0,3.2-0.3,4.7-0.8c-2.2-1.5-4.7-2.7-7.2-3.6
				l3.2-6.6C89,48,92.7,49.9,96,52.5"/>
			<path id="path7645" class="st0" d="M122.5,66V18.3h-17V8.7H151v9.6h-16.9V66H122.5"/>
			<path id="path7647" class="st0" d="M167.8,66V18.3h-17V8.7h45.5v9.6h-17V66H167.8"/>
		</g>
		<g id="text6731">
			<text transform="matrix(5.817072e-17 0.95 -1 6.123234e-17 182.4219 16.8765)" class="st0 st1 st2">.ORG</text>
		</g>
	</g>
</g>
</svg>
