<?xml version="1.0" encoding="utf-8"?>
<!-- Generator: Adobe Illustrator 20.0.0, SVG Export Plug-In . SVG Version: 6.00 Build 0)  -->
<svg version="1.1" id="Calque_1" xmlns="http://www.w3.org/2000/svg" xmlns:xlink="http://www.w3.org/1999/xlink" x="0px" y="0px"
	 viewBox="0 0 200 80" style="enable-background:new 0 0 200 80;" xml:space="preserve">
<style type="text/css">
	.st0{fill:#FEFEFE;}
	.st1{fill:#EF5138;}
	.st2{fill:#666666;}
	.st3{fill:#242122;}
</style>
<title>scala-logo</title>
<g>
	<path class="st0" d="M100.1,66.2c-29.5,0-59.1,0-88.6,0c-0.3,0-0.4-0.1-0.4-0.4c0-17.1,0-34.2,0-51.4c0-0.3,0.1-0.4,0.4-0.4
		c59.1,0,118.2,0,177.3,0c0.3,0,0.4,0.1,0.4,0.4c0,17.1,0,34.2,0,51.4c0,0.3-0.1,0.4-0.4,0.4C159.2,66.2,129.7,66.2,100.1,66.2z
		 M37.1,65.8c4.1,0,8.2,0,12.4,0c1.1,0,2.3-0.1,3.4-0.3c3.9-0.8,6.8-2.8,8.4-6.5c0.9-2,1-4.1,1.1-6.3c0-8.3,0-16.6,0-24.9
		c0-1.2-0.1-2.5-0.3-3.7c-0.8-4-3-6.9-6.9-8.5c-1.9-0.7-3.8-0.9-5.8-0.9c-8.4,0-16.8,0-25.1,0c-1.1,0-2.1,0-3.2,0.2
		c-4.5,0.6-7.5,3-9,7.3c-0.6,1.8-0.7,3.6-0.8,5.4c0,8.4,0,16.7,0,25.1c0,1.1,0.1,2.3,0.3,3.4c0.7,4,2.7,7,6.5,8.7c2,0.9,4,1,6.1,1.1
		C28.4,65.8,32.7,65.8,37.1,65.8z M165.1,52.2c0-4.2,0-8.5,0-12.7c0-0.4,0.1-0.5,0.5-0.5c3.9,0,7.8,0,11.7,0c0.4,0,0.4,0.1,0.4,0.5
		c0,5.8,0,11.6,0,17.4c0,1.5,0.1,3,0.5,4.5c0.4,1.8,1.3,3.3,3.1,4.1c0.8,0.4,1.7,0.5,2.6,0.5c1.3,0,2.6,0,3.9-0.5
		c0.2-0.1,0.4-0.2,0.3-0.5c-0.1-0.5-0.2-1-0.2-1.5c0-0.3-0.1-0.4-0.4-0.3c-1.1,0.4-2.3,0.4-3.5,0.3c-1.3-0.2-2.2-0.8-2.7-2
		c-0.4-1-0.6-2.1-0.6-3.3c0-6.2,0-12.5,0-18.7c0-0.4,0.1-0.4,0.4-0.4c2.4,0,4.7,0,7.1,0c0.3,0,0.4-0.1,0.4-0.4c0-0.5,0-0.9,0-1.4
		c0-0.3-0.1-0.4-0.4-0.4c-2.4,0-4.7,0-7.1,0c-0.3,0-0.4-0.1-0.4-0.4c0-1.8,0-3.6,0-5.5c0-0.3,0-0.4-0.4-0.3
		c-0.7,0.2-1.4,0.5-2.2,0.7c-0.2,0.1-0.3,0.2-0.3,0.4c0,1.5,0,3.1,0,4.6c0,0.3-0.1,0.4-0.4,0.4c-3.9,0-7.9,0-11.8,0
		c-0.4,0-0.4-0.1-0.4-0.4c0-1.5,0-2.9,0.2-4.4c0.1-1.2,0.2-2.4,0.7-3.5c0.6-1.5,1.6-2.7,3.2-3.2c1.8-0.6,3.6-0.5,5.3,0.3
		c0.3,0.1,0.4,0.1,0.4-0.2c0.2-0.5,0.4-1,0.6-1.5c0.1-0.3,0.1-0.4-0.2-0.5c-1-0.4-2-0.7-3.1-0.8c-2.8-0.2-5.3,0.5-7.2,2.7
		c-1.4,1.6-2,3.7-2.4,5.7c-0.3,1.8-0.3,3.6-0.3,5.4c0,0.4-0.1,0.4-0.4,0.4c-1.1,0-2.2,0-3.3,0c-0.3,0-0.4,0.1-0.4,0.4
		c0,0.5,0,1,0,1.4c0,0.3,0.1,0.4,0.4,0.4c1.1,0,2.1,0,3.2,0c0.4,0,0.5,0.1,0.5,0.5c0,4,0,8,0,11.9c0,4.4,0,8.9,0,13.3
		c0,0.4,0.1,0.6,0.5,0.5c0.6,0,1.2,0,1.8,0c0.4,0,0.5-0.1,0.5-0.5C165.1,60.6,165.1,56.4,165.1,52.2z M142.1,36.9
		c-0.9,0-1.6,0-2.4,0c-0.3,0-0.4,0.1-0.5,0.4c-0.9,3-1.9,6-2.8,9c-1.6,5.1-3.3,10.2-4.5,15.4c0,0.1,0,0.3-0.2,0.3
		c-0.2,0-0.2-0.2-0.2-0.3c-1-3.6-2.1-7.2-3.3-10.7c-1.5-4.6-3-9.1-4.6-13.7c-0.1-0.3-0.2-0.4-0.5-0.4c-0.6,0-1.3,0-1.9,0
		c-0.3,0-0.4,0.1-0.4,0.3c-2.7,8.2-5.8,16.2-8.1,24.5c0,0.1,0,0.3-0.2,0.3c-0.2,0-0.2-0.2-0.2-0.3c-0.1-0.6-0.3-1.2-0.4-1.7
		c-1.3-4.8-2.7-9.7-4.1-14.5c-0.8-2.7-1.6-5.5-2.4-8.2c0-0.1,0-0.4-0.3-0.4c-0.9,0-1.7,0-2.6,0c0,0.2,0.1,0.3,0.1,0.4
		c1.4,4.7,2.9,9.3,4.3,14c1.4,4.5,2.8,9.1,4.1,13.6c0.1,0.3,0.2,0.4,0.6,0.4c0.5,0,1,0,1.5,0c0.3,0,0.5-0.1,0.6-0.4
		c1.3-3.8,2.7-7.7,4-11.5c1.3-3.8,2.7-7.6,3.8-11.5c0.2-0.7,0.4-1.4,0.6-2.1c0.2,0.3,0.2,0.7,0.3,1c0.6,3.1,1.7,6,2.7,9
		c1.7,5.1,3.4,10.1,5.1,15.1c0.1,0.3,0.2,0.4,0.5,0.4c0.5,0,0.9,0,1.4,0c0.4,0,0.6-0.1,0.7-0.5c2.5-7.7,5-15.3,7.5-23
		C141,40.3,141.5,38.6,142.1,36.9z M90.9,25c-0.6,0-1.2,0-1.9,0.1c-0.5,0.1-1,0.1-1.4,0.3c-4.7,1.1-7.8,4.6-8.1,8.8
		c-0.2,2.5,0.3,4.9,2,6.8c1.7,1.9,3.8,3.2,6.2,4.2c1.8,0.8,3.6,1.5,5.3,2.5c2.8,1.7,4.4,4,4.5,7.3c0.1,4.1-2.2,7.4-6.3,8.3
		c-4.1,0.9-7.8,0.1-11.4-2c-0.3-0.2-0.4-0.2-0.6,0.2c-0.2,0.5-0.5,1.1-0.8,1.6c-0.2,0.4-0.1,0.6,0.3,0.8c4.2,2.1,8.5,2.9,13.1,1.8
		c3-0.7,5.5-2.4,7.1-5.2c1.2-2.2,1.5-4.5,1.2-7c-0.3-2.2-1.1-4.2-2.8-5.7c-1.7-1.5-3.6-2.7-5.6-3.7c-1.9-0.9-3.8-1.6-5.5-2.7
		c-2.5-1.5-3.9-3.7-4-6.7c0-3.2,1.8-6,4.9-6.9c3.5-1,6.9-0.6,10.1,1.1c0.3,0.1,0.3,0.1,0.5-0.1c0.2-0.5,0.4-0.9,0.6-1.4
		c0.3-0.7,0.3-0.7-0.4-1.1C95.6,25.4,93.3,25,90.9,25z M150.9,51.2c0-4.6,0-9.2,0-13.7c0-0.4,0-0.5-0.5-0.5c-0.6,0-1.2,0-1.9,0
		c-0.4,0-0.5,0.1-0.5,0.5c0,6.7,0,13.5,0,20.2c0,2.4,0,4.9,0,7.3c0,0.3,0.1,0.4,0.4,0.4c0.7,0,1.3,0,2,0c0.4,0,0.5-0.1,0.5-0.5
		C150.9,60.3,150.9,55.7,150.9,51.2z M149.4,25.8c-1.3,0-2.4,1-2.4,2.4c0,1.4,0.9,2.4,2.3,2.5c1.4,0,2.5-1,2.5-2.3
		C151.9,27,150.7,25.8,149.4,25.8z"/>
	<path class="st1" d="M37.1,65.8c-4.3,0-8.7,0-13,0c-2.1,0-4.2-0.2-6.1-1.1C14.2,63,12.1,60,11.5,56c-0.2-1.1-0.3-2.3-0.3-3.4
		c0-8.4,0-16.7,0-25.1c0-1.8,0.1-3.7,0.8-5.4c1.5-4.2,4.6-6.7,9-7.3c1.1-0.1,2.1-0.2,3.2-0.2c8.4,0,16.8,0,25.1,0
		c2,0,3.9,0.1,5.8,0.9c3.9,1.5,6.1,4.5,6.9,8.5c0.2,1.2,0.3,2.5,0.3,3.7c0,8.3,0,16.6,0,24.9c0,2.1-0.2,4.3-1.1,6.3
		c-1.6,3.7-4.5,5.8-8.4,6.5c-1.1,0.2-2.3,0.3-3.4,0.3C45.3,65.8,41.2,65.8,37.1,65.8z M24.9,25.7c0,0,0.1,0.1,0.1,0
		C25.1,25.7,25,25.6,24.9,25.7c0-0.1,0-0.2-0.1-0.1C24.9,25.6,24.9,25.6,24.9,25.7z M16.6,44.4c0-0.1-0.1-0.1-0.2-0.1
		C16.3,44.4,16.5,44.5,16.6,44.4c0,0.2,0.1,0.4,0.1,0.5c4.5,6.3,10.5,10.3,18.2,11.3c3,0.4,6,0,8.8-1.2c1.2-0.5,2.3-1.2,3.5-1.5
		c1.7-0.4,3.3-0.5,4.8,0.4c0.9,0.6,1.6,1.4,2.1,2.4c0.1,0.1,0.1,0.3,0.2,0.2c0.1,0,0.2-0.2,0.2-0.3c0.1-0.4,0.2-0.9,0.2-1.4
		c0-3.1-1.1-5.9-3-8.3c-0.2-0.2-0.2-0.4-0.2-0.7c0.9-3.1,0.8-6.3-0.2-9.3c-1.9-6.2-5.8-10.9-11.2-14.4c-0.1,0-0.1-0.1-0.3,0
		c0,0.1,0.1,0.1,0.1,0.2c2.2,3.2,3.7,6.7,4.2,10.6c0.3,2.5,0,4.9-0.8,7.2c-0.1,0.2-0.2,0.2-0.4,0.1c-1-0.6-1.9-1.2-2.9-1.9
		C35,34.7,30.1,30.6,25.5,26c-0.1-0.1-0.2-0.3-0.5-0.3c3.2,4.5,6.6,8.8,10.2,12.9c-5.3-3.4-10.3-7.2-15.1-11.3c0.6,1.1,1.4,2,2.2,3
		c3.2,4.1,6.6,8,10.3,11.6c1.7,1.6,3.4,3.2,5.3,4.6c0.3,0.2,0.2,0.3,0,0.4c-0.6,0.4-1.3,0.7-2,1c-3.6,1.4-7.3,1.3-11,0.4
		C21.9,47.6,19.1,46.3,16.6,44.4z"/>
	<path class="st2" d="M165.1,52.2c0,4.2,0,8.5,0,12.7c0,0.4-0.1,0.5-0.5,0.5c-0.6,0-1.2,0-1.8,0c-0.4,0-0.5-0.1-0.5-0.5
		c0-4.4,0-8.9,0-13.3c0-4,0-8,0-11.9c0-0.4-0.1-0.5-0.5-0.5c-1.1,0-2.1,0-3.2,0c-0.3,0-0.4-0.1-0.4-0.4c0-0.5,0-0.9,0-1.4
		c0-0.3,0.1-0.4,0.4-0.4c1.1,0,2.2,0,3.3,0c0.3,0,0.5-0.1,0.4-0.4c0-1.8,0-3.6,0.3-5.4c0.4-2.1,1-4.1,2.4-5.7
		c1.9-2.2,4.4-2.9,7.2-2.7c1.1,0.1,2.1,0.4,3.1,0.8c0.3,0.1,0.3,0.2,0.2,0.5c-0.2,0.5-0.4,1-0.6,1.5c-0.1,0.3-0.2,0.3-0.4,0.2
		c-1.7-0.7-3.5-0.9-5.3-0.3c-1.6,0.5-2.5,1.7-3.2,3.2c-0.5,1.1-0.6,2.3-0.7,3.5c-0.1,1.4-0.2,2.9-0.2,4.4c0,0.3,0.1,0.4,0.4,0.4
		c3.9,0,7.9,0,11.8,0c0.3,0,0.4-0.1,0.4-0.4c0-1.5,0-3.1,0-4.6c0-0.3,0.1-0.4,0.3-0.4c0.7-0.2,1.4-0.4,2.2-0.7
		c0.3-0.1,0.4,0,0.4,0.3c0,1.8,0,3.6,0,5.5c0,0.4,0.1,0.4,0.4,0.4c2.4,0,4.7,0,7.1,0c0.3,0,0.4,0.1,0.4,0.4c0,0.5,0,0.9,0,1.4
		c0,0.3-0.1,0.4-0.4,0.4c-2.4,0-4.7,0-7.1,0c-0.3,0-0.4,0-0.4,0.4c0,6.2,0,12.5,0,18.7c0,1.1,0.2,2.2,0.6,3.3c0.5,1.2,1.4,1.9,2.7,2
		c1.2,0.2,2.4,0.1,3.5-0.3c0.3-0.1,0.4,0,0.4,0.3c0,0.5,0.1,1,0.2,1.5c0.1,0.3-0.1,0.4-0.3,0.5c-1.3,0.4-2.6,0.5-3.9,0.5
		c-0.9,0-1.7-0.2-2.6-0.5c-1.8-0.8-2.6-2.3-3.1-4.1c-0.4-1.5-0.5-3-0.5-4.5c0-5.8,0-11.6,0-17.4c0-0.4-0.1-0.5-0.4-0.5
		c-3.9,0-7.8,0-11.7,0c-0.4,0-0.5,0.1-0.5,0.5C165.1,43.7,165.1,47.9,165.1,52.2z"/>
	<path class="st2" d="M142.1,36.9c-0.6,1.7-1.1,3.3-1.6,5c-2.5,7.7-5,15.3-7.5,23c-0.1,0.4-0.3,0.5-0.7,0.5c-0.5,0-0.9,0-1.4,0
		c-0.3,0-0.4-0.1-0.5-0.4c-1.7-5.1-3.4-10.1-5.1-15.1c-1-3-2.1-5.9-2.7-9c-0.1-0.3-0.2-0.7-0.3-1c-0.2,0.7-0.3,1.4-0.6,2.1
		c-1.2,3.9-2.5,7.7-3.8,11.5c-1.3,3.8-2.7,7.7-4,11.5c-0.1,0.3-0.2,0.4-0.6,0.4c-0.5,0-1,0-1.5,0c-0.3,0-0.5-0.1-0.6-0.4
		c-1.4-4.5-2.8-9.1-4.1-13.6c-1.4-4.7-2.9-9.3-4.3-14c0-0.1-0.1-0.3-0.1-0.4c0.9,0,1.8,0,2.6,0c0.3,0,0.2,0.2,0.3,0.4
		c0.8,2.7,1.6,5.5,2.4,8.2c1.4,4.8,2.8,9.6,4.1,14.5c0.2,0.6,0.3,1.2,0.4,1.7c0,0.1,0,0.3,0.2,0.3c0.2,0,0.1-0.2,0.2-0.3
		c2.3-8.3,5.4-16.3,8.1-24.5c0.1-0.2,0.2-0.3,0.4-0.3c0.6,0,1.3,0,1.9,0c0.3,0,0.4,0.1,0.5,0.4c1.5,4.6,3,9.1,4.6,13.7
		c1.2,3.5,2.3,7.1,3.3,10.7c0,0.1,0,0.3,0.2,0.3c0.1,0,0.1-0.2,0.2-0.3c1.2-5.2,2.9-10.3,4.5-15.4c0.9-3,1.9-6,2.8-9
		c0.1-0.3,0.2-0.4,0.5-0.4C140.4,37,141.2,36.9,142.1,36.9z"/>
	<path class="st2" d="M90.9,25c2.4,0,4.7,0.4,6.9,1.3c0.7,0.3,0.7,0.3,0.4,1.1c-0.2,0.5-0.4,0.9-0.6,1.4c-0.1,0.3-0.2,0.3-0.5,0.1
		c-3.2-1.7-6.6-2.2-10.1-1.1c-3,0.9-4.9,3.6-4.9,6.9c0,3,1.4,5.2,4,6.7c1.8,1.1,3.7,1.8,5.5,2.7c2,0.9,3.9,2.1,5.6,3.7
		c1.7,1.5,2.5,3.5,2.8,5.7c0.3,2.4,0,4.8-1.2,7c-1.6,2.8-4,4.4-7.1,5.2c-4.6,1.1-8.9,0.3-13.1-1.8c-0.4-0.2-0.5-0.4-0.3-0.8
		c0.3-0.5,0.5-1.1,0.8-1.6c0.1-0.3,0.2-0.4,0.6-0.2c3.5,2.1,7.3,2.9,11.4,2c4-0.9,6.4-4.2,6.3-8.3c-0.1-3.3-1.7-5.6-4.5-7.3
		c-1.7-1-3.5-1.7-5.3-2.5c-2.3-1-4.5-2.3-6.2-4.2c-1.7-1.9-2.2-4.3-2-6.8c0.3-4.3,3.5-7.8,8.1-8.8c0.5-0.1,1-0.2,1.4-0.3
		C89.6,25,90.3,25,90.9,25z"/>
	<path class="st2" d="M150.9,51.2c0,4.6,0,9.1,0,13.7c0,0.4-0.1,0.5-0.5,0.5c-0.6,0-1.3,0-2,0c-0.3,0-0.4-0.1-0.4-0.4
		c0-2.4,0-4.9,0-7.3c0-6.7,0-13.5,0-20.2c0-0.4,0.1-0.5,0.5-0.5c0.6,0,1.2,0,1.9,0c0.4,0,0.5,0.1,0.5,0.5
		C150.9,42,150.9,46.6,150.9,51.2z"/>
	<path class="st3" d="M149.4,25.8c1.3,0,2.5,1.3,2.5,2.6c0,1.3-1.1,2.3-2.5,2.3c-1.4,0-2.4-1-2.3-2.5
		C147,26.8,148.1,25.8,149.4,25.8z"/>
	<path class="st0" d="M16.6,44.4c2.5,1.8,5.3,3.1,8.4,3.9c3.7,0.9,7.4,1,11-0.4c0.7-0.3,1.4-0.6,2-1c0.3-0.2,0.3-0.2,0-0.4
		c-1.9-1.4-3.6-3-5.3-4.6c-3.7-3.6-7.1-7.5-10.3-11.6c-0.8-1-1.6-1.9-2.2-3c4.8,4.1,9.8,7.9,15.1,11.3c-3.7-4.1-7.1-8.4-10.2-12.9
		c0.3,0,0.4,0.2,0.5,0.3c4.6,4.5,9.6,8.7,14.9,12.4c0.9,0.7,1.9,1.3,2.9,1.9c0.2,0.1,0.3,0.1,0.4-0.1c0.9-2.3,1.1-4.8,0.8-7.2
		c-0.4-3.9-1.9-7.4-4.2-10.6c0-0.1-0.1-0.1-0.1-0.2c0.1-0.1,0.2,0,0.3,0c5.4,3.5,9.3,8.2,11.2,14.4c0.9,3.1,1.1,6.2,0.2,9.3
		c-0.1,0.3,0,0.5,0.2,0.7c1.9,2.5,3,5.2,3,8.3c0,0.5-0.1,0.9-0.2,1.4c0,0.1-0.1,0.2-0.2,0.3c-0.1,0-0.2-0.1-0.2-0.2
		c-0.5-1-1.2-1.8-2.1-2.4c-1.5-0.9-3.2-0.8-4.8-0.4c-1.3,0.3-2.4,1-3.5,1.5c-2.8,1.2-5.8,1.6-8.8,1.2c-7.8-1-13.7-5-18.2-11.3
		C16.6,44.8,16.6,44.6,16.6,44.4C16.5,44.5,16.5,44.5,16.6,44.4z M35.4,38.8C35.4,38.7,35.3,38.7,35.4,38.8
		C35.3,38.7,35.3,38.7,35.4,38.8C35.3,38.8,35.3,38.8,35.4,38.8C35.4,38.8,35.4,38.8,35.4,38.8z"/>
	<path class="st0" d="M16.5,44.5c0-0.1-0.2-0.1-0.1-0.2C16.5,44.3,16.5,44.4,16.5,44.5C16.5,44.5,16.5,44.5,16.5,44.5z"/>
	<path class="st0" d="M24.9,25.7c0,0-0.1-0.1-0.1-0.1C24.9,25.5,24.9,25.5,24.9,25.7C25,25.6,25,25.7,24.9,25.7z"/>
	<path class="st0" d="M25,25.6c0,0,0.1,0.1,0.1,0.1C25,25.8,25,25.7,25,25.6C25,25.7,25,25.6,25,25.6z"/>
	<path class="st1" d="M35.4,38.8C35.4,38.8,35.4,38.8,35.4,38.8C35.3,38.8,35.3,38.8,35.4,38.8C35.3,38.7,35.3,38.7,35.4,38.8
		C35.3,38.7,35.4,38.7,35.4,38.8z"/>
</g>
</svg>
