<?xml version="1.0" encoding="utf-8"?>
<!-- Generator: Adobe Illustrator 20.0.0, SVG Export Plug-In . SVG Version: 6.00 Build 0)  -->
<svg version="1.1" id="Calque_1" xmlns="http://www.w3.org/2000/svg" xmlns:xlink="http://www.w3.org/1999/xlink" x="0px" y="0px"
	 viewBox="0 0 200 80" style="enable-background:new 0 0 200 80;" xml:space="preserve">
<style type="text/css">
	.st0{fill:#010101;}
	.st1{fill:#C50000;}
	.st2{enable-background:new    ;}
	.st3{fill:none;}
</style>
<title>scala-logo</title>
<g id="Calque_2">
	<g id="g2412">
		<path id="path2432" class="st0" d="M0.5,49.3V53c0,0.6,13.5,1.7,22.3,3.7l0,0c4.2-1,7.4-2.2,7.4-3.7l0,0v-3.7
			c0-1.5-3.1-2.7-7.4-3.7l0,0C13.9,47.7,0.5,48.7,0.5,49.3"/>
		<path id="path2452" class="st0" d="M1.5,34.5v3.7c0,0.6,13.5,1.7,22.3,3.7l0,0c4.2-1,7.4-2.2,7.4-3.7l0,0v-3.7
			c0-1.5-3.1-2.7-7.4-3.7l0,0C14.9,32.8,1.5,33.9,1.5,34.5"/>
		<path id="path2572" class="st1" d="M0.5,41.9V53c0-0.9,30.7-2.8,30.7-7.4l0,0V34.5C31.2,39.1,0.5,41,0.5,41.9"/>
		<path id="path2592" class="st1" d="M1.5,27.1v11.1c0-0.9,29.6-2.8,29.6-7.4l0,0V19.7C31.1,24.3,1.5,26.2,1.5,27.1"/>
		<path id="path2712" class="st1" d="M0.5,56.7v11.1c0-0.9,29.7-2.8,29.7-7.4l0,0V49.3C30.2,54,0.5,55.8,0.5,56.7"/>
		<g class="st2">
			<path class="st0" d="M35.9,49.4l11.4-0.7c0.2,1.9,0.8,3.3,1.5,4.2c1.2,1.6,3,2.4,5.3,2.4c1.7,0,3-0.4,4-1.2
				c0.9-0.8,1.4-1.7,1.4-2.8c0-1-0.4-1.9-1.3-2.7c-0.9-0.8-2.9-1.5-6.2-2.3c-5.3-1.2-9-2.8-11.3-4.7c-2.3-2-3.4-4.5-3.4-7.5
				c0-2,0.6-3.9,1.7-5.7c1.2-1.8,2.9-3.2,5.2-4.2s5.5-1.5,9.6-1.5c5,0,8.8,0.9,11.4,2.8c2.6,1.8,4.2,4.8,4.7,8.8L58.6,35
				c-0.3-1.8-0.9-3-1.9-3.8s-2.3-1.2-4-1.2c-1.4,0-2.5,0.3-3.2,0.9s-1.1,1.3-1.1,2.2c0,0.6,0.3,1.2,0.9,1.7c0.6,0.5,1.9,1,4,1.4
				c5.3,1.1,9,2.3,11.3,3.4c2.3,1.2,3.9,2.6,5,4.3c1,1.7,1.6,3.6,1.6,5.8c0,2.5-0.7,4.8-2.1,6.9c-1.4,2.1-3.3,3.7-5.8,4.8
				c-2.5,1.1-5.6,1.6-9.4,1.6c-6.6,0-11.2-1.3-13.7-3.8C37.6,56.6,36.2,53.3,35.9,49.4z"/>
			<path class="st0" d="M97.5,51.2l10.3,1.2c-0.6,2.1-1.5,4-2.8,5.6s-2.9,2.8-5,3.6c-2,0.9-4.6,1.3-7.7,1.3c-3,0-5.5-0.3-7.5-0.8
				s-3.7-1.5-5.1-2.7s-2.6-2.7-3.4-4.4s-1.2-3.9-1.2-6.7c0-2.9,0.5-5.3,1.5-7.2c0.7-1.4,1.7-2.7,3-3.8s2.5-2,3.9-2.5
				c2.1-0.9,4.8-1.3,8.1-1.3c4.6,0,8.1,0.8,10.5,2.5c2.4,1.6,4.1,4.1,5.1,7.2L97,44.6c-0.3-1.2-0.9-2.1-1.7-2.7
				c-0.8-0.6-2-0.9-3.4-0.9c-1.8,0-3.2,0.6-4.3,1.9c-1.1,1.3-1.7,3.2-1.7,5.8c0,2.3,0.5,4.1,1.6,5.3s2.5,1.8,4.2,1.8
				c1.4,0,2.6-0.4,3.6-1.1C96.3,53.9,97,52.7,97.5,51.2z"/>
			<path class="st0" d="M122.6,43.2l-10.3-1.1c0.4-1.8,1-3.2,1.7-4.3s1.8-1.9,3.2-2.7c1-0.5,2.4-1,4.1-1.3s3.6-0.5,5.6-0.5
				c3.2,0,5.8,0.2,7.8,0.5s3.6,1.1,4.9,2.3c0.9,0.8,1.6,1.9,2.2,3.4s0.8,2.9,0.8,4.2v12.4c0,1.3,0.1,2.4,0.3,3.1
				c0.2,0.8,0.5,1.7,1.1,2.9h-10.1c-0.4-0.7-0.7-1.3-0.8-1.7s-0.2-1-0.4-1.8c-1.4,1.4-2.8,2.3-4.2,2.9c-1.9,0.8-4.1,1.2-6.7,1.2
				c-3.4,0-5.9-0.8-7.7-2.3c-1.7-1.6-2.6-3.5-2.6-5.8c0-2.1,0.6-3.9,1.9-5.3c1.3-1.4,3.6-2.4,7-3.1c4.1-0.8,6.7-1.4,7.9-1.7
				s2.5-0.8,3.8-1.3c0-1.3-0.3-2.3-0.8-2.8s-1.5-0.8-2.9-0.8c-1.8,0-3.1,0.3-4,0.8C123.6,41.2,123,42,122.6,43.2z M132,48.9
				c-1.5,0.5-3,1-4.6,1.4c-2.2,0.6-3.6,1.2-4.2,1.7c-0.6,0.6-0.9,1.2-0.9,2s0.3,1.5,0.9,2.1s1.5,0.8,2.6,0.8c1.2,0,2.3-0.3,3.4-0.9
				s1.8-1.3,2.2-2.1s0.7-1.9,0.7-3.3L132,48.9L132,48.9z"/>
			<path class="st0" d="M149.4,23.4h10.8v38.9h-10.8V23.4z"/>
			<path class="st0" d="M177,43.2l-10.3-1.1c0.4-1.8,1-3.2,1.7-4.3c0.7-1,1.8-1.9,3.2-2.7c1-0.5,2.4-1,4.1-1.3s3.6-0.5,5.6-0.5
				c3.2,0,5.8,0.2,7.8,0.5c2,0.4,3.6,1.1,4.9,2.3c0.9,0.8,1.6,1.9,2.2,3.4c0.5,1.5,0.8,2.9,0.8,4.2v12.4c0,1.3,0.1,2.4,0.3,3.1
				s0.5,1.7,1.1,2.9h-10.1c-0.4-0.7-0.7-1.3-0.8-1.7s-0.2-1-0.4-1.8c-1.4,1.4-2.8,2.3-4.2,2.9c-1.9,0.8-4.1,1.2-6.7,1.2
				c-3.4,0-5.9-0.8-7.7-2.3c-1.7-1.6-2.6-3.5-2.6-5.8c0-2.1,0.6-3.9,1.9-5.3c1.3-1.4,3.6-2.4,7-3.1c4.1-0.8,6.7-1.4,7.9-1.7
				s2.5-0.8,3.8-1.3c0-1.3-0.3-2.3-0.8-2.8s-1.5-0.8-2.9-0.8c-1.8,0-3.1,0.3-4,0.8C177.9,41.2,177.4,42,177,43.2z M186.3,48.9
				c-1.5,0.5-3,1-4.6,1.4c-2.2,0.6-3.6,1.2-4.2,1.7c-0.6,0.6-0.9,1.2-0.9,2s0.3,1.5,0.9,2.1s1.5,0.8,2.6,0.8c1.2,0,2.3-0.3,3.4-0.9
				s1.8-1.3,2.2-2.1s0.7-1.9,0.7-3.3L186.3,48.9L186.3,48.9z"/>
		</g>
	</g>
</g>
<g id="Calque_1_1_">
	<rect class="st3" width="200" height="80"/>
</g>
</svg>
