<svg id="Calque_1" data-name="Calque 1" xmlns="http://www.w3.org/2000/svg" viewBox="0 0 200 80"><defs><style>.cls-1{fill:none;}.cls-2{fill:#f68d11;}.cls-3{fill:#100f0d;}</style></defs><title>aws-logo</title><g id="Calque_1-2" data-name="Calque 1"><rect class="cls-1" width="200" height="80"/></g><g id="g10"><g id="g12"><path id="path14" class="cls-2" d="M52.61,33.49l-11-3.67V13.91l11,3.26V33.49"/><path id="path16" class="cls-2" d="M55.48,17.17l11-3.26,0,15.9-11,3.68V17.17"/><path id="path18" class="cls-2" d="M64.25,12.19,54,9,43.86,12.19,54,14.91l10.25-2.72"/><path id="path20" class="cls-2" d="M80.36,33.49l-11-3.67V13.91l11,3.26V33.49"/><path id="path22" class="cls-2" d="M83.22,17.17l11-3.26,0,15.9-11,3.68V17.17"/><path id="path24" class="cls-2" d="M92,12.19,81.73,9,71.6,12.19l10.15,2.72L92,12.19"/><path id="path26" class="cls-2" d="M11,40.43,0,37.16V53.07l11,3.67V40.43"/><path id="path28" class="cls-2" d="M13.87,40.43l11-3.26,0,15.9-11,3.68V40.43"/><path id="path30" class="cls-2" d="M22.64,35.44,12.38,32.27,2.24,35.44l10.15,2.72,10.25-2.72"/><path id="path32" class="cls-2" d="M38.74,56.75l-11-3.67V37.16l11,3.26V56.75"/><path id="path34" class="cls-2" d="M41.61,40.43l11-3.26,0,15.9-11,3.68V40.43"/><path id="path36" class="cls-2" d="M50.38,35.44,40.12,32.27,30,35.44l10.15,2.72,10.25-2.72"/><path id="path38" class="cls-2" d="M24.87,80l-11-3.67V60.42l11,3.26V80"/><path id="path40" class="cls-2" d="M27.74,63.68l11-3.26,0,15.9L27.74,80V63.68"/><path id="path42" class="cls-2" d="M36.51,58.69,26.25,55.52,16.11,58.69l10.15,2.72,10.25-2.72"/><path id="path44" class="cls-3" d="M73.59,65.94h-.81a.83.83,0,0,0-.77.53l-2.46,8.65-2.43-8.63a.73.73,0,0,0-.67-.54h-1a.72.72,0,0,0-.67.55L62.57,75l-2.33-8.57a.85.85,0,0,0-.78-.52H58.29a.75.75,0,0,0-.6.28.4.4,0,0,0-.07.36l3.61,12.77a.71.71,0,0,0,.65.54H63a.7.7,0,0,0,.67-.55l2.22-8.5,2.42,8.51a.71.71,0,0,0,.65.54h1.14a.68.68,0,0,0,.66-.54l3.47-12.76a.41.41,0,0,0-.07-.37.74.74,0,0,0-.6-.27"/><path id="path46" class="cls-3" d="M83.61,71.36H77.49c.14-1.72,1.26-3.5,3.14-3.57S83.56,69.6,83.61,71.36Zm-3-5.51c-4.13,0-6,3.65-6,7,0,4.24,2.34,7,6,7A5.46,5.46,0,0,0,86,76.27a.48.48,0,0,0,0-.4.68.68,0,0,0-.45-.31l-1.15-.22a.76.76,0,0,0-.78.4,3.13,3.13,0,0,1-2.85,2,3.31,3.31,0,0,1-2.87-1.86,6.07,6.07,0,0,1-.49-2.66h8.31a.69.69,0,0,0,.48-.21.53.53,0,0,0,.16-.37c0-3.3-1.53-6.83-5.7-6.83"/><path id="path48" class="cls-3" d="M96.55,72.91c0,.78-.14,4.68-2.91,4.78a3.09,3.09,0,0,1-2.39-1.39,5.23,5.23,0,0,1-.67-2.5v-2.3c0-1.76,1.28-3.69,3.05-3.76,2.78.11,2.92,4.32,2.92,5.17Zm-2.48-7.19h-.22a3.81,3.81,0,0,0-3.28,1.74V62.08a.65.65,0,0,0-.66-.58H88.72a.65.65,0,0,0-.66.58v16.8a.65.65,0,0,0,.66.58h.35a.71.71,0,0,0,.65-.51l.37-1.19a4.39,4.39,0,0,0,3.57,2h.21c3.69,0,5.34-3.59,5.34-7.14A8.8,8.8,0,0,0,98,67.94a4.77,4.77,0,0,0-3.94-2.22"/><path id="path50" class="cls-3" d="M112.29,72.54a6.59,6.59,0,0,0-2.65-.93l-1.79-.33c-1.29-.21-2-.56-2-1.69s1.24-1.66,2.3-1.69a2.89,2.89,0,0,1,2.73,1.62.7.7,0,0,0,.62.4h.13l1.12-.25a.69.69,0,0,0,.44-.33.48.48,0,0,0,0-.4c-.68-2-2.42-3-5.06-3-2.38,0-4.92,1.06-4.92,4,0,2,1.27,3.3,3.77,3.81l2,.38c1.1.21,2.23.59,2.23,1.77,0,1.75-2,1.93-2.66,1.94-1.38,0-2.95-.65-3.33-2a.67.67,0,0,0-.75-.42l-1.17.24a.68.68,0,0,0-.43.31.51.51,0,0,0-.06.41c.6,2.17,2.7,3.47,5.6,3.5h.06c2.59,0,5.36-1.11,5.36-4.22a3.76,3.76,0,0,0-1.56-3.11"/><path id="path52" class="cls-3" d="M124.13,71.37H118c.14-1.72,1.25-3.5,3.14-3.57S124.09,69.61,124.13,71.37Zm-3-5.51c-4.13,0-6,3.65-6,7,0,4.24,2.34,7,6,7a5.46,5.46,0,0,0,5.42-3.6.49.49,0,0,0,0-.4.67.67,0,0,0-.45-.31l-1.15-.22a.75.75,0,0,0-.78.4,3.14,3.14,0,0,1-2.85,2,3.3,3.3,0,0,1-2.87-1.86,6,6,0,0,1-.49-2.66h8.31a.69.69,0,0,0,.48-.2.53.53,0,0,0,.16-.37c0-3.3-1.53-6.83-5.7-6.83"/><path id="path54" class="cls-3" d="M134.7,66l-.47,0a3.7,3.7,0,0,0-3.31,2.21V66.92a.64.64,0,0,0-.66-.58h-1a.63.63,0,0,0-.64.58V79.25a.63.63,0,0,0,.64.58h1.21a.66.66,0,0,0,.67-.58V73a5.19,5.19,0,0,1,.58-2.71,3.25,3.25,0,0,1,3-1.95.63.63,0,0,0,.62-.61V66.61a.64.64,0,0,0-.59-.6"/><path id="path56" class="cls-3" d="M147.4,65.77h-1a.85.85,0,0,0-.78.53L142.57,76l-3.16-9.73a.85.85,0,0,0-.78-.54h-1.37a.77.77,0,0,0-.62.28.4.4,0,0,0-.06.37l4.33,12.85a.73.73,0,0,0,.65.55h1.65a.71.71,0,0,0,.67-.55l4.2-12.84a.4.4,0,0,0-.06-.37.77.77,0,0,0-.62-.29"/><path id="path58" class="cls-3" d="M150.55,60.83a1.6,1.6,0,1,0,1.6,1.6,1.6,1.6,0,0,0-1.6-1.6"/><path id="path60" class="cls-3" d="M151.2,65.69h-1.31a.67.67,0,0,0-.68.6V79.37a.57.57,0,0,0,.22.43.73.73,0,0,0,.46.17h1.32a.67.67,0,0,0,.68-.6V66.29a.67.67,0,0,0-.69-.6"/><path id="path62" class="cls-3" d="M163.45,74.56h-1.09a.71.71,0,0,0-.68.5c-.4,1.72-1.31,2.62-2.68,2.66-2.67-.08-2.88-3.81-2.88-4.95,0-2.27.79-4.73,3-4.79a2.76,2.76,0,0,1,2.58,2.54.72.72,0,0,0,.63.6h1.17a.66.66,0,0,0,.62-.63,5,5,0,0,0-5-4.61H159c-3.78,0-5.47,3.52-5.47,7,0,3.2,1.43,6.94,5.44,6.94h.19c2.53,0,4.44-1.77,5-4.65a.52.52,0,0,0-.13-.39.77.77,0,0,0-.55-.25"/><path id="path64" class="cls-3" d="M174.26,71.37h-6.12c.14-1.72,1.26-3.5,3.15-3.57S174.22,69.61,174.26,71.37Zm-3-5.51c-4.13,0-6,3.65-6,7,0,4.24,2.34,7,6,7a5.46,5.46,0,0,0,5.42-3.6.49.49,0,0,0,0-.4.67.67,0,0,0-.45-.31L175,75.35a.75.75,0,0,0-.78.4,3.14,3.14,0,0,1-2.85,2,3.3,3.3,0,0,1-2.87-1.86,6,6,0,0,1-.49-2.66h8.31a.69.69,0,0,0,.48-.21.53.53,0,0,0,.16-.37c0-3.3-1.53-6.83-5.7-6.83"/><path id="path66" class="cls-3" d="M187.39,72.54a6.59,6.59,0,0,0-2.65-.93l-1.79-.33c-1.29-.21-2-.56-2-1.69,0-1.55,1.92-1.68,2.3-1.69a2.89,2.89,0,0,1,2.73,1.62.7.7,0,0,0,.62.4h.13l1.12-.25a.7.7,0,0,0,.44-.33.48.48,0,0,0,0-.4c-.68-2-2.42-3-5.06-3-2.38,0-4.92,1.06-4.92,4,0,2,1.27,3.3,3.77,3.81l2,.38c1.1.21,2.23.59,2.23,1.77,0,1.75-2,1.93-2.66,1.94-1.28,0-2.92-.56-3.33-2a.67.67,0,0,0-.76-.43l-1.17.24A.68.68,0,0,0,178,76a.51.51,0,0,0-.06.4c.6,2.17,2.69,3.47,5.6,3.5h.06c2.59,0,5.36-1.11,5.36-4.22a3.75,3.75,0,0,0-1.56-3.11"/><path id="path68" class="cls-3" d="M134.1,40.51v-3a.74.74,0,0,1,.75-.75h13.31a.74.74,0,0,1,.77.75v2.55a4.19,4.19,0,0,1-1,1.87L141,51.79a14.75,14.75,0,0,1,7.59,1.63,1.36,1.36,0,0,1,.71,1.16v3.17c0,.44-.48.94-1,.68a15.33,15.33,0,0,0-14.06,0c-.46.25-.95-.25-.95-.69v-3a3.59,3.59,0,0,1,.49-2l8-11.45h-7a.74.74,0,0,1-.77-.75"/><path id="path70" class="cls-3" d="M85.57,59.05h-4a.76.76,0,0,1-.72-.69V37.59a.76.76,0,0,1,.78-.75h3.77a.77.77,0,0,1,.74.7v2.71h.08a5.34,5.34,0,0,1,5.33-3.85c2.53,0,4.12,1.22,5.25,3.85A6,6,0,0,1,107,38.68c1.28,1.75,1,4.28,1,6.51V58.3a.76.76,0,0,1-.78.75h-4a.76.76,0,0,1-.73-.75v-11a26.66,26.66,0,0,0-.11-3.89A2.11,2.11,0,0,0,100,41.61a2.69,2.69,0,0,0-2.42,1.7,12.59,12.59,0,0,0-.38,4v11a.76.76,0,0,1-.78.75h-4a.76.76,0,0,1-.73-.75v-11c0-2.32.38-5.73-2.49-5.73s-2.8,3.32-2.8,5.73v11a.76.76,0,0,1-.78.75"/><path id="path72" class="cls-3" d="M160.42,40.65c-3,0-3.17,4.07-3.17,6.6s0,8,3.14,8,3.29-4.37,3.29-7a19.21,19.21,0,0,0-.6-5.51A2.54,2.54,0,0,0,160.42,40.65Zm0-4.24c6,0,9.26,5.16,9.26,11.71,0,6.34-3.59,11.37-9.26,11.37-5.9,0-9.11-5.16-9.11-11.59s3.25-11.5,9.11-11.5"/><path id="path74" class="cls-3" d="M177.44,59.05h-4a.76.76,0,0,1-.73-.75V37.52a.77.77,0,0,1,.78-.68h3.76a.77.77,0,0,1,.72.58V40.6H178c1.13-2.84,2.72-4.2,5.52-4.2a5.3,5.3,0,0,1,4.72,2.45c1.06,1.66,1.06,4.46,1.06,6.47V58.4a.77.77,0,0,1-.77.66h-4.06a.77.77,0,0,1-.72-.66V47.12c0-2.27.27-5.6-2.53-5.6a2.65,2.65,0,0,0-2.34,1.66,9.22,9.22,0,0,0-.64,3.94V58.3a.78.78,0,0,1-.79.75"/><path class="cls-3" d="M130.71,55.24a5.53,5.53,0,0,1-1.53-3.75V45.19c0-2.67.19-5.13-1.78-7a9.19,9.19,0,0,0-6.1-2c-3.85,0-8.15,1.44-9.05,6.2a.71.71,0,0,0,.6.85l3.92.43a.85.85,0,0,0,.7-.74,3.08,3.08,0,0,1,3.25-2.43A2.7,2.7,0,0,1,123,41.55a5.18,5.18,0,0,1,.49,2.94V45c-2.35.26-5.42.44-7.61,1.4A6.88,6.88,0,0,0,111.57,53c0,4.21,2.65,6.31,6.06,6.31,2.88,0,4.45-.68,6.67-2.94a9.9,9.9,0,0,0,2.32,2.7.84.84,0,0,0,1-.09h0c.81-.72,2.28-2,3.1-2.69A.77.77,0,0,0,130.71,55.24Zm-8-1.82a3.29,3.29,0,0,1-2.8,1.84c-1.55,0-2.46-1.18-2.46-2.94,0-3.45,3.09-4.07,6-4.07v.88A7.94,7.94,0,0,1,122.74,53.42Z"/><path class="cls-3" d="M77.64,55.24a5.53,5.53,0,0,1-1.53-3.75V45.19c0-2.67.19-5.13-1.78-7a9.19,9.19,0,0,0-6.1-2c-3.85,0-8.15,1.44-9.05,6.2a.71.71,0,0,0,.6.85l3.92.43a.85.85,0,0,0,.7-.74,3.08,3.08,0,0,1,3.25-2.43,2.7,2.7,0,0,1,2.27,1.05,5.18,5.18,0,0,1,.49,2.94V45c-2.35.26-5.41.44-7.61,1.4A6.88,6.88,0,0,0,58.5,53c0,4.21,2.65,6.31,6.06,6.31,2.88,0,4.45-.68,6.67-2.94a9.91,9.91,0,0,0,2.32,2.7.84.84,0,0,0,1-.09h0c.81-.72,2.28-2,3.1-2.69A.77.77,0,0,0,77.64,55.24Zm-8-1.82a3.29,3.29,0,0,1-2.8,1.84c-1.55,0-2.46-1.18-2.46-2.94,0-3.45,3.09-4.07,6-4.07v.88A8,8,0,0,1,69.67,53.42Z"/></g></g></svg>