<?xml version="1.0" encoding="utf-8"?>
<!-- Generator: Adobe Illustrator 20.0.0, SVG Export Plug-In . SVG Version: 6.00 Build 0)  -->
<svg version="1.1" id="Calque_1" xmlns="http://www.w3.org/2000/svg" xmlns:xlink="http://www.w3.org/1999/xlink" x="0px" y="0px"
	 viewBox="0 0 200 80" style="enable-background:new 0 0 200 80;" xml:space="preserve">
<style type="text/css">
	.st0{clip-path:url(#SVGID_2_);}
	.st1{fill:#A0A29D;}
	.st2{fill:url(#path3042_1_);}
	.st3{fill:url(#path3007_1_);}
	.st4{fill:url(#path3025_1_);}
	.st5{fill:url(#path3841_1_);}
	.st6{fill:url(#path3871_1_);}
	.st7{opacity:0.83;fill:#FFFFFF;enable-background:new    ;}
	.st8{fill:url(#path4051_1_);}
	.st9{fill:url(#SVGID_3_);}
	.st10{fill:url(#SVGID_4_);}
	.st11{opacity:0.76;fill:#EAEAEA;enable-background:new    ;}
	.st12{fill:url(#path3051_1_);}
	.st13{fill:#7F8EB0;}
	.st14{fill:url(#path5890_1_);}
	.st15{fill:url(#path5892_1_);}
	.st16{fill:url(#path5894_1_);}
	.st17{fill:#303A4E;}
	.st18{fill:url(#path5898_1_);}
	.st19{fill:#FFFFFF;fill-opacity:2.000000e-02;}
	.st20{fill:#010101;}
	.st21{fill:url(#path5906_1_);}
	.st22{fill:#505C73;fill-opacity:0.76;}
	.st23{fill:#FFFFFF;fill-opacity:1.000000e-02;}
	.st24{fill:url(#path6000_1_);}
	.st25{fill:url(#path6002_1_);}
	.st26{fill:#FFFFFF;}
	.st27{fill:url(#path6008_1_);}
</style>
<title>r-logo</title>
<g id="Calque_2">
	<g id="g6105">
		<g>
			<defs>
				<path id="SVGID_1_" d="M100,0.3c-28.5,0-52.6,15.3-52.6,35.1c0,18.6,24.1,35.1,52.6,35.1s52.6-15.4,52.6-35.1S128.5,0.3,100,0.3
					z M106.6,13.5c21.9,0,42.8,11,42.8,24.2s-18.6,24.1-40.6,24.1s-39.6-11-39.6-24.1S84.6,13.4,106.6,13.5L106.6,13.5z"/>
			</defs>
			<clipPath id="SVGID_2_">
				<use xlink:href="#SVGID_1_"  style="overflow:visible;"/>
			</clipPath>
			<g class="st0">
				<g id="g3892">
					<path id="path2997" class="st1" d="M100,0.3c-28.5,0-52.6,15.4-52.6,35.1c0,18.6,24.1,35.1,52.6,35.1s52.6-15.3,52.6-35.1
						S128.5,0.3,100,0.3z M106.6,13.5c21.9,0,42.7,11,42.7,24.1s-18.7,24.1-40.6,24.1s-39.5-11-39.5-24.1S84.6,13.5,106.6,13.5
						L106.6,13.5z"/>
					
						<radialGradient id="path3042_1_" cx="156.9785" cy="74.7856" r="6.93" gradientTransform="matrix(7.78 -4.000000e-02 2.000000e-02 4.57 -1122.5798 -302.51)" gradientUnits="userSpaceOnUse">
						<stop  offset="0" style="stop-color:#FFFFFF;stop-opacity:0"/>
						<stop  offset="0.79" style="stop-color:#FFFFFF;stop-opacity:0.58"/>
						<stop  offset="1" style="stop-color:#867E7F"/>
					</radialGradient>
					<path id="path3042" class="st2" d="M100,0.3c-28.5,0-52.6,15.4-52.6,35.1c0,18.6,24.1,35.1,52.6,35.1s52.6-15.3,52.6-35.1
						S128.5,0.3,100,0.3z M106.6,13.5c21.9,0,42.7,11,42.7,24.1s-18.7,24.1-40.6,24.1s-39.5-11-39.5-24.1S84.6,13.5,106.6,13.5
						L106.6,13.5z"/>
					
						<radialGradient id="path3007_1_" cx="114.998" cy="142.6744" r="7" gradientTransform="matrix(-4.98 -10.45 29.57 -14.09 -3496.98 3266.9602)" gradientUnits="userSpaceOnUse">
						<stop  offset="0" style="stop-color:#010101"/>
						<stop  offset="1" style="stop-color:#A0A29D;stop-opacity:0"/>
					</radialGradient>
					<path id="path3007" class="st3" d="M100,0.3c-28.5,0-52.6,15.4-52.6,35.1c0,18.6,24.1,35.1,52.6,35.1s52.6-15.3,52.6-35.1
						S128.5,0.3,100,0.3z M106.6,13.5c21.9,0,42.7,11,42.7,24.1s-18.7,24.1-40.6,24.1s-39.5-11-39.5-24.1S84.6,13.5,106.6,13.5
						L106.6,13.5z"/>
					
						<radialGradient id="path3025_1_" cx="123.4778" cy="111.0911" r="6.51" gradientTransform="matrix(-4.24 -14.1 16.66 -5.01 -1175.2399 2361.1899)" gradientUnits="userSpaceOnUse">
						<stop  offset="0" style="stop-color:#FFFFFF;stop-opacity:0.62"/>
						<stop  offset="1" style="stop-color:#A0A29D;stop-opacity:0"/>
					</radialGradient>
					<path id="path3025" class="st4" d="M101.5,6.4C68,6.2,51.6,20.6,52.1,36.7c0.5,17.5,22.6,30.3,49.4,30.3s49.4-13.2,49.4-30.2
						S128.2,6.6,101.5,6.4z M106.5,13.5c21.9,0,42.7,10.9,42.7,24.1s-18.6,24.1-40.5,24.1s-39.5-11-39.5-24.1S84.6,13.5,106.5,13.5
						L106.5,13.5z"/>
					
						<radialGradient id="path3841_1_" cx="75.8944" cy="66.48" r="6.51" gradientTransform="matrix(-1.000000e-02 -5.77 8.76 -1.000000e-02 -473.28 473.85)" gradientUnits="userSpaceOnUse">
						<stop  offset="0" style="stop-color:#010101;stop-opacity:0"/>
						<stop  offset="0.77" style="stop-color:#010101;stop-opacity:0"/>
						<stop  offset="1" style="stop-color:#010101;stop-opacity:0.5"/>
					</radialGradient>
					<path id="path3841" class="st5" d="M101.5,6.4C68,6.2,51.6,20.6,52.1,36.7c0.5,17.5,22.6,30.3,49.4,30.3s49.4-13.2,49.4-30.2
						S128.2,6.6,101.5,6.4z M106.5,13.5c21.9,0,42.7,10.9,42.7,24.1s-18.6,24.1-40.5,24.1s-39.5-11-39.5-24.1S84.6,13.5,106.5,13.5
						L106.5,13.5z"/>
					
						<radialGradient id="path3871_1_" cx="74.216" cy="67.0132" r="6.01" gradientTransform="matrix(0.14 -5.03 7.69 0.21 -419.26 397.03)" gradientUnits="userSpaceOnUse">
						<stop  offset="0" style="stop-color:#A0A29D"/>
						<stop  offset="0.93" style="stop-color:#A0A29D"/>
						<stop  offset="1" style="stop-color:#FFFFFF;stop-opacity:0.99"/>
					</radialGradient>
					<path id="path3871" class="st6" d="M103.6,9C78.5,9,58,21.4,58,36.7s20.5,27.7,45.6,27.7s47.6-11.3,47.6-26.6S128.9,9,103.6,9z
						 M108.9,10.4c21.9,0.6,41.7,14.4,41.7,27.5s-22.2,24.7-44.1,25.4C84.3,64.1,66,52.8,64.8,37C63.7,21.2,86.5,10,108.9,10.4
						L108.9,10.4z"/>
					<g id="path3988">
						<path class="st7" d="M90.5,6.7c-28.2,2.3-36,15.1-38,20.5C50.4,32.6,50.6,41,54,44.8c-1.8-3.2-1.7-4.6-1.9-8.2
							C51.2,20.2,68.5,8.5,90.5,6.7L90.5,6.7z"/>
					</g>
					
						<radialGradient id="path4051_1_" cx="114.5764" cy="75.2625" r="5.36" gradientTransform="matrix(0.31 -3.55 8.84 0.77 -592.32 372.87)" gradientUnits="userSpaceOnUse">
						<stop  offset="0" style="stop-color:#010101"/>
						<stop  offset="0.67" style="stop-color:#50524F;stop-opacity:0.78"/>
						<stop  offset="1" style="stop-color:#A0A29D;stop-opacity:0"/>
					</radialGradient>
					<path id="path4051" class="st8" d="M104.7,6.6C75.5,5.4,58.9,18,59.4,32.3c0.3,7.6,6.6,14.5,16.8,19c-4.4-3.9-7-8.6-7-13.7
						c0-13.1,15.4-24.1,37.3-24.1c17.9,0,35,7.3,40.7,17.1c1.2,2,2.8,6,1.8,9.7c0.7-2.6,1.1-5.3,1-8C148.1,19.6,128.9,7.6,104.7,6.6
						z"/>
					<g id="path4320">
						
							<linearGradient id="SVGID_3_" gradientUnits="userSpaceOnUse" x1="60.455" y1="233.7316" x2="123.025" y2="233.7316" gradientTransform="matrix(1 0 0 1 0 -218)">
							<stop  offset="0" style="stop-color:#757675"/>
							<stop  offset="0.38" style="stop-color:#B9BAB5"/>
							<stop  offset="1" style="stop-color:#D0D0D0"/>
						</linearGradient>
						<path class="st9" d="M102,6.1C93.7,6,82.7,7.2,74.6,9.8c-5.2,2-12.1,5.6-15.7,10c-1.4,1.8-3.3,3.4-4,5.5
							c1.3-1.8,8.1-11.2,16.9-11.2c4.3,0,4.3-0.2,10.7-2.1c8-2.4,16.3-3.5,24.6-3.4c5.3,0,10.6,0.3,15.9,0.9
							C116.3,7.4,109.2,6.2,102,6.1z"/>
					</g>
					<g id="path3949">
						
							<radialGradient id="SVGID_4_" cx="78.595" cy="71.4835" r="5.64" gradientTransform="matrix(0.37 -5.27 8.74 0.62 -546.22 408.98)" gradientUnits="userSpaceOnUse">
							<stop  offset="0" style="stop-color:#010101"/>
							<stop  offset="0.81" style="stop-color:#010101;stop-opacity:0.96"/>
							<stop  offset="1" style="stop-color:#A0A29D;stop-opacity:0"/>
						</radialGradient>
						<path class="st10" d="M102,12.1c-22.8,0-37.6,10.9-37.6,25S83,62.7,105.8,62.7c7.5,0.1,14.9-1.2,21.8-3.8
							c-6.1,1.9-12.4,2.9-18.8,2.9c-21.9,0-39.6-11.2-39.6-24.3S85.1,13,107,13c13.5,0,26.1,4.6,34.1,10.9
							C133.5,16.9,117,12.1,102,12.1z"/>
					</g>
					<g id="path3294">
						<path class="st11" d="M126.6,10.3C72,0.7,59.8,24.3,58.6,29.4c-1.3,5.8,1.4,15.8,4.7,19.7c-1.8-3.2-2.5-7.9-2.3-11.5
							C61.6,20,78,2.5,126.6,10.3z"/>
					</g>
					
						<linearGradient id="path3051_1_" gradientUnits="userSpaceOnUse" x1="57.7215" y1="67.2834" x2="44.4115" y2="69.1934" gradientTransform="matrix(7.59 0 0 7.59 -286.38 -481.39)">
						<stop  offset="0" style="stop-color:#FFFFFF;stop-opacity:0.92"/>
						<stop  offset="0.67" style="stop-color:#FFFFFF;stop-opacity:0.13"/>
						<stop  offset="1" style="stop-color:#FFFFFF;stop-opacity:0.37"/>
					</linearGradient>
					<path id="path3051" class="st12" d="M101.5,6.3C84.7,6.1,72.2,9.7,64,15.3S51.7,28.6,52,36.7c0.2,8.8,5.9,16.4,14.9,21.8
						s21.2,8.6,34.6,8.6s25.8-3.3,34.8-8.8S151,45.3,151,36.7s-5.7-16.1-14.7-21.6S114.9,6.4,101.5,6.3z M101.5,6.5
						c13.3,0.1,25.7,3.4,34.6,8.8s14.6,12.9,14.6,21.3s-5.6,16-14.6,21.4c-9,5.4-21.3,8.7-34.6,8.7S75.9,63.6,67,58.3
						S52.5,45.4,52.3,36.7c-0.2-8,3.7-15.5,11.9-21.1S84.7,6.4,101.5,6.5L101.5,6.5z"/>
				</g>
			</g>
		</g>
		<g id="g6026">
			<path id="path5888" class="st13" d="M88,20.2V80h17.7V56.8c4.4,0,6.6-1.1,10,4.4c4.4,7.7,9.9,18.8,9.9,18.8h21
				c0,0-13.3-22.1-14.4-23.2c-2-2.2-4.4-2.2-7.7-3.3c6.6-1.1,12.6-3.9,14.7-10c1.9-5.5,1.7-12.6-2.4-17.3c-3.5-3.7-6.8-6-15.7-6
				L88,20.2L88,20.2z M105.7,32.4h11.6c2.8,0,5,2.8,5,5.5s-2.2,5.5-5,5.5h-11.6V32.4L105.7,32.4z"/>
			
				<linearGradient id="path5890_1_" gradientUnits="userSpaceOnUse" x1="71.5121" y1="65.0717" x2="72.4321" y2="66.3017" gradientTransform="matrix(7.59 0 0 7.59 -430.38 -456.29)">
				<stop  offset="0" style="stop-color:#2E364A"/>
				<stop  offset="0.42" style="stop-color:#6E82A6"/>
				<stop  offset="1" style="stop-color:#AAB5CC"/>
			</linearGradient>
			<path id="path5890" class="st14" d="M105.4,28.9c-1.8,0.1-3.2,1.7-3.2,3.5v11.1c0,1.9,1.5,3.5,3.4,3.5c0,0,0,0,0,0h11.6
				c5.2,0,8.4-4.3,8.4-9s-3.2-9-8.4-9L105.4,28.9L105.4,28.9z M105.7,32.4h11.6c2.8,0,5,2.8,5,5.5s-2.2,5.5-5,5.5h-11.6V32.4z"/>
			
				<linearGradient id="path5892_1_" gradientUnits="userSpaceOnUse" x1="72.4652" y1="67.3359" x2="71.7252" y2="63.6359" gradientTransform="matrix(7.59 0 0 7.59 -430.38 -456.29)">
				<stop  offset="0" style="stop-color:#5E7196"/>
				<stop  offset="5.000000e-02" style="stop-color:#4B5773"/>
				<stop  offset="0.17" style="stop-color:#1A1A35"/>
				<stop  offset="0.68" style="stop-color:#101324"/>
				<stop  offset="1" style="stop-color:#A7B2C8"/>
			</linearGradient>
			<path id="path5892" class="st15" d="M124.5,53.5L124.5,53.5c6.6-1.1,12.5-3.9,14.7-10c1.8-5.5,1.6-12.5-2.4-17.3
				c-3.5-3.7-6.8-6-15.7-6H88v0.1l3.6,3.5l0,0h29.5c8.2,0,9.8,1.3,12.9,4.6c2.9,3.4,3.3,9.2,1.8,13.8v0.1C134.3,46.7,130,49,124,50
				c-1.6,0.3-2.8,1.6-2.9,3.2c0,0.1,0,0.2,0,0.3"/>
			
				<linearGradient id="path5894_1_" gradientUnits="userSpaceOnUse" x1="150.9548" y1="62.97" x2="150.9448" y2="63.33" gradientTransform="matrix(7.59 0 0 7.59 -1037.5101 -456.29)">
				<stop  offset="0" style="stop-color:#7384A9;stop-opacity:0"/>
				<stop  offset="1" style="stop-color:#F9FBFE;stop-opacity:0.86"/>
			</linearGradient>
			<path id="path5894" class="st16" d="M91.6,23.9h29.6c5,0,4,0.5,7.2,0.7c-1.6-1.2-10-5-7.2-4.4H88v0.1"/>
			<path id="path5896" class="st17" d="M140.4,76.5c-4.1,0-8.4,0-12.5,0h-0.2l-2,3.5h20.9l-0.3-0.1L140.4,76.5z"/>
			
				<linearGradient id="path5898_1_" gradientUnits="userSpaceOnUse" x1="94.0142" y1="68.2218" x2="93.4343" y2="67.5118" gradientTransform="matrix(7.59 0 0 7.59 -582.16 -456.29)">
				<stop  offset="0" style="stop-color:#222735"/>
				<stop  offset="0.5" style="stop-color:#6E82A6"/>
				<stop  offset="1" style="stop-color:#3F4C67;stop-opacity:0.67"/>
			</linearGradient>
			<path id="path5898" class="st18" d="M121.1,53.4c0,1.5,1,2.9,2.5,3.4c1.9,0.6,3.4,0.9,4.4,1.2c0.7,0.2,1.4,0.6,1.8,1.2l0.1,0.1
				c-0.1-0.2-0.3-0.3,0,0l0.5,0.7c0.4,0.7,1,1.6,1.7,2.7c1.4,2.2,3.1,5.1,4.9,7.9s2.1,3.5,3.4,5.6l6.3,3.7l0,0
				c0-0.1-13.3-22.1-14.4-23.2c-2-2.2-4.4-2.2-7.7-3.3"/>
			<path id="path5900" class="st19" d="M88.1,20.4v59.5h17.5V56.8l0,0l0,0l0,0l0,0h0.1c2.2,0,3.9-0.3,5.4,0.1s3,1.5,4.6,4.3
				c4.4,7.7,9.9,18.7,9.9,18.8h20.8c-0.1-0.2-3.3-5.4-6.7-11c-1.7-2.8-3.5-5.7-4.9-8c-0.7-1.1-1.3-2.1-1.8-2.8
				c-0.2-0.3-0.4-0.6-0.6-0.9c-0.2-0.2-0.3-0.4-0.3-0.5c-0.9-1-2.1-1.6-3.4-2c-1.3-0.4-2.7-0.7-4.4-1.2l0,0l0,0l0,0l0,0l0,0l0,0l0,0
				l0,0l0,0l0,0c6.6-1.1,12.5-3.9,14.6-9.9c1.9-5.5,1.7-12.5-2.3-17.2c-3.5-3.7-6.8-5.9-15.6-5.9H88.1V20.4z M105.6,32.3h11.7
				c2.8,0,5.1,2.8,5.1,5.6s-2.2,5.6-5.1,5.6h-11.7l0,0l0,0l0,0l0,0V32.4l0,0l0,0l0,0C105.6,32.4,105.6,32.4,105.6,32.3z"/>
			<path id="path5902" class="st19" d="M88.2,20.5v59.3h17.3v-23l0,0l0,0c0,0,0,0,0-0.1l0,0h0.1h0.1c2.2,0,3.9-0.3,5.5,0.1
				c1.6,0.4,3,1.6,4.7,4.4l0,0c4.4,7.7,9.8,18.5,9.9,18.7h20.6c-0.2-0.3-3.2-5.4-6.6-10.9c-1.7-2.8-3.5-5.7-4.9-7.9
				c-0.7-1.1-1.3-2.1-1.8-2.8c-0.2-0.3-0.4-0.6-0.6-0.9c-0.1-0.1-0.2-0.3-0.4-0.4l0,0c-0.9-1-2-1.6-3.3-2c-1.2-0.4-2.7-0.7-4.4-1.2
				l0,0l0,0l0,0c-0.1-0.1-0.1-0.2,0-0.3l0,0l0,0h0.1c6.6-1.1,12.4-3.9,14.5-9.8c1.8-5.8,1.6-12.8-2.4-17.4
				c-3.5-3.7-6.7-5.9-15.5-5.9H88.2L88.2,20.5z M105.6,32.2h11.7c2.9,0,5.2,2.8,5.2,5.7s-2.3,5.7-5.2,5.7h-11.7h-0.1l0,0
				c0,0,0-0.1,0-0.1V32.4l0,0l0,0c0,0,0,0,0-0.1l0,0L105.6,32.2z"/>
			<path id="path5904" class="st20" d="M91.6,23.9v52.5l1.8-1.6V25.5"/>
			
				<linearGradient id="path5906_1_" gradientUnits="userSpaceOnUse" x1="86.5423" y1="76.4424" x2="89.5923" y2="74.8524" gradientTransform="matrix(7.5 0 0 7.5 -549.5 -498.47)">
				<stop  offset="0" style="stop-color:#2A3245"/>
				<stop  offset="0.53" style="stop-color:#222839"/>
				<stop  offset="0.63" style="stop-color:#515B74"/>
				<stop  offset="0.91" style="stop-color:#7F8EB0"/>
				<stop  offset="1" style="stop-color:#FAFBFC"/>
			</linearGradient>
			<path id="path5906" class="st21" d="M125.7,80l1.9-3.6h-0.1c-1-2-4.9-9.8-8.8-16.7v-0.1c-1.9-3.1-4-5.3-6.6-6s-4.4-0.3-6.3-0.3
				c-2,0.1-3.5,1.6-3.6,3.6v19.7H91.8l-0.2-0.1L88,80h17.6V57c4.4,0,6.6-1.1,9.8,4.4C119.9,69,125.6,80,125.7,80L125.7,80L125.7,80z
				"/>
			<path id="path5908" class="st19" d="M88.3,20.6v59.1h17V56.8c0-0.1,0.1-0.3,0.2-0.3h0.1c2.2,0,3.9-0.3,5.5,0.2
				c1.6,0.4,3.1,1.6,4.8,4.4c4.4,7.6,9.7,18.3,9.9,18.6h20.2c-0.3-0.5-3.2-5.3-6.4-10.6c-1.7-2.8-3.5-5.7-4.9-7.9
				c-0.7-1.1-1.3-2.1-1.8-2.8c-0.2-0.3-0.4-0.7-0.6-0.9c-0.1-0.1-0.2-0.3-0.3-0.4c-0.9-0.9-2-1.6-3.2-2c-1.2-0.4-2.7-0.7-4.4-1.2
				c-0.2,0-0.3-0.2-0.2-0.4c0-0.1,0.1-0.2,0.2-0.2c6.6-1.1,12.3-3.9,14.4-9.8c1.8-5.4,1.6-12.4-2.3-17c-3.5-3.7-6.6-5.8-15.4-5.8
				H88.3z M105.6,32.1h11.7c3,0,5.3,2.9,5.3,5.9s-2.3,5.9-5.3,5.9h-11.6c-0.2,0-0.3-0.2-0.3-0.3V32.4
				C105.4,32.3,105.5,32.2,105.6,32.1L105.6,32.1z"/>
			<path id="path5910" class="st19" d="M88.5,20.7v58.9h16.8V56.8c0-0.2,0.2-0.4,0.4-0.4c0,0,0,0,0,0l0,0c2.2,0,3.8-0.3,5.5,0.2
				s3.2,1.7,4.8,4.5c1.1,1.9,1.1,1.9,0,0c4.4,7.7,9.6,18.2,9.8,18.6h20c-0.4-0.6-3.1-5.2-6.4-10.5c-1.7-2.8-3.5-5.7-4.9-8
				c-0.7-1.1-1.3-2.1-1.8-2.8c-0.2-0.3-0.4-0.7-0.6-0.9c-0.1-0.1-0.2-0.3-0.3-0.4c-0.9-1-2-1.6-3.2-2c-1.2-0.4-2.7-0.7-4.4-1.2
				c-0.2-0.1-0.4-0.3-0.3-0.5c0-0.2,0.2-0.3,0.4-0.3c6.6-1.1,12.3-3.8,14.3-9.6c1.8-5.3,1.6-12.2-2.3-16.8l0,0
				c-3.4-3.7-6.6-5.8-15.3-5.8L88.5,20.7L88.5,20.7z M105.6,32h11.7c3.1,0,5.4,3,5.4,6s-2.4,6-5.4,6h-11.6c-0.2,0-0.4-0.2-0.4-0.4
				c0,0,0,0,0,0l0,0V32.4C105.3,32.2,105.4,32,105.6,32z"/>
			<path id="path5912" class="st19" d="M88.6,20.8v58.6h16.6V56.8c0-0.3,0.2-0.5,0.5-0.5c2.2,0,3.8-0.3,5.5,0.2
				c1.7,0.5,3.2,1.7,4.9,4.5c4.3,7.6,9.5,18,9.8,18.5h19.7c-0.4-0.7-3.1-5.1-6.3-10.4c-1.7-2.8-3.5-5.7-4.9-7.9
				c-0.7-1.1-1.3-2.1-1.8-2.8c-0.2-0.3-0.4-0.7-0.6-0.9l-0.3-0.4l0,0c-0.9-0.9-1.9-1.6-3.2-1.9c-1.2-0.4-2.7-0.7-4.4-1.2
				c-0.3-0.1-0.5-0.4-0.4-0.7c0.1-0.2,0.2-0.4,0.4-0.4c6.5-1.1,12.2-3.8,14.3-9.6c1.8-5.4,1.6-12.2-2.2-16.7
				c-3.4-3.7-6.5-5.8-15.2-5.8L88.6,20.8z M105.6,31.9h11.7c3.1,0,5.5,3,5.5,6.1s-2.4,6-5.5,6h-11.6c-0.3,0-0.6-0.2-0.6-0.5v-11
				C105.2,32.2,105.3,31.9,105.6,31.9L105.6,31.9z"/>
			<path id="path5914" class="st19" d="M88.6,20.9v58.4H105V56.8c0-0.4,0.3-0.7,0.7-0.7c2.2,0,3.8-0.3,5.6,0.1s3.2,1.8,4.9,4.6l0,0
				c4.3,7.6,9.5,17.9,9.8,18.5h19.5c-0.5-0.9-3-5-6.1-10.2c-1.7-2.8-3.5-5.7-4.9-7.9c-0.7-1.1-1.3-2.1-1.8-2.8
				c-0.2-0.3-0.4-0.7-0.6-0.9c-0.1-0.1-0.2-0.2-0.3-0.3l0,0c-0.8-0.9-1.9-1.6-3.1-1.9c-1.2-0.4-2.6-0.7-4.4-1.2
				c-0.3-0.1-0.5-0.5-0.4-0.8c0.1-0.2,0.3-0.4,0.5-0.4c6.6-1.1,12.2-3.8,14.2-9.5c1.8-5.3,1.6-12.1-2.2-16.6l0,0
				C133,23,129.9,21,121.2,21L88.6,20.9z M105.5,31.8h11.8c3.2,0,5.6,3.1,5.6,6.2s-2.4,6.2-5.6,6.2h-11.6c-0.4,0-0.7-0.3-0.7-0.7
				V32.4C105,32.1,105.2,31.8,105.5,31.8z"/>
			<path id="path5916" class="st19" d="M88.8,21v58.2h16.2V56.8c0-0.4,0.3-0.8,0.8-0.8c2.2,0,3.9-0.3,5.6,0.1s3.3,1.8,5,4.6
				c1.1,1.9,1.1,1.9,0,0c4.3,7.5,9.4,17.8,9.8,18.4h19.2c-0.6-1-3-5-6.1-10c-1.7-2.8-3.5-5.7-4.9-8c-0.7-1.1-1.3-2.1-1.8-2.8
				c-0.2-0.3-0.4-0.6-0.6-0.8c-0.1-0.1-0.2-0.2-0.3-0.3l0,0c-0.8-0.9-1.9-1.5-3.1-1.8c-1.2-0.4-2.6-0.7-4.4-1.2
				c-0.4-0.1-0.6-0.6-0.5-1c0.1-0.3,0.3-0.5,0.6-0.5c6.5-1.1,12.1-3.8,14.1-9.4l0,0c1.8-5.3,1.6-12.1-2.2-16.5
				c-3.4-3.7-6.4-5.8-15.1-5.8H88.8z M105.5,31.7h11.8c3.3,0,5.7,3.1,5.7,6.3s-2.4,6.3-5.7,6.3h-11.6c-0.4,0-0.8-0.3-0.8-0.8V32.4
				C104.9,32.1,105.2,31.8,105.5,31.7z"/>
			<path id="path5918" class="st19" d="M88.9,21.1v57.9h15.9V56.8c0-0.5,0.4-0.9,0.9-0.9l0,0c2.1,0,3.9-0.3,5.6,0.2s3.4,1.8,5.1,4.7
				c4.3,7.6,9.4,17.8,9.7,18.4h18.9c-0.7-1.1-2.9-4.9-5.9-9.8c-1.7-2.8-3.5-5.7-4.9-7.9c-0.7-1.1-1.3-2.1-1.8-2.8
				c-0.2-0.3-0.4-0.6-0.6-0.8c-0.1-0.1-0.2-0.2-0.2-0.3l0,0c-0.8-0.9-1.8-1.5-3-1.8c-1.2-0.4-2.6-0.7-4.4-1.2
				c-0.5-0.2-0.7-0.7-0.5-1.2c0.1-0.3,0.3-0.5,0.6-0.5c6.5-1.1,12-3.8,14-9.4l0,0c1.8-5.3,1.6-12-2.2-16.4c-3.4-3.7-6.3-5.6-15-5.6
				L88.9,21.1z M105.6,31.5h11.7c3.3,0,5.9,3.2,5.9,6.4s-2.6,6.4-5.9,6.4h-11.6c-0.5,0-0.9-0.4-0.9-0.9l0,0V32.4
				C104.8,32,105.2,31.6,105.6,31.5z"/>
			<path id="path5920" class="st19" d="M89,21.3V79h15.7V56.8c0-0.6,0.4-1,1-1l0,0c2.1,0,3.9-0.3,5.7,0.2s3.4,1.9,5.2,4.7
				c1.1,1.9,1.1,1.9,0,0c4.3,7.6,9.4,17.7,9.7,18.3h18.6c-0.7-1.2-2.9-4.8-5.8-9.7c-1.7-2.8-3.5-5.7-4.9-7.9
				c-0.7-1.1-1.3-2.1-1.8-2.8c-0.2-0.3-0.4-0.7-0.6-0.9s-0.3-0.4-0.2-0.3l0,0c-0.8-0.9-1.8-1.5-3-1.8c-1.2-0.4-2.6-0.7-4.4-1.2
				c-0.5-0.2-0.8-0.8-0.6-1.3c0.1-0.3,0.4-0.5,0.7-0.6c6.4-1.1,11.9-3.8,13.9-9.3l0,0c1.8-5.2,1.5-11.9-2.1-16.2l0,0
				c-3.4-3.6-6.2-5.6-14.9-5.6L89,21.3L89,21.3z M105.6,31.4h11.7c3.4,0,6,3.2,6,6.5s-2.6,6.5-6,6.5h-11.6c-0.6,0-1-0.4-1-1l0,0v-11
				C104.7,31.9,105.1,31.5,105.6,31.4z"/>
			<path id="path5922" class="st19" d="M89.1,21.4v57.5h15.5V56.8c0-0.6,0.5-1.1,1.1-1.1l0,0c2.1,0,3.8-0.3,5.7,0.2s3.5,1.9,5.2,4.8
				l0,0c4.3,7.5,9.3,17.6,9.7,18.3h18.4c-0.8-1.3-2.8-4.7-5.8-9.5c-1.7-2.8-3.5-5.7-4.9-7.9c-0.7-1.1-1.3-2.1-1.8-2.8
				c-0.2-0.3-0.4-0.7-0.6-0.9c-0.1-0.1-0.1-0.2-0.2-0.3l0,0c-0.8-0.9-1.8-1.5-2.9-1.8c-1.2-0.4-2.6-0.7-4.4-1.2
				c-0.6-0.2-0.9-0.8-0.7-1.4c0.1-0.4,0.5-0.7,0.9-0.7c6.4-1.1,11.8-3.7,13.8-9.2l0,0c1.7-5.3,1.5-11.9-2.1-16.2l0,0
				c-3.4-3.6-6.2-5.6-14.8-5.6L89.1,21.4z M105.5,31.4h11.8c3.5,0,6.1,3.3,6.1,6.6s-2.6,6.6-6.1,6.6h-11.6c-0.6,0-1.1-0.5-1.1-1.1
				c0,0,0,0,0,0V32.4C104.6,31.9,105,31.4,105.5,31.4L105.5,31.4z"/>
			<path id="path5924" class="st19" d="M89.2,21.5v57.3h15.3v-22c0-0.7,0.5-1.2,1.2-1.2c2.1,0,3.8-0.3,5.7,0.2
				c1.9,0.5,3.6,1.9,5.3,4.8l0,0c4.3,7.5,9.2,17.5,9.6,18.2h18.2c-0.8-1.4-2.8-4.6-5.7-9.4c-1.7-2.8-3.5-5.7-4.9-7.9
				c-0.7-1.1-1.3-2.1-1.8-2.8c-0.2-0.3-0.4-0.6-0.6-0.8s-0.3-0.3-0.2-0.3l0,0c-0.8-0.8-1.8-1.5-2.9-1.8c-1.2-0.4-2.6-0.7-4.4-1.2
				c-0.6-0.2-1-0.9-0.8-1.6c0.1-0.4,0.5-0.7,0.9-0.8c6.4-1.1,11.8-3.7,13.8-9.1l0,0c1.8-5.2,1.5-11.8-2.1-16l0,0
				c-3.4-3.6-6.1-5.5-14.7-5.5h-32L89.2,21.5z M105.5,31.2h11.8c3.6,0,6.2,3.3,6.2,6.7s-2.6,6.7-6.2,6.7h-11.6
				c-0.7,0-1.2-0.5-1.2-1.2v-11C104.5,31.8,104.9,31.3,105.5,31.2z"/>
			<path id="path5926" class="st19" d="M89.3,21.6v57.1h15.1V56.8c0-0.7,0.6-1.3,1.3-1.3c2.1,0,3.8-0.3,5.7,0.2
				c1.9,0.5,3.6,2,5.4,4.9c1.2,1.9,1.2,1.9,0,0c4.3,7.5,9.2,17.4,9.6,18.1h17.9c-0.9-1.5-2.7-4.6-5.6-9.2c-1.7-2.8-3.5-5.7-4.9-7.9
				c-0.7-1.1-1.3-2.1-1.8-2.8c-0.2-0.3-0.4-0.6-0.6-0.8s-0.3-0.4-0.2-0.3l0,0c-0.8-0.8-1.7-1.4-2.8-1.7c-1.2-0.4-2.6-0.7-4.4-1.2
				c-0.7-0.2-1.1-1-0.8-1.7c0.2-0.4,0.5-0.8,1-0.9c6.4-1.1,11.7-3.7,13.7-9.1l0,0c1.7-5.2,1.5-11.7-2.1-15.9l0,0
				c-3.4-3.6-6.1-5.5-14.7-5.5L89.3,21.6z M105.5,31.1h11.9c3.6,0,6.3,3.4,6.3,6.9s-2.6,6.8-6.3,6.8h-11.6c-0.7,0-1.3-0.6-1.3-1.3
				V32.4C104.4,31.8,104.8,31.2,105.5,31.1z"/>
			<path id="path5928" class="st19" d="M89.5,21.7v56.8h14.8V56.8c0-0.8,0.6-1.4,1.4-1.5l0,0c2.1,0,3.8-0.3,5.8,0.2s3.7,2,5.4,4.9
				c4.3,7.5,9.1,17.2,9.6,18.1H144c-0.9-1.6-2.7-4.4-5.5-9c-1.7-2.8-3.5-5.7-4.9-7.9c-0.7-1.1-1.3-2.1-1.8-2.8
				c-0.2-0.3-0.4-0.6-0.6-0.8s-0.3-0.4-0.2-0.3h-0.1c-0.7-0.8-1.7-1.4-2.8-1.7c-1.1-0.4-2.6-0.7-4.4-1.3c-0.8-0.2-1.2-1.1-0.9-1.8
				c0.2-0.5,0.6-0.9,1.2-1c6.4-1,11.7-3.6,13.6-9l0,0c1.8-5.1,1.5-11.7-2.1-15.9c-3.3-3.6-6-5.4-14.6-5.4H89.5z M105.7,31h11.6
				c3.7,0,6.4,3.5,6.4,7s-2.7,7-6.4,7h-11.6c-0.8,0-1.4-0.6-1.5-1.4l0,0V32.4C104.3,31.7,104.9,31,105.7,31L105.7,31z"/>
			<path id="path5930" class="st19" d="M89.6,21.8v56.6h14.6V56.8c0-0.9,0.7-1.6,1.5-1.6c0,0,0,0,0,0l0,0c2.1,0,3.8-0.3,5.8,0.2
				s3.7,2,5.5,5l0,0c4.3,7.5,9.1,17.1,9.5,18h17.4c-1-1.7-2.6-4.4-5.4-8.8c-1.7-2.8-3.5-5.7-4.9-7.9c-0.7-1.1-1.3-2-1.8-2.7
				c-0.2-0.3-0.4-0.6-0.6-0.8s-0.3-0.4-0.2-0.2v-0.1c-0.7-0.8-1.7-1.4-2.7-1.6c-1.1-0.4-2.6-0.7-4.4-1.2c-0.8-0.3-1.3-1.1-1-2
				c0.2-0.5,0.7-0.9,1.2-1c6.3-1,11.6-3.6,13.5-8.9l0,0c1.7-5.1,1.5-11.5-2-15.7c-3.4-3.6-5.9-5.5-14.5-5.5L89.6,21.8z M105.6,30.9
				h11.8c3.8,0,6.5,3.5,6.5,7.1s-2.7,7-6.5,7h-11.6c-0.9,0-1.6-0.7-1.6-1.5c0,0,0,0,0,0l0,0v-11C104.1,31.6,104.8,30.9,105.6,30.9
				L105.6,30.9z"/>
			<path id="path5932" class="st19" d="M89.6,21.9v56.4H104V56.8c0-0.9,0.7-1.7,1.7-1.7c2.1,0,3.8-0.3,5.8,0.2c2,0.5,3.8,2.1,5.5,5
				l0,0c4.2,7.4,9,17,9.5,18h17.1c-1-1.7-2.6-4.3-5.3-8.7c-1.7-2.8-3.5-5.7-4.9-7.9c-0.7-1.1-1.3-2.1-1.8-2.8
				c-0.2-0.3-0.4-0.6-0.6-0.8s-0.3-0.4-0.2-0.2l0,0c-0.7-0.8-1.7-1.4-2.7-1.6c-1.1-0.4-2.6-0.7-4.4-1.2c-0.9-0.3-1.4-1.2-1.1-2.1
				c0.2-0.6,0.7-1,1.3-1.1c6.3-1,11.5-3.6,13.4-8.8l0,0c1.7-5.1,1.5-11.5-2-15.6c-3.4-3.6-5.9-5.4-14.4-5.4L89.6,21.9z M105.6,30.8
				h11.7c3.9,0,6.6,3.5,6.6,7.2s-2.8,7.2-6.6,7.2h-11.6c-0.9,0-1.7-0.7-1.7-1.7V32.4C104,31.5,104.7,30.8,105.6,30.8z"/>
			<path id="path5934" class="st19" d="M89.8,22v56.2h14.2V56.8c0-1,0.8-1.8,1.8-1.8c2.1,0,3.8-0.3,5.8,0.2c2,0.6,3.9,2.1,5.6,5.1
				c1.2,2,1.2,2,0,0c4.2,7.4,9,16.9,9.5,17.9h16.8c-1.1-1.8-2.5-4.2-5.1-8.5c-1.7-2.8-3.5-5.7-4.9-7.9c-0.7-1.1-1.3-2.1-1.8-2.8
				c-0.2-0.3-0.4-0.6-0.6-0.8s-0.3-0.3-0.1-0.2h-0.1c-0.7-0.8-1.6-1.3-2.6-1.6c-1.1-0.4-2.6-0.7-4.4-1.2c-0.9-0.3-1.5-1.2-1.2-2.2
				c0.2-0.7,0.8-1.2,1.5-1.3c6.3-1,11.4-3.5,13.3-8.8l0,0c1.7-5.1,1.4-11.5-2-15.6c-3.4-3.6-5.9-5.4-14.3-5.4H89.8z M105.6,30.6
				h11.8c3.9,0,6.7,3.6,6.7,7.3s-2.8,7.3-6.7,7.3h-11.6c-1,0-1.8-0.8-1.8-1.8v-11C103.9,31.5,104.6,30.7,105.6,30.6L105.6,30.6z"/>
			<path id="path5936" class="st19" d="M89.9,22.1v56h14V56.8c0-1,0.8-1.9,1.9-1.9c2.1,0,3.8-0.3,5.9,0.2c2.1,0.6,3.9,2.2,5.7,5.1
				c1.2,2,1.2,2,0,0c4.2,7.4,8.9,16.8,9.5,17.9h16.5c-1.1-1.8-2.5-4.1-5-8.4c-1.7-2.8-3.5-5.7-4.9-7.9c-0.7-1.1-1.3-2-1.7-2.7
				c-0.2-0.3-0.4-0.6-0.6-0.8s-0.3-0.4-0.1-0.2h-0.1c-0.7-0.8-1.6-1.3-2.6-1.6c-1.1-0.4-2.6-0.7-4.4-1.2c-1-0.3-1.6-1.4-1.3-2.3
				c0.2-0.7,0.8-1.2,1.5-1.3c6.3-1.1,11.4-3.6,13.2-8.7l0,0c1.7-5,1.5-11.3-1.9-15.4c-3.3-3.6-5.7-5.4-14.3-5.4L89.9,22.1z
				 M105.4,30.6h11.9c4,0,6.8,3.6,6.8,7.4s-2.8,7.4-6.8,7.4h-11.6c-1,0-1.9-0.8-1.9-1.9V32.4C103.8,31.5,104.5,30.7,105.4,30.6
				L105.4,30.6z"/>
			<path id="path5938" class="st19" d="M90,22.3V78h13.7V56.8c0-1.1,0.9-2,2-2l0,0c2,0,3.8-0.4,5.9,0.2c2.1,0.6,3.9,2.2,5.7,5.2l0,0
				c4.3,7.4,8.9,16.7,9.5,17.8h16.3c-1.1-1.9-2.4-4-4.9-8.2c-1.7-2.8-3.5-5.7-4.9-7.9c-0.7-1.1-1.3-2-1.8-2.7
				c-0.2-0.3-0.4-0.6-0.6-0.8c0.7,0.9,0.5,2.1-0.4,2.8c-0.9,0.7-2.1,0.5-2.8-0.4c-0.7-0.9-0.5-2.1,0.4-2.8c0.8-0.6,2-0.5,2.7,0.3
				v-0.1c-0.7-0.7-1.6-1.3-2.6-1.5c-1.1-0.4-2.6-0.7-4.4-1.2c-1-0.4-1.6-1.5-1.3-2.5c0.2-0.7,0.8-1.2,1.6-1.3
				c6.3-1,11.3-3.5,13.1-8.6l0,0c1.7-5,1.4-11.4-2-15.4c-3.3-3.5-5.7-5.2-14.2-5.2H90z M105.7,30.4h11.6c4.1,0,7,3.7,7,7.5
				s-2.9,7.5-7,7.5h-11.6c-1.1,0-2-0.9-2-2l0,0V32.4C103.7,31.3,104.6,30.4,105.7,30.4L105.7,30.4z"/>
			<path id="path5940" class="st19" d="M90.1,22.4v55.5h13.5V56.8c0-1.2,0.9-2.1,2.1-2.1c0,0,0,0,0,0l0,0c2,0,3.8-0.4,5.9,0.2
				s4,2.3,5.8,5.3l0,0c4.2,7.3,8.8,16.5,9.4,17.7h16c-1.1-1.9-2.3-3.9-4.8-8c-1.7-2.8-3.5-5.7-4.9-7.9c-0.7-1.1-1.3-2-1.8-2.7
				c-0.2-0.3-0.4-0.6-0.6-0.8s-0.3-0.3-0.1-0.2l-0.1-0.1c-0.7-0.7-1.5-1.2-2.5-1.5c-1.1-0.4-2.5-0.6-4.4-1.2
				c-1.1-0.3-1.7-1.5-1.4-2.6c0.2-0.8,0.9-1.3,1.7-1.4c6.3-1,11.3-3.5,13.1-8.6l0,0c1.6-4.9,1.4-11.2-1.9-15.2l0,0
				c-3.3-3.5-5.6-5.3-14.1-5.3L90.1,22.4L90.1,22.4z M105.6,30.4h11.8c4.2,0,7.1,3.8,7.1,7.6s-2.9,7.6-7.1,7.6h-11.6
				c-1.2,0-2.1-1-2.1-2.1c0,0,0,0,0,0l0,0V32.4C103.6,31.3,104.5,30.4,105.6,30.4L105.6,30.4z"/>
			<path id="path5942" class="st19" d="M90.2,22.5v55.3h13.3v-21c0-1.2,1-2.2,2.2-2.2c2,0,3.8-0.4,6,0.2s4.1,2.3,5.9,5.3l0,0
				c4.2,7.3,8.7,16.4,9.4,17.7h15.7c-1.2-2-2.3-3.9-4.7-7.8c-1.7-2.8-3.5-5.7-4.9-7.9c-0.7-1.1-1.3-2.1-1.7-2.8
				c-0.2-0.3-0.4-0.6-0.6-0.8s-0.3-0.4-0.1-0.2l-0.1-0.1c-0.7-0.7-1.5-1.2-2.4-1.5c-1.1-0.3-2.5-0.6-4.4-1.2
				c-1.2-0.4-1.8-1.6-1.4-2.8c0.3-0.8,0.9-1.4,1.8-1.5c6.2-1,11.2-3.5,13-8.5s1.4-11.2-1.9-15.1c-3.3-3.5-5.6-5.2-14-5.2L90.2,22.5z
				 M105.5,30.2h11.8c4.2,0,7.2,3.8,7.2,7.7s-3,7.7-7.2,7.7h-11.6c-1.2,0-2.2-1-2.2-2.2v-11C103.5,31.3,104.4,30.3,105.5,30.2z"/>
			<path id="path5944" class="st19" d="M90.3,22.6v55.1h13.1V56.8c0-1.3,1-2.3,2.3-2.3c2,0,3.8-0.4,6,0.2s4.2,2.3,5.9,5.3
				c1.2,2,1.2,2,0,0.1c4.2,7.3,8.7,16.3,9.3,17.6h15.5c-1.2-2-2.3-3.8-4.6-7.7c-1.7-2.8-3.5-5.7-4.9-7.9c-0.7-1.1-1.3-2-1.8-2.7
				c-0.2-0.3-0.4-0.6-0.6-0.8s-0.3-0.3-0.1-0.1v-0.1c-0.7-0.7-1.5-1.2-2.4-1.5c-1.1-0.3-2.5-0.6-4.4-1.2c-1.2-0.4-1.9-1.7-1.5-2.9
				c0.3-0.8,1-1.4,1.8-1.6c6.2-1,11.1-3.5,12.9-8.4c1.8-4.9,1.4-11.1-1.9-15c-3.3-3.5-5.5-5.1-13.9-5.1L90.3,22.6L90.3,22.6z
				 M105.5,30.1h11.8c4.3,0,7.3,3.8,7.3,7.9s-3,7.8-7.3,7.8h-11.6c-1.3,0-2.3-1-2.3-2.3V32.4C103.4,31.2,104.3,30.2,105.5,30.1z"/>
			<path id="path5946" class="st19" d="M90.4,22.7v54.9h12.9V56.8c0-1.3,1.1-2.4,2.4-2.4c2,0,3.8-0.4,6.1,0.2s4.2,2.4,6,5.4l0,0
				c4.2,7.3,8.6,16.2,9.3,17.6h15.3c-1.2-2-2.2-3.7-4.6-7.5c-1.7-2.8-3.5-5.7-4.9-7.9c-0.7-1.1-1.3-2-1.8-2.7
				c-0.2-0.3-0.4-0.6-0.5-0.8c-0.1-0.2-0.3-0.4-0.1-0.1l-0.1-0.1c-0.6-0.7-1.5-1.2-2.4-1.4c-1.1-0.3-2.5-0.6-4.4-1.2
				c-1.3-0.4-2-1.8-1.5-3.1c0.3-0.8,1-1.5,1.9-1.6c6.2-1,11-3.5,12.8-8.4c1.8-4.9,1.4-11.1-1.9-14.9c-3.2-3.5-5.4-5.1-13.8-5.1
				L90.4,22.7z M105.5,30h11.8c4.4,0,7.4,3.9,7.4,8s-3,8-7.4,8h-11.6c-1.3,0-2.4-1.1-2.4-2.4V32.4C103.3,31.2,104.3,30.1,105.5,30z"
				/>
			<path id="path5948" class="st19" d="M90.6,22.8v54.6h12.6V56.8c0-1.4,1.1-2.5,2.5-2.6l0,0c2,0,3.8-0.4,6.1,0.2
				c2.2,0.6,4.3,2.4,6.1,5.4l0,0c4.2,7.3,8.5,16.1,9.3,17.5h15c-1.2-2.1-2.2-3.6-4.4-7.3c-1.7-2.8-3.5-5.7-4.9-7.9
				c-0.7-1.1-1.3-2-1.7-2.7c-0.2-0.3-0.4-0.7-0.6-0.8s-0.3-0.3-0.1-0.1l-0.1-0.1c-0.6-0.7-1.4-1.2-2.3-1.4c-1-0.3-2.5-0.6-4.4-1.2
				c-1.3-0.4-2.1-1.8-1.7-3.2c0.3-0.9,1.1-1.6,2.1-1.8c6.2-1,10.9-3.4,12.7-8.3c1.8-4.8,1.4-11-1.9-14.8c-3.2-3.5-5.4-5-13.7-5
				L90.6,22.8z M105.7,29.9h11.6c4.5,0,7.5,4,7.5,8.1s-3.1,8-7.5,8h-11.6c-1.4,0-2.5-1.1-2.6-2.5c0,0,0,0,0,0l0,0v-11
				C103.1,31,104.2,29.9,105.7,29.9L105.7,29.9z"/>
			<path id="path5950" class="st19" d="M90.6,22.9v54.4H103V56.8c0-1.5,1.2-2.7,2.7-2.7l0,0c2,0,3.8-0.4,6.1,0.2s4.3,2.4,6.2,5.5
				v0.1c4.1,7.2,8.5,15.9,9.2,17.5h14.7c-1.3-2.1-2.1-3.5-4.3-7.2c-1.7-2.8-3.5-5.7-4.9-7.9c-0.7-1.1-1.3-2-1.7-2.7
				c-0.2-0.3-0.4-0.6-0.6-0.8s-0.3-0.3,0-0.1l-0.1-0.1c-0.6-0.7-1.4-1.1-2.3-1.3c-1-0.3-2.5-0.6-4.4-1.2c-1.4-0.5-2.2-2-1.7-3.4
				c0.3-0.9,1.1-1.6,2.1-1.8c6.2-1,10.9-3.4,12.6-8.2s1.4-10.9-1.8-14.7c-3.2-3.5-5.3-5-13.7-5L90.6,22.9z M105.5,29.8h11.8
				c4.5,0,7.6,4,7.6,8.2s-3.1,8.2-7.6,8.2h-11.6c-1.5,0-2.7-1.2-2.7-2.7l0,0V32.4C103,31,104.1,29.9,105.5,29.8z"/>
			<path id="path5952" class="st19" d="M90.8,23v54.2h12.2V56.8c0-1.5,1.2-2.8,2.8-2.8l0,0c2,0,3.8-0.4,6.1,0.2s4.4,2.5,6.2,5.5
				c1.2,2,1.2,2,0,0c4.1,7.2,8.5,15.9,9.3,17.5h14.4c-1.3-2.1-2.1-3.4-4.2-7c-1.7-2.8-3.5-5.7-4.9-7.9c-0.7-1.1-1.3-2-1.8-2.7
				c-0.2-0.3-0.4-0.6-0.5-0.8c-0.1-0.2-0.3-0.3-0.1-0.1l-0.1-0.1c-0.6-0.6-1.4-1.1-2.2-1.3c-1-0.3-2.5-0.6-4.4-1.2
				c-1.5-0.5-2.2-2-1.8-3.5c0.3-1,1.2-1.7,2.2-1.9c6.1-1,10.8-3.4,12.5-8.1c1.7-4.7,1.4-10.9-1.8-14.6c-3.2-3.4-5.3-5-13.5-5H90.8z
				 M105.5,29.6h11.8c4.6,0,7.7,4,7.7,8.3s-3.1,8.3-7.7,8.3h-11.6c-1.5,0-2.8-1.2-2.8-2.8l0,0v-11C102.9,31,104,29.8,105.5,29.6
				L105.5,29.6z"/>
			<path id="path5954" class="st19" d="M90.9,23.1v54h12V56.8c0-1.6,1.3-2.9,2.9-2.9c2,0,3.8-0.4,6.2,0.2s4.4,2.5,6.3,5.6v0.1
				c4.1,7.2,8.4,15.7,9.2,17.4h14.2c-1.3-2.1-2-3.4-4.1-6.8c-1.8-2.8-3.5-5.7-4.9-7.9c-0.7-1.1-1.3-2-1.7-2.7
				c-0.2-0.3-0.4-0.6-0.6-0.8c-0.1-0.2-0.3-0.3,0-0.1l-0.1-0.1c-0.6-0.6-1.3-1.1-2.2-1.3c-1-0.3-2.5-0.6-4.4-1.2
				c-1.5-0.5-2.3-2.1-1.8-3.6c0.3-1,1.2-1.7,2.2-1.9c6.1-1,10.7-3.4,12.4-8.1s1.3-10.7-1.7-14.4l0,0c-3.2-3.5-5.2-5-13.5-5
				L90.9,23.1L90.9,23.1z M105.5,29.6h11.8c4.7,0,7.8,4.1,7.8,8.4s-3.2,8.4-7.8,8.4h-11.6c-1.6,0-2.9-1.3-2.9-2.9v-11
				C102.8,30.9,104,29.7,105.5,29.6L105.5,29.6z"/>
			<path id="path5956" class="st19" d="M91,23.2V77h11.8V56.8c0-1.7,1.3-3,3-3c2,0,3.8-0.4,6.2,0.2c2.4,0.7,4.5,2.5,6.3,5.6l0,0
				c4.1,7.3,8.4,15.7,9.2,17.3h13.9c-1.3-2.1-2-3.3-4-6.7c-1.7-2.8-3.5-5.7-4.9-7.9c-0.7-1.1-1.3-2-1.7-2.7
				c-0.2-0.3-0.4-0.6-0.6-0.8c-0.1-0.2-0.3-0.3,0-0.1l-0.1-0.1c-0.6-0.6-1.3-1.1-2.1-1.3c-1-0.3-2.5-0.6-4.4-1.2
				c-1.6-0.6-2.4-2.3-1.8-3.8c0.4-1,1.2-1.7,2.3-1.9c6.1-1,10.7-3.3,12.3-8s1.3-10.7-1.8-14.4c-3.2-3.4-5.1-4.9-13.4-4.9L91,23.2z
				 M105.5,29.4h11.8c4.8,0,8,4.1,8,8.5s-3.2,8.5-8,8.5h-11.6c-1.7,0-3-1.3-3-3v-11C102.7,30.9,103.9,29.6,105.5,29.4z"/>
			<path id="path5958" class="st19" d="M91.1,23.4v53.5h11.5V56.8c0-1.7,1.3-3.1,3-3.1l0,0c2,0,3.8-0.4,6.2,0.3s4.5,2.6,6.4,5.7v0.1
				c4.1,7.2,8.3,15.5,9.1,17.2h13.7c-1.3-2.1-1.9-3.2-3.9-6.5c-1.7-2.8-3.4-5.7-4.8-7.9c-0.7-1.1-1.3-2-1.7-2.7
				c-0.2-0.3-0.4-0.6-0.5-0.8c-0.1-0.2-0.3-0.4,0-0.1l-0.1-0.1c-0.5-0.6-1.3-1-2.1-1.2c-1-0.3-2.5-0.6-4.4-1.2
				c-1.6-0.5-2.5-2.3-2-3.9c0.4-1.1,1.3-1.9,2.4-2.1c6.1-1,10.6-3.3,12.3-7.9c1.7-4.6,1.3-10.7-1.8-14.3c-3.2-3.4-5.1-4.8-13.3-4.8
				L91.1,23.4z M105.7,29.3h11.6c4.8,0,8.1,4.2,8.1,8.6s-3.3,8.6-8.1,8.6h-11.6c-1.7,0-3.1-1.4-3.1-3.1l0,0V32.4
				C102.6,30.7,104,29.4,105.7,29.3L105.7,29.3z"/>
			<path id="path5960" class="st19" d="M91.3,23.6v53.1h11.1V56.8c0-1.8,1.5-3.3,3.3-3.3c1.9,0,3.8-0.4,6.3,0.2s4.7,2.7,6.5,5.8l0,0
				c4.1,7.2,8.2,15.4,9.1,17.2h13.1c-1.3-2.1-1.8-3-3.7-6.2c-1.7-2.8-3.5-5.7-4.9-7.9c-0.7-1.1-1.3-2.1-1.7-2.7
				c-0.2-0.3-0.4-0.6-0.5-0.8l-0.1-0.1c-0.5-0.6-1.2-1-2-1.2c-1-0.3-2.5-0.6-4.4-1.2c-1.7-0.6-2.7-2.4-2.1-4.2
				c0.4-1.2,1.4-2,2.6-2.2c6-1,10.5-3.3,12.1-7.7c1.6-4.5,1.3-10.4-1.6-14l-0.1-0.1c-3.2-3.4-4.9-4.8-13.2-4.8H91.3z M105.5,29.1
				h11.9c5,0,8.3,4.3,8.3,8.9s-3.3,8.9-8.3,8.9h-11.6c-1.8,0-3.3-1.5-3.3-3.3V32.4C102.4,30.7,103.7,29.2,105.5,29.1L105.5,29.1z"/>
			<path id="path5962" class="st19" d="M91.4,23.7v52.9h10.9V56.8c0-1.9,1.5-3.4,3.4-3.4c1.9,0,3.8-0.4,6.3,0.2s4.7,2.7,6.6,5.8v0.1
				c4.1,7.1,8.1,15.2,9.1,17.1h12.9c-1.3-2.1-1.8-3-3.6-6c-1.7-2.8-3.5-5.7-4.9-7.9c-0.7-1.1-1.3-2-1.7-2.7
				c-0.2-0.3-0.4-0.6-0.5-0.8l-0.1-0.1c-0.5-0.6-1.2-1-1.9-1.1c-1-0.3-2.5-0.6-4.4-1.2c-1.8-0.6-2.8-2.5-2.2-4.3
				c0.4-1.2,1.4-2.1,2.7-2.3c6-1,10.4-3.2,12-7.7s1.3-10.4-1.6-13.8l-0.1-0.1c-3.2-3.4-4.9-4.8-13.1-4.8L91.4,23.7L91.4,23.7z
				 M105.4,29h11.9c5.1,0,8.4,4.3,8.4,9s-3.3,9-8.4,9h-11.6c-1.9,0-3.4-1.5-3.4-3.4V32.4C102.3,30.6,103.7,29.1,105.4,29L105.4,29z"
				/>
			<path id="path5964" class="st19" d="M91.5,23.8v52.7h10.7V56.8c0-1.9,1.6-3.5,3.5-3.5c1.9,0,3.8-0.5,6.3,0.2s4.8,2.7,6.7,5.9v0.1
				c4.1,7.1,8.1,15.1,9,17h12.7c-1.3-2.1-1.7-2.9-3.5-5.8c-1.8-2.9-3.5-5.6-4.9-7.8c-0.7-1.1-1.3-2.1-1.7-2.7
				c-0.2-0.3-0.4-0.6-0.6-0.8c-0.1-0.2-0.3-0.3,0.1,0l-0.1-0.1c-0.5-0.6-1.2-1-1.9-1.2c-1-0.3-2.5-0.6-4.4-1.2
				c-1.8-0.7-2.7-2.8-2-4.6c0.4-1.1,1.4-1.9,2.5-2.2c6-1,10.3-3.2,11.9-7.6c1.6-4.6,1.2-10.4-1.7-13.8c-3.1-3.3-4.8-4.7-13-4.7
				L91.5,23.8z M105.5,28.9h11.9c5.1,0,8.5,4.4,8.5,9.1s-3.4,9-8.5,9h-11.6c-1.9,0-3.5-1.6-3.5-3.5v-11
				C102.2,30.6,103.6,29,105.5,28.9z"/>
			<path id="path5966" class="st22" d="M91.6,23.9v52.4H102V56.8c0-2,1.6-3.6,3.6-3.7l0,0c1.9,0,3.8-0.4,6.4,0.3s4.8,2.8,6.7,6v0.1
				c4,7.1,8,15,9,16.9h12.4c-1.3-2.1-1.7-2.8-3.4-5.6c-1.7-2.9-3.5-5.7-4.9-7.9c-0.7-1.1-1.3-2.1-1.7-2.7l-0.5-0.7
				c-0.4-0.4-0.1-0.2,0,0l-0.1-0.1c-0.5-0.6-1.1-0.9-1.8-1.1c-1-0.3-2.4-0.6-4.4-1.2c-1.9-0.7-2.9-2.7-2.3-4.6
				c0.4-1.3,1.5-2.2,2.8-2.4c6-1,10.2-3.2,11.8-7.5v-0.1c1.5-4.5,1.2-10.3-1.7-13.7c-3.1-3.3-4.8-4.7-12.9-4.7L91.6,23.9z
				 M105.6,28.8h11.7c5.2,0,8.6,4.5,8.6,9.2s-3.4,9.2-8.6,9.2h-11.6c-2,0-3.7-1.6-3.7-3.6c0,0,0,0,0,0l0,0V32.4
				C102,30.4,103.6,28.8,105.6,28.8z"/>
			<path id="path5968" class="st23" d="M91.8,24v52.2h10.2V56.8c0-2.1,1.7-3.8,3.7-3.8c0,0,0,0,0,0l0,0c1.9,0,3.8-0.4,6.4,0.3
				s4.9,2.8,6.8,6v0.1c4,7,7.9,14.9,9,16.9H140c-1.2-2.1-1.6-2.7-3.3-5.5s-3.5-5.7-4.9-7.9c-0.7-1.1-1.3-2-1.7-2.7
				c-0.2-0.3-0.4-0.6-0.5-0.8v-0.1c-0.5-0.5-1.1-0.9-1.8-1.1c-0.9-0.3-2.4-0.6-4.4-1.2c-2-0.7-3-2.8-2.3-4.8
				c0.4-1.3,1.6-2.2,2.9-2.5c5.9-1,10.2-3.2,11.8-7.5v-0.1c1.5-4.5,1.2-10.2-1.7-13.5c-3.1-3.3-4.7-4.7-12.8-4.7H91.8z M105.4,28.6
				h11.9c5.3,0,8.8,4.5,8.8,9.3s-3.5,9.3-8.8,9.3h-11.6c-2.1,0-3.8-1.7-3.8-3.7l0,0V32.4C101.9,30.5,103.5,28.8,105.4,28.6
				L105.4,28.6z"/>
			<path id="path5970" class="st23" d="M91.9,24.1v52h10V56.8c0-2.1,1.7-3.9,3.9-3.9c1.9,0,3.8-0.4,6.4,0.3s5,2.8,6.9,6v0.1
				c4,7,7.9,14.8,8.9,16.9h11.8c-1.2-2-1.6-2.6-3.2-5.3s-3.5-5.7-4.8-7.9c-0.7-1.1-1.3-2-1.7-2.7c-0.2-0.3-0.4-0.6-0.5-0.8v-0.1
				c-0.5-0.5-1.1-0.9-1.8-1c-0.9-0.3-2.4-0.6-4.4-1.2c-2-0.7-3.1-2.9-2.4-4.9c0.5-1.3,1.6-2.3,3-2.5c5.9-1,10.1-3.2,11.6-7.4v-0.1
				c1.5-4.5,1.2-10.2-1.7-13.5c-3.1-3.3-4.6-4.6-12.7-4.6L91.9,24.1L91.9,24.1z M105.4,28.6h11.9c5.3,0,8.8,4.6,8.8,9.4
				s-3.5,9.4-8.8,9.4h-11.6c-2.1,0-3.9-1.7-3.9-3.9V32.4C101.8,30.4,103.4,28.7,105.4,28.6L105.4,28.6z"/>
			<path id="path5972" class="st23" d="M92,24.2V76h9.8V56.8c0-2.2,1.8-4,4-4c1.9,0,3.8-0.5,6.4,0.3s5,2.9,6.9,6.1v0.1
				c4,7,7.9,14.7,8.9,16.8h11.6c-1.2-2-1.5-2.5-3.1-5.2c-1.8-2.9-3.5-5.7-4.9-7.9c-0.7-1.1-1.3-2.1-1.7-2.7
				c-0.2-0.3-0.4-0.6-0.5-0.8l0,0c-0.4-0.5-1-0.9-1.7-1c-0.9-0.3-2.4-0.6-4.4-1.2c-2.1-0.7-3.2-3-2.5-5.1c0.5-1.4,1.6-2.4,3-2.6
				c5.9-1,10-3.1,11.6-7.3v-0.1c1.5-4.5,1.1-10.1-1.7-13.4c-3.1-3.3-4.6-4.6-12.6-4.6L92,24.2L92,24.2z M105.4,28.4h11.9
				c5.4,0,9,4.6,9,9.5s-3.5,9.5-9,9.5h-11.6c-2.2,0-4-1.8-4-4v-11C101.7,30.3,103.3,28.6,105.4,28.4z"/>
			<path id="path5974" class="st23" d="M92.1,24.3v51.6h9.6V56.8c0-2.3,1.8-4.1,4.1-4.1c1.9,0,3.8-0.5,6.5,0.3
				c2.7,0.7,5.1,2.9,7,6.1v0.1c4,7,7.8,14.6,8.9,16.8h11.3c-1.2-2-1.5-2.5-3-5c-1.8-2.8-3.5-5.7-4.9-7.9c-0.7-1.1-1.3-2-1.7-2.7
				c-0.2-0.3-0.4-0.6-0.5-0.8c-0.1-0.2,0,0,0,0c-0.4-0.5-1-0.8-1.6-0.9c-0.9-0.3-2.4-0.6-4.4-1.3c-2.1-0.7-3.3-3-2.6-5.2
				c0.5-1.4,1.7-2.5,3.2-2.8c5.9-1,10-3.1,11.5-7.2v-0.1c1.5-4.4,1.1-10-1.6-13.2c-3.1-3.3-4.5-4.5-12.6-4.5L92.1,24.3z M105.4,28.3
				h11.9c5.5,0,9.1,4.6,9.1,9.6s-3.6,9.6-9.1,9.6h-11.6c-2.2,0-4.1-1.8-4.1-4.1V32.4C101.6,30.3,103.3,28.5,105.4,28.3L105.4,28.3z"
				/>
			<path id="path5976" class="st23" d="M92.2,24.5v51.3h9.3v-19c0-2.3,1.8-4.2,4.1-4.2l0,0c1.9,0,3.8-0.4,6.5,0.3
				c2.7,0.7,5.1,2.9,7.1,6.2l0.1,0.1c4,7,7.7,14.4,8.8,16.7h11c-1.2-2-1.4-2.4-2.9-4.8c-1.7-2.8-3.5-5.7-4.8-7.9
				c-0.7-1.1-1.3-2-1.7-2.7c-0.2-0.3-0.4-0.6-0.5-0.8c-0.1-0.2,0,0,0,0c-0.4-0.5-1-0.8-1.6-0.9c-0.9-0.3-2.4-0.6-4.4-1.3
				c-2.2-0.7-3.4-3.1-2.7-5.3c0.5-1.5,1.8-2.6,3.3-2.8c5.9-1,9.9-3.1,11.4-7.2c1.5-4.3,1.2-9.8-1.4-13c0,0-0.1-0.1-0.1-0.1
				c-3.1-3.3-4.4-4.5-12.5-4.5L92.2,24.5z M105.7,28.2h11.6c5.6,0,9.2,4.7,9.2,9.7s-3.6,9.8-9.2,9.8h-11.6c-2.3,0-4.2-1.9-4.2-4.2
				c0,0,0,0,0,0l0,0V32.4C101.5,30.1,103.3,28.2,105.7,28.2L105.7,28.2z"/>
			<path id="path5978" class="st23" d="M92.3,24.6v51.1h9.1V56.8c0-2.4,1.9-4.3,4.3-4.3l0,0c1.8,0,3.8-0.4,6.5,0.3s5.2,3,7.1,6.2
				v0.1c4,6.9,7.7,14.4,8.8,16.6H139c-1.2-1.9-1.3-2.3-2.8-4.7c-1.7-2.8-3.5-5.7-4.8-7.9c-0.7-1.1-1.3-2-1.7-2.7
				c-0.2-0.3-0.4-0.6-0.5-0.8c-0.4-0.5-1-0.8-1.6-0.9c-0.9-0.3-2.4-0.6-4.4-1.3c-2.3-0.8-3.5-3.2-2.7-5.5c0.5-1.5,1.8-2.6,3.3-2.8
				c5.9-0.9,9.9-3.1,11.3-7.2c1.5-4.4,1.1-9.9-1.6-13c-3-3.2-4.4-4.4-12.4-4.4L92.3,24.6L92.3,24.6z M105.7,28.1h11.6
				c5.6,0,9.3,4.8,9.3,9.9s-3.7,9.9-9.3,9.9h-11.6c-2.4,0-4.3-1.9-4.3-4.3l0,0V32.4C101.4,30,103.3,28.1,105.7,28.1L105.7,28.1z"/>
			<path id="path5980" class="st23" d="M92.4,24.7v50.9h8.8V56.8c0-2.4,2-4.4,4.4-4.4l0,0c1.8,0,3.8-0.5,6.6,0.3s5.2,3,7.2,6.3V59
				c4,6.9,7.6,14.3,8.8,16.6h10.6c-1.1-1.9-1.3-2.2-2.7-4.5c-1.7-2.8-3.5-5.7-4.9-7.9c-0.7-1.1-1.3-2-1.7-2.7
				c-0.2-0.3-0.3-0.5-0.4-0.6c-0.4-0.5-0.2-0.3-0.1-0.1c-0.4-0.4-0.9-0.7-1.5-0.9c-0.9-0.3-2.4-0.6-4.4-1.3
				c-2.3-0.8-3.5-3.3-2.7-5.6c0.5-1.5,1.8-2.6,3.4-2.9c5.8-1,9.8-3.1,11.2-7.1c1.5-4.3,1.1-9.8-1.5-12.9c-3-3.2-4.3-4.4-12.3-4.4
				H92.4z M105.4,28h11.9c5.7,0,9.4,4.8,9.4,10s-3.7,10-9.4,10h-11.6c-2.4,0-4.4-2-4.4-4.4l0,0V32.4C101.3,30.1,103.1,28.2,105.4,28
				L105.4,28z"/>
			<path id="path5982" class="st23" d="M92.5,24.8v50.7h8.6V56.8c0-2.5,2-4.5,4.5-4.5c1.8,0,3.8-0.5,6.6,0.3s5.3,3.1,7.3,6.3v0.1
				c3.9,6.9,7.6,14.2,8.8,16.5h10.3c-1.1-1.8-1.3-2.1-2.6-4.3c-1.7-2.8-3.5-5.7-4.9-7.9c-0.7-1.1-1.3-2-1.7-2.7
				c-0.2-0.3-0.4-0.6-0.5-0.7c-0.4-0.4-0.9-0.7-1.5-0.8c-0.9-0.3-2.4-0.6-4.4-1.3c-2.4-0.9-3.6-3.5-2.7-5.8c0.5-1.5,1.8-2.6,3.4-2.9
				c5.8-1,9.8-3,11.2-7c1.4-4.3,1.1-9.7-1.5-12.8c0,0,0,0,0-0.1c-3-3.2-4.3-4.4-12.2-4.4L92.5,24.8L92.5,24.8z M105.4,27.9h11.9
				c5.8,0,9.5,4.9,9.5,10.1s-3.7,10-9.5,10h-11.6c-2.5,0-4.5-2-4.5-4.5v-11C101.2,30,103,28.1,105.4,27.9z"/>
			<path id="path5984" class="st23" d="M92.6,24.9v50.5h8.4V56.8c0-2.6,2.1-4.6,4.6-4.6c1.8,0,3.8-0.5,6.6,0.3s5.3,3.1,7.3,6.4
				l0.1,0.1c3.9,6.9,7.5,14.1,8.7,16.5h10c-1.1-1.8-1.2-2-2.5-4.2c-1.7-2.8-3.5-5.7-4.8-7.9c-0.7-1.1-1.3-2-1.7-2.7
				c-0.2-0.3-0.4-0.6-0.5-0.7c-0.4-0.4-0.8-0.7-1.4-0.8c-0.9-0.3-2.4-0.6-4.4-1.2c-2.4-0.8-3.7-3.4-2.9-5.9c0.5-1.6,2-2.8,3.7-3.1
				c5.8-1,9.7-3,11.1-6.9c1.4-4.3,1.1-9.6-1.4-12.6c0,0,0,0,0-0.1c-3-3.2-4.2-4.3-12.1-4.3L92.6,24.9z M105.4,27.8h11.9
				c5.9,0,9.6,4.9,9.6,10.2s-3.8,10.2-9.6,10.2h-11.6c-2.6,0-4.6-2.1-4.6-4.6V32.4C101.1,30,103,28,105.4,27.8z"/>
			<path id="path5986" class="st23" d="M92.8,25v50.2h8.2V56.8c0-2.6,2.1-4.7,4.7-4.8l0,0c1.8,0,3.8-0.5,6.6,0.3s5.4,3.2,7.4,6.4
				v0.1c3.9,6.9,7.5,14,8.7,16.4h9.7c-1-1.7-1.2-1.9-2.4-3.9c-1.7-2.8-3.5-5.7-4.9-7.9c-0.7-1.1-1.3-2-1.7-2.7
				c-0.2-0.3-0.3-0.6-0.4-0.7c-0.4-0.4-0.5-0.5-1.4-0.8c-0.8-0.3-2.4-0.6-4.4-1.2c-2.5-0.8-3.9-3.5-3.1-6c0.6-1.7,2-3,3.8-3.2
				c5.8-1,9.6-3,11-6.8c1.4-4.2,1.1-9.5-1.4-12.5c0,0,0,0,0-0.1c-3-3.2-4.1-4.2-12-4.2L92.8,25z M105.7,27.6h11.6
				c5.9,0,9.8,5,9.8,10.3s-3.8,10.3-9.8,10.3h-11.6c-2.6,0-4.8-2.1-4.8-4.7l0,0V32.4C100.9,29.8,103,27.7,105.7,27.6L105.7,27.6z"/>
			<path id="path5988" class="st23" d="M92.9,25.1v50h8V56.8c0-2.7,2.2-4.9,4.9-4.9c0,0,0,0,0,0l0,0c1.8,0,3.8-0.5,6.7,0.3
				c2.9,0.8,5.5,3.2,7.5,6.5v0.1c3.9,6.8,7.4,13.9,8.7,16.4h9.4c-1-1.7-1.1-1.9-2.3-3.8c-1.7-2.8-3.5-5.7-4.9-7.9
				c-0.7-1.1-1.3-2-1.7-2.7l-0.5-0.7c-0.4-0.4-0.5-0.5-1.3-0.7c-0.8-0.3-2.4-0.6-4.4-1.2c-2.6-0.8-4-3.6-3.1-6.1
				c0.6-1.7,2.1-3,3.9-3.3c5.8-1,9.5-3,10.9-6.8c1.4-4.2,1.1-9.5-1.4-12.5c0,0,0,0,0-0.1c-3-3.2-4.1-4.2-12-4.2L92.9,25.1L92.9,25.1
				z M105.7,27.5h11.6c6,0,9.8,5,9.8,10.4s-3.8,10.4-9.8,10.4h-11.6c-2.7,0-4.9-2.2-4.9-4.9c0,0,0,0,0,0l0,0V32.4
				C100.8,29.7,103,27.6,105.7,27.5C105.7,27.5,105.7,27.5,105.7,27.5L105.7,27.5z"/>
			<path id="path5990" class="st23" d="M93,25.2V75h7.7V56.8c0-2.8,2.2-5,5-5c1.8,0,3.8-0.5,6.7,0.3s5.5,3.2,7.5,6.5l0.1,0.1
				c3.9,6.8,7.4,13.8,8.6,16.3h9.2c-1-1.6-1.1-1.8-2.2-3.6c-1.7-2.8-3.5-5.7-4.8-7.9c-0.7-1.1-1.3-2-1.7-2.7
				c-0.2-0.3-0.3-0.5-0.4-0.7l0,0c-0.3-0.4-0.4-0.4-1.2-0.7c-0.8-0.3-2.4-0.6-4.4-1.2c-2.6-0.9-4-3.7-3.2-6.3c0.6-1.7,2-3,3.8-3.3
				c5.7-1,9.5-2.9,10.8-6.7c1.4-4.2,1.1-9.5-1.4-12.4c-3-3.2-4-4.2-11.9-4.2L93,25.2z M105.4,27.4h12c6.1,0,10,5.1,10,10.5
				s-3.9,10.5-10,10.5h-11.7c-2.8,0-5-2.2-5-5v-11C100.7,29.8,102.7,27.6,105.4,27.4L105.4,27.4z"/>
			<path id="path5992" class="st23" d="M93.1,25.3v49.6h7.6V56.8c0-2.8,2.3-5.1,5.1-5.1c1.8,0,3.8-0.5,6.7,0.3s5.6,3.2,7.6,6.6
				l0.1,0.1c3.9,6.8,7.3,13.7,8.6,16.2h8.9c-0.9-1.6-1-1.7-2.1-3.5c-1.7-2.8-3.5-5.7-4.8-7.9c-0.7-1.1-1.3-2-1.7-2.7
				c-0.2-0.3-0.3-0.5-0.4-0.7l0,0c-0.3-0.3-0.4-0.4-1.2-0.7s-2.4-0.6-4.4-1.2c-2.7-0.9-4.1-3.8-3.2-6.4c0.6-1.8,2.1-3.1,4-3.4
				c5.7-1,9.4-3,10.7-6.7l0,0c1.4-4.1,1-9.3-1.4-12.2c0,0,0,0,0-0.1c-2.9-3.1-3.9-4.2-11.8-4.2L93.1,25.3L93.1,25.3z M105.4,27.3h12
				c6.2,0,10.1,5.1,10.1,10.6s-3.9,10.6-10.1,10.6h-11.7c-2.8,0-5.1-2.3-5.1-5.1V32.4C100.6,29.8,102.7,27.5,105.4,27.3z"/>
			<path id="path5994" class="st23" d="M93.2,25.4v49.4h7.3v-18c0-2.9,2.3-5.2,5.2-5.2c1.8,0,3.8-0.5,6.8,0.3s5.6,3.3,7.6,6.6
				l0.1,0.1c3.9,6.8,7.3,13.7,8.6,16.2h8.7c-0.9-1.5-1-1.6-2-3.3c-1.7-2.8-3.5-5.7-4.9-7.9c-0.7-1.1-1.3-2-1.7-2.7
				c-0.2-0.3-0.3-0.5-0.4-0.7l0,0c-0.3-0.3-0.4-0.4-1.1-0.6c-0.8-0.3-2.4-0.6-4.4-1.2c-2.8-0.8-4.4-3.7-3.6-6.4
				c0.6-2,2.3-3.4,4.3-3.7c5.7-1,9.3-2.9,10.7-6.6l0,0c1.4-4.1,1-9.2-1.4-12.1c0,0,0,0,0-0.1c-2.9-3.1-3.9-4.1-11.7-4.1
				C121.2,25.4,93.2,25.4,93.2,25.4z M105.3,27.2h12c6.2,0,10.2,5.2,10.2,10.7s-3.9,10.7-10.2,10.7h-11.6c-2.9,0-5.2-2.3-5.2-5.2
				V32.4C100.5,29.7,102.6,27.4,105.3,27.2z"/>
			<path id="path5996" class="st23" d="M93.3,25.6v49.1h7.1V56.8c0-2.9,2.3-5.3,5.3-5.3l0,0c1.8,0,3.7-0.5,6.8,0.3s5.7,3.3,7.7,6.7
				v0.1c3.9,6.8,7.2,13.5,8.5,16.1h8.4c-0.9-1.4-0.9-1.5-1.9-3.1c-1.7-2.8-3.5-5.7-4.9-7.9c-0.7-1.1-1.3-2-1.7-2.7
				c-0.2-0.3-0.3-0.5-0.4-0.7l0,0c-0.3-0.3-0.3-0.3-1.1-0.6s-2.4-0.6-4.4-1.2c-2.8-0.9-4.4-3.8-3.5-6.6c0.6-2,2.3-3.4,4.4-3.7
				c5.7-1,9.2-2.9,10.5-6.5l0,0c1.4-4.1,1-9.2-1.4-12c-2.9-3.1-3.8-4.1-11.6-4.1L93.3,25.6L93.3,25.6z M105.7,27.1h11.6
				c6.3,0,10.3,5.2,10.3,10.9s-4,10.9-10.3,10.9h-11.6c-2.9,0-5.3-2.4-5.3-5.3c0,0,0,0,0,0l0,0V32.4
				C100.4,29.5,102.7,27.1,105.7,27.1L105.7,27.1z"/>
			<path id="path5998" class="st23" d="M93.4,25.7v48.9h6.8V56.8c0-3,2.4-5.4,5.4-5.4c0,0,0,0,0,0l0,0c1.8,0,3.7-0.5,6.8,0.3
				c3.1,0.8,5.8,3.3,7.8,6.7l0.1,0.1c3.8,6.7,7.2,13.4,8.5,16.1h8.2c-0.8-1.4-0.9-1.4-1.8-2.9c-1.7-2.8-3.5-5.7-4.8-7.9
				c-0.7-1.1-1.3-2-1.7-2.7c-0.2-0.3-0.4-0.5-0.4-0.7c-0.2-0.3-0.3-0.3-1-0.5s-2.4-0.6-4.4-1.2c-2.9-0.9-4.4-4-3.5-6.8
				c0.6-2,2.3-3.4,4.3-3.7c5.7-1,9.2-2.9,10.5-6.4l0,0c1.3-4,0.9-9.1-1.3-11.9c0,0,0,0,0-0.1c-2.9-3.1-3.8-4-11.6-4L93.4,25.7z
				 M105.7,27h11.6c6.4,0,10.4,5.3,10.4,11s-4,11-10.4,11h-11.6c-3,0-5.4-2.4-5.4-5.4c0,0,0,0,0,0l0,0V32.4
				C100.3,29.4,102.7,27,105.7,27C105.7,27,105.7,27,105.7,27L105.7,27z"/>
			
				<linearGradient id="path6000_1_" gradientUnits="userSpaceOnUse" x1="22.0919" y1="69.6337" x2="21.1119" y2="63.1337" gradientTransform="matrix(7.59 0 0 7.59 -50.92 -456.29)">
				<stop  offset="0" style="stop-color:#B4BED1"/>
				<stop  offset="0.25" style="stop-color:#A9B3C9"/>
				<stop  offset="0.5" style="stop-color:#B1BBCF"/>
				<stop  offset="1" style="stop-color:#C8CEDD;stop-opacity:0.14"/>
			</linearGradient>
			<path id="path6000" class="st24" d="M93.5,25.8v48.7h6.6V56.8c0-3.1,2.5-5.5,5.5-5.5c1.8,0,3.7-0.5,6.8,0.3s5.8,3.4,7.8,6.8
				l0.1,0.1c3.8,6.7,7.1,13.3,8.5,16h7.9c-0.8-1.3-0.8-1.4-1.7-2.8c-1.7-2.8-3.5-5.7-4.8-7.8c-0.7-1.1-1.3-2-1.7-2.7
				c-0.2-0.3-0.3-0.5-0.4-0.7c-0.1-0.2-0.2-0.3-1-0.5s-2.3-0.6-4.4-1.2c-2.9-1-4.4-4.1-3.5-7c0.7-1.9,2.3-3.4,4.4-3.7
				c5.7-0.9,9.1-2.8,10.4-6.4c1.4-4,1-9.1-1.4-11.8c-2.9-3.1-3.7-4-11.4-4L93.5,25.8z M105.3,26.9h12c6.5,0,10.5,5.3,10.5,11.1
				s-4.1,11-10.5,11h-11.6c-3.1,0-5.5-2.5-5.5-5.5v-11C100.2,29.5,102.4,27.1,105.3,26.9L105.3,26.9z"/>
			
				<linearGradient id="path6002_1_" gradientUnits="userSpaceOnUse" x1="78.4997" y1="66.726" x2="78.7897" y2="66.726" gradientTransform="matrix(7.59 0 0 7.59 -506.27 -456.29)">
				<stop  offset="0" style="stop-color:#7384A9;stop-opacity:0"/>
				<stop  offset="1" style="stop-color:#F9FBFE;stop-opacity:0.86"/>
			</linearGradient>
			<path id="path6002" class="st25" d="M88,20.4v59.5l3.6-3.8V23.9"/>
			<path id="path6004" class="st26" d="M123.8,48.8c9.2-2.2,13.8-7.6,10.6-16.4c-0.5-1-1.2-1.9-2.2-2.6c2.6,2.1,3.3,7.4,2,10.8
				c-1.6,3.9-4.6,6.5-10.1,7.4c-1.1,0.1-2.1,0.6-3,1.2c-1.8,1.1-2.6,3.3-2,5.3C119.5,49.3,123.5,49,123.8,48.8L123.8,48.8z
				 M111.1,51.3c-1.9-0.2-3.9-0.2-5.8,0c-2.1,0.1-4.8,1.5-5,4.3v18.8h-6.3l-1,0.8h7.9l0.2-20c0.5-2.2,2.7-3.4,4.9-3.5
				c1.8,0,3.6-0.7,6.4,0.1L111.1,51.3z M128.7,75.3h9.9l-1.8-0.7h-7.6L128.7,75.3z M100.8,32.4c0-2.2,0.1-4.5,5.3-4.7
				c3.4-0.2,6.7-0.4,12.5-0.3c1.2,0,2.4,0.2,3.5,0.5c-1.7-0.8-3.6-1.2-5.4-1.2L104.5,27c-3,0.2-4.2,2.1-4.2,5.2v10.2
				c0,3.2,0.7,3.4,0.6,2.3L100.8,32.4z"/>
			<path id="path6006" class="st26" d="M116.6,26.8l-11.5,0.2c-1.4,0.1-2.8,0.6-3.9,1.5c-1.1,1-1.1,3-1.1,15.8c0-0.8,0.1,0.6,0.1,0
				c0.2-9.4-0.2-14.3,1-15.6c0.9-1,2.6-1.5,5.2-1.6l11.9-0.3c0.4,0,0.1-0.1,0-0.1C117.8,26.8,117.2,26.8,116.6,26.8L116.6,26.8z
				 M134.3,40.2c-1.6,3.9-4.6,6.6-10.2,7.5c-1.1,0.2-2.1,0.6-2.9,1.2c-0.8,0.6-1.5,1.4-1.9,2.3c-0.2,0.5-0.3,1-0.3,1.6
				c0.3-1.4,1.1-2.7,2.2-3.6c0.5-0.3,1-0.6,1.6-0.8c0.2-0.1,0.4-0.1,0.6-0.1c0.9-0.3,1.9-0.6,2.8-0.8c3-0.7,5.6-2.5,7.3-5
				c2.4-3.8,0.8-9.4,0.8-9.4S135.1,38.3,134.3,40.2L134.3,40.2z M100.2,74.4l-6.5,0.1l-0.4,0.2h7.2c0,0-0.1-12.2-0.1-18.5
				c0-0.6,0.1-1.1,0.3-1.6c0.2-0.5,0.5-0.9,0.8-1.2c1.6-1.6,3.8-2.3,6-2.1c-0.1-0.3-5.2-0.1-6.6,2.4c-0.5,0.9-0.8,1.8-0.7,2.8
				C100.2,62.8,100.2,68,100.2,74.4L100.2,74.4z M129.1,74.5l-0.2,0.2h8.1l-0.2-0.3L129.1,74.5z"/>
			
				<linearGradient id="path6008_1_" gradientUnits="userSpaceOnUse" x1="22.1911" y1="69.5767" x2="20.9711" y2="63.4067" gradientTransform="matrix(7.59 0 0 7.59 -50.92 -456.29)">
				<stop  offset="0" style="stop-color:#C5CCDC"/>
				<stop  offset="0.44" style="stop-color:#CED3DF"/>
				<stop  offset="0.64" style="stop-color:#B1BBCF"/>
				<stop  offset="1" style="stop-color:#909FBE"/>
			</linearGradient>
			<path id="path6008" class="st27" d="M94.1,26.3v47.6h5.6V56.8c0-3.4,2.7-6.1,6.1-6.1l0,0c1.7,0,3.7-0.5,7,0.3
				c2.4,0.8,4.6,2.4,6.1,4.5c-0.8-2.3-0.2-4.9,1.7-6.6c-1,0.4-2.1,0.6-3.2,0.7h-11.7c-3.4,0-6.1-2.7-6.1-6.1V32.4
				c0-3.2,2.5-5.9,5.7-6.1H94.1z M117.3,26.3c6.8,0,11.1,5.6,11.1,11.6c0,3.8-1.8,7.3-4.9,9.5c5.5-0.9,8.7-2.7,9.9-5.9v-0.1
				c1.3-3.9,0.9-8.7-1.2-11.2c0,0,0,0,0-0.1c-2.8-3-3.4-3.8-11-3.8L117.3,26.3z M121.1,58.5c3.7,6.6,6.8,12.6,8.2,15.4h6.6l-1.2-1.9
				c-1.7-2.8-3.5-5.7-4.9-7.9c-0.7-1.1-1.3-2-1.7-2.7l-0.4-0.6c-0.1-0.2-0.1-0.1-0.7-0.3s-2.3-0.5-4.4-1.2
				C122,59.1,121.6,58.8,121.1,58.5L121.1,58.5z"/>
		</g>
	</g>
</g>
</svg>
