<svg xmlns="http://www.w3.org/2000/svg" viewBox="0 0 200 80"><defs><style>.cls-1{fill:#f8ad25;}.cls-2{fill:#222;}.cls-3{fill:none;}</style></defs><title>puppet-logo</title><g id="Calque_2" data-name="Calque 2"><path class="cls-1" d="M35,45V28.84H22.73l-6.61-6.62V9.92H0V26H12.32l6.61,6.61h0v8.53h0l-6.61,6.61H0V63.88H16.11V51.57L22.72,45ZM5.37,15.29h5.37v5.37H5.37Zm5.37,43.23H5.37V53.14h5.37Z"/><g id="_Groupe_" data-name=" Groupe "><path class="cls-2" d="M52.88,80h-7.1V45h7.1v2.12a8.81,8.81,0,0,1,6.41-2.69c7.44,0,11.68,6.18,11.68,13.4S66.74,71.12,59.29,71.12a8.81,8.81,0,0,1-6.41-2.69Zm0-18a5.38,5.38,0,0,0,4.81,3c3.84,0,6.13-3.09,6.13-7.16s-2.29-7.22-6.13-7.22a5.42,5.42,0,0,0-4.81,3Z"/><path class="cls-2" d="M96.75,70.55h-7.1V68.2a9.27,9.27,0,0,1-6.87,2.92c-5.73,0-9-3.78-9-9.45V45h7.1V60.24c0,2.69,1.32,4.52,4.12,4.52a4.54,4.54,0,0,0,4.58-3.55V45h7.16Z"/><path class="cls-2" d="M108.54,80h-7.1V45h7.1v2.12A8.81,8.81,0,0,1,115,44.38c7.44,0,11.68,6.18,11.68,13.4S122.4,71.12,115,71.12a8.81,8.81,0,0,1-6.41-2.69Zm0-18a5.38,5.38,0,0,0,4.81,3c3.84,0,6.13-3.09,6.13-7.16s-2.29-7.22-6.13-7.22a5.42,5.42,0,0,0-4.81,3Z"/><path class="cls-2" d="M136.83,80h-7.1V45h7.1v2.12a8.81,8.81,0,0,1,6.41-2.69c7.44,0,11.68,6.18,11.68,13.4s-4.24,13.34-11.68,13.34a8.81,8.81,0,0,1-6.41-2.69Zm0-18a5.38,5.38,0,0,0,4.81,3c3.84,0,6.13-3.09,6.13-7.16s-2.29-7.22-6.13-7.22a5.42,5.42,0,0,0-4.81,3Z"/><path class="cls-2" d="M180.41,62.19c-.92,5.44-4.92,8.93-11.34,8.93-7.44,0-12.43-5.44-12.43-13.34,0-7.73,5.15-13.4,12.31-13.4,7.5,0,11.63,5.21,11.63,12.71v2.18H163.52c.23,3.84,2.41,6.13,5.55,6.13,2.41,0,4.18-1,4.75-3.21ZM163.69,55h9.91c-.06-2.69-1.66-4.81-4.58-4.81C166.27,50.17,164.32,51.83,163.69,55Z"/><path class="cls-2" d="M185.22,50.68h-3.89V45h3.89V38h7V45h5.61v5.73h-5.61V61.9a2.6,2.6,0,0,0,2.92,2.92,6.09,6.09,0,0,0,3.09-.86v6.3a10.78,10.78,0,0,1-4.58.8c-5.21,0-8.48-2.58-8.48-8.25Z"/></g></g><g id="Calque_1" data-name="Calque 1"><rect class="cls-3" width="200" height="80"/></g></svg>