<?xml version="1.0" encoding="utf-8"?>
<!-- Generator: Adobe Illustrator 22.1.0, SVG Export Plug-In . SVG Version: 6.00 Build 0)  -->
<svg version="1.1" id="Calque_1" xmlns="http://www.w3.org/2000/svg" xmlns:xlink="http://www.w3.org/1999/xlink" x="0px" y="0px"
	 viewBox="0 0 1000 180" style="enable-background:new 0 0 1000 180;" xml:space="preserve">
<style type="text/css">
	.st0{fill:#F74F10;}
	.st1{fill:#A4A8A9;}
	.st2{fill:#FFBD00;}
	.st3{fill:#FC8900;}
</style>
<g>
	<g>
		<g>
			<polygon class="st0" points="267.8,39.7 185.3,39.7 185.3,56.2 217.9,56.2 217.9,151.8 234.8,151.8 234.8,56.2 267.8,56.2 			"/>
			<path class="st0" d="M323,91.4c-1.3-5.2-3.5-9.6-6.5-13c-2.6-3.9-6.5-6.9-10.9-9.1s-9.6-3.5-15.6-3.5c-5.6,0-10.9,0.9-15.2,3
				c-4.8,1.7-8.7,4.8-11.7,8.3c-3,3.5-5.6,7.8-7.4,13.5c-1.7,5.6-2.6,11.7-2.6,19.1c0,6.9,0.9,13,3,18.7c1.7,5.6,4.3,10,7.8,13.9
				c3.5,3.5,7.4,6.5,11.7,8.3c4.3,2.2,9.1,3,13.9,3c6.5,0,12.2-0.9,16.5-3c4.8-2.2,8.7-4.8,12.6-8.3l-10-10.4
				c-3,2.2-5.6,3.5-8.7,4.8c-2.6,1.3-6.1,1.7-9.6,1.7c-2.6,0-5.2-0.4-7.4-1.3c-2.6-1.3-4.8-2.6-6.5-4.3c-1.7-1.7-3.5-4.3-4.8-7.4
				c-1.3-2.6-1.3-1.3-1.7-5.2l54.3-16.1C324.3,103.6,324.3,96.6,323,91.4z M270,105.7c0-7.8,0.9-14.8,3.9-19.1
				c3-4.3,9.1-6.5,14.8-6.5c3,0,6.1,0.4,8.7,1.3c2.6,0.9,4.8,2.6,6.1,4.8c1.7,2.6,3.9,6.1,3.9,8.7L270,105.7z"/>
			<path class="st0" d="M462.8,111.8c-2.6-2.2-5.6-3.9-9.1-5.6c-3.9-1.7-7.8-3.5-12.6-5.2c-3-1.3-6.1-2.6-7.8-3.5
				c-2.2-0.9-3.5-2.2-4.8-3c-1.3-0.9-2.2-2.2-2.6-3c-0.4-0.4-0.4-1.7-0.4-2.6c0-2.2,0.9-4.3,2.6-5.6c1.7-1.3,4.8-2.2,8.7-2.2
				s7.8,0.4,11.3,1.7c3.5,0.9,6.9,3,10.4,5.2l7.4-12.6c-3.5-2.6-8.3-4.8-13-6.5c-5.2-1.7-10.4-2.6-15.6-2.6c-4.3,0-8.3,0.4-11.7,1.3
				c-3.5,0.9-6.5,2.2-9.1,4.3s-4.8,4.3-6.1,7.4c-1.3,3-2.2,6.1-2.2,10c0,3.5,0.4,6.1,1.3,8.7c0.9,2.6,2.6,4.8,4.3,6.9
				c2.2,1.7,4.8,3.9,7.8,5.6c3,1.7,6.9,3.5,11.3,5.2c6.1,2.6,10.9,4.8,14.3,6.5c3.5,2.2,5.2,4.8,5.2,7.8c0,6.1-5.2,9.1-15.6,9.1
				c-3.9,0-7.8-0.9-12.2-2.2c-3.9-1.3-8.3-3.5-12.2-6.1l-7.4,12.6c4.3,3.5,9.6,5.6,15.2,7.8c5.6,1.7,11.7,3,17.4,3
				c3.9,0,7.8-0.4,11.7-1.3c3.9-0.9,6.9-2.6,10-4.3c3-2.2,5.2-4.8,6.9-7.8c1.7-3,2.6-6.9,2.6-11.7c0-3.9-0.9-7.4-0.9-10
				C467.1,116.6,465.4,114,462.8,111.8z"/>
			<path class="st0" d="M371.2,65.8c-4.3,0-8.3,0.9-12.2,2.6c-3.9,1.7-6.9,4.3-9.1,7.4v-8.3h-16.5v84.2h16.5v-49.5
				c0-6.9,1.3-12.2,4.3-16.1c2.6-3.9,6.9-5.6,12.6-5.6c5.2,0,9.6,1.7,12.6,5.2c3,3,4.8,9.1,4.8,17.8v47.8l17.4,0.4v-48.2
				c0-12.6-2.6-22.1-7.8-28.2C388.5,68.8,381.2,65.8,371.2,65.8z"/>
			<path class="st0" d="M588.7,66.6c-4.3,0-7.8,0.9-11.3,2.6c-3,1.7-6.1,4.3-7.8,6.9V68h-16.5v84.2h16.5V104
				c0-6.9,1.3-12.6,4.3-16.1c3-3.9,6.9-5.6,12.2-5.6c2.6,0,5.2,0.4,6.9,0.9c1.7,0.4,3.9,1.3,5.6,2.2l4.3-15.2
				c-1.3-1.3-3.5-2.2-5.6-2.6C594.8,67.1,592.2,66.6,588.7,66.6z"/>
			<path class="st0" d="M534.4,77.9c-3.5-3.5-7.8-6.5-12.2-8.7c-4.3-2.2-9.6-3-14.8-3s-10,0.9-14.8,3c-4.3,1.7-8.3,4.8-11.7,8.7
				c-3.5,3.9-6.1,8.3-7.8,13.9c-2.2,5.2-3,11.3-3,18.2c0,6.5,1.3,12.6,3,17.8c1.7,5.6,4.3,10,7.8,13.9c3.5,3.9,7.4,6.5,11.7,8.7
				s9.6,3.5,14.8,3.5c5.6,0,10.4-1.3,15.2-3c4.8-2.2,8.7-5.2,12.2-8.7c3.5-3.9,6.1-8.3,7.8-13.9c2.2-5.6,3-11.7,3-18.7
				c0-6.5-1.3-12.6-3.5-17.8C540.5,86.2,537.9,81.8,534.4,77.9z M527.9,120.9c-1.3,3.5-2.6,6.5-4.3,9.1c-1.7,2.6-3.9,4.3-6.5,6.1
				c-2.6,1.3-5.6,2.2-8.7,2.2c-6.1,0-11.3-2.6-15.2-7.4c-3.5-4.8-5.6-11.7-5.6-21.3c0-8.7,1.7-15.2,5.2-20.4
				c3.5-4.8,8.3-7.4,14.8-7.4s11.7,2.6,15.6,7.4c3.9,5.2,5.6,12.2,5.6,20.8C528.8,114,528.4,117.9,527.9,120.9z"/>
			<polygon class="st0" points="684.7,152.2 701.2,152.2 701.2,35.4 684.7,44.1 			"/>
			<path class="st0" d="M874,68l-10,40.8c-0.9,3-1.3,6.5-2.2,10c-0.9,3.5-1.7,6.1-2.2,8.3c-0.9-2.2-1.3-4.8-2.2-8.3
				c-0.4-3.5-1.3-6.5-2.2-10l-11.7-41.3h-13l-11.3,40.8c-0.9,3.5-1.7,6.9-2.6,10.4l-2.2,8.3c-0.4-2.2-0.9-4.8-1.7-8.3
				c-0.4-3.5-1.3-6.9-2.2-10.4l-10-40.8h-16.5l23,84.2h14.3l11.3-42.1c0.9-3,1.7-6.5,2.6-10c0.4-2.6,1.3-5.6,1.7-8.3
				c0.9,2.2,1.3,4.8,2.2,8.3c0.9,3.5,1.7,6.9,2.6,10l11.3,42.6h14.3l23-84.2H874z"/>
			<polygon class="st0" points="610,152.2 626.5,152.2 626.5,102.3 659.1,102.3 659.1,85.8 626.5,85.8 626.5,56.2 682.5,56.7 
				682.5,40.2 610,40.2 			"/>
			<path class="st0" d="M775.4,77.9c-3.5-3.5-7.4-6.5-12.2-8.7c-4.3-2.2-9.6-3-14.8-3c-5.6,0-10.4,0.9-15.2,3
				c-4.3,1.7-8.3,4.8-11.7,8.7c-3,3.9-6.1,8.3-7.8,13.9c-2.2,5.2-3,11.3-3,18.2c0,6.5,1.3,12.6,3,17.8c1.7,5.6,4.3,10,7.8,13.9
				c3.5,3.9,7.4,6.5,11.7,8.7c4.3,2.2,9.1,3.5,14.8,3.5s10.4-1.3,15.2-3c4.3-2.2,8.3-5.2,11.7-8.7c3.5-3.9,6.1-8.3,8.3-13.9
				c1.7-5.6,2.6-11.7,2.6-18.7c0-6.5-0.9-12.6-2.6-17.8C781.5,86.2,778.9,81.8,775.4,77.9z M767.6,120.9c-1.3,3.5-2.6,6.5-4.3,9.1
				c-1.7,2.6-3.9,4.3-6.5,6.1c-2.2,1.3-5.2,2.2-8.3,2.2c-6.1,0-11.3-2.6-15.2-7.4c-4.3-4.8-6.1-11.7-6.1-21.3
				c0-8.7,1.7-15.2,5.2-20.4c3.9-4.8,8.7-7.4,15.2-7.4c6.5,0,11.7,2.6,15.6,7.4c3.5,5.2,5.6,12.2,5.6,20.8
				C768.9,114,768.5,117.9,767.6,120.9z"/>
		</g>
		<g>
			<path class="st1" d="M907.3,138c0-7.5-4.9-12.8-12-12.8s-12.2,5.3-12.2,12.8c0,7.3,4.9,12.8,12,12.8
				C902.6,150.8,907.3,145.3,907.3,138z"/>
			<path class="st1" d="M920.4,132.7c0,19.6-1.7,25.1-5.2,29.2c-3,3.3-8.2,5.3-15.2,5.8l-0.6,0L901,180h0.5c7.2,0,18-2.4,24.7-9.1
				c6.8-6.9,9.6-16.4,9.6-32.7V66.4h-15.4V132.7z"/>
			<path class="st1" d="M928.2,35.4c-5.6,0-9.6,4-9.6,9.5c0,5.3,4,9.3,9.3,9.3c2.9,0,5.3-1,7-2.8c1.7-1.7,2.5-4,2.4-6.6
				C937.4,39.4,933.5,35.4,928.2,35.4z"/>
			<path class="st1" d="M979,99.4c-10.1-3.8-14.6-6.6-14.6-12.8c0-5.1,3.9-10.2,12.6-10.2c7.6,0,13.1,2.8,15.8,4.5l0.6,0.4l3.9-11.5
				l-0.4-0.2c-5.2-3.1-12.6-4.9-19.6-4.9c-16.3,0-27.6,9.7-27.6,23.6c0,10,7.3,17.8,21.1,22.8c10.5,3.9,14.2,7.5,14.2,13.9
				c0,7-5.5,11.1-14.7,11.1c-6.9,0-14.3-2.8-18.5-5.6l-0.6-0.4l-3.9,12l0.4,0.2c5.9,3.5,14,5.4,22.3,5.4c18.2,0,29.9-9.5,29.9-24.1
				C1000,112.3,993.7,105,979,99.4z"/>
		</g>
	</g>
	<g>
		<path class="st2" d="M69.8,92.9l23.3-13.5L116,92.9l-22.9,13.3l-23.3-13V92.9z"/>
		<path class="st2" d="M0,52.9L93.2,0l69.4,39.4l-23.1,40.1L93.2,52.9L23.3,92.5L0,52.9z"/>
		<path class="st3" d="M69.8,145.8v-26.3l22.9-13.3L116,92.9v26.6l-22.9,13.3v26.3l-23.3,13.5V145.8z M69.8,92.9L46.5,79.7
			L23.1,92.5V66.1l69.8-39.6v52.9L69.8,92.9z M138.9,66.1V52.9l23.3-13.5l0.2,26.6l-23.3,13.5L138.9,66.1z"/>
		<path class="st0" d="M46.5,158.6V79.9l22.9-12.8l0.2,26.1l23.3,13v26.3l-23.3-12.4v52.4L46.5,158.6z M11.4,85.8L0,79V53.1
			l23.3,13.3v26.3L11.4,85.8z M93.2,52.9V26.3l46,26.6l0.2,26.6L93.2,52.9z"/>
	</g>
</g>
</svg>
