<?xml version="1.0" encoding="utf-8"?>
<!-- Generator: Adobe Illustrator 20.1.0, SVG Export Plug-In . SVG Version: 6.00 Build 0)  -->
<svg version="1.1" id="Calque_1" xmlns="http://www.w3.org/2000/svg" xmlns:xlink="http://www.w3.org/1999/xlink" x="0px" y="0px"
	 viewBox="0 0 128 87" style="enable-background:new 0 0 128 87;" xml:space="preserve">
<style type="text/css">
	.st0{fill:none;}
	.st1{fill:#6A205F;}
</style>
<title>logo-techtrends</title>
<g id="Calque_2">
	<rect class="st0" width="128" height="87"/>
</g>
<path class="st1" d="M82.6,20.4H81v-1.8h-0.6c-11.3,0-15.1,2.7-16.4,4.2c-1.2-1.5-5-4.2-16.4-4.2h-0.6v1.8h-1.6h-1.3v25.7h1.3
	c14,0,16.9,3.2,17.2,3.8h2.6c0.4-0.6,3.4-3.8,17.2-3.8h1.3V20.4H82.6z M63.2,45c-1.9-1.4-6.1-3.1-14.6-3.2V20.1
	c12,0.2,14.3,3.4,14.6,4V45z M79.6,41.8c-8.6,0.1-12.7,1.8-14.6,3.2V24.2c0.3-0.6,2.7-3.8,14.6-4V41.8z"/>
<path d="M34.6,64.9c-0.1-0.2-0.1-0.5,0-0.7c0.1-0.3,0.1-0.5,0.2-0.8c0.1-0.3,0.2-0.5,0.3-0.8l0.3-0.6l0.2-0.4L36,61l0.3-0.8l0.4-0.7
	l0.3-0.6l0.2-0.4c-0.2,0-0.4,0-0.6,0l-0.9,0.2l-1,0.2c-0.3,0.1-0.7,0.1-1,0.2c-0.3,0-0.5,0-0.8,0c-0.2,0-0.3-0.1-0.4-0.2
	c0.1-0.1,0.3-0.2,0.7-0.4c0.4-0.1,0.9-0.3,1.5-0.4c0.6-0.1,1.3-0.3,2-0.5l2.2-0.4l2.2-0.4l1.9-0.2c0.6-0.1,1-0.1,1.4-0.2
	c0.3,0,0.5,0,0.5,0c0,0.1,0,0.2,0,0.2c0,0.1-0.1,0.2-0.2,0.2L43.4,57l-1.5,0.2l-1.5,0.3l-1.3,0.2c-0.3,0.1-0.6,0.2-0.8,0.4
	c-0.3,0.3-0.5,0.6-0.7,0.9c-0.2,0.4-0.5,0.8-0.7,1.2c-0.2,0.4-0.4,0.9-0.6,1.3c-0.2,0.5-0.4,0.9-0.5,1.3c-0.2,0.4-0.3,0.8-0.5,1.1
	c-0.1,0.3-0.2,0.5-0.4,0.8c-0.1,0.2-0.2,0.3-0.3,0.2L34.6,64.9L34.6,64.9z"/>
<path d="M40.3,64.9c-0.2-0.1-0.4-0.2-0.6-0.4c-0.1-0.2-0.2-0.4-0.2-0.6c0-0.2,0-0.4,0-0.6c0-0.2,0.1-0.4,0.1-0.6l0.9-0.9
	c0.3-0.3,0.7-0.7,1-1c0.4-0.3,0.7-0.6,1.1-0.9c0.4-0.3,0.8-0.5,1.2-0.6c0.1-0.1,0.2-0.1,0.3,0c0.1,0.1,0.1,0.2,0.2,0.3
	c0,0.1,0,0.3,0,0.5c0,0.2,0,0.3,0,0.5c0,0.1-0.1,0.3-0.1,0.4c0,0.1-0.1,0.2-0.1,0.3c-0.1,0.1-0.3,0.2-0.4,0.3L43,61.9l-0.8,0.4
	l-0.8,0.4c-0.2,0.1-0.5,0.3-0.7,0.4c-0.2,0.1-0.3,0.3-0.5,0.4c-0.1,0.1-0.1,0.3-0.1,0.4c0,0.1,0.1,0.3,0.3,0.4c0.4,0,0.7,0,1.1,0
	c0.4-0.1,0.8-0.1,1.3-0.2l1.2-0.3l1-0.2l0.2,0.1c-0.2,0.2-0.3,0.3-0.5,0.4c-0.3,0.2-0.5,0.3-0.8,0.4c-0.3,0.1-0.7,0.2-1,0.3
	c-0.3,0.1-0.7,0.1-1,0.2c-0.3,0-0.6,0-0.9,0C40.8,65,40.6,65,40.3,64.9z M43.4,60.3c0,0-0.1,0-0.2,0.1l-0.5,0.3l-0.6,0.4l-0.6,0.4
	l-0.4,0.3c-0.1,0.1-0.2,0.1-0.1,0.2c0.2,0,0.4,0,0.5-0.1c0.2-0.1,0.5-0.2,0.7-0.3c0.2-0.1,0.5-0.2,0.7-0.4c0.2-0.1,0.4-0.3,0.5-0.4
	c0.1-0.1,0.2-0.2,0.2-0.4C43.7,60.4,43.6,60.3,43.4,60.3z"/>
<path d="M45.9,64.9c-0.4-0.1-0.7-0.3-0.9-0.6c-0.1-0.3-0.2-0.7-0.1-1c0.1-0.4,0.2-0.8,0.4-1.2c0.2-0.4,0.5-0.8,0.8-1.2
	c0.3-0.4,0.6-0.7,1-1c0.3-0.3,0.6-0.5,1-0.7c0.2-0.1,0.5-0.2,0.8-0.2c0.2,0,0.4,0.2,0.4,0.5c0,0.1,0,0.3,0,0.4
	c-0.1,0.2-0.1,0.3-0.2,0.5c-0.1,0.1-0.2,0.3-0.3,0.4c-0.1,0.1-0.2,0.2-0.3,0.3c-0.1,0.1-0.2,0.1-0.3,0.1c-0.1,0-0.2-0.1-0.2-0.2
	c0.1-0.2,0.2-0.3,0.3-0.5l0.4-0.5c0-0.1-0.2-0.1-0.3-0.1c-0.2,0.1-0.4,0.2-0.5,0.3c-0.2,0.2-0.4,0.4-0.7,0.5
	c-0.2,0.2-0.5,0.5-0.7,0.7c-0.2,0.3-0.4,0.5-0.6,0.8c-0.2,0.3-0.3,0.5-0.4,0.8c-0.1,0.2-0.1,0.5-0.1,0.7c0,0.2,0.2,0.4,0.4,0.5
	c0.3,0,0.7,0,1-0.1c0.4-0.1,0.7-0.2,1.1-0.3c0.4-0.1,0.8-0.3,1.2-0.4l1-0.4l0.8-0.3c0.1-0.1,0.3-0.1,0.4,0c0.1,0.1,0.2,0.1,0.1,0.2
	c-0.1,0.1-0.2,0.3-0.3,0.3c-0.2,0.2-0.5,0.3-0.7,0.4c-0.3,0.1-0.6,0.3-0.9,0.4c-0.3,0.1-0.7,0.2-1,0.3c-0.4,0.1-0.7,0.2-1,0.3
	c-0.3,0.1-0.6,0.1-0.9,0.1C46.4,65,46.1,65,45.9,64.9z"/>
<path d="M51.7,64.8C51.7,64.8,51.7,64.7,51.7,64.8c0-0.1,0-0.1,0-0.1l0.2-0.3l0.3-0.5l0.3-0.5l0.2-0.3l0.1-0.2l0.3-0.4l0.3-0.5
	l0.4-0.6l0.3-0.6l0.3-0.4l0.6-1l0.7-1.1l0.7-1.1c0.2-0.3,0.4-0.6,0.7-0.9c0.1-0.2,0.3-0.3,0.5-0.5c0.1-0.1,0.2,0,0.3,0.2
	c0,0.1,0,0.1,0,0.2c0,0.1,0,0.1,0,0.2l-0.2,0.3l-0.3,0.5l-0.3,0.5l-0.2,0.3l-0.4,0.5l-0.6,0.9l-0.7,1l-0.6,1
	c-0.2,0.3-0.3,0.6-0.4,0.8c-0.1,0.2-0.1,0.3-0.1,0.4c0.2-0.1,0.5-0.2,0.7-0.3c0.2-0.1,0.5-0.3,0.7-0.5l0.7-0.5
	c0.2-0.1,0.4-0.3,0.7-0.4c0.2,0,0.4,0.1,0.5,0.2c0.2,0.1,0.3,0.3,0.3,0.5c0,0.1,0,0.2,0,0.4s0,0.4,0,0.6s0,0.4,0,0.6s0,0.3,0,0.4
	c0,0.1,0.1,0.2,0.1,0.3c0.1,0.1,0.2,0.3,0.2,0.4l0.2,0.3c0.1,0.1,0.1,0.2,0.1,0.2c-0.2,0.1-0.3,0.1-0.5,0c-0.1-0.1-0.3-0.1-0.4-0.2
	c-0.1-0.1-0.2-0.3-0.3-0.4c-0.1-0.1-0.1-0.3-0.1-0.4c0-0.1,0-0.2,0-0.4s0-0.4,0-0.6s0-0.4,0-0.6s0-0.3,0-0.4l-0.3-0.2
	c0,0-0.1,0-0.3,0.1c-0.2,0.1-0.3,0.2-0.4,0.3l-0.5,0.4l-0.5,0.4L54.5,63l-0.2,0.2l-0.4,0.3L53.3,64l-0.6,0.6L52.4,65
	c-0.1,0-0.2,0-0.3,0C51.9,65,51.8,64.9,51.7,64.8C51.7,64.8,51.7,64.8,51.7,64.8z"/>
<path d="M60.7,64.9c-0.1-0.2-0.1-0.5,0-0.7c0.1-0.3,0.1-0.5,0.2-0.8c0.1-0.3,0.2-0.5,0.3-0.8l0.3-0.6l0.2-0.4l0.3-0.6l0.3-0.8
	l0.4-0.7l0.3-0.6l0.2-0.4c-0.2,0-0.4,0-0.6,0l-0.9,0.2l-1,0.2c-0.3,0.1-0.7,0.1-1,0.2c-0.3,0-0.5,0-0.8,0c-0.2,0-0.3-0.1-0.4-0.2
	c0.1-0.1,0.3-0.2,0.7-0.4c0.4-0.1,0.9-0.3,1.5-0.4c0.6-0.1,1.3-0.3,2-0.5l2.2-0.4l2.2-0.4l1.9-0.3c0.6-0.1,1-0.1,1.4-0.2
	c0.3,0,0.5,0,0.5,0c0,0.1,0,0.2,0,0.2c0,0.1-0.1,0.2-0.2,0.2L69.5,57L68,57.2l-1.5,0.3l-1.3,0.2c-0.3,0.1-0.6,0.2-0.8,0.4
	c-0.3,0.3-0.5,0.6-0.7,0.9c-0.3,0.4-0.5,0.8-0.7,1.2c-0.2,0.5-0.4,0.9-0.6,1.3S62,62.5,61.9,63s-0.3,0.8-0.5,1.1
	c-0.1,0.3-0.2,0.5-0.4,0.8c-0.1,0.2-0.2,0.3-0.3,0.2L60.7,64.9L60.7,64.9z"/>
<path d="M65.7,64.9c0-0.1,0-0.2,0-0.3c0-0.2,0.1-0.4,0.1-0.7s0.1-0.6,0.2-0.9s0.1-0.7,0.2-1c0.1-0.3,0.2-0.5,0.2-0.8
	c0.1-0.2,0.1-0.3,0.3-0.5c0,0,0.1-0.1,0.2,0c0,0,0,0,0,0c0.1,0.1,0.1,0.1,0.2,0.2c0.1,0.1,0.1,0.1,0.2,0.2c0.1,0.1,0.1,0.1,0.2,0
	c0,0,0,0,0,0c0.2-0.3,0.5-0.6,0.8-0.9c0.3-0.3,0.6-0.5,1-0.8c0.1-0.1,0.2-0.1,0.3-0.1l0.5-0.2l0.6-0.1c0.2,0,0.4,0,0.5,0
	c0.1,0,0.2,0,0.3,0.1c0.1,0.1,0,0.2-0.1,0.3c-0.4,0-0.7,0.1-1.1,0.2c-0.4,0.2-0.7,0.4-1,0.6c-0.3,0.3-0.6,0.6-0.9,0.9
	c-0.3,0.3-0.5,0.7-0.8,1c-0.2,0.3-0.4,0.7-0.6,1l-0.5,0.9c-0.1,0.3-0.3,0.5-0.4,0.6S66.1,65,66,65l-0.1,0L65.7,64.9z"/>
<path d="M72.4,64.9c-0.2-0.1-0.4-0.2-0.6-0.4c-0.1-0.2-0.2-0.4-0.3-0.6c0-0.2,0-0.4,0-0.6c0-0.2,0.1-0.4,0.1-0.6l0.9-0.9
	c0.3-0.3,0.7-0.7,1-1c0.4-0.3,0.7-0.6,1.1-0.9c0.4-0.3,0.8-0.5,1.2-0.6c0.1-0.1,0.2-0.1,0.3,0c0.1,0.1,0.1,0.2,0.2,0.3
	c0,0.1,0,0.3,0,0.5c0,0.2,0,0.3,0,0.5c0,0.1-0.1,0.3-0.1,0.4c0,0.1-0.1,0.2-0.1,0.3c-0.1,0.1-0.3,0.2-0.4,0.3l-0.7,0.4l-0.8,0.4
	l-0.8,0.4c-0.2,0.1-0.5,0.3-0.7,0.4c-0.2,0.1-0.3,0.3-0.5,0.4c-0.1,0.1-0.1,0.3-0.1,0.4c0,0.1,0.1,0.3,0.3,0.4c0.4,0,0.7,0,1.1,0
	c0.4-0.1,0.8-0.1,1.3-0.2l1.2-0.3l1-0.2l0.2,0.1c-0.2,0.2-0.3,0.3-0.5,0.4c-0.3,0.2-0.5,0.3-0.8,0.4c-0.3,0.1-0.7,0.2-1,0.3
	c-0.3,0.1-0.7,0.1-1,0.2c-0.3,0-0.6,0.1-0.9,0.1C72.9,65.1,72.6,65,72.4,64.9z M75.5,60.3c0,0-0.1,0-0.2,0.1l-0.4,0.3l-0.6,0.4
	l-0.6,0.4l-0.4,0.3c-0.1,0.1-0.2,0.1-0.1,0.2c0.2,0,0.4,0,0.5-0.1c0.2-0.1,0.5-0.2,0.7-0.3c0.2-0.1,0.5-0.2,0.7-0.4
	c0.2-0.1,0.4-0.3,0.5-0.4c0.1-0.1,0.2-0.2,0.2-0.4C75.8,60.4,75.7,60.3,75.5,60.3L75.5,60.3z"/>
<path d="M81.7,64.9c0-0.3,0-0.5,0.1-0.8c0.1-0.3,0.2-0.5,0.3-0.8c0.1-0.3,0.3-0.5,0.4-0.8s0.3-0.5,0.4-0.8c0.1-0.2,0.2-0.5,0.2-0.7
	c0-0.2,0-0.5-0.1-0.7c-0.2-0.1-0.5-0.1-0.8,0c-0.3,0.1-0.6,0.3-0.9,0.5c-0.3,0.2-0.7,0.5-1,0.8c-0.3,0.3-0.7,0.6-1,0.9l-0.9,0.8
	c-0.2,0.2-0.5,0.5-0.8,0.7c-0.2,0.1-0.4,0.3-0.6,0.3c-0.1,0-0.2,0-0.3-0.1c0,0,0,0,0,0L77,64l0.2-0.5l0.3-0.7l0.4-0.7l0.4-0.8
	l0.4-0.7c0.1-0.2,0.2-0.4,0.3-0.5c0-0.1,0.1-0.2,0.2-0.2c0.1,0.1,0.2,0.2,0.3,0.4c0,0.1,0,0.3-0.1,0.4c-0.1,0.1-0.1,0.3-0.2,0.4
	c-0.1,0.1-0.1,0.3,0,0.4l0.6-0.4c0.2-0.2,0.5-0.3,0.8-0.5l0.9-0.5c0.3-0.2,0.6-0.3,0.9-0.4c0.2-0.1,0.5-0.1,0.7-0.2
	c0.2,0,0.4,0.1,0.5,0.2c0.1,0.2,0.2,0.4,0.1,0.6c-0.1,0.4-0.2,0.8-0.4,1.2l-0.1,0.2L83,62.5L82.8,63l-0.2,0.5l-0.2,0.4l-0.1,0.2
	c0,0.1,0,0.1,0,0.2c0,0.1,0,0.2,0,0.3c0,0.1,0,0.2-0.1,0.3c0,0.1-0.1,0.2-0.1,0.2c0,0-0.1,0-0.1,0h-0.1L81.7,64.9L81.7,64.9z"/>
<path d="M89.4,64.8c-0.2-0.1-0.3-0.2-0.4-0.4c-0.1-0.1-0.2-0.3-0.3-0.4c-0.1-0.2-0.1-0.3-0.2-0.5c-0.1-0.2-0.1-0.3-0.1-0.5h-0.1
	c-0.6,0.5-1.2,0.9-1.8,1.2c-0.4,0.2-0.8,0.4-1.3,0.5c-0.3,0.1-0.6,0-0.8-0.1c-0.2-0.1-0.3-0.3-0.4-0.5c-0.1-0.3-0.1-0.5,0-0.8
	c0.1-0.3,0.2-0.6,0.4-0.9c0.2-0.3,0.5-0.6,0.7-0.8c0.3-0.3,0.6-0.5,1-0.7c0.4-0.2,0.9-0.3,1.3-0.3c0.5,0,1,0,1.5,0.2l0.1-0.1
	l1.7-3.3c0.2,0,0.4,0.1,0.4,0.3c0,0.2,0,0.4,0,0.5c-0.1,0.2-0.1,0.4-0.2,0.6l-0.2,0.4l-0.1,0.3l-0.3,0.5l-0.3,0.6l-0.3,0.6l-0.3,0.5
	l-0.1,0.3c-0.1,0.1-0.1,0.3-0.2,0.5c0,0.2,0,0.3,0,0.5c0,0.2,0,0.3,0,0.5v0.5c0,0.1,0.1,0.3,0.2,0.4c0.1,0.1,0.2,0.2,0.3,0.2
	l0.3,0.2c0.1,0.1,0.2,0.2,0.3,0.3c0,0.1-0.1,0.2-0.2,0.2c-0.1,0-0.2,0-0.3-0.1c-0.1,0-0.2-0.1-0.3-0.1L89.4,64.8z M84.6,64.2
	c0,0.1,0.1,0.2,0.2,0.1c0.2,0,0.3-0.1,0.5-0.2c0.2-0.1,0.5-0.2,0.7-0.4c0.3-0.2,0.5-0.3,0.8-0.5s0.5-0.4,0.7-0.6
	c0.2-0.2,0.4-0.4,0.6-0.6c0.1-0.2,0.3-0.3,0.4-0.5c0.1-0.1,0.1-0.2,0.1-0.3c-0.3-0.1-0.6-0.2-0.9-0.2c-0.3,0-0.7,0.1-1,0.2
	c-0.3,0.1-0.6,0.3-0.9,0.5c-0.3,0.2-0.5,0.4-0.8,0.7c-0.2,0.2-0.3,0.5-0.4,0.8C84.5,63.6,84.5,63.9,84.6,64.2L84.6,64.2z"/>
<path d="M91,64.9c-0.1-0.1-0.1-0.2,0-0.3c0.1-0.1,0.3-0.3,0.5-0.4c0.2-0.1,0.5-0.3,0.8-0.4l0.8-0.4l0.7-0.3c0.1-0.1,0.3-0.1,0.4-0.2
	c0.2-0.1,0.3-0.3,0.4-0.5c0.1-0.1,0.1-0.2,0-0.3c-0.1-0.1-0.3-0.2-0.4-0.2c-0.2-0.1-0.4-0.1-0.6-0.2l-0.7-0.1l-0.7-0.1
	c-0.2,0-0.4-0.1-0.6-0.1c-0.1,0-0.2-0.1-0.3-0.2c-0.1-0.1-0.1-0.2,0-0.3c0.1-0.2,0.3-0.3,0.5-0.4l0.5-0.4l0.8-0.5
	c0.3-0.2,0.5-0.3,0.8-0.4c0.2-0.1,0.4-0.2,0.7-0.2c0.1,0,0.2,0,0.3,0c0.1,0,0.2,0.1,0.2,0.1c0.1,0,0.1,0.1,0.1,0.2
	c0,0.1-0.1,0.1-0.2,0.2l-1.4,0.7c-0.5,0.2-0.9,0.5-1.4,0.8c0,0.1,0,0.1,0,0.2c0,0,0.1,0.1,0.1,0.1c0.6,0,1.2,0.1,1.8,0.3
	c0.4,0.1,0.7,0.2,1,0.4c0.2,0.1,0.3,0.3,0.3,0.5c0,0.2-0.1,0.4-0.2,0.5c-0.2,0.2-0.4,0.4-0.6,0.5c-0.3,0.2-0.5,0.3-0.8,0.5
	c-0.3,0.2-0.6,0.3-0.9,0.4c-0.3,0.1-0.6,0.2-0.9,0.3c-0.2,0.1-0.5,0.1-0.7,0.2C91.2,65,91.1,65,91,64.9z"/>
</svg>
