<?xml version="1.0" encoding="utf-8"?>
<!-- Generator: Adobe Illustrator 20.1.0, SVG Export Plug-In . SVG Version: 6.00 Build 0)  -->
<svg version="1.1" id="Calque_1" xmlns="http://www.w3.org/2000/svg" xmlns:xlink="http://www.w3.org/1999/xlink" x="0px" y="0px"
	 viewBox="0 0 130 70" style="enable-background:new 0 0 130 70;" xml:space="preserve">
<style type="text/css">
	.st0{fill:none;}
	.st1{fill:#6C215F;}
</style>
<title>logo-recrutement</title>
<rect class="st0" width="130" height="70"/>
<path class="st1" d="M89.7,35.2c0-2.9-2.3-5.2-5.2-5.2c0,0,0,0,0,0c-0.3,0-0.5,0-0.8,0.1l-2.4-11.5c2.8-0.6,4.6-3.3,4.1-6.1
	c-0.6-2.8-3.3-4.6-6.1-4.1c-2.4,0.5-4.2,2.6-4.2,5.1c0,0.3,0,0.6,0.1,0.9l-21.5,3.4c-0.8-2.7-3.7-4.3-6.4-3.5S43,18,43.8,20.8
	c0.5,1.9,2.1,3.3,4,3.6l-2.2,19.3h-0.1c-2.9,0-5.2,2.3-5.2,5.2s2.3,5.2,5.2,5.2c2,0,3.8-1.1,4.7-2.9l17,4.5c0,0.2-0.1,0.5-0.1,0.7
	c-0.1,2.9,2.1,5.3,4.9,5.4c2.9,0.1,5.3-2.1,5.4-4.9c0-0.2,0-0.3,0-0.5c0-1.7-0.9-3.3-2.3-4.3l7.2-12.2c0.7,0.3,1.5,0.5,2.2,0.6
	C87.4,40.4,89.6,38.1,89.7,35.2z M88.8,35.2c0,2.4-2,4.4-4.4,4.4c-2.4,0-4.4-2-4.4-4.4c0-2.4,2-4.4,4.4-4.4l0,0
	C86.9,30.9,88.8,32.8,88.8,35.2z M71.8,51.2c-0.6,0.1-1.2,0.2-1.8,0.5l-5.8-9.2l9.8-3.3L71.8,51.2z M63.7,41.8l-4.1-6.5l7.4-7.4
	l8.5,3.8l-1.2,6.7L63.7,41.8z M49.5,45.6l9.6-9.7l4,6.2l-13,4.3C49.9,46.1,49.7,45.9,49.5,45.6z M53.2,21.7l12.9,5.8l-7,7.1
	l-7.2-11.3C52.5,22.9,52.9,22.3,53.2,21.7z M77.1,17.6c0.2,0.2,0.5,0.4,0.8,0.6l-2.3,12.7l-8-3.7L77.1,17.6z M76.2,32.1l3.4,1.5
	c-0.2,0.5-0.2,1.1-0.2,1.7c0,0.5,0.1,1,0.2,1.4l-4.5,1.4L76.2,32.1z M82.9,30.4c-1.3,0.4-2.4,1.3-3,2.5l-3.6-1.6l2.3-12.7
	c0.5,0.2,1.1,0.2,1.7,0.2h0.2L82.9,30.4z M80.2,9.3c2.4,0,4.4,2,4.4,4.4s-2,4.4-4.4,4.4s-4.4-2-4.4-4.4c0,0,0,0,0,0
	C75.9,11.2,77.8,9.3,80.2,9.3z M75.3,15.3c0.2,0.7,0.6,1.3,1.1,1.8L66.7,27l-13.2-6c0.2-0.5,0.3-1.1,0.3-1.7c0-0.2,0-0.4-0.1-0.6
	L75.3,15.3z M44.3,19.3c0-2.4,2-4.4,4.4-4.4c2.4,0,4.4,2,4.4,4.4c0,2.4-2,4.4-4.4,4.4h-0.5C46,23.4,44.3,21.5,44.3,19.3L44.3,19.3z
	 M48.4,24.5h0.2c0.9,0,1.8-0.2,2.6-0.7l7.3,11.5L49,45c-0.7-0.7-1.6-1.1-2.6-1.3L48.4,24.5z M45.4,53.2c-2.4,0-4.4-2-4.4-4.4
	c0-2.4,2-4.4,4.4-4.4c2.4,0,4.4,2,4.4,4.4C49.8,51.2,47.9,53.1,45.4,53.2L45.4,53.2z M50.3,50.4c0.3-1,0.3-2.2,0-3.2l13.1-4.3
	l5.9,9.2c-1,0.7-1.7,1.7-2.1,2.8L50.3,50.4z M76.6,56.4c0,2.4-2,4.4-4.4,4.3c-2.4,0-4.4-2-4.3-4.4c0-2.4,2-4.3,4.4-4.3
	C74.6,52,76.6,53.9,76.6,56.4C76.6,56.4,76.6,56.4,76.6,56.4L76.6,56.4z M74.4,51.7c-0.5-0.2-1.1-0.4-1.7-0.5l2.2-12.2l4.9-1.6
	c0.4,0.8,1,1.6,1.8,2.1L74.4,51.7z"/>
</svg>
