<?xml version="1.0" encoding="utf-8"?>
<!-- Generator: Adobe Illustrator 20.0.0, SVG Export Plug-In . SVG Version: 6.00 Build 0)  -->
<svg version="1.1" id="Calque_1" xmlns="http://www.w3.org/2000/svg" xmlns:xlink="http://www.w3.org/1999/xlink" x="0px" y="0px"
	 viewBox="0 0 200 80" style="enable-background:new 0 0 200 80;" xml:space="preserve">
<style type="text/css">
	.st0{fill:#656565;}
	.st1{fill:#0084BB;}
	.st2{fill:#F7D65F;}
</style>
<title>python-logo</title>
<g id="Calque_2">
	<g id="g2303">
		<path id="path46" class="st0" d="M76.2,40.8c0-5.9-1.7-9-5.1-9.2c-1.3-0.1-2.7,0.2-3.9,0.7c-0.7,0.2-1.4,0.6-2,1.1v14.2
			c1.7,1.2,3.7,1.9,5.8,1.9C74.4,49.2,76.2,46.4,76.2,40.8z M80.3,41.1c0.1,2.7-0.6,5.3-2.1,7.5c-1.5,2.2-4,3.5-6.6,3.5
			c-2.3,0-4.6-0.7-6.5-2V63l-3.6-1.3V33c0.6-0.8,1.4-1.4,2.3-1.9c2.4-1.3,5.1-2,7.9-1.9l0.1,0c2.6-0.1,5.2,1.2,6.5,3.5
			C79.7,35.2,80.5,38.1,80.3,41.1L80.3,41.1z"/>
		<path id="path48" class="st0" d="M102.6,49.5c0,4.1-0.4,6.9-1.2,8.4c-1.1,1.8-2.7,3.1-4.7,3.7c-1.9,0.7-3.9,1.1-6,1.2l-0.6-2.3
			c1.6-0.2,3.1-0.5,4.7-0.9c1.5-0.4,2.8-1.4,3.6-2.7c0.5-1,0.8-2.9,0.8-5.7v-1c-2.5,1.1-5.1,1.7-7.8,1.7c-1.7,0-3.4-0.6-4.7-1.7
			c-1.5-1.1-2.3-2.8-2.3-4.7V30.5l3.6-1.2v15.2c-0.1,1.4,0.5,2.8,1.6,3.8c1.2,0.9,2.6,1.4,4.1,1.3c1.9-0.1,3.8-0.8,5.3-1.9V29.8h3.6
			L102.6,49.5z"/>
		<path id="path50" class="st0" d="M116.7,51.9c-0.4,0-0.8,0-1.2,0c-1.7,0.1-3.4-0.4-4.8-1.5c-1.2-1-1.8-2.5-1.7-4.1V32h-2.5v-2.3
			h2.5v-6.1l3.6-1.3v7.4h4.1v2.3h-4.1v14.2c-0.1,1.1,0.3,2.2,1.1,2.9c0.9,0.5,1.9,0.8,3,0.8L116.7,51.9z"/>
		<path id="path52" class="st0" d="M138.8,51.6h-3.6v-14c0-1.3-0.3-2.6-1-3.7c-0.7-1.1-1.9-1.8-3.2-1.7c-1.7,0-3.8,0.9-6.3,2.6v16.8
			h-3.6V18l3.6-1.2v15.3c2.2-1.6,4.9-2.5,7.6-2.5c1.8-0.1,3.5,0.6,4.7,1.9c1.2,1.3,1.8,3,1.8,4.8L138.8,51.6z"/>
		<path id="path54" class="st0" d="M158.1,40.2c0.1-2-0.4-3.9-1.3-5.7c-0.9-1.8-2.8-2.9-4.8-2.9c-4,0.2-6,3.1-6,8.6
			c-0.1,2.2,0.4,4.3,1.2,6.3c0.8,2,2.7,3.2,4.8,3.2C156.1,49.7,158.1,46.5,158.1,40.2z M162.1,40.2c0.1,2.9-0.8,5.8-2.5,8.1
			c-1.8,2.4-4.6,3.7-7.6,3.6c-2.9,0.1-5.8-1.2-7.5-3.6c-1.7-2.3-2.6-5.2-2.5-8.1c-0.1-2.8,0.9-5.6,2.6-7.7c1.8-2.2,4.5-3.4,7.4-3.3
			c2.8-0.1,5.6,1.1,7.4,3.3C161.2,34.7,162.2,37.5,162.1,40.2L162.1,40.2z"/>
		<path id="path56" class="st0" d="M182.9,51.6h-3.6V36.7c0.1-1.4-0.5-2.8-1.5-3.8c-1.1-0.9-2.5-1.4-3.9-1.3
			c-1.8,0.1-3.5,0.6-4.9,1.7v18.3h-3.6V32.9c1.7-1.3,3.7-2.4,5.8-3c1.4-0.4,2.9-0.6,4.4-0.6c0.8,0,1.6,0.1,2.4,0.2
			c1.3,0.3,2.5,0.9,3.5,1.8c1,0.9,1.5,2.2,1.5,3.6L182.9,51.6z"/>
		<path id="path1948" class="st1" d="M25.5,18.1c-1.8,0-3.5,0.2-5.2,0.5c-4.6,0.8-5.5,2.5-5.5,5.7v4.2h10.9v1.4H10.7
			c-3.3-0.1-6.2,2.3-6.8,5.6c-1,3.6-1,7.5,0,11.1c0.8,3.2,2.6,5.6,5.8,5.6h3.8v-5c0.1-3.7,3.1-6.7,6.8-6.8h10.9c3,0,5.5-2.5,5.5-5.5
			c0,0,0,0,0,0l0,0V24.3c0-3-2.5-5.2-5.5-5.7C29.3,18.3,27.4,18.1,25.5,18.1z M19.6,21.5c1.2,0,2.1,0.8,2.2,2c0,1.2-0.8,2.1-2,2.2
			c-1.2,0-2.1-0.8-2.2-2c0,0,0,0,0,0l0,0C17.6,22.5,18.5,21.5,19.6,21.5L19.6,21.5z"/>
		<path id="path1950" class="st2" d="M38.1,29.9v4.9c0,3.8-3.1,6.9-6.8,6.9h-11c-3,0.1-5.5,2.5-5.5,5.6v10.4c0,3,2.6,4.7,5.5,5.6
			c3.6,1.1,7.4,1.1,10.9,0c2.8-0.8,5.5-2.4,5.5-5.6v-4.2H25.7v-1.4h16.4c3.2,0,4.4-2.2,5.5-5.5s1.1-6.7,0-11.1
			c-0.8-3.2-2.3-5.5-5.5-5.5L38.1,29.9z M31.9,56.2c1.2,0,2.1,0.8,2.2,2c0,1.2-0.8,2.1-2,2.2c-1.2,0-2.1-0.8-2.2-2c0,0,0,0,0,0
			c0,0,0,0,0-0.1C29.9,57.2,30.8,56.3,31.9,56.2z"/>
		<path id="text3004" class="st0" d="M190,26.5h0.6v-4h1.5V22h-3.7v0.5h1.5L190,26.5 M192.7,26.5h0.5v-3.7l1.2,3.7h0.6l1.2-3.6v3.6
			h0.6V22h-0.8l-1.4,3.8l-1.1-3.8h-0.9L192.7,26.5"/>
	</g>
</g>
</svg>
