<svg xmlns="http://www.w3.org/2000/svg" viewBox="0 0 200 80"><defs><style>.cls-1{fill:#394e55;}.cls-2{fill:#0eaada;}.cls-3{fill:#27b8eb;}.cls-4{fill:#048cb9;}.cls-5{fill:#009bc6;}.cls-6{fill:#00add4;}.cls-7{fill:#33bdea;}.cls-8{fill:#d5ecf0;}.cls-9{fill:#c0dce1;}.cls-10{fill:none;}</style></defs><title>docker-logo</title><g id="Calque_2" data-name="Calque 2"><path id="outline" class="cls-1" d="M46.75,48.86H54v7.36h3.67a16,16,0,0,0,5-.85,13,13,0,0,0,2.45-1.1,9,9,0,0,1-1.7-4.65c-.21-2.24.25-5.16,1.78-6.92l.76-.87.92.71c2.27,1.83,4.2,4.37,4.53,7.27a11.17,11.17,0,0,1,8.41.78l1,.57-.52,1c-2.05,4-6.34,5.2-10.53,5C63.51,72.66,49.85,80,33.28,80c-8.56,0-16.42-3.17-20.88-10.7l-.07-.12-.64-1.31A20.69,20.69,0,0,1,10,57.29l.1-1.09h6.2V48.84h7.25V41.67H38.05V34.48h8.7Z"/><g id="body_colors" data-name="body colors"><path class="cls-2" d="M70.23,51.57c.49-3.75-2.34-6.69-4.09-8.08-2,2.32-2.33,8.38.84,10.94-1.77,1.56-5.49,3-9.31,3H11.21a19.28,19.28,0,0,0,1.93,10.7l.53,1a17.42,17.42,0,0,0,1.1,1.63h0q2.87.18,5.28.13h0a26.13,26.13,0,0,0,7.71-1.11.55.55,0,1,1,.36,1L27.3,71h0a24.37,24.37,0,0,1-5.33.85c.12,0-.13,0-.13,0l-.24,0c-.85,0-1.74.06-2.67.06s-2,0-3.11-.08l0,0c3.87,4.32,9.91,6.9,17.51,6.9,16.05,0,29.67-7.06,35.7-22.9,4.28.44,8.39-.65,10.26-4.27A10.25,10.25,0,0,0,70.23,51.57Z"/><path class="cls-3" d="M70.23,51.57c.49-3.75-2.34-6.69-4.09-8.08-2,2.32-2.33,8.38.84,10.94-1.77,1.56-5.49,3-9.31,3H14C13.77,63.45,16,68,20,70.82h0a26.13,26.13,0,0,0,7.71-1.11.55.55,0,0,1,.37,1L27.3,71h0a25.67,25.67,0,0,1-5.47.9l-.05,0c5.46,2.78,13.38,2.77,22.47-.69A63,63,0,0,0,70.53,51.44,2,2,0,0,0,70.23,51.57Z"/><path class="cls-4" d="M11.3,62.2a18.27,18.27,0,0,0,1.84,5.9l.53,1a17.42,17.42,0,0,0,1.1,1.63q2.87.18,5.28.13a26.13,26.13,0,0,0,7.71-1.11.55.55,0,1,1,.37,1L27.3,71h0a25.68,25.68,0,0,1-5.46.88h-.28c-.85,0-1.74.08-2.66.08s-2.05,0-3.17-.08c3.87,4.32,10,6.91,17.56,6.91C47,78.8,59,73.62,65.93,62.19Z"/><path class="cls-5" d="M14.38,62.2A13.83,13.83,0,0,0,20,70.82a26.13,26.13,0,0,0,7.71-1.11.55.55,0,1,1,.36,1L27.3,71h0a26.06,26.06,0,0,1-5.5.88c5.46,2.78,13.36,2.74,22.45-.72a59.46,59.46,0,0,0,15.53-9Z"/></g><g id="Containers"><path class="cls-6" d="M22.78,50.57h.5v5.19h-.5Zm-1,0h.52v5.19h-.52Zm-1,0h.52v5.19h-.52Zm-1,0h.52v5.19h-.52Zm-1,0h.52v5.19H19Zm-.93,0h.5v5.19H18Zm-.52-.52H23.8v6.23H17.52Z"/><path class="cls-6" d="M30,43.39h.5v5.19H30Zm-1,0h.52v5.19h-.52Zm-1,0h.52v5.19h-.52Zm-1,0h.52v5.19h-.52Zm-.95,0h.52v5.19h-.52Zm-.93,0h.5v5.19h-.5Zm-.52-.52h6.28V49.1H24.76Z"/><path class="cls-7" d="M30,50.57h.5v5.19H30Zm-1,0h.52v5.19h-.52Zm-1,0h.52v5.19h-.52Zm-1,0h.52v5.19h-.52Zm-.95,0h.52v5.19h-.52Zm-.93,0h.5v5.19h-.5Zm-.53-.52H31v6.23H24.76Z"/><path class="cls-6" d="M37.27,50.57h.5v5.19h-.5Zm-1,0h.52v5.19h-.51Zm-1,0h.52v5.19h-.52Zm-1,0h.52v5.19h-.52Zm-1,0H34v5.19h-.52Zm-.93,0H33v5.19h-.5ZM32,50.05h6.29v6.23H32Z"/><path class="cls-7" d="M37.27,43.39h.5v5.19h-.5Zm-1,0h.52v5.19h-.51Zm-1,0h.52v5.19h-.52Zm-1,0h.52v5.19h-.52Zm-1,0H34v5.19h-.52Zm-.93,0H33v5.19h-.5ZM32,42.87h6.29V49.1H32Z"/><path class="cls-7" d="M44.52,50.57H45v5.19h-.5Zm-1,0h.52v5.19h-.52Zm-1,0h.5v5.19h-.52Zm-1,0h.52v5.19h-.52Zm-1,0h.52v5.19h-.52Zm-.93,0h.5v5.19h-.5Zm-.53-.52h6.28v6.23H39.26Z"/><path class="cls-6" d="M44.52,43.39H45v5.19h-.5Zm-1,0h.52v5.19h-.52Zm-1,0h.5v5.19h-.52Zm-1,0h.52v5.19h-.52Zm-1,0h.52v5.19h-.52Zm-.93,0h.5v5.19h-.5Zm-.52-.52h6.28V49.1H39.26Z"/><path class="cls-7" d="M44.52,36.2H45v5.19h-.5Zm-1,0h.52v5.19h-.52Zm-1,0h.5v5.19h-.52Zm-1,0h.52v5.19h-.52Zm-1,0h.52v5.19h-.52Zm-.93,0h.5v5.19h-.5Zm-.52-.52h6.28v6.23H39.26Z"/><path class="cls-6" d="M51.77,50.57h.5v5.19h-.5Zm-1,0h.51v5.19h-.52Zm-1,0h.52v5.19h-.52Zm-1,0h.52v5.19h-.52Zm-1,0h.52v5.19H48Zm-.93,0h.5v5.19H47Zm-.52-.52H52.8v6.23H46.52Z"/></g><path class="cls-8" d="M30.66,66.38a1.72,1.72,0,1,1-1.73,1.72,1.72,1.72,0,0,1,1.73-1.72h0"/><path class="cls-1" d="M30.66,66.87a1.25,1.25,0,0,1,.45.08.5.5,0,1,0,.7.68,1.21,1.21,0,0,1,.09.47,1.24,1.24,0,1,1-1.25-1.23h0"/><path class="cls-1" d="M0,62.82H80.61c-1.76-.44-5.56-1-4.93-3.32-3.19,3.66-10.89,2.57-12.83.76-2.16,3.11-14.76,1.93-15.63-.5-2.71,3.16-11.12,3.16-13.83,0-.88,2.42-13.47,3.61-15.63.5-1.94,1.81-9.63,2.9-12.83-.76.63,2.28-3.17,2.88-4.93,3.32"/><path class="cls-9" d="M35.26,78.77a15.2,15.2,0,0,1-8-7.76,26.79,26.79,0,0,1-5.74.85q-1.26.07-2.65.07-1.6,0-3.37-.09c3.94,3.9,8.78,6.9,17.74,7Q34.28,78.81,35.26,78.77Z"/><path class="cls-8" d="M28.9,73.77A14.87,14.87,0,0,1,27.3,71a26.82,26.82,0,0,1-5.74.85A17.84,17.84,0,0,0,28.9,73.77Z"/><path class="cls-1" d="M165.32,66.13l7.43-6.34c.85-.72,1.77-1.47,2.61-2.23a6.52,6.52,0,0,0-2.75-1.81,6.35,6.35,0,0,0-5.6.53,6.26,6.26,0,0,0-3.21,6.06,5.78,5.78,0,0,0,.87,2.91,7.73,7.73,0,0,0,.65.88m2.87,2a7.85,7.85,0,0,0,3.85.14,8.41,8.41,0,0,1,2.87-.87l.09,0,.08,0a1.89,1.89,0,0,1,.9.8,1.58,1.58,0,0,1-.63,2.23l-.28.16a9.59,9.59,0,0,1-9.7-.13A9,9,0,0,1,161.85,67l-.2-.34a9.3,9.3,0,0,1,.54-10.49,9.11,9.11,0,0,1,3-2.73l.46-.26a9.52,9.52,0,0,1,9.25-.09,9,9,0,0,1,3.9,3.59L179,57c.67,1.15-.2,2.15-1.09,2.83s-2.08,1.75-3.08,2.6l-6.65,5.71Zm23.75-15.9h.33a1.58,1.58,0,0,1,1.67,1.66c0,1.37-1.32,1.72-2.47,1.72a6,6,0,0,0-4,1.91,6.28,6.28,0,0,0-1.85,4.65v8a1.53,1.53,0,0,1-1.54,1.66h-.27a1.53,1.53,0,0,1-1.54-1.66V61.71a9.78,9.78,0,0,1,9.63-9.48Zm-41.65,5.69c1.3-1.29,2.6-2.57,3.92-3.84.37-.35,1.76-1.85,2.3-1.85h.67a1.47,1.47,0,0,1,1.33,1.45V54c0,.57-.65,1.2-1,1.58-.77.81-1.58,1.59-2.36,2.38l-4,4.06,5.2,5.2c.48.48,1,1,1.42,1.45a3.64,3.64,0,0,1,.55.63,1.36,1.36,0,0,1,.24.75v.34l0,.08A1.57,1.57,0,0,1,157,71.85h-.27c-.57,0-1.18-.62-1.55-1-.78-.73-1.53-1.5-2.3-2.24l-2.57-2.5v4a1.53,1.53,0,0,1-1.54,1.66h-.26a1.53,1.53,0,0,1-1.54-1.66V47.64A1.52,1.52,0,0,1,148.48,46h.26a1.53,1.53,0,0,1,1.54,1.66Zm-10.84-2.25a6.47,6.47,0,0,0-8,3.56,6,6,0,0,0-.59,2.67,6.41,6.41,0,0,0,4.06,6,7.67,7.67,0,0,0,3.16.53,8.3,8.3,0,0,0,3-.92l.14-.07h.69a1.47,1.47,0,0,1,1.33,1.44v.33c0,2-3.72,2.48-5.14,2.58a9.45,9.45,0,0,1-10.18-7.12,8.49,8.49,0,0,1-.36-2.49v-.66a9.3,9.3,0,0,1,4.9-8.27A9.21,9.21,0,0,1,137.15,52h.66a8.55,8.55,0,0,1,4.89,1.5l.12.08.07.12a1.74,1.74,0,0,1,.28.87v.33c0,.85-.64,1.3-1.42,1.45h-.26a7.33,7.33,0,0,1-2.06-.71ZM109,62a6.34,6.34,0,0,0,3.4,5.66,6.23,6.23,0,0,0,3.29.89,6.42,6.42,0,0,0,5.66-3.36,6.12,6.12,0,0,0,.89-3.27,6.69,6.69,0,0,0-6.62-6.48,6.37,6.37,0,0,0-6,3.89A6,6,0,0,0,109,62Zm6.29-9.88h.46a9.49,9.49,0,0,1,8.68,5.22,8.85,8.85,0,0,1,1.13,4.34v.66a9.73,9.73,0,0,1-9.62,9.55h-.66A9.37,9.37,0,0,1,106.93,67a9.06,9.06,0,0,1-1.29-4.68v-.65a9.31,9.31,0,0,1,4.9-8.27A9.21,9.21,0,0,1,115.27,52.1ZM87.1,62a6.69,6.69,0,0,0,6.55,6.56,6.45,6.45,0,0,0,5.79-3.36,6.18,6.18,0,0,0,.89-3.27,6.72,6.72,0,0,0-6.62-6.49,6.37,6.37,0,0,0-6,3.89A6,6,0,0,0,87.1,62Zm13.23-7.4v-7a1.53,1.53,0,0,1,1.54-1.66h.27a1.53,1.53,0,0,1,1.54,1.66V62.3a9.74,9.74,0,0,1-9.63,9.55h-.66A9.36,9.36,0,0,1,85.05,67a9.06,9.06,0,0,1-1.29-4.68v-.65a9.73,9.73,0,0,1,9.63-9.55h.66A9.26,9.26,0,0,1,100.34,54.58Z"/></g><g id="Calque_1" data-name="Calque 1"><rect class="cls-10" width="200" height="80"/></g></svg>