<?xml version="1.0" encoding="utf-8"?>
<!-- Generator: Adobe Illustrator 20.0.0, SVG Export Plug-In . SVG Version: 6.00 Build 0)  -->
<svg version="1.1" id="Calque_1" xmlns="http://www.w3.org/2000/svg" xmlns:xlink="http://www.w3.org/1999/xlink" x="0px" y="0px"
	 viewBox="0 0 200 80" style="enable-background:new 0 0 200 80;" xml:space="preserve">
<style type="text/css">
	.st0{fill:#010101;}
	.st1{fill:#8DC04D;}
	.st2{fill:#C7133F;}
	.st3{fill:#1E1E1C;}
</style>
<title>raspberrypi-logo</title>
<g id="Calque_2">
	<path class="st0" d="M66.5,73.9v3.4h-2.1v-8.9h3.4c0.9,0,1.7,0.2,2.5,0.7c0.6,0.5,0.9,1.2,0.9,2c0,0.4-0.1,0.8-0.4,1.2
		c-0.3,0.4-0.6,0.6-1.1,0.8c0.5,0.1,0.9,0.4,1.2,0.8c0.3,0.4,0.4,0.9,0.4,1.3v0.6c0,0.3,0,0.5,0.1,0.8c0,0.3,0.2,0.5,0.4,0.6v0.1
		h-2.1c-0.2-0.2-0.3-0.4-0.3-0.7c0-0.3-0.1-0.6-0.1-0.9v-0.5c0-0.4-0.1-0.7-0.3-1c-0.3-0.2-0.6-0.4-1-0.3L66.5,73.9z M66.5,72.3h1.4
		c0.4,0,0.7-0.1,1-0.3c0.2-0.2,0.4-0.5,0.3-0.8c0-0.3-0.1-0.6-0.3-0.9c-0.3-0.2-0.6-0.4-1-0.3h-1.4V72.3z"/>
	<path class="st0" d="M76.4,77.3c-0.1-0.1-0.1-0.2-0.2-0.3c0-0.1-0.1-0.3-0.1-0.4c-0.2,0.3-0.4,0.5-0.7,0.7c-0.3,0.2-0.7,0.2-1,0.2
		c-0.6,0-1.1-0.2-1.5-0.5c-0.4-0.4-0.6-0.9-0.6-1.4c0-0.6,0.3-1.2,0.7-1.5c0.7-0.4,1.5-0.6,2.2-0.5H76v-0.5c0-0.2-0.1-0.5-0.2-0.7
		c-0.2-0.2-0.4-0.2-0.6-0.2c-0.2,0-0.4,0-0.5,0.2c-0.1,0.1-0.2,0.3-0.2,0.5h-2l0,0c0-0.6,0.3-1.2,0.8-1.5c0.6-0.4,1.4-0.6,2.1-0.6
		c0.7,0,1.4,0.2,2,0.6c0.5,0.4,0.8,1.1,0.8,1.8v2.5c0,0.3,0,0.7,0.1,1c0.1,0.3,0.2,0.6,0.3,0.9L76.4,77.3z M75,76
		c0.2,0,0.4,0,0.6-0.1c0.2-0.1,0.3-0.2,0.4-0.3v-1h-0.7c-0.3,0-0.5,0.1-0.7,0.2c-0.1,0.2-0.2,0.4-0.2,0.6c0,0.2,0.1,0.3,0.2,0.5
		C74.6,76,74.8,76,75,76z"/>
	<path class="st0" d="M82.6,75.5c0-0.2-0.1-0.4-0.2-0.5c-0.3-0.2-0.6-0.3-1-0.3c-0.6-0.1-1.2-0.3-1.7-0.7c-0.4-0.3-0.6-0.8-0.6-1.3
		c0-0.6,0.3-1.1,0.7-1.5c0.6-0.4,1.3-0.7,2-0.6c0.7,0,1.5,0.2,2.1,0.6c0.5,0.3,0.8,0.9,0.8,1.5l0,0h-2c0-0.2-0.1-0.4-0.2-0.6
		c-0.2-0.1-0.4-0.2-0.6-0.2c-0.2,0-0.4,0.1-0.5,0.2c-0.1,0.1-0.2,0.3-0.2,0.4c0,0.2,0.1,0.4,0.2,0.4c0.3,0.2,0.6,0.3,1,0.3
		c0.6,0.1,1.3,0.3,1.8,0.7c0.4,0.3,0.6,0.8,0.6,1.3c0,0.6-0.3,1.1-0.8,1.5c-0.6,0.4-1.3,0.6-2.1,0.6c-0.8,0-1.5-0.2-2.1-0.7
		c-0.5-0.4-0.8-0.9-0.8-1.5l0,0h1.9c0,0.3,0.1,0.5,0.3,0.7c0.2,0.2,0.5,0.2,0.8,0.2c0.2,0,0.4,0,0.6-0.2
		C82.6,75.8,82.6,75.6,82.6,75.5z"/>
	<path class="st0" d="M91.7,74.2c0,0.9-0.2,1.7-0.7,2.4c-0.4,0.6-1.2,0.9-1.9,0.9c-0.6,0-1.1-0.3-1.5-0.7v3.1h-2.1v-9.2h1.9l0.1,0.7
		c0.2-0.3,0.4-0.5,0.7-0.6c0.3-0.2,0.6-0.2,0.9-0.2c0.8,0,1.5,0.3,1.9,0.9c0.5,0.7,0.7,1.6,0.7,2.5V74.2z M89.7,74
		c0-0.5-0.1-0.9-0.3-1.3c-0.1-0.3-0.4-0.5-0.8-0.5c-0.2,0-0.4,0-0.6,0.1c-0.2,0.1-0.3,0.2-0.4,0.4v2.8c0.1,0.1,0.2,0.3,0.4,0.3
		c0.2,0.1,0.4,0.1,0.6,0.1c0.3,0,0.6-0.2,0.8-0.4c0.2-0.4,0.3-0.8,0.2-1.3L89.7,74z"/>
	<path class="st0" d="M98.8,74.2c0,0.9-0.2,1.7-0.7,2.4c-0.4,0.6-1.2,0.9-1.9,0.9c-0.3,0-0.7-0.1-1-0.2c-0.3-0.2-0.5-0.4-0.7-0.7
		l-0.1,0.8h-1.8v-9.5h2.1v3.6c0.2-0.2,0.4-0.4,0.6-0.6c0.3-0.1,0.5-0.2,0.8-0.2c0.8,0,1.5,0.3,1.9,0.9c0.5,0.7,0.7,1.6,0.7,2.5V74.2
		z M96.7,74c0-0.5-0.1-0.9-0.2-1.4c-0.1-0.3-0.5-0.5-0.8-0.5c-0.2,0-0.4,0-0.6,0.1c-0.2,0.1-0.3,0.2-0.4,0.4v2.8
		c0.1,0.1,0.2,0.3,0.4,0.3c0.2,0.1,0.4,0.1,0.6,0.1c0.3,0,0.7-0.1,0.8-0.4c0.2-0.4,0.2-0.8,0.2-1.3L96.7,74z"/>
	<path class="st0" d="M102.7,77.5c-0.9,0-1.7-0.3-2.3-0.9c-0.6-0.6-0.9-1.4-0.9-2.3V74c0-0.9,0.2-1.8,0.8-2.5
		c1.2-1.2,3.1-1.3,4.4-0.1c0.5,0.6,0.8,1.4,0.7,2.2v1.1h-3.7l0,0c0,0.3,0.2,0.6,0.4,0.8c0.3,0.2,0.6,0.3,0.9,0.3
		c0.3,0,0.6,0,0.9-0.1c0.3-0.1,0.6-0.2,0.9-0.3l0.5,1.3c-0.3,0.2-0.7,0.4-1.1,0.5C103.7,77.4,103.2,77.5,102.7,77.5z M102.5,72.2
		c-0.3,0-0.5,0.1-0.7,0.3c-0.2,0.3-0.3,0.5-0.3,0.8l0,0h1.8v-0.2c0-0.3-0.1-0.5-0.2-0.8C103,72.2,102.8,72.1,102.5,72.2L102.5,72.2z
		"/>
	<path class="st0" d="M110,72.5h-0.8c-0.2,0-0.4,0-0.6,0.1c-0.1,0.1-0.3,0.2-0.3,0.3v4.3h-2.1v-6.6h2l0.1,1c0.1-0.3,0.3-0.6,0.6-0.8
		c0.2-0.2,0.5-0.3,0.8-0.3h0.3l0.3,0.1L110,72.5z"/>
	<path class="st0" d="M114.7,72.5h-0.8c-0.2,0-0.4,0-0.6,0.1c-0.1,0.1-0.3,0.2-0.3,0.3v4.3h-2.1v-6.6h1.9l0.1,1
		c0.1-0.3,0.3-0.6,0.5-0.8c0.2-0.2,0.5-0.3,0.8-0.3h0.3l0.3,0.1L114.7,72.5z"/>
	<path class="st0" d="M118.2,74.4L118.2,74.4L118.2,74.4l1.1-3.7h2.2l-2.6,7.6c-0.2,0.5-0.4,0.9-0.8,1.2c-0.4,0.4-1,0.5-1.5,0.5
		c-0.1,0-0.3,0-0.4,0l-0.5-0.1l0.2-1.5h0.1h0.1c0.2,0,0.5,0,0.7-0.1c0.2-0.1,0.3-0.3,0.3-0.4l0.2-0.4l-2.3-6.7h2.2L118.2,74.4z"/>
	<path class="st0" d="M127.4,74.3v3.1h-2v-8.9h3.6c0.9,0,1.8,0.2,2.5,0.8c1.2,1.1,1.2,2.9,0.2,4.1c-0.1,0.1-0.1,0.1-0.2,0.2
		c-0.7,0.6-1.6,0.9-2.5,0.8L127.4,74.3z M127.4,72.7h1.5c0.4,0,0.7-0.1,1-0.4c0.3-0.3,0.4-0.6,0.3-1c0-0.4-0.1-0.7-0.3-1
		c-0.3-0.3-0.6-0.4-1-0.4h-1.5V72.7z"/>
	<path class="st0" d="M135.6,69.2h-2.1v-1.4h2.1V69.2z M135.6,77.3h-2.1v-6.6h2.1V77.3z"/>
	<path class="st0" d="M87.1,0.9c-0.4,0-0.8,0.2-1,0.4c-0.9-0.5-1.9-0.4-2.7,0.2c-1.3-0.2-1.7,0.2-2,0.6c-0.3,0-2.1-0.3-2.9,0.9
		c-2.1-0.2-2.8,1.2-2,2.6c-0.7,0.7-0.6,1.8,0.1,2.5c0,0,0,0,0,0c-0.3,0.7-0.1,1.4,0.7,2.4c-0.2,0.9,0.2,1.8,1,2.2
		c-0.1,1.3,1.2,2.1,1.7,2.4c0.2,0.8,0.5,1.5,2.1,1.9c0.3,1.2,1.2,1.4,2.1,1.6c-3,1.7-5.7,4-5.6,9.7L78,29c-4.3,2.9-5.5,8.7-2.7,13.1
		c0.3,0.4,0.6,0.8,0.9,1.2c0.3,1.5,0.8,2.9,1.3,4.3c0.5,3.8,3.1,7,6.6,8.3c1.9,1.5,4,2.7,6.3,3.5c2,2.2,4.8,3.4,7.8,3.4h0.1
		c3,0,5.8-1.3,7.8-3.4c2.3-0.8,4.4-2,6.3-3.5c3.6-1.4,6.1-4.6,6.6-8.3c0.6-1.4,1-2.8,1.3-4.3c3.5-3.8,3.3-9.8-0.5-13.3
		c-0.4-0.3-0.8-0.7-1.2-0.9l-0.4-0.8c0-5.6-2.6-7.9-5.6-9.7c0.9-0.2,1.9-0.4,2.1-1.6c1.6-0.4,1.9-1.1,2.1-1.9
		c0.4-0.3,1.8-1.1,1.6-2.4c0.8-0.4,1.2-1.3,1-2.2c0.8-0.9,1.1-1.7,0.7-2.4c0.7-0.6,0.8-1.8,0.1-2.5c0,0,0,0-0.1-0.1
		c0.8-1.4,0.1-2.8-2-2.6c-0.8-1.2-2.6-1-2.9-0.9c-0.3-0.4-0.7-0.7-2-0.6c-0.8-0.6-1.8-0.7-2.7-0.2c-1.1-0.9-1.9-0.2-2.7,0.1
		c-1.4-0.4-1.7,0.2-2.4,0.4c-1.5-0.3-2,0.4-2.7,1.1h-0.8C100.3,4.1,99,6,98.4,8.2c-0.6-2.2-1.9-4.1-3.8-5.3h-0.8
		c-0.7-0.7-1.2-1.4-2.7-1.1c-0.7-0.2-1-0.9-2.4-0.4C88.2,1.1,87.7,0.9,87.1,0.9z"/>
	<path class="st1" d="M82.6,6.6c6,3,9.5,5.5,11.4,7.6c-1,3.9-6.1,4-7.9,3.9c0.4-0.1,0.6-0.4,0.8-0.7c-0.5-0.3-2.1,0-3.3-0.7
		c0.4,0,0.7-0.2,0.9-0.5c-1.1-0.2-2.1-0.6-3-1.2c0.4,0.1,0.9,0,1.2-0.2c-1-0.4-2-1-2.8-1.7c0.5,0,1.1,0,1.2-0.2
		c-0.8-0.5-1.6-1.1-2.3-1.8c0.7,0.1,1,0,1.2-0.1c-0.8-0.6-1.4-1.3-1.9-2.1c0.4,0.2,0.9,0.2,1.3,0c-0.2-0.5-1.2-0.8-1.8-2
		c0.5,0.1,1.1,0.1,1.3,0c-0.2-0.8-0.6-1.6-1.1-2.2c1,0,1.9,0,2.9-0.1l-0.7-0.7C80.9,3.6,82,3.7,83,4.1c0.4-0.3,0-0.7-0.5-1.1
		c0.9,0.1,1.8,0.3,2.7,0.7c0.4-0.4-0.3-0.8-0.6-1.1c1,0.2,2,0.5,2.8,1.1c0.5-0.4,0-0.8-0.3-1.2C88,2.8,88.8,3.3,89.5,4
		c0.2-0.3,0.5-0.5,0.1-1.2c0.7,0.4,1.4,0.9,1.9,1.6c0.5-0.3,0.3-0.8,0.3-1.1c0.7,0.6,1.4,1.3,2,2.1c0.2-0.3,0.3-0.6,0.3-0.9
		c2,1.9,4.9,6.8,0.7,8.7C91.2,10.3,87,8,82.6,6.6z"/>
	<path class="st1" d="M114.3,6.6c-6,3-9.5,5.5-11.4,7.6c1,3.9,6.1,4,7.9,3.9c-0.4-0.1-0.6-0.4-0.8-0.7c0.5-0.3,2.1,0,3.3-0.7
		c-0.4,0-0.7-0.2-0.9-0.5c1.1-0.2,2.1-0.6,3-1.2c-0.4,0.1-0.9,0-1.2-0.2c1-0.4,2-1,2.8-1.7c-0.5,0-1.1,0-1.2-0.2
		c0.8-0.5,1.6-1.1,2.3-1.8c-0.7,0.1-1,0-1.2-0.1c0.8-0.6,1.4-1.3,1.9-2.1c-0.4,0.2-0.9,0.2-1.3,0c0.2-0.5,1.2-0.8,1.8-2
		c-0.6,0.1-1.1,0.1-1.3,0c0.2-0.8,0.6-1.6,1.1-2.2c-1,0-1.9,0-2.9-0.1l0.7-0.7c-1.1-0.2-2.2-0.1-3.2,0.3c-0.4-0.3,0-0.7,0.5-1.1
		c-0.9,0.1-1.8,0.3-2.7,0.7c-0.4-0.4,0.3-0.8,0.6-1.1c-1,0.2-2,0.5-2.8,1.1c-0.5-0.4,0-0.8,0.3-1.2c-0.9,0.3-1.7,0.8-2.4,1.4
		c-0.2-0.3-0.5-0.5-0.1-1.2c-0.7,0.4-1.4,0.9-1.9,1.6c-0.5-0.3-0.3-0.8-0.3-1.1c-0.7,0.6-1.4,1.3-2,2.1c-0.2-0.3-0.3-0.6-0.3-0.9
		c-2,1.9-4.9,6.8-0.7,8.7C105.7,10.2,109.9,8,114.3,6.6z"/>
	<path class="st2" d="M106,45.8c0,3.6-3.2,6.5-7.1,6.5c-4,0-7.2-2.9-7.2-6.5v-0.1c0-3.6,3.2-6.5,7.1-6.5
		C102.8,39.3,106,42.2,106,45.8L106,45.8z"/>
	<path class="st2" d="M94.7,27.2c3,1.9,3.5,6.3,1.2,9.7s-6.6,4.7-9.5,2.8l0,0c-3-1.9-3.5-6.3-1.2-9.7S91.8,25.3,94.7,27.2L94.7,27.2
		z"/>
	<path class="st2" d="M102.7,26.9c-3,1.9-3.5,6.3-1.2,9.7s6.6,4.7,9.6,2.8l0,0c3-1.9,3.5-6.3,1.2-9.7S105.7,25,102.7,26.9z"/>
	<path class="st2" d="M79.9,30.4c3.2-0.9,1.1,13.1-1.5,11.9C75.5,40,74.5,33.4,79.9,30.4z"/>
	<path class="st2" d="M116.9,30.2c-3.2-0.9-1.1,13.1,1.5,11.9C121.3,39.8,122.2,33.2,116.9,30.2z"/>
	<path class="st2" d="M106,19.8c5.5-0.9,10.1,2.3,9.9,8.2C115.8,30.3,104,20.2,106,19.8z"/>
	<path class="st2" d="M90.7,19.7c-5.5-0.9-10.1,2.3-9.9,8.2C81,30.1,92.8,20,90.7,19.7z"/>
	<path class="st2" d="M98.7,18.3c-3.3-0.1-6.5,2.4-6.5,3.9c0,1.8,2.6,3.6,6.5,3.6s6.5-1.4,6.5-3.3C105.2,20.4,101.6,18.3,98.7,18.3z
		"/>
	<path class="st2" d="M98.9,54.4c2.9-0.1,6.7,0.9,6.8,2.3c0,1.4-3.5,4.3-6.9,4.3c-3.6,0.2-7-2.9-7-3.9C91.6,55.5,96,54.3,98.9,54.4
		L98.9,54.4z"/>
	<path class="st2" d="M88.2,46.2c2,2.4,3,6.7,1.3,8c-1.6,1-5.6,0.6-8.3-3.4c-1.9-3.3-1.6-6.7-0.3-7.7C82.9,42,85.9,43.6,88.2,46.2
		L88.2,46.2z"/>
	<path class="st2" d="M109.1,45.5c-2.2,2.6-3.4,7.2-1.8,8.7c1.6,1.2,5.7,1,8.8-3.2c2.2-2.8,1.5-7.5,0.2-8.8
		C114.4,40.8,111.7,42.7,109.1,45.5L109.1,45.5z"/>
	<path class="st3" d="M122.1,16c-2.3,0-4.1,1.8-4.1,4.1s1.8,4.1,4.1,4.1s4.1-1.8,4.1-4.1c0,0,0,0,0,0C126.3,17.8,124.4,16,122.1,16z
		 M122.1,23.6c-1.9,0-3.4-1.5-3.4-3.4s1.5-3.4,3.4-3.4c1.9,0,3.4,1.5,3.4,3.4l0,0l0,0C125.6,22,124,23.6,122.1,23.6z"/>
	<path class="st3" d="M120.4,17.9h2.4c0.7,0,1.2,0.5,1.3,1.1c0,0,0,0.1,0,0.1c0,0.5-0.2,0.9-0.7,1.1l0,0c0.5,0.1,0.6,0.6,0.6,1
		c0,0.3,0.1,0.7,0.2,1h-1c-0.1-0.3-0.1-0.7-0.2-1.1c-0.1-0.5-0.2-0.7-0.7-0.7h-0.9v1.7h-1V17.9z M121.4,19.9h1.1
		c0.4,0,0.7-0.2,0.7-0.6s-0.2-0.6-0.7-0.6h-1.1V19.9z"/>
</g>
</svg>
