<?xml version="1.0" encoding="utf-8"?>
<!-- Generator: Adobe Illustrator 20.0.0, SVG Export Plug-In . SVG Version: 6.00 Build 0)  -->
<svg version="1.1" id="Calque_1" xmlns="http://www.w3.org/2000/svg" xmlns:xlink="http://www.w3.org/1999/xlink" x="0px" y="0px"
	 viewBox="0 0 200 80" style="enable-background:new 0 0 200 80;" xml:space="preserve">
<style type="text/css">
	.st0{fill:#2A245D;}
	.st1{fill:#00A0C4;}
	.st2{fill:none;}
</style>
<title>sigfox-logo</title>
<g id="Calque_2">
	<path class="st0" d="M94.8,46.6c0.8,0.1,1.6-0.1,2.4-0.3c0.5-0.2,0.8-0.7,0.7-1.3c0-0.6-0.4-1-0.9-1.3c-0.9-0.5-1.8-0.9-2.7-1.2
		c-0.9-0.3-1.7-0.7-2.6-1.1c-0.7-0.3-1.4-0.8-2-1.4c-0.5-0.5-1-1.2-1.3-1.9c-0.3-0.8-0.5-1.7-0.4-2.6c-0.1-1.9,0.8-3.6,2.2-4.8
		c1.8-1.3,4-1.9,6.2-1.8c1.3,0,2.5,0.1,3.8,0.3c1,0.2,1.9,0.4,2.8,0.8l-1.1,4.7c-0.8-0.3-1.5-0.5-2.3-0.7c-0.9-0.2-1.8-0.3-2.8-0.3
		c-1.9,0-2.8,0.5-2.8,1.6c0,0.2,0,0.4,0.1,0.7c0.1,0.2,0.3,0.4,0.5,0.5c0.3,0.2,0.7,0.4,1,0.6c0.4,0.2,1,0.4,1.6,0.7
		c1.1,0.4,2.2,0.9,3.3,1.5c0.7,0.4,1.4,0.9,2,1.5c0.5,0.5,0.9,1.2,1.1,1.8c0.2,0.8,0.3,1.6,0.3,2.3c0.1,1.9-0.8,3.7-2.4,4.8
		c-2,1.2-4.4,1.8-6.8,1.6c-1.6,0-3.2-0.2-4.7-0.5c-0.9-0.2-1.8-0.5-2.6-0.8l1-4.9c1,0.4,2.1,0.8,3.2,1
		C92.6,46.5,93.7,46.6,94.8,46.6z"/>
	<path class="st0" d="M114.1,23.4c0,1-0.4,1.9-1.1,2.6c-1.4,1.3-3.6,1.3-5.1,0c-0.7-0.7-1.1-1.6-1.1-2.6c-0.1-1,0.3-2,1.1-2.6
		c1.5-1.3,3.6-1.3,5.1,0C113.8,21.4,114.2,22.4,114.1,23.4z M113.6,50.9h-6.1V29.6h6.1V50.9z"/>
	<path class="st0" d="M136.9,48.3c0,3.5-0.9,6.1-2.7,7.8c-1.8,1.7-4.5,2.5-8.2,2.5c-1.3,0-2.6-0.1-3.9-0.3c-1.2-0.2-2.4-0.5-3.6-0.9
		l1.1-5c1,0.4,2,0.7,3,0.9c1.2,0.2,2.4,0.3,3.6,0.3c1.3,0.1,2.7-0.3,3.7-1.1c0.7-0.8,1.1-1.8,1.1-2.9v-0.8c-0.6,0.3-1.3,0.5-2,0.7
		c-0.7,0.2-1.5,0.2-2.2,0.2c-3,0-5.2-0.9-6.8-2.6c-1.6-1.7-2.3-4.2-2.4-7.3c0-1.5,0.2-2.9,0.8-4.3c0.4-1.3,1.1-2.4,2-3.4
		c1-0.9,2.1-1.7,3.4-2.1c1.5-0.5,3-0.8,4.6-0.8c0.7,0,1.5,0,2.2,0.1s1.5,0.2,2.3,0.3c0.8,0.1,1.5,0.2,2.2,0.4
		c0.7,0.1,1.3,0.3,1.9,0.5L136.9,48.3z M123.6,39.6c0,3.4,1.4,5.1,4.1,5.1c0.6,0,1.2-0.1,1.8-0.2c0.5-0.1,0.9-0.3,1.4-0.6v-9.7
		c-0.3-0.1-0.7-0.1-1.1-0.1c-0.4,0-0.9-0.1-1.4-0.1c-1.4-0.1-2.7,0.5-3.6,1.6C124,36.7,123.5,38.1,123.6,39.6z"/>
	<path class="st0" d="M151,19.4c1.1,0,2.1,0.1,3.1,0.4c0.7,0.2,1.5,0.4,2.2,0.7l-1.2,4.8c-0.6-0.3-1.2-0.4-1.8-0.5
		c-0.6-0.1-1.2-0.2-1.8-0.2c-0.6,0-1.3,0.1-1.9,0.3c-0.5,0.2-0.9,0.5-1.2,0.8c-0.3,0.4-0.5,0.8-0.6,1.3c-0.1,0.5-0.2,1-0.2,1.6v1.1
		h7.5v5h-7.5v16.4h-6.1V28.4c-0.1-2.4,0.7-4.8,2.3-6.6C145.6,20.2,147.9,19.4,151,19.4z"/>
	<path class="st0" d="M177.7,40.2c0,1.6-0.2,3.1-0.8,4.6c-0.4,1.3-1.1,2.5-2.1,3.6c-0.9,1-2.1,1.8-3.3,2.3c-1.4,0.6-2.9,0.8-4.4,0.8
		c-1.5,0-2.9-0.3-4.3-0.8c-1.3-0.5-2.4-1.3-3.3-2.3c-0.9-1-1.7-2.2-2.1-3.6c-0.5-1.5-0.8-3-0.8-4.6c0-1.6,0.2-3.1,0.8-4.6
		c0.5-1.3,1.2-2.5,2.2-3.5c0.9-1,2.1-1.7,3.3-2.2c1.3-0.6,2.8-0.9,4.2-0.9c1.5,0,2.9,0.3,4.2,0.8c1.2,0.5,2.4,1.3,3.3,2.2
		c1,1,1.7,2.2,2.2,3.5C177.5,37.1,177.8,38.6,177.7,40.2z M171.6,40.2c0.1-1.6-0.3-3.1-1.1-4.4c-0.7-1.1-1.9-1.7-3.2-1.6
		c-1.3-0.1-2.5,0.6-3.2,1.6c-0.8,1.3-1.2,2.9-1.1,4.4c-0.1,1.6,0.3,3.1,1.1,4.4c0.7,1.1,1.9,1.7,3.2,1.6c1.3,0,2.5-0.6,3.2-1.6
		C171.2,43.3,171.6,41.8,171.6,40.2z"/>
	<path class="st0" d="M192.5,40.2l3.8-5.4l3.6-5.2h-6.5l-4.2,6l-4.2-6h-6.5l3.6,5.2l3.8,5.4l-3.8,5.4l-3.6,5.1h6.5l4.2-6l4.2,6h6.5
		l-3.6-5.2L192.5,40.2z"/>
	<path class="st0" d="M75,10c-5.2-5.2-21.1,2.2-36.7,16.7c1.2,1.1,2.4,2.2,3.6,3.4c5.6,5.5,10.6,11.6,14.9,18.2
		C72.2,32.2,80.3,15.4,75,10z"/>
	<path class="st0" d="M34.8,30.1C18.1,46.8,9.1,64.8,14.6,70.4l0,0c3.7,3.7,13,0.9,23.7-6.3V26.7C37.1,27.8,35.9,29,34.8,30.1z"/>
	<path class="st1" d="M41.9,30.1c-1.2-1.2-2.4-2.3-3.6-3.4C22.7,12.3,6.8,4.9,1.6,10l0,0c-5.3,5.4,2.8,22.2,18.2,38.3
		c4.3-6.6,9.3-12.7,14.9-18.2c1.2-1.2,2.4-2.3,3.6-3.4v37.4C49,71.3,58.3,74,62,70.4C67.6,64.8,58.5,46.8,41.9,30.1z"/>
</g>
<g id="Calque_1_1_">
	<rect class="st2" width="200" height="80"/>
</g>
</svg>
