<?xml version="1.0" encoding="utf-8"?>
<!-- Generator: Adobe Illustrator 20.1.0, SVG Export Plug-In . SVG Version: 6.00 Build 0)  -->
<svg version="1.1" id="Calque_1" xmlns="http://www.w3.org/2000/svg" xmlns:xlink="http://www.w3.org/1999/xlink" x="0px" y="0px"
	 viewBox="0 0 128 87" style="enable-background:new 0 0 128 87;" xml:space="preserve">
<style type="text/css">
	.st0{fill:none;}
	.st1{fill:#EF7F31;}
	.st2{fill:#67757C;}
	.st3{fill:#68757C;}
	.st4{fill:#68767D;}
	.st5{fill:#F39637;}
	.st6{fill:#818181;}
	.st7{fill:#DF622A;}
	.st8{fill:#808080;}
	.st9{fill:#E7AE3D;}
	.st10{fill:#C25929;}
	.st11{fill:#69777E;}
	.st12{fill:#DD9D41;}
	.st13{fill:#828282;}
	.st14{fill:#F49A39;}
	.st15{fill:#F39739;}
	.st16{fill:#F39839;}
	.st17{fill:#E0652D;}
	.st18{fill:#E8AF3F;}
	.st19{fill:#C35C2E;}
	.st20{fill:#E0662F;}
	.st21{fill:#DEA045;}
	.st22{fill:#E8B143;}
	.st23{fill:#C45F31;}
	.st24{fill:#F49D3E;}
	.st25{fill:#F49B40;}
	.st26{fill:#E26F3A;}
	.st27{fill:#C83568;}
	.st28{fill:#C5443D;}
	.st29{fill:#616F76;}
</style>
<title>logo-frenchsug</title>
<g id="Calque_2">
	<rect class="st0" width="128" height="87"/>
</g>
<g>
	<path class="st1" d="M91.3,24.5c0.1-4.4-3.5-8.1-7.9-8.2c-0.1,0-0.2,0-0.3,0H44.8c-4.4-0.1-8.1,3.4-8.2,7.9c0,0.1,0,0.1,0,0.2
		c0,12.7,0,25.4,0,38.1c0,4.4,3.6,8,8,8.1c0,0,0.1,0,0.1,0h45.8c0.5,0,0.7-0.1,0.7-0.7C91.3,54.8,91.3,39.7,91.3,24.5z M89,59.2
		c0,2.8,0,5.7,0,8.5c0,0.5-0.1,0.6-0.6,0.6H44.9c-3.2,0.1-5.8-2.4-5.9-5.6c0-0.1,0-0.2,0-0.3c0-12.6,0-25.2,0-37.9
		c-0.1-3.2,2.5-5.8,5.7-5.9c0.1,0,0.2,0,0.3,0h38.2c3.2,0,5.8,2.5,5.8,5.7c0,0.1,0,0.1,0,0.2C89,36.1,89,47.6,89,59.2z"/>
	<path class="st2" d="M62.5,51.3c-0.1-0.3-0.2-0.7-0.6-0.7c-0.4,0-0.8,0.2-1,0.5c-0.2,0.3-0.3,0.7-0.3,1.1c0,0.4,0,0.9,0,1.3
		c0,0.4-0.1,0.4-0.4,0.4s-0.4-0.1-0.4-0.4c0-0.8,0-1.6,0-2.4c0-0.2,0-0.5-0.3-0.5s-0.2-0.3-0.2-0.4s0.2-0.2,0.3-0.2
		c0.6,0,0.7,0.1,0.9,0.6c0.3-0.4,0.9-0.7,1.4-0.6c0.3,0,0.7,0.1,0.9,0.4c0.2,0.3,0.3,0.2,0.5,0c0.3-0.4,0.8-0.5,1.3-0.4
		c0.5,0,1,0.4,1,0.9c0.1,0.6,0.1,1.3,0.1,1.9c0,0.2,0,0.4,0.3,0.5c0.3,0.1,0.2,0.3,0.2,0.5c0,0.2-0.2,0.2-0.3,0.2
		c-0.8,0.1-0.9-0.1-0.9-0.8s0-1.2,0-1.8s-0.7-0.9-1.2-0.4c-0.4,0.4-0.6,0.9-0.6,1.4c0,0.4,0,0.9,0,1.3c0,0.1,0,0.3-0.2,0.3
		s-0.5,0.2-0.5-0.2C62.7,52.8,62.6,52,62.5,51.3z"/>
	<path class="st2" d="M66.8,61c0,0.3,0,0.6,0,0.9c0,0.3,0,0.4-0.2,0.4c-0.2,0-0.4,0.1-0.5-0.2c0-0.3-0.2-0.1-0.3-0.1
		c-0.5,0.3-1.1,0.4-1.7,0.4c-1.5-0.2-2.5-1.6-2.3-3.1c0,0,0,0,0,0c0.1-1.4,1.2-2.5,2.6-2.5c0.6,0,1.2,0.1,1.7,0.4
		c0.2,0.1,0.4,0.2,0.2,0.5c-0.2,0.3-0.2,0.4-0.6,0.2c-0.7-0.5-1.7-0.5-2.4,0.1c-0.7,0.6-0.9,1.6-0.6,2.4c0.4,1,1.5,1.5,2.5,1.2
		c0.2-0.1,0.4-0.2,0.6-0.4c0.4-0.3,0.4-0.7-0.1-0.9c-0.2-0.1-0.2-0.3-0.2-0.5c0-0.2,0.2-0.2,0.3-0.2c0.7-0.1,0.9,0.1,0.9,0.8
		C66.8,60.5,66.8,60.7,66.8,61z"/>
	<path class="st3" d="M43.9,57.6c-0.1-0.1-0.2-0.1-0.3-0.2c-0.3,0-0.2-0.3-0.2-0.4c0-0.2,0.1-0.2,0.3-0.3c0.7-0.1,1,0.1,1,0.9
		c0,0.8,0,1.7,0,2.6c-0.1,0.7,0.5,1.3,1.1,1.3c0.1,0,0.1,0,0.2,0c0.7,0,1.3-0.6,1.3-1.3c0-0.9,0-1.9,0-2.8c0-0.2,0-0.5,0.3-0.6
		c0.3-0.1,0.6-0.1,0.9,0c0.2,0.1,0.2,0.3,0.2,0.5c0,0.1-0.1,0.1-0.2,0.2c-0.4,0.1-0.3,0.4-0.3,0.6c0,0.8,0,1.6,0,2.4
		c-0.1,1.1-1,1.9-2.1,1.9c0,0-0.1,0-0.1,0c-1,0-1.9-0.8-2-1.8c0,0,0-0.1,0-0.1C44.1,59.5,44,58.5,43.9,57.6z"/>
	<path class="st2" d="M45.3,48.3c0.4,0,0.8,0.1,1.1,0.3c0.3,0.1,0.4,0.4,0.4,0.7c0,0.2,0.1,0.4-0.2,0.5s-0.5,0.1-0.6-0.3
		s-0.6-0.5-1-0.4c-0.3,0-0.6,0.3-0.7,0.6c-0.1,0.4,0.2,0.7,0.6,0.9c0.3,0.2,0.8,0.3,1.2,0.6c0.7,0.3,1.1,1.1,0.8,1.8
		c-0.3,0.7-1,1.2-1.7,1.1c-0.6,0-1.1-0.3-1.5-0.6c-0.2-0.2-0.2-0.3,0-0.6c0.2-0.2,0.3-0.2,0.5-0.1c0.3,0.3,0.8,0.5,1.2,0.4
		c0.4,0,0.7-0.2,0.8-0.6c0.1-0.3-0.1-0.7-0.4-0.8c-0.4-0.2-0.8-0.4-1.2-0.6c-0.7-0.2-1.1-1-1-1.7C43.8,48.7,44.5,48.2,45.3,48.3z"/>
	<path class="st4" d="M78.2,61.6c-0.3,0.3-0.7,0.6-1.2,0.7c-0.6,0.2-1.3-0.2-1.5-0.8c0-0.1,0-0.2,0-0.3c0-0.5,0-1.1,0-1.6
		c0-0.2,0-0.5-0.3-0.6c-0.3-0.1-0.2-0.2-0.2-0.4c0-0.1,0.2-0.2,0.3-0.2c0.8-0.1,1,0.1,1,0.9c0,0.6,0,1.1,0,1.7
		c0,0.4,0.2,0.7,0.6,0.8c0.1,0,0.3,0,0.4-0.1c0.6-0.2,0.9-0.7,0.9-1.3c0-0.5,0-1,0-1.6c0-0.3,0.1-0.4,0.4-0.4c0.3,0,0.4,0.1,0.4,0.4
		c0,0.8,0,1.6,0,2.3c0,0.2,0,0.5,0.3,0.5c0.3,0.1,0.2,0.3,0.2,0.4s-0.1,0.2-0.3,0.2C78.8,62.2,78.3,62.3,78.2,61.6z"/>
	<path class="st2" d="M57.8,53.2c-0.4,0.6-1.1,0.8-1.7,0.7c-0.6-0.1-1.1-0.6-1-1.3c0,0,0,0,0,0c0-0.5,0-1.1,0-1.6
		c0-0.2,0-0.5-0.3-0.5s-0.2-0.2-0.2-0.4c0-0.2,0.1-0.2,0.3-0.3c0.7-0.1,1,0.1,1,0.8s0,1.1,0,1.6c0,0.3,0,0.6,0.4,0.8
		c0.4,0.1,0.8,0.1,1-0.2c0.4-0.3,0.6-0.8,0.5-1.2c0-0.5,0-0.9,0-1.4s0.1-0.4,0.4-0.4c0.3,0,0.4,0.1,0.4,0.4c0,0.8,0,1.6,0,2.3
		c0,0.2,0,0.5,0.3,0.6c0.3,0.1,0.2,0.3,0.2,0.4s-0.2,0.2-0.4,0.2C58.3,53.9,57.8,54,57.8,53.2z"/>
	<path class="st5" d="M68.6,39c0-0.8,0.6-1.5,1.4-1.5c0,0,0.1,0,0.1,0c0.8,0,1.5,0.7,1.5,1.5c0,0.8-0.7,1.5-1.5,1.5c0,0,0,0,0,0
		c-0.8,0-1.5-0.6-1.5-1.4C68.6,39.1,68.6,39,68.6,39z"/>
	<path class="st6" d="M43.7,42.8c0-0.7,0-1.3,0-2.1c0-0.3,0.1-0.5,0.5-0.5c0.9,0,1.7,0,2.6,0c0.2,0,0.5,0,0.4,0.3
		c0,0.3-0.2,0.3-0.4,0.3c-0.6,0-1.3,0-1.9,0c-0.3,0-0.4,0.1-0.4,0.4c0,1.2,0,1.2,1.2,1.2h0.9c0.2,0,0.3,0,0.3,0.3
		c0,0.3-0.1,0.3-0.3,0.3c-0.5,0-1,0-1.5,0s-0.6,0.2-0.6,0.6c0,0.4,0,0.9,0,1.4c0,0.2-0.1,0.4-0.3,0.4c-0.3,0-0.4-0.1-0.4-0.4
		C43.7,44.3,43.7,43.6,43.7,42.8z"/>
	<path class="st7" d="M72.9,35.5c0,0.8-0.7,1.4-1.5,1.4c-0.8,0-1.4-0.7-1.4-1.5c0-0.8,0.7-1.4,1.5-1.4C72.3,34,72.9,34.7,72.9,35.5
		C72.9,35.5,72.9,35.5,72.9,35.5z"/>
	<path class="st8" d="M62.7,42c0.2-0.1,0.5-0.3,0.7-0.4c0.6-0.3,1.3,0,1.6,0.6c0.1,0.1,0.1,0.3,0.1,0.4c0.1,0.8,0,1.6,0,2.3
		c0,0.2-0.1,0.3-0.3,0.3c-0.2,0-0.3-0.1-0.3-0.4c0-0.6,0-1.2,0-1.8c0-0.7-0.2-1-0.7-1c-0.5-0.1-1,0.3-1,0.8c0,0.1,0,0.1,0,0.2
		c0,0.6,0,1.3,0,1.9c0,0.2,0,0.4-0.3,0.4c-0.3,0-0.3-0.2-0.3-0.4c0-1.4,0-2.9,0-4.3c0-0.2,0-0.4,0.3-0.4c0.3,0,0.3,0.2,0.3,0.4
		C62.7,41.1,62.7,41.5,62.7,42z"/>
	<path class="st4" d="M50.6,58.2c0.4,0,0.8,0.1,1,0.4c0.2,0.2,0.2,0.5,0,0.6c-0.2,0.1-0.4,0.1-0.6,0c0,0-0.1-0.1-0.1-0.1
		c-0.2-0.3-0.7-0.4-1-0.2c0,0,0,0-0.1,0c-0.3,0.2-0.2,0.5,0,0.6c0.3,0.2,0.6,0.3,0.9,0.4c0.8,0.3,1.1,0.8,1,1.3
		c-0.2,0.6-0.8,1-1.5,0.9c-0.4,0-0.8-0.2-1.2-0.4c-0.2-0.1-0.4-0.3-0.2-0.5s0.3-0.2,0.5,0c0.3,0.3,0.7,0.4,1.1,0.3
		c0.2,0,0.4-0.1,0.4-0.4c0-0.3-0.1-0.4-0.3-0.4L50,60.4c-0.8-0.4-1.1-0.8-1-1.3C49.1,58.6,49.7,58.2,50.6,58.2z"/>
	<path class="st4" d="M49.6,49.9c0.4,0,0.9,0.1,1.2,0.4c0.2,0.2,0.3,0.5,0.2,0.8c0,0.2-0.3,0.1-0.4,0.1c-0.2,0-0.2,0-0.2-0.1
		c-0.3-0.5-0.9-0.6-1.4-0.3c0,0-0.1,0.1-0.1,0.1c-0.5,0.5-0.6,1.3-0.3,1.9c0.4,0.6,1.3,0.8,1.9,0.4c0.1-0.1,0.3-0.4,0.5-0.1
		c0.2,0.2,0.3,0.4,0,0.6c-0.8,0.5-1.8,0.5-2.6,0c-0.7-0.5-1-1.5-0.7-2.3C47.9,50.3,48.7,49.8,49.6,49.9z"/>
	<path class="st9" d="M74.3,34.6c-0.8,0-1.4-0.6-1.4-1.4c0-0.8,0.6-1.4,1.4-1.4c0,0,0,0,0,0c0.7,0,1.3,0.6,1.4,1.3
		C75.7,34,75.1,34.6,74.3,34.6C74.3,34.6,74.3,34.6,74.3,34.6z"/>
	<path class="st6" d="M55.1,42.1c0.2-0.2,0.5-0.3,0.8-0.4c0.6-0.2,1.3,0.1,1.5,0.7c0.1,0.1,0.1,0.3,0.1,0.4c0,0.8,0,1.6,0,2.3
		c0,0.2-0.1,0.3-0.3,0.3s-0.3-0.1-0.3-0.3c0-0.7,0-1.3,0-2c0-0.5-0.1-0.9-0.7-0.9c-0.5-0.1-0.9,0.2-1,0.7c0,0,0,0,0,0.1
		c-0.1,0.7-0.1,1.3,0,2c0,0.2,0,0.5-0.3,0.5c-0.3,0-0.3-0.2-0.3-0.5c0-0.9,0-1.9,0-2.8c0-0.2-0.1-0.4,0.2-0.5
		C54.9,41.7,55,41.8,55.1,42.1z"/>
	<path class="st8" d="M58.2,43.7c0-1.4,0.8-2.2,2-2c0.4,0.1,0.8,0.3,1,0.7c0,0.1,0.2,0.3,0,0.4c-0.2,0.1-0.4,0.1-0.5-0.1
		c-0.2-0.4-0.6-0.7-1.1-0.5c0,0-0.1,0-0.1,0c-0.5,0.2-0.7,0.7-0.7,1.2c0,0.3,0,0.6,0,0.8c0.1,0.4,0.4,0.7,0.9,0.7
		c0.4,0.1,0.8-0.2,0.9-0.6c0.1-0.3,0.2-0.4,0.5-0.3s0.1,0.4,0,0.6c-0.3,0.6-0.9,0.9-1.6,0.8c-0.7-0.1-1.3-0.7-1.4-1.4
		C58.2,44,58.2,43.8,58.2,43.7z"/>
	<path class="st10" d="M77.7,33.9c-0.7,0-1.2-0.6-1.2-1.2c0,0,0,0,0-0.1c0-0.7,0.5-1.2,1.2-1.2c0,0,0.1,0,0.1,0
		c0.7-0.2,1.4,0.2,1.6,0.9c0.2,0.7-0.2,1.4-0.9,1.6C78.3,33.9,78.1,33.9,77.7,33.9L77.7,33.9z"/>
	<path class="st11" d="M52.8,50.6c0.2-0.3,0.6-0.6,1-0.7c0.2,0,0.4,0,0.4,0.3s0.1,0.4-0.3,0.5c-0.7,0.1-1.2,0.7-1.1,1.4
		c0,0.5,0,0.9,0,1.4c0,0.3,0,0.4-0.4,0.4c-0.4,0-0.4-0.2-0.4-0.4c0-0.8,0-1.5,0-2.3c0-0.2,0-0.5-0.3-0.6s-0.1-0.3-0.1-0.4
		c0-0.2,0.2-0.2,0.3-0.2C52.3,49.9,52.7,49.9,52.8,50.6z"/>
	<path class="st11" d="M57.9,58.9c0.3-0.3,0.5-0.6,0.9-0.6c0.4-0.1,0.4,0,0.4,0.2c0,0.2,0,0.4-0.3,0.5c-0.6,0.1-1.1,0.7-1.1,1.3
		c0,0.5,0,1,0,1.4c0,0.5-0.1,0.4-0.4,0.4s-0.4-0.2-0.4-0.4c0-0.8,0-1.6,0-2.3c0-0.2,0-0.5-0.3-0.6c-0.3-0.1-0.2-0.2-0.2-0.4
		c0-0.2,0.1-0.2,0.3-0.2C57.4,58.3,57.8,58.3,57.9,58.9z"/>
	<path class="st11" d="M68.7,58.9c0.3-0.3,0.6-0.6,0.9-0.6c0.4-0.1,0.4,0,0.4,0.3c0,0.3,0.1,0.4-0.3,0.5c-0.7,0.1-1.1,0.6-1.1,1.3
		c0,0,0,0,0,0c0,0.5,0,1,0,1.6c0,0.5-0.1,0.4-0.4,0.4s-0.4-0.2-0.4-0.4c0-0.8,0-1.6,0-2.4c0-0.2,0-0.4-0.3-0.5
		c-0.3-0.1-0.2-0.2-0.2-0.4s0.2-0.2,0.3-0.2C68.2,58.3,68.6,58.2,68.7,58.9z"/>
	<path class="st12" d="M82.2,33.6c0,0.6-0.5,1.2-1.1,1.2c0,0,0,0,0,0c-0.6,0-1.2-0.5-1.2-1.2c0-0.6,0.5-1.2,1.2-1.2
		C81.7,32.5,82.2,33,82.2,33.6C82.2,33.6,82.2,33.6,82.2,33.6z"/>
	<path class="st13" d="M48,43.6c0-0.5,0-1,0-1.5c0-0.1,0-0.3,0.2-0.4c0.2-0.1,0.3,0,0.4,0.2s0.2,0,0.3,0c0.2-0.2,0.6-0.3,0.9-0.2
		c0.1,0,0.4,0.1,0.2,0.3s0,0.3-0.4,0.3c-0.7,0-0.9,0.1-0.9,0.8c-0.1,0.7,0,1.3,0,1.9c0,0.2,0,0.4-0.3,0.4S48,45.3,48,45.1
		C48,44.6,48,44.1,48,43.6z"/>
	<path class="st14" d="M83.6,35.1c0.5,0,1,0.4,1,1c0,0,0,0.1,0,0.1c0,0.5-0.5,1-1,1c-0.6,0-1-0.5-1-1.1c0,0,0,0,0,0
		C82.6,35.5,83,35,83.6,35.1C83.6,35.1,83.6,35.1,83.6,35.1z"/>
	
		<ellipse transform="matrix(0.9999 -1.396218e-02 1.396218e-02 0.9999 -0.3623 1.0787)" class="st15" cx="77.1" cy="26.5" rx="1" ry="1"/>
	<path class="st16" d="M85.5,39.1c0,0.5-0.4,0.9-0.9,0.9s-0.9-0.4-0.9-0.9c0-0.5,0.4-0.9,0.9-0.9c0,0,0,0,0.1,0
		C85.1,38.1,85.5,38.5,85.5,39.1C85.5,39,85.5,39.1,85.5,39.1z"/>
	<path class="st17" d="M75.8,25.3c-0.5,0-0.9-0.4-0.9-0.9c0,0,0,0,0,0c0-0.5,0.4-0.9,0.9-0.9l0,0c0.5,0,0.9,0.4,0.9,0.9
		C76.8,24.9,76.3,25.3,75.8,25.3z"/>
	<path class="st18" d="M74.8,23.1c0,0.5-0.4,0.9-0.9,0.9c0,0-0.1,0-0.1,0c-0.4,0-0.8-0.3-0.8-0.7c0-0.1,0-0.1,0-0.2
		c0-0.5,0.4-0.9,0.9-0.9c0,0,0,0,0,0C74.4,22.3,74.8,22.6,74.8,23.1z"/>
	<path class="st19" d="M72.4,23.1c0,0.4-0.4,0.8-0.8,0.8s-0.8-0.4-0.8-0.8c0-0.4,0.4-0.8,0.8-0.8S72.4,22.7,72.4,23.1L72.4,23.1z"/>
	<path class="st20" d="M85,42.3c0,0.4-0.4,0.8-0.8,0.8c-0.4,0-0.8-0.4-0.8-0.8c0-0.4,0.3-0.8,0.8-0.9C84.7,41.5,85,41.8,85,42.3z"/>
	<path class="st21" d="M69.5,23.4c0.4,0,0.7,0.3,0.7,0.7c0,0,0,0,0,0c0,0.4-0.3,0.7-0.7,0.7c0,0,0,0,0,0c-0.4,0-0.7-0.3-0.7-0.7
		c0,0,0,0,0,0C68.8,23.7,69.1,23.4,69.5,23.4C69.5,23.4,69.5,23.4,69.5,23.4z"/>
	<path class="st22" d="M82.7,44.4c0.3,0,0.6,0.2,0.6,0.5c0,0,0,0.1,0,0.1c0.1,0.4-0.2,0.7-0.5,0.7c0,0-0.1,0-0.1,0
		c-0.4,0-0.7-0.2-0.7-0.6c0,0,0-0.1,0-0.1C81.8,44.7,82.1,44.4,82.7,44.4z"/>
	<path class="st23" d="M80,47.3c-0.3,0-0.6-0.3-0.6-0.6c0,0,0,0,0-0.1c0-0.3,0.3-0.6,0.6-0.6c0,0,0,0,0,0c0.3,0,0.6,0.2,0.7,0.6
		c0,0,0,0.1,0,0.1C80.7,47.1,80.4,47.3,80,47.3C80,47.3,80,47.3,80,47.3z"/>
	<path class="st24" d="M68.9,25.9c0,0.4-0.2,0.6-0.6,0.6c-0.3,0-0.6-0.2-0.6-0.6c0,0,0-0.1,0-0.1c0-0.3,0.2-0.6,0.5-0.6
		c0,0,0.1,0,0.1,0C68.7,25.2,68.9,25.4,68.9,25.9z"/>
	<path class="st25" d="M67.2,27.8c0-0.3,0.3-0.6,0.6-0.6c0,0,0.1,0,0.1,0c0.3,0,0.6,0.3,0.6,0.7c0,0.3-0.3,0.6-0.7,0.6l0,0
		C67.5,28.5,67.2,28.2,67.2,27.8C67.2,27.9,67.2,27.9,67.2,27.8z"/>
	<path class="st26" d="M68.4,29.3c0.3,0,0.5,0.2,0.5,0.5c0,0,0,0,0,0c0,0.3-0.3,0.5-0.6,0.4c-0.2,0-0.4-0.2-0.4-0.4
		C67.9,29.6,68.1,29.4,68.4,29.3C68.4,29.3,68.4,29.3,68.4,29.3z"/>
	<path class="st27" d="M70.2,31.5c0,0.3-0.1,0.5-0.4,0.5c-0.2,0-0.4-0.1-0.5-0.3c0,0,0-0.1,0-0.1c0-0.2,0.1-0.4,0.4-0.5
		c0,0,0,0,0.1,0C69.9,31,70.1,31.2,70.2,31.5C70.2,31.4,70.2,31.5,70.2,31.5z"/>
	<path class="st28" d="M71.4,31.8c0.3,0,0.4,0.2,0.5,0.4c0,0.2-0.1,0.4-0.3,0.4c0,0-0.1,0-0.1,0c-0.2,0-0.4-0.1-0.4-0.4
		c0,0,0,0,0-0.1C71,32.1,71.2,31.9,71.4,31.8z"/>
	<path class="st29" d="M43.9,57.6H44c0,0.9,0,1.8,0,2.6c0,1.3,0,0.1-0.1,0.1L43.9,57.6z"/>
	<path class="st29" d="M62.5,51.3c0,0,0.1-0.1,0.1-0.1c0.1,0.8,0.1,1.7-0.1,2.5L62.5,51.3z"/>
	<path class="st2" d="M83.9,59.3c-0.3-0.9-1.2-1.3-2.1-1c0,0-0.1,0-0.1,0.1c-0.3,0.1-0.6,0.4-0.9,0c-0.1-0.1-0.4,0-0.6,0
		c-0.1,0-0.2,0.1-0.2,0.2c0,0,0,0,0,0c0,0.1,0,0.3,0.1,0.3c0.5,0.1,0.4,0.4,0.4,0.7c0,1.2,0,2.5,0,3.7c0,0.3,0.1,0.4,0.4,0.4
		s0.4-0.1,0.4-0.4c0-0.3,0-0.9,0-1.4c1.4,0.7,2.6,0.3,2.9-1C84.1,60.4,84.1,59.8,83.9,59.3z M83,61.3c-0.3,0.4-0.8,0.5-1.2,0.4
		c-0.5-0.3-0.8-0.8-0.7-1.3c-0.1-0.5,0.2-1,0.6-1.2c0.4-0.2,1-0.1,1.2,0.3C83.3,59.9,83.3,60.7,83,61.3z"/>
	<path class="st4" d="M72.5,58.2c-1.1-0.1-2,0.8-2.1,1.9c0,0.1,0,0.1,0,0.2c0,1.1,0.9,2.1,2.1,2.1c0,0,0,0,0,0
		c1.2,0,2.1-0.9,2.1-2.1c0,0,0,0,0,0C74.6,59.1,73.7,58.2,72.5,58.2C72.5,58.2,72.5,58.2,72.5,58.2z M72.5,61.6
		c-0.8,0-1.4-0.6-1.4-1.4c0-0.8,0.6-1.4,1.4-1.4c0.8,0,1.4,0.6,1.4,1.4S73.2,61.6,72.5,61.6z"/>
	<path class="st4" d="M53.7,60.4c0.3,0,0.7,0,1,0s0.7,0,1.1,0c0.3,0,0.4-0.1,0.4-0.4c0-0.9-0.7-1.7-1.7-1.7c-0.2,0-0.4,0-0.6,0.1
		c-0.7,0.2-1.3,0.8-1.4,1.5c-0.2,0.8,0.1,1.6,0.8,2.1c0.7,0.5,1.6,0.5,2.3,0.1c0.2-0.1,0.5-0.2,0.3-0.6s-0.4-0.1-0.6,0
		c-0.6,0.4-1.4,0.2-1.8-0.4c0-0.1-0.1-0.1-0.1-0.2C53.3,60.5,53.3,60.3,53.7,60.4z M53.7,59.1c0.4-0.3,1-0.3,1.4,0.1
		c0.1,0.1,0.1,0.1,0.1,0.2c0.1,0.3,0.1,0.5-0.3,0.4h-0.7c-0.1,0-0.2,0-0.3,0c-0.2,0-0.5,0.1-0.6-0.1C53.3,59.4,53.5,59.2,53.7,59.1
		L53.7,59.1z"/>
	<path class="st8" d="M51.3,43.8c0.3,0,0.6,0,0.9,0h1.1c0.2,0,0.3-0.1,0.3-0.3c0-0.8-0.5-1.6-1.3-1.7c-0.8-0.2-1.7,0.2-2,1
		c-0.2,0.6-0.2,1.2,0,1.8c0.2,0.6,0.8,1,1.4,1c0.6,0.1,1.2-0.1,1.6-0.6c0.1-0.2,0.4-0.4,0.1-0.6s-0.5-0.1-0.6,0.2
		c-0.2,0.4-0.6,0.6-1,0.5c-0.4-0.1-0.8-0.4-0.9-0.8C50.8,43.9,50.8,43.7,51.3,43.8z M51.1,42.6c0.3-0.4,1-0.5,1.4-0.2
		c0.1,0.1,0.2,0.2,0.3,0.4c0.2,0.4,0.1,0.6-0.3,0.5c-0.2,0-0.4,0-0.6,0c-0.1,0-0.3,0-0.4,0c-0.2,0-0.4,0.1-0.5-0.1
		C50.8,42.9,51,42.7,51.1,42.6z"/>
</g>
</svg>
