<svg xmlns="http://www.w3.org/2000/svg" viewBox="0 0 200 80"><defs><style>.cls-1{fill:#e9af07;}.cls-2{fill:#c35a1a;}.cls-3{fill:#dd9c26;}.cls-4{fill:#f49813;}.cls-5{fill:#df6410;}.cls-6{fill:#f59b12;}.cls-7{fill:#c11b55;}.cls-8{fill:#c03020;}.cls-9{fill:#2593d2;}.cls-10{fill:none;}</style></defs><title>scrum-logo</title><g id="Calque_2" data-name="Calque 2"><g id="Calque_2-2" data-name="Calque 2"><path class="cls-1" d="M24.56,38.74a4,4,0,1,0-4,4,4,4,0,0,0,4-4h0"/><path class="cls-2" d="M34.54,36.89a3.67,3.67,0,1,0-3.67,3.67,3.67,3.67,0,0,0,3.67-3.67h0"/><path class="cls-3" d="M44,39.73a3.33,3.33,0,1,0-3.33,3.33A3.33,3.33,0,0,0,44,39.73"/><path class="cls-4" d="M13.05,55.67a4.51,4.51,0,1,0-4.51,4.51h0a4.51,4.51,0,0,0,4.51-4.51"/><path class="cls-5" d="M16.81,45.33a4.28,4.28,0,1,0-4.28,4.29,4.28,4.28,0,0,0,4.28-4.29h0"/><path class="cls-6" d="M50.85,46.88a2.94,2.94,0,1,0-2.94,2.94,2.94,2.94,0,0,0,2.94-2.94h0"/><path class="cls-4" d="M52.61,52.7a2.76,2.76,0,1,1-.07,0"/><path class="cls-5" d="M52,65.22a2.31,2.31,0,1,0,0,.06s0,0,0-.06h0"/><path class="cls-1" d="M47,73.49a2,2,0,1,0-2,2,2,2,0,0,0,2-2h0"/><path class="cls-2" d="M39.45,78.12A1.88,1.88,0,1,0,37.57,80h0a1.88,1.88,0,0,0,1.88-1.88h0"/><path class="cls-1" d="M19.92,4.24A3,3,0,1,1,23.3,6.75h0a3,3,0,0,1-3.38-2.52h0"/><path class="cls-2" d="M12.19,3.93a2.75,2.75,0,1,1,3.13,2.31h0a2.74,2.74,0,0,1-3.11-2.3h0"/><path class="cls-3" d="M5.18,7.26A2.51,2.51,0,1,1,8,9.39a2.45,2.45,0,0,1-2.83-2V7.28"/><path class="cls-4" d="M30.48,15.69a3.33,3.33,0,1,1,3.83,2.85h0a3.33,3.33,0,0,1-3.81-2.76v-.09"/><path class="cls-5" d="M26.48,8.34A3.2,3.2,0,1,1,30.15,11a3.2,3.2,0,0,1-3.67-2.71v0h0"/><path class="cls-6" d="M.93,13.3a2.22,2.22,0,1,1,2.54,1.9A2.22,2.22,0,0,1,.93,13.3v0h0"/><path class="cls-4" d="M-.25,20.46A2.07,2.07,0,1,1,2.1,22.22h0A2.07,2.07,0,0,1-.25,20.47h0"/><path class="cls-5" d="M2,27.24a1.76,1.76,0,1,1,2,1.47H4a1.75,1.75,0,0,1-2-1.46H2"/><path class="cls-7" d="M6.78,32.9A1.52,1.52,0,1,1,8.5,34.18h0A1.52,1.52,0,0,1,6.78,32.9h0"/><path class="cls-8" d="M13,35.56a1.44,1.44,0,1,1,1.65,1.19h0A1.44,1.44,0,0,1,13,35.54"/><path class="cls-9" d="M56.22,41h3.67l-.44,2.36C59,46.1,62,47.08,64.7,47.08c3.67,0,6.34-2.3,6.34-5.6,0-6.43-12.33-4-12.33-13.16,0-6,5.11-9.07,10.73-9.07,3.33,0,8.56,1.43,7.76,5.38L76.57,28H72.93l.35-2.13c.4-2.07-2.31-2.73-4.3-2.73-3.38,0-6.11,1.91-6.11,5,0,6.11,12.27,3.67,12.27,13.16,0,6.11-5.07,9.78-11,9.78-3.67,0-9.41-1.65-8.56-6.82"/><path class="cls-9" d="M91.92,27.89c2.91,0,7.76,1.22,7.11,5.17l-.48,2.52H95.1l.28-1.47c.28-1.79-2-2.57-3.88-2.57-4.44,0-8.49,4.36-8.49,9.42,0,3.81,2.27,6.3,6,6.3a10.73,10.73,0,0,0,6.9-2.87L97,47.63a12.12,12.12,0,0,1-8.37,3.25c-5.91,0-9.61-3.91-9.61-9.65,0-7.11,5.72-13.35,12.86-13.35"/><path class="cls-9" d="M105.6,32.61c.09-.51,0-1-.72-1h-2.51L103,28.4h4.55c1.55,0,2.15.61,2.15,1.87a21.22,21.22,0,0,1-.77,3.74H109c1.35-3.13,4.07-5.85,7.26-5.85a7.17,7.17,0,0,1,1.22.09l-.75,4.17a4.65,4.65,0,0,0-1.11-.13c-3.67,0-7.06,4.89-7.94,10l-1.41,8.18h-3.88"/><path class="cls-9" d="M121.71,42.3l1.88-10.69h-3.33l.6-3.25h7.22l-2.31,13.07a12.82,12.82,0,0,0-.32,2.52c0,1.91.75,3.08,3,3.08,4,0,7.34-4.52,8-8.68l1.22-6.74H134.4l.6-3.25h7.23l-2.81,15.52a8.28,8.28,0,0,0-.12,1.34c0,1.56.8,1.91,1.8,1.91a4.44,4.44,0,0,0,1-.09l-.6,3.26s-.88.09-1.83.09c-2.72,0-4.3-1.52-4-4.81h-.08a10,10,0,0,1-8.34,5.26c-3.07,0-5.67-1.65-5.67-5.79a14.41,14.41,0,0,1,.28-2.77"/><path class="cls-9" d="M150.25,32.57c.09-.57-.08-.92-.72-.92H147l.6-3.25h4.55c1.59,0,2.22.67,2.22,1.83a14,14,0,0,1-.6,3h.08c1-2,4.24-5.34,8-5.34,3.23,0,4.89,1.87,5.07,5.34H167a9.4,9.4,0,0,1,7.89-5.33c3.44,0,5.54,2.1,5.54,5.82,0,2.61-1.76,9.86-1.76,11.6s.8,1.91,1.8,1.91a5,5,0,0,0,1-.09l-.6,3.25a17,17,0,0,1-1.72.09c-1.79,0-4.44-.39-4.44-4.12,0-2,1.71-9.38,1.71-11.46s-.63-3.18-2.95-3.18c-3.76,0-6.65,4.44-7.34,8.65l-1.8,10h-3.81l2.34-13.19a20.16,20.16,0,0,0,.27-2.45c0-1.77-.63-3-2.87-3-3.86,0-6.77,4.52-7.58,8.87l-1.75,9.78H147"/></g><g id="Calque_1" data-name="Calque 1"><polyline class="cls-10" points="-0.27 80 -0.27 0 199.73 0"/></g></g><g id="Calque_1-2" data-name="Calque 1"><rect class="cls-10" x="-0.27" width="200" height="80"/></g></svg>