<svg id="Calque_1" data-name="Calque 1" xmlns="http://www.w3.org/2000/svg" viewBox="0 0 128 87"><defs><style>.cls-1{fill:none;}.cls-2{fill:#6a205f;}</style></defs><title>logo-craftsmanship</title><g id="Calque_2" data-name="Calque 2"><rect class="cls-1" width="128" height="87"/></g><path class="cls-2" d="M79.92,25.94H48.08L42.17,34,64,61.06,85.83,34ZM54.48,34.51l8.23,20-16.18-20ZM56.81,29H71.19a.57.57,0,0,0,0,.16l1.16,4.16H55.64l1.16-4.16A.57.57,0,0,0,56.81,29Zm15.44,5.48L64,54.61l-8.25-20.1Zm1.27,0h7.95l-16.18,20Zm8-1.17H73.57L72.37,29h6ZM49.64,29h6l-1.2,4.31H46.49Z"/></svg>