<svg xmlns="http://www.w3.org/2000/svg" viewBox="0 0 200 80"><defs><style>.cls-1{fill:#d43833;}.cls-2{fill:#e83f3d;}.cls-3{fill:#231f20;}.cls-4{fill:#f0d6b8;}.cls-5{fill:#355162;}.cls-6{fill:#6e6c6e;}.cls-7{fill:#dddad9;}.cls-8{fill:#f7e5cf;}.cls-9{fill:#4a738b;}.cls-10{fill:#fff;}.cls-11,.cls-16{fill:none;}.cls-11{stroke:#d43833;stroke-width:2px;}.cls-12{fill:#82b0c4;}.cls-13{fill:#1e1a1a;}.cls-14,.cls-15{isolation:isolate;}.cls-15{font-size:35.07px;fill:#010101;font-family:Georgia-Bold, Georgia;font-weight:700;}</style></defs><title>jenkins-logo</title><g id="Calque_2" data-name="Calque 2"><g id="g10"><g id="g3393"><path id="path22" class="cls-1" d="M43.28,48.52A21.56,21.56,0,0,1,22,70.32a21.8,21.8,0,0,1,0-43.59,21.56,21.56,0,0,1,21.31,21.8"/><path id="path24" class="cls-2" d="M1.53,53.92S0,31.19,20.93,30.54L19.47,28.1,8.11,31.92,4.86,35.65,2,41.09.39,47.42l.49,4.22"/><path id="path26" class="cls-3" d="M7.38,33.65a21.32,21.32,0,0,0-6.05,15h0A21.32,21.32,0,0,0,7.38,63.55h0A20.34,20.34,0,0,0,22,69.73h0a20.34,20.34,0,0,0,14.6-6.18h0A21.32,21.32,0,0,0,42.62,48.6h0a21.32,21.32,0,0,0-6.05-15h0A20.35,20.35,0,0,0,22,27.47h0A20.35,20.35,0,0,0,7.38,33.65ZM6.43,64.48A22.64,22.64,0,0,1,0,48.6H0A22.64,22.64,0,0,1,6.43,32.72h0A21.67,21.67,0,0,1,22,26.14h0a21.67,21.67,0,0,1,15.54,6.58h0A22.64,22.64,0,0,1,43.94,48.6h0a22.64,22.64,0,0,1-6.43,15.87h0A21.67,21.67,0,0,1,22,71.06h0A21.67,21.67,0,0,1,6.43,64.48h0"/><path id="path28" class="cls-4" d="M30.94,48.64l-3.25.49-4.38.49-2.84.08-2.76-.08L15.6,49l-1.87-2-1.46-4.14-.32-.89L10,41.25,8.86,39.39,8,36.71l.89-2.35,2.11-.73,1.7.81.81,1.79,1-.16.32-.41-.32-1.87-.08-2.35.49-3.25,0-1.85L16.41,24,19,22.09l4.55-1.95,5,.73L33,24l2,3.25,1.3,2.35.32,5.84-1,5L33.86,45l-1.7,2.35"/><path id="path30" class="cls-5" d="M28.18,62.68l-11.61.49v1.95l1,6.82-.49.57L8.94,69.75l-.57-1L7.56,59.6,5.69,54.08l-.41-1.3,6.49-4.46,2-.81L15.6,49.7l1.54,1.38,1.79.57.81.24,1,4.22.73.89,1.87-.65L22,58.87l7.06,3.33-.89.49"/><path id="path32" class="cls-6" d="M8.94,34.35l2.11-.73,1.7.81.81,1.79,1-.16.24-1-.49-1.87.49-4.47-.41-2.44,1.46-1.7L19,22.09l-.89-1.22-4.46,2.19-1.87,1.46L10.73,26.8,9.1,29l-.49,2.6.32,2.76"/><path id="path34" class="cls-7" d="M12.27,26.72s1.22-3,6.09-4.46.24-1.06.24-1.06l-5.28,2-2,2-.89,1.62,1.87-.16"/><path id="path36" class="cls-7" d="M9.83,33.78s-1.7-5.68,4.79-6.49l-.24-1L9.92,27.37l-1.3,4.22.32,2.76.89-.57"/><path id="path38" class="cls-8" d="M12.43,41.33l1.06-1a.68.68,0,0,1,.56.62c.08.57.32,5.68,3.82,8.44.32.25-2.6-.41-2.6-.41l-2.6-4.06"/><path id="path40" class="cls-8" d="M27.37,39.79s.19-2.46.85-2.27a.91.91,0,0,1,.66.85s-1.61,1-1.51,1.42"/><path id="path42" class="cls-8" d="M34.11,30.78s-1.34.28-1.46,1.46,1.46.24,1.7.16"/><path id="path44" class="cls-8" d="M24.29,30.86s-1.79.24-1.79,1.38,2,1.06,2.6.57"/><path id="path46" class="cls-8" d="M13.24,36.14s-3.08-1.87-3.41-.08-1.06,3.08.49,5l-1.06-.32-1-2.52L8,35.73l1.87-1.95,2.11.16,1.22,1,.08,1.22"/><path id="path48" class="cls-8" d="M14.71,31s1.38-7.14,8.36-8.52c5.75-1.14,8.77.24,9.9,1.54,0,0-5.11-6.09-10-4.22s-8.44,5.28-8.36,7.47A35.68,35.68,0,0,1,14.71,31"/><path id="path50" class="cls-8" d="M33.54,24.85s-2.35-.08-2.44,2a1.61,1.61,0,0,0,.16.65s1.87-2.11,3-1"/><path id="path52" class="cls-8" d="M23.23,27.75s-.41-3.24-3.17-1.36c-1.79,1.22-1.62,2.92-1.3,3.25s.24,1,.48.53.17-1.91,1.06-2.32,2.36-.86,2.92-.1"/><path id="path54" class="cls-9" d="M15.6,49.7,8,53.1s3.17,12.58,1.54,16.48l-1.14-.41-.08-4.79L6.18,55.3l-.89-2.52,8-5.36L15.6,49.7"/><path id="path56" class="cls-9" d="M16.38,56.65,17.47,58v4.87h-1.3S16,59.44,16,59s.16-1.87.16-1.87"/><path id="path58" class="cls-9" d="M16.41,63.58l-3.65.16,1.06.73,2.6.41"/><path id="path60" class="cls-5" d="M28.91,62.77l3-.08.73,7.47-3.08.41-.65-7.79"/><path id="path62" class="cls-5" d="M29.72,62.77l4.55-.24s1.87-4.71,1.87-5,1.62-6.82,1.62-6.82l-3.65-3.82-.73-.65-1.95,1.95v7.55l-1.7,7"/><path id="path64" class="cls-9" d="M31.75,62.2l-2.84.57L29.32,65c1.06.49,2.84-.81,2.84-.81"/><path id="path66" class="cls-9" d="M31.83,48l5.68,4.22.16-1.95-4.3-4L31.83,48"/><path id="path68" class="cls-10" d="M19.23,78.76l-1.68-6.82-.84-5-.14-3.74,7.61-.4h4.73l-.43,8.52.73,6.58-.08,1.22L23,79.57l-3.73-.81"/><path id="path70" class="cls-7" d="M27.86,62.68s-.41,8.44.81,14.45a15.51,15.51,0,0,1-6,1.95l6.82-.24.81-.49L29.32,65l-.24-2.84"/><path id="path72" class="cls-10" d="M32.78,69.5,36,68.61l6-.32.89-2.76-1.62-4.79-1.87-.24-2.6.81-2.49,1.22-1.32-.24-1,.41"/><path id="path74" class="cls-7" d="M32.73,67.88A11.89,11.89,0,0,1,35.16,67l-.89-4.47,1.06-.41s.73,4.22.73,4.71c0,0,4.55.24,5,.24a7.37,7.37,0,0,0,.73-3.82l.89,2.6.08,1.46-1.3,1.95L40,69.58l-2.44-.08-.81-1.06-2.84.41-.89.32"/><path id="path76" class="cls-10" d="M29.54,62.12l-1.79-4.55-1.87-2.68s.41-1.14,1-1.14h1.87l1.79.65-.16,3-.81,4.71"/><path id="path78" class="cls-7" d="M29.89,60.57s-2.27-4.38-2.27-5c0,0,.41-1,1-.73s1.79.89,1.79.89V54.16l-2.76-.57-1.87.24,3.17,7.47.65.08"/><path id="path80" class="cls-10" d="M20,49.86l-2.25-.24L15.6,49v.73l1,1.14,3.25,1.46"/><path id="path82" class="cls-7" d="M16.33,50.1s2.52,1.06,3.33.81l.08,1-2.27-.49-1.38-1,.24-.32"/><path id="path84" class="cls-1" d="M32.78,54a15.43,15.43,0,0,1-3.71-.51,11.5,11.5,0,0,1,0-1.21A2.9,2.9,0,0,1,30.38,52,2.21,2.21,0,0,0,29,51.89a2.26,2.26,0,0,0-.23-.74c.77-.28,2.6-2.09,3.63-1.49.49.29.7,1.92.74,2.71A2.76,2.76,0,0,1,32.78,54"/><path id="path86" class="cls-11" d="M32.78,54a15.43,15.43,0,0,1-3.71-.51,11.5,11.5,0,0,1,0-1.21A2.9,2.9,0,0,1,30.38,52,2.21,2.21,0,0,0,29,51.89a2.26,2.26,0,0,0-.23-.74c.77-.28,2.6-2.09,3.63-1.49.49.29.7,1.92.74,2.71A2.76,2.76,0,0,1,32.78,54Z"/><path id="path88" class="cls-1" d="M26.19,51.78v.31c-.43.28-1.12.28-1.6.52A4.15,4.15,0,0,1,26.3,53l0,.79a28,28,0,0,1-2.44,1.85,6.45,6.45,0,0,1-2.45.75c-.26-.06-.29-.39-.39-.7A10,10,0,0,1,20.2,53c-.06-1.26-.18-3.37,1.17-3.11a12.11,12.11,0,0,1,3.21,1.18,3.31,3.31,0,0,0,1.6.69"/><path id="path90" class="cls-11" d="M26.19,51.78v.31c-.43.28-1.12.28-1.6.52A4.15,4.15,0,0,1,26.3,53l0,.79a28,28,0,0,1-2.44,1.85,6.45,6.45,0,0,1-2.45.75c-.26-.06-.29-.39-.39-.7A10,10,0,0,1,20.2,53c-.06-1.26-.18-3.37,1.17-3.11a12.11,12.11,0,0,1,3.21,1.18A3.31,3.31,0,0,0,26.19,51.78Z"/><path id="path92" class="cls-1" d="M27,53.28a4.65,4.65,0,0,1-.21-1.48c1.83-1.22,2.17,2.09.21,1.48"/><path id="path94" class="cls-11" d="M27,53.28a4.65,4.65,0,0,1-.21-1.48C28.59,50.58,28.94,53.9,27,53.28Z"/><path id="path96" class="cls-2" d="M29.62,53.84s-.57-.81-.16-1.06.81,0,1.06-.41,0-.65.08-1.14.49-.57.89-.65,1.54-.24,1.7.16l-.49-1.46-1-.32-3.08,1.79-.16.89v1.79"/><path id="path98" class="cls-2" d="M21.09,56.52q-.15-1.9-.32-3.8c-.17-1.89.45-1.56,2.09-1.56a4.32,4.32,0,0,1,1.63.49c.44.9-.74.7.51,1.39,1.06.58,2.92-.35,2.49-1.63-.24-.28-1.24-.09-1.6-.28l-1.9-1c-.81-.42-2.67-1-3.53-.44-2.18,1.48.14,5.19.92,6.73"/><path id="path100" class="cls-3" d="M23.23,27.75c-2.21-.52-3.31.93-4,2.42-.6-.15-.36-1-.21-1.37.4-1.09,2-2.54,3.3-2.34.56.08,1.32.6.9,1.3"/><path id="path102" class="cls-3" d="M34,30.27h.1a22.88,22.88,0,0,0,1.56,3.06c-.42,1-3.2,1.86-3.16.09.6-.26,1.64-.05,2.17-.39A6,6,0,0,1,34,30.27"/><path id="path104" class="cls-3" d="M24.36,30.3a9.28,9.28,0,0,0,1.3,2.44c.3.3.89.66.6,1.48a1.88,1.88,0,0,1-.86.71c-1.05.31-3.51.06-2.68-1.25.87,0,2,.57,2.7-.07-.5-.8-1.39-2.38-1.06-3.32"/><path id="path106" class="cls-3" d="M33.62,39.14c-1.59,1-3.36,2.13-6,1.87a1.76,1.76,0,0,1-.23-2.27c.28.48.1,1.37.89,1.51,1.48.25,3.19-.9,4.26-1.31.66-1.11-.06-1.52-.65-2.23-1.21-1.46-2.84-3.28-2.78-5.47.49-.36.53.54.6.71a20,20,0,0,0,3.39,4.65c.29.31.76.61.81.82.15.6-.39,1.32-.33,1.72"/><path id="path108" class="cls-3" d="M12.69,38.07c-.5-.28-.62-1.53-1.2-1.57-.83-.05-.68,1.62-.68,2.6a3.06,3.06,0,0,1-.25-3c-.48-.24-.7.26-1,.44.34-2.49,3.64-1.16,3.1,1.49"/><path id="path110" class="cls-3" d="M34.63,40.18c-.74,1.41-1.78,3-4,3a5.35,5.35,0,0,1,0-1.42c1.66-.16,2.68-1,3.95-1.58"/><path id="path112" class="cls-3" d="M24.24,41.09c1.38.73,3.92.81,5.8.75a6.58,6.58,0,0,1,.1,1.42c-2.42.12-5.27-.48-5.91-2.17"/><path id="path114" class="cls-3" d="M24,42.44c1,2.4,4.24,2.12,7,2.06a1.48,1.48,0,0,1-.72.81,7,7,0,0,1-4.57,0A6.25,6.25,0,0,1,24,43.39c-.21-.27-1.24-.95,0-.95"/><path id="path116" class="cls-12" d="M33.5,55.69A49,49,0,0,1,30,61.28a26.93,26.93,0,0,0,.88-6.48,2,2,0,0,1,2.65.89"/><path id="path118" class="cls-3" d="M39.54,62.6c-1.26.25-2.14,1.47-3.36,1.39a4,4,0,0,1,3.36-1.39"/><path id="path120" class="cls-3" d="M40.09,64.56a18.41,18.41,0,0,1-3.27.19c.49-.75,2.39-.49,3.27-.19"/><path id="path122" class="cls-3" d="M40.45,66.26c-1.15,0-2.58,0-3.68-.09.65-.7,2.93-.26,3.68.09"/><path id="path124" class="cls-7" d="M31.33,70.9A27.05,27.05,0,0,1,32,75.39a4.71,4.71,0,0,1-1.85.4c-.06-1.35-.24-3.4-.19-4.68.42,0,1-.3,1.37-.21"/><path id="path126" class="cls-4" d="M29.48,49.59c-.58.38-1.07.85-1.63,1.25A3.58,3.58,0,0,1,25,50.05c0-.06.11,0,.11-.1,1.32.59,3-.24,4.32-.36"/><path id="path128" class="cls-12" d="M22.56,58.58c.36-1.57,1.78-2.38,3.07-3.24a25.91,25.91,0,0,1,3,6,31,31,0,0,1-6.1-2.71"/><path id="path130" class="cls-3" d="M30,71.11c-.05,1.28.13,3.34.19,4.68a4.71,4.71,0,0,0,1.85-.4,27.05,27.05,0,0,0-.67-4.49C31,70.81,30.38,71.13,30,71.11ZM16.68,63.81A67,67,0,0,0,19.55,77.9a18.68,18.68,0,0,0,10.24.19c-.54-2.58-.3-5.73-.62-8.48-.24-2.07-.12-4.16-.44-6.27C25.19,62.6,20.17,63.16,16.68,63.81Zm12.89-.45c0,2.22.1,4.41.27,6.63.85-.13,1.43-.21,2.22-.39a47.78,47.78,0,0,0-.75-6.44A5.28,5.28,0,0,0,29.58,63.37ZM33.9,63a5.31,5.31,0,0,0-1.26,0c.18,1.81.62,3.81.78,5.71a5.28,5.28,0,0,0,1.43-.36A11.49,11.49,0,0,0,33.9,63Zm6.55,6a2.81,2.81,0,0,0,1.71-3.45A16.34,16.34,0,0,0,41,61.76c-.34-.51-1.24-1.17-2-.71-1.18.76-3.26,1-4.12,1.89a30.49,30.49,0,0,1,.74,5.23c1.47.09,3.29-.41,4.51.12a17.17,17.17,0,0,0-2.71.68,5.64,5.64,0,0,0,2.94,0ZM28.66,61.28a25.91,25.91,0,0,0-3-6c-1.29.86-2.71,1.68-3.07,3.24A31,31,0,0,0,28.66,61.28Zm2.19-6.48A26.93,26.93,0,0,1,30,61.28a49,49,0,0,0,3.53-5.59A2,2,0,0,0,30.85,54.8Zm-2.49-.88c-.5-.05-.93.58-1.59.31-.15.17-.29.35-.44.51,1.45,1.75,2.11,4.22,3.23,6.27a27.53,27.53,0,0,0,.66-6.28C29.4,54.77,28.94,54,28.37,53.91Zm-1.6-2.11A4.65,4.65,0,0,0,27,53.28C28.94,53.9,28.59,50.58,26.77,51.8Zm-2.18-.72a12.11,12.11,0,0,0-3.21-1.18C20,49.65,20.15,51.76,20.2,53A10,10,0,0,0,21,55.73c.11.31.13.64.39.7a6.45,6.45,0,0,0,2.45-.75,28,28,0,0,0,2.44-1.85l0-.79a4.15,4.15,0,0,0-1.72-.43c.47-.24,1.17-.23,1.6-.52v-.31A3.31,3.31,0,0,1,24.59,51.09ZM16.5,49.62c-.7.71,2,1.69,2.82,1.74,0-.45.26-.88.2-1.2C18.51,50,17.19,50.09,16.5,49.62Zm8.66.34c0,.07-.09,0-.11.1a3.58,3.58,0,0,0,2.81.79c.56-.4,1-.87,1.63-1.25C28.15,49.71,26.47,50.54,25.16,50Zm7.95,2.41c0-.79-.25-2.42-.74-2.71-1-.6-2.86,1.21-3.63,1.49a2.26,2.26,0,0,1,.23.74,2.21,2.21,0,0,1,1.41.16,2.9,2.9,0,0,0-1.27.27,11.5,11.5,0,0,0,0,1.21,15.43,15.43,0,0,0,3.71.51A2.76,2.76,0,0,0,33.1,52.36ZM15.31,50.31c-.22-.16-1.71-2.1-1.92-2a32.13,32.13,0,0,0-7.49,4.65c2.15,4.62,3,10.28,3.17,15.73,2.47,1.15,4.63,2.82,8,3-.39-2.74-.74-5.18-1-7.76-.84-.35-2,0-2.83-.11,0-.95,1.2-.42,1.3-1.05.08-.48-.66-.52-.42-1.28.62.22.94.72,1.59.9.6-1.31,0-3.63.08-4.73,0-.21.1-1.14.56-1s0,2.48,0,3.52a5.44,5.44,0,0,0,.27,2.48,92.39,92.39,0,0,1,10-.82A24.24,24.24,0,0,1,24,60.63c-.54-.31-2.26-.94-2.41-1.46-.25-.82.66-1.26.81-2-1.63.89-2-.85-2.34-2.09a16.23,16.23,0,0,1-.63-2.6,28.13,28.13,0,0,1-4.12-2.21Zm16.36-1.78c2.25-1.09,2.66,4.08,1.77,5.75.14.5.61.69.8,1.13C33,57.65,31.6,59.75,30.31,62c1-.59,2.32-.11,3.44-.55.41-.16.71-1.1,1-1.85a40.28,40.28,0,0,0,2.15-6.64,8.41,8.41,0,0,0,.28-1.83c-.1-.72-1.07-1.25-1.56-1.69-.91-.82-1.48-1.54-2.43-2.3-.39.57-1.21,1-1.53,1.41Zm-21.51-20c-1.07,1.18-.85,3.39-.72,5,1.94-1.22,4.51.1,4.49,2.17.93,0,.35-1.16.18-1.88-.55-2.38.92-5,.07-7.14a5.88,5.88,0,0,0-4,1.89Zm7.67-6.85c-2.43.69-5.54,2.45-6.54,4.63.77-.11,1.31-.5,2.07-.55a5.09,5.09,0,0,0,1,0c.66-.16,1.22-1.64,1.71-2.19s1.07-.77,1.47-1.26c.26-.12.64-.12.65-.5C18.09,21.76,18,21.67,17.84,21.71Zm12.64.65C28,20.94,23.7,19.87,21,21.2c-2.16,1.08-5.09,2.86-6.08,5.12.93,2.18-.28,4.18-.35,6.4,0,1.18.56,2.21.6,3.49-.32.53-1.29.59-2,.55-.23-1.14-.62-2.41-1.79-2.54a2.71,2.71,0,0,0-2.94,2.62c-.09,1.68,1.29,4.47,3.25,4.28.76-.07.94-.83,1.77-.83.45.89-.69,1.17-.81,1.81a5.12,5.12,0,0,0,.17,1.11,15.15,15.15,0,0,0,1.93,4.49c1,1.42,2.94,1.63,5,1.77.37-.81,1.75-.74,2.65-.53a8.87,8.87,0,0,1-2.9-2.37c-1-1-1.92-2.17-2-3.54,1.8,2.5,3.28,4.67,6.56,5.77,2.47.83,5.37-.38,7.27-1.72a8.35,8.35,0,0,0,1.82-2.24,19,19,0,0,0,2.86-11.5c-.09-1.72-.08-3.44-.66-4.6s-2.65-2.3-3.84-1.2c-.22-1.18,1-1.91,2.42-1.48a13.51,13.51,0,0,0-3.53-3.71Zm4.7,38.86c2-1,5.65-2.64,6.88,0a22.38,22.38,0,0,1,1.23,3.62c.33,1.42-.36,4.39-1.82,4.87a8.64,8.64,0,0,1-4.34.08,2.36,2.36,0,0,1-.53-.69,6,6,0,0,0-3,.51c.08.82-.47.95-1,1.12-.38,1.52.77,3.52.49,4.91-.2,1-1.42,1.14-2.31,1.33a7.61,7.61,0,0,0,.1,1.48,2.24,2.24,0,0,1-2,1.29c-2.86.34-7.21.5-10-.49-.77-1.89-1.37-4.18-2-6.33C14.22,73.2,12,71.75,10,70.81c-.71-.33-1.69-.51-2-1.07a9.67,9.67,0,0,1-.22-2.58,39.26,39.26,0,0,0-1-7.55c-.3-1.16-.82-2.19-1.19-3.3A23.84,23.84,0,0,1,4.6,52.94c-.23-1.53,1.22-1.62,2.14-2.28,1.43-1,2.55-1.59,4.09-2.52a9.32,9.32,0,0,0,2-1.29c.31-.63-.54-1.53-.76-2a6.09,6.09,0,0,1-.6-2.23,4.3,4.3,0,0,1-2.87-1.85,7.08,7.08,0,0,1-.81-6.13c.07-.16.4-.47.45-.72A8.3,8.3,0,0,0,8,32.26c-.09-2.63.45-4.9,2.22-5.69C11,23.7,13.54,22.75,16,21.32a18,18,0,0,1,2.94-1.25c3.7-1.36,9.39-1.11,12.46,1.22a16.73,16.73,0,0,1,4.13,4.57c2,4,1.83,10.63.45,15.47a15.57,15.57,0,0,1-.83,2.39c-.26.55-1.07,1.64-1,2.12S36,47.66,36.37,48c.68.65,2,1.52,2.06,2.34a8.28,8.28,0,0,1-.64,2.92c-.84,2.82-1.66,5.43-2.62,7.94"/><path id="path132" class="cls-8" d="M22,41.7c.11-.14.69-.36,1.52,0,0,0-1,.16-.89,1.79l-.41-.08S21.84,42,22,41.7"/><path id="path134" class="cls-13" d="M29.16,55.66a.45.45,0,1,1-.45-.45.45.45,0,0,1,.45.45"/><path id="path136" class="cls-13" d="M29.6,57.73a.45.45,0,1,1-.45-.45.45.45,0,0,1,.45.45"/></g><g id="text5675" class="cls-14"><text class="cls-15" transform="translate(56.43 62.53)">Jenkins</text></g></g></g><g id="Calque_1" data-name="Calque 1"><rect class="cls-16" width="200" height="80"/></g></svg>