<svg id="Calque_1" data-name="Calque 1" xmlns="http://www.w3.org/2000/svg" viewBox="0 0 128 87"><defs><style>.cls-1{fill:none;}.cls-2{fill:#5675ee;}.cls-3{fill:#5960e9;}.cls-4{fill:#fff;}.cls-5{fill:#dbdbdb;}.cls-6{fill:#ed1c24;}.cls-7{fill:#c71c24;}</style></defs><title>logo-frenchkit</title><g id="Calque_2" data-name="Calque 2"><rect class="cls-1" width="128" height="87"/></g><path id="_Tracé_" data-name="&lt;Tracé&gt;" class="cls-2" d="M58.19,65.65,44.27,55a5.38,5.38,0,0,1,0-8.6L58.19,35.88a9.62,9.62,0,0,1,11.61,0L83.7,46.37a5.38,5.38,0,0,1,0,8.6L69.81,65.65A9.62,9.62,0,0,1,58.19,65.65Z"/><path class="cls-3" d="M64,67.77a9.74,9.74,0,0,1-5.91-2h0L44.17,55.1A5.58,5.58,0,0,1,42,50.65a5.51,5.51,0,0,1,2.23-4.42L58.09,35.74a9.79,9.79,0,0,1,11.82,0L83.8,46.24a5.55,5.55,0,0,1,0,8.87L69.91,65.79A9.74,9.74,0,0,1,64,67.77Zm-5.71-2.25a9.45,9.45,0,0,0,11.41,0L83.63,54.83a5.21,5.21,0,0,0,0-8.33L69.71,36a9.45,9.45,0,0,0-11.41,0L44.4,46.5a5.21,5.21,0,0,0,0,8.33Z"/><g id="_Groupe_" data-name="&lt;Groupe&gt;"><g id="_Groupe_2" data-name="&lt;Groupe&gt;"><path id="_Tracé_2" data-name="&lt;Tracé&gt;" class="cls-4" d="M58.19,58.39,44.27,47.7a5.38,5.38,0,0,1,0-8.6L58.19,28.61a9.62,9.62,0,0,1,11.61,0L83.7,39.11a5.38,5.38,0,0,1,0,8.6L69.81,58.39A9.62,9.62,0,0,1,58.19,58.39Z"/><path class="cls-5" d="M64,60.51a9.74,9.74,0,0,1-5.91-2h0L44.17,47.84A5.58,5.58,0,0,1,42,43.39,5.51,5.51,0,0,1,44.2,39L58.09,28.48a9.79,9.79,0,0,1,11.82,0L83.8,39a5.55,5.55,0,0,1,0,8.87L69.91,58.52A9.74,9.74,0,0,1,64,60.51Zm-5.71-2.25a9.45,9.45,0,0,0,11.41,0L83.63,47.57a5.21,5.21,0,0,0,0-8.33L69.71,28.75a9.45,9.45,0,0,0-11.41,0L44.4,39.24a5.21,5.21,0,0,0,0,8.33Z"/></g></g><g id="_Groupe_3" data-name="&lt;Groupe&gt;"><g id="_Groupe_4" data-name="&lt;Groupe&gt;"><g id="_Groupe_5" data-name="&lt;Groupe&gt;"><path id="_Tracé_3" data-name="&lt;Tracé&gt;" class="cls-6" d="M58.19,51.12,44.27,40.45a5.39,5.39,0,0,1,0-8.61L58.19,21.35a9.62,9.62,0,0,1,11.61,0L83.7,31.84a5.38,5.38,0,0,1,0,8.6L69.81,51.12A9.62,9.62,0,0,1,58.19,51.12Z"/><path class="cls-7" d="M64,53.24a9.74,9.74,0,0,1-5.91-2h0L44.17,40.59a5.56,5.56,0,0,1,0-8.88L58.09,21.21a9.79,9.79,0,0,1,11.82,0L83.8,31.71a5.55,5.55,0,0,1,0,8.87L69.91,51.26A9.74,9.74,0,0,1,64,53.24ZM58.29,51a9.45,9.45,0,0,0,11.41,0L83.63,40.3a5.21,5.21,0,0,0,0-8.33L69.71,21.48a9.45,9.45,0,0,0-11.41,0L44.4,32a5.23,5.23,0,0,0-2.1,4.16,5.18,5.18,0,0,0,2.06,4.18L58.29,51Z"/></g></g><g id="_Groupe_6" data-name="&lt;Groupe&gt;"><path id="_Tracé_4" data-name="&lt;Tracé&gt;" class="cls-4" d="M66.9,38.42a2.44,2.44,0,0,0-.1-4.08L60.92,29.9a4.64,4.64,0,0,0-5.34,0,2.44,2.44,0,0,0,.1,4.08l5.89,4.44A4.64,4.64,0,0,0,66.9,38.42Z"/><path id="_Tracé_5" data-name="&lt;Tracé&gt;" class="cls-4" d="M64.58,31.57l2.94,2.22a3.11,3.11,0,0,1,.13,5.2,5.94,5.94,0,0,1-6.82,0L57.9,36.73l-1,.76,2.94,2.22a7.79,7.79,0,0,0,8.31.41l1.39,1.05-1.93,1.49,1,.77,4.84-3.73-1-.77-1.93,1.49-1.39-1.05c1.91-1.85,1.68-4.59-.63-6.33l-2.94-2.22Z"/></g></g></svg>