<svg id="Calque_1" data-name="Calque 1" xmlns="http://www.w3.org/2000/svg" viewBox="0 0 130 70"><defs><style>.cls-1,.cls-2,.cls-3{fill:#6b215f;}.cls-2{font-size:12.01px;font-family:ArialMT, Arial;}.cls-3{opacity:0.3;}.cls-4{fill:none;}</style></defs><title>logo-xebiatv</title><path class="cls-1" d="M50.29,37.69H39.48a3.45,3.45,0,0,0,3.79,3.14,3.68,3.68,0,0,0,3.11-1.68H50c-.21.68-1.78,4.85-6.44,4.85a7,7,0,0,1-5.24-2,7.45,7.45,0,0,1-2.14-5.36,7.64,7.64,0,0,1,2.08-5.36,6.75,6.75,0,0,1,5.12-2,6.69,6.69,0,0,1,5.09,2,7.52,7.52,0,0,1,1.86,5.4Zm-3.46-2.58c-.47-2.1-1.89-2.76-3.69-2.76-1.24,0-3.44,1-3.44,2.76Z"/><path class="cls-1" d="M55.29,25.11v5.46a8.86,8.86,0,0,1,4.77-1.33A6.42,6.42,0,0,1,65,31.35a7.34,7.34,0,0,1,2,5.22,7.49,7.49,0,0,1-2,5.33A6.49,6.49,0,0,1,60,44a8.35,8.35,0,0,1-4.71-1.15v.75H52V25.11Zm7.78,11.66a4.23,4.23,0,0,0-1.08-3,3.57,3.57,0,0,0-2.74-1.18,3.81,3.81,0,0,0-2.87,1.15,4.07,4.07,0,0,0-1.09,2.95,4.12,4.12,0,0,0,1.08,3,3.72,3.72,0,0,0,2.84,1.15A3.64,3.64,0,0,0,62,39.66,4,4,0,0,0,63.07,36.77Z"/><path class="cls-1" d="M71.68,29.63v14H68.31v-14Z"/><path class="cls-1" d="M71.68,25.16v3.28H68.31V25.16Z"/><path class="cls-1" d="M84.74,29.63h3.09v14H84.74V42.13A6,6,0,0,1,80.18,44a6.32,6.32,0,0,1-4.86-2.09,7.71,7.71,0,0,1-1.91-5.33,7.47,7.47,0,0,1,1.91-5.23,6.19,6.19,0,0,1,4.78-2.09,5.59,5.59,0,0,1,4.65,2Zm-8,6.94a4.19,4.19,0,0,0,1,2.95,3.52,3.52,0,0,0,2.69,1.15,3.71,3.71,0,0,0,2.8-1.11,4.53,4.53,0,0,0,0-5.84,3.65,3.65,0,0,0-2.77-1.12,3.56,3.56,0,0,0-2.69,1.14A4,4,0,0,0,76.76,36.58Z"/><polygon class="cls-1" points="42.9 20 34.55 20 25.7 29.22 16.85 20 8.51 20 21.53 33.5 8.51 47 16.85 47 25.7 37.78 34.55 47 42.9 47 29.87 33.5 42.9 20"/><text class="cls-2" transform="translate(98.45 36.07) rotate(25.14)">TV</text><path class="cls-1" d="M118.89,33.21l-17.08-8.34a1.43,1.43,0,0,0-1.87.7l-5,10.33a1.42,1.42,0,0,0,.6,1.9l17.08,8.34a1.63,1.63,0,0,0,2.07-.59l5-10.33A1.64,1.64,0,0,0,118.89,33.21Zm-5.77,10.46a1,1,0,0,1-1.46.51L97.58,37.29a1,1,0,0,1-.42-1.42l4.29-8.79a1,1,0,0,1,1.39-.57l14.09,6.88a1.07,1.07,0,0,1,.48,1.49Z"/><ellipse class="cls-1" cx="117" cy="26.91" rx="0.67" ry="0.67" transform="translate(41.48 120.23) rotate(-63.97)"/><polyline class="cls-1" points="116.9 27.03 115.84 31.88 120.88 30.11"/><ellipse class="cls-1" cx="120.83" cy="30.24" rx="0.67" ry="0.67" transform="translate(40.64 125.54) rotate(-63.97)"/><path class="cls-1" d="M98.88,39.14l-.58-.68,0,0-.59-.7L95.6,40.08a.56.56,0,0,0-.1.75.54.54,0,0,0,.72,0h0Z"/><path class="cls-1" d="M109.7,44.43l.89,0h.06l.91,0L111,47.59a.56.56,0,0,1-.53.54.54.54,0,0,1-.48-.55h0Z"/><polyline class="cls-1" points="118.26 25.15 118.92 25.21 118.41 27.48 119.96 27.27 118.97 28.75 121 27.93 121 27"/><ellipse class="cls-3" cx="105.87" cy="47.06" rx="11.12" ry="2.47"/><rect class="cls-4" width="130" height="70"/></svg>