<?xml version="1.0" encoding="utf-8"?>
<!-- Generator: Adobe Illustrator 21.0.0, SVG Export Plug-In . SVG Version: 6.00 Build 0)  -->
<svg version="1.1" id="Calque_1" xmlns="http://www.w3.org/2000/svg" xmlns:xlink="http://www.w3.org/1999/xlink" x="0px" y="0px"
	 viewBox="0 0 80 22" style="enable-background:new 0 0 80 22;" xml:space="preserve">
<path style="fill:#A4C438;" d="M1.4,7.1C0.6,7.1,0,7.7,0,8.5c0,0,0,0,0,0v5.7c0,0.7,0.6,1.4,1.4,1.4c0.7,0,1.4-0.6,1.4-1.4
	c0,0,0,0,0,0V8.5C2.7,7.7,2.1,7.1,1.4,7.1 M12.3,2l0.9-1.7c0.1-0.1,0-0.2-0.1-0.3C13.1,0,13,0,12.9,0.1l0,0l-1,1.7
	c-1.7-0.7-3.6-0.7-5.3,0l-1-1.7C5.6,0,5.5,0,5.4,0c-0.1,0-0.1,0.2-0.1,0.3c0,0,0,0,0,0L6.3,2C4.4,3,3.2,4.8,3.2,6.9h12.2
	C15.4,4.8,14.2,3,12.3,2 M6.5,4.7C6.2,4.7,6,4.5,6,4.2c0-0.3,0.2-0.5,0.5-0.5C6.8,3.7,7,3.9,7,4.2C7,4.5,6.8,4.7,6.5,4.7L6.5,4.7
	 M12.1,4.7c-0.3,0-0.5-0.2-0.5-0.5s0.2-0.5,0.5-0.5s0.5,0.2,0.5,0.5S12.4,4.7,12.1,4.7L12.1,4.7 M3.2,7.4v8.8c0,0.8,0.6,1.4,1.4,1.4
	h1v3C5.7,21.4,6.3,22,7,22s1.4-0.6,1.4-1.4v-3h1.8v3c0,0.7,0.6,1.4,1.4,1.4c0.7,0,1.4-0.6,1.4-1.4v-3h1c0.8,0,1.4-0.6,1.4-1.4V7.4
	H3.2z M18.6,8.5c0-0.7-0.6-1.4-1.4-1.4s-1.4,0.6-1.4,1.4v5.7c0,0.7,0.6,1.4,1.4,1.4s1.4-0.6,1.4-1.4l0,0V8.5z"/>
<g>
	<path style="fill-rule:evenodd;clip-rule:evenodd;fill:#A4C438;" d="M22,11.3c0,2.2,1.9,3.9,4.2,3.9h1.3v-1.7h-1.3
		c-1.4,0-2.5-1-2.5-2.2c0-1.3,1.1-2.2,2.4-2.2h2.7v6.1h1.7V7.4h-4.4C23.9,7.4,22,9.2,22,11.3z"/>
	<path style="fill-rule:evenodd;clip-rule:evenodd;fill:#A4C438;" d="M36.2,7.4c-2.2,0-4,1.5-4,3.7v4.1h1.6v-4.2
		c0-1.4,1.3-2.3,2.4-2.3c1.1,0,2.4,0.8,2.4,2.3l0,4.2h1.7v-4.1C40.2,8.9,38.4,7.4,36.2,7.4z"/>
	<path style="fill-rule:evenodd;clip-rule:evenodd;fill:#A4C438;" d="M45.6,7.4h-3.7v1.7h3.8c1.4,0,2,1,2,2.1c0,1.1-0.6,2.3-2.1,2.3
		l-3.8,0v1.7h3.7c2.2,0,3.7-1.7,3.7-3.9C49.3,9,47.8,7.4,45.6,7.4z"/>
	<path style="fill-rule:evenodd;clip-rule:evenodd;fill:#A4C438;" d="M76.3,7.4h-3.7v1.7h3.8c1.4,0,2,1,2,2.1c0,1.1-0.6,2.3-2.1,2.3
		l-3.8,0v1.7h3.7c2.2,0,3.7-1.7,3.7-3.9C80,9,78.5,7.4,76.3,7.4z"/>
	<path style="fill-rule:evenodd;clip-rule:evenodd;fill:#A4C438;" d="M58.1,10.3c0-2.2-1.1-2.8-3.4-2.8H51v1.7h3.8
		c1.4,0,1.7,0.5,1.7,1.1c0,0.7-0.2,1.2-1.6,1.2l-3.8,0l0,1.6h3.7c0,0,0,0,0,0c0.8,0,1.4,0.7,1.4,1.5c0,0.2,0,0.5-0.1,0.7
		c0,0,0.1,0.1,0.1,0.1h1.5c0,0,0.3-1.7-0.7-2.6C57.7,12.2,58.1,11.5,58.1,10.3z"/>
	<path style="fill-rule:evenodd;clip-rule:evenodd;fill:#A4C438;" d="M63.5,7.5c-2.1,0-3.8,1.7-3.8,3.9c0,2.1,1.7,3.9,3.8,3.9
		c2.1,0,3.8-1.7,3.8-3.9C67.3,9.2,65.6,7.5,63.5,7.5z M63.5,13.7c-1.3,0-2.3-1-2.3-2.3c0-1.3,1-2.3,2.3-2.3c1.3,0,2.3,1,2.3,2.3
		C65.8,12.6,64.7,13.7,63.5,13.7z"/>
	<rect x="69.2" y="7.4" style="fill-rule:evenodd;clip-rule:evenodd;fill:#A4C438;" width="1.7" height="7.8"/>
</g>
</svg>
