<svg xmlns="http://www.w3.org/2000/svg" viewBox="0 0 200 80"><defs><style>.cls-1{fill:#e9ae04;}.cls-2{fill:#c3591a;}.cls-3{fill:#dd9c26;}.cls-4{fill:#f4970e;}.cls-5{fill:#df6410;}.cls-6{fill:#f59b08;}.cls-7{fill:#c11854;}.cls-8{fill:#bf2f1f;}.cls-9{fill:#1e93d1;}.cls-10{fill:#585857;}.cls-11{fill:none;}</style></defs><title>scrumalliance-logo</title><g id="Calque_2" data-name="Calque 2"><path class="cls-1" d="M22.44,42.69a3.62,3.62,0,1,0-3.62,3.62,3.62,3.62,0,0,0,3.62-3.62h0"/><path class="cls-2" d="M31.47,41a3.32,3.32,0,1,0-3.32,3.32A3.32,3.32,0,0,0,31.47,41"/><path class="cls-3" d="M40,43.58a3,3,0,1,0-3,3,3,3,0,0,0,3-3"/><path class="cls-4" d="M12,58a4.08,4.08,0,1,0-4.08,4.08h0A4.08,4.08,0,0,0,12,58"/><path class="cls-5" d="M15.43,48.64a3.87,3.87,0,1,0-3.87,3.88,3.87,3.87,0,0,0,3.87-3.88h0"/><path class="cls-6" d="M46.22,50a2.65,2.65,0,1,0-2.65,2.65A2.65,2.65,0,0,0,46.22,50h0"/><path class="cls-4" d="M48.82,58.32a2.49,2.49,0,1,1-.06,0"/><path class="cls-5" d="M47.29,66.63a2.09,2.09,0,1,0-2.1,2.11,2.09,2.09,0,0,0,2.1-2.11s0,0,0,0"/><path class="cls-1" d="M42.71,74.12a1.8,1.8,0,1,0-1.8,1.8,1.8,1.8,0,0,0,1.8-1.8h0"/><path class="cls-2" d="M35.91,78.3a1.7,1.7,0,1,0-1.7,1.7,1.7,1.7,0,0,0,1.7-1.7h0"/><path class="cls-1" d="M18.24,11.47a2.7,2.7,0,1,1,3.06,2.28,2.7,2.7,0,0,1-3.06-2.28h0"/><path class="cls-2" d="M11.25,11.2a2.49,2.49,0,1,1,2.82,2.1h0a2.48,2.48,0,0,1-2.82-2.08v0"/><path class="cls-3" d="M4.92,14.22a2.27,2.27,0,1,1,2.58,1.92,2.21,2.21,0,0,1-2.56-1.8l0-.12"/><path class="cls-4" d="M27.8,21.87a3.05,3.05,0,1,1,3.46,2.57h0a3.05,3.05,0,0,1-3.45-2.58"/><path class="cls-5" d="M24.18,15.19a2.9,2.9,0,1,1,3.32,2.44,2.9,2.9,0,0,1-3.32-2.44v0"/><path class="cls-6" d="M1.07,19.67a2,2,0,1,1,2.3,1.71,2,2,0,0,1-2.3-1.71h0"/><path class="cls-4" d="M0,26.15a1.88,1.88,0,1,1,2.13,1.59h0A1.88,1.88,0,0,1,0,26.15"/><path class="cls-5" d="M2.07,32.29a1.59,1.59,0,1,1,1.81,1.34h0a1.58,1.58,0,0,1-1.8-1.33h0"/><path class="cls-7" d="M6.36,37.41a1.37,1.37,0,1,1,1.56,1.16,1.37,1.37,0,0,1-1.56-1.16h0"/><path class="cls-8" d="M11.94,39.8a1.3,1.3,0,1,1,1.48,1.1h0a1.3,1.3,0,0,1-1.47-1.11"/><path class="cls-9" d="M45.06,34.74h3.32L48,36.9c-.43,2.43,2.31,3.32,4.75,3.32,3.32,0,5.74-2.08,5.74-5.06,0-5.82-11.15-3.62-11.15-11.9,0-5.39,4.62-8.2,9.71-8.2,3,0,7.74,1.29,7,4.87l-.58,3H60.14L60.46,21c.36-1.88-2.09-2.47-3.89-2.47C53.51,18.51,51,20.23,51,23c0,5.53,11.15,3.32,11.15,11.91,0,5.53-4.58,8.85-10,8.85-3.32,0-8.51-1.49-7.74-6.17"/><path class="cls-9" d="M77.35,22.84c2.63,0,7,1.11,6.42,4.68l-.43,2.28h-3.1l.25-1.34c.25-1.61-1.77-2.32-3.51-2.32-4,0-7.69,3.94-7.69,8.53,0,3.45,2.06,5.69,5.45,5.69A9.71,9.71,0,0,0,81,37.76l1,3a11,11,0,0,1-7.57,2.94c-5.34,0-8.69-3.54-8.69-8.72,0-6.45,5.15-12.1,11.61-12.1"/><path class="cls-9" d="M89.72,27.11c.08-.46,0-.86-.65-.86H86.8l.58-3h4.11c1.4,0,1.95.55,1.95,1.69a19.2,19.2,0,0,1-.7,3.38h.07c1.23-2.83,3.68-5.3,6.57-5.3a6.49,6.49,0,0,1,1.11.08l-.69,3.77a4.2,4.2,0,0,0-1-.12c-3.32,0-6.39,4.42-7.18,9l-1.27,7.4H86.87"/><path class="cls-9" d="M104.31,35.92l1.7-9.66h-3l.54-2.94H110l-2.09,11.82a11.59,11.59,0,0,0-.29,2.28c0,1.73.69,2.79,2.74,2.79,3.64,0,6.63-4.09,7.25-7.85l1.11-6.09h-3l.54-2.94h6.54l-2.53,14.07a7.49,7.49,0,0,0-.11,1.22c0,1.42.72,1.73,1.63,1.73a4,4,0,0,0,.86-.08l-.54,3s-.8.08-1.66.08c-2.45,0-3.89-1.37-3.65-4.36h-.07a9,9,0,0,1-7.54,4.75c-2.78,0-5.12-1.49-5.12-5.23a13.08,13.08,0,0,1,.25-2.51"/><path class="cls-9" d="M130.1,27.08c.08-.51-.07-.83-.65-.83h-2.27l.54-2.94h4.11c1.44,0,2,.6,2,1.66a12.63,12.63,0,0,1-.54,2.71h.08c.86-1.77,3.83-4.83,7.25-4.83,2.92,0,4.42,1.69,4.58,4.83h.08a8.5,8.5,0,0,1,7.19-4.84c3.11,0,5,1.89,5,5.26,0,2.36-1.59,8.91-1.59,10.49s.72,1.73,1.63,1.73a4.57,4.57,0,0,0,.86-.08l-.54,2.94a15.4,15.4,0,0,1-1.56.08c-1.61,0-4-.35-4-3.73,0-1.85,1.55-8.48,1.55-10.37s-.58-2.88-2.66-2.88c-3.39,0-6,4-6.63,7.82l-1.63,9.08h-3.49l2.11-11.93a18.23,18.23,0,0,0,.24-2.21c0-1.6-.58-2.75-2.6-2.75-3.49,0-6.13,4.09-6.86,8l-1.58,8.85h-3.51"/><path class="cls-10" d="M51.26,76.77h2.55L66.89,51.44h2.81l4,25.33h2.57L75.86,79h-8l.4-2.28h2.92l-1.11-7.11h-9.9l-3.64,7.11h2.89L59,79H50.86m18.9-11.7L68,56a12.53,12.53,0,0,1-.14-1.77h-.07A13.27,13.27,0,0,1,67.14,56L61.29,67.35Z"/><path class="cls-10" d="M80.06,74.11l3.64-20.47H80.44l.4-2.21h5.71l-4,22.36a10.43,10.43,0,0,0-.14,1.29c0,1.65.86,1.77,1.73,1.77a3.86,3.86,0,0,0,.91-.08L84.67,79a8.66,8.66,0,0,1-1.26.12c-1.4,0-3.54-.48-3.54-3.57A8.29,8.29,0,0,1,80,74.11"/><path class="cls-10" d="M89.69,74.11l3.64-20.47H90.09l.4-2.21h5.69l-4,22.36a10.15,10.15,0,0,0-.14,1.29c0,1.65.87,1.77,1.74,1.77a3.81,3.81,0,0,0,.9-.08L94.3,79a8.66,8.66,0,0,1-1.26.12A3.2,3.2,0,0,1,89.5,75.6a8.35,8.35,0,0,1,.19-1.49"/><path class="cls-10" d="M100.15,74.23l2.31-12.73H99.21l.4-2.21h5.69L102.69,74a6.82,6.82,0,0,0-.11,1.11c0,1.65.87,1.85,1.74,1.85a3.72,3.72,0,0,0,.91-.08l-.4,2.21s-.75.08-1.26.08c-1.37,0-3.54-.35-3.54-3.45a12.79,12.79,0,0,1,.19-1.46m3.93-22.79h2.79l-.62,3.32h-2.84Z"/><path class="cls-10" d="M120.49,67h1.19a17.9,17.9,0,0,0,.29-2.21c0-2.08-.94-3.54-3.72-3.54a10.15,10.15,0,0,0-5.45,1.85l-.75-2.21a12.3,12.3,0,0,1,6.63-2c3.46,0,5.81,1.69,5.81,5.53,0,2.31-1.8,9.11-1.8,10.76s.87,1.85,1.7,1.85a4.42,4.42,0,0,0,.94-.08l-.4,2.21s-.73.08-1.37.08c-2.12,0-3.46-1.22-3.32-3.85h-.08s-2.38,4.25-6.63,4.25c-2.92,0-5.31-1.77-5.31-5,0-6.33,7.32-7.62,12.31-7.62m-6.38,10.37c3.38,0,6.24-4.09,7-7.51l.19-.86h-1c-3,0-9.6.35-9.6,5.23,0,1.69,1,3.14,3.43,3.14"/><path class="cls-10" d="M132.74,62.36c.08-.46-.08-.86-.65-.86h-2.45l.4-2.21h3.46c1.37,0,1.85.59,1.85,1.61a14,14,0,0,1-.62,3.14h0a9.34,9.34,0,0,1,8.08-5.23c3.17,0,4.93,1.81,4.93,5.06,0,2.43-1.69,9.63-1.69,11.19s.87,1.85,1.74,1.85a4,4,0,0,0,.9-.08l-.4,2.21s-.72.08-1.34.08c-1.29,0-3.46-.4-3.46-3.37,0-1.77,1.7-8.91,1.7-11.11s-1.11-3.32-3.14-3.32c-3.9,0-7.51,4-8.3,8.64L132.15,79h-2.45"/><path class="cls-10" d="M163.87,58.82c2.44,0,6.57,1.11,6,4.36l-.36,2.08h-2.27l.25-1.45c.29-1.85-2.21-2.59-3.94-2.59-4.21,0-8.61,4.17-8.61,9.54,0,4,2.45,6.36,6,6.36a9.61,9.61,0,0,0,6.38-2.75l.8,2.21a10.64,10.64,0,0,1-7.35,3c-4.94,0-8.34-3.32-8.34-8.6,0-6.71,5.41-12.1,11.43-12.1"/><path class="cls-10" d="M183,58.82c4.42,0,6.54,3,6.54,7.14a13.27,13.27,0,0,1-.51,3.22H175.12a9.41,9.41,0,0,0-.18,1.8c0,3.42,2,6.13,5.82,6.13a10.08,10.08,0,0,0,6-2.38l.75,2.21a11.62,11.62,0,0,1-6.82,2.59c-5,0-8.23-3.32-8.23-8.33,0-6.44,4.42-12.37,10.6-12.37m3.89,8.4a8.57,8.57,0,0,0,.14-1.49c0-3.15-1.76-4.68-4.15-4.68-3,0-6.06,2.21-7.36,6.17Z"/><path class="cls-10" d="M195.19,54.25a4.32,4.32,0,1,1-3.84,4.29,4.08,4.08,0,0,1,3.84-4.29m0,7.74a3.53,3.53,0,1,0-3.05-3.49,3.26,3.26,0,0,0,3,3.49h0m-1.32-5.73h1.56a1.24,1.24,0,0,1,1.25,1.39,1.17,1.17,0,0,1-.74,1.18h0l.14.24.77,1.64H196L195.27,59h-.66v1.73h-.76Zm1.42,2.1a.67.67,0,0,0,.66-.75.64.64,0,0,0-.56-.71h-.76v1.47Z"/></g><g id="Calque_1" data-name="Calque 1"><rect class="cls-11" x="-0.27" width="200" height="80"/></g></svg>