<?xml version="1.0" encoding="utf-8"?>
<!-- Generator: Adobe Illustrator 21.0.2, SVG Export Plug-In . SVG Version: 6.00 Build 0)  -->
<svg version="1.1" id="Calque_1" xmlns="http://www.w3.org/2000/svg" xmlns:xlink="http://www.w3.org/1999/xlink" x="0px" y="0px"
	 viewBox="0 0 420 450" style="enable-background:new 0 0 420 450;" xml:space="preserve">
<style type="text/css">
	.st0{fill:#5675EE;}
	.st1{fill:#5960E9;}
	.st2{fill:#FFFFFF;}
	.st3{fill:#DBDBDB;}
	.st4{fill:#ED1C24;}
	.st5{fill:#C71C24;}
</style>
<path id="XMLID_56_" class="st0" d="M158.4,417.6L34.2,322.3c-25.4-19.5-25.3-57.4,0.3-76.7L158.4,152c30.5-23.2,73.1-23.2,103.6,0
	l123.9,93.6c25.6,19.3,25.7,57.2,0.3,76.7L262,417.6C231.5,440.8,188.9,440.8,158.4,417.6z"/>
<path class="st1" d="M210.2,436.5c-18.6,0-37.2-5.9-52.7-17.7l0,0L33.3,323.5c-12.5-9.6-19.6-24.1-19.6-39.7
	c0.1-15.6,7.3-30,19.9-39.4l123.9-93.6c31-23.6,74.4-23.6,105.4,0l123.9,93.6c12.6,9.5,19.8,23.8,19.9,39.4
	c0.1,15.6-7.1,30.1-19.6,39.7l-124.2,95.3C247.4,430.6,228.8,436.5,210.2,436.5z M159.3,416.4c30,22.8,71.8,22.8,101.8,0l124.2-95.3
	c11.8-9,18.5-22.6,18.4-37.3c-0.1-14.6-6.9-28.1-18.7-37l-123.9-93.6c-30-22.8-71.8-22.8-101.8,0L35.4,246.8
	c-11.8,8.9-18.6,22.4-18.7,37c-0.1,14.7,6.6,28.2,18.4,37.3L159.3,416.4z"/>
<g id="XMLID_45_">
	<g id="XMLID_50_">
		<path id="XMLID_59_" class="st2" d="M158.4,352.8L34.2,257.5C8.8,238,8.9,200.1,34.5,180.8l123.9-93.6C188.9,64,231.5,64,262,87.2
			l123.9,93.6c25.6,19.3,25.7,57.2,0.3,76.7L262,352.8C231.5,376,188.9,376,158.4,352.8z"/>
		<path class="st3" d="M210.2,371.7c-18.6,0-37.2-5.9-52.7-17.7l0,0L33.3,258.7c-12.5-9.6-19.6-24.1-19.6-39.7
			c0.1-15.6,7.3-30,19.9-39.4L157.5,86c31-23.6,74.4-23.6,105.4,0l123.9,93.6c12.6,9.5,19.8,23.8,19.9,39.4
			c0.1,15.6-7.1,30.1-19.6,39.7L262.9,354C247.4,365.8,228.8,371.7,210.2,371.7z M159.3,351.6c30,22.8,71.8,22.8,101.8,0l124.2-95.3
			c11.8-9,18.5-22.6,18.4-37.3c-0.1-14.6-6.9-28.1-18.7-37L261.1,88.4c-30-22.8-71.8-22.8-101.8,0L35.4,182
			c-11.8,8.9-18.6,22.4-18.7,37c-0.1,14.7,6.6,28.2,18.4,37.3L159.3,351.6z"/>
	</g>
</g>
<g id="XMLID_2_">
	<g id="XMLID_44_">
		<g id="XMLID_34_">
			<path id="XMLID_62_" class="st4" d="M158.4,288L34.2,192.8C8.8,173.2,8.9,135.4,34.5,116l123.9-93.6c30.5-23.2,73.1-23.2,103.6,0
				L385.9,116c25.6,19.3,25.7,57.2,0.3,76.7L262,288C231.5,311.2,188.9,311.2,158.4,288z"/>
			<path class="st5" d="M210.2,306.9c-18.6,0-37.2-5.9-52.7-17.7l0,0L33.3,194c-12.5-9.6-19.6-24.1-19.6-39.7
				c0.1-15.6,7.3-30,19.9-39.5l123.9-93.6c31-23.6,74.4-23.6,105.4,0l123.9,93.6c12.6,9.5,19.8,23.8,19.9,39.4
				c0.1,15.6-7.1,30.1-19.6,39.7l-124.2,95.3C247.4,301,228.8,306.9,210.2,306.9z M159.3,286.8c30,22.8,71.8,22.8,101.8,0
				l124.2-95.3c11.8-9,18.5-22.6,18.4-37.3c-0.1-14.6-6.9-28.1-18.7-37L261.1,23.6c-30-22.8-71.8-22.8-101.8,0L35.4,117.2
				c-11.8,8.9-18.6,22.5-18.7,37.1c-0.1,14.7,6.6,28.3,18.4,37.3L159.3,286.8L159.3,286.8z"/>
		</g>
	</g>
	<g id="XMLID_3_">
		<path id="XMLID_4_" class="st2" d="M236.1,174.7c12.9-9.9,12.5-26.2-0.9-36.4l-52.5-39.6c-13.4-10.1-34.7-10.3-47.6-0.3
			c-12.9,9.9-12.5,26.2,0.9,36.4l52.5,39.6C201.9,184.5,223.2,184.7,236.1,174.7z"/>
		<path id="XMLID_5_" class="st2" d="M215.4,113.6l26.2,19.8c17.1,12.9,17.6,33.7,1.2,46.4c-16.5,12.7-43.7,12.5-60.8-0.4
			l-26.2-19.8l-8.8,6.8l26.2,19.8c20.6,15.5,52.6,16.8,74.1,3.7l12.4,9.4l-17.2,13.3l9.1,6.9l43.2-33.3l-9.1-6.9l-17.2,13.3
			l-12.4-9.4c17-16.5,15-40.9-5.6-56.5l-26.2-19.8L215.4,113.6z"/>
	</g>
</g>
</svg>
