<?xml version="1.0" encoding="utf-8"?>
<!-- Generator: Adobe Illustrator 20.0.0, SVG Export Plug-In . SVG Version: 6.00 Build 0)  -->
<svg version="1.1" id="Calque_1" xmlns="http://www.w3.org/2000/svg" xmlns:xlink="http://www.w3.org/1999/xlink" x="0px" y="0px"
	 viewBox="0 0 200 80" style="enable-background:new 0 0 200 80;" xml:space="preserve">
<style type="text/css">
	.st0{fill:#0E5668;}
	.st1{fill:#19AACF;}
	.st2{fill:none;}
</style>
<title>akka-logo</title>
<g id="Calque_2">
	<path class="st0" d="M104.8,31.4v-3.9h6.5v18.9c0,2.3,0.6,3.2,2,3.2c0.4,0,0.9-0.1,1.3-0.1v5.2c-1,0.3-2.1,0.5-3.2,0.4
		c-1.3,0.1-2.6-0.2-3.8-0.9c-1.1-0.7-1.9-1.9-2.2-3.2c-1.9,2.9-5,4.2-9.3,4.2c-3.7,0.1-7.2-1.4-9.7-4.1c-2.6-2.7-4-6.3-3.9-10.1
		c-0.1-3.7,1.3-7.3,3.9-10c2.5-2.7,6-4.2,9.7-4.1C100.6,26.9,103.9,28.8,104.8,31.4L104.8,31.4z M102.9,46.9c3.3-3.3,3.3-8.6,0-11.9
		c-1.5-1.6-3.7-2.4-5.9-2.4c-2.2,0-4.3,0.8-5.8,2.4c-3,3.4-3,8.5,0,11.9c1.5,1.6,3.6,2.4,5.8,2.4C99.2,49.3,101.3,48.5,102.9,46.9z
		 M117.4,54.5V17.1h6.4V39l10-11.5h7.4l-10.6,12.1l11.7,15H135l-8.5-10.9l-2.7,3v7.9L117.4,54.5L117.4,54.5z M144,54.5V17.1h6.4V39
		l10-11.5h7.4l-10.6,12.1l11.7,15h-7.3l-8.5-10.9l-2.7,3v7.9H144L144,54.5z M188.4,31.4v-3.9h6.5v18.9c0,2.3,0.6,3.2,2,3.2
		c0.4,0,0.9-0.1,1.3-0.1v5.2c-1,0.3-2.1,0.5-3.2,0.4c-1.3,0.1-2.6-0.2-3.8-0.9c-1.1-0.7-1.9-1.9-2.2-3.2c-1.9,2.9-5,4.2-9.3,4.2
		c-3.7,0.1-7.2-1.4-9.7-4.1c-2.6-2.7-4-6.3-3.9-10.1c-0.1-3.7,1.3-7.3,3.9-10c2.5-2.7,6-4.2,9.7-4.1
		C184.2,26.9,187.5,28.8,188.4,31.4L188.4,31.4z M186.5,46.9c3.3-3.3,3.3-8.6,0-11.9c-1.5-1.6-3.7-2.4-5.9-2.4
		c-2.2,0-4.2,0.8-5.8,2.4c-3,3.4-3,8.5,0,11.9c1.5,1.6,3.6,2.4,5.8,2.4C182.8,49.3,184.9,48.4,186.5,46.9L186.5,46.9z"/>
	<path class="st0" d="M66.2,66.1c11.6,9.3,19.1-18.4,0.6-23.6c-15.5-4.3-31.2,3.1-46.8,20.3C20,62.8,48.9,52.3,66.2,66.1z"/>
	<path class="st1" d="M20.2,62.6c11.1-11.5,29.6-24.4,46.9-19.7c3.6,0.9,6.7,3.2,8.7,6.2L59.5,16.3c-2.3-3.7-8.3-2.9-11.7-0.1
		L4.7,52.3c-3.7,3.2-4,8.8-0.8,12.5c3.1,3.5,8.4,4,12.1,1.1L20.2,62.6z"/>
</g>
<g id="Calque_1_1_">
	<rect class="st2" width="200" height="80"/>
</g>
</svg>
