<svg id="Calque_1" data-name="Calque 1" xmlns="http://www.w3.org/2000/svg" viewBox="0 0 200 80"><defs><style>.cls-1{fill:#fefefe;}.cls-2{fill:#ef5138;}.cls-3{fill:#666;}</style></defs><title>logo-swift</title><path class="cls-1" d="M37.1,65.8H49.5a19.53,19.53,0,0,0,3.4-.3c3.9-.8,6.8-2.8,8.4-6.5a16.73,16.73,0,0,0,1.1-6.3V27.8a23.08,23.08,0,0,0-.3-3.7,10.93,10.93,0,0,0-6.9-8.5,16.37,16.37,0,0,0-5.8-.9H24.3a17.2,17.2,0,0,0-3.2.2,10.29,10.29,0,0,0-9,7.3,20.17,20.17,0,0,0-.8,5.4V52.7a19.53,19.53,0,0,0,.3,3.4,10.91,10.91,0,0,0,6.5,8.7,16.06,16.06,0,0,0,6.1,1.1C28.4,65.8,32.7,65.8,37.1,65.8Zm128-13.59V39.5c0-.4.1-.5.5-.5h11.7c.4,0,.4.1.4.5V56.9a17.26,17.26,0,0,0,.5,4.5,5.44,5.44,0,0,0,3.1,4.1,5.75,5.75,0,0,0,2.6.5,10.48,10.48,0,0,0,3.9-.5c.2-.1.4-.2.3-.5a7.72,7.72,0,0,1-.2-1.5c0-.3-.1-.4-.4-.3a8.21,8.21,0,0,1-3.5.3,3.18,3.18,0,0,1-2.7-2,8.81,8.81,0,0,1-.6-3.3V39.5c0-.4.1-.4.4-.4h7.1c.3,0,.4-.1.4-.4V37.3c0-.3-.1-.4-.4-.4h-7.1c-.3,0-.4-.1-.4-.4V31c0-.3,0-.4-.4-.3-.7.2-1.4.5-2.2.7-.2.1-.3.2-.3.4v4.6c0,.3-.1.4-.4.4H165.6c-.4,0-.4-.1-.4-.4a32.4,32.4,0,0,1,.2-4.4,10.39,10.39,0,0,1,.7-3.5,5.09,5.09,0,0,1,3.2-3.2,7,7,0,0,1,5.3.3c.3.1.4.1.4-.2l.6-1.5c.1-.3.1-.4-.2-.5a10.89,10.89,0,0,0-3.1-.8,8.17,8.17,0,0,0-7.2,2.7,12,12,0,0,0-2.4,5.7,32.61,32.61,0,0,0-.3,5.4c0,.4-.1.4-.4.4h-3.3c-.3,0-.4.1-.4.4v1.4c0,.3.1.4.4.4h3.2c.4,0,.5.1.5.5V64.7c0,.4.1.6.5.5h1.8c.4,0,.5-.1.5-.5C165.1,60.6,165.1,56.4,165.1,52.2Zm-23-15.3h-2.4c-.3,0-.4.1-.5.4-.9,3-1.9,6-2.8,9-1.6,5.1-3.3,10.2-4.5,15.4,0,.1,0,.3-.2.3s-.2-.2-.2-.3c-1-3.6-2.1-7.2-3.3-10.7-1.5-4.6-3-9.1-4.6-13.7-.1-.3-.2-.4-.5-.4h-1.9c-.3,0-.4.1-.4.3-2.7,8.2-5.8,16.2-8.1,24.5,0,.1,0,.3-.2.3s-.2-.2-.2-.3c-.1-.6-.3-1.2-.4-1.7-1.3-4.8-2.7-9.7-4.1-14.5-.8-2.7-1.6-5.5-2.4-8.2,0-.1,0-.4-.3-.4h-2.6c0,.2.1.3.1.4,1.4,4.7,2.9,9.3,4.3,14,1.4,4.5,2.8,9.1,4.1,13.6.1.3.2.4.6.4h1.5a.55.55,0,0,0,.6-.4c1.3-3.8,2.7-7.7,4-11.5s2.7-7.6,3.8-11.5l.6-2.1a3.81,3.81,0,0,1,.3,1,71.53,71.53,0,0,0,2.7,9c1.7,5.1,3.4,10.1,5.1,15.1.1.3.2.4.5.4h1.4c.4,0,.6-.1.7-.5,2.5-7.7,5-15.3,7.5-23C141,40.3,141.5,38.6,142.1,36.9ZM90.9,25a12.75,12.75,0,0,0-1.9.1,5.77,5.77,0,0,0-1.4.3c-4.7,1.1-7.8,4.6-8.1,8.8a8.78,8.78,0,0,0,2,6.8,16.64,16.64,0,0,0,6.2,4.2A51.25,51.25,0,0,1,93,47.7,8.4,8.4,0,0,1,97.5,55a7.84,7.84,0,0,1-6.3,8.3,15.25,15.25,0,0,1-11.4-2c-.3-.2-.4-.2-.6.2a11.94,11.94,0,0,1-.8,1.6c-.2.4-.1.6.3.8a18.68,18.68,0,0,0,13.1,1.8,10.71,10.71,0,0,0,7.1-5.2,11.28,11.28,0,0,0,1.2-7,8.88,8.88,0,0,0-2.8-5.7,25.89,25.89,0,0,0-5.6-3.7,46.79,46.79,0,0,1-5.5-2.7,7.7,7.7,0,0,1-4-6.7,6.91,6.91,0,0,1,4.9-6.9,13.17,13.17,0,0,1,10.1,1.1c.3.1.3.1.5-.1.2-.5.4-.9.6-1.4.3-.7.3-.7-.4-1.1A18.88,18.88,0,0,0,90.9,25Zm60,26.2V37.5c0-.4,0-.5-.5-.5h-1.9c-.4,0-.5.1-.5.5V65c0,.3.1.4.4.4h2c.4,0,.5-.1.5-.5Zm-1.5-25.4a2.45,2.45,0,1,0,2.4,2.6A2.48,2.48,0,0,0,149.4,25.8Z"/><path class="cls-2" d="M62,24a10.78,10.78,0,0,0-6.9-8.5,14.4,14.4,0,0,0-5.8-.9H24.2c-1.1,0-2.1.1-3.2.2a10.55,10.55,0,0,0-9,7.3,14.18,14.18,0,0,0-.8,5.4c0,8.4,0,16.7,0,25.1a19.53,19.53,0,0,0,.3,3.4A10.72,10.72,0,0,0,18,64.7a14.07,14.07,0,0,0,6.1,1.1h13c4.1,0,8.2,0,12.3-.1a19.53,19.53,0,0,0,3.4-.3,10.66,10.66,0,0,0,8.4-6.5,15.25,15.25,0,0,0,1.1-6.3q0-12.45,0-24.9A23.08,23.08,0,0,0,62,24ZM54.5,56.2c0,.1-.1.3-.2.3s-.1-.1-.2-.2A6.11,6.11,0,0,0,52,53.9a6.14,6.14,0,0,0-4.8-.4A26.33,26.33,0,0,0,43.7,55a16.61,16.61,0,0,1-8.8,1.2c-7.7-1-13.7-5-18.2-11.3a4.34,4.34,0,0,1-.1-.5c-.1.1-.3,0-.2-.1s.2,0,.2.1a21.83,21.83,0,0,0,8.3,3.9,18,18,0,0,0,11-.4,12.44,12.44,0,0,0,2-1c.2-.1.3-.2,0-.4a58.24,58.24,0,0,1-5.3-4.6A113.78,113.78,0,0,1,22.3,30.3a21,21,0,0,1-2.2-3A138,138,0,0,0,35.2,38.6,160.56,160.56,0,0,1,25,25.7c0,.1-.1,0-.1,0s0-.1-.1-.1c.1-.1.1,0,.1.1.1-.1.2,0,.1,0a.62.62,0,0,1,.5.3A118.17,118.17,0,0,0,40,38.3c1,.7,1.9,1.3,2.9,1.9.2.1.3.1.4-.1a15.89,15.89,0,0,0,.8-7.2,23.92,23.92,0,0,0-4.2-10.6c0-.1-.1-.1-.1-.2.2-.1.2,0,.3,0A25.93,25.93,0,0,1,51.3,36.5a15.52,15.52,0,0,1,.2,9.3.84.84,0,0,0,.2.7,13.2,13.2,0,0,1,3,8.3A5.9,5.9,0,0,1,54.5,56.2Z"/><path class="cls-3" d="M165.1,52.2V64.9c0,.4-.1.5-.5.5h-1.8c-.4,0-.5-.1-.5-.5V39.7c0-.4-.1-.5-.5-.5h-3.2c-.3,0-.4-.1-.4-.4V37.4c0-.3.1-.4.4-.4h3.3c.3,0,.5-.1.4-.4a32.61,32.61,0,0,1,.3-5.4,11.64,11.64,0,0,1,2.4-5.7,8.17,8.17,0,0,1,7.2-2.7,10.89,10.89,0,0,1,3.1.8c.3.1.3.2.2.5l-.6,1.5c-.1.3-.2.3-.4.2a7.45,7.45,0,0,0-5.3-.3,5.33,5.33,0,0,0-3.2,3.2,10.39,10.39,0,0,0-.7,3.5c-.1,1.4-.2,2.9-.2,4.4,0,.3.1.4.4.4h11.8c.3,0,.4-.1.4-.4V32c0-.3.1-.4.3-.4.7-.2,1.4-.4,2.2-.7.3-.1.4,0,.4.3v5.5c0,.4.1.4.4.4h7.1c.3,0,.4.1.4.4v1.4c0,.3-.1.4-.4.4H181c-.3,0-.4,0-.4.4V58.4a9.6,9.6,0,0,0,.6,3.3,3,3,0,0,0,2.7,2,6.9,6.9,0,0,0,3.5-.3c.3-.1.4,0,.4.3a7.72,7.72,0,0,0,.2,1.5c.1.3-.1.4-.3.5a13.06,13.06,0,0,1-3.9.5,8,8,0,0,1-2.6-.5,5.68,5.68,0,0,1-3.1-4.1,17.26,17.26,0,0,1-.5-4.5V39.7c0-.4-.1-.5-.4-.5H165.5c-.4,0-.5.1-.5.5C165.1,43.7,165.1,47.9,165.1,52.2Z"/><path class="cls-3" d="M142.1,36.9c-.6,1.7-1.1,3.3-1.6,5-2.5,7.7-5,15.3-7.5,23-.1.4-.3.5-.7.5h-1.4c-.3,0-.4-.1-.5-.4-1.7-5.1-3.4-10.1-5.1-15.1a71.53,71.53,0,0,1-2.7-9c-.1-.3-.2-.7-.3-1a16.55,16.55,0,0,1-.6,2.1c-1.2,3.9-2.5,7.7-3.8,11.5s-2.7,7.7-4,11.5c-.1.3-.2.4-.6.4h-1.5a.55.55,0,0,1-.6-.4c-1.4-4.5-2.8-9.1-4.1-13.6-1.4-4.7-2.9-9.3-4.3-14,0-.1-.1-.3-.1-.4h2.6c.3,0,.2.2.3.4.8,2.7,1.6,5.5,2.4,8.2,1.4,4.8,2.8,9.6,4.1,14.5a13.64,13.64,0,0,1,.4,1.7c0,.1,0,.3.2.3s.1-.2.2-.3c2.3-8.3,5.4-16.3,8.1-24.5.1-.2.2-.3.4-.3h1.9c.3,0,.4.1.5.4,1.5,4.6,3,9.1,4.6,13.7,1.2,3.5,2.3,7.1,3.3,10.7,0,.1,0,.3.2.3s.1-.2.2-.3c1.2-5.2,2.9-10.3,4.5-15.4.9-3,1.9-6,2.8-9,.1-.3.2-.4.5-.4C140.4,37,141.2,36.9,142.1,36.9Z"/><path class="cls-3" d="M90.9,25a18,18,0,0,1,6.9,1.3c.7.3.7.3.4,1.1-.2.5-.4.9-.6,1.4-.1.3-.2.3-.5.1A12.75,12.75,0,0,0,87,27.8a6.94,6.94,0,0,0-4.9,6.9,7.33,7.33,0,0,0,4,6.7c1.8,1.1,3.7,1.8,5.5,2.7a20.17,20.17,0,0,1,5.6,3.7,8.88,8.88,0,0,1,2.8,5.7,11.4,11.4,0,0,1-1.2,7,10.8,10.8,0,0,1-7.1,5.2,18.68,18.68,0,0,1-13.1-1.8c-.4-.2-.5-.4-.3-.8s.5-1.1.8-1.6c.1-.3.2-.4.6-.2a15.17,15.17,0,0,0,11.4,2A7.93,7.93,0,0,0,97.4,55a8.4,8.4,0,0,0-4.5-7.3,51.25,51.25,0,0,0-5.3-2.5A17.49,17.49,0,0,1,81.4,41a8.78,8.78,0,0,1-2-6.8,9.84,9.84,0,0,1,8.1-8.8c.5-.1,1-.2,1.4-.3A14.08,14.08,0,0,1,90.9,25Z"/><path class="cls-3" d="M150.9,51.2V64.9c0,.4-.1.5-.5.5h-2c-.3,0-.4-.1-.4-.4V37.5c0-.4.1-.5.5-.5h1.9c.4,0,.5.1.5.5Z"/><path class="cls-3" d="M149.4,25.8a2.7,2.7,0,0,1,2.5,2.6,2.38,2.38,0,0,1-2.5,2.3,2.21,2.21,0,0,1-2.3-2.5A2.23,2.23,0,0,1,149.4,25.8Z"/><path class="cls-1" d="M16.5,44.5c0-.1-.2-.1-.1-.2s.1.1.1.2Z"/><path class="cls-1" d="M24.9,25.7l-.1-.1c.1-.1.1-.1.1.1C25,25.6,25,25.7,24.9,25.7Z"/><path class="cls-1" d="M25,25.6l.1.1c-.1.1-.1,0-.1-.1Z"/><path class="cls-2" d="M35.4,38.8h0C35.3,38.7,35.4,38.7,35.4,38.8Z"/></svg>