<svg id="Calque_1" data-name="Calque 1" xmlns="http://www.w3.org/2000/svg" viewBox="0 0 128 87"><defs><style>.cls-1{fill:none;}.cls-2{fill:#ef7f31;}.cls-3{fill:#67757c;}.cls-4{fill:#68757c;}.cls-5{fill:#68767d;}.cls-6{fill:#f39637;}.cls-7{fill:#818181;}.cls-8{fill:#df622a;}.cls-9{fill:gray;}.cls-10{fill:#e7ae3d;}.cls-11{fill:#c25929;}.cls-12{fill:#69777e;}.cls-13{fill:#dd9d41;}.cls-14{fill:#828282;}.cls-15{fill:#f49a39;}.cls-16{fill:#f39739;}.cls-17{fill:#f39839;}.cls-18{fill:#e0652d;}.cls-19{fill:#e8af3f;}.cls-20{fill:#c35c2e;}.cls-21{fill:#e0662f;}.cls-22{fill:#dea045;}.cls-23{fill:#e8b143;}.cls-24{fill:#c45f31;}.cls-25{fill:#f49d3e;}.cls-26{fill:#f49b40;}.cls-27{fill:#e26f3a;}.cls-28{fill:#c83568;}.cls-29{fill:#c5443d;}.cls-30{fill:#616f76;}</style></defs><title>logo-frenchsug</title><g id="Calque_2" data-name="Calque 2"><rect class="cls-1" width="128" height="87"/></g><path class="cls-2" d="M84.8,29.09a6.12,6.12,0,0,0-6.23-6.21H49.44A6.1,6.1,0,0,0,43.22,29q0,14.5,0,29a6.12,6.12,0,0,0,6.21,6.12H84.27c.41,0,.52-.11.52-.52Q84.78,46.35,84.8,29.09ZM83,55.4c0,2.16,0,4.32,0,6.48,0,.37-.09.47-.47.47H49.48A4.38,4.38,0,0,1,45,57.88q0-14.4,0-28.79a4.38,4.38,0,0,1,4.49-4.46H78.56A4.38,4.38,0,0,1,83,29.07Q83,42.23,83,55.4Z"/><path class="cls-3" d="M62.85,49.4c-.1-.22-.14-.5-.47-.53a.8.8,0,0,0-.74.41,1.38,1.38,0,0,0-.22.8c0,.34,0,.68,0,1s-.07.3-.29.3-.29-.11-.29-.31c0-.61,0-1.21,0-1.82,0-.17,0-.35-.22-.39s-.14-.21-.13-.34.14-.14.25-.15c.42,0,.57.05.71.44a1.38,1.38,0,0,1,1.07-.49.74.74,0,0,1,.65.33c.15.26.25.18.4,0a1.08,1.08,0,0,1,1-.34.81.81,0,0,1,.79.69,7.85,7.85,0,0,1,.06,1.47c0,.17,0,.34.22.38s.14.22.13.35-.13.15-.25.16c-.58.05-.7-.05-.7-.63s0-.93,0-1.39-.51-.67-.92-.34a1.32,1.32,0,0,0-.43,1.06c0,.34,0,.68,0,1,0,.11,0,.26-.13.26s-.35.14-.4-.14A6.57,6.57,0,0,0,62.85,49.4Z"/><path class="cls-3" d="M66.16,56.77c0,.23,0,.45,0,.68s0,.28-.16.29-.33.08-.36-.17-.17-.11-.26-.06a2,2,0,0,1-1.3.27,2.07,2.07,0,0,1-1.74-2.36,2,2,0,0,1,2-1.9,2.19,2.19,0,0,1,1.29.31c.12.08.31.14.15.35s-.19.31-.46.15a1.5,1.5,0,0,0-1.85.1,1.62,1.62,0,0,0-.44,1.82,1.49,1.49,0,0,0,2.37.62c.31-.26.29-.52-.08-.69-.19-.09-.12-.23-.12-.35s.12-.16.23-.17c.55-.05.69.06.69.61C66.16,56.43,66.16,56.6,66.16,56.77Z"/><path class="cls-4" d="M48.7,54.23a.41.41,0,0,0-.26-.12c-.22,0-.13-.21-.14-.34s.08-.19.21-.21c.57-.1.78.08.78.67s0,1.32,0,2a.93.93,0,0,0,1,1,1,1,0,0,0,1-1c0-.72,0-1.44,0-2.16,0-.17,0-.36.2-.42a.8.8,0,0,1,.66,0,.27.27,0,0,1,0,.48c-.27.11-.23.29-.23.47,0,.62,0,1.24,0,1.86a1.5,1.5,0,0,1-1.65,1.41,1.44,1.44,0,0,1-1.49-1.49A8,8,0,0,0,48.7,54.23Z"/><path class="cls-3" d="M49.76,47.18a1.58,1.58,0,0,1,.82.21.56.56,0,0,1,.34.5c0,.13.11.34-.12.39s-.36.06-.45-.22-.44-.37-.75-.32a.57.57,0,0,0-.55.45c-.06.34.17.52.43.65s.6.25.88.42A1.14,1.14,0,0,1,51,50.63a1.28,1.28,0,0,1-1.33.84A2,2,0,0,1,48.51,51c-.18-.14-.16-.26,0-.42s.22-.19.38-.05a1.23,1.23,0,0,0,.93.33.61.61,0,0,0,.59-.46.54.54,0,0,0-.31-.63c-.29-.17-.6-.3-.9-.46A1.13,1.13,0,0,1,48.45,48,1.22,1.22,0,0,1,49.76,47.18Z"/><path class="cls-5" d="M74.83,57.28a1.66,1.66,0,0,1-.9.52.92.92,0,0,1-1.17-.9c0-.41,0-.82,0-1.23,0-.19,0-.41-.25-.45s-.14-.16-.13-.27.12-.16.24-.18c.59-.07.74.06.74.65,0,.42,0,.85,0,1.27a.53.53,0,0,0,.78.53,1,1,0,0,0,.68-1c0-.39,0-.79,0-1.18,0-.22.09-.3.3-.29s.31.07.3.3c0,.59,0,1.18,0,1.78,0,.18,0,.37.24.41s.13.2.12.32-.11.18-.24.17C75.23,57.74,74.89,57.82,74.83,57.28Z"/><path class="cls-3" d="M59.28,50.9a1.32,1.32,0,0,1-1.31.54.88.88,0,0,1-.77-1c0-.41,0-.82,0-1.22,0-.17,0-.35-.23-.37s-.16-.17-.15-.29.1-.18.23-.2c.54-.09.75.08.75.64s0,.82,0,1.22c0,.24,0,.49.31.6a.74.74,0,0,0,.79-.16,1.16,1.16,0,0,0,.4-.94c0-.35,0-.7,0-1.06s.05-.31.28-.32.28.11.28.31c0,.59,0,1.18,0,1.77,0,.18,0,.38.23.42s.15.2.15.33-.14.18-.27.18C59.64,51.4,59.28,51.46,59.28,50.9Z"/><path class="cls-6" d="M67.49,40.07a1.1,1.1,0,0,1,1.16-1.13,1.16,1.16,0,1,1,0,2.32A1.12,1.12,0,0,1,67.49,40.07Z"/><path class="cls-7" d="M48.57,43c0-.52,0-1,0-1.56,0-.26.05-.39.35-.38.66,0,1.32,0,2,0,.17,0,.35,0,.34.25s-.19.2-.33.2c-.49,0-1,0-1.48,0-.24,0-.31.08-.32.32,0,.93,0,.92.89.92h.68c.17,0,.26,0,.25.24s-.1.21-.24.21c-.38,0-.76,0-1.14,0s-.46.12-.44.46,0,.7,0,1.06c0,.19-.05.28-.26.28s-.29-.08-.29-.3C48.57,44.13,48.57,43.56,48.57,43Z"/><path class="cls-8" d="M70.81,37.44a1.11,1.11,0,1,1-1.1-1.13A1.09,1.09,0,0,1,70.81,37.44Z"/><path class="cls-9" d="M63,42.39a4.06,4.06,0,0,1,.54-.27.91.91,0,0,1,1.26.83c.05.59,0,1.18,0,1.77,0,.17-.05.25-.24.26s-.25-.11-.25-.29q0-.7,0-1.4c0-.55-.16-.77-.55-.79a.7.7,0,0,0-.79.75c0,.48,0,1,0,1.44,0,.18,0,.29-.24.29s-.25-.12-.25-.29q0-1.65,0-3.3c0-.18,0-.34.26-.33s.22.16.22.32C63,41.7,63,42,63,42.39Z"/><path class="cls-5" d="M53.86,54.7a.94.94,0,0,1,.77.32c.12.15.18.38,0,.49a.3.3,0,0,1-.48-.14.55.55,0,0,0-.81-.11c-.21.18-.16.36,0,.48a5.45,5.45,0,0,0,.69.32c.58.25.82.58.73,1a1.05,1.05,0,0,1-1.12.72,1.69,1.69,0,0,1-.91-.31c-.15-.1-.27-.21-.13-.41s.24-.16.41,0a.94.94,0,0,0,.82.23c.17,0,.33-.11.34-.32s-.11-.27-.26-.34l-.58-.26c-.61-.28-.84-.61-.74-1S53.14,54.7,53.86,54.7Z"/><path class="cls-5" d="M53.08,48.35a1.29,1.29,0,0,1,.91.28.53.53,0,0,1,.14.58c0,.16-.21.09-.33.09s-.12,0-.17-.1a.77.77,0,0,0-1.17-.14,1.11,1.11,0,0,0-.2,1.42,1.1,1.1,0,0,0,1.47.28c.11-.06.21-.29.38-.11s.24.3,0,.48a1.82,1.82,0,0,1-2,0,1.62,1.62,0,0,1-.55-1.78A1.48,1.48,0,0,1,53.08,48.35Z"/><path class="cls-10" d="M71.81,36.76a1.05,1.05,0,1,1,0-2.1,1.08,1.08,0,0,1,1.06,1A1.06,1.06,0,0,1,71.81,36.76Z"/><path class="cls-7" d="M57.21,42.42a1.56,1.56,0,0,1,.58-.32A.91.91,0,0,1,59,43c0,.59,0,1.18,0,1.77,0,.19-.08.24-.26.24s-.24-.09-.24-.26c0-.51,0-1,0-1.52,0-.36-.1-.65-.52-.69a.67.67,0,0,0-.79.59,9.83,9.83,0,0,0,0,1.52c0,.18,0,.37-.26.36s-.23-.18-.23-.35c0-.7,0-1.41,0-2.11,0-.14-.08-.33.14-.39S57.16,42.23,57.21,42.42Z"/><path class="cls-9" d="M59.62,43.63c0-1.09.59-1.65,1.51-1.53a1,1,0,0,1,.78.57c0,.1.18.24,0,.32s-.3.1-.37-.07a.65.65,0,0,0-.91-.37.83.83,0,0,0-.5.89,2.83,2.83,0,0,0,0,.63.7.7,0,0,0,.66.56.6.6,0,0,0,.69-.43c.07-.2.18-.29.38-.21s.1.29,0,.42a1.13,1.13,0,0,1-1.18.63A1.22,1.22,0,0,1,59.65,44,3.1,3.1,0,0,1,59.62,43.63Z"/><path class="cls-11" d="M74.44,36.19a.94.94,0,0,1-.93-1,.92.92,0,0,1,1-.93,1,1,0,1,1,0,1.92Z"/><path class="cls-12" d="M55.51,48.9a1.28,1.28,0,0,1,.74-.52c.17,0,.32,0,.32.21s.06.32-.22.36A1,1,0,0,0,55.49,50c0,.35,0,.71,0,1.06,0,.2,0,.32-.28.32s-.31-.12-.31-.34c0-.58,0-1.16,0-1.73,0-.19,0-.4-.25-.45s-.11-.2-.11-.32.12-.17.23-.17C55.12,48.39,55.45,48.39,55.51,48.9Z"/><path class="cls-12" d="M59.4,55.22c.24-.2.41-.44.72-.48s.33,0,.34.19,0,.32-.22.37a1,1,0,0,0-.85,1c0,.37,0,.73,0,1.1s-.06.33-.31.33-.3-.13-.3-.34c0-.59,0-1.18,0-1.77,0-.18,0-.37-.24-.42s-.15-.15-.14-.27.1-.19.23-.19C59,54.76,59.33,54.72,59.4,55.22Z"/><path class="cls-12" d="M67.6,55.22c.26-.22.43-.43.72-.47s.32,0,.33.2.06.32-.21.36a.91.91,0,0,0-.83,1c0,.39,0,.79,0,1.18s-.1.31-.33.31-.27-.12-.27-.32c0-.61,0-1.21,0-1.82,0-.17,0-.34-.23-.38s-.16-.17-.14-.3.14-.16.26-.16C67.19,54.77,67.54,54.7,67.6,55.22Z"/><path class="cls-13" d="M77.87,36a.87.87,0,0,1-.87.89.91.91,0,0,1-.9-.88.92.92,0,0,1,.89-.89A.87.87,0,0,1,77.87,36Z"/><path class="cls-14" d="M51.85,43.56c0-.38,0-.76,0-1.14,0-.11,0-.24.13-.28s.25,0,.3.14.16,0,.21,0a.61.61,0,0,1,.66-.15c.11,0,.27.07.18.25s0,.26-.27.25c-.52,0-.67.11-.71.64s0,1,0,1.43c0,.18,0,.29-.25.29s-.25-.11-.25-.29C51.86,44.31,51.85,43.93,51.85,43.56Z"/><path class="cls-15" d="M78.92,37.08a.73.73,0,0,1,.72.81.76.76,0,0,1-.77.73.78.78,0,0,1-.76-.8A.75.75,0,0,1,78.92,37.08Z"/><circle class="cls-16" cx="73.95" cy="30.57" r="0.75" transform="translate(-0.42 1.03) rotate(-0.8)"/><path class="cls-17" d="M80.39,40.15a.71.71,0,1,1-1.43,0,.69.69,0,0,1,.72-.7A.67.67,0,0,1,80.39,40.15Z"/><path class="cls-18" d="M73,29.65a.69.69,0,0,1-.7-.69.72.72,0,0,1,.72-.72.77.77,0,0,1,.71.7A.73.73,0,0,1,73,29.65Z"/><path class="cls-19" d="M72.24,28a.66.66,0,0,1-.71.67.6.6,0,0,1-.64-.67.66.66,0,0,1,.67-.67A.71.71,0,0,1,72.24,28Z"/><path class="cls-20" d="M70.42,28a.61.61,0,1,1-1.22,0,.61.61,0,1,1,1.22,0Z"/><path class="cls-21" d="M80,42.56a.64.64,0,0,1-.62.62.62.62,0,0,1-.6-.59.63.63,0,0,1,.59-.65A.64.64,0,0,1,80,42.56Z"/><path class="cls-22" d="M68.23,28.19a.55.55,0,0,1,.56.56.56.56,0,0,1-.57.55.55.55,0,0,1-.55-.56A.53.53,0,0,1,68.23,28.19Z"/><path class="cls-23" d="M78.19,44.2a.43.43,0,0,1,.45.47.49.49,0,0,1-.49.57.5.5,0,0,1-.56-.5C77.56,44.43,77.8,44.21,78.19,44.2Z"/><path class="cls-24" d="M76.17,46.41a.48.48,0,0,1-.47-.53.46.46,0,0,1,.49-.46.47.47,0,0,1,.5.51A.49.49,0,0,1,76.17,46.41Z"/><path class="cls-25" d="M67.71,30.09c0,.29-.17.49-.48.47a.46.46,0,0,1-.49-.52.45.45,0,0,1,.49-.48C67.56,29.56,67.7,29.77,67.71,30.09Z"/><path class="cls-26" d="M66.48,31.6a.44.44,0,0,1,.52-.42.46.46,0,0,1-.07.92A.45.45,0,0,1,66.48,31.6Z"/><path class="cls-27" d="M67.36,32.73a.39.39,0,0,1,.4.4.39.39,0,0,1-.77,0A.38.38,0,0,1,67.36,32.73Z"/><path class="cls-28" d="M68.7,34.37c0,.21-.11.35-.33.36A.32.32,0,0,1,68,34.4a.31.31,0,0,1,.32-.35A.32.32,0,0,1,68.7,34.37Z"/><path class="cls-29" d="M69.66,34.64c.22,0,.34.12.35.32a.29.29,0,0,1-.31.33.3.3,0,0,1-.33-.31A.32.32,0,0,1,69.66,34.64Z"/><path class="cls-30" d="M48.7,54.23s.09,0,.09,0q0,1,0,2s0,.06-.07.1Z"/><path class="cls-30" d="M62.85,49.4s.08-.11.08-.09a7.31,7.31,0,0,1-.07,1.93Z"/><path class="cls-3" d="M79.12,55.53a1.25,1.25,0,0,0-1.69-.74c-.23.1-.43.33-.7,0-.08-.09-.32,0-.49,0a.17.17,0,0,0-.19.17c0,.1,0,.23.08.26.35.08.27.34.27.57,0,.94,0,1.89,0,2.83,0,.23.09.29.3.29s.31-.06.3-.29,0-.7,0-1.1c1.1.53,1.94.22,2.18-.76A2.1,2.1,0,0,0,79.12,55.53ZM78.45,57a.78.78,0,0,1-.93.28,1,1,0,0,1-.53-1,.91.91,0,0,1,.49-.95.77.77,0,0,1,.95.23A1.49,1.49,0,0,1,78.45,57Z"/><path class="cls-5" d="M70.46,54.7a1.51,1.51,0,0,0-1.6,1.54,1.58,1.58,0,0,0,1.58,1.59,1.61,1.61,0,0,0,1.63-1.59A1.54,1.54,0,0,0,70.46,54.7Zm0,2.57a1,1,0,0,1,0-2.08,1,1,0,0,1,0,2.08Z"/><path class="cls-5" d="M56.18,56.33c.25,0,.51,0,.76,0s.54,0,.8,0,.31-.11.3-.33a1.29,1.29,0,0,0-1.69-1.25,1.37,1.37,0,0,0-1.08,1.16,1.51,1.51,0,0,0,.61,1.6,1.6,1.6,0,0,0,1.76.09c.16-.08.4-.14.25-.43s-.31-.11-.48,0a1,1,0,0,1-1.47-.46C55.86,56.46,55.87,56.31,56.18,56.33Zm0-1a.73.73,0,0,1,1.14.25c.1.22.08.35-.21.34h-.51a1.49,1.49,0,0,1-.25,0c-.16,0-.39.1-.45-.1S56.06,55.43,56.22,55.31Z"/><path class="cls-9" d="M54.33,43.69c.24,0,.48,0,.72,0h.8c.17,0,.24-.06.25-.25a1.32,1.32,0,0,0-1-1.33,1.27,1.27,0,0,0-1.52.77,2,2,0,0,0,0,1.37,1.16,1.16,0,0,0,1.06.79,1.23,1.23,0,0,0,1.2-.46c.09-.12.28-.28.1-.42s-.36-.1-.48.14a.67.67,0,0,1-.75.35.81.81,0,0,1-.67-.58C54,43.83,54,43.67,54.33,43.69Zm-.11-.9a.76.76,0,0,1,1.29.1c.13.27.1.43-.25.4-.15,0-.31,0-.46,0a3.16,3.16,0,0,1-.34,0c-.13,0-.31.08-.38-.08S54.13,42.91,54.22,42.79Z"/></svg>