<?xml version="1.0" encoding="utf-8"?>
<!-- Generator: Adobe Illustrator 20.0.0, SVG Export Plug-In . SVG Version: 6.00 Build 0)  -->
<svg version="1.1" id="Calque_1" xmlns="http://www.w3.org/2000/svg" xmlns:xlink="http://www.w3.org/1999/xlink" x="0px" y="0px"
	 viewBox="0 0 560 300" style="enable-background:new 0 0 560 300;" xml:space="preserve">
<style type="text/css">
	.st0{fill:#F4BB52;}
	.st1{fill:#1D2A5B;}
	.st2{fill:#283463;}
	.st3{fill:#3A4570;}
	.st4{fill:#FEFEFE;}
</style>
<g>
	<path class="st0" d="M361.1,3.2c0.8,5.2,1.2,10.3,2.3,15.2c0.7,3.3-0.5,5-3,6.9c-19,14.9-38,30-56.9,45
		c-17,13.4-33.9,26.8-50.9,40.3c-18.6,14.8-37.3,29.5-55.9,44.3c-1.5,1.2-2.9,1.7-4.9,1.7c-8-0.1-15.9,0-24-0.3
		C232.1,105.3,296.5,54.4,361.1,3.2z"/>
	<path class="st0" d="M216.8,155.1c49.9-39,99.5-77.8,149.2-116.8c0.3,2.2,0.6,4.1,0.9,6c0.6,4.2,1.1,8.4,1.8,12.6
		c0.3,1.5-0.3,2.4-1.5,3.3c-25.1,19.4-50.2,38.8-75.3,58.3c-15.5,12-31,24-46.4,35.9c-0.6,0.5-1.2,0.9-2.1,0.8c-8.5,0-17.1,0-25.6,0
		C217.6,155.2,217.4,155.2,216.8,155.1z"/>
	<path class="st1" d="M255.9,256.4c4.9,0,9.9,0,14.8,0c0.6,0,1.3-0.3,1.2,0.8c-0.1,5.7,0.4,11.5-0.5,17.2
		c-1.8,11.4-7.1,17-18.4,19.4c-8.8,1.9-17.7,1.8-26.4-0.5c-9.3-2.3-15.2-8.2-17.4-17.6c-2.1-8.7-2.2-17.5-0.1-26.3
		c2.5-10.3,8.8-17,19.1-19.6c10.3-2.6,20.5-2.6,30.6,1.3c3.2,1.2,6,3.1,8.5,5.4c0.6,0.6,0.7,0.9,0.1,1.6c-2.8,2.8-5.6,5.6-8.4,8.4
		c-0.4,0.4-0.7,0.8-1.3,0.2c-5.4-5-12-5.8-19-5.3c-1.4,0.1-2.8,0.3-4.1,0.6c-7.1,1.7-11,6.2-12.1,14.1c-0.7,5.1-0.6,10.2,0.6,15.2
		c1.4,6.2,5.4,9.8,11.5,10.9c4.5,0.8,9,0.9,13.5,0.1c6.5-1.1,9.4-4.5,9.8-11.1c0.2-3.1,0.2-3.1-2.9-3.1c-4.6,0-9.2,0-13.9,0
		c-1,0-1.3-0.2-1.3-1.3c0.1-3.1,0.1-6.2,0-9.2c0-1.1,0.3-1.4,1.4-1.4C246,256.4,250.9,256.4,255.9,256.4z"/>
	<path class="st1" d="M366.7,261.7c0-10.3,0-20.6,0-30.8c0-1.3,0.4-1.6,1.6-1.6c15.2,0,30.4,0,45.6,0c1.2,0,1.6,0.3,1.5,1.5
		c-0.1,3.3-0.1,6.7,0,10c0,1.3-0.4,1.5-1.6,1.5c-10.4,0-20.9,0-31.3,0c-1.2,0-1.6,0.2-1.5,1.5c0.1,3.2,0.1,6.5,0,9.7
		c0,1.2,0.4,1.4,1.5,1.4c10.1,0,20.3,0,30.4-0.1c1.3,0,1.8,0.2,1.7,1.7c-0.1,3.1-0.1,6.2,0,9.2c0,1.3-0.3,1.6-1.6,1.6
		c-10.1-0.1-20.3,0-30.4-0.1c-1.3,0-1.6,0.3-1.6,1.6c0.1,3.7,0.1,7.5,0,11.3c0,1.3,0.3,1.6,1.6,1.6c10.5-0.1,21,0,31.5-0.1
		c1.5,0,1.8,0.5,1.7,1.8c-0.1,3.1-0.1,6.3,0,9.4c0,1-0.3,1.3-1.3,1.3c-15.5,0-31,0-46.6,0c-1.2,0-1.3-0.5-1.3-1.5
		C366.7,282.3,366.7,272,366.7,261.7z"/>
	<path class="st0" d="M371.1,73.8c0.8,5.6,1.6,10.9,2.3,16.3c0,0.1,0,0.1,0,0.2c1.3,3.3-0.4,5.1-2.9,7.1
		c-22.6,17.5-45.1,35.2-67.6,52.9c-2,1.6-3.9,3.8-6.2,4.5c-2.4,0.8-5.2,0.2-7.8,0.2c-6.5,0-12.9,0-19.9,0
		C303.2,127.8,337.1,100.9,371.1,73.8z"/>
	<path class="st1" d="M326.3,255.5c0,8.2,0,16.4,0,24.7c0,1.2,0.3,1.6,1.5,1.5c9.5-0.1,19,0,28.5-0.1c1.6,0,1.9,0.5,1.9,2
		c-0.1,3.1-0.1,6.3,0,9.4c0,0.9-0.2,1.1-1.1,1.1c-14.6,0-29.3,0-43.9,0c-1.2,0-1.1-0.6-1.1-1.4c0-10.5,0-21,0-31.4
		c0-10.1,0-20.2,0-30.4c0-1.4,0.4-1.7,1.7-1.7c3.7,0.1,7.5,0.1,11.3,0c1.1,0,1.4,0.3,1.4,1.4C326.2,238.9,326.3,247.2,326.3,255.5z"
		/>
	<path class="st1" d="M327.8,195.2c0-7.4,0-14.7,0-22.1c0-1.1,0.2-1.6,1.5-1.6c10.9,0.1,21.8,0,32.7,0c1,0,1.4,0.2,1.4,1.3
		c-0.1,2.3-0.1,4.6,0,6.9c0,1.1-0.4,1.3-1.3,1.3c-7.4,0-14.8,0-22.2,0c-1.1,0-1.6,0.2-1.6,1.5c0.1,2.1,0.1,4.2,0,6.3
		c0,1.1,0.3,1.4,1.4,1.3c7.1,0,14.3,0,21.4-0.1c1.3,0,1.7,0.3,1.6,1.6c-0.1,2.1-0.1,4.1,0,6.2c0.1,1.1-0.2,1.5-1.4,1.5
		c-7.1-0.1-14.3,0-21.4-0.1c-1.3,0-1.7,0.3-1.6,1.6c0.1,2.5,0.1,5,0,7.6c0,1.1,0.3,1.4,1.4,1.4c7.5,0,15,0,22.5-0.1
		c1.1,0,1.5,0.2,1.5,1.4c-0.1,2.2-0.1,4.3,0,6.5c0,0.8-0.1,1.2-1.1,1.2c-11.2,0-22.4,0-33.6,0c-1.1,0-1.1-0.4-1.1-1.3
		C327.8,210.1,327.8,202.7,327.8,195.2z"/>
	<path class="st1" d="M159.2,170.9c6.1,0,12.1,0.8,17.6,3.7c1.3,0.7,1.6,1.1,0.6,2.4c-1.5,1.8-2.7,3.8-4.1,5.8
		c-0.4,0.6-0.7,0.8-1.4,0.4c-5.5-2.9-11.3-3.7-17.3-2.9c-2.8,0.4-4.2,1.4-4.5,3.4c-0.4,2.4,0.3,3.9,2.6,4.9c2.6,1.1,5.5,1.4,8.2,1.8
		c3.9,0.6,7.7,1.1,11.4,2.5c4.5,1.6,7.2,4.6,7.8,9.6c1,8.9-2.6,14.4-11.4,16.1c-9.6,1.9-19,1.4-28-2.9c-4.2-2-4.2-2.1-1.6-5.8
		c0.8-1.1,1.6-2.2,2.3-3.3c0.4-0.6,0.7-0.8,1.4-0.3c6.8,4.2,14.2,5.2,21.9,4.1c3.6-0.5,5.1-2,5.1-5.1c0-2.1-0.8-3.3-3-4.1
		c-2.8-1.1-5.9-1.4-8.9-1.8c-3.7-0.6-7.3-1.1-10.8-2.5c-5-1.9-7.5-5.5-7.6-10.8c0-1.9,0-3.8,0.5-5.7c1.4-5.4,5.4-7.7,10.4-8.8
		C153.3,171,156.2,170.9,159.2,170.9z"/>
	<path class="st1" d="M233.1,218.9c2.2-5.5,4.3-10.8,6.4-16c4-10.1,8-20.2,12-30.3c0.4-0.9,0.7-1.3,1.7-1.2c2.7,0.1,5.4,0.1,8.2,0
		c0.8,0,1.3,0.1,1.6,1c6,15.1,12.1,30.2,18.2,45.4c0.4,0.9,0.4,1.2-0.8,1.2c-2.9-0.1-5.8-0.1-8.6,0c-0.8,0-1.2-0.3-1.4-1
		c-0.7-1.9-1.5-3.8-2.2-5.7c-0.3-0.7-0.6-1-1.4-1c-6.5,0-12.9,0-19.4,0c-0.8,0-1.1,0.3-1.4,1c-0.7,2-1.6,3.9-2.3,5.9
		c-0.2,0.6-0.5,0.9-1.2,0.9C239.4,218.8,236.4,218.9,233.1,218.9z"/>
	<path class="st0" d="M375.9,107.7c0.4,2.6,0.7,4.9,1.1,7.2c0.6,4,1.1,7.9,1.7,11.9c0.2,1.2-0.2,1.9-1.1,2.5
		c-6.9,5.2-13.7,10.5-20.5,15.8c-3.9,3-7.8,6-11.7,9.1c-0.6,0.5-1.2,0.7-2,0.7c-8.6,0-17.2,0-25.7,0c-0.1,0-0.3,0-0.8-0.1
		C336.6,139,356.2,123.4,375.9,107.7z"/>
	<path class="st1" d="M185.4,195.4c0.1-3,0.3-6,1.1-9c2-7.4,6.6-12.2,13.9-14.2c6.8-1.8,13.7-1.9,20.5,0.3c2.8,0.9,5.1,2.5,7.3,4.5
		c0.6,0.6,0.6,0.9,0,1.4c-2,1.9-3.9,3.8-5.8,5.8c-0.5,0.5-0.8,0.6-1.5,0.1c-5.5-4.7-11.7-4.7-18.1-2.4c-3.8,1.4-5.6,4.6-6.4,8.4
		c-0.7,3.5-0.7,7,0,10.4c1.1,5.8,5.2,9,11.6,9.5c5.1,0.3,9.8-0.4,13.7-4.2c0.6-0.5,0.8-0.2,1.2,0.1c1.8,1.8,3.6,3.6,5.5,5.4
		c0.7,0.7,0.5,1-0.1,1.5c-3,2.9-6.5,4.8-10.6,5.7c-5.6,1.2-11.2,1.2-16.8-0.1c-8.8-2-13.8-7.6-15.1-16.5
		C185.6,199.9,185.5,197.6,185.4,195.4z"/>
	<path class="st1" d="M297.2,261.7c0,10.3,0,20.6,0,30.8c0,1.3-0.4,1.6-1.6,1.6c-3.8-0.1-7.6-0.1-11.4,0c-0.9,0-1.3-0.1-1.3-1.2
		c0-20.8,0-41.6,0-62.4c0-1,0.3-1.2,1.2-1.2c3.9,0,7.8,0.1,11.7,0c1.2,0,1.4,0.4,1.4,1.5C297.2,241.1,297.2,251.4,297.2,261.7z"/>
	<path class="st1" d="M287.9,195.1c0-7.3,0-14.6,0-21.9c0-1.3,0.4-1.6,1.6-1.6c2.5,0.1,4.9,0.1,7.4,0c1.2-0.1,1.5,0.3,1.5,1.5
		c0,11.7,0,23.3-0.1,35c0,1.3,0.2,1.7,1.6,1.7c6.7-0.1,13.5,0,20.2-0.1c1,0,1.4,0.2,1.4,1.3c-0.1,2.2-0.1,4.4,0,6.6
		c0,0.9-0.3,1.1-1.1,1.1c-10.5,0-21,0-31.4,0c-1.1,0-1.1-0.5-1.1-1.3C287.9,210.1,287.9,202.6,287.9,195.1z"/>
	<path class="st0" d="M362.9,155c5.6-4.3,11.2-8.5,16.8-12.8c0.7-0.5,1.1-0.6,1.2,0.5c0.6,3.9,1.3,7.8,2,11.7c0.1,0.7,0,1-0.8,0.9
		c-6.4,0-12.8,0-19.2,0C362.9,155.2,362.9,155.1,362.9,155z"/>
	<path class="st2" d="M429,234.8c-0.8-1.2-0.5-2.6-0.7-4.3c-0.5,1.3-0.8,2.3-1.2,3.2c-0.1,0.4-0.1,0.9-0.6,1c-0.6,0-0.5-0.6-0.7-1
		c-0.3-0.8-0.6-1.7-1.1-2.6c-0.1,1.2-0.2,2.5-0.4,3.7c-0.2,0-0.3,0-0.5,0c-0.2-1.8,0-3.5,0.3-5.3c0.1-0.6,0.8-0.2,1.1,0.4
		c0.4,1.1,0.8,2.2,1.2,3.6c0.5-1.3,0.9-2.4,1.3-3.4c0.1-0.4,0.3-0.8,0.8-0.8c0.7,0.1,0.5,0.6,0.5,0.9
		C429,231.7,429.4,233.2,429,234.8z"/>
	<path class="st3" d="M419,229.6c1.4-0.4,2.7-0.4,4.2-0.1c-2.3,0.1-1.7,1.7-1.7,2.9c0,0.6,0,1.1,0,1.7c0,0.2,0,0.6-0.3,0.6
		c-0.4,0-0.5-0.3-0.5-0.6c0-0.8-0.1-1.5,0-2.3C420.8,230.6,420.7,229.6,419,229.6z"/>
	<path class="st1" d="M202.3,293.5c-8.5-21.2-17-42.4-25.5-63.7c-0.3-0.8-0.8-1-1.6-1c-4,0-7.9,0.1-11.9,0c-1.2,0-1.7,0.4-2.1,1.5
		c-8.2,20.8-16.5,41.6-24.8,62.4c-0.2,0.4-0.5,0.9-0.4,1.4c4.3,0,8.5,0,12.8,0c0.9,0,1.1-0.4,1.4-1.1c1.1-2.9,2.3-5.7,3.3-8.6
		c0.3-0.8,0.6-1.1,1.5-1.1c9,0,18.1,0,27.1,0c0.9,0,1.3,0.3,1.6,1.1c1.1,2.9,2.2,5.7,3.3,8.6c0.3,0.7,0.5,1.1,1.4,1.1
		c4.6-0.1,9.1,0,13.9,0C202.4,293.8,202.4,293.6,202.3,293.5z M177.6,271.6c-6-0.1-11.9,0-17.9,0c-0.3,0-0.6,0-1-0.1
		c3.4-8.5,6.7-17,10-25.4c0.5,0.3,0.5,0.7,0.7,1.1c3,7.7,6,15.3,9.1,23C178.8,271.2,178.9,271.6,177.6,271.6z"/>
	<path class="st1" d="M414.4,184.8c-1.3-5.3-4.5-9.1-9.8-11c-2.8-1-5.6-1.5-8.6-1.8c-7.5-0.6-15.1-0.2-22.6-0.3
		c-1.2,0-1.2,0.5-1.2,1.4c0,7.4,0,14.8,0,22.2s0,14.8,0,22.2c0,1.1,0.2,1.5,1.4,1.5c6-0.1,11.9,0,17.9-0.1c3,0,5.9-0.3,8.9-0.9
		c7.5-1.5,12.6-5.6,14.2-13.3C416,198,416,191.4,414.4,184.8z M404.4,202c-0.8,3.7-3.1,6-6.7,6.9c-4.7,1.2-9.5,0.8-14.3,0.9
		c-0.9,0-0.7-0.7-0.7-1.2c0-4.4,0-8.8,0-13.3c0-4.3,0-8.6,0-13c0-0.6-0.3-1.3,0.8-1.3c4.5,0.1,9-0.3,13.4,0.6c5,1,7.1,3.2,7.8,8.4
		C405.2,194,405.2,198,404.4,202z"/>
	<path class="st4" d="M257.1,183.8c2.5,6.4,4.9,12.5,7.3,18.7c-5,0-9.7,0-14.7,0C252.1,196.3,254.5,190.2,257.1,183.8z"/>
</g>
</svg>
