<svg xmlns="http://www.w3.org/2000/svg" viewBox="0 0 200 80"><defs><style>.cls-1,.cls-2{fill:#df4124;}.cls-2{isolation:isolate;font-size:12.54px;font-family:ArialMT, Arial;}.cls-3{fill:none;}</style></defs><title>ember-logo</title><g id="Calque_2" data-name="Calque 2"><path class="cls-1" d="M186.59,52.68a2.15,2.15,0,0,0-3.13-2s-4.54,3.51-8.53,3.13-2.76-9.34-2.76-9.34.88-8.18-1.5-8.87-5.27,2.13-5.27,2.13a29.25,29.25,0,0,0-5.33,9.09l-.47.16s.56-8.93-.06-11c-.47-1-4.76-.94-5.49.88s-4.14,14.32-4.39,19.59c0,0-6.74,5.7-12.6,6.64s-7.27-2.76-7.27-2.76,16-4.45,15.42-17.24-12.88-8.06-14.29-7-8.56,5.36-10.66,17.43c-.06.41-.19,2.19-.19,2.19s-6.21,4.14-9.65,5.27c0,0,9.65-16.24-2.13-23.57C103,34.28,98.73,41,98.73,41S114.66,23.28,111.14,8.3c-1.69-7.11-5.23-7.9-8.53-6.74-5,2-6.83,4.86-6.83,4.86a55,55,0,0,0-7.93,23.19c-1.5,13.85-3.7,30.62-3.7,30.62s-3.07,3-5.89,3.13S76.7,55,76.7,55s2.19-13,2-15.2-.31-3.35-2.88-4.14-5.39,2.51-5.39,2.51-7.46,11.28-8.09,13l-.38.69-.38-.47s5.27-15.36.25-15.58-8.31,5.49-8.31,5.49-5.7,9.56-6,10.66l-.38-.47s2.35-11.13,1.88-13.85A2.54,2.54,0,0,0,46,35.41s-3.29-.38-4.14,1.72-4,16.14-4.39,20.59c0,0-8.21,5.89-13.63,6S19,60.26,19,60.26s19.81-6.8,14.42-20.18c-2.44-3.45-5.27-4.54-9.25-4.45s-8.9,2.51-12.1,9.72a31.63,31.63,0,0,0-2.35,9.18h0s-3.54.72-5.42-.85-2.88,0-2.88,0-3.23,4,0,5.23a36.67,36.67,0,0,0,8.21,1.69h0a15.25,15.25,0,0,0,5.7,9c5.86,4.45,17.14-.34,17.14-.34l4.61-2.57s.16,4.26,3.51,4.89,4.76,0,10.66-14.26c3.45-7.3,3.67-6.9,3.67-6.9l.38-.06S52.63,64.34,53.66,68.1s5.49,3.39,5.49,3.39,2.44.34,4.39-6.55a105.07,105.07,0,0,1,5.7-14.64h.47s-1.63,14.39.88,18.93,9,1.6,9,1.6a44.12,44.12,0,0,0,5.27-3,18.4,18.4,0,0,0,13,3.76c17-3.35,23.07-7.87,23.07-7.87a14,14,0,0,0,12,8.09,19.9,19.9,0,0,0,16-5.7s-.06,4.23,3.51,5.74,6-7,6-7l6-16.77H165s.31,10.94,6.27,12.66,13.73-4,13.73-4S186.9,55.81,186.59,52.68ZM18.06,54.21c.25-9.34,6.33-13.41,8.46-11.35s1.32,6.43-2.66,9.15S18.06,54.21,18.06,54.21ZM97.57,18.11s5.58-14.48,6.9-7.46S92.81,38.7,92.81,38.7C93,34,97.57,18.11,97.57,18.11Zm6.68,40.34c-3.7,9.65-12.6,5.7-12.6,5.7s-1-3.45,1.88-13.1,9.72-5.89,9.72-5.89S107.92,48.82,104.25,58.45Zm24.67-4.23s-.88-3.07,2.35-8.93,5.7-2.66,5.7-2.66,2.76,3-.38,7.46A9.14,9.14,0,0,1,128.92,54.21Z"/><text class="cls-2" transform="translate(158.42 75.93)">®</text></g><g id="Calque_1" data-name="Calque 1"><rect class="cls-3" width="200" height="80"/></g></svg>