<?xml version="1.0" encoding="utf-8"?>
<!-- Generator: Adobe Illustrator 20.0.0, SVG Export Plug-In . SVG Version: 6.00 Build 0)  -->
<svg version="1.1" id="Calque_1" xmlns="http://www.w3.org/2000/svg" xmlns:xlink="http://www.w3.org/1999/xlink" x="0px" y="0px"
	 viewBox="0 0 200 80" style="enable-background:new 0 0 200 80;" xml:space="preserve">
<style type="text/css">
	.st0{fill:#F8A91F;}
	.st1{fill:#E78725;}
	.st2{fill:#FBC16A;}
	.st3{fill:#FFFFFF;}
	.st4{fill:#CAC9C9;}
	.st5{fill:#453017;}
	.st6{fill:none;}
</style>
<title>grunt-logo</title>
<g id="Calque_2">
	<g id="Layer_1">
		<path class="st0" d="M78.8,15.3c0,0,1.1,4.2,1.2,5.6s-2.8,4.5-2.8,6c0,2.6,1.6,4.9,4,5.7c3.4,1.4,3.9,4.9,3.9,7.1
			c-0.2,2.2-0.6,4.3-1.2,6.3c0,0-0.8,10.4,3.4,12.2c4.2,1.8,3.2,1.8,4.2,1.8s7.7,2.8,11.8,1.7c4-1.1,5.1-2.3,5.1-2.3s4,0.3,5.3-3.2
			c1.3-4.6,1.9-9.5,1.6-14.3c-0.5-3.4-1.1-7.9,1.7-9.4c2.8-1.5,5.7-3.4,5.3-4.9c-0.4-1.5-2.9-3.7-2.9-3.7s-0.6-3.9-0.2-4.8
			c0.5-0.9,3.2-3.2,1.7-4.9c-1.2-1.1-2.7-1.7-4.3-1.7l-3.5,0.3c0,0-6-5.4-13.9-5.1c-4.7,0.2-9.3,2-12.8,5.1c-1.6-0.5-3.3-0.5-4.9,0
			C78.9,13.7,78.4,12.7,78.8,15.3L78.8,15.3z"/>
		<path class="st1" d="M93,38.4c0,0-3.1,4.7-5.3,8c-0.3,0.5,2.2,0.5,2.2,0.5L93,38.4L93,38.4z M94.4,28.7c0,0-0.9,2.3-1.4,3.5
			c-0.5,1.2-2.6,2-2.6,2s1.1-1.1,1.1-4c0-1.2,1.6-1.7,1.6-1.7L94.4,28.7z"/>
		<path class="st1" d="M93.5,30c-1.4,1.4-3.6,1.8-5.4,1c-3.5-1.3-3.9-5.8-3.9-7s6.7,1.3,7.6,1.8C92.7,26.3,94.4,28.4,93.5,30z
			 M80.2,5.9c0,0,3.2-0.6,5.4,1.1c1.1,0.8,2.1,1.9,2.8,3.1L84.8,13c-1.2-0.7-2-1.8-2.3-3.1C81.9,7.5,82.3,6.4,80.2,5.9L80.2,5.9z"/>
		<path class="st1" d="M92.5,23.5c-1.3-1.8-3.3-2.9-5.5-3c-1.6-0.2-3.2,0.1-4.6,0.9c0,0,5.1,0.2,6.6,2.1c2.8,3.6,6.8,3.9,7.4,3.1
			c-0.9,0-1.8-0.4-2.4-1.1C93.4,24.8,93,24.2,92.5,23.5z M83.9,30.5c0,0-5.7-2-4.6-3.9c1.1-1.9,0.2-3.1,0.2-3.1s-3.2,2.4-2.4,4.9
			c0.5,1.6,1.3,2.7,5.9,4.8c2.2,4.1,0.4,11.4,0.6,11.5c0.1,0,3.1-1.4,2.9-8.3C86.5,34.2,86.3,31.3,83.9,30.5L83.9,30.5z M91.4,9.5
			c-2.4,1.2-5.7,2.9-5.7,2.9L87,13c-0.1,0.2-0.2,0.3-0.2,0.3l1.3,0.6c0,0,3.2,2.3,5.2,3.8c-0.7-1.8-1.6-3.5-2.6-5.2
			C90.4,11.5,90.6,10.3,91.4,9.5L91.4,9.5z M99.3,58.8c-7.3,0-9.8-3.7-9.8-3.7l1.2,2.8c0.4,1.2,5.1,5,8.7,5"/>
		<path class="st1" d="M90.3,52.6c0,0,0.7,4.1,3.4,4.1c2.3,0,3-3.5,3-4.2L90.3,52.6z M85.8,46.4c0.6-1.9,1.1-3.8,1.4-5.8
			c0.2-2.4,0.3-4.8,0.2-7.2c0,0-0.7,2.8-1.4,3.2s-1.8,3.5-1.8,3.5s-0.6,4.6-0.9,6.1C84.1,46.5,84.8,46,85.8,46.4L85.8,46.4z
			 M79.2,28.3c0,0,1.5-0.5,2-3.9c0.3-2.1,0.1-4.2-0.6-6.2c0,0,0.1,4.6-0.5,5.5s-1,1.2-1.6,2.3C78.2,26.9,78.5,27.9,79.2,28.3
			L79.2,28.3z"/>
		<path class="st2" d="M81.1,6.7l-0.3-0.2C79.8,6.5,81.1,6.7,81.1,6.7z"/>
		<path class="st0" d="M92.6,8.4c-0.9-0.2-1.6-0.6-2.2-1.3c-1.4-2-3.6-3.2-6-3.3c-2.2,0-4.4,0.3-6.5,0.9l2.8,1.8c0.3,0,0.8,0,1.7,0
			c2,0.1,3.7,1.6,4.1,3.6l12.4-1.7"/>
		<path class="st3" d="M93.8,27.7c-1.2,1-2.7,1.5-4.3,1.1c-2.6-0.5-4.1-1.7-4.3-3.7c-0.2-1,0-1.9,0.5-2.8c1.5,0.5,3,1.2,4.3,2.1
			C91.5,25.7,92.5,27.7,93.8,27.7z"/>
		<path class="st4" d="M91.8,27.1c-1,0.4-2.1,0.4-3.1,0.1c-1.3-0.5-2.2-1.6-2.3-2.9c0,0-1.3,3.9,2.4,4.6c1.6,0.4,3.4,0,4.7-1.1
			L91.8,27.1z"/>
		<path class="st5" d="M92.8,7.6c-0.2-3.3,2.5-5.9,3.5-6c0.1,0.6-0.1,2.7,0.9,3.4c0.3-1.8,1.2-3.7,4.8-5c-0.5,1.5-0.5,3.2,0.2,4.6
			c2.5-2.3,4.2-1.9,4.2-1.9s-1.7,3-1.1,4.9C100.3,7.2,92.8,8.2,92.8,7.6L92.8,7.6z M82.2,12.6c-1.2-1-0.3-1.9-0.4-3
			c0-0.5-0.1-1-0.3-1.5c-1.1-1.7-3.7-2.2-3.7-2.3l-1.2-0.2l0.8-0.9c2.3-2,5.6-2.7,8.5-1.6c3.6,1.2,6.2,5.1,6.3,5.2l-1.8,0.9
			c0,0-2.1-3.7-5.2-4.7c-1.9-0.6-4-0.4-5.7,0.4c1.3,0.5,2.4,1.3,3.2,2.4c0.3,0.7,0.5,1.4,0.5,2.1c-0.1,0.9,0.3,1.8,0.9,2.5
			L82.2,12.6z M79.1,27c1.1-1.6,1.8-3.5,1.9-5.5c0.1-1.8-0.1-3.6-0.6-5.3c0,1.8-0.2,3.6-0.6,5.3C79.6,23.4,79.4,25.2,79.1,27
			L79.1,27z"/>
		<path class="st5" d="M87,10.8c-0.3-1.2-0.9-2.3-1.8-3.2c-1.2-0.9-2.8-1.1-4.2-0.7l-0.3-1c1.8-0.5,3.6-0.2,5.2,0.8
			c2.4,1.7,2.7,3.2,2.8,3.4L87,10.8z M83.8,25.7c-0.5-0.7-0.7-1.5-0.6-2.4c0-0.6,0.4-1.1,0.9-1.5c0.9-0.4,1.4,0.7,1.4,0.7
			S84,22.9,83.8,25.7z"/>
		<path class="st5" d="M92.4,27.4L92.4,27.4c-1.4,1.2-3.5,1.2-4.9,0.1c-1.3-1-1.2-3.5-0.8-4.5c1,0.2,1.9,0.6,2.7,1.2
			c-1-0.9-1.8-1.5-1.8-1.5l-1.1-0.3l-2.1-0.7c0,0.2-0.8,3.8,1.4,6.3c1,1.1,5.6,3.5,7.8-0.6L92.4,27.4z"/>
		<path class="st5" d="M92.2,27.7c1.4,2.1,4.9,0.9,4.8-1.3c-1.5,0.7-3.4,0.3-4.4-1.1c-1.2-1.4-5-5.2-10.3-3.9
			C85.9,22.2,90.7,25.5,92.2,27.7z"/>
		<path class="st5" d="M81.8,33.6c1,0.8,1.5,2,1.5,3.2c0,2.8-0.2,5.5-0.5,8.3c0.7,0.4,1.2,0.5,1.8,1c0.4-3.3,0.5-6.5,0.5-9.8
			c0-1.7-0.9-3.3-2.4-4.2l-1-0.6c-1.8-1-3.7-2-3.7-3.8c-0.1-0.9,0.3-1.8,1.1-2.2l0.1-0.1c0.4-0.3,0.8-0.7,1.1-1.2
			c0.7-1.5,0.8-5.5,0-6.5c-0.4-0.5-1.4-2.2-1.1-3.3c0.1-0.4,0.4-0.8,0.8-1c0.6-0.3,1.2-0.4,1.8-0.3c1.4,0,2.7,0.3,4.1,0.7
			c3.1,1,6.8,3.8,7.9,4.7h0.1l0.7,0.5L94,18.3c-1.8-2.8-4.5-5-7.6-6.1c-1.5-0.5-3-0.8-4.6-0.9c-0.9,0-1.9,0.2-2.7,0.6
			c-0.8,0.4-1.5,1.2-1.7,2.1c-0.6,2.3,1.4,4.8,1.4,4.9c0.3,1.5,0.2,3.1-0.2,4.6c-0.1,0.2-0.3,0.4-0.5,0.5l-0.3,0.2
			c-1.2,0.7-1.9,2-1.9,3.4c0,2.7,2.8,4.2,5,5.4L81.8,33.6L81.8,33.6z"/>
		<path class="st5" d="M82.2,12.6c-1.2-1-0.3-1.9-0.4-3c0-0.5-0.1-1-0.3-1.5c-1.1-1.7-3.7-2.2-3.7-2.3l-1.2-0.3l0.8-0.9
			c2.3-2,5.6-2.7,8.5-1.6c3.6,1.2,6.2,5.1,6.3,5.2l-1.8,0.9c0,0-2.1-3.7-5.2-4.7c-1.9-0.6-4-0.4-5.7,0.4c1.3,0.5,2.4,1.3,3.2,2.4
			c0.3,0.7,0.5,1.4,0.5,2.1c-0.1,0.9,0.3,1.8,0.9,2.5L82.2,12.6L82.2,12.6z"/>
		<path class="st5" d="M82.2,12.9L82.2,12.9c-0.7-0.6-1-1.4-0.7-2.2c0.1-0.3,0.1-0.7,0.1-1c0-0.5-0.1-1-0.3-1.4
			c-1-1.6-3.6-2.2-3.6-2.2l-1.5-0.3l1-1.2c1.6-1.4,3.6-2.2,5.7-2.2c1,0,2,0.2,3,0.5c3.7,1.2,6.4,5.2,6.4,5.3l0.1,0.2l-2.1,1
			l-0.1-0.1c-0.2-0.4-2.2-3.7-5.1-4.6c-0.7-0.2-1.4-0.3-2.2-0.3C82,4.3,81,4.6,80,5c1.2,0.5,2.2,1.3,2.9,2.4
			c0.4,0.7,0.5,1.4,0.6,2.2c-0.1,0.9,0.2,1.7,0.8,2.4l0.2,0.2L82.2,12.9L82.2,12.9z"/>
		<path class="st5" d="M87,10.8c-0.3-1.2-0.9-2.3-1.8-3.2c-1.2-0.9-2.8-1.1-4.2-0.7l-0.3-1c1.8-0.5,3.6-0.2,5.2,0.8
			c2.4,1.7,2.7,3.2,2.8,3.4L87,10.8z"/>
		<path class="st5" d="M86.8,11v-0.2c-0.3-1.2-0.9-2.2-1.8-3.1c-0.7-0.6-1.7-0.9-2.6-0.9c-0.5,0-1,0.1-1.4,0.2l-0.2,0.1l-0.4-1.4
			l0.2-0.1c0.6-0.2,1.2-0.3,1.8-0.2c1.3,0,2.5,0.4,3.6,1.1c2.4,1.8,2.8,3.4,2.8,3.6v0.1L86.8,11L86.8,11z M82.4,6.5
			c1,0,2,0.3,2.8,0.9c0.9,0.8,1.5,1.9,1.8,3.1l1.2-0.5c-0.5-1.3-1.4-2.5-2.6-3.2c-1-0.7-2.2-1-3.4-1c-0.5,0-1,0-1.5,0.1l0.2,0.7
			C81.5,6.5,82,6.5,82.4,6.5L82.4,6.5z M93.5,55.8c-0.5,0-1-0.2-1.5-0.5c-0.7-0.6-1.3-1.4-1.7-2.3c-0.2-0.3-0.1-0.7,0.1-1
			c0.3-0.3,0.8-0.4,1.2-0.3h3.6c0.4,0,0.8,0.1,1.1,0.3c0.2,0.2,0.2,0.6,0.1,0.8c-0.4,0.9-0.9,1.7-1.6,2.4
			C94.5,55.6,94,55.8,93.5,55.8L93.5,55.8z M94.1,27.8l-1.9-0.1c0.3,0.6,0.6,1.3,0.8,2c0.2,1,0.1,2.1-0.3,3.1
			C92.7,32.8,95.2,29.9,94.1,27.8L94.1,27.8z M91.7,60.8c-4.6-0.4-8.4-3.8-9.2-8.3h1.8c0.9,3.6,3.9,6.2,7.6,6.5L91.7,60.8z"/>
		<path class="st3" d="M89.8,49.2c-0.1-0.6-0.1-1.2,0-1.8c-0.7-0.3-1.4-0.6-2.1-0.8c-0.6-0.4-3.5,0.4-5.6-2.2
			c-2.7-3.2-2.1-5.1-2.1-5.1c-0.7,0.8-1.3,0.5-2.4,4s0.5,6,3.3,8.5c1.4,1.1,3.1,1.7,4.9,1.8c-0.6-0.5,0.9-0.6,2-1
			c-0.1-0.8,0.1-1.7,0.7-2.3c0.4-0.4,0.8-0.6,1.3-0.8l0.1-0.2C89.9,49.3,89.9,49.3,89.8,49.2L89.8,49.2z"/>
		<path class="st4" d="M87.7,52.7c-0.1-0.2-0.1-0.4-0.2-0.5s-0.3-0.8,0-0.1c-0.1-0.2-0.1-0.3-0.2-0.5c-4.6,0-8.6-3.2-7.9-9.8
			c-0.6-0.8-1.5,1.6-1.5,1.6s-2.3,6.7,3.7,9.3c2,0.9,3.8,1.5,4.2,1.2c0.7,0.1,1.5-0.2,1.9-0.8C87.8,52.9,87.7,52.8,87.7,52.7
			L87.7,52.7z"/>
		<path class="st5" d="M89.7,48.3c0-0.6,0.1-1.1,0.4-1.7l0.1-0.1c-1.9,0-3.8-0.3-5.6-0.9c-2.5-1.3-4.3-3.7-4.7-6.5
			c0,0-3.6,2.8-2.6,8.7c1,5.6,5.7,7.4,11,7.7c-0.3-0.6-0.4-1.3-0.4-2c-3,0.2-6.4-0.9-8.1-3.6c-1.5-2.5-1.1-6.7-0.5-7.3
			C80.9,47.4,86.3,48.4,89.7,48.3L89.7,48.3z"/>
		<path class="st5" d="M90.2,44.9c-0.7,1.8-1.7,3.6-2.9,5.1c0,0,2.7-0.1,2.8-0.6c1.6-3.9,2.7-8,3.3-12.2
			C92.7,38.6,90.3,44.6,90.2,44.9L90.2,44.9z"/>
		<path class="st1" d="M105.6,38.4c0,0,3.1,4.7,5.3,8c0.3,0.5-2.2,0.5-2.2,0.5L105.6,38.4L105.6,38.4z M104.1,28.7
			c0,0,0.9,2.3,1.4,3.5s2.6,2,2.6,2s-1.1-1.1-1.1-4c0-1.2-1.6-1.7-1.6-1.7L104.1,28.7z"/>
		<path class="st1" d="M105,30c1.4,1.4,3.6,1.8,5.4,1c3.5-1.3,3.9-5.8,3.9-7s-6.7,1.2-7.6,1.8C105.7,26.3,104.1,28.4,105,30z
			 M118.3,5.9c0,0-3.2-0.6-5.4,1.1c-1.1,0.8-2.1,1.9-2.8,3.1l3.6,2.9c1.2-0.7,2-1.8,2.3-3.1C116.6,7.5,116.2,6.4,118.3,5.9
			L118.3,5.9z"/>
		<path class="st1" d="M106,23.5c1.3-1.8,3.3-2.9,5.5-3c1.6-0.2,3.2,0.1,4.6,0.9c0,0-5.1,0.2-6.6,2.1c-2.8,3.6-6.8,3.9-7.4,3.1
			c0.9,0,1.8-0.5,2.4-1.1C105.1,24.8,105.5,24.2,106,23.5L106,23.5z M114.6,30.5c0,0,5.7-2,4.6-3.9c-1.1-1.9-0.2-3.1-0.2-3.1
			s3.2,2.4,2.4,4.9c-0.5,1.5-1.3,2.7-5.9,4.8c-2.2,4.1-0.5,11.4-0.6,11.5c-0.1,0-3.1-1.4-2.9-8.3C112.1,34.2,112.3,31.3,114.6,30.5
			L114.6,30.5z M107.2,9.5c2.4,1.2,5.7,2.9,5.7,2.9l-1.3,0.6c0.1,0.2,0.2,0.3,0.2,0.3l-1.3,0.6c0,0-3.2,2.3-5.2,3.8
			c0.7-1.8,1.6-3.6,2.6-5.2C108.1,11.4,107.9,10.3,107.2,9.5L107.2,9.5z M99.2,58.8c7.3,0,9.8-3.7,9.8-3.7l-1.1,2.8
			c-0.4,1.2-5.1,5-8.7,5"/>
		<path class="st1" d="M108.3,52.6c0,0-0.7,4.1-3.4,4.1c-2.3,0-3-3.5-3-4.2L108.3,52.6z M112.8,46.4c-0.6-1.9-1.1-3.8-1.4-5.8
			c-0.2-2.4-0.3-4.8-0.2-7.2c0,0,0.7,2.8,1.4,3.2s1.8,3.5,1.8,3.5s0.6,4.6,0.9,6.1C114.5,46.5,113.8,46,112.8,46.4L112.8,46.4z
			 M119.3,28.3c0,0-1.5-0.5-2-3.9c-0.3-2.1-0.1-4.2,0.5-6.2c0,0-0.1,4.6,0.5,5.5s1,1.2,1.6,2.3C120.3,26.9,120,27.8,119.3,28.3
			L119.3,28.3z"/>
		<path class="st2" d="M117.5,6.7l0.3-0.2C118.7,6.5,117.5,6.7,117.5,6.7z"/>
		<path class="st0" d="M105.9,8.4c0.9-0.2,1.6-0.6,2.2-1.3c1.4-2,3.6-3.2,6-3.3c2.2,0,4.4,0.3,6.5,0.9l-2.8,1.8c-0.3,0-0.8,0-1.7,0
			c-2,0.1-3.7,1.6-4.1,3.6L99.6,8.4"/>
		<path class="st3" d="M104.7,27.7c1.2,1,2.7,1.5,4.3,1.1c2.6-0.5,4.2-1.7,4.3-3.7c0.2-1,0-1.9-0.5-2.8c-1.5,0.5-3,1.2-4.3,2.1
			C107,25.7,106,27.6,104.7,27.7L104.7,27.7z"/>
		<path class="st4" d="M106.8,27.1c1,0.4,2.1,0.4,3.1,0.1c1.3-0.5,2.2-1.6,2.3-2.9c0,0,1.3,3.9-2.4,4.6c-1.6,0.4-3.4,0-4.7-1.1
			L106.8,27.1z"/>
		<path class="st5" d="M116.3,12.6c1.2-1,0.3-1.9,0.4-3c0-0.5,0.1-1,0.3-1.5c1.1-1.8,3.7-2.3,3.7-2.3l1.2-0.2l-0.8-0.9
			c-2.3-2-5.6-2.7-8.5-1.6c-3.6,1.2-6.2,5.1-6.3,5.2l1.8,0.9c0,0,2.1-3.7,5.2-4.7c1.9-0.6,4-0.4,5.7,0.4c-1.3,0.5-2.4,1.3-3.2,2.4
			c-0.3,0.7-0.5,1.4-0.5,2.1c0.1,0.9-0.3,1.8-0.9,2.5L116.3,12.6z M119.5,27c-1.1-1.6-1.8-3.5-1.9-5.5c-0.1-1.8,0.1-3.6,0.6-5.3
			c0,1.8,0.1,3.6,0.5,5.3C118.8,23.4,119.1,25.2,119.5,27z"/>
		<path class="st5" d="M111.6,10.8c0.3-1.2,0.9-2.3,1.8-3.2c1.2-0.9,2.8-1.1,4.2-0.7l0.3-1c-1.8-0.5-3.6-0.2-5.2,0.8
			c-2.4,1.7-2.7,3.2-2.8,3.4L111.6,10.8L111.6,10.8z M114.8,25.7c0.5-0.7,0.7-1.5,0.6-2.4c0-0.6-0.3-1.1-0.8-1.5
			c-0.9-0.4-1.4,0.7-1.4,0.7S114.5,22.9,114.8,25.7z"/>
		<path class="st5" d="M106.1,27.4L106.1,27.4c1.4,1.2,3.5,1.2,4.9,0.1c1.3-1,1.2-3.5,0.8-4.5c-1,0.2-1.9,0.6-2.7,1.2
			c1-0.9,1.8-1.5,1.8-1.5l1.1-0.3l2.1-0.7c0,0.2,0.8,3.8-1.4,6.3c-1,1.1-5.6,3.5-7.8-0.6L106.1,27.4z"/>
		<path class="st5" d="M106.4,27.7c-1.4,2.1-4.9,0.9-4.8-1.3c1.5,0.7,3.4,0.3,4.4-1.1c1.2-1.4,5.1-5.2,10.3-3.9
			C112.6,22.2,107.8,25.5,106.4,27.7L106.4,27.7z"/>
		<path class="st5" d="M116.7,33.6c-1,0.8-1.5,2-1.5,3.2c0,2.8,0.2,5.5,0.5,8.3c-0.7,0.4-1.2,0.5-1.8,1c-0.4-3.3-0.5-6.5-0.5-9.8
			c0-1.7,0.9-3.3,2.4-4.2l1-0.6c1.8-1,3.7-2,3.7-3.8c0.1-0.9-0.3-1.8-1.1-2.2l-0.1-0.1c-0.4-0.3-0.8-0.7-1.1-1.2
			c-0.7-1.5-0.8-5.5,0-6.5c0.4-0.5,1.4-2.2,1.2-3.3c-0.1-0.4-0.4-0.8-0.8-1c-0.6-0.3-1.2-0.4-1.9-0.4c-1.4,0-2.7,0.3-4.1,0.7
			c-3.1,1-6.8,3.8-7.9,4.7h-0.1l-0.7,0.5l0.4-0.7c1.8-2.8,4.5-5,7.6-6.1c1.5-0.5,3-0.8,4.6-0.9c0.9,0,1.9,0.2,2.7,0.6
			c0.9,0.4,1.5,1.2,1.8,2.1c0.6,2.2-1.4,4.8-1.5,4.8c-0.3,1.5-0.2,3.1,0.2,4.6c0.1,0.2,0.3,0.4,0.5,0.5l0.3,0.2
			c1.2,0.7,1.9,2.1,1.9,3.5c0,2.7-2.8,4.2-5,5.4C117.7,33.1,116.7,33.6,116.7,33.6z"/>
		<path class="st5" d="M113.4,12.3c-1-1.5-2.5-2.7-4.2-3.4c-3.1-1.5-6.5-2.2-10-2.1c-3.5-0.1-6.9,0.7-10,2.1
			c-1.7,0.7-3.1,1.9-4.2,3.4l-0.2,0.2l2.2,0.5l0.1-0.1v-0.1c0-0.1,0.3-0.9,2.8-2.2c2.9-1.4,6.1-2,9.3-1.9c3.2-0.1,6.3,0.6,9.2,1.9
			c2.5,1.2,2.8,2,2.8,2.1V13l0.1,0.1l2.2-0.5L113.4,12.3L113.4,12.3z"/>
		<path class="st5" d="M116.3,12.6c1.2-1,0.3-1.9,0.4-3c0-0.5,0.1-1,0.3-1.5c1.1-1.8,3.7-2.3,3.7-2.3l1.2-0.2l-0.8-0.9
			c-2.3-2-5.6-2.7-8.5-1.6c-3.6,1.2-6.2,5.1-6.3,5.2l1.8,0.9c0,0,2.1-3.7,5.2-4.7c1.9-0.6,4-0.4,5.7,0.4c-1.3,0.5-2.4,1.3-3.2,2.4
			c-0.3,0.7-0.5,1.4-0.5,2.1c0.1,0.9-0.3,1.8-0.9,2.5L116.3,12.6z"/>
		<path class="st5" d="M114,12.1l0.2-0.2c0.6-0.7,0.9-1.5,0.8-2.4c0-0.8,0.2-1.5,0.5-2.2c0.7-1.1,1.7-1.9,2.9-2.4
			c-1-0.4-2-0.6-3.1-0.6c-0.7,0-1.5,0.1-2.2,0.3c-2.8,0.9-4.8,4.2-5.1,4.6l-0.1,0.1l-2.1-1l0.1-0.2c0,0,2.7-4,6.4-5.2
			c1-0.3,2-0.5,3-0.5c2.1,0,4.1,0.7,5.7,2.1l1,1.2l-1.5,0.3c0,0-2.6,0.5-3.6,2.2c-0.2,0.4-0.3,0.9-0.3,1.4c0,0.3,0,0.7,0.1,1
			c0.3,0.8,0.1,1.6-0.6,2.2l-0.1,0.1L114,12.1L114,12.1z"/>
		<path class="st5" d="M111.6,10.8c0.3-1.2,0.9-2.3,1.8-3.2c1.2-0.9,2.8-1.1,4.2-0.7l0.3-1c-1.8-0.5-3.6-0.2-5.2,0.8
			c-2.4,1.7-2.7,3.2-2.8,3.4L111.6,10.8L111.6,10.8z"/>
		<path class="st5" d="M109.8,10.3v-0.1c0-0.2,0.3-1.8,2.8-3.5c1-0.7,2.3-1.1,3.5-1.1c0.6,0,1.2,0.1,1.8,0.2l0.2,0.1l-0.4,1.4
			l-0.2-0.1c-0.5-0.1-0.9-0.2-1.4-0.2c-0.9,0-1.9,0.3-2.6,0.9c-0.9,0.8-1.5,1.9-1.8,3.1V11L109.8,10.3L109.8,10.3z M117.5,6.7
			l0.2-0.7c-0.5-0.1-1-0.2-1.5-0.2c-1.2,0-2.4,0.3-3.3,1c-1.2,0.7-2.2,1.8-2.6,3.2l1.2,0.5c0.3-1.2,0.9-2.2,1.8-3.1
			c0.8-0.6,1.8-1,2.8-0.9C116.6,6.5,117,6.5,117.5,6.7L117.5,6.7z M103.6,55.2c-0.7-0.7-1.2-1.5-1.6-2.4c-0.1-0.3-0.1-0.6,0.1-0.8
			c0.3-0.2,0.7-0.4,1.1-0.3h3.6c0.4,0,0.8,0.1,1.2,0.4c0.2,0.3,0.3,0.7,0.1,1c-0.4,0.9-1,1.6-1.7,2.2c-0.4,0.3-0.9,0.5-1.5,0.5
			C104.5,55.8,104,55.6,103.6,55.2L103.6,55.2z M104.4,27.8l1.9-0.1c-0.3,0.6-0.6,1.3-0.8,2c-0.2,1,0,2.1,0.3,3.1
			C105.9,32.8,103.3,29.9,104.4,27.8L104.4,27.8z"/>
		<path class="st1" d="M99.3,21c-1.4,0.1-2.8-0.2-4-0.9c0,0,1.6,2.8,4,2.8l0,0c2.4,0,4-2.8,4-2.8C102.1,20.8,100.7,21.1,99.3,21z"/>
		<path class="st5" d="M102.7,21c-2,1.4-4.7,1.4-6.8,0c0,0,1.8,2.2,3.4,2.2S102.7,21,102.7,21z M106.9,60.8l-0.2-1.8
			c3.7-0.3,6.7-3,7.6-6.5h1.8C115.2,57,111.4,60.4,106.9,60.8L106.9,60.8z"/>
		<path class="st3" d="M108.8,49.2c0.1-0.6,0.1-1.2,0-1.8c0.7-0.4,1.4-0.6,2.2-0.8c0.6-0.4,3.5,0.4,5.6-2.2c2.7-3.2,2.1-5.1,2.1-5.1
			c0.7,0.8,1.3,0.5,2.4,4s-0.5,6-3.3,8.5c-1.4,1.1-3.1,1.7-4.9,1.8c0.5-0.5-0.9-0.6-2-1c0.1-0.8-0.1-1.7-0.7-2.3
			c-0.4-0.4-0.8-0.6-1.3-0.8l-0.1-0.2C108.7,49.4,108.7,49.3,108.8,49.2L108.8,49.2z"/>
		<path class="st4" d="M110.8,52.7c0.1-0.2,0.1-0.4,0.2-0.5s0.3-0.8,0-0.1c0.1-0.2,0.1-0.3,0.2-0.5c4.6,0,8.6-3.2,7.9-9.8
			c0.6-0.8,1.4,1.6,1.4,1.6s2.3,6.7-3.7,9.3c-2,0.9-3.8,1.5-4.2,1.2c-0.7,0.1-1.5-0.2-1.9-0.8C110.8,52.9,110.8,52.8,110.8,52.7
			L110.8,52.7z"/>
		<path class="st5" d="M108.8,48.3c0-0.6-0.1-1.1-0.4-1.7l-0.1-0.1c1.9,0,3.8-0.3,5.6-0.9c2.5-1.3,4.3-3.7,4.7-6.5
			c0,0,3.6,2.8,2.5,8.7c-1,5.6-5.7,7.4-11,7.7c0.3-0.6,0.4-1.3,0.4-2c3,0.2,6.4-0.9,8.1-3.6c1.5-2.5,1.1-6.7,0.4-7.3
			C117.7,47.4,112.3,48.4,108.8,48.3L108.8,48.3z"/>
		<path class="st5" d="M111,49.7c-0.6-0.7-1.8-1.5-4.5-1.5H92.1c-2.7,0-3.9,0.8-4.5,1.5c-0.9,1-1.1,2.4-0.4,4.2
			c1.7,4.6,4.1,9.4,12.2,9.4s10.5-4.7,12.2-9.4C112.1,52.1,111.9,50.7,111,49.7z M109.7,53.5c-0.8,2.3-3,8-10.5,8s-9.7-5.7-10.5-8
			c-0.4-1.3-0.4-2.2,0.1-2.8c0.4-0.4,1.2-0.9,3-0.9h14.7c1.9,0,2.7,0.5,3,0.9C110.2,51.2,110.2,52.2,109.7,53.5z"/>
		<path class="st5" d="M108.3,44.9c0.7,1.8,1.7,3.6,2.9,5.1c0,0-2.7-0.1-2.8-0.6c-1.6-3.9-2.7-8-3.3-12.2
			C105.9,38.6,108.2,44.6,108.3,44.9L108.3,44.9z"/>
		<path class="st5" d="M77.8,67.5c-0.4-0.2-0.8-0.4-1.2-0.5c-0.5-0.2-0.9-0.3-1.4-0.4c-0.5-0.1-1.1-0.1-1.6-0.1
			c-1,0-2.1,0.2-3.1,0.5c-0.9,0.3-1.7,0.8-2.4,1.4c-0.6,0.6-1.2,1.3-1.5,2.1c-0.4,0.9-0.5,1.8-0.5,2.7c0,0.9,0.2,1.8,0.6,2.7
			c0.3,0.8,0.9,1.5,1.5,2.2c0.7,0.6,1.4,1.1,2.3,1.4c0.9,0.3,1.9,0.5,2.9,0.5c0.5,0,1.1,0,1.6-0.1c0.5-0.1,0.9-0.1,1.4-0.2
			c0.4-0.1,0.8-0.3,1.2-0.4c0.4-0.2,0.8-0.4,1.1-0.6c0.1,0,0.1-0.1,0.1-0.2V73c0-0.1-0.1-0.2-0.2-0.2h-4.8c-0.1,0-0.2,0.1-0.2,0.2
			v2.2c0,0.1,0.1,0.2,0.2,0.2h1.7v1.5c-0.3,0.1-0.5,0.2-0.8,0.2c-0.4,0.1-0.7,0.1-1.1,0.1c-0.5,0-1-0.1-1.5-0.2
			c-0.4-0.2-0.8-0.4-1.2-0.8c-0.3-0.4-0.6-0.8-0.8-1.2c-0.2-0.6-0.3-1.1-0.3-1.7c0-0.5,0.1-1.1,0.3-1.6c0.2-0.4,0.4-0.9,0.7-1.2
			c0.3-0.3,0.7-0.6,1.1-0.8c0.5-0.2,1-0.3,1.5-0.3c0.3,0,0.6,0,0.8,0c0.2,0,0.5,0.1,0.7,0.1c0.2,0.1,0.4,0.1,0.6,0.2
			c0.2,0.1,1.2,0.7,1.5,0.8s0.3,0.1,0.4-0.1l1.4-2c0.1-0.1,0.1-0.2,0-0.3C78.5,67.9,78.1,67.7,77.8,67.5L77.8,67.5z M89.8,75
			c-0.1-0.2-0.3-0.4-0.5-0.6c-0.1-0.1-0.1-0.1-0.2-0.2c0.3-0.1,0.5-0.3,0.8-0.4c0.3-0.3,0.7-0.6,0.9-0.9c0.2-0.3,0.4-0.7,0.6-1.1
			c0.1-0.4,0.2-0.8,0.2-1.2c0-0.5-0.1-1.1-0.3-1.6c-0.2-0.5-0.6-1-1-1.3c-0.5-0.4-1.1-0.7-1.8-0.8c-0.8-0.2-1.7-0.3-2.6-0.3h-4.4
			c-0.1,0-0.2,0.1-0.2,0.2v12.8c0,0.1,0.1,0.2,0.2,0.2h3.2c0.1,0,0.2-0.1,0.2-0.2v-4.5h0.6c0.2,0,0.3,0,0.5,0.1
			c0.1,0.1,0.2,0.2,0.3,0.3l2.3,3.7c0.3,0.5,0.8,0.7,1.3,0.7h2.9c0.1,0,0.2-0.1,0.2-0.2c0-0.1,0-0.1-0.1-0.2L89.8,75z M87.8,71.5
			c-0.1,0.2-0.2,0.4-0.4,0.6c-0.2,0.2-0.4,0.3-0.7,0.4c-0.3,0.1-0.7,0.1-1,0.1h-1v-3.3h1c0.6,0,1.2,0.1,1.7,0.4
			c0.3,0.3,0.5,0.7,0.5,1.1C87.9,71.1,87.9,71.3,87.8,71.5L87.8,71.5z M105.7,66.6h-3.1c-0.1,0-0.2,0.1-0.2,0.2v7.6
			c0,0.4-0.1,0.8-0.2,1.1c-0.1,0.3-0.3,0.6-0.5,0.8c-0.2,0.2-0.5,0.4-0.8,0.5c-0.7,0.2-1.4,0.2-2.1,0c-0.3-0.1-0.5-0.3-0.8-0.5
			c-0.2-0.2-0.4-0.5-0.5-0.8c-0.1-0.4-0.2-0.7-0.2-1.1v-7.6c0-0.1-0.1-0.2-0.2-0.2H94c-0.1,0-0.2,0.1-0.2,0.2v7.6
			c0,0.8,0.1,1.5,0.4,2.2c0.3,0.7,0.7,1.3,1.2,1.8c0.6,0.5,1.2,0.9,1.9,1.2c0.8,0.3,1.7,0.4,2.5,0.4c0.9,0,1.7-0.1,2.5-0.4
			c0.7-0.3,1.4-0.6,1.9-1.2c0.5-0.5,1-1.1,1.2-1.8c0.3-0.7,0.4-1.5,0.4-2.3v-7.6C105.9,66.6,105.8,66.6,105.7,66.6z M120.6,66.6
			h-2.8c-0.1,0-0.2,0.1-0.2,0.2v6.8c0,0.2,0,0.4,0,0.6l-6-7.1c-0.1-0.1-0.2-0.2-0.3-0.3c-0.1-0.1-0.2-0.1-0.3-0.2
			c-0.1,0-0.2-0.1-0.3-0.1c-0.1,0-0.3,0-0.4,0h-1.6c-0.1,0-0.2,0.1-0.2,0.2v12.8c0,0.1,0.1,0.2,0.2,0.2h2.8c0.1,0,0.2-0.1,0.2-0.2
			v-6.9c0-0.2,0-0.4,0-0.6l6,7.1c0.2,0.2,0.4,0.3,0.6,0.4c0.2,0.1,0.5,0.1,0.7,0.1h1.6c0.1,0,0.2-0.1,0.2-0.2V66.8
			C120.9,66.7,120.8,66.6,120.6,66.6L120.6,66.6z M133.7,66.6h-10.8c-0.1,0-0.2,0.1-0.2,0.2v2.3c0,0.1,0.1,0.2,0.2,0.2h3.6v10.2
			c0,0.1,0.1,0.2,0.2,0.2h3.2c0.1,0,0.2-0.1,0.2-0.2V69.4h3.6c0.1,0,0.2-0.1,0.2-0.2v-2.3C133.9,66.7,133.8,66.6,133.7,66.6z"/>
	</g>
</g>
<g id="Calque_1_1_">
	<rect class="st6" width="200" height="80"/>
</g>
</svg>
