<svg id="Calque_1" data-name="Calque 1" xmlns="http://www.w3.org/2000/svg" viewBox="0 0 130 70"><defs><style>.cls-1{fill:none;}.cls-2{fill:#fff;}.cls-3{fill:#e41b17;}.cls-4{fill:#030304;}</style></defs><title>logo-meetup</title><rect class="cls-1" width="130" height="70"/><g id="g9361"><rect id="rect8591" class="cls-2" x="35.28" y="25.08" width="59.15" height="25.68"/><g id="g8585"><path id="path8589" class="cls-3" d="M37.45,54.74a4.57,4.57,0,0,1-2.15-2L35,52.08V17.92l.31-.62a4.46,4.46,0,0,1,2.18-2l.69-.26H91.82l.71.27a4.42,4.42,0,0,1,2.19,2.06l.27.59V52.08l-.27.59a4.41,4.41,0,0,1-2.19,2.06l-.71.27H65C38.32,55,38.1,55,37.45,54.74ZM94.32,37.67v-12H35.68v24H94.32ZM82.16,47.92a15.94,15.94,0,0,1-.83-4.53c-.08-1-.13-1.15-.45-1.45-.51-.48-.42-1.1.15-1.1.22,0,.35-.42.44-1.43a15.54,15.54,0,0,1,1.19-4.47c.61-1.22,2.19-2.55,3-2.55a7.27,7.27,0,0,1,1.87.61l.6.25a3,3,0,0,1,1,2.19,6.33,6.33,0,0,1-.49,3,9.93,9.93,0,0,1-4.41,3.94l-.63.16v1.19a11.91,11.91,0,0,0,.45,3.58c.11.29.16.58.11.63a7,7,0,0,1-2,0Zm2.77-8.45A7.68,7.68,0,0,0,86.17,38a5.53,5.53,0,0,0,.49-2.81c-.12-1-.23-1.06-.74-.48a8,8,0,0,0-1.75,3.85c-.35,1.57-.38,1.81-.27,1.81A7,7,0,0,0,84.93,39.47Zm-15.68,1.8c-.08-1.27-.17-2.35-.21-2.4a3.37,3.37,0,0,0-1-.19c-1.09-.1-1.28-.2-1.28-.7s.4-.75,1.33-.66l.78.08v-.48c0-.27-.06-.9-.12-1.41-.48-3.75-.57-6.42-.24-7.27.1-.26.2-.31.62-.31a3.45,3.45,0,0,1,1.8.74c0,.07.11,1.65.14,3.51.08,4.36.08,4.07,0,4.53s-.06.4.18.4.26-.06.23-.34,0-.35.29-.38.5.12,1.15.74a4.24,4.24,0,0,1,.82.92c0,.18-.44.28-2.2.5l-.52.06L71,41c.07,2.65.14,2.47-1,2.56l-.63,0ZM51,43.25a1.41,1.41,0,0,1-.08-.4,4.55,4.55,0,0,0-.32-1,29,29,0,0,1-1.18-3.73,5.72,5.72,0,0,0-.58-1.87,25.19,25.19,0,0,0-.17,2.52,22.73,22.73,0,0,1-.26,3l-.16.56-1.23.11-1.23.11-.28-.35c-.15-.19-.63-.93-1.05-1.64a11.58,11.58,0,0,0-.81-1.26,10.62,10.62,0,0,0,.14,1.25A7,7,0,0,1,43.93,42a3.19,3.19,0,0,1-2,.71c-.57,0-.7-.25-.88-1.71a24.22,24.22,0,0,1-.25-5.26l.09-2.08.55-.15a2.74,2.74,0,0,1,2.13.1A25.71,25.71,0,0,1,44.94,36L46,38.17,46.2,37a17.72,17.72,0,0,1,1.6-5.3c.21-.32.23-.32,1.28-.24,1.25.1,1.44.22,1.69,1.12.56,2,.75,2.81,1.32,5.56.14.66.33,1.43.43,1.72a3.26,3.26,0,0,1,.19.76A7.23,7.23,0,0,0,53,41.78c.31,1,.38,1.28.23,1.13s-.16,0-.25.06a7.92,7.92,0,0,1-1.8.48s-.11-.08-.16-.19Zm5-.06a3.88,3.88,0,0,1-1.68-.89c-1-.71-1.11-1.13-1.13-3.13a10.68,10.68,0,0,1,.4-3.84,5,5,0,0,1,2.12-2.6c.77-.53.84-.53,2.35-.12.58.16.76.27.91.57.39.76.52,5,.17,5.55a6.71,6.71,0,0,1-2.86,0,1.16,1.16,0,0,0-.55,0,3.81,3.81,0,0,0-.07.95,2.66,2.66,0,0,0,.87,2.23.92.92,0,0,0,1,.26,3,3,0,0,0,.89-.27,2.14,2.14,0,0,1,2,.39l.27.29-.66.25a8,8,0,0,1-4,.39Zm.78-7.07a3.63,3.63,0,0,0-.11-1.24,5.15,5.15,0,0,0-.76,1.8c-.09.4-.07.46.17.56C56.77,37.51,56.8,37.46,56.8,36.12ZM63.94,43c-1.84-.23-2.5-.58-3.26-1.7A2.74,2.74,0,0,1,60,39.36a5.54,5.54,0,0,1,.22-2.18c.71-2.75,1-3.23,2.33-4.66.62-.65.78-.75,1.17-.74a3,3,0,0,1,1,.25,3.05,3.05,0,0,0,.69.25,1,1,0,0,1,.44.27c.28.26.29.31.2,1.64a6.68,6.68,0,0,1-.2,1.51,8.24,8.24,0,0,0-.15,1.76l0,1.62-.7.2a2.68,2.68,0,0,1-1.61,0c-1.06-.2-1.14-.15-1.06.64a3.25,3.25,0,0,0,1.21,2A2.36,2.36,0,0,0,66,41.5c.23-.35.47-.36,1,0s.55.76.06,1a4.94,4.94,0,0,1-3.07.54Zm-.26-5.29a12.15,12.15,0,0,0,.07-1.65c0-1.31,0-1.35-.2-1a15.94,15.94,0,0,0-.91,2.61c0,.21.19.3.64.31.24,0,.35-.07.4-.27Zm11.67,5.07c-.64-.45-1.17-2.33-1.4-4.92A5.25,5.25,0,0,1,74,35.47c.12-.19.78-.1,1.38.18,1.1.52,1.07.44,1.18,3s.18,3.11.38,3a6.69,6.69,0,0,0,1.44-2.32,10.17,10.17,0,0,0,.13-2c0-2,.1-2.12,1.54-1.45,1.15.53,1.16.55,1,1.93s-.32,1.74-.68,2.07a3.5,3.5,0,0,0-.51.75c-.16.3-.36.54-.45.54a.25.25,0,0,0-.22.19c0,.17,0,.17.08,0s.13-.13.13-.06a4.32,4.32,0,0,1-1.62,1.56,4.84,4.84,0,0,1-2.43-.06Z"/><path id="path8587" class="cls-4" d="M82.16,47.92a16.76,16.76,0,0,1-.83-4.59c-.08-.94-.13-1.09-.44-1.39-.51-.48-.42-1.1.16-1.1.22,0,.34-.32.42-1.2a15.55,15.55,0,0,1,1.21-4.69c.61-1.22,2.19-2.55,3-2.55a7.27,7.27,0,0,1,1.87.61l.6.25a1.38,1.38,0,0,1,.64.79,5.48,5.48,0,0,1,0,4.2,9.69,9.69,0,0,1-4.47,4.11l-.63.16v1.19a11.91,11.91,0,0,0,.45,3.58c.11.29.16.58.11.63a7,7,0,0,1-2,0Zm2.77-8.45A7.61,7.61,0,0,0,86.18,38a5.27,5.27,0,0,0,.47-2.78c-.12-1-.22-1.06-.79-.42A8.54,8.54,0,0,0,84.07,39c-.11.51-.24,1-.27,1.15-.11.4.2.22,1.13-.66Zm-15.68,1.8c-.08-1.27-.17-2.35-.21-2.4a3.37,3.37,0,0,0-1-.19c-1.09-.1-1.28-.2-1.28-.7s.4-.75,1.33-.66l.78.08v-.48c0-.27-.06-.9-.12-1.41-.48-3.75-.57-6.42-.24-7.27.1-.26.2-.31.62-.31a3.44,3.44,0,0,1,1.8.74c.06.1.17,3.81.2,7.27a4.24,4.24,0,0,1-.08.78c-.08.36-.06.4.18.4s.26-.06.23-.34,0-.35.29-.38.5.12,1.18.77c.46.44.8.85.75.9a3.29,3.29,0,0,1-1.58.42c-1.19,0-1.12-.17-1,2.48s.14,2.46-1,2.55l-.63,0ZM51,42.86a9.67,9.67,0,0,0-.45-1.27,27.33,27.33,0,0,1-1.18-3.91,11.33,11.33,0,0,0-.37-1.3c-.14-.26-.22.56-.3,2.91a16.45,16.45,0,0,1-.23,2.55l-.16.56-1.23.11-1.23.11-.28-.35c-.15-.19-.63-.93-1.05-1.64a11.85,11.85,0,0,0-.81-1.26,10,10,0,0,0,.13,1.2,7.42,7.42,0,0,1,.1,1.38c-.08.32-1.26.78-1.95.77s-.7-.25-.88-1.71a23.61,23.61,0,0,1-.25-5.21l.09-2.13.55-.15a2.74,2.74,0,0,1,2.13.1A25.71,25.71,0,0,1,44.94,36L46,38.17,46.2,37a17.47,17.47,0,0,1,1.51-5.12l.23-.41,1.1,0c.9,0,1.14.07,1.34.27s.9,2.54,1.77,6.69a14,14,0,0,0,.37,1.41,3.19,3.19,0,0,1,.18.74A7.23,7.23,0,0,0,53,41.78c.31,1,.38,1.28.23,1.13s-.16,0-.25.06a7.94,7.94,0,0,1-1.8.48,1.38,1.38,0,0,1-.23-.59Zm5,.33a3.88,3.88,0,0,1-1.68-.89c-1-.7-1.12-1.14-1.13-3.07a11.28,11.28,0,0,1,.4-3.88,5.11,5.11,0,0,1,2.1-2.6c.64-.43.7-.45,1.35-.35,1.17.17,1.75.4,1.94.78.39.74.52,5,.18,5.55a6.76,6.76,0,0,1-2.86,0,1,1,0,0,0-.52-.05,2.54,2.54,0,0,0-.1,1,2.67,2.67,0,0,0,.87,2.24.92.92,0,0,0,1,.26,3,3,0,0,0,.89-.27,2.14,2.14,0,0,1,2,.39l.27.29-.66.25a8,8,0,0,1-4,.39Zm.81-6.29a5.8,5.8,0,0,0-.14-2,5.5,5.5,0,0,0-.75,1.8c-.09.4-.07.46.17.56C56.64,37.46,56.78,37.39,56.82,36.89ZM63.94,43c-1.84-.23-2.5-.58-3.26-1.7a2.79,2.79,0,0,1-.66-2,4.19,4.19,0,0,1,.08-1.56,13.5,13.5,0,0,0,.35-1.33,6.7,6.7,0,0,1,2.12-3.9c.61-.63.76-.73,1.16-.73a3,3,0,0,1,1,.25,3.05,3.05,0,0,0,.69.25,1,1,0,0,1,.44.27c.28.26.29.31.2,1.64a6.68,6.68,0,0,1-.2,1.51,8.24,8.24,0,0,0-.15,1.76l0,1.62-.7.2a2.68,2.68,0,0,1-1.61,0c-1-.19-1.1-.15-1.1.48a3.35,3.35,0,0,0,1,1.88,1.1,1.1,0,0,0,1,.42A2.27,2.27,0,0,0,66,41.5c.23-.35.47-.36,1,0s.56.78-.2,1.1a4.79,4.79,0,0,1-2.81.43Zm-.26-5.29a12.15,12.15,0,0,0,.07-1.65c0-1.31,0-1.35-.2-1a15.94,15.94,0,0,0-.91,2.61c0,.21.19.3.64.31.24,0,.35-.07.4-.27Zm11.68,5.07c-.65-.45-1.17-2.34-1.41-5A4.92,4.92,0,0,1,74,35.47c.12-.19.78-.1,1.38.18,1.1.52,1.07.44,1.18,3s.18,3.11.38,3a6.69,6.69,0,0,0,1.44-2.32,8.7,8.7,0,0,0,.13-1.76c0-.64,0-1.29,0-1.45A.6.6,0,0,1,79,35.5a6.08,6.08,0,0,1,2,.94c.14.16.14.41,0,1.36-.16,1.24-.32,1.74-.68,2.07a3.49,3.49,0,0,0-.51.75c-.16.3-.36.54-.45.54a.25.25,0,0,0-.22.19c0,.17,0,.17.08,0s.13-.13.13-.06a4.32,4.32,0,0,1-1.62,1.56,4.85,4.85,0,0,1-2.43-.06Z"/></g></g></svg>