<svg id="Calque_1" data-name="Calque 1" xmlns="http://www.w3.org/2000/svg" viewBox="0 0 118.62 78.17"><defs><style>.cls-1,.cls-5{fill:#373535;}.cls-2{fill:#bce4f9;}.cls-3{fill:#fff;}.cls-4{fill:#1587b2;}.cls-5{fill-opacity:0.35;}</style></defs><title>logo-cassandra</title><g id="Calque_2" data-name="Calque 2"><path class="cls-1" d="M57.26,65.65a3.78,3.78,0,0,1,2.45.69c.09.74-.6,1.94-1,1.94A4.33,4.33,0,0,0,57.12,68c-2.41,0-3.61,2.5-3.61,5,0,1.53.51,2.45,1.76,2.45a5.6,5.6,0,0,0,3.3-1.53,1.39,1.39,0,0,1,.42,1,2,2,0,0,1-.65,1.53A6,6,0,0,1,53.93,78c-2.27,0-4-1.34-4-4.49.09-4.16,2.78-7.88,7.27-7.88Z" transform="translate(-43.38 0.15)"/><path class="cls-1" d="M65,75.27c1.3,0,3.66-2.27,4.31-6.59a1.44,1.44,0,0,1,.09-.6,3.65,3.65,0,0,0-1.1-.19,3.3,3.3,0,0,0-2.87,1.53,7.53,7.53,0,0,0-1.31,4.2c0,1.1.33,1.67.88,1.67Zm-4.26-1.21a9.11,9.11,0,0,1,2.5-6.25,7.45,7.45,0,0,1,5.65-2.2,25.66,25.66,0,0,1,4,.6c-.27,1.15-.88,5.56-1.21,8.11a20.09,20.09,0,0,0-.14,3.15,9.89,9.89,0,0,1-2.92.53c-.23,0-.27-1.1-.23-2.13a10,10,0,0,0,.09-1.1,6.39,6.39,0,0,1-5.18,3.15c-1.53,0-2.5-1.25-2.5-3.84Z" transform="translate(-43.38 0.15)"/><path class="cls-1" d="M79.49,65.65a4,4,0,0,1,2.59.88c0,.74-.6,2-1.53,1.63a3.87,3.87,0,0,0-1.34-.23c-.69,0-1.34.33-1.34,1s.37.88,2.13,2.13A3.45,3.45,0,0,1,81.77,74c0,1.94-1.8,4-5,4A3.62,3.62,0,0,1,74,76.91c-.46-.79-.09-2.36.42-2.09a7.19,7.19,0,0,0,2.73.69c.88,0,1.44-.42,1.44-.92s-.42-.83-2-2a3.58,3.58,0,0,1-1.76-3c0-2.2,1.9-4,4.68-4Z" transform="translate(-43.38 0.15)"/><path class="cls-1" d="M88.61,65.65a4,4,0,0,1,2.59.88c0,.74-.6,2-1.53,1.63a3.87,3.87,0,0,0-1.34-.23c-.69,0-1.34.33-1.34,1s.37.88,2.13,2.13A3.45,3.45,0,0,1,90.88,74c0,1.94-1.8,4-5,4a3.7,3.7,0,0,1-2.79-1.08c-.46-.79-.09-2.36.42-2.09a7.19,7.19,0,0,0,2.73.69c.88,0,1.44-.42,1.44-.92s-.42-.83-2-2a3.58,3.58,0,0,1-1.76-3c0-2.2,1.9-4,4.68-4Z" transform="translate(-43.38 0.15)"/><path class="cls-1" d="M96.9,75.27c1.3,0,3.66-2.27,4.31-6.59a1.44,1.44,0,0,1,.09-.6,3.65,3.65,0,0,0-1.1-.19,3.3,3.3,0,0,0-2.87,1.53A7.53,7.53,0,0,0,96,73.61c0,1.1.33,1.67.88,1.67Zm-4.26-1.21a9.11,9.11,0,0,1,2.5-6.25,7.45,7.45,0,0,1,5.65-2.2,25.66,25.66,0,0,1,4,.6c-.27,1.15-.88,5.56-1.21,8.11a20.09,20.09,0,0,0-.14,3.15,9.89,9.89,0,0,1-2.92.53c-.23,0-.27-1.1-.23-2.13a10,10,0,0,0,.09-1.1,6.39,6.39,0,0,1-5.18,3.15c-1.48,0-2.5-1.25-2.5-3.84Z" transform="translate(-43.38 0.15)"/><path class="cls-1" d="M110.74,69.07c1.21-1.94,2.78-3.43,5-3.43,1.9,0,2.5,1.76,2.13,4.22-.19,1.15-.51,2.82-.69,4.39a18.61,18.61,0,0,0-.27,3.3,11.76,11.76,0,0,1-3.15.46,5.78,5.78,0,0,1,0-3c.23-1.25.65-3.57.88-4.91.14-.79.09-1.71-.65-1.71-1,0-3.3,1.57-4.39,8a1.34,1.34,0,0,1-.6,1,6.41,6.41,0,0,1-3,.46c.33-1.63.83-4.91,1.21-7.36a26.62,26.62,0,0,0,.42-4.22c.46-.14,2.82-.65,3.05-.65s.33.83.09,2.78a1.65,1.65,0,0,1-.09.65h0v.09Z" transform="translate(-43.38 0.15)"/><path class="cls-1" d="M124.16,75.23c1.15,0,3.51-2.2,4.16-6a4.43,4.43,0,0,1,.14-.83,2,2,0,0,0-1.53-.51c-2.68,0-3.84,3.2-3.84,5.49,0,1.21.46,1.86,1.1,1.86ZM122.46,78c-1.71,0-2.73-1.53-2.73-4.07,0-4.26,2.68-8.19,7.17-8.19a4.28,4.28,0,0,1,1.94.46c.23-1.21.79-5,.83-6.06a22.92,22.92,0,0,1,3.05-.37c.27,0,.37.27.27,1-.66,3.93-1.76,11.52-2,13.19a26.71,26.71,0,0,0-.14,3.61,9.89,9.89,0,0,1-3,.46c-.19,0-.27-1.21-.23-2.32,0-.33.09-.83.09-.92A6.32,6.32,0,0,1,122.46,78Z" transform="translate(-43.38 0.15)"/><path class="cls-1" d="M137.91,69.44c1.38-3.1,3.05-3.8,4.16-3.8a2,2,0,0,1,1.1.46,5.84,5.84,0,0,1-1.21,3.3,2.83,2.83,0,0,0-1.15-.33c-.88,0-2.68,1.38-3.8,7.4-.09.51-.23.69-.51.83a11,11,0,0,1-3.05.51c.42-2.2,1.1-6.59,1.34-9.17a13.72,13.72,0,0,0,0-2.36,14.73,14.73,0,0,1,2.92-.69c.23,0,.42,1.44,0,3.8h.09Z" transform="translate(-43.38 0.15)"/><path class="cls-1" d="M147.22,75.27c1.3,0,3.66-2.27,4.31-6.59a1.44,1.44,0,0,1,.09-.6,3.65,3.65,0,0,0-1.1-.19,3.3,3.3,0,0,0-2.79,1.5,7.53,7.53,0,0,0-1.38,4.22c0,1.1.33,1.67.88,1.67ZM143,74.06a9.11,9.11,0,0,1,2.5-6.25,7.45,7.45,0,0,1,5.65-2.2,25.66,25.66,0,0,1,4,.6c-.27,1.15-.88,5.56-1.21,8.11a20.09,20.09,0,0,0-.14,3.15,9.89,9.89,0,0,1-3,.46c-.23,0-.27-1.1-.23-2.13a10,10,0,0,0,.09-1.1,6.39,6.39,0,0,1-5.18,3.15c-1.48,0-2.5-1.25-2.5-3.84Z" transform="translate(-43.38 0.15)"/><path class="cls-2" d="M138.1,20.89C139,31,123,40.66,102.4,42.46s-38-5.1-38.84-15.2S78.66,7.49,99.26,5.69s38,5,38.84,15.2" transform="translate(-43.38 0.15)"/><path class="cls-3" d="M99.81,6.85c-7.88-.14-17,3-23.89,5.93a20.06,20.06,0,0,0-1.1,6.48c0,12.08,10.88,21.8,24.31,21.8s24.35-9.72,24.35-21.8a20.13,20.13,0,0,0-3-10.51,160.14,160.14,0,0,0-20.65-1.9" transform="translate(-43.38 0.15)"/><path class="cls-3" d="M99.16,6.85c-4.35-.24-11.85,2-18.1,4.25a18.06,18.06,0,0,0-1.44,7.27c0,10.56,9.59,19.12,19.67,19.12S118.23,28.93,119,18.37a16.34,16.34,0,0,0-2.59-9.45c-6.44-1.1-13.29-1.8-17.18-2.09" transform="translate(-43.38 0.15)"/><path class="cls-1" d="M88,17a12.37,12.37,0,0,1,2.13-2.73A6.06,6.06,0,0,1,89.86,13,2.12,2.12,0,0,1,92,10.92h0a2.2,2.2,0,0,1,.79.14,15.57,15.57,0,0,1,13-2.82c.42.09.83.23,1.25.33a18.52,18.52,0,0,0-13.48,3.89,6.06,6.06,0,0,1,.38,1.3c0,1.21-.79,1.48-1.94,1.48a2.35,2.35,0,0,1-.79-.14,21.14,21.14,0,0,0-2.27,4.39A17.27,17.27,0,0,0,95,22.78c0-.09.09-.23.09-.33A6.7,6.7,0,0,1,101.76,16a6.47,6.47,0,0,1,6.43,5.41,15.19,15.19,0,0,0,4.31-3.3,3.76,3.76,0,0,1-.56-1.76,2,2,0,0,1,1.94-1.94,1.74,1.74,0,0,1,.46,0,16.83,16.83,0,0,0,1.34-3.89C110.07,6.34,99.2,6.93,99.2,6.93s-8.59-.41-14.39,2.46A17.64,17.64,0,0,0,88,17.08" transform="translate(-43.38 0.15)"/><path class="cls-1" d="M114.77,15.4a3.45,3.45,0,0,1,.79,1c.51.92-.51,1.8-1.63,1.8a.79.79,0,0,1-.33,0,20.62,20.62,0,0,1-5.23,5.56,15.86,15.86,0,0,1,7.78,3.43,23.26,23.26,0,0,0,2.78-10.41,7.46,7.46,0,0,0-2.92-6,20.29,20.29,0,0,1-1.24,4.67" transform="translate(-43.38 0.15)"/><path class="cls-1" d="M91.24,33.38c1-2.68,3.3-4.72,5.6-6.52a12.38,12.38,0,0,1-1-2.09,16.06,16.06,0,0,1-7-4.39v.19a13.59,13.59,0,0,0-.23,4.72,2.83,2.83,0,0,1,2.32,2.78,4.49,4.49,0,0,1-1.36,2.49,13.1,13.1,0,0,0,1.71,2.82" transform="translate(-43.38 0.15)"/><path class="cls-1" d="M91.06,35.6c-1.15-1.15-1.94-3.43-2.65-4.82H88c-1.57,0-3.2-1.3-2.82-2.82a2.8,2.8,0,0,1,1.71-1.86,18.79,18.79,0,0,1,.14-6c.09-.51.37-.74.51-1.25a16.6,16.6,0,0,1-2.82-9.12V9.33c-3,1.49-5.09,3.77-5.09,7.37,0,8,4.62,15.88,11.48,18.94h0" transform="translate(-43.38 0.15)"/><path class="cls-1" d="M108,24.54a6.52,6.52,0,0,1-6.11,4.39,6.21,6.21,0,0,1-4-1.45,18.52,18.52,0,0,0-5.37,7.59,12.61,12.61,0,0,0,1.34,1.38c1.57.42,3.8,0,5.49,0,6.9,0,13.06-3.05,16.57-8.47-2.41-1.67-5.18-3.3-8-3.47" transform="translate(-43.38 0.15)"/><path class="cls-4" d="M87.82,18a16.8,16.8,0,0,1,2-3.3,2.1,2.1,0,0,1-.14-.74,2.12,2.12,0,0,1,2.11-2.13h0a2.2,2.2,0,0,1,.79.14,15.57,15.57,0,0,1,13-2.82c.42.09.83.23,1.25.33a17.26,17.26,0,0,0-13,3.66,2.7,2.7,0,0,1,.19.83,2.12,2.12,0,0,1-2.11,2.13h0a2.35,2.35,0,0,1-.79-.14,14,14,0,0,0-1.94,3.57,16.06,16.06,0,0,0,6.11,4.12v-.33a6.48,6.48,0,0,1,12.87-1.1,16.62,16.62,0,0,0,4.22-3.84,1.86,1.86,0,0,1-.46-1.21,2,2,0,0,1,1.94-1.94,1.74,1.74,0,0,1,.46,0,16.83,16.83,0,0,0,1.34-3.89C110,7.14,99.12,7.73,99.12,7.73s-8.51-.42-14.4,2.45A16.35,16.35,0,0,0,87.82,18" transform="translate(-43.38 0.15)"/><path class="cls-4" d="M115,15.74a1.9,1.9,0,0,1,.65,1.44,2,2,0,0,1-1.94,1.94.79.79,0,0,1-.33,0,15.38,15.38,0,0,1-4.72,4.72,15.56,15.56,0,0,1,7.59,3.43,19.69,19.69,0,0,0,2.5-9.68,7.46,7.46,0,0,0-2.92-6,15.16,15.16,0,0,1-.83,4.12" transform="translate(-43.38 0.15)"/><path class="cls-4" d="M91.53,34a15.38,15.38,0,0,1,4.91-6.85,5.68,5.68,0,0,1-.79-1.48,16.06,16.06,0,0,1-7-4.39v.19a13.59,13.59,0,0,0-.23,4.72A2.82,2.82,0,0,1,89.76,31a15.26,15.26,0,0,0,1.8,3" transform="translate(-43.38 0.15)"/><path class="cls-4" d="M91.06,35.55a15.66,15.66,0,0,1-2.87-3.89h-.42A2.8,2.8,0,0,1,85,28.89s0,0,0,0a2.86,2.86,0,0,1,1.57-2.46,14.81,14.81,0,0,1,.27-5.33,15.77,15.77,0,0,1,.42-1.53,15.62,15.62,0,0,1-2.73-8.84v-.37c-2.92,1.48-5.1,3.75-5.1,7.36A19.65,19.65,0,0,0,91,35.6h0" transform="translate(-43.38 0.15)"/><path class="cls-4" d="M107.77,25.46a6.52,6.52,0,0,1-6.11,4.39,6.21,6.21,0,0,1-4-1.38,16,16,0,0,0-5,6.9c.46.51,1,1,1.48,1.44a19.38,19.38,0,0,0,5,.65,19.69,19.69,0,0,0,16.48-9,15.77,15.77,0,0,0-7.82-3" transform="translate(-43.38 0.15)"/><path class="cls-3" d="M108,23.79l6-1.44L108,22l4.91-3.7-5.56,2L111.06,15l-5.23,3.47,1.8-6.11-3.57,5L104,11.06l-2.38,5.74-1.94-5.74.09,6.75-3.38-6.06,1.86,6.44-5.49-4L97,19.63l-6.85-2.5,5.38,4-6.9.23,7.08,1.8-7.08,1.53,7,.51-5.88,3.75,6.06-2.2L91.61,32l5.33-4.31L95,34.9l4.12-5.83-.56,6.85,2.36-6.25,2,6.52.46-6.59,3,5.6-1.76-6.39L109.95,33l-3.47-5.33L112.41,30l-4.54-4.39,6.06.46L108,23.83Z" transform="translate(-43.38 0.15)"/><path class="cls-5" d="M44.26,35.22C62.82,16.66,77.64,10.92,91.11,8.32c1.76-.33,2.13-4.26,2.13-4.26s.23,2.87,1.48,3.3,2.87-4.49,2.87-4.49-1.48,4.39,0,4.62,4.26-4.26,4.26-4.26-1.1,3.84-.37,4.12S106,1.71,106,1.71s-2.2,3.84-.14,4.26,5.22-2.66,5.22-2.66-2.41,2.73-1.34,3.15c4.62,1.63,8.34-4.39,8.34-4.39A20.79,20.79,0,0,1,115,7.57c4.87,1.25,8.47-6.06,8.47-6.06l-3.61,7.32c1.86.92,9.3-7.69,9.3-7.69S125.27,7.84,123,9.24c1.25,1,5.74-3,5.74-3s-3.61,4.49-2.2,4.72c2,1.63,9.35-8.34,9.35-8.34a50.38,50.38,0,0,1-7.08,10.47c3.53,1.87,12.31-9.47,12.31-9.47s-.23,3.61-6.59,9.35c4.72-.6,10.83-9.59,10.83-9.59a29.73,29.73,0,0,1-7.64,11.49c4.62-.46,12.08-11.94,12.08-11.94s-2.87,8-8.68,12.59C147.61,16.95,157,7.27,157,7.27s-3.66,6.85-8.47,9.68c5.37,2,12.73-6.44,12.73-6.44s-7.36,11.35-19.08,10.83c-3.84-.19-15.46-11.66-40.36-10.74-33,1.21-39.94,15.18-57.53,24.63" transform="translate(-43.38 0.15)"/><path class="cls-1" d="M45,33.84C63.57,15.28,78.38,9.53,91.86,6.94,93.62,6.61,94,2.68,94,2.68s.23,2.87,1.48,3.3S98.3,1.43,98.3,1.43s-1.48,4.39,0,4.62,4.26-4.26,4.26-4.26-1.1,3.84-.37,4.12,4.49-5.6,4.49-5.6-2.2,3.84-.14,4.26,5.23-2.64,5.23-2.64-2.41,2.73-1.34,3.15C115,6.71,118.76.69,118.76.69a20.79,20.79,0,0,1-3.1,5.49c4.87,1.25,8.47-6.06,8.47-6.06l-3.61,7.32c1.86,1,9.35-7.59,9.35-7.59S126,6.56,123.76,8c1.25.88,5.74-3.1,5.74-3.1s-3.61,4.49-2.2,4.72c2,1.63,9.35-8.34,9.35-8.34a51.62,51.62,0,0,1-7.13,10.47c3.53,1.81,12.37-9.49,12.37-9.49s-.23,3.61-6.59,9.35C140,11,146.13,2,146.13,2a29.73,29.73,0,0,1-7.61,11.44C143.14,13,150.6,1.48,150.6,1.48s-2.88,8-8.71,12.59c6.48,1.44,15.84-8.24,15.84-8.24s-3.66,6.85-8.47,9.68C154.63,17.59,162,9.07,162,9.07s-7.36,11.35-19.08,10.83c-3.84-.19-15.46-11.66-40.36-10.74-33,1.25-40,15.19-57.54,24.68" transform="translate(-43.38 0.15)"/><path class="cls-5" d="M43.79,37.27c9.82,4.91,18.79-.74,30.09,2.45C82.5,42.12,93,45.13,107.18,43s26.36-8.24,32.17-19.25c1.8-4.91,9.17,1.1,9.17,1.1s-5.37-2.2-5.23-1.21,8.05,4.72,8.05,4.72-7.17-2.2-6.71-.56,9,8.46,9,8.46S143.84,29,143.05,30s4.12,5,4.12,5-8.15-5-11-3.57c-2.09,1.1,8.47,8,8.47,8s-6.85-5.23-8.47-3.84,7.69,12.59,7.69,12.59-10.64-11.44-11.71-10.88,2.92,6.06,2.92,6.06-5.18-5.74-6.59-4.77S136,54.44,136,54.44s-9.68-15.23-13.71-12.69c6.25,13.75,3.93,15.7,3.93,15.7s-.79-14-8.61-13.65c-3.93.19,1.86,10.47,1.86,10.47s-5.32-9.41-8.89-9.22c6.52,12.4,4.22,17.4,4.22,17.4S115.87,51.85,107,46c3.38,3-2.13,16.48-2.13,16.48s4.81-19.86-3.57-16.07c-1.34.6-.09,9.89-.09,9.89S99.54,45.65,97,46.15c-1.48.33-9.35,14.77-9.35,14.77S94.08,45.33,92.13,46c-1.44.46-4.12,6.9-4.12,6.9s1.3-6.34,0-6.71-8.61,6.71-8.61,6.71,5.41-6.34,4.49-7.69c-1.44-2-3.05-2.09-5-1.3C76,45,72.14,50.23,72.14,50.23S76,44.9,75.34,43c-1.1-3.2-12.08,6.16-12.08,6.16s6.52-6.16,5-7.5-9.63-.92-12.08-.92c-7.46.09-10-1.67-12.31-3.47" transform="translate(-43.38 0.15)"/><path class="cls-1" d="M43.38,36.16c9.82,4.91,18.79-.74,30.09,2.45C82.08,41,92.55,44,106.76,41.9s26.36-8.24,32.17-19.25c1.8-4.91,9.17,1.1,9.17,1.1s-5.37-2.2-5.23-1.21,8.05,4.72,8.05,4.72-7.17-2.2-6.71-.56,9,8.47,9,8.47-9.68-7.36-10.47-6.34,4.12,5,4.12,5-8.15-5-11-3.57c-2.09,1.1,8.47,8,8.47,8s-6.85-5.23-8.47-3.84S143.57,47,143.57,47,133,35.53,131.91,36.08s2.92,6.06,2.92,6.06-5.28-5.69-6.71-4.72,7.46,15.88,7.46,15.88S125.88,38,121.9,40.59c6.29,13.8,3.93,15.74,3.93,15.74s-.79-14-8.61-13.65c-3.93.19,1.86,10.47,1.86,10.47s-5.28-9.36-8.85-9.19c6.52,12.41,4.22,17.41,4.22,17.41s1.1-10.6-7.78-16.48c3.38,3-2.13,16.48-2.13,16.48s4.81-19.86-3.57-16.07c-1.34.6-.09,9.89-.09,9.89s-1.67-10.64-4.22-10.09c-1.47.37-9.35,14.82-9.35,14.82S93.75,44.31,91.8,45c-1.44.46-4.12,6.9-4.12,6.9s1.3-6.34,0-6.71-8.61,6.71-8.61,6.71,5.41-6.34,4.49-7.69c-1.44-2-3.06-2.09-5-1.31-2.87,1.1-6.71,6.34-6.71,6.34s3.84-5.33,3.2-7.27c-1.1-3.2-12.08,6.16-12.08,6.16s6.52-6.16,5-7.5-9.63-.92-12.08-.92c-7.55,0-10.14-1.71-12.41-3.51" transform="translate(-43.38 0.15)"/></g></svg>