<?xml version="1.0" encoding="utf-8"?>
<!-- Generator: Adobe Illustrator 20.0.0, SVG Export Plug-In . SVG Version: 6.00 Build 0)  -->
<svg version="1.1" id="Calque_1" xmlns="http://www.w3.org/2000/svg" xmlns:xlink="http://www.w3.org/1999/xlink" x="0px" y="0px"
	 viewBox="0 0 128 87" style="enable-background:new 0 0 128 87;" xml:space="preserve">
<style type="text/css">
	.st0{fill:#FFBC67;}
	.st1{fill:#3D5D84;}
</style>
<title>logo-kodokojo</title>
<g>
	<path class="st0" d="M116.5,42.6h-6.2c-0.2,0-0.5,0.2-0.5,0.5c0,0.2,0.2,0.5,0.5,0.5h6.2c0.2,0,0.5-0.2,0.5-0.5
		C117,42.8,116.8,42.6,116.5,42.6z"/>
	<path class="st1" d="M47.5,43.1c0-3.6-3-6.6-6.6-6.6c-3.6,0-6.6,3-6.6,6.6c0,3.6,3,6.6,6.6,6.6c2.3,0,4.5-1.3,5.7-3.3
		c0.1-0.2,0.1-0.5-0.2-0.6c-0.2-0.1-0.5-0.1-0.6,0.2c-1,1.7-2.9,2.8-4.9,2.8c-3,0-5.4-2.3-5.6-5.2H47C47.3,43.5,47.5,43.3,47.5,43.1
		z M40.9,37.4c3,0,5.4,2.3,5.6,5.2H35.3C35.5,39.7,37.9,37.4,40.9,37.4z"/>
	<path class="st1" d="M62.2,43.1c0-3.6-3-6.6-6.6-6.6c-3.6,0-6.6,3-6.6,6.6c0,3.6,3,6.6,6.6,6.6c2.3,0,4.5-1.3,5.7-3.3
		c0.1-0.2,0.1-0.5-0.2-0.6c-0.2-0.1-0.5-0.1-0.6,0.2c-1,1.7-2.9,2.8-4.9,2.8c-3,0-5.4-2.3-5.6-5.2h11.7C62,43.5,62.2,43.3,62.2,43.1
		z M55.6,37.4c3,0,5.4,2.3,5.6,5.2H50C50.2,39.7,52.6,37.4,55.6,37.4z"/>
	<path class="st1" d="M91.5,43.1c0-3.6-3-6.6-6.6-6.6c-3.6,0-6.6,3-6.6,6.6c0,3.6,3,6.6,6.6,6.6c2.3,0,4.5-1.3,5.7-3.3
		c0.1-0.2,0.1-0.5-0.2-0.6c-0.2-0.1-0.5-0.1-0.6,0.2c-1,1.7-2.9,2.8-4.9,2.8c-3,0-5.4-2.3-5.6-5.2h11.7
		C91.3,43.5,91.5,43.3,91.5,43.1z M85,37.4c3,0,5.4,2.3,5.6,5.2H79.4C79.6,39.7,82,37.4,85,37.4z"/>
	<path class="st1" d="M91.6,49.6c0.2,0.1,0.5,0,0.6-0.2l1.4-2.8h8.6l1.4,2.8c0.1,0.2,0.2,0.2,0.4,0.2c0.1,0,0.1,0,0.2-0.1
		c0.2-0.1,0.3-0.4,0.2-0.6l-6.1-12.2c-0.1-0.2-0.2-0.2-0.4-0.2s-0.3,0.1-0.4,0.2L91.4,49C91.3,49.2,91.4,49.5,91.6,49.6z M98,38
		l3.9,7.7h-7.7L98,38z"/>
	<path class="st1" d="M20.9,49.3c0.1,0.2,0.2,0.3,0.4,0.3h12.2c0.2,0,0.5-0.2,0.5-0.5c0-0.2-0.2-0.5-0.5-0.5H22.4l11.5-11.4
		c0.1-0.1,0.2-0.3,0.1-0.5c-0.1-0.2-0.2-0.3-0.4-0.3H21.3c-0.2,0-0.5,0.2-0.5,0.5s0.2,0.5,0.5,0.5h11.1L21,48.8
		C20.9,49,20.8,49.2,20.9,49.3z"/>
	<path class="st1" d="M76,36.9v11.1L64.5,36.6c-0.1-0.1-0.3-0.2-0.5-0.1c-0.2,0.1-0.3,0.2-0.3,0.4v12.2c0,0.2,0.2,0.5,0.5,0.5
		c0.3,0,0.5-0.2,0.5-0.5V38l11.4,11.5c0.1,0.1,0.2,0.1,0.3,0.1c0.1,0,0.1,0,0.2,0c0.2-0.1,0.3-0.2,0.3-0.4V36.9
		c0-0.2-0.2-0.5-0.5-0.5S76,36.7,76,36.9z"/>
	<path class="st1" d="M113.7,48.7c-0.2,0-0.5,0.2-0.5,0.5v6.9H11.9v-6.9V30h101.3v7c0,0.2,0.2,0.5,0.5,0.5s0.5-0.2,0.5-0.5v-7.4
		c0-0.2-0.2-0.5-0.5-0.5H11.5c-0.3,0-0.5,0.2-0.5,0.5v19.6v7.4c0,0.2,0.2,0.5,0.5,0.5h102.2c0.2,0,0.5-0.2,0.5-0.5v-7.4
		C114.1,48.9,113.9,48.7,113.7,48.7z"/>
</g>
</svg>
