<?xml version="1.0" encoding="utf-8"?>
<!-- Generator: Adobe Illustrator 20.0.0, SVG Export Plug-In . SVG Version: 6.00 Build 0)  -->
<svg version="1.1" id="Calque_1" xmlns="http://www.w3.org/2000/svg" xmlns:xlink="http://www.w3.org/1999/xlink" x="0px" y="0px"
	 viewBox="0 0 430 230" style="enable-background:new 0 0 430 230;" xml:space="preserve">
<style type="text/css">
	.st0{fill:#6A205F;}
	.st1{fill:none;}
</style>
<g>
	<polygon id="_Tracé_" class="st0" points="123.5,87.1 106.4,87.1 88.2,105.5 70.1,87.1 52.9,87.1 79.7,114.9 52.9,142.6 
		70.1,142.6 88.2,124.2 106.4,142.6 123.5,142.6 96.8,114.9 	"/>
	<line class="st1" x1="293.9" y1="132.9" x2="293.9" y2="131.5"/>
	<line class="st1" x1="286.5" y1="138.9" x2="286.5" y2="140.3"/>
	<line class="st1" x1="229.3" y1="95.2" x2="229.3" y2="93.8"/>
	<line class="st1" x1="204.8" y1="118.5" x2="205.4" y2="119.2"/>
	<line class="st1" x1="196.7" y1="125.3" x2="196.1" y2="124.6"/>
	<line class="st1" x1="188.6" y1="132.2" x2="188.6" y2="133.6"/>
	<line class="st1" x1="195.5" y1="123.8" x2="194.9" y2="123"/>
	<line class="st1" x1="188.6" y1="129.5" x2="188.6" y2="130.9"/>
	<line class="st1" x1="229.3" y1="92.5" x2="229.3" y2="91.1"/>
	<line class="st1" x1="203.6" y1="117" x2="204.2" y2="117.7"/>
	<line class="st1" x1="335" y1="94.5" x2="335" y2="93.2"/>
	<line class="st1" x1="306.1" y1="122.4" x2="306.1" y2="123.8"/>
	<line class="st1" x1="335" y1="97.2" x2="335" y2="95.8"/>
	<line class="st1" x1="306.1" y1="125.1" x2="306.1" y2="126.5"/>
	<line class="st1" x1="194.4" y1="122.3" x2="193.8" y2="121.5"/>
	<line class="st1" x1="188.6" y1="126.8" x2="188.6" y2="128.2"/>
	<line class="st1" x1="229.3" y1="89.8" x2="229.3" y2="88.4"/>
	<line class="st1" x1="202.4" y1="115.5" x2="203" y2="116.2"/>
	<path class="st1" d="M151.5,97.8c-0.4-0.1-0.7-0.2-1.1-0.3"/>
	<path class="st1" d="M141.4,106.5c0.3,0.1,0.7,0.2,1,0.4"/>
	<line class="st1" x1="200.1" y1="129.9" x2="199.5" y2="129.2"/>
	<line class="st1" x1="188.6" y1="140.3" x2="188.6" y2="141.6"/>
	<line class="st1" x1="229.3" y1="103.3" x2="229.3" y2="101.9"/>
	<line class="st1" x1="208.4" y1="123" x2="209" y2="123.7"/>
	<line class="st1" x1="229.3" y1="105.9" x2="229.3" y2="104.6"/>
	<line class="st1" x1="209.6" y1="124.5" x2="210.2" y2="125.2"/>
	<line class="st1" x1="251.5" y1="89.5" x2="251.5" y2="88.1"/>
	<line class="st1" x1="241.1" y1="98.2" x2="241.1" y2="99.9"/>
	<line class="st1" x1="229.3" y1="108.6" x2="229.3" y2="107.3"/>
	<line class="st1" x1="210.8" y1="126" x2="211.4" y2="126.7"/>
	<line class="st1" x1="229.3" y1="97.9" x2="229.3" y2="96.5"/>
	<line class="st1" x1="206" y1="120" x2="206.6" y2="120.7"/>
	<line class="st1" x1="335" y1="91.8" x2="335" y2="90.5"/>
	<line class="st1" x1="306.1" y1="119.7" x2="306.1" y2="121.1"/>
	<line class="st1" x1="197.8" y1="126.9" x2="197.2" y2="126.1"/>
	<line class="st1" x1="188.6" y1="134.9" x2="188.6" y2="136.2"/>
	<line class="st1" x1="199" y1="128.4" x2="198.4" y2="127.6"/>
	<line class="st1" x1="188.6" y1="137.6" x2="188.6" y2="138.9"/>
	<line class="st1" x1="229.3" y1="100.6" x2="229.3" y2="99.2"/>
	<line class="st1" x1="207.2" y1="121.5" x2="207.8" y2="122.2"/>
	<line class="st1" x1="348.1" y1="97.5" x2="346.8" y2="97.5"/>
	<line class="st1" x1="312.5" y1="132.2" x2="313.8" y2="132.2"/>
	<line class="st1" x1="335" y1="134.9" x2="335" y2="133.6"/>
	<line class="st1" x1="329.3" y1="139.6" x2="329.3" y2="141"/>
	<line class="st1" x1="337" y1="130.5" x2="340.9" y2="125.3"/>
	<line class="st1" x1="329.3" y1="136.9" x2="329.3" y2="138.3"/>
	<line class="st1" x1="344.6" y1="120.3" x2="348.4" y2="115"/>
	<line class="st1" x1="329.3" y1="134.2" x2="329.3" y2="135.6"/>
	<path class="st1" d="M144.3,97c-0.5,0-1,0.1-1.6,0.2"/>
	<path class="st1" d="M137.4,102.5c0,0.4,0.1,0.8,0.2,1.1"/>
	<path class="st1" d="M146.9,97c-0.4,0-0.9-0.1-1.3-0.1"/>
	<path class="st1" d="M138.1,104.4c0.2,0.2,0.4,0.5,0.7,0.7"/>
	<path class="st1" d="M149.3,97.3c-0.4-0.1-0.8-0.1-1.2-0.2"/>
	<path class="st1" d="M139.6,105.6c0.3,0.2,0.6,0.3,0.9,0.5"/>
	<line class="st1" x1="352.1" y1="110" x2="356" y2="104.8"/>
	<polyline class="st1" points="328.6,132.2 329.3,132.2 329.3,132.9 	"/>
	<path class="st1" d="M140.9,97.7c-1.7,0.7-2.8,1.8-3.2,3.2"/>
	<line class="st1" x1="229.3" y1="111.3" x2="229.3" y2="110"/>
	<line class="st1" x1="212" y1="127.5" x2="212.6" y2="128.2"/>
	<line class="st1" x1="337.4" y1="97.5" x2="336" y2="97.5"/>
	<line class="st1" x1="306.1" y1="127.8" x2="306.1" y2="129.2"/>
	<line class="st1" x1="345.4" y1="97.5" x2="344.1" y2="97.5"/>
	<line class="st1" x1="309.8" y1="132.2" x2="311.1" y2="132.2"/>
	<line class="st1" x1="342.7" y1="97.5" x2="341.4" y2="97.5"/>
	<line class="st1" x1="307.1" y1="132.2" x2="308.4" y2="132.2"/>
	<polyline class="st1" points="359.6,99.7 361.1,97.5 360.2,97.5 	"/>
	<line class="st1" x1="325.9" y1="132.2" x2="327.3" y2="132.2"/>
	<line class="st1" x1="340.1" y1="97.5" x2="338.7" y2="97.5"/>
	<line class="st1" x1="306.1" y1="130.5" x2="306.1" y2="131.9"/>
	<line class="st1" x1="358.9" y1="97.5" x2="357.6" y2="97.5"/>
	<line class="st1" x1="323.2" y1="132.2" x2="324.6" y2="132.2"/>
	<line class="st1" x1="356.2" y1="97.5" x2="354.9" y2="97.5"/>
	<line class="st1" x1="320.5" y1="132.2" x2="321.9" y2="132.2"/>
	<line class="st1" x1="353.5" y1="97.5" x2="352.2" y2="97.5"/>
	<line class="st1" x1="317.8" y1="132.2" x2="319.2" y2="132.2"/>
	<line class="st1" x1="350.8" y1="97.5" x2="349.5" y2="97.5"/>
	<line class="st1" x1="315.1" y1="132.2" x2="316.5" y2="132.2"/>
	<polyline class="st1" points="193.2,120.7 192.9,120.3 189.6,124.4 	"/>
	<line class="st1" x1="251.5" y1="124.5" x2="251.5" y2="123.1"/>
	<line class="st1" x1="241.1" y1="133.2" x2="241.1" y2="134.9"/>
	<line class="st1" x1="293.9" y1="114" x2="293.9" y2="112.7"/>
	<line class="st1" x1="274.7" y1="132.2" x2="276.1" y2="132.2"/>
	<line class="st1" x1="251.5" y1="121.8" x2="251.5" y2="120.4"/>
	<line class="st1" x1="241.1" y1="130.5" x2="241.1" y2="132.2"/>
	<line class="st1" x1="293.9" y1="116.7" x2="293.9" y2="115.4"/>
	<line class="st1" x1="277.4" y1="132.2" x2="278.8" y2="132.2"/>
	<line class="st1" x1="251.5" y1="127.2" x2="251.5" y2="125.8"/>
	<line class="st1" x1="241.1" y1="135.9" x2="241.1" y2="137.6"/>
	<line class="st1" x1="293.9" y1="119.4" x2="293.9" y2="118.1"/>
	<line class="st1" x1="280.1" y1="132.2" x2="281.5" y2="132.2"/>
	<line class="st1" x1="251.5" y1="116.4" x2="251.5" y2="115"/>
	<line class="st1" x1="241.1" y1="125.1" x2="241.1" y2="126.8"/>
	<line class="st1" x1="229.3" y1="135.6" x2="229.3" y2="134.2"/>
	<line class="st1" x1="222.8" y1="140.9" x2="223.3" y2="141.7"/>
	<line class="st1" x1="293.9" y1="124.8" x2="293.9" y2="123.5"/>
	<polyline class="st1" points="285.5,132.2 286.5,132.2 286.5,132.2 	"/>
	<line class="st1" x1="251.5" y1="119.1" x2="251.5" y2="117.7"/>
	<line class="st1" x1="241.1" y1="127.8" x2="241.1" y2="129.5"/>
	<line class="st1" x1="293.9" y1="122.1" x2="293.9" y2="120.8"/>
	<line class="st1" x1="282.8" y1="132.2" x2="284.2" y2="132.2"/>
	<line class="st1" x1="293.9" y1="108.6" x2="293.9" y2="107.3"/>
	<line class="st1" x1="269.4" y1="132.2" x2="270.7" y2="132.2"/>
	<line class="st1" x1="293.9" y1="105.9" x2="293.9" y2="104.6"/>
	<line class="st1" x1="266.7" y1="132.2" x2="268" y2="132.2"/>
	<line class="st1" x1="293.9" y1="103.3" x2="293.9" y2="101.9"/>
	<line class="st1" x1="264" y1="132.2" x2="265.3" y2="132.2"/>
	<line class="st1" x1="293.9" y1="111.3" x2="293.9" y2="110"/>
	<line class="st1" x1="272.1" y1="132.2" x2="273.4" y2="132.2"/>
	<line class="st1" x1="293.9" y1="97.9" x2="293.9" y2="96.5"/>
	<line class="st1" x1="263.3" y1="127.2" x2="263.3" y2="128.8"/>
	<line class="st1" x1="293.9" y1="100.6" x2="293.9" y2="99.2"/>
	<line class="st1" x1="263.3" y1="129.8" x2="263.3" y2="131.5"/>
	<line class="st1" x1="293.9" y1="92.5" x2="293.9" y2="91.1"/>
	<line class="st1" x1="263.3" y1="121.8" x2="263.3" y2="123.5"/>
	<line class="st1" x1="293.9" y1="95.2" x2="293.9" y2="93.8"/>
	<line class="st1" x1="263.3" y1="124.5" x2="263.3" y2="126.1"/>
	<line class="st1" x1="293.9" y1="89.8" x2="293.9" y2="88.4"/>
	<line class="st1" x1="263.3" y1="119.1" x2="263.3" y2="120.8"/>
	<line class="st1" x1="293.9" y1="130.2" x2="293.9" y2="128.8"/>
	<line class="st1" x1="286.5" y1="136.2" x2="286.5" y2="137.6"/>
	<line class="st1" x1="251.5" y1="100.2" x2="251.5" y2="98.9"/>
	<line class="st1" x1="241.1" y1="109" x2="241.1" y2="110.7"/>
	<line class="st1" x1="229.3" y1="122.1" x2="229.3" y2="120.8"/>
	<line class="st1" x1="216.8" y1="133.4" x2="217.4" y2="134.2"/>
	<line class="st1" x1="229.3" y1="119.4" x2="229.3" y2="118.1"/>
	<line class="st1" x1="215.6" y1="131.9" x2="216.2" y2="132.7"/>
	<line class="st1" x1="229.3" y1="124.8" x2="229.3" y2="123.5"/>
	<line class="st1" x1="218" y1="134.9" x2="218.6" y2="135.7"/>
	<line class="st1" x1="251.5" y1="102.9" x2="251.5" y2="101.6"/>
	<line class="st1" x1="241.1" y1="111.7" x2="241.1" y2="113.4"/>
	<line class="st1" x1="229.3" y1="114" x2="229.3" y2="112.7"/>
	<line class="st1" x1="213.2" y1="129" x2="213.8" y2="129.7"/>
	<line class="st1" x1="251.5" y1="97.5" x2="251.5" y2="96.2"/>
	<line class="st1" x1="241.1" y1="106.3" x2="241.1" y2="108"/>
	<line class="st1" x1="251.5" y1="94.8" x2="251.5" y2="93.5"/>
	<line class="st1" x1="241.1" y1="103.6" x2="241.1" y2="105.3"/>
	<line class="st1" x1="229.3" y1="116.7" x2="229.3" y2="115.4"/>
	<line class="st1" x1="214.4" y1="130.5" x2="215" y2="131.2"/>
	<line class="st1" x1="251.5" y1="113.7" x2="251.5" y2="112.3"/>
	<line class="st1" x1="241.1" y1="122.4" x2="241.1" y2="124.1"/>
	<line class="st1" x1="293.9" y1="127.5" x2="293.9" y2="126.1"/>
	<line class="st1" x1="286.5" y1="133.6" x2="286.5" y2="134.9"/>
	<line class="st1" x1="251.5" y1="111" x2="251.5" y2="109.7"/>
	<line class="st1" x1="241.1" y1="119.7" x2="241.1" y2="121.4"/>
	<line class="st1" x1="229.3" y1="132.9" x2="229.3" y2="131.5"/>
	<line class="st1" x1="221.6" y1="139.4" x2="222.2" y2="140.2"/>
	<line class="st1" x1="229.3" y1="130.2" x2="229.3" y2="128.8"/>
	<line class="st1" x1="220.4" y1="137.9" x2="221" y2="138.7"/>
	<line class="st1" x1="229.3" y1="127.5" x2="229.3" y2="126.1"/>
	<line class="st1" x1="219.2" y1="136.4" x2="219.8" y2="137.2"/>
	<line class="st1" x1="251.5" y1="92.1" x2="251.5" y2="90.8"/>
	<line class="st1" x1="241.1" y1="100.9" x2="241.1" y2="102.6"/>
	<line class="st1" x1="335" y1="89.1" x2="335" y2="87.8"/>
	<line class="st1" x1="306.1" y1="117.1" x2="306.1" y2="118.4"/>
	<line class="st1" x1="251.5" y1="105.6" x2="251.5" y2="104.3"/>
	<line class="st1" x1="241.1" y1="114.4" x2="241.1" y2="116"/>
	<line class="st1" x1="251.5" y1="108.3" x2="251.5" y2="107"/>
	<line class="st1" x1="241.1" y1="117.1" x2="241.1" y2="118.7"/>
	<line class="st1" x1="251.5" y1="129.8" x2="251.5" y2="128.5"/>
	<line class="st1" x1="241.1" y1="138.6" x2="241.1" y2="140.3"/>
	<path class="st1" d="M158.9,101.2c-0.3-0.2-0.5-0.4-0.8-0.5"/>
	<path class="st1" d="M149.9,108.8l1.1,0.3"/>
	<line class="st1" x1="176.8" y1="123.5" x2="176.8" y2="122.1"/>
	<path class="st1" d="M168.4,130.7c-0.2,0.7-0.5,1.4-0.8,2.1"/>
	<path class="st1" d="M154,131.7c1.1-0.6,2-1.5,2.6-2.6"/>
	<line class="st1" x1="176.8" y1="110" x2="176.8" y2="108.6"/>
	<path class="st1" d="M167.2,118.4c0.2,0.3,0.3,0.6,0.4,0.9"/>
	<path class="st1" d="M157.1,127.3c0-0.1,0-0.2,0-0.3c0-0.3,0-0.6-0.1-0.9"/>
	<path class="st1" d="M150.1,132.9c0.6-0.1,1.1-0.2,1.7-0.3"/>
	<path class="st1" d="M160.5,102.3c-0.2-0.2-0.5-0.4-0.8-0.6"/>
	<path class="st1" d="M152.1,109.3l1.1,0.3"/>
	<path class="st1" d="M140.9,119.2c-0.4-0.1-0.7-0.2-1.1-0.3"/>
	<path class="st1" d="M131.6,127.1c0.2,0.2,0.5,0.4,0.7,0.6"/>
	<path class="st1" d="M138.8,118.6c-0.3-0.1-0.7-0.2-1-0.3"/>
	<path class="st1" d="M130.2,125.8c0.2,0.2,0.5,0.4,0.7,0.7"/>
	<line class="st1" x1="199.2" y1="98.6" x2="204.5" y2="91.9"/>
	<line class="st1" x1="188.6" y1="108" x2="188.6" y2="109.3"/>
	<line class="st1" x1="176.8" y1="120.8" x2="176.8" y2="119.4"/>
	<path class="st1" d="M168.9,127.4c0,0.5-0.1,1.1-0.2,1.6"/>
	<polyline class="st1" points="188.6,110.7 188.6,111.9 188.8,111.7 194,105.1 	"/>
	<path class="st1" d="M157.3,100.1c-0.3-0.2-0.6-0.3-0.9-0.5"/>
	<path class="st1" d="M147.8,108.3l1.1,0.3"/>
	<line class="st1" x1="176.8" y1="112.7" x2="176.8" y2="111.3"/>
	<path class="st1" d="M168.1,120.2c0.1,0.3,0.2,0.7,0.3,1"/>
	<line class="st1" x1="176.8" y1="118.1" x2="176.8" y2="116.7"/>
	<path class="st1" d="M169,124.7c0,0.3,0.1,0.7,0.1,1.1c0,0.1,0,0.2,0,0.3"/>
	<line class="st1" x1="176.8" y1="115.4" x2="176.8" y2="114"/>
	<path class="st1" d="M168.7,122.3c0.1,0.4,0.1,0.8,0.2,1.2"/>
	<path class="st1" d="M143,119.8l-1.1-0.3"/>
	<path class="st1" d="M133.1,128.3c0.3,0.2,0.5,0.4,0.8,0.6"/>
	<line class="st1" x1="176.8" y1="96.5" x2="176.8" y2="95.2"/>
	<path class="st1" d="M160,112.1c0.3,0.1,0.6,0.3,0.9,0.5"/>
	<line class="st1" x1="176.8" y1="101.9" x2="176.8" y2="100.6"/>
	<path class="st1" d="M163.4,114.1c0.3,0.2,0.5,0.4,0.7,0.6"/>
	<path class="st1" d="M155.3,123.7c-0.3-0.2-0.5-0.4-0.8-0.5"/>
	<path class="st1" d="M144.7,132.9c0.4,0,0.8,0.1,1.3,0.1"/>
	<path class="st1" d="M149.5,121.3l-1.1-0.3"/>
	<path class="st1" d="M138.3,131.2c0.3,0.1,0.7,0.3,1,0.4"/>
	<line class="st1" x1="176.8" y1="107.3" x2="176.8" y2="105.9"/>
	<path class="st1" d="M166.1,116.8c0.2,0.3,0.4,0.5,0.5,0.8"/>
	<path class="st1" d="M151.6,121.9c-0.3-0.1-0.7-0.2-1-0.3"/>
	<path class="st1" d="M140.2,131.9c0.3,0.1,0.7,0.2,1.1,0.3"/>
	<line class="st1" x1="176.8" y1="99.2" x2="176.8" y2="97.9"/>
	<path class="st1" d="M161.8,113.1c0.3,0.2,0.5,0.3,0.8,0.5"/>
	<path class="st1" d="M153.6,122.7c-0.3-0.1-0.6-0.3-1-0.4"/>
	<path class="st1" d="M142.4,132.5c0.4,0.1,0.8,0.2,1.1,0.2"/>
	<line class="st1" x1="176.8" y1="91.1" x2="176.8" y2="89.8"/>
	<path class="st1" d="M156.2,110.6c0.3,0.1,0.6,0.2,1,0.4"/>
	<path class="st1" d="M145.2,120.3l-1.1-0.3"/>
	<path class="st1" d="M134.7,129.4c0.3,0.2,0.6,0.3,0.9,0.5"/>
	<path class="st1" d="M156.6,125.1c-0.2-0.3-0.4-0.5-0.6-0.8"/>
	<path class="st1" d="M147.2,133h0.3c0.4,0,0.8,0,1.1,0"/>
	<path class="st1" d="M147.4,120.8l-1.1-0.3"/>
	<path class="st1" d="M136.4,130.4c0.3,0.2,0.6,0.3,0.9,0.5"/>
	<line class="st1" x1="176.8" y1="104.6" x2="176.8" y2="103.3"/>
	<path class="st1" d="M164.8,115.4c0.2,0.2,0.4,0.5,0.7,0.7"/>
	<line class="st1" x1="176.8" y1="93.8" x2="176.8" y2="92.5"/>
	<path class="st1" d="M158.2,111.3c0.3,0.1,0.6,0.3,0.9,0.4"/>
	<path class="st1" d="M153.6,98.4c-0.3-0.1-0.7-0.2-1-0.3"/>
	<path class="st1" d="M143.5,107.2c0.3,0.1,0.7,0.2,1.1,0.3"/>
	<path class="st1" d="M155.5,99.2c-0.3-0.1-0.6-0.3-1-0.4"/>
	<path class="st1" d="M145.6,107.7l1.1,0.3"/>
	<path class="st0" d="M130.2,125.8l-1.5,1.5l-3.2,4.6l5.4-5.4C130.7,126.3,130.5,126,130.2,125.8z"/>
	<path class="st0" d="M146.3,86.6c-0.3,0-0.7,0-1,0l-19.6,19.6c0.1,0.4,0.1,0.8,0.2,1.1l20.8-20.8L146.3,86.6z"/>
	<path class="st0" d="M150.6,121.6c0.4,0.1,0.7,0.2,1,0.3l9.4-9.4c-0.3-0.2-0.6-0.3-0.9-0.5L150.6,121.6z"/>
	<path class="st0" d="M145.6,107.7l-9.8,9.8c0.3,0.1,0.7,0.3,1,0.4l9.9-9.9L145.6,107.7z"/>
	<path class="st0" d="M138.3,131.2l-8.3,8.3c0.3,0.2,0.6,0.3,0.9,0.5l8.4-8.4C138.9,131.5,138.6,131.4,138.3,131.2z"/>
	<path class="st0" d="M134.7,129.4l-8,8c0.3,0.2,0.5,0.4,0.8,0.6l8.1-8.1C135.3,129.7,135,129.6,134.7,129.4z"/>
	<path class="st0" d="M136.4,130.4l-8.1,8.1c0.3,0.2,0.6,0.3,0.8,0.5l8.2-8.2C137,130.7,136.7,130.5,136.4,130.4z"/>
	<path class="st0" d="M131.6,127.1l-7.8,7.8c0.2,0.2,0.5,0.4,0.7,0.7l7.9-7.9C132.1,127.5,131.9,127.3,131.6,127.1z"/>
	<path class="st0" d="M133.1,128.3l-7.9,7.9c0.2,0.2,0.5,0.4,0.8,0.6l8-8C133.7,128.7,133.4,128.5,133.1,128.3z"/>
	<path class="st0" d="M158.9,101.2l7.8-7.8c-0.2-0.2-0.5-0.4-0.8-0.6l-7.9,7.9C158.4,100.8,158.7,101,158.9,101.2z"/>
	<path class="st0" d="M138.1,104.4l-9,9c0.2,0.2,0.5,0.4,0.7,0.7l8.9-8.9C138.6,104.9,138.3,104.7,138.1,104.4z"/>
	<path class="st0" d="M146.9,97l9.2-9.2c-0.4-0.1-0.7-0.2-1.1-0.3l-9.4,9.4C146,97,146.5,97,146.9,97z"/>
	<path class="st0" d="M155.5,99.2l8.1-8.1c-0.3-0.2-0.6-0.3-0.9-0.5l-8.2,8.2C154.9,98.9,155.2,99.1,155.5,99.2z"/>
	<path class="st0" d="M144.3,97l9.7-9.7c-0.4-0.1-0.8-0.1-1.2-0.2l-10.1,10.1C143.2,97.1,143.7,97,144.3,97z"/>
	<path class="st0" d="M153.6,98.4l8.3-8.3c-0.3-0.2-0.6-0.3-0.9-0.5l-8.4,8.4C152.9,98.2,153.3,98.3,153.6,98.4z"/>
	<path class="st0" d="M149.3,97.3l8.8-8.8c-0.3-0.1-0.7-0.2-1-0.3l-9,9C148.5,97.2,148.9,97.2,149.3,97.3z"/>
	<path class="st0" d="M157.3,100.1l7.9-7.9c-0.3-0.2-0.5-0.4-0.8-0.6l-8,8C156.7,99.8,157,99.9,157.3,100.1z"/>
	<path class="st0" d="M140.9,97.7l10.8-10.8c-0.4-0.1-0.8-0.1-1.2-0.1l-23.5,23.5c0.2,0.3,0.3,0.6,0.5,0.9l10.2-10.2
		C138.1,99.5,139.2,98.4,140.9,97.7z"/>
	<path class="st0" d="M165.8,136l-3.1,3.1C163.9,138.2,165,137.1,165.8,136z"/>
	<path class="st0" d="M139.6,105.6l-9,9c0.3,0.2,0.5,0.4,0.8,0.6l9.1-9.1C140.2,106,139.9,105.8,139.6,105.6z"/>
	<path class="st0" d="M141.4,106.5l-9.2,9.2c0.3,0.2,0.6,0.3,0.9,0.5l9.4-9.4C142.1,106.7,141.8,106.6,141.4,106.5z"/>
	<path class="st0" d="M129.4,93l1.1-1.1C130.1,92.3,129.7,92.6,129.4,93z"/>
	<path class="st0" d="M137.4,102.5l-9.5,9.5c0.2,0.3,0.4,0.5,0.6,0.8l9.1-9.1C137.5,103.2,137.4,102.8,137.4,102.5z"/>
	<path class="st0" d="M134.6,89.1l-7.9,7.9c-0.3,0.7-0.6,1.4-0.8,2.2L137,88C136.2,88.3,135.4,88.7,134.6,89.1z"/>
	<path class="st0" d="M140.2,131.9l-8.5,8.5c0.3,0.1,0.6,0.3,1,0.4l8.6-8.6C141,132.2,140.6,132,140.2,131.9z"/>
	<path class="st0" d="M154.4,123.1c0.3,0.2,0.6,0.3,0.8,0.5l8.9-8.9c-0.2-0.2-0.5-0.4-0.8-0.6L154.4,123.1z"/>
	<path class="st0" d="M141.9,119.5l1.1,0.3l10.1-10.1l-1.1-0.3L141.9,119.5z"/>
	<path class="st0" d="M168.7,122.3l-21.1,21.1c0.5,0,1,0,1.4,0l19.9-19.9C168.9,123.1,168.8,122.7,168.7,122.3z"/>
	<path class="st0" d="M157,126c0.1,0.3,0.1,0.6,0.1,0.9c0,0.1,0,0.2,0,0.3l9.7-9.7c-0.2-0.3-0.4-0.5-0.6-0.8L157,126z"/>
	<path class="st0" d="M160.5,102.3l4.9-4.9l2.4-3.2c-0.1-0.1-0.2-0.2-0.3-0.3l-7.7,7.7C160,101.9,160.2,102.1,160.5,102.3z"/>
	<path class="st0" d="M145.2,120.3l10.1-10.1c-0.3-0.1-0.7-0.2-1.1-0.3L144.1,120L145.2,120.3z"/>
	<path class="st0" d="M151.5,97.8l8.5-8.5c-0.3-0.1-0.6-0.3-1-0.4l-8.7,8.7C150.8,97.6,151.2,97.7,151.5,97.8z"/>
	<path class="st0" d="M137.7,118.3c0.3,0.1,0.7,0.2,1,0.3l10.1-10.1l-1.1-0.3L137.7,118.3z"/>
	<path class="st0" d="M152.6,122.3c0.3,0.1,0.7,0.3,1,0.4l9.1-9.1c-0.3-0.2-0.6-0.4-0.8-0.5L152.6,122.3z"/>
	<path class="st0" d="M139.8,118.9c0.4,0.1,0.7,0.2,1.1,0.3l10.2-10.2l-1.1-0.3L139.8,118.9z"/>
	<path class="st0" d="M169.1,125.8c0-0.4,0-0.7,0-1.1l-18.6,18.6c0.5,0,1-0.1,1.5-0.2l17.1-17.1C169.1,126,169.1,125.9,169.1,125.8z
		"/>
	<path class="st0" d="M169,127.4l-15.4,15.4c0.6-0.1,1.2-0.2,1.8-0.4l13.5-13.5C168.9,128.5,168.9,128,169,127.4z"/>
	<path class="st0" d="M168.4,130.7l-11.2,11.2c0.8-0.3,1.5-0.6,2.3-0.9l8.2-8.2C168,132.1,168.2,131.4,168.4,130.7z"/>
	<path class="st0" d="M168.1,120.2l-23.2,23.2c0.4,0,0.9,0,1.3,0l22.2-22.2C168.4,120.9,168.2,120.6,168.1,120.2z"/>
	<path class="st0" d="M147.9,86.6l-21.8,21.8c0.1,0.3,0.2,0.7,0.4,1l22.7-22.7C148.8,86.6,148.3,86.6,147.9,86.6z"/>
	<path class="st0" d="M146.3,120.5l1.1,0.3l9.9-9.9c-0.3-0.1-0.7-0.2-1-0.4L146.3,120.5z"/>
	<path class="st0" d="M164.9,115.4l-8.9,8.9c0.2,0.2,0.4,0.5,0.6,0.8l9-9C165.3,115.8,165.1,115.6,164.9,115.4z"/>
	<path class="st0" d="M148.4,121.1l1.1,0.3l9.6-9.6c-0.3-0.1-0.6-0.3-1-0.4L148.4,121.1z"/>
	<path class="st0" d="M142.3,86.8l-16.9,16.9c0,0.4,0,0.9,0.1,1.3l18.4-18.4C143.3,86.7,142.8,86.7,142.3,86.8z"/>
	<path class="st0" d="M138.9,87.5l-13.4,13.4c-0.1,0.5-0.1,1-0.2,1.5l15.3-15.3C140.1,87.2,139.5,87.3,138.9,87.5z"/>
	<path class="st0" d="M167.3,118.4l-10.7,10.7c-0.6,1.1-1.5,2-2.6,2.6l-11.6,11.6c0.4,0,0.8,0.1,1.3,0.1l24-24
		C167.6,119,167.4,118.7,167.3,118.4z"/>
	<path class="st0" d="M147.5,133h-0.3l-9.4,9.4c0.4,0.1,0.7,0.2,1.1,0.2l9.7-9.7C148.3,133,147.9,133,147.5,133z"/>
	<path class="st0" d="M150.1,132.9l-10,10c0.4,0.1,0.8,0.1,1.2,0.2l10.5-10.5C151.2,132.7,150.7,132.8,150.1,132.9z"/>
	<path class="st0" d="M144.7,132.9l-9,9c0.4,0.1,0.7,0.2,1.1,0.3l9.2-9.2C145.5,133,145.1,132.9,144.7,132.9z"/>
	<path class="st0" d="M142.4,132.5l-8.7,8.7c0.3,0.1,0.7,0.2,1,0.4l8.8-8.8C143.1,132.7,142.8,132.6,142.4,132.5z"/>
	<path class="st0" d="M161.2,103l0.2-0.3L161.2,103L161.2,103z"/>
	<path class="st0" d="M143.5,107.2l-9.5,9.5c0.3,0.2,0.6,0.3,0.9,0.4l9.7-9.7C144.2,107.4,143.8,107.3,143.5,107.2z"/>
	<polygon class="st0" points="188.6,137.4 183.6,142.3 185,142.3 188.6,138.8 	"/>
	<polygon class="st0" points="188.6,140.1 186.3,142.3 187.6,142.3 188.6,141.5 	"/>
	<polygon class="st0" points="192.9,120.3 193.2,120.7 200.7,113.3 200.7,113.2 207.9,104.6 176.8,135.7 176.8,137.1 189.5,124.4 	
		"/>
	<polygon class="st0" points="194.4,122.3 201.9,114.8 201.3,114 193.8,121.5 	"/>
	<polygon class="st0" points="176.8,96.7 186.2,87.4 184.8,87.4 176.8,95.3 	"/>
	<polygon class="st0" points="188.6,134.7 180.9,142.3 182.3,142.3 188.6,136.1 	"/>
	<polygon class="st0" points="188.6,132 178.2,142.3 179.6,142.3 188.6,133.4 	"/>
	<polygon class="st0" points="176.8,91.3 180.8,87.4 179.4,87.4 176.8,89.9 	"/>
	<polygon class="st0" points="188.6,126.7 176.8,138.4 176.8,139.8 188.6,128 	"/>
	<polygon class="st0" points="176.8,94 183.5,87.4 182.1,87.4 176.8,92.6 	"/>
	<polygon class="st0" points="188.6,129.3 176.8,141.1 176.8,142.4 188.6,130.7 	"/>
	<polygon class="st0" points="196.1,124.6 196.7,125.3 204.3,117.7 203.7,117 	"/>
	<polygon class="st0" points="176.8,118.2 188.6,106.5 188.6,105.1 176.8,116.8 	"/>
	<polygon class="st0" points="199.2,98.6 210.4,87.4 209,87.4 204.5,92 	"/>
	<polygon class="st0" points="176.8,119.5 176.8,120.9 188.6,109.2 188.6,107.8 	"/>
	<polygon class="st0" points="194.9,123 195.5,123.8 203.1,116.2 202.5,115.5 	"/>
	<polygon class="st0" points="176.8,115.5 188.6,103.8 188.6,102.4 176.8,114.1 	"/>
	<polygon class="st0" points="176.8,87.4 176.8,88.6 178.1,87.4 	"/>
	<polygon class="st0" points="188.8,111.7 213.1,87.4 211.7,87.4 194.1,105.1 	"/>
	<polygon class="st0" points="176.8,122.2 176.8,123.6 188.6,111.9 188.6,110.5 	"/>
	<polygon class="st0" points="176.8,112.8 188.6,101.1 188.6,99.7 176.8,111.5 	"/>
	<polygon class="st0" points="198.4,127.6 199,128.4 206.7,120.7 206.1,120 	"/>
	<polygon class="st0" points="197.3,126.1 197.8,126.9 205.5,119.2 204.9,118.5 	"/>
	<polygon class="st0" points="176.8,99.4 188.6,87.6 188.6,87.4 187.5,87.4 176.8,98 	"/>
	<polygon class="st0" points="176.8,102.1 188.6,90.3 188.6,89 176.8,100.7 	"/>
	<polygon class="st0" points="176.8,107.4 188.6,95.7 188.6,94.3 176.8,106.1 	"/>
	<polygon class="st0" points="176.8,110.1 188.6,98.4 188.6,97 176.8,108.8 	"/>
	<polygon class="st0" points="199.6,129.2 200.2,129.9 207.9,122.2 207.3,121.5 	"/>
	<polygon class="st0" points="176.8,104.7 188.6,93 188.6,91.6 176.8,103.4 	"/>
	<polygon class="st0" points="219.8,87.4 176.8,130.3 176.8,131.7 221.2,87.4 	"/>
	<polygon class="st0" points="217.1,87.4 176.8,127.6 176.8,129 218.5,87.4 	"/>
	<polygon class="st0" points="214.4,130.5 206.5,138.4 207.1,139.2 215.1,131.2 	"/>
	<polygon class="st0" points="220.4,137.9 215.9,142.3 217.3,142.3 221,138.6 	"/>
	<polygon class="st0" points="222.8,140.8 221.3,142.3 222.7,142.3 223.4,141.6 	"/>
	<polygon class="st0" points="213.3,129 205.4,136.8 206,137.6 213.9,129.7 	"/>
	<polygon class="st0" points="216.8,133.4 208.8,141.5 209.4,142.2 217.5,134.2 	"/>
	<polygon class="st0" points="215.6,131.9 207.7,139.9 208.3,140.7 216.3,132.7 	"/>
	<polygon class="st0" points="221.6,139.4 218.6,142.3 220,142.3 222.2,140.1 	"/>
	<polygon class="st0" points="224.1,142.5 224,142.4 224,142.5 	"/>
	<polygon class="st0" points="218,134.9 210.5,142.3 211.9,142.3 218.6,135.6 	"/>
	<polygon class="st0" points="209.7,124.5 201.9,132.2 202.5,133 210.3,125.2 	"/>
	<polygon class="st0" points="210.9,126 203,133.8 203.6,134.6 211.5,126.7 	"/>
	<polygon class="st0" points="219.2,136.4 213.2,142.3 214.6,142.3 219.8,137.1 	"/>
	<polygon class="st0" points="214.4,87.4 176.8,124.9 176.8,126.3 215.8,87.4 	"/>
	<polygon class="st0" points="212.1,127.5 204.2,135.3 204.8,136.1 212.7,128.2 	"/>
	<polygon class="st0" points="222.6,87.4 222.5,87.4 176.8,133 176.8,134.4 215.2,96 	"/>
	<polygon class="st0" points="208.5,123 200.7,130.7 201.3,131.5 209.1,123.7 	"/>
	<polygon class="st0" points="241.1,136.1 234.7,142.3 236.1,142.3 241.1,137.4 	"/>
	<polygon class="st0" points="229.3,89.9 232,87.4 230.6,87.4 229.3,88.6 	"/>
	<polygon class="st0" points="229.3,95.3 237.3,87.4 236,87.4 229.3,93.9 	"/>
	<polygon class="st0" points="229.3,92.6 234.7,87.4 233.3,87.4 229.3,91.2 	"/>
	<polygon class="st0" points="241.1,138.8 237.4,142.3 238.8,142.3 241.1,140.1 	"/>
	<polygon class="st0" points="241.1,130.7 229.3,142.4 229.3,142.3 230.7,142.3 241.1,132.1 	"/>
	<polygon class="st0" points="241.1,128 229.3,139.7 229.3,141.1 241.1,129.4 	"/>
	<polygon class="st0" points="241.1,125.3 229.3,137 229.3,138.4 241.1,126.7 	"/>
	<polygon class="st0" points="241.1,133.4 232.1,142.3 233.4,142.3 241.1,134.7 	"/>
	<polygon class="st0" points="229.3,98 240,87.4 238.7,87.4 229.3,96.6 	"/>
	<polygon class="st0" points="229.3,115.5 229.3,116.9 241.1,105.1 241.1,103.8 	"/>
	<polygon class="st0" points="229.3,123.6 229.3,124.9 241.1,113.2 241.1,111.8 	"/>
	<polygon class="st0" points="229.3,118.2 229.3,119.5 241.1,107.8 241.1,106.4 	"/>
	<polygon class="st0" points="229.3,126.3 229.3,127.6 241.1,115.9 241.1,114.5 	"/>
	<polygon class="st0" points="229.3,120.9 229.3,122.2 241.1,110.5 241.1,109.1 	"/>
	<polygon class="st0" points="229.3,134.3 229.3,135.7 241.1,124 241.1,122.6 	"/>
	<polygon class="st0" points="229.3,131.6 229.3,133 241.1,121.3 241.1,119.9 	"/>
	<polygon class="st0" points="229.3,128.9 229.3,130.3 241.1,118.6 241.1,117.2 	"/>
	<polygon class="st0" points="229.3,106.1 241.1,94.4 241.1,93 229.3,104.7 	"/>
	<polygon class="st0" points="229.3,110.1 229.3,111.5 241.1,99.7 241.1,98.4 	"/>
	<polygon class="st0" points="229.3,100.7 241.1,89 241.1,87.6 229.3,99.3 	"/>
	<polygon class="st0" points="241.1,142.3 241.1,141.5 240.1,142.3 	"/>
	<polygon class="st0" points="229.3,103.4 241.1,91.7 241.1,90.3 229.3,102 	"/>
	<polygon class="st0" points="229.3,108.8 241.1,97 241.1,95.7 229.3,107.4 	"/>
	<polygon class="st0" points="229.3,112.8 229.3,114.2 241.1,102.4 241.1,101.1 	"/>
	<polygon class="st0" points="251.5,102.8 263.3,91 263.3,89.6 251.5,101.4 	"/>
	<polygon class="st0" points="251.5,105.5 263.3,93.7 263.3,92.3 251.5,104.1 	"/>
	<polygon class="st0" points="251.5,97.4 261.6,87.4 260.2,87.4 251.5,96 	"/>
	<polygon class="st0" points="286.5,142.3 286.5,141.7 285.9,142.3 	"/>
	<polygon class="st0" points="251.5,100.1 263.3,88.3 263.3,87.4 262.9,87.4 251.5,98.7 	"/>
	<polygon class="st0" points="251.5,92 256.2,87.4 254.8,87.4 251.5,90.7 	"/>
	<polygon class="st0" points="251.5,89.3 253.5,87.4 252.1,87.4 251.5,88 	"/>
	<polygon class="st0" points="251.5,94.7 258.9,87.4 257.5,87.4 251.5,93.4 	"/>
	<polygon class="st0" points="251.5,108.2 263.3,96.4 263.3,95 251.5,106.8 	"/>
	<polygon class="st0" points="251.5,129.7 263.3,117.9 263.3,116.5 251.5,128.4 	"/>
	<polygon class="st0" points="266.6,132.2 256.3,142.3 257.7,142.3 268,132.2 	"/>
	<polygon class="st0" points="251.5,116.3 263.3,104.5 263.3,103.1 251.5,114.9 	"/>
	<polygon class="st0" points="251.5,127 263.3,115.2 263.3,113.9 251.5,125.7 	"/>
	<polygon class="st0" points="280.1,132.2 269.8,142.3 271.1,142.3 281.5,132.2 	"/>
	<polygon class="st0" points="263.9,132.2 253.6,142.3 255,142.3 265.3,132.2 	"/>
	<polygon class="st0" points="282.8,132.2 272.5,142.3 273.8,142.3 284.1,132.2 	"/>
	<polygon class="st0" points="269.3,132.2 259,142.3 260.4,142.3 270.7,132.2 	"/>
	<polygon class="st0" points="251.5,121.6 263.3,109.8 263.3,108.5 251.5,120.3 	"/>
	<polygon class="st0" points="277.4,132.2 267.1,142.3 268.4,142.3 278.8,132.2 	"/>
	<polygon class="st0" points="286.5,132.2 285.5,132.2 275.1,142.3 276.5,142.3 286.5,132.3 	"/>
	<polygon class="st0" points="274.7,132.2 264.4,142.3 265.7,142.3 276.1,132.2 	"/>
	<polygon class="st0" points="272,132.2 261.7,142.3 263,142.3 273.4,132.2 	"/>
	<polygon class="st0" points="251.5,119 263.3,107.1 263.3,105.8 251.5,117.6 	"/>
	<polygon class="st0" points="263.3,124.6 251.5,136.4 251.5,137.8 263.3,126 	"/>
	<polygon class="st0" points="263.3,121.9 251.5,133.7 251.5,135.1 263.3,123.3 	"/>
	<polygon class="st0" points="286.5,133.7 277.8,142.3 279.2,142.3 286.5,135 	"/>
	<polygon class="st0" points="263.3,119.2 251.5,131 251.5,132.4 263.3,120.6 	"/>
	<polygon class="st0" points="251.5,110.9 263.3,99.1 263.3,97.7 251.5,109.5 	"/>
	<polygon class="st0" points="251.5,124.3 263.3,112.5 263.3,111.2 251.5,123 	"/>
	<polygon class="st0" points="286.5,139 283.2,142.3 284.6,142.3 286.5,140.4 	"/>
	<polygon class="st0" points="286.5,136.3 280.5,142.3 281.9,142.3 286.5,137.7 	"/>
	<polygon class="st0" points="251.5,113.6 263.3,101.8 263.3,100.4 251.5,112.2 	"/>
	<polygon class="st0" points="263.3,130 251.5,141.8 251.5,142.3 252.3,142.3 263.3,131.4 	"/>
	<polygon class="st0" points="263.3,127.3 251.5,139.1 251.5,140.5 263.3,128.7 	"/>
	<polygon class="st0" points="325.9,132.2 315.5,142.3 316.9,142.3 327.2,132.2 	"/>
	<polygon class="st0" points="293.9,119.5 306.1,107.7 306.1,106.3 293.9,118.1 	"/>
	<polygon class="st0" points="329.3,132.2 328.6,132.2 318.2,142.3 319.6,142.3 329.3,132.9 	"/>
	<polygon class="st0" points="293.9,116.8 306.1,105 306.1,103.6 293.9,115.4 	"/>
	<polygon class="st0" points="323.2,132.2 312.8,142.3 314.2,142.3 324.5,132.2 	"/>
	<polygon class="st0" points="293.9,122.2 306.1,110.4 306.1,109 293.9,120.8 	"/>
	<polygon class="st0" points="293.9,114.1 306.1,102.3 306.1,100.9 293.9,112.8 	"/>
	<polygon class="st0" points="293.9,127.6 306.1,115.8 306.1,114.4 293.9,126.2 	"/>
	<polygon class="st0" points="293.9,124.9 306.1,113.1 306.1,111.7 293.9,123.5 	"/>
	<polygon class="st0" points="329.3,136.9 323.6,142.3 325,142.3 329.3,138.3 	"/>
	<polygon class="st0" points="329.3,139.6 326.3,142.3 327.7,142.3 329.3,141 	"/>
	<polygon class="st0" points="329.3,134.2 320.9,142.3 322.3,142.3 329.3,135.6 	"/>
	<polygon class="st0" points="293.9,131.6 293.9,133 306.1,121.2 306.1,119.8 	"/>
	<polygon class="st0" points="293.9,111.4 306.1,99.6 306.1,98.3 293.9,110.1 	"/>
	<polygon class="st0" points="293.9,128.9 293.9,130.3 306.1,118.5 306.1,117.1 	"/>
	<polygon class="st0" points="293.9,95.3 302,87.4 300.6,87.4 293.9,93.9 	"/>
	<polygon class="st0" points="306.1,127.9 293.9,139.7 293.9,141.1 306.1,129.2 	"/>
	<polygon class="st0" points="293.9,92.6 299.3,87.4 297.9,87.4 293.9,91.2 	"/>
	<polygon class="st0" points="307,132.2 296.7,142.3 298.1,142.3 308.4,132.2 	"/>
	<polygon class="st0" points="293.9,98 304.7,87.4 303.3,87.4 293.9,96.6 	"/>
	<polygon class="st0" points="309.7,132.2 299.4,142.3 300.7,142.3 311.1,132.2 	"/>
	<polygon class="st0" points="306.1,125.2 293.9,137 293.9,138.4 306.1,126.6 	"/>
	<polygon class="st0" points="293.9,89.9 296.6,87.4 295.2,87.4 293.9,88.5 	"/>
	<polygon class="st0" points="306.1,122.5 293.9,134.3 293.9,135.7 306.1,123.9 	"/>
	<polygon class="st0" points="320.5,132.2 310.2,142.3 311.5,142.3 321.8,132.2 	"/>
	<polygon class="st0" points="317.8,132.2 307.5,142.3 308.8,142.3 319.2,132.2 	"/>
	<polygon class="st0" points="293.9,106 306.1,94.2 306.1,92.9 293.9,104.7 	"/>
	<polygon class="st0" points="312.4,132.2 302.1,142.3 303.4,142.3 313.8,132.2 	"/>
	<polygon class="st0" points="293.9,108.7 306.1,96.9 306.1,95.6 293.9,107.4 	"/>
	<polygon class="st0" points="315.1,132.2 304.8,142.3 306.1,142.3 316.5,132.2 	"/>
	<polygon class="st0" points="293.9,100.7 306.1,88.9 306.1,87.5 293.9,99.3 	"/>
	<polygon class="st0" points="293.9,103.4 306.1,91.5 306.1,90.2 293.9,102 	"/>
	<polygon class="st0" points="306.1,130.6 293.9,142.4 293.9,142.3 295.4,142.3 306.1,131.9 	"/>
	<polygon class="st0" points="329.2,142.5 329.2,142.3 329,142.5 	"/>
	<polygon class="st0" points="358.2,132.2 347.9,142.3 349.2,142.3 359.5,132.2 	"/>
	<polygon class="st0" points="377.1,132.2 377,132.2 366.7,142.3 368.1,142.3 377.1,133.5 	"/>
	<polygon class="st0" points="377.1,134.8 369.4,142.3 370.8,142.3 377.1,136.1 	"/>
	<polygon class="st0" points="360.9,132.2 350.5,142.3 351.9,142.3 362.2,132.2 	"/>
	<polygon class="st0" points="374.3,132.2 364,142.3 365.4,142.3 375.7,132.2 	"/>
	<polygon class="st0" points="353.6,97.5 363.9,87.4 362.5,87.4 352.2,97.5 	"/>
	<polygon class="st0" points="336.9,130.5 376.4,90.9 376.4,89.6 340.7,125.3 	"/>
	<polygon class="st0" points="344.5,120.3 376.4,88.3 376.4,87.4 376,87.4 348.3,115.1 	"/>
	<polygon class="st0" points="335,91.9 339.7,87.4 338.3,87.4 335,90.6 	"/>
	<polygon class="st0" points="377.1,137.5 372.1,142.3 373.5,142.3 377.1,138.8 	"/>
	<polygon class="st0" points="363.6,132.2 353.2,142.3 354.6,142.3 364.9,132.2 	"/>
	<polygon class="st0" points="335,135 376.4,93.6 376.4,92.3 335,133.6 	"/>
	<polygon class="st0" points="371.6,132.2 361.3,142.3 362.7,142.3 373,132.2 	"/>
	<polygon class="st0" points="352.1,110 374.7,87.4 373.3,87.4 355.9,104.8 	"/>
	<polygon class="st0" points="350.5,132.2 351.6,130.6 339.8,142.3 341.1,142.3 351.5,132.2 	"/>
	<polygon class="st0" points="359.1,120.4 337.1,142.3 338.5,142.3 355.3,125.5 	"/>
	<polygon class="st0" points="356.3,97.5 366.6,87.4 365.2,87.4 354.9,97.5 	"/>
	<polygon class="st0" points="366.5,110.3 335,141.7 335,142.3 335.8,142.3 362.7,115.4 	"/>
	<polygon class="st0" points="374,100.1 335,139 335,140.4 370.2,105.3 	"/>
	<polygon class="st0" points="348.2,97.5 358.5,87.4 357.2,87.4 346.8,97.5 	"/>
	<polygon class="st0" points="376.4,95 335,136.3 335,137.7 376.4,96.3 	"/>
	<polygon class="st0" points="352.8,132.2 342.5,142.3 343.8,142.3 354.2,132.2 	"/>
	<polygon class="st0" points="355.5,132.2 345.2,142.3 346.5,142.3 356.9,132.2 	"/>
	<polygon class="st0" points="366.3,132.2 355.9,142.3 357.3,142.3 367.6,132.2 	"/>
	<polygon class="st0" points="350.9,97.5 361.2,87.4 359.9,87.4 349.5,97.5 	"/>
	<polygon class="st0" points="368.9,132.2 358.6,142.3 360,142.3 370.3,132.2 	"/>
	<polygon class="st0" points="335,89.2 337,87.4 335.6,87.4 335,87.9 	"/>
	<polygon class="st0" points="335,94.6 342.4,87.4 341,87.4 335,93.3 	"/>
	<polygon class="st0" points="342.8,97.5 353.1,87.4 351.8,87.4 341.4,97.5 	"/>
	<polygon class="st0" points="359,97.5 369.3,87.4 367.9,87.4 357.6,97.5 	"/>
	<polygon class="st0" points="335,97.3 345.1,87.4 343.7,87.4 335,95.9 	"/>
	<polygon class="st0" points="337.4,97.5 347.8,87.4 346.4,87.4 336.1,97.5 	"/>
	<polygon class="st0" points="345.5,97.5 355.8,87.4 354.5,87.4 344.1,97.5 	"/>
	<polygon class="st0" points="361.1,97.5 359.7,99.7 372,87.4 370.6,87.4 360.3,97.5 	"/>
	<polygon class="st0" points="340.1,97.5 350.5,87.4 349.1,87.4 338.8,97.5 	"/>
	<polygon class="st0" points="377.1,140.2 374.8,142.3 376.2,142.3 377.1,141.5 	"/>
	<line class="st1" x1="126.7" y1="97" x2="134.6" y2="89.1"/>
	<line class="st1" x1="130.5" y1="91.9" x2="129.4" y2="93"/>
	<line class="st1" x1="125.6" y1="100.9" x2="138.9" y2="87.5"/>
	<line class="st1" x1="137" y1="88.1" x2="125.9" y2="99.2"/>
	<line class="st1" x1="125.4" y1="103.7" x2="142.3" y2="86.8"/>
	<line class="st1" x1="140.7" y1="87.1" x2="125.4" y2="102.4"/>
	<line class="st1" x1="125.6" y1="106.2" x2="145.2" y2="86.6"/>
	<line class="st1" x1="143.8" y1="86.6" x2="125.4" y2="105"/>
	<line class="st1" x1="126.1" y1="108.4" x2="147.9" y2="86.6"/>
	<line class="st1" x1="146.6" y1="86.6" x2="125.8" y2="107.3"/>
	<line class="st1" x1="126.9" y1="110.3" x2="150.4" y2="86.8"/>
	<line class="st1" x1="149.2" y1="86.7" x2="126.5" y2="109.4"/>
	<line class="st1" x1="142.7" y1="97.2" x2="152.8" y2="87.1"/>
	<line class="st1" x1="127.9" y1="111.9" x2="137.4" y2="102.5"/>
	<line class="st1" x1="137.6" y1="100.9" x2="127.4" y2="111.1"/>
	<line class="st1" x1="151.6" y1="86.9" x2="140.9" y2="97.7"/>
	<line class="st1" x1="145.6" y1="97" x2="155" y2="87.6"/>
	<line class="st1" x1="129.2" y1="113.4" x2="138.1" y2="104.4"/>
	<line class="st1" x1="137.6" y1="103.6" x2="128.6" y2="112.7"/>
	<line class="st1" x1="153.9" y1="87.3" x2="144.3" y2="97"/>
	<line class="st1" x1="148.1" y1="97.1" x2="157.1" y2="88.1"/>
	<line class="st1" x1="130.6" y1="114.6" x2="139.6" y2="105.6"/>
	<line class="st1" x1="138.8" y1="105.1" x2="129.9" y2="114"/>
	<line class="st1" x1="156.1" y1="87.8" x2="146.9" y2="97"/>
	<line class="st1" x1="150.4" y1="97.5" x2="159.1" y2="88.8"/>
	<line class="st1" x1="132.2" y1="115.7" x2="141.5" y2="106.5"/>
	<line class="st1" x1="140.5" y1="106.1" x2="131.4" y2="115.2"/>
	<line class="st1" x1="158.2" y1="88.5" x2="149.3" y2="97.3"/>
	<line class="st1" x1="152.6" y1="98.1" x2="161" y2="89.7"/>
	<line class="st1" x1="133.9" y1="116.7" x2="143.5" y2="107.2"/>
	<line class="st1" x1="142.5" y1="106.9" x2="133.1" y2="116.2"/>
	<line class="st1" x1="160.1" y1="89.2" x2="151.5" y2="97.8"/>
	<line class="st1" x1="154.6" y1="98.8" x2="162.8" y2="90.6"/>
	<line class="st1" x1="135.8" y1="117.5" x2="145.6" y2="107.7"/>
	<line class="st1" x1="144.5" y1="107.5" x2="134.9" y2="117.1"/>
	<line class="st1" x1="161.9" y1="90.1" x2="153.6" y2="98.4"/>
	<line class="st1" x1="156.4" y1="99.6" x2="164.4" y2="91.6"/>
	<line class="st1" x1="137.8" y1="118.3" x2="147.8" y2="108.3"/>
	<line class="st1" x1="128.8" y1="127.3" x2="130.2" y2="125.8"/>
	<line class="st1" x1="146.7" y1="108" x2="136.8" y2="117.9"/>
	<line class="st1" x1="163.6" y1="91.1" x2="155.5" y2="99.2"/>
	<line class="st1" x1="158.1" y1="100.6" x2="166" y2="92.8"/>
	<line class="st1" x1="139.8" y1="118.9" x2="149.9" y2="108.8"/>
	<line class="st1" x1="123.8" y1="134.9" x2="131.6" y2="127.1"/>
	<line class="st1" x1="130.9" y1="126.5" x2="125.5" y2="131.9"/>
	<line class="st1" x1="148.9" y1="108.5" x2="138.8" y2="118.6"/>
	<line class="st1" x1="165.2" y1="92.2" x2="157.3" y2="100.1"/>
	<line class="st1" x1="159.7" y1="101.7" x2="167.4" y2="94"/>
	<line class="st1" x1="141.9" y1="119.5" x2="152.1" y2="109.3"/>
	<line class="st1" x1="125.2" y1="136.2" x2="133.1" y2="128.3"/>
	<line class="st1" x1="132.4" y1="127.7" x2="124.5" y2="135.6"/>
	<line class="st1" x1="151" y1="109.1" x2="140.9" y2="119.2"/>
	<line class="st1" x1="166.7" y1="93.4" x2="158.9" y2="101.2"/>
	<line class="st1" x1="161.2" y1="102.9" x2="161.4" y2="102.7"/>
	<line class="st1" x1="144.1" y1="120" x2="154.2" y2="109.9"/>
	<line class="st1" x1="126.7" y1="137.4" x2="134.7" y2="129.4"/>
	<line class="st1" x1="133.9" y1="128.9" x2="125.9" y2="136.8"/>
	<line class="st1" x1="153.2" y1="109.6" x2="143" y2="119.8"/>
	<line class="st1" x1="165.3" y1="97.5" x2="160.5" y2="102.3"/>
	<line class="st1" x1="176.9" y1="89.9" x2="179.4" y2="87.4"/>
	<line class="st1" x1="146.3" y1="120.5" x2="156.2" y2="110.6"/>
	<line class="st1" x1="128.3" y1="138.5" x2="136.4" y2="130.4"/>
	<line class="st1" x1="135.6" y1="129.9" x2="127.5" y2="138"/>
	<line class="st1" x1="155.3" y1="110.2" x2="145.2" y2="120.3"/>
	<line class="st1" x1="178.1" y1="87.4" x2="176.9" y2="88.6"/>
	<line class="st1" x1="176.9" y1="92.6" x2="182.1" y2="87.4"/>
	<line class="st1" x1="148.4" y1="121.1" x2="158.2" y2="111.3"/>
	<line class="st1" x1="130" y1="139.5" x2="138.3" y2="131.2"/>
	<line class="st1" x1="137.4" y1="130.8" x2="129.1" y2="139"/>
	<line class="st1" x1="157.3" y1="110.9" x2="147.4" y2="120.8"/>
	<line class="st1" x1="180.8" y1="87.4" x2="176.9" y2="91.3"/>
	<line class="st1" x1="176.9" y1="95.3" x2="184.8" y2="87.4"/>
	<line class="st1" x1="150.6" y1="121.6" x2="160.1" y2="112.1"/>
	<line class="st1" x1="131.8" y1="140.4" x2="140.2" y2="131.9"/>
	<line class="st1" x1="139.3" y1="131.6" x2="130.9" y2="140"/>
	<line class="st1" x1="159.2" y1="111.7" x2="149.5" y2="121.3"/>
	<line class="st1" x1="183.5" y1="87.4" x2="176.9" y2="94"/>
	<line class="st1" x1="176.9" y1="98" x2="187.5" y2="87.4"/>
	<line class="st1" x1="152.6" y1="122.3" x2="161.8" y2="113.1"/>
	<line class="st1" x1="133.7" y1="141.2" x2="142.4" y2="132.5"/>
	<line class="st1" x1="141.3" y1="132.2" x2="132.7" y2="140.8"/>
	<line class="st1" x1="161" y1="112.6" x2="151.6" y2="122"/>
	<line class="st1" x1="186.2" y1="87.4" x2="176.9" y2="96.7"/>
	<line class="st1" x1="176.9" y1="100.7" x2="188.6" y2="89"/>
	<line class="st1" x1="154.4" y1="123.1" x2="163.4" y2="114.1"/>
	<line class="st1" x1="135.7" y1="141.9" x2="144.7" y2="132.9"/>
	<line class="st1" x1="143.5" y1="132.7" x2="134.7" y2="141.6"/>
	<line class="st1" x1="162.7" y1="113.6" x2="153.6" y2="122.7"/>
	<line class="st1" x1="188.6" y1="87.6" x2="176.9" y2="99.4"/>
	<line class="st1" x1="176.9" y1="103.4" x2="188.6" y2="91.6"/>
	<line class="st1" x1="156" y1="124.3" x2="164.9" y2="115.4"/>
	<line class="st1" x1="137.8" y1="142.5" x2="147.2" y2="133"/>
	<line class="st1" x1="145.9" y1="133" x2="136.8" y2="142.2"/>
	<line class="st1" x1="164.2" y1="114.8" x2="155.3" y2="123.7"/>
	<line class="st1" x1="188.6" y1="90.3" x2="176.9" y2="102.1"/>
	<line class="st1" x1="176.9" y1="106.1" x2="188.6" y2="94.3"/>
	<line class="st1" x1="157" y1="126" x2="166.2" y2="116.8"/>
	<line class="st1" x1="140.1" y1="142.9" x2="150.1" y2="132.9"/>
	<line class="st1" x1="148.6" y1="133" x2="138.9" y2="142.7"/>
	<line class="st1" x1="165.6" y1="116.1" x2="156.6" y2="125.1"/>
	<line class="st1" x1="188.6" y1="93" x2="176.9" y2="104.7"/>
	<line class="st1" x1="176.9" y1="108.8" x2="188.6" y2="97"/>
	<line class="st1" x1="156.6" y1="129.1" x2="167.3" y2="118.4"/>
	<line class="st1" x1="142.4" y1="143.2" x2="154" y2="131.7"/>
	<line class="st1" x1="151.8" y1="132.5" x2="141.2" y2="143.1"/>
	<line class="st1" x1="166.7" y1="117.6" x2="157.1" y2="127.3"/>
	<line class="st1" x1="188.6" y1="95.7" x2="176.9" y2="107.4"/>
	<line class="st1" x1="176.9" y1="111.5" x2="188.6" y2="99.7"/>
	<line class="st1" x1="144.9" y1="143.4" x2="168.1" y2="120.2"/>
	<line class="st1" x1="167.7" y1="119.3" x2="143.7" y2="143.3"/>
	<line class="st1" x1="188.6" y1="98.4" x2="176.9" y2="110.1"/>
	<line class="st1" x1="176.9" y1="114.1" x2="188.6" y2="102.4"/>
	<line class="st1" x1="147.6" y1="143.4" x2="168.7" y2="122.3"/>
	<line class="st1" x1="168.5" y1="121.3" x2="146.3" y2="143.4"/>
	<line class="st1" x1="188.6" y1="101.1" x2="176.9" y2="112.8"/>
	<line class="st1" x1="176.9" y1="116.8" x2="188.6" y2="105.1"/>
	<line class="st1" x1="150.4" y1="143.3" x2="169" y2="124.7"/>
	<line class="st1" x1="168.9" y1="123.5" x2="149" y2="143.4"/>
	<line class="st1" x1="188.6" y1="103.8" x2="176.9" y2="115.5"/>
	<line class="st1" x1="204.5" y1="91.9" x2="209" y2="87.4"/>
	<line class="st1" x1="176.9" y1="119.5" x2="188.6" y2="107.8"/>
	<line class="st1" x1="153.5" y1="142.9" x2="169" y2="127.4"/>
	<line class="st1" x1="169" y1="126.1" x2="152" y2="143.1"/>
	<line class="st1" x1="188.6" y1="106.5" x2="176.9" y2="118.2"/>
	<line class="st1" x1="194.1" y1="105" x2="211.7" y2="87.4"/>
	<line class="st1" x1="176.9" y1="122.2" x2="188.6" y2="110.5"/>
	<line class="st1" x1="157.2" y1="141.9" x2="168.4" y2="130.7"/>
	<line class="st1" x1="168.8" y1="129" x2="155.3" y2="142.5"/>
	<line class="st1" x1="188.6" y1="109.2" x2="176.9" y2="120.9"/>
	<line class="st1" x1="210.4" y1="87.4" x2="199.2" y2="98.6"/>
	<line class="st1" x1="176.9" y1="124.9" x2="214.4" y2="87.4"/>
	<line class="st1" x1="162.8" y1="139" x2="165.8" y2="136"/>
	<line class="st1" x1="167.7" y1="132.8" x2="159.5" y2="141"/>
	<polyline class="st0" points="213.1,87.4 188.8,111.7 188.6,111.9 176.9,123.6 	"/>
	<line class="st1" x1="176.9" y1="127.6" x2="217.1" y2="87.4"/>
	<line class="st1" x1="215.8" y1="87.4" x2="176.9" y2="126.3"/>
	<line class="st1" x1="176.9" y1="130.3" x2="219.8" y2="87.4"/>
	<line class="st1" x1="218.5" y1="87.4" x2="176.9" y2="129"/>
	<line class="st1" x1="176.9" y1="133" x2="222.5" y2="87.4"/>
	<line class="st1" x1="221.2" y1="87.4" x2="176.9" y2="131.7"/>
	<line class="st1" x1="176.9" y1="135.7" x2="208" y2="104.6"/>
	<line class="st1" x1="215.3" y1="96" x2="176.9" y2="134.4"/>
	<line class="st1" x1="193.8" y1="121.5" x2="201.3" y2="114"/>
	<line class="st1" x1="176.9" y1="138.4" x2="188.6" y2="126.7"/>
	<line class="st1" x1="189.6" y1="124.4" x2="176.9" y2="137.1"/>
	<line class="st1" x1="200.7" y1="113.3" x2="193.2" y2="120.7"/>
	<line class="st1" x1="229.4" y1="88.6" x2="230.6" y2="87.4"/>
	<line class="st1" x1="194.9" y1="123" x2="202.5" y2="115.5"/>
	<line class="st1" x1="176.9" y1="141.1" x2="188.6" y2="129.3"/>
	<line class="st1" x1="188.6" y1="128" x2="176.9" y2="139.8"/>
	<line class="st1" x1="201.9" y1="114.8" x2="194.4" y2="122.3"/>
	<line class="st1" x1="229.4" y1="91.2" x2="233.3" y2="87.4"/>
	<line class="st1" x1="196.1" y1="124.6" x2="203.7" y2="117"/>
	<line class="st1" x1="178.2" y1="142.5" x2="188.6" y2="132"/>
	<line class="st1" x1="188.6" y1="130.7" x2="176.9" y2="142.4"/>
	<line class="st1" x1="203.1" y1="116.2" x2="195.5" y2="123.8"/>
	<line class="st1" x1="232" y1="87.4" x2="229.4" y2="89.9"/>
	<line class="st1" x1="229.4" y1="93.9" x2="236" y2="87.4"/>
	<line class="st1" x1="197.3" y1="126.1" x2="204.9" y2="118.5"/>
	<line class="st1" x1="180.9" y1="142.5" x2="188.6" y2="134.7"/>
	<line class="st1" x1="188.6" y1="133.4" x2="179.6" y2="142.5"/>
	<line class="st1" x1="204.3" y1="117.7" x2="196.7" y2="125.3"/>
	<line class="st1" x1="234.7" y1="87.4" x2="229.4" y2="92.6"/>
	<line class="st1" x1="229.4" y1="96.6" x2="238.7" y2="87.4"/>
	<line class="st1" x1="198.4" y1="127.6" x2="206.1" y2="120"/>
	<line class="st1" x1="183.6" y1="142.5" x2="188.6" y2="137.4"/>
	<line class="st1" x1="188.6" y1="136.1" x2="182.3" y2="142.5"/>
	<line class="st1" x1="205.5" y1="119.2" x2="197.8" y2="126.9"/>
	<line class="st1" x1="237.3" y1="87.4" x2="229.4" y2="95.3"/>
	<line class="st1" x1="229.4" y1="99.3" x2="241.1" y2="87.6"/>
	<line class="st1" x1="199.6" y1="129.2" x2="207.3" y2="121.5"/>
	<line class="st1" x1="186.3" y1="142.5" x2="188.6" y2="140.1"/>
	<line class="st1" x1="188.6" y1="138.8" x2="185" y2="142.5"/>
	<line class="st1" x1="206.7" y1="120.7" x2="199" y2="128.4"/>
	<line class="st1" x1="240" y1="87.4" x2="229.4" y2="98"/>
	<line class="st1" x1="229.4" y1="102" x2="241.1" y2="90.3"/>
	<line class="st1" x1="200.7" y1="130.7" x2="208.5" y2="123"/>
	<line class="st1" x1="188.6" y1="141.5" x2="187.6" y2="142.5"/>
	<line class="st1" x1="207.9" y1="122.2" x2="200.2" y2="129.9"/>
	<line class="st1" x1="241.1" y1="89" x2="229.4" y2="100.7"/>
	<line class="st1" x1="229.4" y1="104.7" x2="241.1" y2="93"/>
	<line class="st1" x1="201.9" y1="132.2" x2="209.7" y2="124.5"/>
	<line class="st1" x1="209.1" y1="123.7" x2="201.3" y2="131.5"/>
	<line class="st1" x1="241.1" y1="91.7" x2="229.4" y2="103.4"/>
	<line class="st1" x1="229.4" y1="107.4" x2="241.1" y2="95.7"/>
	<line class="st1" x1="203" y1="133.8" x2="210.9" y2="126"/>
	<line class="st1" x1="210.3" y1="125.2" x2="202.5" y2="133"/>
	<line class="st1" x1="241.1" y1="94.4" x2="229.4" y2="106.1"/>
	<line class="st1" x1="251.5" y1="88" x2="252.1" y2="87.4"/>
	<line class="st1" x1="229.4" y1="110.1" x2="241.1" y2="98.4"/>
	<line class="st1" x1="204.2" y1="135.3" x2="212.1" y2="127.5"/>
	<line class="st1" x1="211.5" y1="126.7" x2="203.6" y2="134.6"/>
	<line class="st1" x1="241.1" y1="97" x2="229.4" y2="108.8"/>
	<line class="st1" x1="251.5" y1="90.7" x2="254.8" y2="87.4"/>
	<line class="st1" x1="229.4" y1="112.8" x2="241.1" y2="101.1"/>
	<line class="st1" x1="205.4" y1="136.8" x2="213.3" y2="129"/>
	<line class="st1" x1="212.7" y1="128.2" x2="204.8" y2="136.1"/>
	<line class="st1" x1="241.1" y1="99.7" x2="229.4" y2="111.5"/>
	<line class="st1" x1="253.5" y1="87.4" x2="251.5" y2="89.3"/>
	<line class="st1" x1="251.5" y1="93.3" x2="257.5" y2="87.4"/>
	<line class="st1" x1="229.4" y1="115.5" x2="241.1" y2="103.8"/>
	<line class="st1" x1="206.5" y1="138.4" x2="214.4" y2="130.5"/>
	<line class="st1" x1="213.9" y1="129.7" x2="206" y2="137.6"/>
	<line class="st1" x1="241.1" y1="102.4" x2="229.4" y2="114.2"/>
	<line class="st1" x1="256.2" y1="87.4" x2="251.5" y2="92"/>
	<line class="st1" x1="251.5" y1="96" x2="260.2" y2="87.4"/>
	<line class="st1" x1="229.4" y1="118.2" x2="241.1" y2="106.4"/>
	<line class="st1" x1="207.7" y1="139.9" x2="215.6" y2="131.9"/>
	<line class="st1" x1="215.1" y1="131.2" x2="207.1" y2="139.2"/>
	<line class="st1" x1="241.1" y1="105.1" x2="229.4" y2="116.9"/>
	<line class="st1" x1="258.9" y1="87.4" x2="251.5" y2="94.7"/>
	<line class="st1" x1="251.5" y1="98.7" x2="262.9" y2="87.4"/>
	<line class="st1" x1="229.4" y1="120.9" x2="241.1" y2="109.1"/>
	<line class="st1" x1="208.8" y1="141.5" x2="216.8" y2="133.4"/>
	<line class="st1" x1="216.3" y1="132.7" x2="208.3" y2="140.7"/>
	<line class="st1" x1="241.1" y1="107.8" x2="229.4" y2="119.5"/>
	<line class="st1" x1="261.6" y1="87.4" x2="251.5" y2="97.4"/>
	<line class="st1" x1="251.5" y1="101.4" x2="263.4" y2="89.6"/>
	<line class="st1" x1="229.4" y1="123.6" x2="241.1" y2="111.8"/>
	<line class="st1" x1="210.5" y1="142.5" x2="218" y2="134.9"/>
	<line class="st1" x1="217.5" y1="134.2" x2="209.4" y2="142.2"/>
	<line class="st1" x1="241.1" y1="110.5" x2="229.4" y2="122.2"/>
	<line class="st1" x1="263.4" y1="88.3" x2="251.5" y2="100.1"/>
	<line class="st1" x1="251.5" y1="104.1" x2="263.4" y2="92.3"/>
	<line class="st1" x1="229.4" y1="126.3" x2="241.1" y2="114.5"/>
	<line class="st1" x1="213.2" y1="142.5" x2="219.2" y2="136.4"/>
	<line class="st1" x1="218.6" y1="135.7" x2="211.9" y2="142.5"/>
	<line class="st1" x1="241.1" y1="113.2" x2="229.4" y2="124.9"/>
	<line class="st1" x1="263.4" y1="91" x2="251.5" y2="102.8"/>
	<line class="st1" x1="251.5" y1="106.8" x2="263.4" y2="95"/>
	<line class="st1" x1="229.4" y1="128.9" x2="241.1" y2="117.2"/>
	<line class="st1" x1="215.9" y1="142.5" x2="220.4" y2="137.9"/>
	<line class="st1" x1="219.8" y1="137.2" x2="214.6" y2="142.5"/>
	<line class="st1" x1="241.1" y1="115.9" x2="229.4" y2="127.6"/>
	<line class="st1" x1="263.4" y1="93.7" x2="251.5" y2="105.5"/>
	<line class="st1" x1="251.5" y1="109.5" x2="263.4" y2="97.7"/>
	<line class="st1" x1="229.4" y1="131.6" x2="241.1" y2="119.9"/>
	<line class="st1" x1="218.6" y1="142.5" x2="221.6" y2="139.4"/>
	<line class="st1" x1="221" y1="138.7" x2="217.3" y2="142.5"/>
	<line class="st1" x1="241.1" y1="118.6" x2="229.4" y2="130.3"/>
	<line class="st1" x1="263.4" y1="96.4" x2="251.5" y2="108.2"/>
	<line class="st1" x1="251.5" y1="112.2" x2="263.4" y2="100.4"/>
	<line class="st1" x1="229.4" y1="134.3" x2="241.1" y2="122.6"/>
	<line class="st1" x1="221.3" y1="142.5" x2="222.8" y2="140.9"/>
	<line class="st1" x1="222.2" y1="140.2" x2="220" y2="142.5"/>
	<line class="st1" x1="241.1" y1="121.3" x2="229.4" y2="133"/>
	<line class="st1" x1="263.4" y1="99.1" x2="251.5" y2="110.9"/>
	<line class="st1" x1="251.5" y1="114.9" x2="263.4" y2="103.1"/>
	<line class="st1" x1="229.4" y1="137" x2="241.1" y2="125.3"/>
	<line class="st1" x1="224" y1="142.5" x2="224" y2="142.4"/>
	<line class="st1" x1="223.4" y1="141.7" x2="222.7" y2="142.5"/>
	<line class="st1" x1="241.1" y1="124" x2="229.4" y2="135.7"/>
	<line class="st1" x1="263.4" y1="101.8" x2="251.5" y2="113.6"/>
	<line class="st1" x1="251.5" y1="117.6" x2="263.4" y2="105.8"/>
	<line class="st1" x1="229.4" y1="139.7" x2="241.1" y2="128"/>
	<line class="st1" x1="241.1" y1="126.7" x2="229.4" y2="138.4"/>
	<line class="st1" x1="263.4" y1="104.5" x2="251.5" y2="116.3"/>
	<line class="st1" x1="251.5" y1="120.3" x2="263.4" y2="108.5"/>
	<line class="st1" x1="229.4" y1="142.4" x2="241.1" y2="130.7"/>
	<line class="st1" x1="241.1" y1="129.4" x2="229.4" y2="141.1"/>
	<line class="st1" x1="263.4" y1="107.1" x2="251.5" y2="119"/>
	<line class="st1" x1="251.5" y1="123" x2="263.4" y2="111.2"/>
	<line class="st1" x1="232.1" y1="142.5" x2="241.1" y2="133.4"/>
	<line class="st1" x1="241.1" y1="132.1" x2="230.7" y2="142.5"/>
	<line class="st1" x1="263.4" y1="109.8" x2="251.5" y2="121.6"/>
	<line class="st1" x1="251.5" y1="125.7" x2="263.4" y2="113.9"/>
	<line class="st1" x1="234.7" y1="142.5" x2="241.1" y2="136.1"/>
	<line class="st1" x1="241.1" y1="134.7" x2="233.4" y2="142.5"/>
	<line class="st1" x1="263.4" y1="112.5" x2="251.5" y2="124.3"/>
	<line class="st1" x1="251.5" y1="128.4" x2="263.4" y2="116.5"/>
	<line class="st1" x1="237.4" y1="142.5" x2="241.1" y2="138.8"/>
	<line class="st1" x1="241.1" y1="137.4" x2="236.1" y2="142.5"/>
	<line class="st1" x1="263.4" y1="115.2" x2="251.5" y2="127"/>
	<line class="st1" x1="294.1" y1="88.5" x2="295.2" y2="87.4"/>
	<line class="st1" x1="251.5" y1="131" x2="263.4" y2="119.2"/>
	<line class="st1" x1="240.1" y1="142.5" x2="241.1" y2="141.5"/>
	<line class="st1" x1="241.1" y1="140.1" x2="238.8" y2="142.5"/>
	<line class="st1" x1="263.4" y1="117.9" x2="251.5" y2="129.7"/>
	<line class="st1" x1="294.1" y1="91.2" x2="297.9" y2="87.4"/>
	<line class="st1" x1="251.5" y1="133.7" x2="263.4" y2="121.9"/>
	<line class="st1" x1="263.4" y1="120.6" x2="251.5" y2="132.4"/>
	<line class="st1" x1="296.6" y1="87.4" x2="294.1" y2="89.9"/>
	<line class="st1" x1="294.1" y1="93.9" x2="300.6" y2="87.4"/>
	<line class="st1" x1="251.5" y1="136.4" x2="263.4" y2="124.6"/>
	<line class="st1" x1="263.4" y1="123.3" x2="251.5" y2="135.1"/>
	<line class="st1" x1="299.3" y1="87.4" x2="294.1" y2="92.6"/>
	<line class="st1" x1="294.1" y1="96.6" x2="303.3" y2="87.4"/>
	<line class="st1" x1="251.5" y1="139.1" x2="263.4" y2="127.3"/>
	<line class="st1" x1="263.4" y1="126" x2="251.5" y2="137.8"/>
	<line class="st1" x1="302" y1="87.4" x2="294.1" y2="95.3"/>
	<line class="st1" x1="294.1" y1="99.3" x2="305.9" y2="87.5"/>
	<line class="st1" x1="251.5" y1="141.8" x2="263.4" y2="130"/>
	<line class="st1" x1="263.4" y1="128.7" x2="251.5" y2="140.5"/>
	<line class="st1" x1="304.7" y1="87.4" x2="294.1" y2="98"/>
	<line class="st1" x1="294.1" y1="102" x2="305.9" y2="90.2"/>
	<line class="st1" x1="253.6" y1="142.5" x2="263.9" y2="132.1"/>
	<line class="st1" x1="263.4" y1="131.4" x2="252.3" y2="142.5"/>
	<line class="st1" x1="305.9" y1="88.9" x2="294.1" y2="100.7"/>
	<line class="st1" x1="294.1" y1="104.7" x2="305.9" y2="92.9"/>
	<line class="st1" x1="256.3" y1="142.5" x2="266.6" y2="132.1"/>
	<line class="st1" x1="265.3" y1="132.1" x2="255" y2="142.5"/>
	<line class="st1" x1="305.9" y1="91.5" x2="294.1" y2="103.4"/>
	<line class="st1" x1="294.1" y1="107.4" x2="305.9" y2="95.6"/>
	<line class="st1" x1="259" y1="142.5" x2="269.3" y2="132.1"/>
	<line class="st1" x1="268" y1="132.1" x2="257.7" y2="142.5"/>
	<line class="st1" x1="305.9" y1="94.2" x2="294.1" y2="106"/>
	<line class="st1" x1="294.1" y1="110.1" x2="305.9" y2="98.3"/>
	<line class="st1" x1="261.7" y1="142.5" x2="272" y2="132.1"/>
	<line class="st1" x1="270.7" y1="132.1" x2="260.4" y2="142.5"/>
	<line class="st1" x1="305.9" y1="96.9" x2="294.1" y2="108.7"/>
	<line class="st1" x1="294.1" y1="112.8" x2="305.9" y2="100.9"/>
	<line class="st1" x1="264.4" y1="142.5" x2="274.7" y2="132.1"/>
	<line class="st1" x1="273.4" y1="132.1" x2="263" y2="142.5"/>
	<line class="st1" x1="305.9" y1="99.6" x2="294.1" y2="111.4"/>
	<line class="st1" x1="294.1" y1="115.4" x2="305.9" y2="103.6"/>
	<line class="st1" x1="267.1" y1="142.5" x2="277.4" y2="132.1"/>
	<line class="st1" x1="276.1" y1="132.1" x2="265.7" y2="142.5"/>
	<line class="st1" x1="305.9" y1="102.3" x2="294.1" y2="114.1"/>
	<line class="st1" x1="294.1" y1="118.1" x2="305.9" y2="106.3"/>
	<line class="st1" x1="269.8" y1="142.5" x2="280.1" y2="132.1"/>
	<line class="st1" x1="278.8" y1="132.1" x2="268.4" y2="142.5"/>
	<line class="st1" x1="305.9" y1="105" x2="294.1" y2="116.8"/>
	<line class="st1" x1="294.1" y1="120.8" x2="305.9" y2="109"/>
	<line class="st1" x1="272.5" y1="142.5" x2="282.8" y2="132.1"/>
	<line class="st1" x1="281.5" y1="132.1" x2="271.1" y2="142.5"/>
	<line class="st1" x1="305.9" y1="107.7" x2="294.1" y2="119.5"/>
	<line class="st1" x1="294.1" y1="123.5" x2="305.9" y2="111.7"/>
	<line class="st1" x1="275.1" y1="142.5" x2="285.5" y2="132.1"/>
	<line class="st1" x1="284.1" y1="132.1" x2="273.8" y2="142.5"/>
	<line class="st1" x1="305.9" y1="110.4" x2="294.1" y2="122.2"/>
	<line class="st1" x1="294.1" y1="126.2" x2="305.9" y2="114.4"/>
	<line class="st1" x1="277.8" y1="142.5" x2="286.6" y2="133.7"/>
	<line class="st1" x1="286.6" y1="132.3" x2="276.5" y2="142.5"/>
	<line class="st1" x1="305.9" y1="113.1" x2="294.1" y2="124.9"/>
	<line class="st1" x1="335.1" y1="87.9" x2="335.6" y2="87.4"/>
	<line class="st1" x1="294.1" y1="128.9" x2="305.9" y2="117.1"/>
	<line class="st1" x1="280.5" y1="142.5" x2="286.6" y2="136.3"/>
	<line class="st1" x1="286.6" y1="135" x2="279.2" y2="142.5"/>
	<line class="st1" x1="305.9" y1="115.8" x2="294.1" y2="127.6"/>
	<line class="st1" x1="335.1" y1="90.6" x2="338.3" y2="87.4"/>
	<line class="st1" x1="294.1" y1="131.6" x2="305.9" y2="119.8"/>
	<line class="st1" x1="283.2" y1="142.5" x2="286.6" y2="139"/>
	<line class="st1" x1="286.6" y1="137.7" x2="281.9" y2="142.5"/>
	<line class="st1" x1="305.9" y1="118.5" x2="294.1" y2="130.3"/>
	<line class="st1" x1="337" y1="87.4" x2="335.1" y2="89.2"/>
	<line class="st1" x1="335.1" y1="93.3" x2="341" y2="87.4"/>
	<line class="st1" x1="294.1" y1="134.3" x2="305.9" y2="122.5"/>
	<line class="st1" x1="285.9" y1="142.5" x2="286.6" y2="141.7"/>
	<line class="st1" x1="286.6" y1="140.4" x2="284.6" y2="142.5"/>
	<line class="st1" x1="305.9" y1="121.2" x2="294.1" y2="133"/>
	<line class="st1" x1="339.7" y1="87.4" x2="335.1" y2="91.9"/>
	<line class="st1" x1="335.1" y1="95.9" x2="343.7" y2="87.4"/>
	<line class="st1" x1="294.1" y1="137" x2="305.9" y2="125.2"/>
	<line class="st1" x1="305.9" y1="123.9" x2="294.1" y2="135.7"/>
	<line class="st1" x1="342.4" y1="87.4" x2="335.1" y2="94.6"/>
	<line class="st1" x1="336.1" y1="97.7" x2="346.4" y2="87.4"/>
	<line class="st1" x1="294.1" y1="139.7" x2="305.9" y2="127.9"/>
	<line class="st1" x1="305.9" y1="126.6" x2="294.1" y2="138.4"/>
	<line class="st1" x1="345.1" y1="87.4" x2="335.1" y2="97.3"/>
	<line class="st1" x1="338.8" y1="97.7" x2="349.1" y2="87.4"/>
	<line class="st1" x1="294.1" y1="142.4" x2="305.9" y2="130.6"/>
	<line class="st1" x1="305.9" y1="129.2" x2="294.1" y2="141.1"/>
	<line class="st1" x1="347.8" y1="87.4" x2="337.4" y2="97.7"/>
	<line class="st1" x1="341.4" y1="97.7" x2="351.8" y2="87.4"/>
	<line class="st1" x1="296.7" y1="142.5" x2="307" y2="132.1"/>
	<line class="st1" x1="305.9" y1="131.9" x2="295.4" y2="142.5"/>
	<line class="st1" x1="350.5" y1="87.4" x2="340.1" y2="97.7"/>
	<line class="st1" x1="344.1" y1="97.7" x2="354.5" y2="87.4"/>
	<line class="st1" x1="299.4" y1="142.5" x2="309.7" y2="132.1"/>
	<line class="st1" x1="308.4" y1="132.1" x2="298.1" y2="142.5"/>
	<line class="st1" x1="353.1" y1="87.4" x2="342.8" y2="97.7"/>
	<line class="st1" x1="346.8" y1="97.7" x2="357.2" y2="87.4"/>
	<line class="st1" x1="302.1" y1="142.5" x2="312.4" y2="132.1"/>
	<line class="st1" x1="311.1" y1="132.1" x2="300.7" y2="142.5"/>
	<line class="st1" x1="355.8" y1="87.4" x2="345.5" y2="97.7"/>
	<line class="st1" x1="349.5" y1="97.7" x2="359.9" y2="87.4"/>
	<line class="st1" x1="304.8" y1="142.5" x2="315.1" y2="132.1"/>
	<line class="st1" x1="313.8" y1="132.1" x2="303.4" y2="142.5"/>
	<line class="st1" x1="358.5" y1="87.4" x2="348.2" y2="97.7"/>
	<line class="st1" x1="352.2" y1="97.7" x2="362.5" y2="87.4"/>
	<line class="st1" x1="307.5" y1="142.5" x2="317.8" y2="132.1"/>
	<line class="st1" x1="316.5" y1="132.1" x2="306.1" y2="142.5"/>
	<line class="st1" x1="361.2" y1="87.4" x2="350.9" y2="97.7"/>
	<line class="st1" x1="354.9" y1="97.7" x2="365.2" y2="87.4"/>
	<line class="st1" x1="310.2" y1="142.5" x2="320.5" y2="132.1"/>
	<line class="st1" x1="319.2" y1="132.1" x2="308.8" y2="142.5"/>
	<line class="st1" x1="363.9" y1="87.4" x2="353.6" y2="97.7"/>
	<line class="st1" x1="357.6" y1="97.7" x2="367.9" y2="87.4"/>
	<line class="st1" x1="312.8" y1="142.5" x2="323.2" y2="132.1"/>
	<line class="st1" x1="321.8" y1="132.1" x2="311.5" y2="142.5"/>
	<line class="st1" x1="366.6" y1="87.4" x2="356.3" y2="97.7"/>
	<line class="st1" x1="360.3" y1="97.7" x2="370.6" y2="87.4"/>
	<line class="st1" x1="315.5" y1="142.5" x2="325.9" y2="132.1"/>
	<line class="st1" x1="324.5" y1="132.1" x2="314.2" y2="142.5"/>
	<line class="st1" x1="369.3" y1="87.4" x2="359" y2="97.7"/>
	<line class="st1" x1="355.9" y1="104.8" x2="373.3" y2="87.4"/>
	<line class="st1" x1="318.2" y1="142.5" x2="328.6" y2="132.1"/>
	<line class="st1" x1="327.2" y1="132.1" x2="316.9" y2="142.5"/>
	<line class="st1" x1="372" y1="87.4" x2="359.7" y2="99.7"/>
	<line class="st1" x1="348.4" y1="115" x2="376" y2="87.4"/>
	<line class="st1" x1="320.9" y1="142.5" x2="329.2" y2="134.2"/>
	<line class="st1" x1="329.2" y1="132.9" x2="319.6" y2="142.5"/>
	<line class="st1" x1="374.7" y1="87.4" x2="352.1" y2="110"/>
	<line class="st1" x1="340.8" y1="125.3" x2="376.5" y2="89.6"/>
	<line class="st1" x1="323.6" y1="142.5" x2="329.2" y2="136.9"/>
	<line class="st1" x1="329.2" y1="135.6" x2="322.3" y2="142.5"/>
	<line class="st1" x1="376.5" y1="88.3" x2="344.5" y2="120.3"/>
	<line class="st1" x1="335.1" y1="133.6" x2="376.5" y2="92.3"/>
	<line class="st1" x1="326.3" y1="142.5" x2="329.2" y2="139.6"/>
	<line class="st1" x1="329.2" y1="138.3" x2="325" y2="142.5"/>
	<line class="st1" x1="376.5" y1="90.9" x2="336.9" y2="130.5"/>
	<line class="st1" x1="335.1" y1="136.3" x2="376.5" y2="95"/>
	<line class="st1" x1="329" y1="142.5" x2="329.2" y2="142.3"/>
	<line class="st1" x1="329.2" y1="141" x2="327.7" y2="142.5"/>
	<line class="st1" x1="376.5" y1="93.6" x2="335.1" y2="135"/>
	<line class="st1" x1="335.1" y1="139" x2="374.1" y2="100.1"/>
	<line class="st1" x1="376.5" y1="96.3" x2="335.1" y2="137.7"/>
	<line class="st1" x1="335.1" y1="141.7" x2="366.6" y2="110.3"/>
	<line class="st1" x1="370.3" y1="105.3" x2="335.1" y2="140.4"/>
	<line class="st1" x1="337.1" y1="142.5" x2="359.1" y2="120.5"/>
	<line class="st1" x1="362.8" y1="115.5" x2="335.8" y2="142.5"/>
	<line class="st1" x1="339.8" y1="142.5" x2="351.6" y2="130.7"/>
	<line class="st1" x1="355.3" y1="125.7" x2="338.5" y2="142.5"/>
	<line class="st1" x1="342.5" y1="142.5" x2="352.8" y2="132.1"/>
	<line class="st1" x1="351.5" y1="132.1" x2="341.1" y2="142.5"/>
	<line class="st1" x1="345.2" y1="142.5" x2="355.5" y2="132.1"/>
	<line class="st1" x1="354.2" y1="132.1" x2="343.8" y2="142.5"/>
	<line class="st1" x1="347.9" y1="142.5" x2="358.2" y2="132.1"/>
	<line class="st1" x1="356.9" y1="132.1" x2="346.5" y2="142.5"/>
	<line class="st1" x1="350.5" y1="142.5" x2="360.9" y2="132.1"/>
	<line class="st1" x1="359.5" y1="132.1" x2="349.2" y2="142.5"/>
	<line class="st1" x1="353.2" y1="142.5" x2="363.6" y2="132.1"/>
	<line class="st1" x1="362.2" y1="132.1" x2="351.9" y2="142.5"/>
	<line class="st1" x1="355.9" y1="142.5" x2="366.3" y2="132.1"/>
	<line class="st1" x1="364.9" y1="132.1" x2="354.6" y2="142.5"/>
	<line class="st1" x1="358.6" y1="142.5" x2="368.9" y2="132.1"/>
	<line class="st1" x1="367.6" y1="132.1" x2="357.3" y2="142.5"/>
	<line class="st1" x1="361.3" y1="142.5" x2="371.6" y2="132.1"/>
	<line class="st1" x1="370.3" y1="132.1" x2="360" y2="142.5"/>
	<line class="st1" x1="364" y1="142.5" x2="374.3" y2="132.1"/>
	<line class="st1" x1="373" y1="132.1" x2="362.7" y2="142.5"/>
	<line class="st1" x1="366.7" y1="142.5" x2="377" y2="132.1"/>
	<line class="st1" x1="375.7" y1="132.1" x2="365.4" y2="142.5"/>
	<line class="st1" x1="369.4" y1="142.5" x2="377.1" y2="134.8"/>
	<line class="st1" x1="377.1" y1="133.5" x2="368.1" y2="142.5"/>
	<line class="st1" x1="372.1" y1="142.5" x2="377.1" y2="137.5"/>
	<line class="st1" x1="377.1" y1="136.1" x2="370.8" y2="142.5"/>
	<line class="st1" x1="374.8" y1="142.5" x2="377.1" y2="140.2"/>
	<line class="st1" x1="377.1" y1="138.8" x2="373.5" y2="142.5"/>
	<line class="st1" x1="377.1" y1="141.5" x2="376.2" y2="142.5"/>
</g>
</svg>
