<svg xmlns="http://www.w3.org/2000/svg" viewBox="0 0 200 80"><defs><style>.cls-1{fill:#fff;}.cls-2{fill:#ffd10d;}.cls-3{fill:#32b5ae;}.cls-4{fill:#ea5197;}.cls-5{fill:#1ea8e0;}.cls-6{fill:#94c243;}.cls-7{fill:#0d7aa2;}.cls-8{fill:#010101;}.cls-9{fill:none;}</style></defs><title>elastic-logo</title><g id="Calque_2" data-name="Calque 2"><path class="cls-1" d="M68.81,47.33a13.54,13.54,0,0,0-9-12.77A19.46,19.46,0,0,0,40.76,11.42,19.36,19.36,0,0,0,25,19.48,10.33,10.33,0,0,0,8.38,27.66,10.7,10.7,0,0,0,9,31.27,13.62,13.62,0,0,0,9,56.9a19.4,19.4,0,0,0,34.8,15,10.17,10.17,0,0,0,6.31,2.21A10.33,10.33,0,0,0,60.43,63.79a10.7,10.7,0,0,0-.64-3.61,13.78,13.78,0,0,0,9-12.86"/><path class="cls-2" d="M27.06,41l15.07,6.87L57.32,34.5a15.92,15.92,0,0,0,.32-3.35,17,17,0,0,0-31-9.6L24.12,34.67Z"/><path class="cls-3" d="M11.46,56.9a16.47,16.47,0,0,0-.32,3.4,17,17,0,0,0,31.13,9.57l2.5-13.06-3.35-6.4L26.3,43.51Z"/><path class="cls-4" d="M11.38,30.83,21.7,33.27,24,21.55A8.16,8.16,0,0,0,10.88,28a7.64,7.64,0,0,0,.49,2.79"/><path class="cls-5" d="M10.47,33.27A11.4,11.4,0,0,0,10,54.75L24.47,41.65,21.82,36Z"/><path class="cls-6" d="M44.89,69.85a8.14,8.14,0,0,0,12.57-9.28l-10.3-2.41Z"/><path class="cls-7" d="M47,55.47l11.35,2.65a11.38,11.38,0,0,0,.49-21.44L44,49.68Z"/><path class="cls-8" d="M96.22,59.58l1.37-.15.09,2.79a70,70,0,0,1-9.25.76q-5.11,0-7.24-3c-1.43-2-2.12-5.06-2.12-9.22q0-12.48,9.92-12.48c3.2,0,5.59.9,7.16,2.68s2.36,4.6,2.36,8.41l-.2,2.71H82.63c0,2.62.47,4.57,1.43,5.82s2.59,1.89,4.95,1.89A66.67,66.67,0,0,0,96.22,59.58ZM94.94,49.3c0-2.91-.47-5-1.4-6.17A5.41,5.41,0,0,0,89,41.33a5.87,5.87,0,0,0-4.74,1.89c-1,1.25-1.6,3.29-1.63,6.08H94.94Z"/><path class="cls-8" d="M103.46,62.8V31.59H107V62.8Z"/><path class="cls-8" d="M129.42,46v12c0,1.19,2.94,1.13,2.94,1.13l-.17,3.14c-2.5,0-4.57.2-5.82-1A20.86,20.86,0,0,1,117.84,63a6.37,6.37,0,0,1-5-1.86,7.56,7.56,0,0,1-1.72-5.32c0-2.3.58-4,1.75-5.09a9.23,9.23,0,0,1,5.5-2l7.45-.7V46a4.78,4.78,0,0,0-1-3.46,3.87,3.87,0,0,0-2.85-1H112.6V38.31h9.11c2.68,0,4.63.61,5.85,1.86S129.42,43.34,129.42,46Zm-14.61,9.69c0,2.91,1.19,4.36,3.61,4.36a19,19,0,0,0,6.34-1.08l1.08-.38V50.73l-7,.67a4.52,4.52,0,0,0-3.08,1.22A4.43,4.43,0,0,0,114.81,55.65Z"/><path class="cls-8" d="M143.29,41.51c-3.43,0-5.18,1.19-5.18,3.61a2.53,2.53,0,0,0,1.19,2.36,19.89,19.89,0,0,0,5.41,1.43c2.82.49,4.8,1.16,6,2.07s1.75,2.53,1.75,5a6.14,6.14,0,0,1-2.36,5.35c-1.57,1.13-3.84,1.72-6.87,1.72-1.95,0-8.5-.73-8.5-.73l.2-3.08c3.75.35,6.49.64,8.32.64a8.17,8.17,0,0,0,4.19-.87A3.18,3.18,0,0,0,148.88,56a3,3,0,0,0-1.22-2.79,17.79,17.79,0,0,0-5.41-1.4c-2.79-.44-4.77-1.08-5.94-1.95s-1.75-2.44-1.75-4.74A5.77,5.77,0,0,1,137,40a10.61,10.61,0,0,1,6.08-1.66c1.92,0,8.61.49,8.61.49v3.05C148.21,41.77,145.33,41.51,143.29,41.51Z"/><path class="cls-8" d="M169.6,41.89h-7.54V53.23a15.8,15.8,0,0,0,.58,5.35c.41.84,1.34,1.28,2.82,1.28l4.22-.29.23,2.94a32.32,32.32,0,0,1-4.83.52c-2.47,0-4.16-.61-5.12-1.8s-1.43-3.49-1.43-6.87V41.89h-3.38V38.8h3.38V31.56h3.52V38.8h7.54Z"/><path class="cls-8" d="M174.54,35.78V31.64h3.55v4.13Zm0,27v-24h3.55v24Z"/><path class="cls-8" d="M193.51,38.34a42,42,0,0,1,5.32.58l1.13.15-.15,2.88a54.5,54.5,0,0,0-5.59-.44c-2.68,0-4.51.64-5.47,1.92s-1.45,3.67-1.45,7.13.44,5.88,1.34,7.24,2.76,2,5.62,2l5.59-.44.15,2.94a50.14,50.14,0,0,1-6.6.67c-3.7,0-6.26-1-7.65-2.85s-2.12-5.09-2.12-9.6.76-7.68,2.27-9.49S190,38.34,193.51,38.34Z"/></g><g id="Calque_1" data-name="Calque 1"><rect class="cls-9" width="200" height="80"/></g></svg>