<svg xmlns="http://www.w3.org/2000/svg" viewBox="0 0 128 87"><defs><style>.cls-1{fill:none;}.cls-2{fill:#6b215f;}.cls-3{fill:#434762;}</style></defs><title>logo-agile</title><g id="Calque_2" data-name="Calque 2"><rect class="cls-1" width="128" height="87"/></g><g id="Calque_1" data-name="Calque 1"><path class="cls-2" d="M47.26,47.24h-5v7.18H55.59A19.88,19.88,0,0,1,47.26,47.24Z"/><path class="cls-2" d="M64,47.24a10.79,10.79,0,1,1,5.94-1.8h9.6a18,18,0,1,0-15.54,9h7.18L74,50.83l-2.87-3.59Z"/><polygon class="cls-3" points="71.14 54.42 85.75 54.42 85.75 47.23 71.14 47.23 74.01 50.83 71.14 54.42"/><path class="cls-3" d="M50.27,65.43h-5L44.14,68.5H42.49L47.1,56.57h1.38L53,68.5H51.38Zm-4.5-1.35h4l-2-5.43h0Z"/><path class="cls-3" d="M62.55,66.75A3.82,3.82,0,0,1,61.07,68a5.88,5.88,0,0,1-2.72.55,4.84,4.84,0,0,1-3.53-1.37,4.73,4.73,0,0,1-1.4-3.54V61.48a4.92,4.92,0,0,1,1.3-3.54,4.43,4.43,0,0,1,3.36-1.37,4.78,4.78,0,0,1,3.22,1,3.34,3.34,0,0,1,1.2,2.6l0,0H60.93a2.5,2.5,0,0,0-.79-1.71,2.92,2.92,0,0,0-2.07-.67,2.7,2.7,0,0,0-2.2,1A4,4,0,0,0,55,61.46v2.13A3.74,3.74,0,0,0,56,66.2a3.07,3.07,0,0,0,2.38,1A4.36,4.36,0,0,0,60,67a2.33,2.33,0,0,0,.93-.61V63.81H58.32V62.55h4.23Z"/><path class="cls-3" d="M66.22,68.5H64.6V56.57h1.62Z"/><path class="cls-3" d="M70.87,67.23h5.64V68.5H69.26V56.57h1.61Z"/><path class="cls-3" d="M84.91,63H79.45v4.26h6.3V68.5H77.84V56.57h7.82v1.27H79.45V61.7h5.46Z"/></g></svg>