<?xml version="1.0" encoding="utf-8"?>
<!-- Generator: Adobe Illustrator 20.0.0, SVG Export Plug-In . SVG Version: 6.00 Build 0)  -->
<svg version="1.1" id="Calque_1" xmlns="http://www.w3.org/2000/svg" xmlns:xlink="http://www.w3.org/1999/xlink" x="0px" y="0px"
	 viewBox="0 0 200 80" style="enable-background:new 0 0 200 80;" xml:space="preserve">
<style type="text/css">
	.st0{fill:#B52E31;}
	.st1{fill:#E23237;}
	.st2{fill:#FFFFFF;}
</style>
<title>angular-logo</title>
<g>
	<g>
		<path class="st0" d="M58.8,66V41.4H62l15,19.8V41.4h3V66h-3.2l-15-20v20H58.8z M104.5,65c-2,0.7-4.1,1.1-6.4,1.1
			c-8.9,0-13.4-4.3-13.4-12.8c0-8.1,4.3-12.1,12.9-12.1c2.5,0,4.8,0.4,6.9,1V45c-2.1-0.8-4.3-1.2-6.5-1.2c-6.7,0-10.1,3.2-10.1,9.5
			c0,6.8,3.3,10.2,9.9,10.2c1.1,0,2.2-0.2,3.5-0.4v-8.2h3.2V65L104.5,65z M109.6,56.5V41.4h3.2v15.1c0,4.7,2.3,7.1,7.1,7.1
			c4.7,0,7.1-2.4,7.1-7.1V41.4h3.2v15.1c0,6.4-3.4,9.7-10.2,9.7S109.6,63,109.6,56.5z M138.9,41.4v22h12.9V66h-16.1V41.4H138.9
			L138.9,41.4z M156.4,66H153l12.2-27.9L177.5,66H174l-3.2-7.7h-8.1l0.9-2.6h6.2l-4.6-11.1L156.4,66L156.4,66z M180.9,66V41.4h10.5
			c4.7,0,7,2,7,5.9c0,3.2-2.3,5.6-6.9,7.1L200,66h-4.2L188,55v-2.1c4.7-0.7,7.1-2.5,7.1-5.4c0-2.3-1.3-3.4-3.9-3.4h-7v22L180.9,66
			L180.9,66z"/>
	</g>
	<path class="st1" d="M0,34.8l25.2-9l25.9,8.8L46.9,68L25.2,80L3.9,68.2L0,34.8z"/>
	<path class="st0" d="M51.1,34.7l-25.9-8.8V80l21.7-12L51.1,34.7L51.1,34.7z"/>
	<path class="st2" d="M25.2,32.2L9.5,67.1l5.9-0.1l3.2-7.9h14l3.4,8l5.6,0.1L25.2,32.2L25.2,32.2z M25.3,43.4l5.3,11.1h-10
		L25.3,43.4z"/>
</g>
</svg>
