<svg xmlns="http://www.w3.org/2000/svg" viewBox="0 0 128 87"><defs><style>.cls-1{fill:none;}.cls-2{fill:#6b215f;}</style></defs><title>logo-xebicon</title><g id="Calque_2" data-name="Calque 2"><rect class="cls-1" width="128" height="87"/></g><g id="Calque_1" data-name="Calque 1"><path class="cls-2" d="M44.87,37.14a6.06,6.06,0,0,0-4.53,1.74,6.5,6.5,0,0,0-1.84,4.62A6.21,6.21,0,0,0,45,49.86a6,6,0,0,0,5.7-4.18H47.55a3.29,3.29,0,0,1-2.75,1.45,3,3,0,0,1-3.35-2.7H51V43.5a6.39,6.39,0,0,0-1.64-4.66A6,6,0,0,0,44.87,37.14ZM41.64,42.2c0-1.55,1.95-2.38,3-2.38a2.93,2.93,0,0,1,3.27,2.38Z"/><path class="cls-2" d="M59.67,37.14a8,8,0,0,0-4.23,1.14V33.58H52.5V49.52h2.94v-.65a7.56,7.56,0,0,0,4.17,1A5.83,5.83,0,0,0,64,48.06a6.36,6.36,0,0,0,1.75-4.6A6.24,6.24,0,0,0,64,39,5.76,5.76,0,0,0,59.67,37.14Zm1.68,9a3.27,3.27,0,0,1-2.44,1,3.34,3.34,0,0,1-2.51-1,3.5,3.5,0,0,1-1-2.58,3.46,3.46,0,0,1,1-2.54,3.42,3.42,0,0,1,2.54-1,3.2,3.2,0,0,1,2.43,1,3.59,3.59,0,0,1,1,2.59A3.42,3.42,0,0,1,61.35,46.13Z"/><rect class="cls-2" x="66.97" y="37.48" width="2.98" height="12.04"/><rect class="cls-2" x="66.97" y="33.62" width="2.98" height="2.83"/><polygon class="cls-2" points="44.46 31.46 37.07 31.46 29.23 39.4 21.39 31.46 14 31.46 25.54 43.5 14 55.54 21.39 55.54 29.23 47.6 37.07 55.54 44.46 55.54 32.93 43.5 44.46 31.46"/><path class="cls-2" d="M95.39,37.27a6.3,6.3,0,1,0,6.3,6.3A6.3,6.3,0,0,0,95.39,37.27Zm0,9.84a3.55,3.55,0,1,1,3.55-3.55A3.55,3.55,0,0,1,95.39,47.11Z"/><path class="cls-2" d="M80.57,47.11A5.39,5.39,0,1,1,84.47,38H88.4a8.68,8.68,0,1,0,0,7.45H84.47A5.37,5.37,0,0,1,80.57,47.11Z"/><path class="cls-2" d="M110.5,41.86a2.3,2.3,0,1,0-4.6,0v7.66h-3v-12h3v.71a4.29,4.29,0,0,1,3.43-1.38A4.55,4.55,0,0,1,114,41.64v7.88h-3.5Z"/></g></svg>