<svg id="Calque_1" data-name="Calque 1" xmlns="http://www.w3.org/2000/svg" viewBox="0 0 100.27 22.68"><defs><style>.cls-1{fill:#fff;}</style></defs><title>logo-vismavie</title><path class="cls-1" d="M18.5,4.15a16.59,16.59,0,0,1,1.59-2.36l.2-.26a.47.47,0,0,0,.11-.29.78.78,0,0,0-.31-.6,1,1,0,0,0-.65-.26.55.55,0,0,0-.35.14,2.59,2.59,0,0,0-.34.34q-.17.2-.31.4l-.23.35q-1,1.54-2,3.22L14.35,8.11,12.7,11q-.82,1.43-1.62,2.91l-.85,1.54a8.37,8.37,0,0,0-.66,1.6A49.3,49.3,0,0,0,7.7,10.53,35.15,35.15,0,0,0,4.79,4.41Q4.42,3.79,4,3.22a8.83,8.83,0,0,0-.88-1.09l-.6-.59a1,1,0,0,0-.69-.34.88.88,0,0,0-.51.19,2.58,2.58,0,0,0-.49.46,3.27,3.27,0,0,0-.39.57A1.17,1.17,0,0,0,.31,3a.83.83,0,0,0,.26.51L1,3.91a7.92,7.92,0,0,1,.93,1.36l.77,1.45a60.35,60.35,0,0,1,2.82,6.63,38.81,38.81,0,0,1,1.8,6.94,2.93,2.93,0,0,1,.08.56,2.19,2.19,0,0,0,.11.59,1.16,1.16,0,0,0,.28.46.75.75,0,0,0,.56.19,1.67,1.67,0,0,0,.82-.15,1,1,0,0,0,.39-.4,1.9,1.9,0,0,0,.17-.6,4.6,4.6,0,0,1,.17-.76,6.54,6.54,0,0,1,.39-1q.26-.57.57-1.16t.62-1.14l.56-1q1.23-2.31,2.5-4.61t2.59-4.58Q17.8,5.4,18.5,4.15Z"/><path class="cls-1" d="M18.63,6.49a1.76,1.76,0,0,0-.42,1.11,1.29,1.29,0,0,0,.28.82.92.92,0,0,0,.77.35,1.33,1.33,0,0,0,1-.51,1.7,1.7,0,0,0,.43-1.13,1.25,1.25,0,0,0-.29-.82A1,1,0,0,0,19.66,6,1.27,1.27,0,0,0,18.63,6.49Z"/><path class="cls-1" d="M81,10.47a.37.37,0,0,0,.08-.25.61.61,0,0,0-.28-.51.94.94,0,0,0-.56-.2.57.57,0,0,0-.46.23l-.34.42A38.64,38.64,0,0,0,77.12,14Q76.06,16,75,17.9A17.82,17.82,0,0,0,74.46,16q-.34-1-.79-2a21.52,21.52,0,0,0-1-1.94,8,8,0,0,0-1.14-1.57,2.3,2.3,0,0,0-.4-.37.88.88,0,0,0-.52-.15,1.16,1.16,0,0,0-.8.4,1.16,1.16,0,0,0-.4.8.52.52,0,0,0,.15.35l.28.29A8.58,8.58,0,0,1,71,13.57c.34.69.66,1.42,1,2.18l-.33.49q-.28.43-.83,1.14a16.57,16.57,0,0,1-1.2,1.37,10.44,10.44,0,0,1-1.33,1.16A2.17,2.17,0,0,1,67,20.4a.62.62,0,0,1-.57-.39,3.15,3.15,0,0,1-.29-.89,6.78,6.78,0,0,1-.11-1q0-.49,0-.74a14.48,14.48,0,0,1,.11-1.71A9.66,9.66,0,0,1,66.49,14l.34-.89a2.63,2.63,0,0,0,.22-.89.38.38,0,0,0-.23-.4,1.28,1.28,0,0,0-.48-.09.8.8,0,0,0-.66.29,3.07,3.07,0,0,0-.39.63q-.15.31-.45.94t-.69,1.37q-.4.74-.85,1.53a14.76,14.76,0,0,1-.91,1.42,8.14,8.14,0,0,1-.89,1,1.2,1.2,0,0,1-.77.42.32.32,0,0,1-.34-.28,2.18,2.18,0,0,1-.06-.46A7.7,7.7,0,0,1,61,15.3a9.92,9.92,0,0,1,1.91-2.76,10.14,10.14,0,0,1,1.43-1.25q.76-.54,1.59-1a1.11,1.11,0,0,0,.22-.14.28.28,0,0,0,.09-.23.88.88,0,0,0-.34-.65,1,1,0,0,0-.68-.31,4.32,4.32,0,0,0-2.61.93,10.07,10.07,0,0,0-2.22,2.3,13.05,13.05,0,0,0-1.56,2.91,8.84,8.84,0,0,0-.55,2.13l-.59.69a14.8,14.8,0,0,1-1.2,1.22,9.44,9.44,0,0,1-1.31,1,2.3,2.3,0,0,1-1.19.42.62.62,0,0,1-.48-.19,1.12,1.12,0,0,1-.25-.43,2.17,2.17,0,0,1-.09-.54q0-.29,0-.51a29.46,29.46,0,0,1,.22-3.56,29.51,29.51,0,0,0,.22-3.56,3.74,3.74,0,0,0-.11-.88,2.76,2.76,0,0,0-.34-.82,2,2,0,0,0-.6-.62,1.52,1.52,0,0,0-.86-.25,2.37,2.37,0,0,0-1.37.46,6.91,6.91,0,0,0-1.23,1.11A15,15,0,0,0,48,12.1l-.86,1.23q-.62.89-1.25,1.77t-1.19,1.8l-.2.32q-.14.23-.23.23s-.07,0-.09-.09a.49.49,0,0,1,0-.12,3.68,3.68,0,0,1-.12-1v-1q0-.89,0-1.79t0-1.79a7.12,7.12,0,0,0,0-.74,3.78,3.78,0,0,0-.19-.83,2,2,0,0,0-.39-.68.86.86,0,0,0-.68-.28,2.19,2.19,0,0,0-1.36.63A11.14,11.14,0,0,0,40,11.33q-.69.86-1.28,1.76t-.93,1.39q.15-.89.37-1.79A12,12,0,0,1,38.75,11l.31-.74.37-.88a8.16,8.16,0,0,0,.31-.88,2.77,2.77,0,0,0,.12-.74.87.87,0,0,0-.15-.54.58.58,0,0,0-.49-.2,3.41,3.41,0,0,0-1.36.31,2.11,2.11,0,0,0-1,.93,9.14,9.14,0,0,0-.46,1.3q-.28.93-.56,2.14t-.56,2.58q-.28,1.36-.48,2.61l-.15,1c-.37.42-.76.83-1.19,1.24a12.67,12.67,0,0,1-1.48,1.2,2.18,2.18,0,0,1-1.3.48,3.64,3.64,0,0,0,.54-1.14,4.65,4.65,0,0,0,.17-1.23A6.3,6.3,0,0,0,31,16.39a12.78,12.78,0,0,0-.77-1.87q-.46-.91-1-1.8a17.66,17.66,0,0,1-.86-1.79,15,15,0,0,0,.49-1.5,5.88,5.88,0,0,0,.22-1.56,3.2,3.2,0,0,0,0-.52A2.49,2.49,0,0,0,29,6.81a1.12,1.12,0,0,0-.31-.43.72.72,0,0,0-.48-.17,1.41,1.41,0,0,0-1,.4,3.31,3.31,0,0,0-.71,1A5.7,5.7,0,0,0,26,8.74a4.51,4.51,0,0,0-.15,1.08,5,5,0,0,0,.28,1.63,18.59,18.59,0,0,1-1.64,3.69l-.12.16q-.31.49-.88,1.33a16.85,16.85,0,0,1-1.26,1.62,10.89,10.89,0,0,1-1.42,1.36,2.23,2.23,0,0,1-1.34.57.69.69,0,0,1-.62-.34,2.56,2.56,0,0,1-.32-.8,4.73,4.73,0,0,1-.12-.93q0-.46,0-.74a13.37,13.37,0,0,1,.28-2.75q.09-.34.25-.79l.31-.89q.15-.45.26-.86a3,3,0,0,0,.11-.72q0-.68-.71-.68a1.8,1.8,0,0,0-1.47.57,4.25,4.25,0,0,0-.76,1.4,17.19,17.19,0,0,0-.45,1.87,10.48,10.48,0,0,0-.2,1.93q0,.68.09,1.59a6.81,6.81,0,0,0,.4,1.73,4.08,4.08,0,0,0,.85,1.39,1.92,1.92,0,0,0,1.47.57,3.2,3.2,0,0,0,1.7-.54,10.78,10.78,0,0,0,1.68-1.31,15.78,15.78,0,0,0,1.5-1.62l.08-.11.07-.06a7.26,7.26,0,0,0,.91-1.14q.45-.68.85-1.42t.72-1.5q.32-.76.54-1.37A13.22,13.22,0,0,1,27.67,14a16.43,16.43,0,0,1,.69,1.56,13.94,13.94,0,0,1,.51,1.6,6.25,6.25,0,0,1,.2,1.51,2.9,2.9,0,0,1-.63,1.93,2.3,2.3,0,0,1-1.87.76,5,5,0,0,1-1.14-.12,3.34,3.34,0,0,1-1-.46l-.26-.15a.59.59,0,0,0-.29-.06q-.49,0-.49.46a.71.71,0,0,0,.09.37,1.62,1.62,0,0,0,.25.31,3.24,3.24,0,0,0,1.71.83,11,11,0,0,0,1.93.18,11.22,11.22,0,0,0,3-.39,8.91,8.91,0,0,0,2.5-1.13A10.14,10.14,0,0,0,34.31,20c0,.21,0,.39,0,.53a.76.76,0,0,0,.15.48.55.55,0,0,0,.46.2.89.89,0,0,0,.69-.29,2.51,2.51,0,0,0,.42-.63q.15-.37.59-1.17t1-1.82q.59-1,1.25-2.1t1.3-2a13.43,13.43,0,0,1,1.17-1.47q.54-.57.85-.57a.25.25,0,0,1,.28.25,3.47,3.47,0,0,1,0,.4v2.9q0,1,.06,2.1t.19,2a7.18,7.18,0,0,0,.34,1.5q.22.59.52.59a.74.74,0,0,0,.49-.15,1.66,1.66,0,0,0,.34-.4q.25-.37.69-1.19t1-1.84q.59-1,1.25-2.11t1.3-2a12.29,12.29,0,0,1,1.19-1.47,1.51,1.51,0,0,1,.93-.57.34.34,0,0,1,.29.15,1,1,0,0,1,.15.35,2.77,2.77,0,0,1,.06.42c0,.14,0,.26,0,.34q0,1.42-.14,2.81T51.06,18q0,.56,0,1.26a5.37,5.37,0,0,0,.26,1.36A2.8,2.8,0,0,0,52,21.73a1.57,1.57,0,0,0,1.19.43,3.62,3.62,0,0,0,1.74-.52,12.22,12.22,0,0,0,1.85-1.28,16.41,16.41,0,0,0,1.58-1.5,4.33,4.33,0,0,0,.27,1,2.27,2.27,0,0,0,.57.83,1.32,1.32,0,0,0,.93.34,2.12,2.12,0,0,0,1.25-.46,8.13,8.13,0,0,0,1.22-1.11,13.08,13.08,0,0,0,1.06-1.34l.79-1.16a10.7,10.7,0,0,0,0,1.37,6.63,6.63,0,0,0,.31,1.57,3.75,3.75,0,0,0,.71,1.3,1.54,1.54,0,0,0,1.23.54,3.27,3.27,0,0,0,1.62-.46,8.08,8.08,0,0,0,1.54-1.14,13.76,13.76,0,0,0,1.34-1.45q.62-.77,1-1.36l.15-.23c.16.46.31.91.44,1.37a16.57,16.57,0,0,1,.48,2.07,6.31,6.31,0,0,0,.2.82q.11.32.72.32t.69-.31a3.72,3.72,0,0,0,.23-.74,5,5,0,0,1,.45-1.06q.39-.76.94-1.76t1.2-2.13q.65-1.13,1.26-2.13l1.11-1.79a13.11,13.11,0,0,1,.74-1.09Z"/><path class="cls-1" d="M84,8.77a1.33,1.33,0,0,0,1-.51,1.7,1.7,0,0,0,.43-1.13,1.25,1.25,0,0,0-.29-.82A1,1,0,0,0,84.37,6a1.27,1.27,0,0,0-1,.52,1.76,1.76,0,0,0-.42,1.11,1.29,1.29,0,0,0,.28.82A.92.92,0,0,0,84,8.77Z"/><path class="cls-1" d="M99.81,15.45a.52.52,0,0,0-.29-.09.67.67,0,0,0-.56.28,6.3,6.3,0,0,0-.37.52,14,14,0,0,1-1.08,1.54,9,9,0,0,1-1.36,1.37,7.18,7.18,0,0,1-1.6,1,4.48,4.48,0,0,1-1.85.39,1.82,1.82,0,0,1-1.54-.6,2.66,2.66,0,0,1-.46-1.66,6.16,6.16,0,0,1,.15-1.3A5.26,5.26,0,0,0,92.39,16a11.15,11.15,0,0,0,1.56-1.56,10,10,0,0,0,1.2-1.82,3.86,3.86,0,0,0,.48-1.72,2,2,0,0,0-.45-1.33A1.59,1.59,0,0,0,93.9,9a3.27,3.27,0,0,0-2.27,1,8.89,8.89,0,0,0-1.77,2.33,13.32,13.32,0,0,0-1.14,2.85c-.12.43-.2.82-.27,1.19l-.21.31A16.85,16.85,0,0,1,87,18.26a10.88,10.88,0,0,1-1.42,1.36,2.23,2.23,0,0,1-1.34.57.69.69,0,0,1-.62-.34,2.56,2.56,0,0,1-.32-.8,4.73,4.73,0,0,1-.12-.93q0-.46,0-.74a13.37,13.37,0,0,1,.28-2.75q.09-.34.25-.79L84,13q.15-.45.26-.86a3,3,0,0,0,.11-.72q0-.68-.71-.68a1.8,1.8,0,0,0-1.47.57,4.25,4.25,0,0,0-.76,1.4A17.19,17.19,0,0,0,81,14.52a10.48,10.48,0,0,0-.2,1.93q0,.68.09,1.59a6.81,6.81,0,0,0,.4,1.73,4.08,4.08,0,0,0,.85,1.39,1.92,1.92,0,0,0,1.47.57,3.2,3.2,0,0,0,1.7-.54,10.78,10.78,0,0,0,1.68-1.31,15.79,15.79,0,0,0,1.41-1.52,6.41,6.41,0,0,0,.15.9,3.72,3.72,0,0,0,.6,1.33,3.19,3.19,0,0,0,1.06.93,3.24,3.24,0,0,0,1.57.35,7.14,7.14,0,0,0,2.44-.42,9.17,9.17,0,0,0,2.19-1.14,10.88,10.88,0,0,0,1.87-1.67,11.4,11.4,0,0,0,1.43-2,2.12,2.12,0,0,0,.22-.43,1.61,1.61,0,0,0,.06-.49A.28.28,0,0,0,99.81,15.45Zm-8.53-1A15.59,15.59,0,0,1,92,12.64a9.86,9.86,0,0,1,.86-1.55q.46-.67.93-.67a.41.41,0,0,1,.42.23,1.13,1.13,0,0,1,.11.48,2.84,2.84,0,0,1-.34,1.29A8.4,8.4,0,0,1,92,14.88a8.82,8.82,0,0,1-1.08.82A9.86,9.86,0,0,1,91.28,14.41Z"/></svg>