<?xml version="1.0" encoding="utf-8"?>
<!-- Generator: Adobe Illustrator 20.0.0, SVG Export Plug-In . SVG Version: 6.00 Build 0)  -->
<svg version="1.1" id="Calque_1" xmlns="http://www.w3.org/2000/svg" xmlns:xlink="http://www.w3.org/1999/xlink" x="0px" y="0px"
	 viewBox="0 0 200 80" style="enable-background:new 0 0 200 80;" xml:space="preserve">
<style type="text/css">
	.st0{fill:#E83088;}
	.st1{fill:#CC157E;}
	.st2{fill:#B41A77;}
	.st3{fill:#9C2274;}
	.st4{fill:#902476;}
	.st5{fill:#79337B;}
	.st6{fill:#6E4F9B;}
	.st7{fill:url(#Shape-8_1_);}
	.st8{fill:#C51F7E;}
</style>
<title>aurelia-logo</title>
<g id="Calque_2">
	<g id="logo">
		<g id="Aurelia_Logo_Color_RGB">
			<g id="Full-Logo">
				<g id="Aurelia">
					<g id="A">
						<path id="Shape" class="st0" d="M76.7,57.4h0.5c0.3,0,0.7,0,1-0.1c2.2-0.3,4.3-1.3,5.9-2.9c0.8-0.8,1.6-1.7,2.1-2.8
							c0.5-0.9,0.8-1.8,1-2.8c0.3-1.2,0.3-2.4,0.2-3.6c-0.7-5.3-5.2-9.3-10.5-9.4c-0.7,0-1.3,0-2,0.2c-2.1,0.4-4,1.3-5.5,2.7
							c-2.7,2.5-3.9,6.3-3.2,9.9c0.9,4.4,4.4,7.8,8.9,8.6c0.3,0.1,0.7,0.1,1,0.1L76.7,57.4L76.7,57.4z M88,51.4
							c-0.1,0.3-0.2,0.5-0.4,0.8c-1.8,3.5-5.1,5.9-9,6.5c-0.4,0.1-0.8,0.1-1.2,0.1h-0.5h-0.7c-0.4,0-0.8-0.1-1.2-0.1
							c-2.5-0.3-4.8-1.5-6.6-3.2c-1-1-1.9-2.1-2.5-3.3c-0.5-1-0.9-2.1-1.1-3.2c-0.3-1.3-0.3-2.7-0.1-4c0.8-6,5.9-10.5,12-10.5
							c0.8,0,1.6,0.1,2.4,0.2c3.8,0.7,6.9,3.2,8.6,6.6c0.1,0.2,0.2,0.4,0.3,0.6v-7.4h1.4v24.2H88V51.4L88,51.4z"/>
					</g>
					<g id="U">
						<path id="Shape-2" class="st1" d="M115.7,52.3c-0.5,1-1.1,1.9-1.9,2.7c-1.3,1.5-3,2.6-4.9,3.2c-0.8,0.3-1.6,0.5-2.5,0.6
							c-0.3,0-0.6,0.1-0.8,0.1h-1.1c-0.3,0-0.7,0-1-0.1c-3.5-0.4-6.7-2.4-8.7-5.3c-1.1-1.6-1.8-3.5-2-5.5c0-0.4,0-0.8,0-1.2V34.6
							h1.4V47c0,0.1,0,0.3,0,0.4c0,0.3,0,0.6,0.1,1c0.1,0.9,0.4,1.8,0.7,2.6c0.5,1.2,1.2,2.2,2.1,3.2c2.5,2.6,6.1,3.8,9.6,3.2
							c0.9-0.1,1.8-0.4,2.6-0.8c1.2-0.5,2.3-1.3,3.2-2.2c1.6-1.6,2.7-3.7,3.1-5.9c0.1-0.4,0.1-0.8,0.1-1.2c0-0.2,0-0.4,0-0.5V34.6
							h1.4v24.2h-1.4L115.7,52.3L115.7,52.3z"/>
					</g>
					<g id="R">
						<path id="Shape-3" class="st2" d="M122,46.1v12.7h-1.4V34.6h1.4v6.2c0.2-0.3,0.4-0.6,0.6-0.9c0.5-0.8,1.2-1.5,1.9-2.2
							c1-0.9,2.2-1.7,3.5-2.2c1-0.4,2-0.7,3-0.8c0.4,0,0.7-0.1,1.1-0.1h0.6V36h-0.3H132c-0.3,0-0.7,0-1,0.1
							c-0.9,0.1-1.8,0.4-2.6,0.7c-1.2,0.5-2.2,1.2-3.1,2c-0.6,0.6-1.2,1.3-1.7,2c-0.8,1.3-1.4,2.8-1.5,4.3
							C122.1,45.4,122,45.7,122,46.1L122,46.1z"/>
					</g>
					<g id="E">
						<path id="Shape-4" class="st3" d="M144.8,58.9h-0.9h-0.5c-0.3,0-0.7-0.1-1-0.1c-5.2-0.7-9.4-4.8-10.3-10
							c-0.9-5.3,1.7-10.5,6.4-12.9c0.7-0.4,1.4-0.6,2.1-0.8c6.4-1.9,13.2,1.8,15.1,8.3c0.2,0.7,0.4,1.4,0.4,2.2c0,0.3,0,0.6,0.1,0.9
							c0,0.1,0,0.2,0,0.2s0,0.1,0,0.2V47c-0.1,0.2-0.2,0.4-0.4,0.5h-0.1h-11.3v-1.4h10.4c0-0.4-0.1-0.8-0.1-1.1
							c-0.1-0.7-0.3-1.5-0.6-2.2c-2.2-5.5-8.5-8.2-14-6c-1.4,0.5-2.6,1.4-3.6,2.4c-0.4,0.4-0.8,0.9-1.2,1.4
							c-0.9,1.3-1.5,2.8-1.8,4.4c-0.1,0.7-0.2,1.3-0.1,2c0,0.7,0.1,1.5,0.3,2.2c0.4,1.8,1.2,3.4,2.4,4.7c1,1.2,2.3,2.1,3.7,2.7
							c1.1,0.5,2.3,0.8,3.5,0.9h0.8h0.8C144.8,57.9,144.8,58.4,144.8,58.9L144.8,58.9z"/>
					</g>
					<g id="L">
						<path id="Shape-5" class="st4" d="M166.9,58.8h-0.7c-0.5,0-0.9-0.1-1.4-0.2c-0.5-0.1-0.9-0.3-1.4-0.4c-0.5-0.2-1-0.5-1.5-0.9
							s-1-1-1.3-1.6c-0.2-0.4-0.4-0.9-0.6-1.3c-0.1-0.3-0.2-0.7-0.2-1.1c0-0.3,0-0.6,0-0.9V22.9h1.4v29.6c0,0.2,0,0.4,0,0.6
							c0,0.3,0.1,0.6,0.2,0.9c0.1,0.4,0.3,0.7,0.4,1c0.1,0.2,0.3,0.5,0.5,0.7s0.3,0.3,0.5,0.5c0.1,0.1,0.3,0.2,0.5,0.3l0.4,0.2
							c0.7,0.3,1.4,0.6,2.2,0.6c0.3,0,0.6,0.1,0.9,0.1C166.9,57.9,166.9,58.4,166.9,58.8L166.9,58.8z"/>
					</g>
					<g id="I">
						<path id="Shape-6" class="st5" d="M170.3,58.8V34.6h1.4v24.2H170.3z M170.3,26.2V23h1.4v3.2H170.3z"/>
					</g>
					<g id="A1">
						<path id="Shape-7" class="st6" d="M187.4,57.4h0.5c0.3,0,0.7,0,1-0.1c1-0.1,1.9-0.4,2.9-0.8c4.4-1.9,6.9-6.5,6.3-11.3
							c-0.1-1.1-0.5-2.2-0.9-3.2c-1.1-2.4-3.1-4.3-5.5-5.3c-0.6-0.3-1.3-0.5-2-0.6c-1.4-0.3-2.8-0.3-4.2,0c-0.7,0.1-1.4,0.3-2,0.6
							c-5.5,2.2-8.2,8.5-5.9,14c1.4,3.5,4.6,6,8.4,6.6c0.3,0.1,0.7,0.1,1,0.1h0.5H187.4z M198.6,51.4c-0.1,0.3-0.2,0.5-0.4,0.8
							c-1.8,3.5-5.2,6-9.1,6.5c-0.4,0.1-0.8,0.1-1.1,0.1h-1.1c-0.4,0-0.8-0.1-1.1-0.1c-2.5-0.4-4.9-1.5-6.7-3.3
							c-1-0.9-1.8-2.1-2.4-3.3c-0.5-1-0.9-2.1-1.1-3.2c-0.2-1.3-0.3-2.6-0.1-3.9c0.9-6.7,7.1-11.3,13.7-10.4c4,0.6,7.5,3.1,9.3,6.7
							c0.1,0.2,0.2,0.4,0.2,0.5v-7.4h1.4v24.3h-1.4L198.6,51.4L198.6,51.4z"/>
					</g>
				</g>
				<g id="Icon">
					<g id="Group">
						
							<linearGradient id="Shape-8_1_" gradientUnits="userSpaceOnUse" x1="-458.0555" y1="53.6814" x2="-449.3455" y2="61.6814" gradientTransform="matrix(7.89 0 0 8.59 3609.8101 -477.67)">
							<stop  offset="0" style="stop-color:#B671AC"/>
							<stop  offset="1" style="stop-color:#6E4F9B"/>
						</linearGradient>
						<path id="Shape-8" class="st7" d="M38.1,22.7l-5.4,3.6l-5.6-8.4l5.4-3.6L38.1,22.7L38.1,22.7z"/>
					</g>
					<g id="Group-2">
						<path id="Shape-9" class="st6" d="M42.5,47.7l9.2,13.8l-11,7.3L31.5,55l-1.6-2.4l11-7.3L42.5,47.7z"/>
					</g>
					<g id="Group-3">
						<path id="Shape-10" class="st6" d="M28.7,57l2,3l-8.3,5.6l-3.6-5.5l1.8-1.2l6.5-4.4L28.7,57L28.7,57z"/>
					</g>
					<g id="Group-5">
						<path id="Shape-12" class="st6" d="M9.2,42l-1.8,1.2l-5.6-8.3l8.4-5.6l3.9,5.8l-6.6,4.4l6.6-4.4l1.7,2.5L9.2,42z"/>
					</g>
					<g id="Group-6">
						<path id="Shape-13" class="st8" d="M27.9,25.9l1.7,2.5l-11,7.3l-1.7-2.5L7.8,19.5l11-7.3L27.9,25.9z"/>
					</g>
					<g id="Group-7">
						<path id="Shape-14" class="st6" d="M35.8,24.2l-3.1,2L31,23.7l-3.9-5.8l5.4-3.6l5.6,8.3L35.8,24.2z"/>
					</g>
					<g id="Group-14">
						
							<rect id="Rectangle-path" x="3.7" y="24.6" transform="matrix(0.8318 -0.5551 0.5551 0.8318 -13.7497 7.5264)" class="st6" width="3.7" height="3.7"/>
					</g>
					<g id="Group-15">
						
							<rect id="Rectangle-path-2" x="14.9" y="61.9" transform="matrix(0.8318 -0.5551 0.5551 0.8318 -32.5713 20.0134)" class="st6" width="3.7" height="3.7"/>
						<g id="Group-15_1_">
							
								<rect id="Rectangle-path-2_1_" x="45.3" y="41.2" transform="matrix(0.8318 -0.5551 0.5551 0.8318 -16.512 34.4358)" class="st6" width="6.4" height="6.4"/>
						</g>
					</g>
					<g id="Group-16">
						<path id="Shape-21" class="st8" d="M9.1,64.3L0,50.6L48.7,18l9.6,13.5L9.1,64.3z"/>
					</g>
				</g>
			</g>
		</g>
	</g>
</g>
</svg>
