<?xml version="1.0" encoding="utf-8"?>
<!-- Generator: Adobe Illustrator 20.0.0, SVG Export Plug-In . SVG Version: 6.00 Build 0)  -->
<svg version="1.1" id="Calque_1" xmlns="http://www.w3.org/2000/svg" xmlns:xlink="http://www.w3.org/1999/xlink" x="0px" y="0px"
	 viewBox="0 0 200 80" style="enable-background:new 0 0 200 80;" xml:space="preserve">
<style type="text/css">
	.st0{fill:#010101;}
	.st1{fill:#2AA9E0;}
	.st2{fill:#040404;}
	.st3{fill:#0C0D0D;}
	.st4{fill:#FFFFFF;}
</style>
<title>lora-logo</title>
<g id="Calque_2">
	<path class="st0" d="M129.8,53.8c-3.4,0-6.5,0-9.7,0c-0.7,0-0.9-0.4-1.1-0.9c-1.8-4.2-3.6-8.4-5.3-12.6c-0.1-0.7-0.8-1.1-1.4-1
		c-1.6,0.1-3.2,0.1-4.7,0c-0.8,0-0.9,0.2-0.9,1c0,4.1,0,8.2,0,12.3c0,0.9-0.1,1.3-1.2,1.2c-2.5-0.1-5,0-7.5,0
		c-0.7,0-0.9-0.2-0.9-0.9c0-11.6,0-23.2,0-34.9c0-0.7,0.2-0.9,0.9-0.9c6.6,0.1,13.3-0.2,19.9,0.2c3.8,0.2,7.1,1.3,9.4,4.6
		c3.4,4.4,2.5,10.7-1.9,14c-0.5,0.4-1.1,0.8-1.8,1.1c-1,0.5-1.2,0.9-0.7,2C125.3,43.8,127.5,48.7,129.8,53.8z"/>
	<path class="st0" d="M157.4,53.8c-2.6,0-5.2,0-7.9,0c-0.5,0-0.7-0.2-0.7-0.7c-0.1-1-0.2-2.1-0.3-3.2l-1,1
		c-3.6,3.6-9.1,4.5-13.8,2.3c-5.4-2.9-4.6-9.8-1-12.7c2.5-2,5.4-2.5,8.4-3c2-0.3,4-0.4,6-0.6c0.8-0.1,1-0.3,1-1.1c0-2.6-0.9-4-3-4.4
		c-3-0.5-5.4,0.5-6.1,2.9c-0.2,0.9-0.6,0.9-1.3,0.8c-2.1-0.2-4.2-0.4-6.3-0.6c-0.7,0-0.8-0.3-0.6-0.9c0.5-2.5,2.2-4.6,4.4-5.7
		c5.2-2.5,11.2-2.8,16.7-0.8c3.5,1.1,4.9,3.7,5,7.9c0,5.1,0,10.1,0,15.2C157,51.6,157.1,52.7,157.4,53.8z"/>
	<path class="st0" d="M63.6,40.2c0-8.5,5.5-14.1,14-14.1c8.7,0,14.4,5.7,14.4,14.2c0,8.3-5.9,14-14.5,14S63.6,48.8,63.6,40.2z"/>
	<path class="st0" d="M35.5,35.5c0-5.7,0-11.4,0-17c0-0.9,0.2-1.3,1.2-1.3c2.4,0.1,4.8,0.1,7.2,0c1,0,1.1,0.3,1.1,1.2
		c0,9,0,17.9,0,26.9c0,1,0.2,1.3,1.3,1.3c4.5-0.1,9.1,0,13.6,0c0.9,0,1.1,0.2,1.1,1.1c-0.1,1.8,0,3.5,0,5.2c0,0.7-0.1,1-0.9,1
		c-7.9,0-15.8,0-23.7,0c-0.9,0-0.8-0.4-0.8-1C35.5,47.1,35.5,41.3,35.5,35.5z"/>
	<path class="st1" d="M78,0.3c7.4,0,14.7,2,21,5.9c0.8,0.5,1,0.9,0.4,1.7c-0.7,0.8-1.3,1.7-1.9,2.7c-0.4,0.8-0.8,0.7-1.5,0.3
		c-5.8-3.6-12.6-5.4-19.5-5c-5.9,0.2-11.6,2-16.5,5.2c-0.8,0.5-1.2,0.5-1.7-0.4c-0.4-0.7-0.9-1.3-1.3-1.9c-1.2-1.7-1.2-1.7,0.6-2.8
		C63.7,2.3,70.8,0.3,78,0.3z"/>
	<path class="st1" d="M78.2,80c-7.6,0-15-2.2-21.5-6.2c-0.9-0.5-0.9-0.9-0.3-1.7c0.9-1.1,1.5-2.8,2.5-3.2c1.1-0.4,2.3,1.1,3.5,1.7
		c11.2,5.5,22.3,5.2,33.1-1c1.2-0.7,1.7-0.5,2.3,0.6c0.4,0.8,1,1.6,1.5,2.3c0.6,0.7,0.5,1.1-0.3,1.6C92.8,78,85.6,80,78.2,80z"/>
	<path class="st1" d="M94.8,14.5c-0.7,1-1.4,2.1-2.2,3.2c-0.2,0.2-0.5-0.1-0.8-0.3c-9.2-5.2-18.4-5.2-27.6,0.2
		c-0.6,0.4-0.9,0.3-1.4-0.3c-2.1-2.9-2.2-2.9,1.1-4.5C74,7.8,84,8.1,93.8,13.6C94.2,13.8,94.7,14,94.8,14.5z"/>
	<path class="st1" d="M78.6,70.9C72.7,71,67,69.5,62,66.5c-0.9-0.5-1-1-0.3-1.7c0.7-0.7,1-1.9,1.8-2.2c0.8-0.3,1.6,0.8,2.5,1.2
		c8.7,4.2,17.2,4.1,25.7-0.7c0.8-0.5,1.2-0.4,1.7,0.4c1.8,2.8,1.8,2.8-1.2,4.3C87.9,69.8,83.3,70.9,78.6,70.9z"/>
	<path class="st1" d="M78,17.9c3.9,0,7.8,1,11.3,3c0.7,0.4,0.9,0.8,0.3,1.4c-0.2,0.3-0.4,0.6-0.6,0.9c-0.4,0.8-0.8,0.7-1.5,0.3
		c-5.8-3.3-12.9-3.3-18.6,0c-1,0.5-1.4,0.5-2-0.5c-1-1.5-1-1.5,0.5-2.3C70.6,18.9,74.2,17.9,78,17.9z"/>
	<path class="st1" d="M78.3,62.4c-4,0-8-1.1-11.5-3.1c-0.8-0.5-1-0.8-0.3-1.5c1.2-1.5,1.1-1.5,2.8-0.7c5.7,3,12.5,2.9,18.1-0.2
		c0.4-0.2,0.8-0.8,1.2-0.2c0.6,0.6,1.1,1.4,1.4,2.2c0,0.1-0.5,0.4-0.8,0.6C85.9,61.4,82.1,62.4,78.3,62.4z"/>
	<path class="st2" d="M162,24.5c0.4-0.3,0.6-0.8,0.6-1.3c0.1-0.8,0.7-0.7,1.3-0.7c0.8,0,0.6,0.6,0.6,1c0,0.8,0,1.7,0,2.5
		c0,0.4,0,0.7-0.5,0.7s-0.5-0.3-0.5-0.7c0-0.6,0-1.2,0-2c-0.4,0.6-0.7,1.4-0.8,2.1c-0.1,0.3-0.2,0.6-0.6,0.5
		c-0.4-0.1-0.4-0.3-0.5-0.5c-0.2-0.7-0.5-1.4-0.8-2c0,0.6,0,1.1,0,1.7c0,0.3,0.2,0.8-0.4,0.8c-0.6,0-0.4-0.4-0.4-0.8
		c0-0.8,0-1.7,0-2.5c0-0.4-0.3-1,0.5-1c0.6,0,1.2-0.1,1.3,0.7C161.8,23.5,161.9,24,162,24.5z"/>
	<path class="st3" d="M157.9,22.5h1.2c0.2,0,0.4,0.1,0.4,0.4s0,0.5-0.3,0.5c-1,0-0.7,0.7-0.7,1.1s0,1.1,0,1.7c0,0.4-0.2,0.5-0.6,0.5
		c-0.4,0-0.6-0.1-0.6-0.5c0-0.7,0-1.4,0-2.1c0-0.3,0.1-0.7-0.4-0.7s-0.7-0.1-0.6-0.6s0.5-0.3,0.8-0.4
		C157.5,22.4,157.7,22.4,157.9,22.5L157.9,22.5z"/>
	<path class="st4" d="M106.6,28.5c0-1.3,0-2.6,0-3.9c0-0.6,0.2-0.8,0.8-0.8c2.7,0.1,5.3,0,8,0.2c2.2,0.1,4,1.8,4.2,4.1
		c0.1,2.3-1.5,4.4-3.8,4.8c-2.9,0.5-5.8,0.2-8.6,0.2c-0.6,0-0.6-0.3-0.6-0.8C106.6,31,106.6,29.8,106.6,28.5z"/>
	<path class="st4" d="M148.1,43c0,3.7-2.2,6.3-5.3,6.3c-1.6,0.1-3-0.8-3.5-2.3c-0.5-1.5,0-3.1,1.3-3.9c2.1-1.5,4.6-1.8,7-2.2
		c0.4,0,0.5,0.1,0.5,0.5C148.1,41.8,148.1,42.5,148.1,43z"/>
	<path class="st4" d="M82.6,40.4c0,1.8-0.2,3.6-0.7,5.4c-0.5,2-2.3,3.3-4.3,3.3c-2,0.1-3.8-1.3-4.2-3.3c-1-3.7-1-7.6-0.1-11.2
		c0.5-2.1,2.1-3.1,4.3-3.1c1.9-0.1,3.7,1.1,4.2,3C82.4,36.4,82.6,38.4,82.6,40.4z"/>
</g>
</svg>
