<?xml version="1.0" encoding="utf-8"?>
<!-- Generator: Adobe Illustrator 22.1.0, SVG Export Plug-In . SVG Version: 6.00 Build 0)  -->
<svg version="1.1" id="Calque_1" xmlns="http://www.w3.org/2000/svg" xmlns:xlink="http://www.w3.org/1999/xlink" x="0px" y="0px"
	 viewBox="0 0 200 80" style="enable-background:new 0 0 200 80;" xml:space="preserve">
<style type="text/css">
	.st0{fill:none;}
	.st1{fill:#2C374C;}
</style>
<g id="Calque_1_1_">
	<rect class="st0" width="200" height="80"/>
</g>
<polygon class="st1" points="150.7,16.1 147.2,19.6 167.5,40 147.2,60.4 150.7,63.9 174.6,40 "/>
<polygon class="st1" points="49.3,16.1 25.4,40 49.3,63.9 52.8,60.4 32.5,40 52.8,19.6 "/>
<path class="st1" d="M117.5,20c-1,0-2.1,0.1-3.1,0.3l-2.4-4.4l-7.8,12.8l15,0.3l-2.2-4c0.2,0,0.3,0,0.5,0c8.3,0,15,6.7,15,15
	s-6.7,15-15,15s-15-6.7-15-15c0-11-9-20-20-20s-20,9-20,20s9,20,20,20c1,0,2.1-0.1,3.1-0.3l2.4,4.4l7.8-12.8l-15-0.3l2.2,4
	c-0.2,0-0.3,0-0.5,0c-8.3,0-15-6.7-15-15s6.7-15,15-15s15,6.7,15,15c0,11,9,20,20,20s20-9,20-20S128.5,20,117.5,20z"/>
</svg>
