<svg id="Calque_1" data-name="Calque 1" xmlns="http://www.w3.org/2000/svg" viewBox="0 0 130 70"><defs><style>.cls-1{fill:none;}.cls-2{fill:#751d60;}.cls-3{fill:#521643;}.cls-4{fill:#791e64;}.cls-5{fill:#050606;}.cls-6{fill:#080809;}.cls-7{fill:#070708;}.cls-8{fill:#772466;}.cls-9{fill:#0d0e0e;}.cls-10{fill:#0a0b0b;}.cls-11{fill:#0f0f0f;}.cls-12{fill:#131313;}.cls-13{fill:#b9b7b9;}.cls-14{fill:#303030;}.cls-15{fill:#676767;}.cls-16{fill:#353535;}.cls-17{fill:#2e2e2e;}.cls-18{fill:#2b2b2b;}.cls-19{fill:#262626;}.cls-20{fill:#7b1f66;}.cls-21{fill:#414142;}.cls-22{fill:#010101;}.cls-23{fill:#5c5c5c;}.cls-24{fill:#242424;}.cls-25{fill:#4d4d4d;}.cls-26{fill:#f8f0f6;}.cls-27{fill:#f4eaf2;}.cls-28{fill:#591849;}.cls-29{fill:#a4358b;}.cls-30{fill:#868286;}.cls-31{fill:#bdbfb5;}.cls-32{fill:#c07ab2;}.cls-33{fill:#bfc4b7;}.cls-34{fill:#a1348b;}.cls-35{fill:#b494ad;}.cls-36{fill:#d0b8ca;}.cls-37{fill:#be72ad;}.cls-38{fill:#d4d8cb;}.cls-39{fill:#dcb8d5;}.cls-40{fill:#c2a4bb;}.cls-41{fill:#bab2b8;}.cls-42{fill:#4d1540;}.cls-43{fill:#4d143e;}.cls-44{fill:#c9cec1;}.cls-45{fill:#d6dbcc;}.cls-46{fill:#fafafa;}.cls-47{fill:#e3e3e2;}.cls-48{fill:#c1c4c1;}.cls-49{fill:#cbd0c1;}.cls-50{fill:#d5cad2;}.cls-51{fill:#cfcdc5;}.cls-52{fill:#d6cad3;}.cls-53{fill:#d7dfcd;}.cls-54{fill:#cdcec4;}.cls-55{fill:#eaeaea;}.cls-56{fill:#484848;}.cls-57{fill:#bc66a5;}.cls-58{fill:#f9f3f7;}.cls-59{fill:#aa3d8f;}.cls-60{fill:#741d60;}.cls-61{fill:#a74191;}.cls-62{fill:#a94091;}.cls-63{fill:#b662a3;}.cls-64{fill:#c988ba;}.cls-65{fill:#a1979e;}.cls-66{fill:#a02384;}.cls-67{fill:#a32f88;}.cls-68{fill:#8a1f73;}.cls-69{fill:#be6fab;}.cls-70{fill:#dfaed1;}.cls-71{fill:#a8398d;}.cls-72{fill:#f5e7f2;}.cls-73{fill:#947d91;}.cls-74{fill:#a2378c;}.cls-75{fill:#ce8bbc;}.cls-76{fill:#9c7192;}.cls-77{fill:#abacab;}.cls-78{fill:#ddc2d8;}.cls-79{fill:#f1f8f6;}.cls-80{fill:#9b4388;}.cls-81{fill:#501542;}.cls-82{fill:#9e6190;}.cls-83{fill:#6f1b59;}.cls-84{fill:#7a1f69;}.cls-85{fill:#a32e88;}.cls-86{fill:#531644;}.cls-87{fill:#fbf4fa;}.cls-88{fill:#8d1e75;}.cls-89{fill:#a43b8e;}.cls-90{fill:#af549b;}.cls-91{fill:#a53e90;}.cls-92{fill:#752f65;}.cls-93{fill:#671d58;}.cls-94{fill:#641b54;}.cls-95{fill:#a2388d;}.cls-96{fill:#761f65;}.cls-97{fill:#a63d8f;}.cls-98{fill:#901e7a;}.cls-99{fill:#891f73;}.cls-100{fill:#d3b8cd;}</style></defs><title>logo-atelier</title><rect class="cls-1" width="130" height="70"/><path class="cls-2" d="M61.37,46.74c-9.81-2.18-16.1-10.18-15.81-20.13A19.58,19.58,0,0,1,62.44,8.07C75.82,6,87.58,18.92,84.18,32a1.25,1.25,0,0,1-.17.29c-.91.17-1.3-.58-1.79-1.07-3.53-3.49-7-7-10.54-10.52a11.2,11.2,0,0,0-1.52-1.38,7.48,7.48,0,0,1-.75-.58c-.62-.58-1.18-1.22-1.85-1.74a4.51,4.51,0,0,0-4.13-.45,2.29,2.29,0,0,0-1.43.94c-.46.8-1.46,1.18-1.68,2.17a4.64,4.64,0,0,1-.14.51c-.12,2.76,0,5.51,0,8.26,0,1.16,0,2.33-.05,3.49a1.82,1.82,0,0,1-.14.5c-.7.74-1.34,1.49-.47,2.52.79,1.25,2.13,2,2.86,3.32a2.78,2.78,0,0,1,.17.8c0,.77,0,1.55,0,2.32-.14,1.74.3,3.51-.3,5.23A.68.68,0,0,1,61.37,46.74Z"/><path class="cls-3" d="M70.19,18.89a13,13,0,0,1,2.88,2.63c3.67,3.57,7.3,7.17,10.94,10.76-1.09,6.44-7.61,13-14,14.11a2.75,2.75,0,0,1-1.77-1.84A55.32,55.32,0,0,1,68.26,36c.55-1,1.59-.6,2.4-.83a2.63,2.63,0,0,0,.39-.24l.31-.31c.29-.62.45-1.21-.32-1.62a1.29,1.29,0,0,1-.74-.73c-.33-3-.06-6.08-.15-9.12a12.74,12.74,0,0,0-.16-3A1.46,1.46,0,0,1,70.19,18.89Z"/><path class="cls-4" d="M68.2,61.54c-1.14.58-1.33,0-1.33-1,0-3.87,0-7.74,0-11.61,0-1.39-.17-2.18-1.8-1.86a7.06,7.06,0,0,1-1.7-.08c-.88-1.39-.33-2.93-.45-4.4A8.49,8.49,0,0,1,63,40.41c.74-1.53,1.37-.27,1.85.16.72.64,1.31,1.32,2.33.54a1.06,1.06,0,0,1,.33.45,49,49,0,0,1,.16,5.51c0,4.13,0,8.26,0,12.39A2.75,2.75,0,0,0,68.2,61.54Z"/><path class="cls-5" d="M57,58q0,.51,0,1c0,2.77,0,2.77-2.67,2.74A1.38,1.38,0,0,1,53,60.72a8.89,8.89,0,0,1,0-5.39,1.39,1.39,0,0,1,1.91-.93C57,55,57,54.92,57,57.34Z"/><path class="cls-6" d="M61.41,57.66a7.38,7.38,0,0,1,.07-.94c.27-1.76,1.21-2.65,2.49-2.4s2.2,2.19,1.82,3.49c-.32,1.09-1.27.52-1.88.5-1.28,0-1.29.55-1,1.46.11.33.24.67.61.76a.68.68,0,0,0,.85-.63c.12-.73.58-.86,1.1-.6s.14.82,0,1.2a1.76,1.76,0,0,1-1.81,1.29A1.85,1.85,0,0,1,61.8,60.6,6.8,6.8,0,0,1,61.41,57.66Z"/><path class="cls-7" d="M72.36,58.06c0-.34,0-.69.05-1,.2-1.35.46-2.75,2.22-2.72s1.84,1.41,2.12,2.66c.31,1.43-.54,1.46-1.55,1.38s-1.81-.1-1.35,1.28c.12.38.23.82.69.9a.7.7,0,0,0,.83-.66c.1-.61.44-.78,1-.62.74.22.29.74.2,1.12a1.76,1.76,0,0,1-1.71,1.42,1.87,1.87,0,0,1-2.05-1.21A6.07,6.07,0,0,1,72.36,58.06Z"/><path class="cls-8" d="M63.49,39.76,63.42,47l.05.1c-.49,1.37-.1,2.79-.21,4.18,0,.51.06,1.1-.73,1s-.35-.64-.33-1c.16-3.33.12-6.67.32-10a10.23,10.23,0,0,0,.07-2c-.22-1.18-.3-2.38-.45-3.58a1.09,1.09,0,0,1,.24-.82,1.54,1.54,0,0,1,.53-.26c1.37-.17,2.75-.05,4.13-.09h.88c1.06.1,2.17-.2,3.19.3l.19.23q0,.14,0,.27c-.87.49-1.88-.13-2.74.36v9.24a1.45,1.45,0,0,1,0,1.79L68.3,47a.6.6,0,0,1-.81,0c.17-1.93-.12-3.88.19-5.81a8.65,8.65,0,0,0,0-1.82,6.21,6.21,0,0,1-.17-1.87c-.06.48.08,1-.42,1.35a.52.52,0,0,1-.44-.18,3.75,3.75,0,0,1-.34-1.81c-.07-.79-.53-1.05-1.26-1A1.08,1.08,0,0,0,63.92,37C63.83,37.92,64.15,38.92,63.49,39.76Z"/><path class="cls-9" d="M67.56,46.89l.74.11c0,4.84.16,9.69-.1,14.54-1.11,0-1-.73-1-1.5,0-4.37,0-8.74,0-13.1A.34.34,0,0,1,67.56,46.89Z"/><path class="cls-10" d="M58.66,58.36c-.3-.92.46-2.09-.59-3.19-.32-.33.51-1.78.88-2.69,0-.11.75-.12.78,0,.37.91,1.22,2.22.89,2.73-1.12,1.73-.25,3.5-.59,5.2-.09.48.36,1.25-.58,1.33s-.75-.75-.78-1.31S58.66,59.13,58.66,58.36Z"/><path class="cls-11" d="M77.91,58q0-.68,0-1.37c0-2,.75-2.65,2.62-2.31.3.05.36.24.35.47s.15.77-.3.86c-1.56.31-1.25,1.53-1.28,2.57s0,1.82,0,2.73c0,.42,0,.79-.62.8s-.79-.29-.78-.84C77.92,59.9,77.91,58.93,77.91,58Z"/><path class="cls-12" d="M71.23,58.31c0,.86,0,1.71,0,2.57,0,.55-.18.85-.79.84s-.61-.39-.61-.81c0-1.88,0-3.77,0-5.65,0-.42,0-.81.58-.84s.83.22.82.81C71.21,56.25,71.23,57.28,71.23,58.31Z"/><path class="cls-13" d="M63.09,41.18c-.61,2.86-.12,5.75-.3,8.62,0,.77.28,1.6-.38,2.3.93-.3.48-1,.6-1.54.27-1.15-.56-2.44.45-3.49,0,1.3,0,2.61-.06,3.91,0,.61.33,1.5-.79,1.53s-.82-.95-.9-1.61c-.17-1.39.36-2.83-.35-4.17l.67-.1a16.81,16.81,0,0,1,.16,3.74c.09-2.48,0-5.44,0-8.39,0-.19,0-.38,0-.57a.45.45,0,0,1,.33-.4A.62.62,0,0,1,63.09,41.18Z"/><path class="cls-14" d="M47.41,58.36c-.77.71-.46,1.43,0,2.09.9,1.19,2,.75,3.49.18-.79,1.07-1.39,1.69-2.47,1.47a2.63,2.63,0,0,1-2.25-2.22C45.79,58.56,46,58.23,47.41,58.36Z"/><path class="cls-15" d="M45.87,58.06A9.48,9.48,0,0,1,47,52c.49-.73,1.19-2,2.37-.6A.88.88,0,0,1,49,52c-1.17.47-1.45,1.57-1.85,2.58a2.53,2.53,0,0,0-.45,1.35C46.65,56.74,46.7,57.58,45.87,58.06Z"/><path class="cls-16" d="M47.41,58.36c-1,0-1.44.52-1.19,1.53-.76-.56-1.06.27-1.56.5-.33.15-.73.61-1,.12s.26-.64.59-.86c.6-.39,1.32-.64,1.7-1.32.26-.26.32-.66.64-.88.58-.32,1-.89,1.69-1a.64.64,0,0,1,.4.18C48.79,57.59,48,57.9,47.41,58.36Z"/><path class="cls-11" d="M70.5,51.37c.52.08.86.35.84.88a.85.85,0,0,1-1,.92.83.83,0,0,1-.82-1A.84.84,0,0,1,70.5,51.37Z"/><path class="cls-17" d="M81.13,61.72a.78.78,0,0,1-.8-.73.76.76,0,0,1,1.52-.07A.79.79,0,0,1,81.13,61.72Z"/><path class="cls-18" d="M85.62,61.71c-.43-.13-.71-.37-.65-.84a.73.73,0,1,1,1.44.16C86.36,61.52,86,61.68,85.62,61.71Z"/><path class="cls-19" d="M84.11,61a.69.69,0,0,1-.79.64.73.73,0,1,1,.12-1.46C83.9,60.26,84.12,60.56,84.11,61Z"/><path class="cls-20" d="M68.59,46.72q0-.89,0-1.79A3.84,3.84,0,0,1,70,46.37,2,2,0,0,1,68.59,46.72Z"/><path class="cls-21" d="M51.57,53.48l1.32-2A1.42,1.42,0,0,1,51.57,53.48Z"/><path class="cls-22" d="M49.05,51.77l.36-.35c1.07.51,1.1,1.43.94,2.42-.62.11-.65-.52-1-.78A1.52,1.52,0,0,1,49.05,51.77Z"/><path class="cls-23" d="M49.67,52.87c.71,0,.22.81.68,1A1.09,1.09,0,0,1,50,54.9a.55.55,0,0,1-.66.11,1,1,0,0,1-.27-.39A1.61,1.61,0,0,1,49.67,52.87Z"/><path class="cls-24" d="M46.65,57.58a1.16,1.16,0,0,1-.72.75.26.26,0,0,1-.06-.27,7,7,0,0,0,.44-2.43c.35-.08.48.15.6.4A1.57,1.57,0,0,1,46.65,57.58Z"/><path class="cls-23" d="M48.66,56.61l-.16,0-.16,0c-.36-1,.11-1.47,1-1.76l.12.11a1,1,0,0,1-.06,1.14Z"/><path class="cls-25" d="M49.37,56.1,49.43,55l.6-.06A1.24,1.24,0,0,1,49.37,56.1Z"/><path class="cls-26" d="M63.11,16.21a4.72,4.72,0,0,1,4.94.6c.1.29-.7.68.15.92.28.08.24.57,0,.89a1.89,1.89,0,0,1-1.68.58,1.82,1.82,0,0,1-.51-.16c-.91-.7-2.05-.18-3-.58a1.15,1.15,0,0,1-.56-1.39A3.28,3.28,0,0,1,63.11,16.21Z"/><path class="cls-27" d="M60,19.56a.72.72,0,0,0,0-.3c.82-.33,1.64-1.25,2.46,0a5.85,5.85,0,0,1,.1,1,11.88,11.88,0,0,1,.14,4.28c-.25.69-.25,1.48-.91,2a1.23,1.23,0,0,1-.56.15,1.77,1.77,0,0,1-1.32-.62A31.79,31.79,0,0,1,60,19.56Z"/><path class="cls-28" d="M62.37,35.1l0,.52c-.13.83.36,1.78-.44,2.49-.89-1-2.16-1.67-2.63-3l.17-.23a3.36,3.36,0,0,1,1.92-.27A1.1,1.1,0,0,1,62.37,35.1Z"/><path class="cls-29" d="M62.4,19.24c-.47-.28-.94-.66-1.4,0-.32.49-.65.2-1,0,.19-1,1.22-1.24,1.65-2,.3-.25.58-.55,1-.42a2.56,2.56,0,0,0,.34,1.44.27.27,0,0,1,.12.34,1.37,1.37,0,0,1-.57.58Z"/><path class="cls-30" d="M59.66,32.45a.11.11,0,0,1,0-.17.47.47,0,0,1,.39-.13,1.38,1.38,0,0,1,.76.41,1.66,1.66,0,0,1,.23.6,2.62,2.62,0,0,0,.31.8.84.84,0,0,1,.12.68.61.61,0,0,1-.45.18,14.67,14.67,0,0,1-1.88-.05C58.4,33.8,58.76,33.06,59.66,32.45Z"/><path class="cls-31" d="M62.41,41.19v9.86H62q0-2.21,0-4.42,0-2.73,0-5.46A.22.22,0,0,1,62.41,41.19Z"/><path class="cls-32" d="M60,19.56c0,1.67-.06,3.35,0,5,0,.52-.24,1.14.39,1.51a.55.55,0,0,1,.18.42,5.33,5.33,0,0,1-.37,1.84.47.47,0,0,1-.43.14c0-2.5-.07-5-.09-7.49A1.81,1.81,0,0,1,60,19.56Z"/><path class="cls-33" d="M62,38.11c.3-.8-.29-1.77.44-2.49.88,1,.08,2.42.7,3.51a.29.29,0,0,1-.3.15,1.4,1.4,0,0,1-.49-.25L62,38.78Z"/><path class="cls-34" d="M68.16,18.47c-.09-.25-.11-.64-.27-.72-1.13-.55.05-.64.16-.93l1.57,1.71a.62.62,0,0,1-.39.47,1.21,1.21,0,0,1-.82-.19A.6.6,0,0,1,68.16,18.47Z"/><path class="cls-35" d="M59.71,28.49H60l.21.2a5.2,5.2,0,0,1,0,3.37l-.2.21-.36,0Z"/><path class="cls-36" d="M59.66,32.45c-.49.68-1,1.36-.37,2.23q.19.09.13.19c0,.06-.08.1-.13.1l0,.11C58.16,34.12,58.3,33,59.66,32.45Z"/><path class="cls-37" d="M69.26,18.93l.36-.4.57.36.15,1a.59.59,0,0,1-.38.24.88.88,0,0,1-.44-.12A.94.94,0,0,1,69.26,18.93Z"/><path class="cls-38" d="M62,38.78h.35a2.22,2.22,0,0,1,0,2.39H62A6.36,6.36,0,0,1,62,38.78Z"/><path class="cls-39" d="M62.71,16.84l-1,.42c.2-.72.85-.84,1.43-1A.69.69,0,0,1,62.71,16.84Z"/><path class="cls-40" d="M69.81,20l.53-.08c.57,1.54.23,3.14.27,4.71.08,2.66.07,5.32.09,8a.4.4,0,0,1-.56-.06c-.71-2.17-.16-4.41-.34-6.6a50.21,50.21,0,0,0-.09-5.08A1.17,1.17,0,0,1,69.81,20Z"/><path class="cls-41" d="M70.27,32.58l.44,0,.82.07a2.25,2.25,0,0,1,0,2.35.37.37,0,0,0-.26.07V34.9c-.54-.16-1.11,0-1.65-.12a.62.62,0,0,1-.25-.38.84.84,0,0,1,.11-.43c.34-.22,1.25-.19.41-.93a.53.53,0,0,1,0-.43A.3.3,0,0,1,70.27,32.58Z"/><path class="cls-42" d="M68.58,35.69c.84-.71,1.84-.18,2.74-.36C70.48,36.05,69.48,35.53,68.58,35.69Z"/><path class="cls-43" d="M71.57,35l0-2.35A1.56,1.56,0,0,1,71.57,35Z"/><path class="cls-43" d="M63.49,39.76a23.17,23.17,0,0,0-.07-2.55c-.2-1.51.36-2,1.88-1.91,1.13.07,1.7.28,1.57,1.53a14.19,14.19,0,0,0,.07,2,1.84,1.84,0,0,1,0,2.25c-.15.41.15,1-.31,1.23s-.83-.41-1.18-.73C64.76,41,64.13,40.38,63.49,39.76Z"/><path class="cls-44" d="M67.56,46.89l-.39,0q0-2.87,0-5.73a.68.68,0,0,1,.37-.25.66.66,0,0,1,.61.22c-.5,1.23-.17,2.53-.26,3.79C67.83,45.62,68,46.31,67.56,46.89Z"/><path class="cls-45" d="M67.54,41.18l-.39,0-.24-.08V38.86a.88.88,0,0,0,.25-.09c.39-.12.51.16.64.43A2.46,2.46,0,0,1,67.54,41.18Z"/><path class="cls-46" d="M55.78,58.11c-.32.81.26,2.27-.91,2.28s-.78-1.43-.78-2.24-.44-2.4.76-2.42S55.42,57.29,55.78,58.11Z"/><path class="cls-47" d="M63.9,57.33c-.86.05-1.26-.05-1.09-.71.12-.48.14-1.11.81-1.08s.65.67.76,1.15C64.54,57.42,64,57.32,63.9,57.33Z"/><path class="cls-47" d="M74.49,55.51c.73.09.72.66.85,1.13.19.69-.27.72-.76.72s-.95,0-.81-.69C73.86,56.17,73.93,55.66,74.49,55.51Z"/><path class="cls-48" d="M69.59,34.29l0,.36c-.52.41-1.2,0-1.73.32H67.2a15,15,0,0,0-4.46,0l-.38.14-1-.13q-.19-.08-.15-.19c0-.08.06-.12.1-.12a1.47,1.47,0,0,1,.1-.3c.73-.75,1.67-.44,2.54-.49a34.75,34.75,0,0,0,3.84-.12,3.81,3.81,0,0,0,.59-.46.69.69,0,0,1,.45-.09C69.32,33.4,69.22,34,69.59,34.29Z"/><path class="cls-49" d="M67.55,39.12l-.37-.35q0-1.51,0-3c1.1,1,.34,2.35,1,3.38A.4.4,0,0,1,67.55,39.12Z"/><path class="cls-50" d="M62.75,35a6.9,6.9,0,0,1,4.46,0Z"/><path class="cls-51" d="M67.55,39.12h.63a4.76,4.76,0,0,1,0,2.05h-.6Q67.54,40.15,67.55,39.12Z"/><path class="cls-52" d="M67.88,35c.5-.52,1.15-.23,1.73-.32.57.08,1.18-.17,1.69.25Z"/><path class="cls-53" d="M62.74,39.12h.35v2.06h-.34A2.73,2.73,0,0,1,62.74,39.12Z"/><path class="cls-54" d="M62.74,39.12q0,1,0,2.05H62.4q0-1.2,0-2.39Z"/><path class="cls-55" d="M49.31,54.86l-1,1.76c-.61.24-.76,1.27-1.68,1l0-1.56c.11-.47-.12-1,.22-1.44.6-1,.13-2.86,2.14-2.81l.62,1.1Z"/><path class="cls-56" d="M46.91,54.58A2.25,2.25,0,0,1,46.69,56l-.37-.39A1,1,0,0,1,46.91,54.58Z"/><path class="cls-57" d="M63,18.57a1.39,1.39,0,0,1,0-.29c1,.3,2.32-.9,3.1.6a1.6,1.6,0,0,1-1.59.33A3.19,3.19,0,0,1,63,18.57Z"/><path class="cls-58" d="M64.42,18.84l1.73,0,.47.05a.47.47,0,0,1-.2.47,2.63,2.63,0,0,1-2.13.06A.5.5,0,0,1,64,19,.26.26,0,0,1,64.42,18.84Z"/><path class="cls-59" d="M66.53,19.23l.09-.3c.6.13,1-.32,1.54-.46a.44.44,0,0,1,.12.16c0,.54-.34.76-.8.89A1,1,0,0,1,66.53,19.23Z"/><path class="cls-60" d="M62.32,24.74a15.86,15.86,0,0,0-.24-4.81c.52-.41,1-.88,1.76-.58a8.8,8.8,0,0,0,4.13,0,1.11,1.11,0,0,1,1.46.66,14.54,14.54,0,0,1,.21,5.09,1.07,1.07,0,0,1-1,.9,1.76,1.76,0,0,1-.54-.08,7.74,7.74,0,0,0-5.26,0,.78.78,0,0,1-.49-.15A1.48,1.48,0,0,1,62.32,24.74Z"/><path class="cls-61" d="M61.37,26.49a1.25,1.25,0,0,1,.3-.1c2-.48,4-1,5.87.3.33,1.67-.66,2.6-1.89,3.4A1.09,1.09,0,0,1,64.9,30c-.71-1,.83-1.67.42-2.63-1.11-.42-2.28,0-3.4-.25a1.51,1.51,0,0,1-.46-.2.34.34,0,0,1-.14-.28Q61.33,26.49,61.37,26.49Z"/><path class="cls-62" d="M60.84,25.4a6.19,6.19,0,0,1-.12-4.26A4.32,4.32,0,0,1,60.84,25.4Z"/><path class="cls-63" d="M67.55,27.17a1.78,1.78,0,0,0-1.71-.75c-1.39,0-2.78,0-4.17,0,.53-.43.28-1.17.65-1.66l.07.94c1.73.22,3.46-.33,5.18.06a1.7,1.7,0,0,1,.51.18.41.41,0,0,1,.26.41C68.25,26.76,68.15,27.2,67.55,27.17Z"/><path class="cls-64" d="M63.79,19.62c-.62-.15-1.14.19-1.71.31l.32-.69,0-.14c.56-.14,1.08-.7,1.72-.18l0,.34a.26.26,0,0,1,.11.23c0,.09,0,.13,0,.13A.34.34,0,0,1,63.79,19.62Z"/><path class="cls-61" d="M61.37,26.49q0,.12,0,.23a1.52,1.52,0,0,1-.14.38c-.24.44-.14,1-.47,1.39a.52.52,0,0,1-.44.06.71.71,0,0,1-.14-.45,4.6,4.6,0,0,1,.14-1.72q0-.14,0-.29C60.82,25.84,61,26.37,61.37,26.49Z"/><path class="cls-65" d="M61.34,34.65a1.38,1.38,0,0,1,0,.32h-2.1q0-.14,0-.29Z"/><path class="cls-66" d="M64.14,18.92l-1.72.18.63-.53c.45.1,1-.22,1.37.27Z"/><path class="cls-67" d="M68.68,33.33l-.1.64a42.91,42.91,0,0,1-7.5.07.65.65,0,0,1-.37-.75c2-1,4-.3,6.06-.47A2,2,0,0,1,68.68,33.33Z"/><path class="cls-68" d="M68.68,33.33l-8,0,0-.63a.8.8,0,0,1,.73-.29,12.5,12.5,0,0,0,2.44.1h2.78a10.63,10.63,0,0,1,1.66.09,1.36,1.36,0,0,1,.5.23.33.33,0,0,1,0,.49Z"/><path class="cls-69" d="M61.07,34l7.5-.07c-1.49.75-3.07.19-4.61.33-.84.08-1.69,0-2.53,0Z"/><path class="cls-70" d="M61.39,32.67h-.67c-.26-.09-.59,0-.71-.4h0a1,1,0,0,1,.27-.25l.35-.13a3.94,3.94,0,0,1,.56-.18.56.56,0,0,1,.75.53.83.83,0,0,1-.13.41A.37.37,0,0,1,61.39,32.67Z"/><path class="cls-71" d="M60.32,26.38l0,2.14a.18.18,0,0,1-.29,0l0,0C60.12,27.79,59.73,27,60.32,26.38Z"/><path class="cls-72" d="M69.28,20a1.87,1.87,0,0,0-1.39-.42.32.32,0,0,1-.4,0,.33.33,0,0,1,0-.4l.76-.59c.39-.11.66.17,1,.3l.38,1A.33.33,0,0,1,69.28,20Z"/><path class="cls-73" d="M60,28.52h.29v0a3.58,3.58,0,0,1,.07,3.71l-.38.06Q60,30.4,60,28.52Z"/><path class="cls-74" d="M69.28,20l.36-.08a.29.29,0,0,0,.18,0l.16.65,0,.28c-.11,1.47.18,3-.19,4.41a.3.3,0,0,1-.47.07Z"/><path class="cls-75" d="M70.27,32.58l-.28,0a1,1,0,0,1-.37-.47,32.16,32.16,0,0,1-.09-5.71,1.62,1.62,0,0,1,.23-.56.35.35,0,0,1,.52-.09Z"/><path class="cls-76" d="M70.28,25.77l-.27,0a.56.56,0,0,1-.23-.53c0-1.53-.1-3.06.08-4.59L70,20.6C70.66,22.29,70.11,24,70.28,25.77Z"/><path class="cls-77" d="M69.94,32.94c.64,0,1.23.15,1,.94s-.8.28-1.23.09a.63.63,0,0,1-.28-.66C69.48,33,69.62,32.86,69.94,32.94Z"/><path class="cls-78" d="M69.94,32.94l-.36.36c-.38.18-.48-.17-.67-.36l-.28,0a.47.47,0,0,1-.24-.37.74.74,0,0,1,.19-.42A1.25,1.25,0,0,1,69.5,32a1.41,1.41,0,0,1,.42.21l.08.41Z"/><path class="cls-79" d="M68.91,32.95l.67.36.09.66a1.62,1.62,0,0,0-.08.32c-.76,0-.62-.56-.71-1Z"/><path class="cls-80" d="M67.52,19.22a.57.57,0,0,1,.09.29,6.31,6.31,0,0,1-3.53,0,.66.66,0,0,0,0-.28l2.42,0Z"/><path class="cls-81" d="M62.75,25.7a5.46,5.46,0,0,1,5.48,0A15.39,15.39,0,0,1,62.75,25.7Z"/><path class="cls-82" d="M62.75,25.7h5.48v0q.15.08.12.18t-.08.11c-2-.12-4,.49-5.86-.36Z"/><path class="cls-83" d="M64.09,19.54l3.53,0a.33.33,0,0,1,.27.09,6,6,0,0,1-4.09,0A.9.9,0,0,1,64.09,19.54Z"/><path class="cls-84" d="M68.26,26a1.14,1.14,0,0,0,0-.29c.4,0,.83,0,1.08-.39l.26,0q.18-.23.34,0l.11.39a1.71,1.71,0,0,1-.11.27,1.07,1.07,0,0,1-1.61,0Z"/><path class="cls-2" d="M66.17,27.11l-1.32,2.71c-1.68.06-1.52,1.74-2.29,2.6-.32,0-.59,0-.69-.39s0,.06-.06-.16C60.75,27.47,61.71,26.42,66.17,27.11Z"/><path class="cls-85" d="M67.55,27.17l.67-.77.21.21a6.36,6.36,0,0,1,.3,2.35c-.08,1.08.23,2.2-.35,3.23a1.1,1.1,0,0,1-1.29.3c-.56-.67-1.52-.75-2.08-1.43a1.15,1.15,0,0,1,.43-1.16C66.56,29.31,66.93,28.14,67.55,27.17Z"/><path class="cls-86" d="M65.43,29.9l-.3,1c-.07.83.58.44.93.53.73.19.81.53.31,1.06a10.54,10.54,0,0,1-2.55.13,1.23,1.23,0,0,1-1.07-.37c0-.11,0-.22,0-.34,0-2.28,0-2.28,2.11-2.08Z"/><path class="cls-87" d="M61.63,31.88h-.54c-.88-1.7-.21-3.4,0-5.1l.31-.06a.5.5,0,0,0,.31.1A11.5,11.5,0,0,1,61.63,31.88Z"/><path class="cls-88" d="M61.63,31.88q0-2.53,0-5.05c1.5.08,3-.43,4.5.28-4.15,0-4.15,0-4.12,4.26,0,.29,0,.57,0,.86-.09.13-.19.13-.29,0Z"/><path class="cls-89" d="M68.29,26.06h1.61q0,3.07,0,6.13h-.37a2.63,2.63,0,0,1-.37-1.94,2.35,2.35,0,0,0-.73-1.81c-.17-.64.14-1.32-.2-1.94l0-.1Z"/><path class="cls-90" d="M61.06,26.78l0,5.1-.42.31a9.42,9.42,0,0,1,0-3.71C60.79,27.92,60.43,27.24,61.06,26.78Z"/><path class="cls-91" d="M60.68,28.49V32.2l-.14,0-.14,0q0-1.85-.07-3.71Z"/><path class="cls-92" d="M66.85,32.94H63.77l-.12-.21a.45.45,0,0,1,.36-.28c.8,0,1.6,0,2.4,0a1,1,0,0,1,.47.09A.31.31,0,0,1,66.85,32.94Z"/><path class="cls-93" d="M63.74,32.69a2.25,2.25,0,0,1,0,.25c-.79-.1-1.63.27-2.38-.27l.34-.08A2.23,2.23,0,0,1,63.74,32.69Z"/><path class="cls-94" d="M66.85,32.94q0-.14,0-.28a1.63,1.63,0,0,1,1.66-.05,2.09,2.09,0,0,1,.1.32Z"/><path class="cls-95" d="M63.74,32.69l-2-.09,0-.36h1l1,.08v.24Z"/><path class="cls-96" d="M69.9,25.4h-.34c.22-1.57-.28-3.18.3-4.72Z"/><path class="cls-84" d="M68.59,28.44c.83-.3,1,.18,1,.85,0,1,0,1.93,0,2.89l-.95.15a.21.21,0,0,1-.35-.09V28.83C68.37,28.71,68.39,28.5,68.59,28.44Z"/><path class="cls-97" d="M68.26,32.24l.35.09a.59.59,0,0,1-.07.27l-1.66.05-.1-.14-.06-.16.12-.12Z"/><path class="cls-98" d="M66.51,32.22c0-.76-.59-.63-1.06-.66s-.77-.19-.32-.68c.38.69,2-.13,1.71,1.36l0,.11A.18.18,0,0,1,66.51,32.22Z"/><path class="cls-99" d="M68.59,28.44l-.34.39q0-1.17,0-2.34C68.88,27.06,68.44,27.8,68.59,28.44Z"/><path class="cls-100" d="M66.51,32.22a.59.59,0,0,0,.29.13l0,.17-3,0a2,2,0,0,1,0-.24Z"/></svg>