<?xml version="1.0" encoding="utf-8"?>
<!-- Generator: Adobe Illustrator 20.1.0, SVG Export Plug-In . SVG Version: 6.00 Build 0)  -->
<svg version="1.1" id="Calque_1" xmlns="http://www.w3.org/2000/svg" xmlns:xlink="http://www.w3.org/1999/xlink" x="0px" y="0px"
	 viewBox="0 0 128 87" style="enable-background:new 0 0 128 87;" xml:space="preserve">
<style type="text/css">
	.st0{fill:none;}
	.st1{fill:#6B215F;}
	.st2{fill:#010101;}
	.st3{fill:#929085;}
</style>
<title>logo-techtrends</title>
<g id="Calque_2">
	<rect class="st0" width="128" height="87"/>
</g>
<g>
	<path class="st1" d="M80.1,21.1h-1.4v-1.6h-0.5c-9.9,0-13.2,2.4-14.3,3.7c-1-1.3-4.4-3.7-14.3-3.7H49v1.6h-2.5v22.5h1.1
		c12.2,0,14.8,2.8,15,3.3h2.3c0.4-0.5,3-3.3,15-3.3h1.1V21.1H80.1z M63.1,42.6c-1.7-1.2-5.3-2.7-12.8-2.8v-19
		c10.5,0.2,12.5,3,12.8,3.5V42.6z M77.5,39.8c-7.5,0.1-11.1,1.6-12.8,2.8V24.4c0.3-0.5,2.4-3.3,12.8-3.5V39.8z"/>
	<path class="st2" d="M54.9,64.6c-0.1,0,0-0.1,0-0.2c0-1.3,0-2.5,0-3.8c0-0.2,0-0.2-0.2-0.2c-0.7,0-1.4,0-2.1,0
		c-0.2,0-0.2,0.1-0.2,0.2c0,1.7,0,3.4,0,5.1c0,0.2-0.1,0.2-0.2,0.2c-0.6,0-1.2,0-1.8,0c-0.1,0-0.2,0-0.2-0.2c0-3.9,0-7.9,0-11.8
		c0-0.1,0-0.2,0.2-0.2c0.6,0,1.2,0,1.8,0c0.1,0,0.2,0,0.2,0.2c0,1.6,0,3.1,0,4.7c0,0.2,0,0.2,0.2,0.2c0.7,0,1.4,0,2.1,0
		c0.2,0,0.2,0,0.2-0.2c0-1.6,0-3.2,0-4.7c0-0.1,0-0.2,0.2-0.2c0.6,0,1.2,0,1.9,0c0.2,0,0.2,0.1,0.2,0.2c0,2.3,0,4.5,0,6.8
		c0,0.1,0,0.1,0,0.2s0,0.2-0.1,0.3c-0.4,0.6-0.7,1.2-1.1,1.8c-0.2,0.4-0.5,0.7-0.7,1.1C55.1,64.4,55,64.5,54.9,64.6z"/>
	<path class="st2" d="M41.8,59.9c0-0.8,0-1.6,0-2.3c0-0.7,0.1-1.3,0.3-2c0.2-0.8,0.9-1.5,1.8-1.7c0.6-0.2,1.1-0.2,1.7-0.2
		c0.5,0,1.1,0.1,1.5,0.4c0.5,0.3,0.9,0.7,1.1,1.2c0.1,0.4,0.2,0.8,0.3,1.2c0.1,0.5,0,1,0,1.5c0,0.1,0,0.1-0.1,0.1
		c-0.6,0-1.3,0-1.9,0c-0.1,0-0.1-0.1-0.1-0.1c0-0.5,0-1,0-1.6c0-0.2,0-0.4-0.1-0.7c-0.1-0.3-0.5-0.5-0.8-0.5c-0.2,0-0.5,0-0.7,0.1
		c-0.4,0.1-0.6,0.5-0.6,0.9c-0.1,0.5-0.1,0.9-0.1,1.4c0,1.6,0,3.3,0,4.9c0,0.4,0,0.9,0.2,1.3c0.1,0.3,0.4,0.6,0.7,0.6
		c0.3,0.1,0.7,0,1-0.1c0.3-0.2,0.5-0.5,0.5-0.8c0.1-0.6,0.1-1.3,0-1.9c0-0.1,0-0.2,0.2-0.2c0.6,0,1.2,0,1.8,0c0.1,0,0.2,0,0.2,0.2
		c0,0.4,0,0.8,0,1.3c0,0.6-0.2,1.3-0.4,1.8c-0.3,0.6-0.8,1-1.5,1.2c-0.6,0.2-1.2,0.2-1.9,0.2c-0.6,0-1.2-0.2-1.8-0.6
		c-0.4-0.3-0.7-0.7-0.9-1.1c-0.1-0.3-0.2-0.7-0.3-1c0-0.1,0-0.3-0.1-0.4c-0.1-0.9,0-1.9,0-2.8C41.8,60,41.8,60,41.8,59.9z"/>
	<path class="st2" d="M35.6,59.9c0-2,0-3.9,0-5.9c0-0.2,0-0.2,0.2-0.2c1.6,0,3.2,0,4.8,0c0.1,0,0.2,0,0.2,0.2c0,0.4,0,0.8,0,1.2
		c0,0.1,0,0.2-0.2,0.2c-0.8,0-1.7,0-2.5,0c-0.2,0-0.2,0-0.2,0.2c0,1,0,2.1,0,3.1c0,0.2,0.1,0.2,0.2,0.2c0.6,0,1.3,0,1.9,0
		c0.1,0,0.2,0,0.2,0.2c0,0.4,0,0.9,0,1.3c0,0.1,0,0.1-0.1,0.1c-0.7,0-1.3,0-2,0c-0.1,0-0.2,0-0.2,0.2c0,1.2,0,2.4,0,3.6
		c0,0.1,0,0.2,0.2,0.2c0.8,0,1.7,0,2.5,0c0.2,0,0.2,0.1,0.2,0.2c0,0.4,0,0.8,0,1.2c0,0.1,0,0.1-0.1,0.1c-1.6,0-3.2,0-4.9,0
		c-0.2,0-0.1-0.1-0.1-0.2C35.6,63.8,35.6,61.8,35.6,59.9z"/>
	<path class="st2" d="M32.6,60.7c0,1.7,0,3.4,0,5.1c0,0.1,0,0.2-0.2,0.2c-0.6,0-1.2,0-1.8,0c-0.1,0-0.2,0-0.2-0.2
		c0-3.4,0-6.7,0-10.1c0-0.2,0-0.2-0.2-0.2c-0.6,0-1.1,0-1.7,0c-0.1,0-0.2,0-0.2-0.2c0-0.4,0-0.9,0-1.3c0-0.1,0-0.1,0.1-0.1
		c2,0,4,0,6,0c0.1,0,0.1,0,0.1,0.1c0,0.4,0,0.9,0,1.3c0,0.1,0,0.2-0.2,0.2c-0.6,0-1.1,0-1.7,0c-0.1,0-0.2,0-0.2,0.2
		C32.6,57.3,32.6,59,32.6,60.7z"/>
	<path class="st3" d="M54.9,64.6c0.4-0.6,0.7-1.2,1.1-1.7c0.4-0.6,0.7-1.2,1.1-1.8c0,0,0,0,0-0.1c0.1-0.1,0.2-0.2,0.2-0.4
		c0.4-0.6,0.7-1.1,1.1-1.7c0.2-0.4,0.5-0.7,0.7-1.1c0.1-0.1,0.1-0.1,0.2-0.1c0.1,0.1,0.1,0.1,0,0.2l-0.4,0.6L58,60
		c-0.3,0.4-0.5,0.9-0.8,1.3c-0.4,0.7-0.8,1.3-1.2,2c-0.3,0.5-0.6,1-0.9,1.5c-0.3,0.5-0.7,1-1,1.6c-0.2,0.3-0.4,0.6-0.6,1
		c0,0.1-0.1,0.2-0.2,0.1c-0.1,0-0.2-0.1-0.1-0.2c0.4-0.6,0.7-1.1,1-1.7c0.2-0.3,0.4-0.6,0.5-0.9C54.9,64.7,54.8,64.6,54.9,64.6z"/>
	<g>
		<path class="st1" d="M60.5,66V54.7h-2.4v-0.9H64v0.9h-2.4V66H60.5z"/>
		<path class="st1" d="M65,66V53.8h3.2c0.4,0,0.8,0.1,1.1,0.2c0.3,0.1,0.6,0.3,0.8,0.4c0.2,0.2,0.3,0.4,0.5,0.7
			c0.1,0.3,0.2,0.6,0.2,0.9c0,0.3,0.1,0.6,0.1,1c0,1.6-0.6,2.5-1.7,2.9L71,66h-1.1L68.1,60h-2V66H65z M66.1,59.2h2.2
			c0.3,0,0.6-0.1,0.8-0.2c0.2-0.1,0.4-0.3,0.5-0.5s0.2-0.5,0.2-0.7c0-0.2,0.1-0.5,0.1-0.8c0-0.3,0-0.5,0-0.7c0-0.2-0.1-0.4-0.1-0.6
			c-0.1-0.2-0.2-0.4-0.3-0.5c-0.1-0.1-0.3-0.2-0.4-0.3c-0.2-0.1-0.4-0.1-0.6-0.1h-2.2V59.2z"/>
		<path class="st1" d="M72.7,66V53.8H77v0.9h-3.2v4.6h2.3v0.8h-2.3v5H77V66H72.7z"/>
		<path class="st1" d="M78.6,66V53.8h0.8l3.9,9.6v-9.6h0.9V66h-0.8l-3.9-9.4V66H78.6z"/>
		<path class="st1" d="M86.4,66V53.8h2.7c0.5,0,0.9,0.1,1.2,0.2c0.4,0.1,0.7,0.3,0.9,0.5s0.4,0.5,0.6,0.8s0.3,0.6,0.3,1
			c0.1,0.3,0.1,0.7,0.1,1.2v4.9c0,2.4-1,3.6-3.1,3.6H86.4z M87.5,65.1h1.7c1.4,0,2-0.8,2-2.5v-5.4c0-1.7-0.7-2.5-2-2.5h-1.7V65.1z"
			/>
		<path class="st1" d="M93.7,63l0.9-0.3c0,0.3,0.1,0.7,0.2,0.9c0.1,0.3,0.2,0.6,0.4,0.8c0.2,0.2,0.4,0.4,0.7,0.6
			c0.3,0.1,0.6,0.2,0.9,0.2c0.6,0,1-0.2,1.3-0.5c0.3-0.3,0.5-0.7,0.5-1.3c0-0.5-0.1-0.9-0.4-1.3c-0.3-0.4-0.7-0.9-1.2-1.5l-1.9-2
			c-0.4-0.4-0.7-0.8-1-1.2c-0.2-0.4-0.3-0.8-0.3-1.2c0-0.8,0.3-1.4,0.8-1.9c0.5-0.5,1.2-0.7,2-0.7c0.8,0,1.4,0.2,1.9,0.7
			c0.5,0.4,0.8,1.1,1,2l0,0.1l-0.9,0.3l0-0.1c-0.1-0.6-0.3-1.1-0.7-1.5c-0.3-0.4-0.8-0.6-1.3-0.6c-0.5,0-1,0.1-1.3,0.4
			c-0.3,0.3-0.5,0.7-0.5,1.2c0,0.3,0.1,0.6,0.3,0.9c0.2,0.3,0.4,0.6,0.7,1l1.8,1.9c0,0.1,0.2,0.2,0.4,0.4c0.2,0.2,0.3,0.3,0.4,0.4
			c0.1,0.1,0.2,0.2,0.3,0.4c0.2,0.2,0.3,0.3,0.3,0.4c0.1,0.1,0.1,0.2,0.3,0.4c0.1,0.2,0.2,0.3,0.2,0.5s0.1,0.3,0.1,0.5
			s0.1,0.3,0.1,0.5c0,0.9-0.3,1.5-0.8,2s-1.2,0.7-2.1,0.7c-0.4,0-0.8-0.1-1.2-0.3c-0.4-0.2-0.7-0.4-0.9-0.7c-0.2-0.3-0.4-0.6-0.6-1
			C93.9,63.9,93.8,63.5,93.7,63z"/>
	</g>
</g>
</svg>
