<?xml version="1.0" encoding="utf-8"?>
<!-- Generator: Adobe Illustrator 21.1.0, SVG Export Plug-In . SVG Version: 6.00 Build 0)  -->
<svg version="1.1" id="Calque_1" xmlns="http://www.w3.org/2000/svg" xmlns:xlink="http://www.w3.org/1999/xlink" x="0px" y="0px"
	 viewBox="0 0 523.6 116.6" style="enable-background:new 0 0 523.6 116.6;" xml:space="preserve">
<style type="text/css">
	.st0{fill:#FFFFFF;}
</style>
<g>
	<path class="st0" d="M103.4,25.5c0.1,0.5,0.4,1.2,0.9,2.2s1.1,1.9,1.8,2.8c0.7,0.9,1.4,1.7,2.2,2.4c0.7,0.7,1.3,1,1.8,1
		s1.4-0.8,2.7-2.4c1.3-1.6,2.7-3.4,4.2-5.3s2.7-3.8,3.7-5.5c1.1-1.7,1.6-2.8,1.6-3.2s-0.4-1.2-1.1-2.4s-1.6-2.4-2.5-3.7
		c-1-1.3-2-2.5-3.1-3.5c-1.1-1.1-2-1.6-2.8-1.6c-0.7,0-1.6,0.9-2.7,2.7s-2.2,3.9-3.2,6.1c-1,2.3-1.8,4.4-2.5,6.5
		C103.8,23.6,103.4,24.9,103.4,25.5z"/>
	<path class="st0" d="M95.7,25.1c2.9-3.9,5.2-7,6.9-9.4c1.7-2.4,2.5-3.6,2.5-3.8c0-0.3-0.4-1-1.2-2.2c-0.8-1.2-1.6-2.3-2.6-3.5
		S99.4,3.9,98.4,3c-1-1-1.6-1.4-2-1.4c-0.3,0-1.4,1.4-3.3,4.1s-4.6,6.5-8.1,11.2c-3.5,4.8-7.6,10.3-12.3,16.8
		c-4.8,6.4-10.1,13.4-16,20.8S44.4,69.7,37.5,77.8S23.4,94,15.8,102.1c1-4.9,2.3-10.8,4-17.9c1.7-7,3.8-14.6,6.3-22.8
		s5.6-16.7,9.1-25.6c3.5-8.8,7.5-17.5,12-26.1C47.7,9,47.7,8.5,47.3,8c-0.4-0.4-0.8-0.8-1.3-1.2c-0.3-0.2-0.9-0.6-1.7-1.4
		c-0.9-0.7-1.8-1.5-2.7-2.3c-1-0.8-1.9-1.5-2.9-2.2c-1-0.6-1.6-0.9-2-0.9c-0.3,0-1,1.2-2.2,3.7s-2.7,5.8-4.5,10s-3.8,9.1-6,14.6
		c-2.2,5.6-4.3,11.4-6.6,17.6S13,58.3,10.9,64.7s-4,12.5-5.5,18.4C3.8,89,2.5,94.4,1.5,99.3s-1.5,9-1.5,12.3c0,0.5,0.7,1,2.2,1.7
		c1.4,0.6,3,1.1,4.8,1.6c1.7,0.4,3.3,0.6,4.8,0.6c1.4,0,2.2-0.4,2.2-1.2c0-0.2,0-0.5,0.1-0.9c0-0.4,0.1-0.9,0.2-1.6
		c0.9,1.5,1.8,2.8,3,3.7c1.1,0.9,1.9,1.1,2.5,0.6c3.5-3.3,7.3-7.2,11.7-11.9c4.3-4.7,8.8-9.7,13.5-15.1s9.4-11.1,14.1-17
		c4.8-5.9,9.4-11.7,13.8-17.4c4.5-5.7,8.7-11.1,12.6-16.3C89.4,33.5,92.8,29,95.7,25.1z M6.4,88.2c-0.3,1.2-0.6,2.3-0.9,3.5
		c-0.3,1.1-0.6,2.3-0.9,3.5s-0.5,2.3-0.7,3.3c-0.1,0.5-0.2,1-0.3,1.5s-0.2,1-0.3,1.5s-0.2,1-0.3,1.4c-0.1,0.5-0.1,1-0.1,1.4
		c-0.1,0.5-0.2,0.9-0.2,1.2s-0.1,0.7-0.2,1.1c0,0.4,0,0.7-0.1,1.1c0,0.3-0.1,0.6-0.1,0.8c-0.1,0.4-0.1,0.8-0.1,1.2v-1.2
		c0-0.3,0-0.6,0.1-0.9s0.1-0.6,0.1-1s0-0.8,0.1-1.2c0-0.4,0.1-0.8,0.1-1.3c0.1-0.5,0.2-0.9,0.2-1.4c0-0.4,0.1-0.9,0.2-1.4
		c0.1-0.5,0.2-1,0.3-1.5s0.2-1.1,0.3-1.7C3.8,97,4,95.9,4.3,94.8c0.3-1.2,0.5-2.3,0.7-3.5c0.3-1.1,0.6-2.3,0.9-3.5s0.6-2.3,0.9-3.3
		c0.3-1.1,0.6-2.1,0.9-3c0.3-1,0.6-1.9,0.9-2.7c0.2-0.9,0.4-1.6,0.6-2.3c0.2-0.7,0.5-1.2,0.6-1.7c0.1-0.2,0.1-0.4,0.1-0.6
		s0-0.4,0.1-0.6c0-0.2,0-0.3,0.1-0.4L8.7,79c-0.2,0.9-0.4,1.8-0.7,2.7c-0.3,1-0.5,2-0.7,3C6.9,86,6.7,87.1,6.4,88.2z M14.6,64.9
		c-0.1,0.4-0.2,0.9-0.3,1.4c-0.1,0.6-0.2,1.2-0.4,1.9c-0.4,1.3-0.8,2.8-1.3,4.5c-0.5,1.6-1,3.4-1.4,5.2c-0.5,1.7-0.9,3.4-1.4,5
		S9,86,8.6,87.4c-0.4,1.1-0.7,2.2-0.9,3.2c0.1-0.4,0.2-0.8,0.2-1.4c0-0.5,0.2-1.1,0.4-1.8s0.4-1.4,0.5-2.2s0.3-1.6,0.5-2.4
		s0.4-1.6,0.7-2.4c0.3-0.9,0.5-1.7,0.7-2.6c0.2-1,0.4-1.9,0.7-2.7c0.3-0.9,0.5-1.7,0.7-2.4c0.2-0.8,0.4-1.5,0.6-2.3
		c0.2-0.8,0.5-1.5,0.6-2.2l1.4-4.3C14.8,64.2,14.7,64.5,14.6,64.9z M89.6,25.6c0.2-0.3,0.4-0.6,0.6-1s0.5-0.8,0.8-1.2
		c0.3-0.5,0.6-0.9,0.9-1.2s0.6-0.7,0.9-1.2c0.4-0.5,0.7-0.9,1-1.3s0.6-0.8,0.9-1.2c0.3-0.5,0.6-0.9,0.9-1.1c0.3-0.3,0.5-0.6,0.7-1
		c0.2-0.3,0.4-0.6,0.6-0.8s0.5-0.5,0.6-0.6c0.2-0.2,0.3-0.4,0.4-0.6c-0.1,0.2-0.2,0.4-0.4,0.7c-0.2,0.2-0.4,0.4-0.5,0.7
		s-0.3,0.6-0.5,0.9c-0.2,0.3-0.4,0.6-0.7,0.9c-0.3,0.3-0.5,0.7-0.7,1.2c-0.3,0.4-0.6,0.8-0.9,1.2s-0.6,0.8-1,1.3
		c-0.3,0.5-0.6,0.9-0.9,1.2s-0.6,0.7-0.9,1.2c-0.3,0.4-0.6,0.7-0.9,1.1c-0.3,0.3-0.5,0.6-0.7,0.9c-0.3,0.4-0.5,0.7-0.7,0.9
		s-0.4,0.4-0.6,0.6s-0.3,0.4-0.4,0.6L89.6,25.6z M80.1,42.8c-0.5,0.6-0.9,1.2-1.3,1.7s-0.8,1-1.2,1.4c0.3-0.4,0.6-0.9,1-1.4
		s0.8-1.1,1.2-1.7s1-1.4,1.7-2.3c0.6-0.8,1.2-1.6,1.8-2.6c0.6-1,1.3-2,2.1-3c0.8-1.1,1.5-2.1,2.3-3.2c0.8-1.1,1.5-2.1,2.3-3.2
		c0.9-1.1,1.7-2.1,2.4-3.2c0.8-1.1,1.5-2.1,2.3-3c1.7-2.2,3.1-4,4.2-5.5c0.6-0.8,1.1-1.5,1.7-2.1c0.5-0.6,1-1.2,1.4-1.7
		s0.8-1,1.2-1.4c-0.3,0.4-0.6,0.9-1,1.4s-0.8,1.1-1.2,1.8c-0.4,0.7-0.9,1.5-1.5,2.2c-0.6,0.8-1.2,1.6-1.9,2.5
		c-0.7,0.9-1.4,1.9-2.2,3c-0.8,1.1-1.5,2.1-2.3,3.2s-1.5,2.2-2.3,3.2C90,30,89.2,31,88.4,32s-1.6,2-2.4,3.1
		c-1.3,1.9-2.7,3.7-4.2,5.5C81.2,41.5,80.6,42.2,80.1,42.8z"/>
	<path class="st0" d="M444.1,30.4c0.7,0.9,1.4,1.7,2.2,2.4c0.7,0.7,1.3,1,1.8,1s1.4-0.8,2.7-2.4c1.3-1.6,2.7-3.4,4.2-5.3
		s2.7-3.8,3.7-5.5c1.1-1.7,1.6-2.8,1.6-3.2s-0.4-1.2-1.1-2.4s-1.6-2.4-2.5-3.7c-1-1.3-2-2.5-3.1-3.5c-1.1-1.1-2-1.6-2.8-1.6
		c-0.7,0-1.6,0.9-2.7,2.7s-2.2,3.9-3.2,6.1c-1,2.3-1.8,4.4-2.5,6.5s-1,3.4-1,4c0.1,0.5,0.4,1.2,0.9,2.2
		C442.7,28.6,443.3,29.5,444.1,30.4z"/>
	<path class="st0" d="M522.3,70.1c-0.9-1.2-1.9-2.2-3-2.7l-0.7-0.3c-1.8-0.8-3.2-0.4-4,1c-0.4,0.7-1.1,2-2.2,4.1
		c-1.1,2.1-2.5,4.5-4.3,7.3s-4,5.8-6.4,8.9s-5.2,5.9-8.4,8.5c-3.1,2.6-6.6,4.7-10.3,6.4s-7.7,2.5-12,2.5c-1.4,0-2.6-0.5-3.5-1.4
		s-1.6-2-2.1-3.4c-0.5-1.3-0.8-2.9-1-4.5c-0.2-1.7-0.3-3.3-0.3-5c0-4.5,1.1-9.4,3.2-14.7c1.2,1.2,2.8,2.2,4.5,3.1
		c1.8,0.9,3.9,1.3,6.4,1.3c3.5,0,6.7-0.9,9.8-2.7s5.8-4,8.1-6.8c2.4-2.7,4.2-5.8,5.6-9.1c1.4-3.3,2.1-6.5,2.1-9.4c0-1,0-1.6-0.1-2
		c0.2,0.1,0.5,0.1,0.9,0.1s0.5-0.8,0.4-2.4c-0.1-1.6-0.7-3.4-1.8-5.3c-1.1-2-2.6-3.7-4.7-5.3s-4.8-2.4-8.3-2.4
		c-2.7,0-5.4,0.8-8.3,2.4c-2.8,1.6-5.6,3.7-8.4,6.3s-5.4,5.6-7.9,9.1s-4.7,7-6.6,10.7c-1.2,2.3-2.2,4.7-3.1,7
		c-0.9,1.8-2,3.8-3.1,5.9c-2.2,4.1-4.7,7.9-7.4,11.6s-5.7,6.7-9,9.3c-3.3,2.5-6.8,3.8-10.5,3.8c-0.7,0-0.6-1.2,0.1-3.6
		s1.8-5.4,3.2-9.1c1.4-3.6,3.1-7.6,4.9-12s3.6-8.4,5.2-12.2c1.6-3.8,3-7.1,4.1-9.8s1.7-4.3,1.7-4.7c0-1.1-0.4-2.3-1.2-3.8
		s-1.7-2.9-2.7-4.2c-1.1-1.3-2.1-2.3-3.2-3s-1.9-0.7-2.5,0c-0.2,0.3-0.9,1.7-2.2,4.2c-1.2,2.5-2.7,5.7-4.4,9.6
		c-1.7,3.8-3.5,8.1-5.4,12.8c-0.1,0.1-0.1,0.3-0.2,0.4c0,0.1-0.1,0.1-0.1,0.1c-0.9,1.5-1.9,3.2-3.1,5.1s-2.6,3.6-4.1,5.2
		s-3.2,2.9-5,4s-3.8,1.7-5.9,1.7c-1.1,0-1.7-0.4-2-1.3c1.2-1.9,2.2-3.8,3.2-5.5c1-1.8,1.9-3.5,2.7-5.3c0.6-1.2,0.9-2.4,0.9-3.9
		c0-1.4,0-2.9-0.2-4.5c0.9-1.8,1.8-3.6,2.7-5.3s1.7-3.2,2.4-4.6c0.7-1.4,1.2-2.6,1.7-3.6s0.6-1.8,0.6-2.2c0-1.1-0.3-2.2-0.8-3.5
		s-1.2-2.5-2.1-3.7s-1.9-2.1-3-2.9c-1.2-0.8-2.3-1.1-3.5-1.1c-0.5,0-1.2,0.7-2.3,2s-2.2,3.1-3.5,5.2c-1.3,2.1-2.6,4.5-4,7.1
		s-2.7,5.3-3.8,8c-1.2,2.7-2.1,5.3-2.8,7.7c-0.7,2.4-1.1,4.5-1.1,6.1c0,0.8,0,1.5,0.1,2.2s0.2,1.5,0.4,2.2c-2.3,3.4-4.7,6.6-7.3,9.8
		c-2.5,3.2-5.2,6-7.8,8.5c-2.7,2.5-5.4,4.5-8,6s-5.2,2.2-7.7,2.2c-0.7,0-1-0.6-1-1.9c0-3.8,0.6-7.8,1.9-11.8c1.2-4,2.8-8,4.8-11.8
		c1.9-3.8,4-7.5,6.2-11s4.3-6.6,6.2-9.4c1.9-2.7,3.5-5,4.8-6.8c1.2-1.8,1.9-2.9,1.9-3.4c0-0.6-0.3-1.5-0.9-2.7s-1.3-2.5-2.2-3.7
		s-1.9-2.3-3-3.2s-2.1-1.4-3.1-1.4c-0.7,0-1.8,1-3.5,3c-1.6,2-3.5,4.6-5.5,7.9c-2,3.2-4.2,6.9-6.4,10.9c-1.9,3.5-3.7,7-5.3,10.6
		c-0.4,0.6-1,1.5-1.6,2.6c-1.1,1.9-2.4,4.2-4,6.8s-3.3,5.3-5.2,8.2s-3.8,5.5-5.8,7.9s-4.1,4.4-6.1,6c-2.1,1.6-4,2.4-5.8,2.4
		c-0.6,0-0.7-0.6-0.4-1.7c0.3-1.2,0.8-2.6,1.4-4.4c0.7-1.8,1.5-3.7,2.4-5.8c1-2.1,1.8-4,2.7-5.9c0.8-1.9,1.5-3.5,2.2-4.8
		c0.6-1.3,0.9-2.2,0.9-2.4c0-0.5-0.4-1.3-1.3-2.6c-0.9-1.2-1.8-2.5-3-3.8s-2.2-2.4-3.2-3.5s-1.8-1.5-2.2-1.5s-1,0.6-1.7,1.9
		c-1.1,1.3-2.4,3.2-4.2,5.5c-1.7,2.4-3.7,4.9-6,7.6s-4.7,5.5-7.3,8.4s-5.2,5.5-7.7,7.8c-2.5,2.4-5.1,4.3-7.6,5.8s-4.8,2.2-6.8,2.2
		c-2.2,0-3.3-1.3-3.3-3.9c0-3.2,0.8-6.7,2.5-10.6c0.8-1.8,1.7-3.6,2.7-5.4c0.8-1.3,1.6-2.7,2.3-3.9c0.5-0.8,1-1.7,1.6-2.5
		c2.7-3.9,5.7-7.8,9.1-11.4c3.4-3.7,6.9-7,10.4-9.9s6.8-5.2,10-6.9s5.9-2.6,8.2-2.6c1.6,0,2.8,0.4,3.6,1.2s1.4,1.7,1.8,2.7
		s0.9,1.9,1.3,2.7s1.1,1.2,2.1,1.2c0.9,0,1.3-1.1,1.3-3.2c0-2.1-0.5-4.4-1.4-6.9c-1-2.5-2.4-4.8-4.5-6.9c-2-2.1-4.6-3.2-7.6-3.2
		c-2.6,0-5.7,0.9-9.4,2.7s-7.4,4.2-11.4,7.3c-3.9,3-7.8,6.5-11.7,10.5c-3.2,3.4-6.1,6.9-8.8,10.5c-0.1,0.1-0.2,0.1-0.2,0.3
		c0,0.1-0.1,0.1-0.1,0.2c-0.4,0.5-0.8,1-1.2,1.6c-2.7,3.8-4.9,7.6-6.6,11.5c-2.7,4.1-5.5,7.7-8.3,11s-5.6,5.9-8.4,7.8
		s-5.3,2.9-7.6,2.9c0-1.4,0.5-3.5,1.6-6.3c1.1-2.7,2.4-5.8,4-9.1s3.3-6.9,5.1-10.6c1.8-3.7,3.5-7.2,5.1-10.6s2.9-6.4,4-9.1
		c1.1-2.7,1.6-4.8,1.6-6.3c0-1.8-0.3-3.5-0.9-5s-1.4-2.9-2.2-4c-0.9-1.1-1.8-2-2.7-2.7c-0.9-0.7-1.7-1.2-2.2-1.5
		c-0.2-0.1-0.4-0.1-0.6-0.1l-0.3-0.1c-0.2,0-0.3,0-0.3,0.1s0,0.1-0.1,0.1c-0.8,0.5-2.2,1.8-4.2,3.9c-2.1,2.1-4.5,4.7-7.2,7.8
		s-5.7,6.5-8.9,10.2s-6.2,7.2-9.2,10.7c1.1-2.5,2.1-4.9,3.1-7.3c1-2.3,1.9-4.5,2.7-6.4s1.4-3.6,1.8-5s0.6-2.4,0.6-3
		c0-1.2-0.3-2.4-0.9-3.8c-0.6-1.4-1.4-2.7-2.3-3.9s-1.9-2.2-2.9-2.9c-1-0.8-1.9-1.2-2.7-1.2c-0.2,0-0.4,0.1-0.6,0.3
		c-1,0.7-2.7,2.3-5.1,4.8s-5.3,5.5-8.6,9s-6.8,7.4-10.5,11.6s-7.4,8.4-10.9,12.5c1.7-3.9,3.4-7.9,5.1-11.8s3.2-7.5,4.6-10.8
		s2.5-6,3.3-8.1c0.8-2.2,1.2-3.5,1.2-4c0-0.9-0.5-1.9-1.6-3.1c-1.1-1.2-2.2-2.2-3.4-3.1c-1.2-0.9-2.3-1.4-3.4-1.6
		c-1.1-0.2-1.6,0.3-1.6,1.4c0,0.4-0.5,1.7-1.4,4s-2.1,5.1-3.5,8.6s-3.1,7.3-5,11.6c-1.6,3.5-3.1,7.2-4.7,10.8c-2,4.6-5,9.5-9,14.8
		s-9,10-14.9,13.9c0.1-0.8,0.2-1.6,0.2-2.4c0-0.9,0.1-1.8,0.1-2.9c0-2.5-0.8-4.7-2.4-6.7s-3.7-3.7-6.2-5.2s-5.2-2.8-8.1-3.9
		c-2.9-1.1-5.5-2-8-2.7c-2.4-0.7-4.5-1.3-6.1-1.8S130,69.3,130,69c0.1-1.7,0.9-3.5,2.4-5.2s3.4-3.4,5.5-5c2.2-1.6,4.5-3.1,7-4.5
		c2.5-1.3,4.8-2.5,6.9-3.4s3.9-1.5,5.3-1.8s2.1-0.2,2.1,0.1c-0.1,0.7-0.5,1.7-1.2,3s-1.4,2.8-2.2,4.3s-1.5,3-2.2,4.3s-1.1,2.4-1.2,3
		c-0.1,0.7,0.3,1.2,1.1,1.6s1.7,0.6,2.7,0.8c1,0.1,2,0.2,3,0.2s1.7,0,2.1,0c0.3,0,0.9-0.5,1.7-1.6c0.9-1.1,1.8-2.4,2.7-4
		c1-1.6,1.8-3.3,2.6-5.1s1.2-3.5,1.3-4.9s0-3.1-0.2-5s-0.7-3.6-1.4-5.3s-1.6-3.1-2.7-4.2c-1.1-1.1-2.5-1.7-4.1-1.7s-3.7,0.4-6.3,1.1
		c-2.5,0.7-5.3,1.7-8.3,3s-6,2.9-8.9,4.8c-3,1.9-5.7,4.1-8.2,6.5s-4.6,5-6.3,7.8c-1.7,2.8-2.7,5.9-3,9.1c-0.3,3.6,0.4,6.5,2,8.8
		s3.8,4.2,6.5,5.7s5.6,2.7,8.8,3.6s6.1,1.8,8.9,2.5c2.7,0.8,5,1.6,6.8,2.4c1.8,0.9,2.6,2,2.5,3.3c-0.2,1.7-1.1,3.2-2.7,4.5
		c-1.6,1.3-3.5,2.3-5.8,3.1c-2.3,0.8-4.7,1.2-7.3,1.3c-2.6,0.1-5-0.2-7.2-0.9s-3.9-1.9-5.2-3.6s-1.8-3.9-1.7-6.7
		c0-0.3-0.2-0.5-0.5-0.5s-0.7,0.1-1.2,0.6c-0.5,0.4-0.9,1.2-1.4,2.2c-0.4,1.1-0.7,2.5-0.9,4.5c-0.2,1.9,0,3.9,0.4,6
		c0.5,2.1,1.3,4,2.5,5.8c1.2,1.7,2.8,3.1,4.8,4.2c2,1.1,4.4,1.7,7.3,1.7c0.7,0,1.3,0,1.9-0.1s1.3-0.1,1.9-0.2
		c7.2-0.1,13.7-1.5,19.4-4.2c3.5-1.6,6.8-3.6,9.8-5.7c0,0.5,0.4,1.2,1.1,2.2c0.7,1.1,1.6,2.1,2.6,3.2s2.1,2.1,3.2,3
		c1.2,0.9,2.2,1.3,3,1.3s1.9-1.2,3.4-3.6s3.8-5.9,7-10.5s7.4-10.3,12.7-17.1c5.3-6.8,12.3-14.6,20.8-23.4c-2.2,4.7-4.5,9.5-7,14.4
		c-2.4,4.9-4.7,9.4-6.8,13.5s-3.9,7.7-5.3,10.6s-2.1,4.8-2.1,5.5c0,1.2,0.5,2.5,1.4,3.7s2,2.4,3.2,3.4s2.4,1.8,3.6,2.4
		s2,0.9,2.6,0.9c0.5,0,1.6-1.6,3.3-4.8s4.3-7.4,7.7-12.7c3.4-5.3,7.8-11.4,13-18.4c5.3-6.9,11.7-14.2,19.3-21.7
		c-1.8,4-3.8,8.2-6,12.5s-4.3,8.4-6.3,12.2c-2,3.9-3.6,7.5-4.9,10.9s-1.9,6.2-1.9,8.5c0,1.1,0.5,2.5,1.4,4c1,1.5,2.1,3,3.5,4.5
		c1.3,1.4,2.8,2.6,4.4,3.6s3,1.4,4.4,1.4c3.8,0,7.8-1.4,11.7-4.2c3.8-2.6,7.4-5.9,10.8-9.8c1.1,2.1,2.5,4.1,4.1,6
		c2,2.3,4.1,4.2,6.5,5.8c2.4,1.6,4.7,2.4,7,2.4c1.4,0,3-0.4,4.8-1.2c1.8-0.8,3.6-1.9,5.6-3.2c2-1.3,4-2.9,6-4.7
		c2.1-1.8,4.1-3.7,6.1-5.7v1.2c0,1.1,0.5,2.4,1.4,3.9s2.1,3,3.5,4.5c1.4,1.4,2.9,2.7,4.4,3.7c1.5,1.1,2.9,1.6,4.2,1.6
		c2.3,0,4.7-0.9,7.3-2.6c2.5-1.7,5.1-3.9,7.6-6.6c2.2-2.3,4.3-4.9,6.4-7.6c0.1,0.4,0.2,0.7,0.4,1.1c1.2,2.8,2.7,5.4,4.4,7.7
		c1.7,2.3,3.6,4.2,5.5,5.7s3.6,2.2,5,2.2c2.6,0,5.4-0.8,8.3-2.3s5.9-3.6,8.9-6.1s6-5.5,8.9-8.8s5.7-6.7,8.3-10.3
		c2.6,2.1,4.8,3.2,6.6,3.2c3.7,0,6.8-0.4,9.5-1.1c-0.2,0.8-0.5,1.5-0.7,2.3c-1.1,3.8-1.6,6.8-1.6,8.9c0,1.9,0.7,3.7,2,5.4
		c1.3,1.7,2.9,3.2,4.7,4.5s3.6,2.4,5.3,3.2c1.8,0.8,3.1,1.2,4.1,1.2c3.1,0,6.1-0.9,9.2-2.6s6-3.9,8.9-6.6c2.8-2.6,5.4-5.6,7.8-8.8
		c0.3-0.4,0.5-0.7,0.8-1.1c1.5,3.4,3.3,6.6,5.6,9.3c2.4,2.8,5,5.2,7.8,7s5.7,2.7,8.5,2.7c4.1,0,8.1-0.9,12-2.7
		c3.9-1.8,7.6-4.1,11-6.8c3.5-2.8,6.6-5.8,9.5-9.1c2.9-3.3,5.4-6.5,7.4-9.6c2.1-3.1,3.7-5.8,4.8-8.3c1.2-2.4,1.7-4.1,1.7-5.1
		C523.6,72.8,523.2,71.4,522.3,70.1z M236.6,56.1c0.1-0.2,0.2-0.4,0.2-0.7s0.2-0.6,0.4-1s0.3-0.8,0.4-1.2s0.2-0.8,0.4-1.3
		s0.3-0.9,0.4-1.4c0.1-0.4,0.2-0.9,0.4-1.4c0.1-0.5,0.2-1,0.2-1.4c0-0.5,0.1-1,0.1-1.4c0-0.6-0.1-1-0.1-1.3c0-0.4-0.1-0.8-0.3-1.2
		s-0.3-0.7-0.4-1c0-0.3-0.2-0.5-0.4-0.7c-0.1-0.1-0.1-0.2-0.1-0.4v-0.1c0.1,0,0.1,0.1,0.1,0.1c0,0.2,0,0.3,0.1,0.4
		c0.3,0.3,0.6,0.8,0.9,1.6c0.1,0.2,0.2,0.6,0.4,1.2c0.1,0.2,0.1,0.4,0.1,0.6c0,0.2,0,0.5,0.1,0.8c0,1.1-0.1,2.1-0.4,3
		c-0.2,1-0.5,1.9-0.9,2.7c-0.4,0.9-0.7,1.7-1,2.4c-0.2,0.4-0.3,0.7-0.4,1S236.6,55.9,236.6,56.1c-0.2,0.3-0.3,0.5-0.4,0.6
		C236.5,56.7,236.5,56.4,236.6,56.1z M155.1,37.6c0,0,0.1-0.1,0.2-0.1h0.1c0,0.1,0,0.1-0.1,0.1h-0.4C154.9,37.7,155,37.7,155.1,37.6
		z M123.2,62.2c-0.2,0.3-0.4,0.7-0.6,1.3s-0.3,1-0.4,1.2c-0.1,0.3-0.1,0.6-0.1,1c-0.1,0.4-0.2,0.7-0.2,0.9s-0.1,0.5-0.1,0.6
		c0-0.6,0-1.1,0.1-1.6c0-0.2,0-0.4,0.1-0.5c0-0.1,0.1-0.3,0.1-0.5l0.4-1.3c0.1-0.7,0.5-1.6,1.2-2.7c0.3-0.5,0.6-1,0.9-1.5
		s0.6-1,1-1.5s0.8-1,1.2-1.6c0.4-0.6,0.9-1.1,1.4-1.6c2-2.2,4.2-4.2,6.5-5.9c1.2-0.9,2.3-1.7,3.5-2.5s2.4-1.6,3.7-2.4
		c1.2-0.8,2.3-1.4,3.4-1.9s2.2-1,3.2-1.5c1.1-0.5,2-0.9,2.8-1.2s1.6-0.6,2.2-0.8c0.3-0.1,0.6-0.1,0.8-0.2c-0.2,0.1-0.5,0.2-0.8,0.4
		c-0.6,0.2-1.3,0.5-2.1,0.9s-1.8,0.8-2.8,1.3c-1.9,1-4.1,2.2-6.6,3.6c-2.4,1.4-4.8,3.1-7.1,4.9c-1.2,1-2.3,1.9-3.4,2.8
		s-2.1,1.9-3.1,3l-2.6,3c-0.4,0.5-0.7,1-1,1.5s-0.6,1-0.9,1.5C123.6,61.2,123.3,61.7,123.2,62.2z M128.2,57.6
		c-0.5,0.6-0.9,1.1-1.4,1.7s-0.8,1-1.2,1.5c-0.1,0.1-0.2,0.2-0.2,0.3c-0.1,0.1-0.1,0.2-0.2,0.3c0,0.1-0.1,0.2-0.3,0.4l-0.1,0.3
		c0,0.1-0.1,0.1-0.1,0.1c0-0.1,0-0.2,0.1-0.4s0.3-0.6,0.7-1.2c0.5-1.1,1.2-2.2,2.3-3.5l2.9-2.9c0.2-0.2,0.4-0.4,0.6-0.5
		s0.4-0.3,0.6-0.4c0.2-0.1,0.3-0.2,0.4-0.3l-0.4,0.4c-0.4,0.4-0.7,0.7-0.9,1c-0.4,0.5-0.8,1-1.3,1.4C129.2,56.5,128.7,57,128.2,57.6
		z M150.5,102.2c-0.2,0.1-0.4,0.2-0.6,0.3c-0.2,0.1-0.5,0.2-0.8,0.3c-0.3,0.2-0.8,0.4-1.6,0.6c-0.4,0.1-0.7,0.2-1,0.3
		c-0.3,0.1-0.6,0.2-1,0.3c-0.7,0.2-1.4,0.3-2.1,0.4s-1.5,0.2-2.2,0.3H139h-2.2c-0.3-0.1-0.6-0.1-0.9-0.1s-0.6,0-0.9-0.1
		c-0.5-0.1-1.1-0.2-1.9-0.4c-0.2-0.1-0.4-0.2-0.7-0.2s-0.5-0.1-0.7-0.2s-0.4-0.2-0.5-0.2s-0.3-0.1-0.5-0.2c-0.4-0.2-0.6-0.3-0.7-0.4
		l-0.1-0.1l0.9,0.4c0.2,0.1,0.6,0.2,1.2,0.4c0.2,0.1,0.4,0.1,0.6,0.1s0.5,0.1,0.8,0.1c0.3,0.1,0.6,0.1,0.9,0.1s0.6,0.1,0.9,0.1
		s0.6,0,0.9,0.1s0.7,0.1,1.1,0.1c0.6,0.2,1.2,0.2,2,0h2.2c0.8-0.1,1.5-0.2,2.2-0.3c0.7-0.1,1.4-0.2,2.2-0.3c0.7-0.2,1.3-0.4,1.9-0.5
		s1.2-0.3,1.7-0.5c0.6-0.2,1-0.4,1.3-0.6c0.6-0.2,1-0.3,1.2-0.4l0.6-0.3c-0.2,0.2-0.4,0.3-0.6,0.4
		C151.1,101.8,150.8,102,150.5,102.2z M192,58.7c0.6-1.3,1.2-2.7,1.7-4s1.1-2.7,1.6-4c0.6-1.2,1.1-2.4,1.6-3.6
		c0.5-1.2,1-2.3,1.4-3.3c0.5-1.1,0.9-2,1.2-2.9s0.6-1.6,0.8-2.2c0.3-0.7,0.5-1.3,0.7-1.9c0,0.2-0.1,0.4-0.1,0.6
		c-0.1,0.2-0.2,0.4-0.3,0.6c-0.1,0.2-0.2,0.4-0.3,0.7l-1.7,5.2c-0.5,1.1-0.9,2.2-1.4,3.3c-0.4,1.2-0.9,2.4-1.5,3.7
		c-0.5,1.3-1,2.7-1.6,4s-1.2,2.7-1.7,4c-0.6,1.3-1.2,2.7-1.7,4c-0.5,1.1-0.9,2.1-1.4,3.2c-0.1,0-0.2-0.1-0.3-0.1s-0.2,0-0.2,0
		C189.8,63.7,190.9,61.3,192,58.7z M194.9,58.8c0,0.1,0,0.3-0.1,0.5c-0.1,0.4-0.2,0.8-0.4,1.4c-0.2,0.5-0.4,1.1-0.6,1.8
		c-0.3,0.7-0.6,1.4-0.8,2.2c-0.2,0.8-0.6,1.5-0.9,2.3c-0.1,0.3-0.2,0.6-0.4,0.9c-0.3-0.3-0.5-0.5-0.8-0.7c0.1-0.2,0.2-0.4,0.3-0.6
		c0.4-0.8,0.7-1.5,1.1-2.2c0.3-0.7,0.6-1.4,0.9-2.1c0.3-0.6,0.6-1.1,0.8-1.6s0.5-0.9,0.6-1.3C194.7,59.1,194.7,58.9,194.9,58.8
		c0-0.1,0-0.3,0.1-0.4C194.9,58.5,194.9,58.7,194.9,58.8z M218.6,51.7c-0.5,0.5-1,1.1-1.5,1.8s-1.2,1.5-1.9,2.2
		c-1.4,1.6-3.1,3.5-5,5.6s-3.8,4.3-5.7,6.5c-1.9,2.2-3.8,4.4-5.7,6.5s-3.6,4-5.1,5.6c-0.8,0.8-1.4,1.5-2,2.2
		c-0.3,0.3-0.5,0.5-0.7,0.8c0.1-0.1,0.1-0.2,0.2-0.3c0.2-0.2,0.3-0.3,0.4-0.5c0.5-0.7,1.2-1.5,1.9-2.4c0.8-0.8,1.5-1.7,2.3-2.7
		s1.6-2,2.6-3.1c1.7-2,3.6-4.2,5.6-6.5c1-1.1,1.9-2.1,2.9-3.2s1.9-2.1,2.9-3.2c1-1.1,1.8-2,2.7-3c0.8-0.9,1.6-1.8,2.4-2.7
		c0.8-0.8,1.4-1.5,2-2.2s1.1-1.2,1.6-1.7l1.4-1.4C219.5,50.6,219.1,51.1,218.6,51.7z M218.6,75.3c-0.3,0.7-0.6,1.3-0.9,2
		s-0.7,1.4-1.1,2.2c-0.5,0.8-0.9,1.6-1.2,2.4c-0.3,0.9-0.7,1.7-1.2,2.4c-0.8,1.6-1.6,3.2-2.4,4.8s-1.6,3-2.2,4.2
		c-0.7,1.2-1.2,2.2-1.4,2.9c-0.2,0.4-0.4,0.8-0.6,1.2c0.1-0.4,0.2-0.8,0.4-1.2c0.3-0.7,0.7-1.7,1.3-3c0.3-0.7,0.6-1.4,0.9-2.1
		c0.3-0.7,0.7-1.5,1.1-2.2c0.4-0.8,0.8-1.6,1.2-2.4s0.8-1.7,1.3-2.5s0.9-1.6,1.2-2.4s0.7-1.6,1.2-2.4c0.8-1.7,1.5-3.1,2.2-4.2
		c0.3-0.6,0.6-1.1,0.9-1.6s0.5-0.9,0.7-1.3C219.6,73,219.2,74,218.6,75.3z M241.5,92.6c-0.1,0.2-0.2,0.4-0.2,0.7
		c-0.1,0.3-0.2,0.6-0.4,0.9c-0.1,0.5-0.3,1.2-0.7,2.2c-0.1,0.5-0.2,0.9-0.3,1.3s-0.2,0.8-0.3,1.3c-0.2,1-0.3,1.8-0.4,2.7
		c-0.1,0.8,0,1.6,0.2,2.4s0.3,1.2,0.4,1.4c0,0.2,0,0.3,0.1,0.3l0.1,0.1l-0.3-0.3c-0.1-0.2-0.2-0.4-0.3-0.6s-0.2-0.5-0.3-0.9
		c-0.3-0.7-0.4-1.4-0.4-2.3c0-0.5,0-0.9,0.1-1.4s0.1-0.9,0.2-1.4s0.2-0.9,0.3-1.4c0.1-0.4,0.2-0.9,0.4-1.4l0.9-2.2
		C241,93.2,241.3,92.8,241.5,92.6c0-0.1,0-0.2,0.1-0.2c0,0,0.1-0.1,0.1-0.2s0-0.1,0.1-0.1C241.7,92.1,241.6,92.3,241.5,92.6z
		 M248.9,52.5c-0.6,0.7-1.2,1.4-1.8,2.2c-0.7,0.7-1.3,1.3-1.9,2s-1.2,1.3-1.8,2c-0.6,0.8-1.1,1.4-1.7,2c-0.5,0.6-1,1.1-1.5,1.6
		c-0.5,0.6-0.9,1.1-1.4,1.5c-0.4,0.4-0.8,0.8-1.1,1.1l-0.9,0.9c0.2-0.3,0.5-0.6,0.9-1c0.3-0.3,0.6-0.6,0.9-1.1
		c0.3-0.4,0.7-0.9,1.2-1.5s1-1.1,1.5-1.7s1-1.2,1.5-2c0.7-0.7,1.3-1.3,1.9-2s1.2-1.4,1.9-2.2c0.6-0.8,1.2-1.5,1.8-2.1
		s1.2-1.3,1.8-2.1c0.6-0.7,1.2-1.3,1.7-1.9c0.6-0.6,1.1-1.1,1.6-1.6s0.9-1,1.4-1.4c0.4-0.5,0.8-0.9,1.1-1.1l0.9-0.9l-0.3,0.3
		c-0.1,0.1-0.2,0.2-0.2,0.3s-0.2,0.2-0.4,0.4c-0.3,0.3-0.6,0.7-0.9,1.2s-0.7,1-1.2,1.4c-0.5,0.6-1,1.2-1.5,1.7
		c-0.5,0.6-1.1,1.2-1.7,2C250.2,51.2,249.6,51.9,248.9,52.5z M255.8,46.2c-0.6,0.8-1.2,1.5-1.7,2.1c-0.6,0.6-1.1,1.2-1.6,1.7
		l-1.6,1.6c0-0.1,0.1-0.2,0.3-0.4c0.1-0.2,0.4-0.7,1-1.4c0.5-0.5,1-1.1,1.5-1.7s1.1-1.3,1.7-2c0.6-0.8,1.2-1.5,1.7-2.1
		c0.6-0.6,1.1-1.2,1.6-1.7c0.2-0.2,0.4-0.4,0.6-0.5s0.5-0.3,0.6-0.5c-0.2,0.2-0.4,0.4-0.5,0.6c-0.1,0.2-0.3,0.5-0.5,0.6
		c-0.5,0.5-1,1.1-1.5,1.7C256.9,44.9,256.4,45.5,255.8,46.2z M248.9,77.4c-0.4,0.9-0.8,1.7-1.2,2.6c-0.5,0.8-0.9,1.5-1.3,2.3
		s-0.8,1.5-1.2,2.3c-0.4,0.7-0.7,1.3-1,1.8s-0.5,1-0.7,1.4c0.2-0.4,0.4-0.8,0.6-1.4c0.2-0.5,0.5-1.2,0.9-1.9c0.7-1.4,1.4-3,2.2-4.8
		c0.5-0.8,0.9-1.6,1.3-2.5s0.8-1.8,1.3-2.7c0.5-1,0.9-1.9,1.4-2.7c0.4-0.9,0.9-1.7,1.4-2.6l2.3-4.6c0.4-0.7,0.7-1.2,1-1.7
		c0.3-0.5,0.5-1,0.7-1.4c-0.2,0.5-0.4,1-0.6,1.5s-0.5,1.1-0.8,1.8c-0.3,0.8-0.6,1.5-1,2.3s-0.8,1.5-1.2,2.3
		c-0.5,0.9-0.9,1.8-1.3,2.7s-0.8,1.8-1.3,2.7C249.8,75.7,249.4,76.6,248.9,77.4z M316.4,42.5c-0.3,0.2-0.6,0.4-1,0.6
		c-0.5,0.2-0.9,0.4-1.3,0.7s-0.8,0.6-1.3,0.9c-0.5,0.4-1,0.7-1.4,1s-1,0.6-1.4,1c-1.1,0.8-2,1.5-2.9,2.2s-1.7,1.3-2.4,1.9
		c-0.8,0.6-1.3,1-1.7,1.3c0.2-0.2,0.4-0.4,0.6-0.6c0.2-0.2,0.6-0.6,0.9-0.9c0.3-0.3,0.6-0.6,1-0.9c0.4-0.3,0.8-0.7,1.3-1.1
		c0.5-0.4,0.9-0.7,1.4-1.1s0.9-0.7,1.4-1.1c0.5-0.4,1-0.7,1.5-1s1-0.6,1.5-0.9c0.5-0.4,0.9-0.7,1.4-0.9c0.4-0.2,0.8-0.5,1.2-0.6
		C315.7,42.8,316.1,42.6,316.4,42.5s0.6-0.3,0.8-0.5c0.1,0,0.2,0,0.3-0.1h0.1c-0.1,0.1-0.2,0.1-0.4,0.2
		C316.9,42.1,316.7,42.3,316.4,42.5z M291.3,59.3c1.7-1.9,3.5-3.7,5.3-5.3s3.6-3.2,5.5-4.8c1.9-1.5,3.8-2.9,5.5-4.2
		c1.8-1.2,3.5-2.4,5.1-3.3c0.8-0.5,1.5-0.9,2.3-1.3c0.8-0.4,1.5-0.7,2.3-1c0.3-0.2,0.6-0.3,0.9-0.4c0.3-0.1,0.6-0.2,0.9-0.4
		c0.4-0.1,0.7-0.2,1-0.3s0.6-0.2,0.9-0.3c0.2-0.1,0.4-0.1,0.7-0.1s0.5,0,0.7-0.1c0.2,0,0.4,0,0.5-0.1c0.1,0,0.3-0.1,0.5-0.1h0.6
		c-0.1,0-0.2,0-0.2,0.1s-0.2,0.1-0.4,0.1c-0.4,0-0.7,0-1,0.1c-0.6,0.2-1.1,0.3-1.4,0.4c-0.8,0.2-1.3,0.4-1.7,0.6
		c-0.3,0.2-0.6,0.3-0.9,0.4c-0.3,0.1-0.6,0.2-0.9,0.4c-1.2,0.6-2.7,1.4-4.5,2.6c-0.8,0.5-1.6,1-2.4,1.6c-0.9,0.6-1.7,1.2-2.6,1.9
		c-0.9,0.6-1.7,1.2-2.6,1.9s-1.7,1.5-2.6,2.2c-1.8,1.5-3.6,3.1-5.5,4.8c-1.8,1.7-3.6,3.4-5.2,5.3c-0.9,1-1.7,1.9-2.5,2.8
		c-0.8,0.9-1.6,1.9-2.4,2.8c-0.5,0.6-0.9,1.2-1.4,1.8c-0.3-0.2-0.6-0.4-0.9-0.6c0.5-0.6,0.9-1.2,1.4-1.8
		C288.1,63,289.7,61.1,291.3,59.3z M297.8,99.8c0.3-0.3,0.7-0.6,1.2-1c0.4-0.3,0.8-0.6,1.2-1s0.8-0.8,1.3-1.3l2.7-2.7
		c0.5-0.5,0.9-1,1.4-1.4s0.9-1,1.4-1.4c0.5-0.5,0.9-0.9,1.2-1.4c0.3-0.4,0.7-0.8,1.1-1.2c0.3-0.4,0.6-0.7,0.9-1s0.5-0.5,0.7-0.7
		l0.7-0.7c-0.2,0.2-0.4,0.4-0.6,0.7c-0.2,0.2-0.4,0.5-0.6,0.9s-0.5,0.8-0.8,1.1c-0.4,0.4-0.7,0.8-1.1,1.2c-0.3,0.4-0.7,0.9-1.2,1.4
		c-0.4,0.5-0.8,1-1.2,1.4c-0.4,0.5-0.9,1-1.4,1.4c-0.5,0.5-1,1-1.4,1.4c-0.5,0.5-1,0.9-1.4,1.3c-0.5,0.5-0.9,0.9-1.4,1.3
		s-0.8,0.7-1.2,1c-0.5,0.3-0.9,0.6-1.2,0.8c-0.3,0.2-0.6,0.5-0.9,0.6C297.3,100.3,297.5,100.1,297.8,99.8z M310.9,101.6
		c-0.3,0.3-0.6,0.6-1,0.9s-0.8,0.7-1.3,1.1c-0.5,0.5-1,0.9-1.5,1.4c-0.5,0.4-1.1,0.9-1.8,1.4s-1.3,1-1.9,1.5s-1.3,1-2.1,1.5
		c-0.4,0.2-0.7,0.4-1.1,0.7c-0.3,0.3-0.7,0.5-1.1,0.7s-0.7,0.4-1.1,0.6c-0.3,0.2-0.7,0.4-1.1,0.6s-0.7,0.4-1.1,0.5
		c-0.3,0.1-0.7,0.3-1.1,0.4c-0.3,0.2-0.6,0.3-0.9,0.4c-0.3,0-0.6,0.1-0.9,0.2s-0.6,0.1-1,0.1H291c-0.2,0.1-0.4,0.1-0.6,0.1
		s-0.5-0.1-0.6-0.1c-0.2-0.1-0.3-0.1-0.4-0.1s-0.2,0-0.4-0.1c0.1,0,0.2,0,0.4,0.1s0.3,0.1,0.5,0.1h1.3c0.4,0,0.7,0,0.9-0.1
		c0.4,0,0.7,0,0.9-0.1c0.3-0.1,0.6-0.2,0.9-0.2s0.6-0.2,0.9-0.4c0.4-0.2,0.7-0.4,1.1-0.5c0.3-0.1,0.7-0.3,1.1-0.5s0.7-0.4,1.1-0.6
		c0.3-0.2,0.6-0.4,0.9-0.6c0.4-0.2,0.7-0.4,1.1-0.7c0.3-0.3,0.7-0.5,1.1-0.7c0.8-0.5,1.5-1,2.1-1.4c0.6-0.5,1.3-1,1.9-1.4
		c0.7-0.5,1.3-0.9,1.9-1.4c0.6-0.4,1.1-0.9,1.6-1.4c0.5-0.4,0.9-0.7,1.4-1.1c0.4-0.3,0.8-0.6,1.1-0.8c0.4-0.3,0.7-0.5,0.9-0.7
		L310.9,101.6z M361.3,60.7c0-0.2,0.1-0.4,0.2-0.6c0.1-0.2,0.2-0.3,0.3-0.4L361.3,60.7z M358.9,65.5c-0.4,0.9-0.8,1.9-1.3,2.9
		c-0.1-0.1-0.1-0.1-0.2-0.2C357.9,67.2,358.3,66.3,358.9,65.5c0.4-0.9,0.8-1.7,1.2-2.4c0.4-0.7,0.7-1.3,0.9-1.8
		c0.2-0.2,0.3-0.4,0.4-0.6L358.9,65.5z M359.6,61.2c0.8-1.5,1.5-3,2.3-4.3c0.5-0.8,0.9-1.5,1.2-2.2s0.7-1.3,1.1-1.9
		c0.5-0.7,0.9-1.3,1.2-1.9c0.3-0.6,0.6-1.2,0.9-1.7c0.4-0.6,0.7-1.1,1-1.6s0.6-1,0.9-1.4c0.3-0.5,0.6-0.9,0.9-1.2s0.5-0.7,0.7-1.1
		c0.6-0.8,0.9-1.2,1-1.3c-0.1,0.2-0.2,0.4-0.4,0.6c-0.1,0.2-0.3,0.5-0.5,0.8c-0.5,0.7-1,1.4-1.5,2.3c-0.5,0.9-1.1,1.9-1.8,3
		c-0.3,0.6-0.6,1.1-0.9,1.7c-0.3,0.6-0.7,1.2-1.1,1.9s-0.7,1.3-1.1,1.9s-0.7,1.3-1.2,2.1c-0.8,1.4-1.5,2.9-2.2,4.4s-1.5,3-2.2,4.7
		c-0.3,0.6-0.6,1.2-0.8,1.8c-0.1-0.1-0.2-0.2-0.2-0.2c-0.1-0.1-0.2-0.1-0.3-0.2c0.3-0.6,0.5-1.2,0.8-1.7
		C358.1,64.2,358.8,62.7,359.6,61.2z M350.5,97c0,0,0-0.1,0.1-0.1c0,0.1,0.1,0.3,0.1,0.4c0,0.2,0,0.4,0.1,0.6
		C350.7,97.7,350.6,97.3,350.5,97z M376,102.7c-0.2,0.1-0.4,0.3-0.6,0.5c-0.3,0.2-0.6,0.4-0.9,0.7c-0.3,0.3-0.6,0.5-0.9,0.7
		c-0.4,0.2-0.7,0.4-1.1,0.7c-0.3,0.3-0.7,0.5-1.2,0.7c-0.8,0.5-1.5,0.9-2.3,1.2c-0.5,0.2-0.9,0.3-1.2,0.4s-0.7,0.1-1.1,0.2
		c-0.2,0.1-0.5,0.1-0.9,0.1c-0.2,0.1-0.4,0.1-0.7,0.1h-0.4c0.2,0,0.3,0,0.4-0.1h0.7c0.2-0.1,0.3-0.1,0.4-0.1s0.2,0,0.4-0.1
		c0.3,0,0.6-0.1,1-0.3c0.2-0.1,0.4-0.2,0.6-0.2s0.4-0.1,0.6-0.2c0.8-0.3,1.5-0.7,2.3-1.2c1.5-0.9,2.9-1.8,4-2.7
		c0.6-0.3,1-0.6,1.3-0.9C376.4,102.4,376.2,102.6,376,102.7z M377.5,97c-0.2,0.2-0.4,0.5-0.6,0.8s-0.5,0.6-0.9,0.9
		c-0.3,0.4-0.6,0.7-1,1.1c-0.4,0.3-0.8,0.7-1.3,1.1c-0.2,0.2-0.4,0.4-0.7,0.6s-0.5,0.4-0.7,0.6c-0.5,0.3-1,0.6-1.6,1
		c-1.2,0.7-2.3,1.2-3.3,1.6c-0.5,0.3-1,0.5-1.6,0.6c-0.3,0.1-0.6,0.1-0.8,0.1s-0.5,0-0.6,0.1c-0.3,0.1-0.5,0.1-0.7,0.1
		s-0.4,0-0.6,0.1h-1c-0.2,0-0.3,0-0.4-0.1c-0.1,0-0.2-0.1-0.3-0.1c0.3,0,0.5,0,0.7-0.1c0.4,0,0.7,0,0.9-0.1s0.4-0.1,0.6-0.1
		s0.5-0.1,0.6-0.3c0.5-0.1,0.9-0.2,1.4-0.4c0.4-0.2,0.9-0.4,1.4-0.6c0.8-0.4,1.3-0.7,1.6-0.9s0.6-0.3,0.8-0.4s0.5-0.2,0.8-0.4
		c0.5-0.3,1-0.6,1.5-0.9s1-0.6,1.5-0.9c0.5-0.4,0.9-0.7,1.3-1s0.8-0.6,1.2-0.9s0.7-0.6,1-0.8c0.3-0.2,0.5-0.5,0.7-0.6
		c0.1-0.1,0.2-0.1,0.3-0.1s0.2,0,0.3-0.1c0.1,0,0.1,0,0.1-0.1L377.5,97z M405,41.3c0.1-0.2,0.2-0.4,0.4-0.7c0.1-0.3,0.3-0.6,0.5-0.9
		c0.2-0.3,0.4-0.6,0.6-0.9c0.2-0.3,0.4-0.5,0.6-0.7c0.1-0.1,0.1-0.2,0.1-0.2s0-0.1,0.1-0.2c-0.1,0.1-0.1,0.2-0.1,0.3s0,0.2-0.1,0.3
		c-0.1,0.2-0.2,0.4-0.4,0.7c-0.1,0.3-0.3,0.6-0.5,0.9c-0.2,0.3-0.4,0.6-0.5,0.8s-0.3,0.5-0.5,0.6c-0.1,0.2-0.2,0.4-0.4,0.6L405,41.3
		z M401.5,47.4c-0.3,0.7-0.6,1.4-1,2.2s-0.8,1.5-1.2,2.3c-1,1.8-1.8,3.5-2.4,5c-0.5,0.9-0.9,1.7-1.2,2.6c-0.3,0.9-0.7,1.7-1.1,2.6
		c-0.7,1.5-1.2,3.1-1.7,4.6c-0.1,0.3-0.2,0.6-0.2,0.9s-0.1,0.6-0.2,0.9c-0.1,0.4-0.2,0.9-0.4,1.4c0,0.2,0,0.4-0.1,0.6
		s-0.1,0.3-0.1,0.4c0-0.4,0-0.7,0.1-1c0-1.1,0.2-2.2,0.6-3.5c0.2-0.8,0.4-1.5,0.6-2.3c0.2-0.8,0.6-1.5,0.9-2.3
		c0.3-0.9,0.6-1.7,1-2.6c0.4-0.9,0.8-1.8,1.2-2.7c0.5-0.9,0.9-1.7,1.3-2.6c0.4-0.9,0.8-1.7,1.3-2.4c0.4-0.8,0.8-1.5,1.2-2.2
		s0.8-1.4,1.2-2.1c0.4-0.6,0.7-1.1,1-1.6s0.5-0.9,0.7-1.3c0.2-0.4,0.4-0.7,0.6-0.9c-0.1,0.3-0.2,0.6-0.4,0.9
		c-0.2,0.4-0.4,0.8-0.7,1.4C402.1,46.2,401.8,46.8,401.5,47.4z M431,51.8c0.6-1.2,1.1-2.4,1.5-3.5s0.8-2,1.2-2.7l1.2-2.3h0.1
		c-0.1,0.2-0.2,0.4-0.3,0.7c-0.1,0.2-0.2,0.4-0.3,0.7s-0.2,0.6-0.4,1c-0.3,0.8-0.6,1.7-1,2.7c-0.4,1.1-0.9,2.3-1.4,3.6
		c-0.3,0.7-0.5,1.2-0.6,1.5s-0.2,0.6-0.3,0.9c-0.1,0.3-0.2,0.6-0.4,1c-0.1,0.4-0.4,1-0.8,1.7c-0.7,1.6-1.3,3.3-2,5
		c-0.6,1.5-1.2,3.1-1.8,4.6c-0.1-0.1-0.2-0.2-0.4-0.3s-0.4-0.2-0.6-0.2c1.2-3.1,2.3-5.7,3.1-7.6C428.8,56.7,429.9,54.4,431,51.8z
		 M413.1,81.9c-0.3,0.3-0.7,0.5-1.2,0.7s-0.9,0.4-1.3,0.5s-0.8,0.3-1.3,0.5c-0.9,0.3-1.7,0.4-2.4,0.4c-0.4,0.1-0.7,0.1-0.9,0.1
		s-0.5,0-0.6,0h-0.6c0.1,0,0.2,0,0.2-0.1c0,0,0.2-0.1,0.4-0.1c0.3,0,0.5,0,0.7-0.1c0.4,0,0.7,0,0.9-0.1c0.4-0.1,0.7-0.2,1.1-0.2
		c0.3-0.1,0.7-0.2,1.2-0.4c0.6-0.2,1-0.4,1.3-0.6c0.4-0.1,0.8-0.3,1.2-0.6c1.7-0.9,3.1-1.8,4.2-2.9c0.3-0.2,0.5-0.4,0.7-0.6
		s0.4-0.4,0.6-0.6l0.4-0.4l-0.3,0.6c-0.2,0.2-0.4,0.4-0.6,0.6s-0.4,0.4-0.6,0.7c-0.3,0.2-0.6,0.4-0.9,0.7c-0.3,0.3-0.6,0.6-1,0.9
		C413.8,81.3,413.4,81.6,413.1,81.9z M415.2,94.9c0.1-0.2,0.1-0.4,0.1-0.7s0.1-0.7,0.3-1.2c0.2-0.8,0.5-1.7,0.8-2.8
		c0-0.1,0-0.1,0.1-0.2c0.2-0.1,0.4-0.2,0.6-0.2c-0.1,0.2-0.1,0.4-0.2,0.5c-0.4,1.1-0.7,2-1,2.7c-0.4,1-0.7,1.8-0.9,2.4
		C415,95.4,415.1,95.2,415.2,94.9z M418.6,91.3l-1.7,5.2c-0.2,0.8-0.4,1.5-0.6,2.3s-0.4,1.5-0.6,2.2c-0.3,1.3-0.4,2.4-0.4,3.3
		c0,0.2,0,0.4,0,0.5c-0.1-0.2-0.2-0.3-0.2-0.5c0-0.5,0-1,0-1.5s0.1-1.1,0.3-1.8c0.1-0.8,0.2-1.5,0.4-2.3s0.4-1.5,0.6-2.3
		c0.2-0.9,0.4-1.7,0.7-2.6s0.6-1.7,0.9-2.6l0.7-2c0.2-0.1,0.4-0.1,0.6-0.2C419,89.7,418.8,90.5,418.6,91.3z M492.7,59
		c-0.2,0.4-0.4,0.8-0.5,1.3s-0.4,1.1-0.8,1.7c-0.2,0.3-0.4,0.6-0.5,0.9c-0.1,0.3-0.3,0.6-0.5,1s-0.4,0.7-0.7,1s-0.5,0.6-0.7,1
		c-0.3,0.4-0.6,0.7-0.9,1s-0.6,0.6-0.9,1c-0.4,0.3-0.7,0.6-1,0.9s-0.7,0.6-1.2,0.8l-1,0.9c-0.2,0.2-0.4,0.3-0.6,0.4
		c-0.2,0-0.4,0.2-0.6,0.4c-0.5,0.2-0.9,0.4-1.2,0.6c-0.3,0.2-0.7,0.4-1.2,0.6c-0.4,0.2-0.8,0.3-1.2,0.4c-0.4,0.1-0.8,0.2-1.2,0.4
		c-0.4,0.1-0.8,0.2-1.2,0.2c-0.4,0.1-0.7,0.1-1,0.2c-0.4,0-0.7,0-1,0.1s-0.6,0.1-0.9,0.1h-1.4h-1c0.4,0,0.7,0,1-0.1h1.4l1.7-0.4
		c0.7,0,1.4-0.1,2.2-0.4c0.4-0.2,0.8-0.3,1.2-0.4c0.4-0.1,0.8-0.2,1.2-0.4c0.8-0.3,1.5-0.7,2.3-1.2c0.2-0.2,0.4-0.3,0.6-0.4
		c0.2,0,0.4-0.2,0.6-0.4l1-0.9c0.4-0.2,0.7-0.5,1-0.8s0.6-0.6,1-0.9c0.3-0.3,0.6-0.6,0.9-0.9s0.6-0.6,0.9-0.9c0.6-0.8,1.1-1.4,1.4-2
		c0.6-0.8,1-1.3,1.2-1.7c0.4-0.7,0.7-1.2,0.9-1.7s0.5-0.9,0.6-1.3c0.1-0.2,0.1-0.4,0.1-0.5s0-0.3,0.1-0.4c0-0.1,0-0.2,0.1-0.3
		L492.7,59z M492.8,55.5c-1,2.9-2.3,5.6-4,8.1s-3.9,4.7-6.6,6.4s-6,2.6-9.9,2.6c-1.2,0-2.2-0.1-2.9-0.4c1.5-3.1,3.3-6.2,5.3-9.2
		s4.1-5.6,6.3-7.9c2.2-2.3,4.3-4.1,6.5-5.4c2.2-1.3,4.2-2,6-2c0.3,0,0.6,0,0.9,0.1c0.3,0,0.6,0.1,0.9,0.1
		C494.5,50.1,493.8,52.7,492.8,55.5z M465.3,56.4c0.1-0.2,0.2-0.4,0.4-0.7c0.4-0.5,0.8-1.1,1.3-1.9c0.5-0.8,1.1-1.6,1.9-2.4
		c0.8-0.9,1.6-1.8,2.4-2.7c0.8-1,1.8-1.9,2.8-2.9c0.6-0.5,1.1-1,1.7-1.4s1.1-1,1.7-1.4c0.7-0.5,1.3-0.9,1.9-1.3s1.2-0.8,2-1.2
		c1.3-0.8,2.7-1.3,4-1.7c0.8-0.3,1.5-0.5,2.2-0.6s1.4-0.2,2.1-0.3c1.3-0.1,2.7,0,4.2,0.3c0.2,0.1,0.3,0.1,0.4,0.1s0.2,0.1,0.4,0.1
		c0.6,0.2,0.9,0.3,1,0.3c0.4,0.2,0.6,0.3,0.7,0.4c0.4,0.2,0.7,0.3,0.9,0.3c0.5,0.3,0.9,0.6,1.3,0.9c0.4,0.3,0.8,0.6,1.3,0.8
		c0.3,0.4,0.6,0.7,0.9,0.9s0.6,0.5,0.8,0.6c0.3,0.4,0.6,0.8,1,1.2c0.1,0.2,0.2,0.3,0.3,0.4c-0.1,0-0.2-0.1-0.4-0.3
		c-0.2-0.1-0.4-0.2-0.5-0.4s-0.3-0.4-0.5-0.6c-0.3-0.2-0.6-0.4-0.9-0.7s-0.6-0.5-1-0.7c-0.9-0.7-1.7-1.2-2.6-1.6
		c-0.3,0-0.5-0.1-0.7-0.3c-0.2-0.1-0.3-0.1-0.4-0.1s-0.2-0.1-0.4-0.1c-0.2-0.1-0.3-0.1-0.4-0.1s-0.2,0-0.4-0.1c-0.2,0-0.3,0-0.4-0.1
		c-0.1,0-0.2-0.1-0.4-0.1c-0.7-0.2-1.3-0.3-1.9-0.3s-1.3,0-1.9,0c-1.5,0.2-2.9,0.5-4,1c-1.3,0.4-2.7,1-4,1.7
		c-0.6,0.4-1.2,0.7-1.8,1.1c-0.6,0.3-1.2,0.7-1.8,1.2s-1.2,0.9-1.7,1.4s-1.1,0.9-1.6,1.4s-1,0.9-1.4,1.4c-0.5,0.4-1,0.9-1.4,1.4
		c-0.5,0.5-0.9,0.9-1.3,1.3c-0.4,0.4-0.8,0.8-1.2,1.3c-0.8,0.8-1.4,1.5-2,2.2s-1.1,1.3-1.6,1.8C465.7,56.1,465.5,56.4,465.3,56.4
		c-0.1,0.2-0.2,0.4-0.3,0.6C465.1,56.8,465.2,56.6,465.3,56.4z M461.7,63c0.3-0.4,0.6-0.8,0.8-1.2s0.5-0.8,0.8-1.2s0.6-0.7,0.8-1.1
		c0.2-0.3,0.5-0.6,0.8-0.9c0.2-0.4,0.4-0.7,0.7-1s0.5-0.6,0.7-0.9c0.5-0.5,0.9-0.9,1.3-1.4c0.4-0.4,0.7-0.8,1-1.1
		c-0.2,0.4-0.5,0.8-0.9,1.2s-0.8,0.9-1.3,1.5l-1.3,1.7c-0.2,0.4-0.4,0.7-0.7,1.1c-0.3,0.3-0.5,0.7-0.7,1.1c-0.3,0.4-0.6,0.8-0.8,1.1
		c-0.2,0.4-0.5,0.8-0.8,1.2c-0.2,0.4-0.4,0.8-0.6,1.2s-0.5,0.8-0.6,1.3c-0.1,0.3-0.2,0.5-0.4,0.7c-0.2-0.1-0.3-0.2-0.5-0.2
		c0,0,0,0-0.1,0c0.1-0.3,0.2-0.5,0.4-0.8C460.8,64.6,461.3,63.8,461.7,63z M447.2,95.9c-0.6,0.8-1.1,1.3-1.6,1.6
		c0.3-0.4,0.7-1,1.3-1.7c0.3-0.4,0.6-0.8,0.9-1.2s0.6-0.8,0.9-1.3c0.4-0.5,0.7-1,1-1.4c0.3-0.5,0.6-1,1-1.4c0.4-0.5,0.7-1,1-1.4
		s0.6-1,0.9-1.4c0.1-0.1,0.1-0.2,0.2-0.3c0,0.3,0,0.6,0,0.9c-0.2,0.4-0.5,0.8-0.7,1.1c-0.3,0.5-0.6,1-1,1.4c-0.4,0.5-0.7,1-1,1.4
		c-0.3,0.5-0.6,1-1,1.4c-0.4,0.5-0.7,0.9-1.1,1.3C447.7,95.3,447.4,95.6,447.2,95.9z M451.8,92.1c-0.3,0.5-0.6,1-0.9,1.4
		c-0.3,0.5-0.6,0.9-0.9,1.2c-0.3,0.3-0.5,0.6-0.7,0.9c-0.2,0.2-0.3,0.3-0.4,0.3c0,0-0.1,0.1-0.2,0.1c0.2-0.2,0.3-0.4,0.4-0.6
		c0.2-0.2,0.4-0.5,0.6-0.8s0.5-0.7,0.8-1.2s0.6-1,0.9-1.4s0.6-1,0.9-1.6l0.5-0.9c0,0.3,0.1,0.5,0.1,0.8l-0.2,0.4
		C452.5,91.2,452.2,91.7,451.8,92.1z M492.9,102.8c-0.4,0.3-0.8,0.6-1.3,0.9c-0.5,0.4-1,0.7-1.7,1c-0.6,0.3-1.3,0.6-1.9,1l-2.2,0.9
		c-0.4,0.2-0.7,0.3-1.1,0.4c-0.3,0-0.7,0.2-1.1,0.4c-0.5,0.2-0.9,0.3-1.2,0.4s-0.7,0.1-1.1,0.2c-0.5,0.1-0.9,0.2-1.2,0.2
		s-0.7,0.1-1.1,0.2c-1,0.2-1.7,0.3-2.2,0.3c-0.5,0.1-1.1,0.1-1.9,0.1c-0.4,0.1-0.9,0.1-1.6,0.1H472h-0.9c0.1,0,0.2,0,0.4-0.1
		s0.3-0.1,0.5-0.1c0.5,0,0.9-0.1,1.3-0.1c0.7,0,1.2,0,1.6-0.1c0.3,0,0.6,0,0.9-0.1c0.3,0,0.6-0.1,1-0.1c0.4-0.1,1.1-0.2,2-0.4
		c0.4-0.1,0.8-0.2,1.2-0.2s0.8-0.1,1.2-0.2c0.4-0.2,0.7-0.3,1.1-0.4c0.3,0,0.7-0.2,1.1-0.4c0.5-0.1,0.9-0.2,1.2-0.3
		c0.3-0.1,0.7-0.2,1.1-0.4c0.4-0.2,0.7-0.3,1.1-0.4c0.3-0.1,0.7-0.2,1.1-0.4c0.7-0.2,1.3-0.5,1.9-0.8s1.2-0.6,1.7-0.8
		C492,103.2,492.4,103,492.9,102.8c0.4-0.3,0.7-0.5,1-0.7C493.7,102.3,493.3,102.5,492.9,102.8z"/>
	<path class="st0" d="M118.9,80c-0.8-1-1.6-1.6-2.4-2s-1.4-0.3-1.8,0.1c-1.9,2.9-4.2,6.3-6.9,10.1c-0.9,1.3-2,2.5-2.9,3.8
		c-2,2.4-4.2,4.3-6.5,6.1c-3.3,2.5-6.8,3.8-10.5,3.8c-0.7,0-0.6-1.2,0.1-3.6s1.8-5.4,3.2-9.1c1.4-3.6,3.1-7.6,4.9-12
		s3.6-8.4,5.2-12.2s3-7.1,4.1-9.8s1.7-4.3,1.7-4.7c0-1.1-0.4-2.3-1.2-3.8c-0.8-1.5-1.7-2.9-2.7-4.2c-1.1-1.3-2.1-2.3-3.2-3
		s-1.9-0.7-2.5,0c-0.2,0.3-0.9,1.7-2.2,4.2c-1.2,2.5-2.7,5.7-4.4,9.6c-1.7,3.8-3.5,8.1-5.4,12.8s-3.7,9.3-5.4,13.8
		c-1.7,4.5-3,8.7-4.1,12.5s-1.6,6.8-1.6,8.9c0,1.9,0.7,3.7,2,5.4c1.3,1.7,2.9,3.2,4.7,4.5c1.8,1.3,3.6,2.4,5.3,3.2
		c1.8,0.8,3.1,1.2,4.1,1.2c3.1,0,6.1-0.9,9.2-2.6s6-3.9,8.9-6.6c1.2-1.2,2.4-2.3,3.6-3.6c0.6-0.8,1.3-1.5,1.9-2.3
		c2.2-2.8,3.9-5.4,5.3-7.7c1.3-2.3,2.1-4,2.2-5.1c0.2-1.6,0-3.1-0.5-4.6C120.4,82.2,119.7,81,118.9,80z M84.9,78.6
		c-0.2,0.5-0.4,1-0.5,1.4c-0.1,0.5-0.3,1.1-0.5,1.7c-0.2,0.7-0.4,1.4-0.7,2.1c-0.3,0.7-0.6,1.5-0.9,2.4c-0.3,0.8-0.6,1.6-0.9,2.4
		c-0.3,0.9-0.5,1.7-0.7,2.6L79,96.4c-0.2,0.8-0.4,1.5-0.6,2.3s-0.4,1.5-0.6,2.2c-0.3,1.3-0.4,2.4-0.4,3.3c0,0.2,0,0.4,0,0.5
		c-0.1-0.2-0.2-0.3-0.2-0.5c0-0.5,0-1,0-1.5s0.1-1.1,0.3-1.8c0.1-0.8,0.2-1.5,0.4-2.3c0.2-0.8,0.4-1.5,0.6-2.3
		c0.2-0.9,0.4-1.7,0.7-2.6c0.3-0.9,0.6-1.7,0.9-2.6l1.7-5.2c0.6-1.5,1.2-3,1.7-4.3c0.2-0.7,0.4-1.3,0.6-1.8s0.5-1,0.6-1.4
		c0.2-0.4,0.3-0.8,0.4-1.2C85.2,77.8,85,78.2,84.9,78.6z M85.4,72.7c-0.7,1.7-1.3,3.4-1.9,5c-0.4,0.8-0.7,1.5-1,2.3
		s-0.6,1.5-0.9,2.3c-0.2,0.8-0.4,1.5-0.7,2.2c-0.3,0.7-0.5,1.4-0.7,2.1c-0.5,1.3-0.9,2.5-1.3,3.6s-0.7,2-1,2.7
		c-0.4,1-0.7,1.8-0.9,2.4c0-0.1,0.1-0.3,0.1-0.6c0.1-0.2,0.1-0.4,0.1-0.7s0.1-0.7,0.3-1.2c0.2-0.8,0.5-1.7,0.8-2.8s0.7-2.3,1.1-3.7
		c0.9-2.8,1.9-5.9,3.1-9.2c1.2-3.4,2.5-6.8,4-10.2c1.3-3.5,2.5-6.2,3.4-8.3s1.9-4.4,3.1-7c0.6-1.2,1.1-2.4,1.5-3.5s0.8-2,1.2-2.7
		l1.2-2.3H97c-0.1,0.2-0.2,0.4-0.3,0.7c-0.1,0.2-0.2,0.4-0.3,0.7c-0.1,0.3-0.2,0.6-0.4,1c-0.3,0.8-0.6,1.7-1,2.7
		c-0.4,1.1-0.9,2.3-1.4,3.6c-0.3,0.7-0.5,1.2-0.6,1.5s-0.2,0.6-0.3,0.9c-0.1,0.3-0.2,0.6-0.4,1c-0.1,0.4-0.4,1-0.8,1.7
		c-0.7,1.6-1.3,3.3-2,5s-1.3,3.5-2,5.2C86.8,69.2,86.1,71,85.4,72.7z M103.4,99.9c-0.6,0.7-1.2,1.2-1.7,1.5c0.3-0.4,0.8-0.9,1.4-1.7
		c0.3-0.4,0.6-0.7,1-1.1s0.7-0.8,1-1.2c0.4-0.5,0.8-0.9,1.1-1.4c0.3-0.5,0.7-0.9,1.1-1.4s0.8-0.9,1.1-1.4c0.3-0.5,0.6-0.9,0.9-1.4
		c0.6-0.9,1.2-1.8,1.9-2.5c0.2-0.4,0.4-0.7,0.6-1s0.4-0.6,0.6-0.8c0.2-0.3,0.4-0.5,0.5-0.7c-0.1,0.2-0.2,0.4-0.3,0.7
		c-0.2,0.2-0.4,0.5-0.5,0.8c-0.2,0.4-0.4,0.8-0.6,1.1c-0.2,0.4-0.5,0.8-0.8,1.3s-0.6,0.9-0.9,1.4s-0.6,0.9-0.9,1.4s-0.7,0.9-1.1,1.4
		s-0.8,0.9-1.1,1.4c-0.3,0.5-0.7,0.9-1.1,1.4s-0.8,0.9-1.1,1.2C104,99.3,103.7,99.6,103.4,99.9z M116.3,83.7
		c-0.2,0.4-0.4,0.8-0.6,1.3s-0.5,1-0.8,1.5c-0.3,0.6-0.6,1.1-1,1.7c-0.3,0.6-0.7,1.1-1,1.7c-0.4,0.6-0.8,1.2-1.2,1.8l-2.3,3.3
		c-0.4,0.5-0.8,0.9-1.2,1.4c-0.4,0.5-0.7,0.9-1,1.4s-0.6,0.8-0.9,1.1c-0.3,0.3-0.6,0.5-0.8,0.8c-0.2,0.2-0.3,0.3-0.4,0.3
		c0,0-0.1,0-0.2,0.1c0.2-0.2,0.4-0.4,0.5-0.6c0.2-0.2,0.4-0.4,0.7-0.8c0.3-0.3,0.5-0.7,0.9-1.2c0.3-0.5,0.7-0.9,1-1.4
		c0.4-0.5,0.7-1,1-1.5l2.3-3.3c0.4-0.7,0.8-1.3,1.2-1.8c0.4-0.6,0.7-1.1,1-1.7s0.7-1.1,1-1.6c0.4-0.5,0.7-1,0.9-1.5
		c0.2-0.5,0.5-0.9,0.7-1.2c0.3-0.3,0.5-0.6,0.7-0.9C116.6,83,116.5,83.4,116.3,83.7z"/>
</g>
</svg>
