<?xml version="1.0" encoding="utf-8"?>
<!-- Generator: Adobe Illustrator 20.0.0, SVG Export Plug-In . SVG Version: 6.00 Build 0)  -->
<svg version="1.1" id="Calque_1" xmlns="http://www.w3.org/2000/svg" xmlns:xlink="http://www.w3.org/1999/xlink" x="0px" y="0px"
	 viewBox="0 0 200 80" style="enable-background:new 0 0 200 80;" xml:space="preserve">
<style type="text/css">
	.st0{fill:#E26B1B;}
	.st1{fill:#434244;}
</style>
<title>spark-logo</title>
<g id="Calque_2">
	<g id="Isolation_Mode">
		<path class="st0" d="M163.6,40.5c-0.1-0.3-0.2-0.4-0.3-0.6L157.6,29c-0.2-0.3-0.2-0.7,0.1-0.9c3.1-3.6,6.1-7.1,9.1-10.7
			c0.1-0.1,0.2-0.3,0.2-0.5l-2.7,0.7l-11.1,3c-0.2,0.1-0.5,0-0.6-0.2l0,0l0,0l-6.3-10.5c-0.1-0.2-0.3-0.4-0.5-0.5
			c-0.2,0.9-0.3,1.9-0.5,2.8l-1.8,9.8c-0.1,0.4-0.2,0.7-0.2,1.1s-0.2,0.5-0.5,0.6l-13.1,4.1c-0.2,0.1-0.4,0.2-0.6,0.3l10.7,4.2
			c-0.1,0.1-0.2,0.2-0.3,0.2l-6.7,4.3c-0.2,0.2-0.5,0.2-0.8,0.1c-2.7-1.2-5.3-2.4-8-3.5c-1.2-0.5-2.3-1.3-3.1-2.3
			c-1.9-2.3-1.5-4.9,1-6.5c0.8-0.5,1.7-0.9,2.7-1.2c4.2-1.4,8.5-2.7,12.8-4.1c0.3-0.1,0.6-0.3,0.6-0.7c0.6-3.3,1.2-6.6,1.8-9.9
			c0.2-1.8,0.6-3.5,1.3-5.2c0.3-0.6,0.7-1.2,1.2-1.8c1.3-1.7,3.7-1.9,5.3-0.7c0.2,0.2,0.4,0.3,0.5,0.5c0.6,0.6,1.1,1.3,1.6,2
			c2,3.2,3.9,6.5,5.9,9.7c0.1,0.3,0.5,0.5,0.8,0.4l0,0c4.8-1.3,9.5-2.5,14.3-3.8c1-0.3,2-0.3,3-0.2c1.6,0.1,2.8,1.5,2.7,3.1
			c0,0.4-0.1,0.7-0.3,1c-0.4,0.9-0.9,1.8-1.6,2.5l-10,11.7c-0.3,0.2-0.3,0.6-0.1,0.9c2,3.8,4,7.5,5.9,11.3c0.5,0.9,0.8,1.9,0.9,2.9
			c0,2.3-1.7,4.3-4,4.6c-1.3,0.1-2.6,0-3.8-0.5c-3-0.9-6-1.8-9-2.7c-0.2,0-0.4-0.2-0.4-0.5c-0.4-2.1-0.7-4.2-1.1-6.3
			c0-0.1,0-0.2,0-0.2L163.6,40.5z"/>
		<path class="st1" d="M157.8,71.2h-8.1c-0.3,0-0.6-0.1-0.8-0.4c-3.2-4.9-6.4-9.7-9.6-14.5l-0.4-0.6l-2,15.5h-7.1
			c0.1-0.7,0.2-1.3,0.2-2c0.7-5.3,1.4-10.5,2.1-15.8l2-15.1c0-0.2,0.1-0.3,0.2-0.4c2.4-1.6,4.9-3.2,7.3-4.7l0.2-0.1l-2.2,16.8
			l0.1,0.1l11.5-12.8c0.1,0.7,0.2,1.2,0.3,1.8c0.3,1.6,0.5,3.2,0.8,4.8c0.1,0.3,0,0.6-0.2,0.7l-7.4,7.8l-0.3,0.4
			c0.1,0.1,0.1,0.2,0.2,0.4l13,17.7C157.7,70.9,157.7,71,157.8,71.2L157.8,71.2z"/>
		<path class="st1" d="M55.6,69.2c-0.2,1.6-0.4,3-0.6,4.5c-0.3,2-0.5,4-0.8,5.9c0,0.2-0.1,0.3-0.4,0.3H48l-0.2-0.1
			c0.1-0.9,0.2-1.9,0.4-2.8c0.4-3.3,0.9-6.5,1.3-9.8C50,63.5,50.4,59.7,51,56c1.3-6.7,6.5-12.1,13.2-13.6c3.6-0.9,7.5-0.3,10.7,1.7
			c3.2,2,5.3,5.3,5.6,9.1c0.6,5.5-1.4,10-5.3,13.8c-2.5,2.4-5.7,4-9.1,4.5c-3.5,0.6-7.2-0.2-10.1-2.2L55.6,69.2z M74.3,55.7
			c-0.1-0.7-0.2-1.4-0.4-2.1c-1.2-3.7-5.1-5.7-8.8-4.7c-4.2,0.9-7.3,4.4-7.7,8.7C57,60.9,58.9,63.9,62,65c2.5,0.9,5.2,0.6,7.4-0.8
			C72.3,62.4,74.2,59.2,74.3,55.7z"/>
		<path class="st1" d="M52.5,38.1l-6.4,4.7c-0.3-0.5-0.6-1.1-1-1.6c-0.8-1.3-2.2-2.2-3.7-2.3c-1.3-0.1-2.6,0.4-3.4,1.4
			c-0.9,0.9-0.9,2.3-0.2,3.2c0.9,1.1,1.8,2.2,2.8,3.2c1.6,1.7,3.2,3.4,4.8,5.1c1.5,1.5,2.6,3.4,3,5.5c0.4,2.5-0.1,5.1-1.4,7.3
			c-2.1,4-6,6.8-10.4,7.4c-2,0.4-4.1,0.2-6.1-0.3c-2.5-0.7-4.6-2.6-5.7-5c-0.5-0.9-0.8-1.8-1.2-2.8l6.9-3.7c0.1,0.2,0.1,0.4,0.2,0.5
			c0.4,0.8,0.8,1.6,1.2,2.3c1.3,2.1,3.9,2.9,6.1,1.7c0.6-0.3,1.2-0.7,1.7-1.1c1.5-1.2,1.8-3.4,0.7-4.9c-0.7-1-1.4-1.9-2.2-2.7
			c-1.9-2.1-3.9-4.1-5.7-6.2c-1.3-1.4-2.1-3.2-2.4-5.2c-0.3-2.1,0.1-4.2,1.2-6c2.4-4.3,7.2-6.9,12.1-6.6c2.9,0.1,5.6,1.5,7.4,3.9
			C51.4,36.6,51.9,37.3,52.5,38.1z"/>
		<path class="st1" d="M104,62.2c-0.3,2.7-0.7,5.3-1,7.8c0,0.1-0.1,0.3-0.2,0.4c-5.3,2.4-12.2,2.1-16.5-2.8
			c-2.2-2.5-3.4-5.9-3.2-9.2c0.6-8.2,6.8-14.9,15-16c4.7-0.6,8.8,0.7,11.9,4.3c2.1,2.4,3.2,5.5,3,8.7c-0.1,2.1-0.4,4.3-0.7,6.4
			c-0.4,3-0.8,6-1.2,9.1c0,0.1,0,0.2-0.1,0.3h-6.3c0.1-0.7,0.2-1.4,0.2-2.1c0.4-3.5,1-7,1.4-10.5c0.3-2.2,0-4.4-0.9-6.4
			c-1-2-2.9-3.4-5.2-3.5c-4.9-0.4-9.4,2.8-10.4,7.6c-0.8,3,0.4,6.1,2.9,7.8c2.3,1.5,5.2,1.8,7.7,0.6C101.8,64.2,103,63.3,104,62.2z"
			/>
		<path class="st1" d="M130.5,42.9l-0.9,6.5h-3.9c-1.1,0-2,0.7-2.3,1.7c-0.1,0.4-0.2,0.8-0.2,1.2l-2,15c-0.2,1.3-0.3,2.5-0.5,3.8
			h-6.5c0.1-1,0.2-1.9,0.4-2.8c0.4-3.2,0.9-6.5,1.3-9.7c0.4-2.8,0.7-5.6,1.1-8.4c0.8-3.9,4.1-6.9,8.1-7.2
			C126.8,42.9,128.6,42.9,130.5,42.9z"/>
	</g>
</g>
</svg>
