<svg height="556" viewBox="0 0 675 150" width="2500" xmlns="http://www.w3.org/2000/svg" xmlns:xlink="http://www.w3.org/1999/xlink"><linearGradient id="a" gradientUnits="userSpaceOnUse" x1="-23.82" x2="107.837" y1="136.073" y2="4.415"><stop offset=".108" stop-color="#c757bc"/><stop offset=".173" stop-color="#cd5ca9"/><stop offset=".492" stop-color="#e8744f"/><stop offset=".716" stop-color="#f88316"/><stop offset=".823" stop-color="#ff8900"/></linearGradient><linearGradient id="b" gradientUnits="userSpaceOnUse" x1="45.154" x2="109.326" y1="173.003" y2="108.83"><stop offset=".296" stop-color="#00afff"/><stop offset=".694" stop-color="#5282ff"/><stop offset="1" stop-color="#945dff"/></linearGradient><linearGradient id="c" x1="-1.699" x2="43.319" xlink:href="#b" y1="45.044" y2=".026"/><g fill="#000400"><path d="m187.058 6.065h31.132v61.86l57.412-61.86h37.601l-57.614 60.04 60.242 81.47h-37.399l-43.867-60.242-16.375 16.98v43.261h-31.132z"/><path d="m299.286 94.002v-.402c0-31.133 25.068-56.403 58.828-56.403 33.558 0 58.424 24.866 58.424 55.998v.405c0 31.132-25.068 56.4-58.828 56.4-33.558 0-58.424-24.865-58.424-55.998zm86.928 0v-.402c0-15.972-11.523-29.92-28.504-29.92-17.588 0-28.1 13.543-28.1 29.515v.405c0 15.97 11.523 29.918 28.504 29.918 17.588 0 28.1-13.544 28.1-29.516z"/><path d="m425.02 116.847v-51.348h-12.938v-26.279h12.938v-27.697h30.728v27.696h25.472v26.28h-25.472v46.295c0 7.074 3.032 10.512 9.906 10.512a31.232 31.232 0 0 0 15.161-3.843v24.664c-6.469 3.841-13.948 6.267-24.258 6.267-18.8 0-31.537-7.48-31.537-32.547zm65.02-116.847h30.728v147.574h-30.728zm41.835 0h32.344v27.291h-32.344zm.81 39.219h30.727v108.355h-30.728zm42.416 0h30.728v15.363c7.076-9.097 16.173-17.385 31.738-17.385 23.249 0 36.793 15.364 36.793 40.23v70.147h-30.728v-60.444c0-14.555-6.874-22.035-18.599-22.035-11.726 0-19.204 7.48-19.204 22.035v60.444h-30.729z"/></g><path d="m71.035 5.994-71.035 74.702v66.781l70.932-71.057 70.551-70.426z" fill="url(#a)"/><path d="m0 147.477 70.932-71.057 70.551 71.057z" fill="url(#b)"/><path d="m0 5.994h71.035l-71.035 74.702z" fill="url(#c)"/></svg>