<?xml version="1.0" encoding="utf-8"?>
<!-- Generator: Adobe Illustrator 20.0.0, SVG Export Plug-In . SVG Version: 6.00 Build 0)  -->
<svg version="1.1" id="Calque_1" xmlns="http://www.w3.org/2000/svg" xmlns:xlink="http://www.w3.org/1999/xlink" x="0px" y="0px"
	 viewBox="0 0 200 80" style="enable-background:new 0 0 200 80;" xml:space="preserve">
<style type="text/css">
	.st0{fill:#4AB382;}
	.st1{fill:#364A5E;}
	.st2{enable-background:new    ;}
	.st3{fill:#2C3E50;}
</style>
<title>vuejs-logo</title>
<g id="Calque_2">
	<path class="st0" d="M74.2,0h18.5L46.4,80L0,0h35.5l10.9,18.6L57,0H74.2z"/>
	<path class="st0" d="M0,0l46.4,80L92.7,0H74.2L46.4,48l-28-48H0z"/>
	<path class="st1" d="M18.3,0l28,48.2L74.2,0H57L46.4,18.6L35.5,0H18.3z"/>
</g>
<g class="st2">
	<path class="st3" d="M93.4,28.1c0-0.1-0.1-0.2-0.1-0.3c0-0.4,0.2-0.7,0.6-0.9c0.4-0.2,0.8-0.3,1.2-0.3c0.6,0,1,0.2,1.1,0.7
		l6.3,21.4l6.3-21.4c0.2-0.5,0.5-0.7,1.1-0.7c0.4,0,0.9,0.1,1.3,0.4s0.6,0.6,0.6,0.9V28v0.1L104.5,52c-0.1,0.3-0.4,0.6-0.7,0.8
		c-0.4,0.2-0.8,0.3-1.2,0.3c-0.4,0-0.8-0.1-1.1-0.3c-0.3-0.2-0.6-0.4-0.7-0.8L93.4,28.1z"/>
	<path class="st3" d="M127.6,27.6c0-0.4,0.1-0.6,0.5-0.8c0.3-0.2,0.7-0.3,1.1-0.3c0.4,0,0.7,0.1,1,0.3c0.3,0.2,0.5,0.4,0.5,0.8v17.6
		c0,1.4-0.2,2.7-0.6,3.7c-0.4,1-1,1.8-1.7,2.4c-0.7,0.6-1.5,1.1-2.5,1.3c-1,0.3-2,0.4-3.1,0.4s-2.1-0.1-3.1-0.4s-1.8-0.7-2.5-1.3
		s-1.2-1.4-1.7-2.4c-0.4-1-0.6-2.2-0.6-3.7V27.6c0-0.4,0.2-0.6,0.5-0.8c0.3-0.2,0.7-0.3,1-0.3s0.7,0.1,1,0.3
		c0.3,0.2,0.5,0.4,0.5,0.8v17.6c0,1.8,0.4,3,1.3,3.9s2,1.2,3.5,1.2s2.7-0.4,3.6-1.2s1.3-2.1,1.3-3.9L127.6,27.6L127.6,27.6z"/>
	<path class="st3" d="M138.7,38.5h5.6c0.3,0,0.6,0.1,0.8,0.4c0.2,0.3,0.3,0.6,0.3,0.9c0,0.3-0.1,0.6-0.3,0.8
		c-0.2,0.3-0.4,0.4-0.8,0.4h-5.6v9.2h11.2c0.3,0,0.6,0.1,0.8,0.4c0.2,0.3,0.3,0.6,0.3,1c0,0.3-0.1,0.6-0.3,0.9
		c-0.2,0.3-0.4,0.4-0.8,0.4H137c-0.3,0-0.6-0.1-0.9-0.3c-0.3-0.2-0.4-0.5-0.4-0.8V27.7c0-0.4,0.1-0.6,0.4-0.8s0.6-0.3,0.9-0.3h12.8
		c0.4,0,0.6,0.1,0.8,0.4s0.3,0.6,0.3,0.9c0,0.4-0.1,0.7-0.3,1s-0.4,0.4-0.8,0.4h-11.2L138.7,38.5L138.7,38.5z"/>
	<path class="st3" d="M154.8,49.3c0.5,0,0.9,0.2,1.3,0.6c0.4,0.4,0.5,0.8,0.5,1.3s-0.2,0.9-0.5,1.3c-0.4,0.4-0.8,0.6-1.3,0.6
		c-0.6,0-1-0.2-1.3-0.6c-0.3-0.4-0.5-0.8-0.5-1.3s0.2-1,0.5-1.3C153.8,49.5,154.3,49.3,154.8,49.3z"/>
	<path class="st3" d="M166.5,29.3c-0.3,0-0.6-0.1-0.8-0.4s-0.3-0.6-0.3-1c0-0.3,0.1-0.6,0.2-0.9c0.2-0.3,0.4-0.4,0.8-0.4h6.3
		c0.3,0,0.6,0.1,0.9,0.3c0.3,0.2,0.4,0.5,0.4,0.8v17.6c0,1.4-0.2,2.7-0.6,3.7c-0.4,1-0.9,1.8-1.6,2.4s-1.5,1.1-2.4,1.3
		c-0.9,0.3-1.9,0.4-3,0.4c-1.2,0-2.2-0.2-3.2-0.5s-1.8-0.8-2.5-1.4s-1.2-1.3-1.6-2.1c-0.4-0.8-0.6-1.7-0.6-2.7c0-0.6,0.1-1,0.4-1.2
		c0.3-0.2,0.6-0.3,1.1-0.3c0.4,0,0.7,0.1,1,0.2c0.3,0.1,0.5,0.4,0.5,0.8c0,1.2,0.4,2.3,1.2,3.1s2,1.2,3.5,1.2s2.7-0.4,3.5-1.2
		s1.2-2.1,1.2-3.9V29.3H166.5z"/>
	<path class="st3" d="M185.3,50.4c1.5,0,2.7-0.4,3.6-1.1c0.9-0.7,1.4-1.9,1.4-3.4c0-1.2-0.3-2.1-0.9-2.8c-0.6-0.7-1.3-1.3-2.2-1.7
		c-0.9-0.5-1.8-0.9-2.8-1.2c-1-0.4-2-0.8-2.8-1.3s-1.6-1.2-2.2-2.1s-0.9-2-0.9-3.5c0-1.3,0.2-2.4,0.7-3.3s1.1-1.5,1.9-2.1
		c0.8-0.5,1.6-0.9,2.6-1.1c0.9-0.2,1.8-0.3,2.7-0.3c0.6,0,1.3,0,2.1,0.1c0.7,0.1,1.4,0.2,2,0.4s1.1,0.4,1.6,0.7
		c0.4,0.3,0.6,0.7,0.6,1.1c0,0.3-0.1,0.6-0.3,1s-0.5,0.6-1,0.6c-0.2,0-0.4-0.1-0.7-0.2s-0.6-0.3-0.9-0.5s-0.8-0.3-1.4-0.5
		c-0.5-0.1-1.2-0.2-2-0.2c-0.7,0-1.3,0.1-1.9,0.2c-0.6,0.1-1.1,0.3-1.5,0.6c-0.4,0.3-0.8,0.7-1.1,1.2s-0.4,1.1-0.4,1.8
		c0,1,0.3,1.8,0.9,2.4c0.6,0.6,1.3,1.1,2.2,1.5s1.8,0.8,2.8,1.1c1,0.4,2,0.8,2.8,1.4c0.9,0.6,1.6,1.4,2.2,2.4c0.6,1,0.9,2.3,0.9,3.9
		c0,1.3-0.2,2.4-0.6,3.4c-0.4,0.9-0.9,1.7-1.6,2.4c-0.7,0.6-1.5,1.1-2.5,1.4s-2,0.5-3.2,0.5s-2.2-0.1-3.2-0.4s-1.8-0.6-2.4-1
		s-1.2-0.9-1.5-1.3c-0.4-0.5-0.5-0.9-0.5-1.3c0-0.4,0.1-0.7,0.4-1.1c0.3-0.4,0.6-0.6,0.9-0.6c0.3,0,0.5,0.1,0.8,0.4
		c0.3,0.3,0.6,0.6,1.1,1s1,0.7,1.7,1S184.3,50.4,185.3,50.4z"/>
</g>
</svg>
