<?xml version="1.0" encoding="utf-8"?>
<!-- Generator: Adobe Illustrator 20.0.0, SVG Export Plug-In . SVG Version: 6.00 Build 0)  -->
<svg version="1.1" id="Calque_1" xmlns="http://www.w3.org/2000/svg" xmlns:xlink="http://www.w3.org/1999/xlink" x="0px" y="0px"
	 viewBox="0 0 430 230" style="enable-background:new 0 0 430 230;" xml:space="preserve">
<style type="text/css">
	.st0{fill:#78005E;}
	.st1{fill:#550042;}
	.st2{fill:#FFFFFF;}
	.st3{fill:#ADADAD;}
	.st4{fill:#C626AF;}
	.st5{fill:#666666;}
	.st6{fill:#D0D0C6;}
	.st7{fill:#828282;}
	.st8{fill:#AA1D8F;}
</style>
<g>
	<circle class="st0" cx="215.4" cy="90.8" r="63"/>
	<path class="st1" d="M276.4,107l-47.9-47.9l-32.9,55.8l36.6,36.6C253.8,145.6,270.7,128.6,276.4,107z"/>
	<path class="st2" d="M235.3,107.5l-2.2-0.3c-0.2,0-0.4-0.2-0.4-0.4V70.3c0-9.3-7.7-16.9-17.3-16.9c-9.5,0-17.3,7.6-17.3,16.9v36.5
		c0,0.2-0.1,0.4-0.4,0.4l-2.2,0.3c-0.5,0-0.9,0.4-0.9,0.9v5.8c0,0.5,0.4,0.9,0.9,0.9h2.6h34.5h2.6c0.5,0,0.9-0.4,0.9-0.9v-5.8
		C236.1,107.8,235.7,107.5,235.3,107.5z"/>
	<path class="st3" d="M234.9,114.1h-34.1c-0.5,0-0.9-0.4-0.9-0.9v-4.9c0-0.5,0.4-0.9,0.9-0.9h31.8l2.2,0.3c0.5,0,0.9,0.4,0.9,0.9
		v4.6C235.7,113.7,235.4,114.1,234.9,114.1z"/>
	<path class="st4" d="M231.5,70.3c0-0.4,0-1.2,0-1.6c0-0.4-0.3-0.7-0.6-0.8l-4.9-1.2v19c0,0.5-0.4,0.9-0.9,0.9h-22
		c-0.7,0-1.3-0.3-1.8-0.7c-0.6-0.4-1.4,0-1.4,0.7v19c0,0.5,0.4,0.9,0.9,0.9h29.9c0.5,0,0.9-0.4,0.9-0.9L231.5,70.3L231.5,70.3z"/>
	<g>
		<rect x="205.1" y="116.6" class="st5" width="0.7" height="10.3"/>
		<rect x="205.9" y="116.6" class="st6" width="1.7" height="10.3"/>
		<rect x="207.6" y="116.6" class="st5" width="1" height="10.3"/>
		<rect x="208.6" y="116.6" class="st7" width="0.9" height="10.3"/>
		<rect x="205.1" y="135.5" class="st5" width="0.7" height="33.7"/>
		<rect x="205.9" y="135.5" class="st6" width="1.7" height="33.7"/>
		<rect x="207.6" y="135.5" class="st5" width="1" height="33.7"/>
		<rect x="208.6" y="135.5" class="st7" width="0.9" height="33.7"/>
		<rect x="205.1" y="126.9" class="st6" width="4.3" height="8.5"/>
	</g>
	<rect x="221.5" y="116.6" class="st5" width="0.7" height="10.3"/>
	<rect x="222.2" y="116.6" class="st6" width="1.7" height="10.3"/>
	<rect x="223.9" y="116.6" class="st5" width="1" height="10.3"/>
	<rect x="224.9" y="116.6" class="st7" width="0.9" height="10.3"/>
	<rect x="221.5" y="126.9" class="st6" width="4.3" height="8.5"/>
	<polygon class="st8" points="200,86.5 198.9,87 198.9,94.3 200,94.8 	"/>
	<path class="st7" d="M200,106.6V94.8l-1.2-0.5v12.9c0,0.2-0.1,0.4-0.4,0.4l-1.7,0.3c-0.5,0-0.9,0.4-0.9,0.9v4.9
		c0,0.5,0.4,0.9,0.9,0.9h2.1h3.2c0.5,0,0.9-0.4,0.9-0.9v-5.3c0-0.5,0-0.9-0.9-0.9h-1.2C200.8,107.5,200,107.1,200,106.6z"/>
	<rect x="204.9" y="106.3" class="st4" width="6.1" height="1.2"/>
	<rect x="220.6" y="106.3" class="st4" width="5.9" height="1.2"/>
	<path class="st8" d="M202.8,60c1.4-1.7,5.8-5.1,5.4-3.9c-0.3,0.7-1.3,1.1-0.4,2.6c0.4,0.6,0,3,1.6,3s2.9-0.6,5.8-0.6s5.2,1.3,6,2
		c0.8,0.7,4-1.2,4.2-2c0.3-0.9-1.7-2.7-2.9-3.1c-1.2-0.4-1-1.4,0-1.3c1,0.1,6.3,2.8,8.2,7.7c0.5,1.2-0.9,0.6-1.3,0
		c-0.4-0.6-1.4-2.6-2.7-2.3c-1.3,0.3-3.3,2.1-4.6,2c-1.3-0.1-2.9-1.6-6-1.7c-3.1-0.1-7.4,2.9-9.2,2.2c-1.8-0.6-2.3-2.8-4.1-1.4
		c-1.9,1.4-1.3,3-2.3,2.6c-1-0.4-1.1-0.7-0.6-1.8C200.6,62.9,201.5,61.7,202.8,60z"/>
	<path class="st8" d="M202.3,84.5H201c-0.2,0-0.4-0.2-0.4-0.4V70.4c0-0.2,0.2-0.4,0.4-0.4h0.9c0.2,0,1,1,1,2.5
		c0.2,7.3-0.1,11.6-0.1,11.6C202.7,84.3,202.5,84.5,202.3,84.5z"/>
	<path class="st0" d="M206.7,72.4c-0.1-1.7-0.6-3.5-1-4.4c-0.4-0.9-0.9-1.7,1-2.2c1.8-0.5,6-1.5,10.9-1.5c4.9,0,10.8,1.4,11.5,1.9
		c0.7,0.6,0,1.9,0,3s0,11.4,0,12.6s0.8,2.3,0.3,2.6c-0.5,0.2-2.5,0.9-4.3,0c-1.8-0.9-5.3-1.6-9.2-1.6s-7.2,1.7-8.2,2
		c-1,0.3-1.6-0.3-1.4-1.9C206.5,81.4,206.8,74,206.7,72.4z"/>
	<path class="st2" d="M230.3,112.8h-24.7c-0.3,0-0.5-0.2-0.5-0.5v-4.5c0-0.3,0.2-0.5,0.5-0.5h24.7c0.3,0,0.5,0.2,0.5,0.5v4.5
		C230.8,112.6,230.5,112.8,230.3,112.8z"/>
	<path class="st2" d="M204.3,104.9V89.3c0-0.5-0.1-0.6-0.3-0.7l-0.8-0.3c-0.7-0.2-1-0.4-1,0.7v15.8c0,0.8,0.3,0.7,0.6,0.7h0.8
		C204,105.6,204.3,105.6,204.3,104.9z"/>
	<path class="st1" d="M230.3,69.1v14.8c0,0.5-0.5,0.8-0.9,0.6l0,0c-0.5,0.2-2.5,0.9-4.3,0s-5.3-1.6-9.2-1.6s-7.2,1.7-8.2,2
		c-1,0.3-1.6-0.3-1.4-1.9l-0.2,2.1c0,0.4,0.3,0.7,0.6,0.7H231c0.4,0,0.6-0.3,0.6-0.6V69.1c0-0.4-0.3-0.6-0.6-0.6l0,0
		C230.6,68.5,230.3,68.8,230.3,69.1z"/>
	<path class="st0" d="M204.9,106.3V89.3c0-0.2,0.2-0.4,0.4-0.4h13.5c0.3,0,0.6,0.4,0.4,0.6l-8.2,13.9v2.8H204.9z"/>
	<path class="st1" d="M207.4,98.2v7.3c0,0.5,0.4,0.9,0.9,0.9h20.3c0.5,0,0.9-0.4,0.9-0.9V94.4c0-0.7-0.8-1.1-1.4-0.6
		c-2.3,1.7-6.8,5-10.7,5c-4.5,0-6.7-0.5-8.8-1.2C208,97.2,207.4,97.6,207.4,98.2z"/>
	<path class="st8" d="M223.7,87.4V89l-8.6,14.5h5.6v2.8h5.9V87.8c0-0.2-0.2-0.4-0.4-0.4L223.7,87.4L223.7,87.4z"/>
	<g>
		<path class="st1" d="M226.5,106.3V87.8c0-0.2-0.2-0.4-0.4-0.4v19L226.5,106.3L226.5,106.3z"/>
	</g>
	<rect x="224" y="126.9" class="st3" width="1.8" height="0.8"/>
	<rect x="207.7" y="126.9" class="st3" width="1.8" height="0.8"/>
	<rect x="205.1" y="114.9" class="st0" width="0.7" height="1.7"/>
	<rect x="207.6" y="114.9" class="st0" width="1" height="1.7"/>
	<rect x="208.6" y="114.9" class="st8" width="0.9" height="1.7"/>
	<rect x="205.9" y="114.9" class="st4" width="1.7" height="1.7"/>
	<rect x="221.5" y="114.9" class="st0" width="0.7" height="1.7"/>
	<rect x="223.9" y="114.9" class="st0" width="1" height="1.7"/>
	<rect x="224.9" y="114.9" class="st8" width="0.9" height="1.7"/>
	<rect x="222.2" y="114.9" class="st4" width="1.7" height="1.7"/>
	<path class="st5" d="M222.2,153.5v-18h-0.7v18.1C221.7,153.5,221.9,153.5,222.2,153.5z"/>
	<path class="st6" d="M223.9,153.3v-17.9h-1.7v18C222.8,153.4,223.4,153.4,223.9,153.3z"/>
	<path class="st5" d="M224.9,153.2v-17.7h-1v17.9C224.2,153.3,224.6,153.2,224.9,153.2z"/>
	<path class="st7" d="M225.7,153v-17.6h-0.9v17.7C225.2,153.1,225.5,153.1,225.7,153z"/>
	<g>
		<path class="st8" d="M201.2,112.3h25.5c0.2,0,0.4-0.2,0.4-0.4v-3.2h-26V112.3z"/>
		<path class="st1" d="M228.6,107.5h-26.8c0,0-0.6,0.5-0.6,1.2h27.9v-0.8C229.1,107.7,228.9,107.5,228.6,107.5z"/>
	</g>
	<g>
		<polygon class="st1" points="214,98.5 213.5,98.4 218.9,89.4 219.3,89.6 		"/>
	</g>
	<path class="st2" d="M224.1,89.1v-1.7h-0.4c-0.2,0-0.4,0.2-0.4,0.4v1.1l-5.8,9.8h1L224.1,89.1z"/>
	<path class="st4" d="M214.8,103.8c0,0,0.1,0,0.2,0c0.1,0,0.3-0.1,0.4-0.2l3-5.1h-1l-2.8,4.6C214.6,103.5,214.6,103.7,214.8,103.8z"
		/>
	<path d="M189.4,177.6v23.3h-4.3v-3c-0.6,1.3-1.2,2.2-1.8,2.6s-1.4,0.7-2.4,0.7c-1.9,0-3.4-1-4.2-3c-0.9-2-1.3-5.1-1.3-9.3
		c0-4,0.5-7,1.3-8.9c0.9-1.9,2.3-2.9,4.2-2.9c1.7,0,3.2,1,4.3,3v-2.6L189.4,177.6L189.4,177.6z M179.7,189.1c0,3,0.2,5.2,0.6,6.4
		c0.4,1.2,1.2,1.8,2.2,1.8c1,0,1.7-0.6,2.1-1.9c0.4-1.3,0.6-3.4,0.6-6.2c0-2.8-0.2-4.9-0.6-6.3c-0.4-1.2-1.2-1.9-2.1-1.9
		c-1,0-1.7,0.6-2.2,1.8C179.9,184,179.7,186,179.7,189.1z"/>
	<path d="M194.8,171h4.3v6.5h2.3v3.4h-2.3v19.9h-4.3V181h-2.3v-3.4h2.3V171z"/>
	<path d="M213.5,193h4c-0.3,5.5-2.6,8.2-6.8,8.2c-1.2,0-2.3-0.2-3.2-0.7c-0.9-0.5-1.6-1.2-2.2-2.2c-0.6-1-1-2.2-1.3-3.7
		c-0.3-1.5-0.4-3.3-0.4-5.3c0-4.1,0.6-7.1,1.7-9.1c1.2-2,2.9-3,5.3-3c4.6,0,7,4.1,7,12.3v0.6h-9.8c0,5,1,7.5,3,7.5
		C212.5,197.5,213.5,196,213.5,193z M213.2,186.9c-0.2-2.4-0.5-4-0.8-4.8c-0.4-0.9-1-1.3-1.9-1.3c-0.9,0-1.5,0.4-1.9,1.3
		c-0.4,0.8-0.6,2.3-0.8,4.8H213.2z"/>
	<path d="M232.7,167.7c0.8,0,1.5,0.3,2,0.9c0.6,0.6,0.9,1.2,0.9,2c0,0.8-0.3,1.5-0.9,2.1c-0.6,0.6-1.2,0.9-2.1,0.9
		c-0.8,0-1.5-0.3-2.1-0.9c-0.6-0.6-0.8-1.2-0.8-2.1c0-0.8,0.3-1.5,0.9-2C231.2,167.9,231.9,167.7,232.7,167.7z M230.6,177.6h4.3
		v23.3h-4.3V177.6z"/>
	<path d="M248.8,193h4c-0.3,5.5-2.6,8.2-6.8,8.2c-1.2,0-2.3-0.2-3.2-0.7c-0.9-0.5-1.6-1.2-2.2-2.2c-0.6-1-1-2.2-1.3-3.7
		c-0.3-1.5-0.4-3.3-0.4-5.3c0-4.1,0.6-7.1,1.7-9.1c1.2-2,2.9-3,5.3-3c4.6,0,7,4.1,7,12.3v0.6h-9.8c0,5,1,7.5,3,7.5
		C247.9,197.5,248.8,196,248.8,193z M248.6,186.9c-0.2-2.4-0.5-4-0.8-4.8c-0.4-0.9-1-1.3-1.9-1.3s-1.5,0.4-1.9,1.3
		c-0.4,0.8-0.6,2.3-0.8,4.8H248.6z"/>
	<path d="M256.8,177.6h4.3v2.9c0.7-1.2,1.5-2.1,2.2-2.6c0.7-0.5,1.7-0.8,2.9-0.9v4.5c-0.3,0-0.6,0-0.8,0c-1.6,0-2.7,0.4-3.3,1.2
		s-1,2.2-1,4.1v14.1h-4.3L256.8,177.6L256.8,177.6z"/>
	<path d="M221.5,153.6v47.3h4.3V153C224.3,153.3,222.9,153.4,221.5,153.6z"/>
	<g>
		<path d="M163,202.2c-0.4,0-0.8,0-1.2-0.1c-2.8-0.5-6.3-2.3-7.7-8.5c-3.3,2.3-6,3.7-6.3,3.9c-0.6,0.3-1.4,0.1-1.7-0.6
			s-0.1-1.4,0.6-1.7c0,0,3.3-1.7,6.9-4.4c-0.5-4.5,0.1-9.2,0.5-11.7c1-5.6,3.2-12.3,8.6-12.8c1.6-0.1,3.1,0.6,4.1,2.1
			c2.4,3.6,1.1,9.3-1.1,13.4c-2.1,3.9-5.8,7.5-9.3,10.2c0.6,3.7,2.3,6.9,5.9,7.6c2.6,0.5,5.3-1.6,5.4-1.6c0.6-0.4,1.4-0.3,1.8,0.2
			c0.4,0.6,0.3,1.4-0.2,1.8C169.1,200.1,166.3,202.2,163,202.2z M163.1,168.8c0,0-0.1,0-0.1,0c-2.9,0.3-5.2,4.1-6.3,10.7
			c-0.2,1.4-0.8,5.4-0.6,9.4c2.9-2.4,5.8-5.2,7.5-8.4c2.8-5.2,2.4-9.1,1.2-10.8C164.5,169.4,163.9,168.8,163.1,168.8z"/>
	</g>
	<g>
		<path d="M172.5,176.4c-0.2,0-0.4,0-0.6-0.2c-0.5-0.3-0.6-1-0.2-1.5c0,0,1.8-2.5,3.7-6c0.3-0.5,0.9-0.7,1.4-0.4
			c0.5,0.3,0.7,0.9,0.4,1.4c-2,3.7-3.8,6.2-3.9,6.3C173.1,176.2,172.8,176.4,172.5,176.4z"/>
	</g>
	<g>
		<path class="st2" d="M163,200.6c-0.1,0-0.2-0.1-0.2-0.2s0.1-0.2,0.2-0.2c2.7,0,5.2-1.8,5.2-1.9c0.1-0.1,0.2,0,0.3,0
			c0.1,0.1,0,0.2,0,0.3C168.4,198.7,165.9,200.6,163,200.6L163,200.6z"/>
	</g>
	<g>
		<path class="st2" d="M154.1,187.5L154.1,187.5c-0.1,0-0.2-0.1-0.2-0.2c0-3.4,0.5-6.5,0.9-8.6c1.9-9.4,5.4-11.6,8-11.8
			c0.8,0,1.5,0.2,2.2,0.7c0.1,0.1,0.1,0.2,0,0.3c-0.1,0.1-0.2,0.1-0.3,0c-0.6-0.5-1.2-0.6-1.8-0.6c-2.4,0.2-5.8,2.3-7.6,11.4
			c-0.4,2-0.9,5.2-0.9,8.5C154.3,187.4,154.2,187.5,154.1,187.5z"/>
	</g>
	<g>
		<path class="st2" d="M146.9,196.2c-0.1,0-0.1,0-0.2-0.1c0-0.1,0-0.2,0.1-0.3c0.1-0.1,13-7,17.3-15.3c1.5-2.9,2.2-5.8,2.1-8.2
			c0-0.1,0.1-0.2,0.2-0.2s0.2,0.1,0.2,0.2c0.1,2.5-0.6,5.4-2.1,8.4c-2.3,4.4-6.9,8.4-10.4,11C150.3,194.4,147.1,196.2,146.9,196.2
			C147,196.2,147,196.2,146.9,196.2z"/>
	</g>
	<g>
		<path class="st2" d="M172.7,174.4c0,0-0.1,0-0.1,0c-0.1-0.1-0.1-0.2,0-0.3c0,0,1.4-1.8,3.3-5.4c0-0.1,0.2-0.1,0.3-0.1
			c0.1,0,0.1,0.2,0.1,0.3c-2,3.6-3.4,5.5-3.4,5.5C172.8,174.3,172.8,174.4,172.7,174.4z"/>
	</g>
	<rect x="205.1" y="169.1" class="st5" width="4.3" height="1.9"/>
	<path d="M266.9,196.2c0.6,0,1.2,0.2,1.6,0.7c0.5,0.5,0.7,1,0.7,1.6c0,0.6-0.2,1.2-0.7,1.7c-0.5,0.5-1,0.7-1.7,0.7s-1.2-0.2-1.7-0.7
		c-0.5-0.5-0.6-1-0.6-1.7c0-0.6,0.2-1.2,0.7-1.6C265.7,196.4,266.3,196.2,266.9,196.2z"/>
	<path d="M274.3,196.2c0.6,0,1.2,0.2,1.6,0.7c0.5,0.5,0.7,1,0.7,1.6c0,0.6-0.2,1.2-0.7,1.7c-0.5,0.5-1,0.7-1.7,0.7s-1.2-0.2-1.7-0.7
		c-0.5-0.5-0.6-1-0.6-1.7c0-0.6,0.2-1.2,0.7-1.6C273.1,196.4,273.7,196.2,274.3,196.2z"/>
	<path d="M281.7,196.2c0.6,0,1.2,0.2,1.6,0.7c0.5,0.5,0.7,1,0.7,1.6c0,0.6-0.2,1.2-0.7,1.7c-0.5,0.5-1,0.7-1.7,0.7s-1.2-0.2-1.7-0.7
		c-0.5-0.5-0.6-1-0.6-1.7c0-0.6,0.2-1.2,0.7-1.6C280.6,196.4,281.1,196.2,281.7,196.2z"/>
</g>
</svg>
