<?xml version="1.0" encoding="utf-8"?>
<!-- Generator: Adobe Illustrator 22.1.0, SVG Export Plug-In . SVG Version: 6.00 Build 0)  -->
<svg version="1.1" id="Calque_1" xmlns="http://www.w3.org/2000/svg" xmlns:xlink="http://www.w3.org/1999/xlink" x="0px" y="0px"
	 viewBox="0 0 1000 283" style="enable-background:new 0 0 1000 283;" xml:space="preserve">
<style type="text/css">
	.st0{fill:#D348A7;}
</style>
<g>
	<path class="st0" d="M428.1,134.4h-37.7c-1.2,0-2.1,0.4-2.8,1.1c-0.7,0.8-1.1,1.7-1.1,2.9v2.5c0,1.2,0.4,2.1,1.1,2.9
		c0.7,0.8,1.6,1.1,2.8,1.1h30.7v9c0,12.2-3.3,21.4-10,27.6c-6.7,6.2-15.5,9.3-26.4,9.3c-10.9,0-19.5-3-25.8-9
		c-6.3-6-9.7-15.3-10.1-28c-0.1-3.5-0.2-8.8-0.2-15.8c0-7,0.1-12.3,0.2-15.8c0.5-12.7,3.8-22,10.1-28c6.3-6,14.9-9,25.8-9
		c9.6,0,17.3,2.1,23,6.3c5.7,4.2,9.5,9.4,11.5,15.7c0.5,1.4,0.9,2.3,1.4,2.8c0.5,0.5,1.2,0.7,2.3,0.7h3.9c1.1,0,1.9-0.3,2.6-0.9
		c0.7-0.6,1.1-1.3,1.1-2.3v-0.4c-0.2-4-2-8.5-5.4-13.6c-3.3-5.1-8.4-9.5-15.2-13.3c-6.8-3.8-15.2-5.6-25.2-5.6
		c-14.7,0-26.1,4.2-34.2,12.7c-8.1,8.5-12.4,19.8-12.9,34c-0.1,3.5-0.2,9.1-0.2,16.7c0,7.6,0.1,13.2,0.2,16.7
		c0.5,14.2,4.8,25.5,12.9,34c8.1,8.5,19.5,12.7,34.2,12.7c9.9,0,18.4-2,25.5-6c7.2-4,12.6-9.6,16.4-16.7c3.8-7.2,5.6-15.4,5.6-24.8
		v-15.5c0-1.3-0.4-2.3-1.1-3C430.4,134.7,429.4,134.4,428.1,134.4z"/>
	<path class="st0" d="M496.1,108.1h-6.5c-11.7,0-19.7,4-24,12.1v-8.1c0-1.2-0.4-2.1-1.1-2.9c-0.8-0.8-1.7-1.1-2.9-1.1h-2.8
		c-1.2,0-2.1,0.4-2.8,1.1c-0.7,0.8-1.1,1.7-1.1,2.9v83.6c0,1.2,0.4,2.1,1.1,2.8c0.7,0.7,1.6,1.1,2.8,1.1h2.8c1.2,0,2.1-0.4,2.9-1.1
		c0.8-0.7,1.1-1.6,1.1-2.8v-54.6c0-7,2.1-12.6,6.2-16.7c4.1-4.1,9.7-6.2,16.7-6.2h7.6c1.2,0,2.1-0.4,2.8-1.1
		c0.7-0.7,1.1-1.6,1.1-2.8V112c0-1.2-0.4-2.1-1.1-2.8C498.2,108.5,497.3,108.1,496.1,108.1z"/>
	<path class="st0" d="M544.6,106.4c-7.2,0-13.2,1.3-18.1,3.9c-4.9,2.6-8.6,5.6-10.9,9.1c-2.4,3.5-3.5,6.5-3.5,9.1
		c0,1.1,0.4,2,1.1,2.7c0.8,0.8,1.7,1.1,2.7,1.1h2.5c1.1,0,1.9-0.3,2.6-0.8c0.6-0.5,1.2-1.5,1.7-2.9c1.1-3.3,3.5-6.1,7.3-8.5
		c3.8-2.3,8.7-3.5,14.7-3.5c8.1,0,14.1,1.7,18.1,5.2c3.9,3.5,5.9,8.4,5.9,14.9v6.2l-27.8,3.9c-10.7,1.4-19.2,4.6-25.5,9.5
		c-6.3,4.9-9.4,11.3-9.4,19c0,4.8,1.4,9.2,4.3,13.2c2.9,4,6.7,7.2,11.5,9.5c4.8,2.3,10,3.5,15.7,3.5c8.2,0,14.8-1.4,19.8-4.1
		c5-2.7,8.8-6,11.4-9.9v8.3c0,1.2,0.4,2.1,1.1,2.8c0.7,0.7,1.6,1.1,2.8,1.1h3c1.2,0,2.1-0.4,2.8-1.1c0.7-0.7,1.1-1.6,1.1-2.8v-58.6
		c0-8.6-2.6-15.8-7.9-21.8C566.1,109.4,557.1,106.4,544.6,106.4z M568.5,158.5c0,10.6-2.8,18.7-8.3,24.3c-5.5,5.6-12.6,8.5-21.1,8.5
		c-6,0-11.2-1.5-15.8-4.4c-4.5-2.9-6.8-7.1-6.8-12.5c0-4.8,2.5-8.8,7.4-12c4.9-3.2,12.2-5.4,21.8-6.7l22.7-3.2V158.5z"/>
	<path class="st0" d="M673.6,118.4c-6.1-8-15.4-12.1-28.1-12.1c-12.9,0-22.8,4.6-29.6,13.9V112c0-1.2-0.4-2.1-1.1-2.8
		c-0.7-0.7-1.6-1.1-2.8-1.1h-3c-1.2,0-2.1,0.4-2.8,1.1c-0.7,0.7-1.1,1.6-1.1,2.8v117.3c0,1.2,0.4,2.1,1.1,2.8
		c0.7,0.7,1.6,1.1,2.8,1.1h3c1.2,0,2.1-0.4,2.8-1.1c0.7-0.7,1.1-1.6,1.1-2.8v-41.7c6.9,9.3,16.8,13.9,29.6,13.9
		c12.7,0,22-4,28.1-12.1c6-8,9.2-17.9,9.6-29.7c0.1-1.2,0.2-3.1,0.2-5.8c0-2.7-0.1-4.6-0.2-5.8C682.9,136.4,679.7,126.5,673.6,118.4
		z M672.5,158.8c-0.4,9.5-2.7,17.3-7.1,23.3c-4.4,6-11.4,9.1-20.9,9.1c-6.2,0-11.5-1.5-15.7-4.4c-4.2-2.9-7.4-6.7-9.5-11.2
		c-2.1-4.5-3.2-9.3-3.3-14.3l-0.2-6.9l0.2-6.9c0.4-8.3,2.9-15.6,7.6-21.7c4.7-6.2,11.7-9.2,21-9.2c10.3,0,17.6,3.5,21.8,10.5
		c4.2,7,6.3,15.9,6.3,26.8C672.7,156,672.6,157.7,672.5,158.8z"/>
	<path class="st0" d="M745.8,106.4c-7.2,0-13,1.2-17.5,3.5c-4.5,2.3-8.5,5.8-12.1,10.4V78.5c0-1.2-0.4-2.1-1.1-2.8
		c-0.7-0.7-1.6-1.1-2.8-1.1h-3c-1.2,0-2.1,0.4-2.8,1.1c-0.7,0.7-1.1,1.6-1.1,2.8v117.3c0,1.2,0.4,2.1,1.1,2.8
		c0.7,0.7,1.6,1.1,2.8,1.1h3c1.2,0,2.1-0.4,2.8-1.1c0.7-0.7,1.1-1.6,1.1-2.8v-49.1c0-9.4,2.5-16.8,7.6-22.1c5-5.3,11.8-8,20.3-8
		c8.7,0,15.4,2.6,20,7.9c4.6,5.3,7,12.7,7,22.2v49.1c0,1.2,0.4,2.1,1.1,2.8c0.7,0.7,1.6,1.1,2.8,1.1h3c1.2,0,2.1-0.4,2.8-1.1
		c0.7-0.7,1.1-1.6,1.1-2.8v-50c0-11.6-3.1-21.1-9.3-28.4C766.1,110,757.3,106.4,745.8,106.4z"/>
	<path class="st0" d="M884.8,87c-8.2-8.2-19.4-12.3-33.5-12.3S826,78.8,817.8,87c-8.2,8.2-12.6,20.3-13,36.3
		c-0.1,3.5-0.2,8.5-0.2,14.8c0,6.3,0.1,11.3,0.2,14.8c0.8,32.4,16.3,48.6,46.5,48.6c9.4,0,17.6-1.7,24.7-5.1l7.8,10.7
		c2,2.7,3.9,4,5.6,4h3.9c0.9,0,1.8-0.4,2.5-1.1c0.7-0.7,1.1-1.5,1.1-2.5c0-0.6-0.2-1.2-0.5-1.9L885,189.8c8-7.9,12.3-20.2,12.9-37
		c0.2-7,0.4-12,0.4-14.8c0-2.8-0.1-7.7-0.4-14.8C897.3,107.3,893,95.2,884.8,87z M886.7,152c-0.5,13.1-3.8,22.9-10.1,29.3
		c-6.3,6.4-14.7,9.6-25.3,9.6s-19-3.2-25.3-9.6c-6.3-6.4-9.7-16.2-10.1-29.3c-0.1-3.5-0.2-8.2-0.2-13.9c0-5.7,0.1-10.4,0.2-13.9
		c0.5-13.1,3.9-22.9,10.2-29.3c6.3-6.4,14.7-9.6,25.2-9.6c10.5,0,18.9,3.2,25.2,9.6c6.3,6.4,9.7,16.2,10.2,29.3
		c0.2,7,0.4,11.7,0.4,13.9C887.1,140.3,887,144.9,886.7,152z"/>
	<path class="st0" d="M998.9,190.2c-0.7-0.7-1.7-1.1-3-1.1h-60.8V80.3c0-1.2-0.4-2.1-1.1-2.8c-0.7-0.7-1.6-1.1-2.8-1.1h-3.3
		c-1.2,0-2.1,0.4-2.8,1.1c-0.7,0.7-1.1,1.6-1.1,2.8v115.5c0,1.2,0.4,2.1,1.1,2.8c0.7,0.7,1.6,1.1,2.8,1.1h68c1.2,0,2.1-0.4,2.9-1.1
		c0.8-0.7,1.1-1.6,1.1-2.8v-2.6C1000,191.9,999.6,190.9,998.9,190.2z"/>
	<path class="st0" d="M239.4,105.2c12.1-7,16.2-22.4,9.3-34.5c-7-12.1-22.4-16.2-34.5-9.3c-2.2,1.3-4.1,2.8-5.7,4.5l-58.2-33.6
		c0.7-2.3,1-4.7,1-7.2C151.3,11.3,140,0,126,0s-25.2,11.3-25.2,25.2c0,2.5,0.4,4.9,1,7.2L43.6,66c-1.6-1.7-3.5-3.2-5.7-4.5
		c-12.1-6.9-27.6-2.8-34.5,9.3c-6.9,12.1-2.8,27.5,9.3,34.5c2.2,1.2,4.4,2.1,6.7,2.7v67.2c-2.3,0.6-4.5,1.4-6.7,2.7
		c-12.1,7-16.2,22.4-9.3,34.5c6.9,12.1,22.3,16.2,34.5,9.3c2.1-1.2,4-2.7,5.6-4.4l58.2,33.6c-0.7,2.3-1,4.7-1,7.1
		c0,13.9,11.3,25.2,25.2,25.2s25.2-11.3,25.2-25.2c0-2.8-0.5-5.4-1.3-7.9l57.9-33.4c1.7,2,3.8,3.7,6.2,5.1
		c12.1,6.9,27.6,2.8,34.5-9.3c7-12.1,2.9-27.5-9.3-34.5c-2.1-1.2-4.4-2.1-6.7-2.7v-67.2C235,107.3,237.3,106.5,239.4,105.2z
		 M32.3,175.4c-0.3-0.1-0.7-0.2-1-0.3v-67.3c6.4-1.6,12.2-5.7,15.8-11.9c3.5-6.2,4.2-13.2,2.4-19.5l58.4-33.7
		c0.2,0.2,0.5,0.5,0.7,0.7L32.3,175.4z M144.7,240.8c-4.6-5.1-11.3-8.2-18.7-8.2c-7.1,0-13.6,3-18.2,7.7l-58.3-33.6
		c0.1-0.3,0.2-0.6,0.3-1h152.4c0.1,0.6,0.3,1.1,0.5,1.7L144.7,240.8z M204.9,187c-1.2,2.1-2.1,4.4-2.7,6.6H49.9
		c-0.6-2.3-1.4-4.5-2.7-6.6c-1.2-2.1-2.7-4-4.4-5.6l76.2-132c2.2,0.6,4.6,1,7,1c2.4,0,4.8-0.4,7-1l76.2,131.9
		C207.6,183,206.1,184.9,204.9,187z M220.7,175.2c-0.3,0.1-0.7,0.2-1,0.3l-76.2-132c0.2-0.2,0.5-0.4,0.7-0.7l58.4,33.7
		c-1.8,6.3-1.1,13.4,2.4,19.5c3.6,6.2,9.3,10.3,15.8,11.9V175.2z"/>
</g>
</svg>
