<?xml version="1.0" encoding="utf-8"?>
<!-- Generator: Adobe Illustrator 20.0.0, SVG Export Plug-In . SVG Version: 6.00 Build 0)  -->
<svg version="1.1" id="Calque_1" xmlns="http://www.w3.org/2000/svg" xmlns:xlink="http://www.w3.org/1999/xlink" x="0px" y="0px"
	 viewBox="0 0 560 300" style="enable-background:new 0 0 560 300;" xml:space="preserve">
<style type="text/css">
	.st0{fill:#FAF7F7;}
	.st1{fill:#215B98;}
	.st2{fill:#205B98;}
	.st3{fill:#1A476F;}
	.st4{fill:#5293CE;}
	.st5{fill:#205B97;}
	.st6{fill:#2D72B7;}
	.st7{fill:#19446A;}
	.st8{fill:#245D93;}
	.st9{fill:#2E75BC;}
</style>
<g>
	<path class="st0" d="M14.1,177.3c-5.6-2.2-6.2-5.3-5.9-9c0.2-3.1,0.1-6.3,0-9.4c0-3.5-0.5-7,4.5-7.9c1.6-0.3,1.4-2.1-0.3-2.4
		c-4.1-0.7-4.3-3.5-4.2-6.7c0.1-3.5,0.2-6.9,0-10.4c-0.3-3.9,0.7-7.1,4.8-9.3c-4.5-1.8-5.3-5.1-4.8-9c0-0.3,0.1-0.6,0-0.9
		c-2.1-10.7,3.9-17.7,9.9-25.8C26.9,74.9,39.9,71,51.3,64c11.1-6.9,22.9-7.5,35.2-7.1c8.2,0.3,16.3,0.2,24.5,0
		c3.9-0.1,7.4,0.9,10.8,2.6c6.4,3.3,12.6,7.1,19.4,9.5c11.3,4.1,18.1,13,25.3,21.6c1.1,1.3,2.1,2.8,3.3,3.9c2.5,2.3,3.6,4.9,3.5,8.4
		c-0.2,3.4-0.1,6.9,0,10.4c0.1,3.7,0.3,7.4-5.2,8.8c5,2.5,5.5,6,5.3,9.9c-0.2,3.3-0.1,6.6,0,9.9c0.1,3.2,0,6.1-4.2,6.6
		c-0.6,0.1-1.2,0.4-1.3,1.1c-0.1,1,0.5,1.4,1.4,1.5c3.8,0.5,4.2,3.1,4.1,6.2c-0.1,3.3-0.1,6.6,0,9.9c0.1,4,0.3,7.9-5.9,10.3
		c5.8,1,6,4,5.9,7.3c-0.1,0.9-0.2,1.9,0,2.8c2,10.2-3.6,17-9.3,24.6c-7.6,10-18.2,14.7-28.4,20.7c-13.1,7.6-26.7,9.7-41.7,10.1
		c-19.3,0.5-36.3-3.8-53.4-12.6c-13.7-7-21.7-18.5-31.3-29c-1.1-1.2-0.9-2.6-0.9-4c0-3.9,0.1-7.9,0-11.8
		C8.1,182.2,8,178.7,14.1,177.3z"/>
	<path class="st1" d="M306.5,141.9c2.6-2,4.7-3.7,7.3-4.4c6.7-1.7,12.7,1.7,14.3,8.7c1.7,7.6,0.4,15.3,0.7,23c0.1,1.4-0.7,1.9-2,1.9
		c-1.3,0-2.5-0.2-3.8,0c-3.6,0.5-5-0.6-4.7-4.5c0.4-4.5,0.1-9.1,0.1-13.6c0-3.6-0.5-7.2-5.2-7.4c-3.6-0.2-5.5,2.6-5.5,7.7
		c0,4.7-0.1,9.4,0,14.1c0.1,2.7-0.4,3.9-3.6,3.8c-8.6-0.3-6.8,0.9-6.9-7c-0.1-7.4-0.1-14.8-0.1-22.1c0-1.7-1.3-4.3,2-4
		C301.8,138.3,306.2,135.6,306.5,141.9z"/>
	<path class="st2" d="M258.2,137.9c3.2,0,5.8,0.1,8.4,0c2.3-0.1,3.3,0.8,3.9,3c1.7,6.1,3.7,12.2,5.8,19.3c1.8-7.1,3.2-13.1,4.8-19.1
		c0.3-1.2,0-3.1,2.1-3.1c3,0,6,0,8.9,0.4c0.7,0.1,0,1.7-0.3,2.5c-3.8,10.3-6.9,20.8-11.5,30.8c-2.9,6.1-6.6,11.4-13.4,13.7
		c-1.4,0.5-3.4,1.5-3.6-1c-0.2-2.5-3.5-5.1,0-7.5c1.3-0.9,2.8-1.4,4.1-2.3c2.8-2.1,3.7-4.6,2.2-8.2
		C265.7,157.1,262.2,147.8,258.2,137.9z"/>
	<path class="st3" d="M164.9,175.9c0.5,1.7-1.2,4.2,1.9,4.8c2.5,0.3,4.2,1.1,1.3,3.4c-5.4,4.1-10.9,8.2-16.7,11.7
		c-10.1,3.5-20.4,6.2-30.5,9.6c-1.7,0.5-3.4,0.8-5.1,0.3c-16.8-0.4-33.6-0.5-50.3,0.1c-2.2,0.6-4.3-0.1-6.4-0.8
		c-7-2.3-14.1-4.3-21-6.7c-6.3-2.2-6.7-1.8-6.7,4.7c0,4.4,0,8.8,0,13.2c0,1.8,0.3,3.8-1.4,5.3c-5.9-6.7-11.7-13.4-17.6-20.1
		c-1-1.2-1.1-2.5-1.1-3.9c0-3.8,0.1-7.5,0-11.3c0-2.9-0.6-5.9,3.9-5.5c1.1,0.1,1.7-0.6,1.7-1.8c0-1.6,0.2-3.3-1.7-3.9
		c-4-1.1-4.1-4.1-3.9-7.4c0.1-2.8,0-5.6,0-8.5c0-2.7-0.9-5.6,3.9-5.4c3.1,0.1,1.3-3.2,1.6-4.9c0.3-1.6,0.2-3.4-2.2-3
		c-3.4,0.5-3.4-1.5-3.3-3.9c0.1-3.3,0.2-6.6,0-9.9c-0.2-3.4,0.1-6.2,4-7.3c2-0.6,1.7-2.4,1.6-3.9c-0.1-2-1.6-1.7-2.7-1.7
		c-2.6,0-3.1-1.5-2.8-3.7c0-0.2,0-0.3,0-0.5c-1.7-10.5,1.2-19.2,9.4-26.3c3.3-2.9,5.8-6.5,8.7-9.8c2.5,0.8,1.9,2.9,2,4.6
		c0.2,5.2,0.1,10.3,0,15.5c-0.1,3.3,1.2,4.1,4.3,3.1c9.9-3,19.6-6.5,29.7-9c2.4-0.8,5-0.8,7.5-0.7c14,0.1,27.9-0.3,41.9,0.2
		c12.3,3.6,24.7,7.2,36.8,11.4c6,3.3,11.2,7.9,16.8,11.8c0.8,0.6,1.9,1.3,1.4,2.6c-1.9,1.3-5.9,0.4-4.8,4.7c-2.4,1.4-4.1-0.6-6-1.4
		c-2.4-1-4.7-2.4-7.2-3.4c-12.2-3-24.2-6.8-36.8-8.1c-16.4,0.1-32.8,0.2-49.1,0c-9.9,1.7-19.6,4.2-29.3,6.5
		c-3.4,0.8-5.1,2.5-4.9,6.2c0.2,4.8,0.2,9.7,0,14.6c-0.1,3.7,1.6,4.9,5.1,4.9c10,0.1,20-1.6,30-1c16.7-0.2,33.4-0.2,50.1,0
		c11.9-0.5,23.7,1.2,35.5,1.1c2.6,0.4,5.2,0.7,7.9,0.9c2.1,0.2,4.5,0.2,5.1,3.1c0,2.2,0,4.5,0,6.7c-1.1,3.2-4,2.9-6.5,3.1
		c-3.7,0.4-7.4-0.5-11,0.7c-10.3,0.2-20.6,1.2-30.9,1.3c-16.7,0.2-33.4,0.2-50,0c-9.9,0.3-19.6-1.5-29.5-1c-5.1,0.3-5.6,0.6-5.6,5.8
		c0,4.8,0,9.7,0,14.6c0,2.8,1.1,4.5,3.9,5c10.4,2.1,20.6,5.2,31.2,6.8c16.1-0.2,32.2-0.1,48.3,0c3.8,0.3,7.4-1,11-1.9
		c8.6-2.2,17.3-3.6,25.8-6.1c3.2-1.2,6.2-2.9,9.2-4.4C161.9,176.4,163.1,175,164.9,175.9z"/>
	<path class="st4" d="M116.7,205c11.6-3.5,23.3-6.9,34.9-10.4c1.1,0.9,1.3,2.1,1.3,3.4c0,7.6,0.8,15.3-0.6,22.9
		c-9.2,6-19.5,9.8-29,15.1c-5.1,2.9-10.3,3.9-16.1,3.8c-12.5-0.3-25-0.1-37.5-0.1c-1.7,0-3.5,0.6-4.9-0.7c0.4-0.5,0.9-0.8,1.4-1
		c8.3-1.1,16.6-0.3,24.9-0.5c5.5-0.1,11,0,16.5,0c6.4,0,6.7-0.3,6.7-6.5c0.1-7.5-0.2-15.1,0.2-22.6c0.1-0.6,0.2-1.1,0.4-1.7
		c0.2-0.5,0.6-1,1-1.4C116.2,205.2,116.4,205.1,116.7,205z"/>
	<path class="st4" d="M151.6,105c-11.9-3.7-23.9-7.5-35.8-11.2c-1.6-1.8-1.5-4.1-1.5-6.2c0-6.4,0-12.9,0-19.3c0-5.5-0.4-5.9-5.8-5.9
		c-12.4-0.1-24.8,0-37.2,0c-1.7,0-3.5,0.1-5.1-0.5c-0.6-0.2-1-0.6-1.4-1.1c1.3-1.3,3-0.7,4.5-0.8c14.4,0,28.9,0,43.3,0
		c1.9,0,3.7,0.2,5.4,1.1c10.8,5.4,21.6,10.8,32.4,16.2c0.8,0.4,1.8,0.6,2.1,1.7c1.2,7.4,0.5,14.9,0.6,22.4
		C153,102.5,152.8,104,151.6,105z"/>
	<path class="st5" d="M65.7,238.7c-0.3,0-0.6,0.1-0.9,0.3c-11.8-5.6-23.6-11.2-34.9-17.7c0-7.7,0.2-15.3,0-23
		c-0.1-3.2,0.9-3.8,3.8-2.9c8.6,2.8,17.2,5.5,25.8,8.1c1.8,0.5,3.6,0.9,5.4,1.3c0.2,0.1,0.4,0.3,0.6,0.4c0.3,0.4,0.6,0.8,0.8,1.3
		c0.4,0.7,0.6,1.5,0.7,2.3c0.5,8.3,0.2,16.6,0.2,25C67.2,235.7,67.1,237.4,65.7,238.7z"/>
	<path class="st5" d="M64.7,60.6c0.3,0.1,0.7,0.2,1,0.3c1.6,1.6,1.5,3.7,1.5,5.7c0.1,7,0,14,0,21c0,2.6-0.4,4.9-2.3,6.9
		c-10.3,3.1-20.5,6.1-30.7,9.5c-3.7,1.2-4.4,0.4-4.4-3.3c-0.1-7.3,1-14.6-0.6-21.8c4.4-3.7,9.8-5.4,14.8-8
		C50.9,67.2,57.8,64,64.7,60.6z"/>
	<path class="st6" d="M164.9,175.9c-4.1,2.1-8.3,4.3-12.4,6.4c-2.3-1.1-2.1-3.3-2.2-5.3c-0.1-5-0.2-10,0-15c0.1-2.6-0.6-4.6-2.6-6.2
		c3.1-1.5,6.4-0.5,9.7-0.8c2.6-0.2,5.3-0.1,7.5-1.9c5.3-0.1,6.1,3.1,5.5,7.4c-0.3,2-0.3,4.1,0,6.1
		C171.3,171.5,169.5,174.5,164.9,175.9z"/>
	<path class="st6" d="M152.3,220.9c-1.6-6.4-0.3-12.9-0.7-19.3c-0.1-2.3,0-4.6-0.1-7c5.2-3.8,10.3-7.6,15.6-11.2
		c2.1-1.4,1.1-2-0.3-2.7c2.6-0.5,3.8,0.3,3.6,3.2c-0.2,4.5-0.1,9.1,0,13.6c0,1.7-0.4,3-1.5,4.3C163.3,208.1,157.8,214.5,152.3,220.9
		z"/>
	<path class="st6" d="M151.6,105c0-7.3,0-14.5,0.1-21.8c0-1.5-0.5-3.1,0.8-4.4c5.4,6.3,10.9,12.5,16.3,18.8c0.6,0.7,1.5,1.6,1.5,2.3
		c-0.2,6.1,1.2,12.4-0.7,18.4C163.6,113.9,157.6,109.4,151.6,105z"/>
	<path class="st6" d="M164.9,146.5c-1.9-2.1-4.5-1.7-7-1.8c-1.9-0.1-3.8,0.1-5.4-1c-1.7-1-2.2-2.6-2.2-4.4c-0.2-5.8-0.2-11.6,0-17.4
		c0.1-1.7,0.2-3.5,2.1-4.4c4.1,1.8,8.3,3.7,12.4,5.5c1.2,2.4,5.5,1.7,5.6,5.1c0.1,5.5,0.4,11-0.2,16.5
		C169.9,146.9,166.4,145,164.9,146.5z"/>
	<path class="st2" d="M381.9,141.6c8.2-5.9,11.4-6,18.5-0.1c1.6,1.4,1.9,0,2.5-0.5c4.1-3.7,8.7-5.1,13.8-2.7
		c5.1,2.4,6.2,7.2,6.4,12.2c0.2,5.8-0.1,11.6,0.1,17.4c0.1,2.4-0.6,3.2-3.1,3.2c-7.1,0.1-7.1,0.2-7.1-6.8c0-4.4,0.1-8.8-0.1-13.2
		c-0.1-3.1-1.2-5.8-4.9-5.6c-3.5,0.1-4.7,2.7-4.7,5.8c0,5.3-0.2,10.7,0,16c0.1,2.8-0.7,3.8-3.6,3.8c-6.6-0.1-6.6,0.1-6.6-6.7
		c0-4.2,0.1-8.5,0-12.7c-0.1-3.2-0.9-6.3-4.9-6.1c-3.8,0.1-4.9,3-5,6.2c-0.1,5-0.4,10.1,0.1,15.1c0.4,4.4-1.9,4.4-5,4.3
		c-2.8-0.1-5.5,0.7-5.2-4.1c0.4-8.1,0-16.3,0.2-24.5c0-1.6-1.9-4.8,1.8-4.5C377.5,138.3,382.2,135.1,381.9,141.6z"/>
	<path class="st2" d="M255.3,146.1c-0.4-10.1-5.6-16.9-15.2-19.6c-7.6-2.2-15.2-1.4-22.9-0.7c-2.3,0.2-2.3,1.6-2.3,3.3
		c0,6.4,0,12.9,0,19.3c0,6.4,0,12.9,0,19.3c0,1.5-0.3,3.2,2.1,3.4c8.3,0.5,16.6,1.1,24.7-2C250.8,165.7,255.7,157.2,255.3,146.1z
		 M228.5,163.6c-2.5-0.1-3.3-0.8-3.2-3.3c0.1-4.1,0-8.1,0-12.2c0-3.9,0.1-7.8,0-11.7c-0.1-2.5,0.9-3.1,3.3-3.2
		c10.1-0.5,16,4.7,16,14.5C244.5,157.9,238.3,163.9,228.5,163.6z"/>
	<path class="st2" d="M364.8,165.6c0.3-2,0.1-4.1,0.1-6.1c0,0,0,0-0.1,0c0-3.3,0.1-6.6,0-9.9c-0.4-6.8-3.7-10.7-10.4-12.1
		c-5.1-1-10,0-14.8,1.6c-3.7,1.2-1.2,3.5-1,5.3c0.3,2.5,1.9,1.6,3.4,1c2.8-1,5.7-1.6,8.8-0.9c1.8,0.4,3.7,1,3.5,3.1
		c-0.2,2.3-2.5,1.4-3.8,1.6c-3.7,0.3-7.1,1.1-10.3,3c-2.5,1.5-4.2,3.7-4.8,6.7c-0.9,4.4,0,8.2,3.8,10.9c4.3,3.1,8.8,2.4,13.4,0.5
		c1-0.4,2-3.1,3.3-0.9c2.3,3.8,5.8,1.8,8.3,1.5C366.8,170.4,364.5,167.4,364.8,165.6z M355.1,158.2c-0.1,3.6-1.8,5.9-5.6,6.2
		c-2.7,0.2-4.2-1.3-4.4-3.8c-0.3-2.8,3.5-5.3,7.7-5.5C355.2,155.1,355.2,156.5,355.1,158.2z"/>
	<path class="st6" d="M116.7,142.6c-17,0-33.9,0-50.9,0.1c-1.2-1.2-1.5-2.7-1.5-4.3c-0.1-9.1,0-18.2-0.1-27.2c0-0.8,0.2-1.5,0.6-2.2
		c17,0,33.9,0,50.9,0c0.6,0.7,1.2,1.6,1.2,2.5C117.2,121.8,117.8,132.2,116.7,142.6z"/>
	<path class="st6" d="M65.8,157c17,0,33.9,0,50.9,0c1.1,10.4,0.5,20.9,0.3,31.3c0,0.9-0.5,1.8-1.2,2.5c-16.7,0-33.4,0.1-50.1,0.1
		c-1.2-1.4-1.4-3.1-1.5-4.8c-0.1-8.1-0.1-16.2,0-24.3C64.3,160,64.5,158.3,65.8,157z"/>
	<path class="st6" d="M65,94.4c1.7-11.2,0.4-22.4,0.7-33.6c15.5,0,31,0,46.5-0.2c3,0,3.7,1.3,3.6,3.9c-0.1,9.7,0,19.4,0,29.1
		c-15.1,0-30.1,0.1-45.2,0.1C68.7,93.8,66.8,93.7,65,94.4z"/>
	<path class="st4" d="M115.8,190.8c0-9.6,0-19.2,0-28.9c0-1.7-0.1-3.4,0.9-4.9c10.3-0.4,20.7-0.8,31-1.1c2.8-0.2,4.1,0.3,4.1,4
		c-0.1,7.5-1.2,15,0.7,22.5C140.4,185.8,128.1,188.5,115.8,190.8z"/>
	<path class="st4" d="M116.7,142.6c-1.2-1.6-0.9-3.5-0.9-5.4c0-9.5,0-18.9,0-28.4c12.4,2.1,24.6,4.8,36.6,8.6
		c-1.2,8.7-1.4,17.5,0.1,26.2C140.5,144.2,128.6,142.6,116.7,142.6z"/>
	<path class="st5" d="M65.8,157c0,11.3,0,22.6-0.1,33.9c-11.3-2.5-22.5-5.1-33.8-7.5c-2.3-0.5-2-2.1-2-3.6c0-6.6,0.1-13.2-0.1-19.8
		c-0.1-3.1,0.9-4,4-4.1C44.6,155.6,55.2,156.8,65.8,157z"/>
	<path class="st5" d="M64.9,108.9c1.5,2.9,0.8,6.1,0.8,9.2c0.1,8.2,0.1,16.4,0.1,24.7c-10.4,0.3-20.9,0.6-31.3,1.1
		c-3.4,0.2-4.8-0.7-4.7-4.4c0.3-6.4,0.1-12.8,0.1-19.2c0-2,0.1-3.4,2.7-4C43.3,113.5,54,111,64.9,108.9z"/>
	<path class="st7" d="M64.8,205c0.9-1.2,2.2-0.9,3.5-0.9c15,0,30,0,45,0c1.2,0,2.5-0.2,3.4,0.9c0,0,0.1,0.1,0.1,0.1
		c-2,1.1-4.1,1.3-6.3,1.3c-13.3,0-26.5,0-39.8,0C68.6,206.3,66.5,206.4,64.8,205L64.8,205z"/>
	<path class="st6" d="M65.7,238.7c0-10.6,0-21.2,0-31.8c1.1-1.2,2.6-0.9,4-1c14,0,28.1,0,42.1,0c1.4,0,2.8-0.1,4,0.9
		c0,9.4-0.1,18.8,0.1,28.2c0,2.7-0.7,3.9-3.7,3.9C96.7,238.8,81.2,238.8,65.7,238.7z"/>
	<path class="st8" d="M64.8,205.1c17.3,0,34.6,0,51.9,0c-0.3,0.3-0.6,0.6-1,0.9c-9,0.9-18.1,0.3-27.1,0.4c-7.9,0-15.9,0.6-23.8-0.4
		C64.8,205.7,64.8,205.4,64.8,205.1z"/>
	<path class="st9" d="M64.8,206c17,0,34,0,50.9,0c0,0.3,0,0.6,0,0.9c-16.7,0-33.4,0-50,0C65.4,206.6,65.1,206.3,64.8,206z"/>
	<path class="st2" d="M448,137.1c-10.6-0.3-18.1,6.7-18.2,17.2c-0.2,10.1,6.7,17.2,16.9,17.5c10,0.3,17.5-7,17.8-17.3
		C464.8,144.8,457.9,137.4,448,137.1z M447.1,164.4c-4.1-0.1-7.2-4.8-6.7-10.7c0.1-1.5,0.4-3.1,1-4.6c1-2.7,2.7-4.6,5.9-4.6
		c3.2,0,4.8,2,5.8,4.6c0.6,1.6,0.7,3.3,0.9,4.2C453.9,160.3,451.1,164.5,447.1,164.4z"/>
	<path class="st2" d="M544,146.2c4.6-2.9,7.8-6.5,6.1-12.2c-1.7-5.8-6.5-7.5-11.9-8.4c-5-0.8-10-0.1-15,0c-3.8,0.1-5.1,1.2-5,5.1
		c0.3,9.1,0.1,18.2,0.1,27.3c0,14.4,0,14.4,14.9,13.4c4.6-0.3,9.1-0.7,13.1-3.2C555,162.7,554,152.7,544,146.2z M528.7,136.3
		c-0.8-3.2,1.2-4.1,4.1-3.7c3.4,0.5,7.1,0.7,7.3,5.4c0.1,3.4-3.3,5.8-8.2,5.6C525.9,143.4,529.4,138.8,528.7,136.3z M531.6,163.9
		c-6.1-1-1.9-6.2-2.9-9.4c-0.8-2.5,0.3-4.4,3.1-3.7c6.3,0.2,9.4,2.5,9.3,6.7C541.1,161.8,537.4,164.8,531.6,163.9z"/>
	<path class="st2" d="M511.1,144.7c-1-10.6-7.2-17.2-17.6-19c-6.6-1.1-13.1-0.6-19.7-0.1c-2.4,0.2-2.8,1.3-2.7,3.3
		c0.1,6.4,0,12.9,0,19.3c0,6.4,0,12.9,0,19.3c0,1.8-0.2,3.4,2.5,3.5c8,0.4,16,0.9,23.7-1.9C507.1,165.7,512.3,156.6,511.1,144.7z
		 M488.6,160.5c-2.7,0.6-4.2,0.1-4.1-3.1c0.1-6,0.1-11.9,0-17.9c0-2.4,0.9-3.3,3.3-3.3c6.2-0.1,10,4.1,9.9,11.6
		C497.7,155.3,494.9,159.1,488.6,160.5z"/>
</g>
</svg>
