<svg id="Calque_1" data-name="Calque 1" xmlns="http://www.w3.org/2000/svg" viewBox="0 0 192 80"><defs><style>.cls-1{fill:#fff;}.cls-2{fill:#ec654a;}</style></defs><title>logo-xebia-vmv</title><path class="cls-1" d="M48.79,25.94H39.51a4.7,4.7,0,0,1,4.55-3.5,4.55,4.55,0,0,1,4.74,3.5M39.38,29.1H53c0-.29,0-.57,0-.86a8.93,8.93,0,0,0-1.62-5.6,9.07,9.07,0,0,0-7.4-3.83,9,9,0,0,0-8.77,9,9.18,9.18,0,0,0,2.54,6.29,8.84,8.84,0,0,0,14.64-3.2H48.17a4.59,4.59,0,0,1-4.06,2.13c-2.7,0-4.48-1.52-4.73-4"/><path class="cls-1" d="M59.29,27.93a4.91,4.91,0,0,1,4.9-5.11,5,5,0,0,1,5,5,5,5,0,0,1-5.15,5,4.81,4.81,0,0,1-4.71-5m-.16-7.25V13.8H55.22V36.37h3.91V35a8.32,8.32,0,0,0,5.31,1.8,8.42,8.42,0,0,0,5.6-2,9.11,9.11,0,0,0,3.21-7,9,9,0,0,0-2.89-6.64,8.46,8.46,0,0,0-5.88-2.26,7.78,7.78,0,0,0-5.35,1.78"/><path class="cls-1" d="M76,19.32h3.83V36.38H76Zm0-5.53h3.83v3.78H76Z"/><path class="cls-1" d="M86.39,27.7a4.86,4.86,0,0,1,4.86-4.88A5,5,0,0,1,96,27.89a4.83,4.83,0,1,1-9.65-.19m10.14,8.67h3.79V19.32H96.5v2a6.13,6.13,0,0,0-5.41-2.47,8.21,8.21,0,0,0-6.32,2.62,8.9,8.9,0,0,0-2.44,6.24,8.73,8.73,0,0,0,8.85,9c2.63,0,4.35-.76,5.3-2.48Z"/><polygon class="cls-1" points="0.46 43.83 10.94 43.83 22.16 32.61 33.38 43.83 43.86 43.83 27.4 27.38 43.99 10.78 33.51 10.78 22.16 22.14 10.81 10.78 0.33 10.78 16.92 27.38 0.46 43.83"/><path class="cls-2" d="M75.22,42.71a23.72,23.72,0,0,1,2.27-3.37l.29-.37a.67.67,0,0,0,.15-.42,1.11,1.11,0,0,0-.44-.86,1.42,1.42,0,0,0-.93-.37.79.79,0,0,0-.51.2,3.7,3.7,0,0,0-.49.49q-.24.29-.44.57t-.33.51Q73.35,41.28,72,43.68t-2.69,4.7L66.93,52.5q-1.17,2.05-2.32,4.17-.62,1.1-1.21,2.21a12,12,0,0,0-.95,2.29,70.48,70.48,0,0,0-2.67-9.33,50.26,50.26,0,0,0-4.17-8.75q-.53-.88-1.08-1.7a12.63,12.63,0,0,0-1.26-1.57L52.42,39a1.47,1.47,0,0,0-1-.49,1.26,1.26,0,0,0-.73.26,3.69,3.69,0,0,0-.71.66,4.68,4.68,0,0,0-.55.82,1.67,1.67,0,0,0-.22.77,1.19,1.19,0,0,0,.37.73q.37.42.6.64a11.33,11.33,0,0,1,1.32,1.94q.57,1.06,1.1,2.07a86.29,86.29,0,0,1,4,9.48,55.49,55.49,0,0,1,2.58,9.92,4.19,4.19,0,0,1,.11.79,3.12,3.12,0,0,0,.15.84,1.66,1.66,0,0,0,.4.66,1.08,1.08,0,0,0,.79.26,2.39,2.39,0,0,0,1.17-.22,1.38,1.38,0,0,0,.55-.57,2.71,2.71,0,0,0,.24-.86,6.58,6.58,0,0,1,.24-1.08,9.35,9.35,0,0,1,.55-1.48q.37-.82.82-1.65t.88-1.63l.79-1.46q1.76-3.31,3.57-6.59t3.7-6.55Q74.23,44.5,75.22,42.71Z"/><path class="cls-2" d="M75.41,46.06a2.52,2.52,0,0,0-.6,1.59,1.84,1.84,0,0,0,.4,1.17,1.32,1.32,0,0,0,1.1.51,1.9,1.9,0,0,0,1.5-.73A2.43,2.43,0,0,0,78.43,47,1.78,1.78,0,0,0,78,45.82a1.39,1.39,0,0,0-1.12-.51A1.82,1.82,0,0,0,75.41,46.06Z"/><path class="cls-2" d="M164.65,51.75a.53.53,0,0,0,.11-.35.87.87,0,0,0-.4-.73,1.35,1.35,0,0,0-.79-.29.82.82,0,0,0-.66.33l-.49.6A55.25,55.25,0,0,0,159,56.78q-1.52,2.82-3.07,5.6a25.49,25.49,0,0,0-.75-2.69q-.49-1.46-1.12-2.91A30.77,30.77,0,0,0,152.72,54a11.4,11.4,0,0,0-1.63-2.25,3.28,3.28,0,0,0-.57-.53,1.26,1.26,0,0,0-.75-.22A2,2,0,0,0,148,52.72a.75.75,0,0,0,.22.51l.4.42a12.27,12.27,0,0,1,1.59,2.54c.48,1,.94,2,1.37,3.12-.17.24-.32.47-.47.7q-.4.62-1.19,1.63a23.7,23.7,0,0,1-1.72,2,14.93,14.93,0,0,1-1.9,1.65,3.1,3.1,0,0,1-1.76.71.89.89,0,0,1-.82-.55,4.5,4.5,0,0,1-.42-1.28,9.69,9.69,0,0,1-.15-1.43q0-.71,0-1.06a20.71,20.71,0,0,1,.15-2.45,13.81,13.81,0,0,1,.51-2.45q.18-.48.49-1.28a3.76,3.76,0,0,0,.31-1.28.55.55,0,0,0-.33-.57,1.82,1.82,0,0,0-.68-.13,1.14,1.14,0,0,0-.95.42,4.39,4.39,0,0,0-.55.9q-.22.44-.64,1.35t-1,2q-.57,1.06-1.21,2.18a21.11,21.11,0,0,1-1.3,2,11.64,11.64,0,0,1-1.28,1.5,1.72,1.72,0,0,1-1.1.6.45.45,0,0,1-.48-.4,3.11,3.11,0,0,1-.09-.66,11,11,0,0,1,1-4.7,14.18,14.18,0,0,1,2.73-3.95,14.49,14.49,0,0,1,2.05-1.79q1.08-.77,2.27-1.48a1.59,1.59,0,0,0,.31-.2.4.4,0,0,0,.13-.33A1.26,1.26,0,0,0,143,50a1.46,1.46,0,0,0-1-.44,6.18,6.18,0,0,0-3.73,1.32,14.4,14.4,0,0,0-3.18,3.29,18.67,18.67,0,0,0-2.23,4.17,12.64,12.64,0,0,0-.79,3c-.24.29-.52.62-.84,1a21.17,21.17,0,0,1-1.72,1.74,13.49,13.49,0,0,1-1.87,1.43,3.29,3.29,0,0,1-1.7.6.88.88,0,0,1-.68-.26,1.6,1.6,0,0,1-.35-.62,3.11,3.11,0,0,1-.13-.77q0-.42,0-.73a42.12,42.12,0,0,1,.31-5.09,42.2,42.2,0,0,0,.31-5.09,5.35,5.35,0,0,0-.15-1.26,4,4,0,0,0-.48-1.17,2.9,2.9,0,0,0-.86-.88,2.18,2.18,0,0,0-1.24-.35,3.38,3.38,0,0,0-2,.66A9.88,9.88,0,0,0,119,52.15a21.41,21.41,0,0,0-1.52,1.94l-1.24,1.76q-.88,1.28-1.79,2.54T112.74,61l-.29.46q-.2.33-.33.33t-.13-.13a.71.71,0,0,1,0-.18,5.27,5.27,0,0,1-.18-1.37V58.68q0-1.28,0-2.56t0-2.56a10.18,10.18,0,0,0-.07-1.06,5.4,5.4,0,0,0-.26-1.19,2.85,2.85,0,0,0-.55-1,1.23,1.23,0,0,0-1-.4,3.13,3.13,0,0,0-1.94.9A15.93,15.93,0,0,0,106,53q-1,1.24-1.83,2.51t-1.32,2q.22-1.28.53-2.56a17.19,17.19,0,0,1,.79-2.47q.18-.44.44-1.06l.53-1.26a11.66,11.66,0,0,0,.44-1.26,4,4,0,0,0,.18-1.06,1.24,1.24,0,0,0-.22-.77.84.84,0,0,0-.71-.29,4.87,4.87,0,0,0-1.94.44,3,3,0,0,0-1.5,1.32,13.07,13.07,0,0,0-.66,1.85q-.4,1.32-.79,3.07t-.79,3.68q-.4,1.94-.68,3.73c-.08.48-.15.93-.21,1.36-.53.6-1.09,1.19-1.7,1.77a18.11,18.11,0,0,1-2.12,1.72,3.11,3.11,0,0,1-1.85.68,5.2,5.2,0,0,0,.77-1.63A6.65,6.65,0,0,0,93.6,63a9,9,0,0,0-.44-2.78,18.27,18.27,0,0,0-1.1-2.67q-.66-1.3-1.37-2.58a25.25,25.25,0,0,1-1.24-2.56,21.5,21.5,0,0,0,.71-2.14A8.4,8.4,0,0,0,90.47,48a4.58,4.58,0,0,0-.07-.75,3.56,3.56,0,0,0-.22-.77,1.59,1.59,0,0,0-.44-.62,1,1,0,0,0-.68-.24,2,2,0,0,0-1.41.57,4.73,4.73,0,0,0-1,1.37A8.15,8.15,0,0,0,86,49.28a6.45,6.45,0,0,0-.22,1.54,7.1,7.1,0,0,0,.4,2.34,26.58,26.58,0,0,1-2.35,5.28l-.17.23q-.44.71-1.26,1.9a24.1,24.1,0,0,1-1.81,2.32,15.57,15.57,0,0,1-2,1.94,3.2,3.2,0,0,1-1.92.82,1,1,0,0,1-.88-.49A3.65,3.65,0,0,1,75.32,64a6.76,6.76,0,0,1-.18-1.32q0-.66,0-1.06a19.12,19.12,0,0,1,.4-3.93q.13-.49.35-1.12l.44-1.28q.22-.64.37-1.24a4.21,4.21,0,0,0,.15-1q0-1-1-1a2.58,2.58,0,0,0-2.09.82,6.08,6.08,0,0,0-1.08,2A24.58,24.58,0,0,0,72,57.55a15,15,0,0,0-.29,2.76q0,1,.13,2.27A9.74,9.74,0,0,0,72.43,65a5.84,5.84,0,0,0,1.21,2,2.75,2.75,0,0,0,2.1.82,4.57,4.57,0,0,0,2.43-.77,15.41,15.41,0,0,0,2.4-1.87,22.56,22.56,0,0,0,2.14-2.32l.12-.15.1-.09A10.39,10.39,0,0,0,84.23,61q.64-1,1.21-2t1-2.14q.46-1.08.77-2a18.91,18.91,0,0,1,1.08,1.87,23.49,23.49,0,0,1,1,2.23A19.93,19.93,0,0,1,90,61.28a8.94,8.94,0,0,1,.29,2.16,4.15,4.15,0,0,1-.9,2.76,3.28,3.28,0,0,1-2.67,1.08,7.15,7.15,0,0,1-1.63-.18,4.77,4.77,0,0,1-1.5-.66l-.37-.22a.85.85,0,0,0-.42-.09q-.71,0-.71.66a1,1,0,0,0,.13.53,2.32,2.32,0,0,0,.35.44A4.63,4.63,0,0,0,85.07,69a15.69,15.69,0,0,0,2.76.26,16,16,0,0,0,4.34-.55,12.74,12.74,0,0,0,3.57-1.61,14.5,14.5,0,0,0,2.09-1.69c0,.3,0,.56,0,.76a1.09,1.09,0,0,0,.22.68.78.78,0,0,0,.66.29,1.27,1.27,0,0,0,1-.42,3.58,3.58,0,0,0,.6-.9q.22-.53.84-1.68t1.46-2.6q.84-1.46,1.79-3t1.85-2.82a19.21,19.21,0,0,1,1.68-2.1q.77-.82,1.21-.82a.36.36,0,0,1,.4.35,5,5,0,0,1,0,.57v4.15q0,1.46.09,3t.26,2.84a10.26,10.26,0,0,0,.49,2.14q.31.84.75.84a1.06,1.06,0,0,0,.71-.22,2.37,2.37,0,0,0,.49-.57q.35-.53,1-1.7t1.48-2.62q.84-1.46,1.79-3t1.85-2.84a17.57,17.57,0,0,1,1.7-2.1,2.16,2.16,0,0,1,1.32-.82.49.49,0,0,1,.42.22,1.44,1.44,0,0,1,.22.51,4,4,0,0,1,.09.6c0,.21,0,.37,0,.49q0,2-.2,4t-.2,4q0,.79.07,1.81a7.67,7.67,0,0,0,.37,1.94,4,4,0,0,0,.9,1.54,2.25,2.25,0,0,0,1.7.62,5.18,5.18,0,0,0,2.49-.75A17.47,17.47,0,0,0,130,65.89a23.47,23.47,0,0,0,2.26-2.15,6.19,6.19,0,0,0,.38,1.42,3.25,3.25,0,0,0,.82,1.19,1.88,1.88,0,0,0,1.32.49,3,3,0,0,0,1.79-.66,11.63,11.63,0,0,0,1.74-1.59,18.71,18.71,0,0,0,1.52-1.92L140.92,61a15.3,15.3,0,0,0,0,2,9.48,9.48,0,0,0,.44,2.25,5.36,5.36,0,0,0,1,1.85,2.21,2.21,0,0,0,1.76.77,4.67,4.67,0,0,0,2.32-.66,11.56,11.56,0,0,0,2.21-1.63,19.67,19.67,0,0,0,1.92-2.07q.88-1.1,1.5-1.94l.21-.32c.23.66.44,1.31.62,2a23.69,23.69,0,0,1,.68,3,9,9,0,0,0,.29,1.17q.15.46,1,.46t1-.44a5.31,5.31,0,0,0,.33-1.06,7.19,7.19,0,0,1,.64-1.52q.55-1.08,1.35-2.51t1.72-3q.93-1.61,1.81-3l1.59-2.56A18.74,18.74,0,0,1,164.45,52,3,3,0,0,1,164.65,51.75Z"/><path class="cls-2" d="M168.83,49.33a1.9,1.9,0,0,0,1.5-.73A2.43,2.43,0,0,0,171,47a1.78,1.78,0,0,0-.42-1.17,1.39,1.39,0,0,0-1.12-.51,1.82,1.82,0,0,0-1.48.75,2.52,2.52,0,0,0-.6,1.59,1.84,1.84,0,0,0,.4,1.17A1.32,1.32,0,0,0,168.83,49.33Z"/><path class="cls-2" d="M191.48,58.88a.74.74,0,0,0-.42-.13,1,1,0,0,0-.79.4,9,9,0,0,0-.53.75,20.06,20.06,0,0,1-1.54,2.21,12.93,12.93,0,0,1-1.94,2A10.26,10.26,0,0,1,184,65.47a6.41,6.41,0,0,1-2.65.55,2.61,2.61,0,0,1-2.21-.86,3.8,3.8,0,0,1-.66-2.37,8.8,8.8,0,0,1,.22-1.86,7.52,7.52,0,0,0,2.21-1.33,16,16,0,0,0,2.23-2.23,14.31,14.31,0,0,0,1.72-2.61,5.51,5.51,0,0,0,.68-2.45,2.84,2.84,0,0,0-.64-1.9,2.27,2.27,0,0,0-1.83-.75A4.68,4.68,0,0,0,179.79,51a12.7,12.7,0,0,0-2.54,3.33,19,19,0,0,0-1.63,4.08c-.16.61-.29,1.17-.38,1.7l-.3.44a24.1,24.1,0,0,1-1.81,2.32,15.56,15.56,0,0,1-2,1.94,3.2,3.2,0,0,1-1.92.82,1,1,0,0,1-.88-.49,3.65,3.65,0,0,1-.46-1.15,6.76,6.76,0,0,1-.18-1.32q0-.66,0-1.06a19.12,19.12,0,0,1,.4-3.93q.13-.49.35-1.12l.44-1.28q.22-.64.37-1.24a4.21,4.21,0,0,0,.15-1q0-1-1-1a2.58,2.58,0,0,0-2.09.82,6.08,6.08,0,0,0-1.08,2,24.59,24.59,0,0,0-.64,2.67,15,15,0,0,0-.29,2.76q0,1,.13,2.27A9.74,9.74,0,0,0,165,65a5.84,5.84,0,0,0,1.21,2,2.75,2.75,0,0,0,2.1.82,4.57,4.57,0,0,0,2.43-.77,15.41,15.41,0,0,0,2.4-1.87,22.58,22.58,0,0,0,2-2.17,9.16,9.16,0,0,0,.21,1.29,5.33,5.33,0,0,0,.86,1.9,4.56,4.56,0,0,0,1.52,1.32,4.63,4.63,0,0,0,2.25.51,10.2,10.2,0,0,0,3.48-.6,13.11,13.11,0,0,0,3.13-1.63,15.56,15.56,0,0,0,2.67-2.39,16.3,16.3,0,0,0,2.05-2.87,3,3,0,0,0,.31-.62,2.3,2.3,0,0,0,.09-.71A.41.41,0,0,0,191.48,58.88Zm-12.2-1.49a22.29,22.29,0,0,1,1-2.53,14.1,14.1,0,0,1,1.24-2.22q.66-1,1.32-1a.59.59,0,0,1,.6.33,1.62,1.62,0,0,1,.15.69,4.05,4.05,0,0,1-.49,1.84,12,12,0,0,1-2.73,3.5,12.62,12.62,0,0,1-1.54,1.18A14.1,14.1,0,0,1,179.28,57.39Z"/></svg>