<svg id="Calque_1" data-name="Calque 1" xmlns="http://www.w3.org/2000/svg" viewBox="0 0 130 70"><defs><style>.cls-1{fill:none;}.cls-2{fill:#6b215f;}</style></defs><title>logo-xke</title><rect class="cls-1" width="130" height="70"/><polygon id="_Tracé_" data-name="&lt;Tracé&gt;" class="cls-2" points="59.61 20 52.67 20 45.3 27.46 37.94 20 31 20 41.83 31.5 31 43 37.94 43 45.3 35.53 52.67 43 59.61 43 48.78 31.5 59.61 20"/><path class="cls-2" d="M67.33,33.36v.53l.49-.49-.28-.26Z"/><polygon class="cls-2" points="67.33 28.01 62.03 33.31 62.03 33.85 67.33 28.54 67.33 28.01"/><polygon class="cls-2" points="76.2 20.22 69.33 27.08 67.33 29.5 67.33 29.08 62.03 34.38 62.03 34.92 76.73 20.22 76.2 20.22"/><path class="cls-2" d="M71.58,37.13l3.21-3.21-.26-.28-3.21,3.21Z"/><polygon class="cls-2" points="79.41 20.22 62.03 37.59 62.03 38.13 79.94 20.22 79.41 20.22"/><polygon class="cls-2" points="77.27 20.22 62.03 35.45 62.03 35.99 77.8 20.22 77.27 20.22"/><polygon class="cls-2" points="78.34 20.22 62.03 36.52 62.03 37.06 78.87 20.22 78.34 20.22"/><path class="cls-2" d="M72.09,37.7l3.22-3.22-.25-.28-3.21,3.21Z"/><path class="cls-2" d="M69.47,35l3.19-3.19-.28-.26L69.2,34.71Z"/><path class="cls-2" d="M68.92,34.45l3.18-3.18L71.81,31l-3.16,3.16Z"/><path class="cls-2" d="M71.07,36.58l3.21-3.21L74,33.1,70.8,36.31Z"/><path class="cls-2" d="M70.54,36l3.21-3.21-.27-.27-3.21,3.21Z"/><path class="cls-2" d="M70,35.5l3.2-3.2L72.94,32l-3.2,3.2Z"/><polygon class="cls-2" points="71.91 23.97 75.66 20.22 75.13 20.22 74.46 20.89 71.91 23.97"/><polygon class="cls-2" points="67.33 20.52 62.03 25.82 62.03 26.36 67.33 21.05 67.33 20.52"/><polygon class="cls-2" points="66.57 20.22 62.03 24.75 62.03 25.29 67.1 20.22 66.57 20.22"/><polygon class="cls-2" points="65.5 20.22 62.03 23.68 62.03 24.22 66.03 20.22 65.5 20.22"/><polygon class="cls-2" points="67.33 21.59 62.03 26.89 62.03 27.43 67.33 22.13 67.33 21.59"/><polygon class="cls-2" points="64.43 20.22 62.03 22.61 62.03 23.15 64.96 20.22 64.43 20.22"/><polygon class="cls-2" points="67.33 22.66 62.03 27.96 62.03 28.5 67.33 23.2 67.33 22.66"/><polygon class="cls-2" points="67.33 25.87 62.03 31.18 62.03 31.71 67.33 26.4 67.33 25.87"/><polygon class="cls-2" points="67.33 26.94 62.03 32.24 62.03 32.78 67.33 27.47 67.33 26.94"/><polygon class="cls-2" points="67.33 24.8 62.03 30.11 62.03 30.64 67.33 25.34 67.33 24.8"/><path class="cls-2" d="M68.37,33.93l4.25-4.25,2.53-3.06L68.1,33.67Z"/><polygon class="cls-2" points="67.33 23.73 62.03 29.04 62.03 29.57 67.33 24.27 67.33 23.73"/><polygon class="cls-2" points="67.33 35.5 62.03 40.8 62.03 41.34 67.33 36.03 67.33 35.5"/><path class="cls-2" d="M78.37,38.38,75,41.79l.2.34,3.43-3.43Z"/><path class="cls-2" d="M77.92,37.75l-3.36,3.36.2.33,3.39-3.39Z"/><path class="cls-2" d="M78.81,39l-3.46,3.46.14.25h.14l3.4-3.4Z"/><path class="cls-2" d="M77,36.53l-3.29,3.29.21.32,3.31-3.31Z"/><path class="cls-2" d="M77.47,37.14l-3.33,3.33.21.32,3.34-3.34Z"/><path class="cls-2" d="M79.25,39.64l-3.08,3.08h.53L79.46,40Z"/><path class="cls-2" d="M76.53,35.93l-3.26,3.26.22.31,3.28-3.28Z"/><path class="cls-2" d="M80.94,42.23l-.49.49h.79Z"/><path class="cls-2" d="M67.82,33.41l9.88-9.88,2.53-3.06L67.54,33.15Z"/><path class="cls-2" d="M80.1,40.93l-1.79,1.79h.53l1.47-1.47Z"/><path class="cls-2" d="M79.68,40.28l-2.44,2.44h.53l2.12-2.12Z"/><path class="cls-2" d="M80.52,41.58l-1.14,1.14h.53l.82-.82Z"/><polygon class="cls-2" points="67.33 36.57 62.03 41.88 62.03 42.41 67.33 37.1 67.33 36.57"/><polygon class="cls-2" points="63.36 20.22 62.03 21.55 62.03 22.08 63.89 20.22 63.36 20.22"/><path class="cls-2" d="M76.24,35.56l-.19-.22-3.24,3.24.23.3,3.25-3.25Z"/><polygon class="cls-2" points="67.33 33.36 62.03 38.66 62.03 39.2 67.33 33.89 67.33 33.36"/><polygon class="cls-2" points="67.33 37.64 62.26 42.72 62.79 42.72 67.33 38.17 67.33 37.64"/><polygon class="cls-2" points="67.33 34.43 62.03 39.73 62.03 40.27 67.33 34.96 67.33 34.43"/><polygon class="cls-2" points="67.33 41.92 66.54 42.72 67.07 42.72 67.33 42.45 67.33 41.92"/><path class="cls-2" d="M75.56,34.77,72.34,38l0,0,.21.25,3.23-3.23Z"/><polygon class="cls-2" points="67.33 38.71 63.33 42.72 63.86 42.72 67.33 39.24 67.33 38.71"/><polygon class="cls-2" points="67.33 39.78 64.4 42.72 64.93 42.72 67.33 40.31 67.33 39.78"/><polygon class="cls-2" points="67.33 40.85 65.47 42.72 66 42.72 67.33 41.38 67.33 40.85"/><polygon class="cls-2" points="62.03 20.22 62.03 21.01 62.82 20.22 62.03 20.22"/><polygon class="cls-2" points="99.09 40 96.37 42.72 96.9 42.72 99.09 40.53 99.09 40"/><polygon class="cls-2" points="93.04 38.55 88.88 42.72 89.41 42.72 93.58 38.55 93.04 38.55"/><polygon class="cls-2" points="89.83 38.55 85.67 42.72 86.2 42.72 90.37 38.55 89.83 38.55"/><polygon class="cls-2" points="99.09 38.93 95.3 42.72 95.83 42.72 99.09 39.46 99.09 38.93"/><polygon class="cls-2" points="99.09 41.07 97.44 42.72 97.97 42.72 99.09 41.6 99.09 41.07"/><polygon class="cls-2" points="99.09 42.14 98.51 42.72 99.09 42.72 99.09 42.14"/><polygon class="cls-2" points="90.9 28.93 83.33 36.5 83.33 37.03 91.43 28.93 90.9 28.93"/><polygon class="cls-2" points="88.38 34.66 83.33 39.71 83.33 40.24 88.38 35.19 88.38 34.66"/><polygon class="cls-2" points="94.11 38.55 89.95 42.72 90.48 42.72 94.65 38.55 94.11 38.55"/><polygon class="cls-2" points="91.97 28.93 83.33 37.57 83.33 38.1 92.5 28.93 91.97 28.93"/><polygon class="cls-2" points="88.38 33.59 83.33 38.64 83.33 39.17 88.38 34.12 88.38 33.59"/><polygon class="cls-2" points="88.38 37.87 83.53 42.72 84.06 42.72 88.38 38.4 88.38 37.87"/><polygon class="cls-2" points="91.97 38.55 87.81 42.72 88.34 42.72 92.51 38.55 91.97 38.55"/><polygon class="cls-2" points="88.76 38.55 84.6 42.72 85.13 42.72 89.3 38.55 88.76 38.55"/><polygon class="cls-2" points="88.38 36.8 83.33 41.85 83.33 42.38 88.38 37.33 88.38 36.8"/><polygon class="cls-2" points="96.25 38.55 92.09 42.72 92.62 42.72 96.79 38.55 96.25 38.55"/><polygon class="cls-2" points="97.32 38.55 93.16 42.72 93.69 42.72 97.86 38.55 97.32 38.55"/><polygon class="cls-2" points="95.18 38.55 91.02 42.72 91.55 42.72 95.72 38.55 95.18 38.55"/><polygon class="cls-2" points="90.9 38.55 86.74 42.72 87.27 42.72 91.44 38.55 90.9 38.55"/><polygon class="cls-2" points="98.39 38.55 94.23 42.72 94.76 42.72 98.93 38.55 98.39 38.55"/><polygon class="cls-2" points="88.38 35.73 83.33 40.78 83.33 41.31 88.38 36.26 88.38 35.73"/><polygon class="cls-2" points="88.38 26.09 83.33 31.15 83.33 31.68 88.38 26.63 88.38 26.09"/><polygon class="cls-2" points="88.87 33.1 89.41 33.1 93.57 28.93 93.04 28.93 88.87 33.1"/><polygon class="cls-2" points="90.47 33.1 94.64 28.93 94.11 28.93 89.94 33.1 90.47 33.1"/><polygon class="cls-2" points="91.55 33.1 95.71 28.93 95.18 28.93 91.01 33.1 91.55 33.1"/><polygon class="cls-2" points="92.61 33.1 96.78 28.93 96.25 28.93 92.08 33.1 92.61 33.1"/><polygon class="cls-2" points="98.12 24.38 98.4 24.1 98.4 23.57 97.58 24.38 98.12 24.38"/><polygon class="cls-2" points="93.84 24.38 98 20.22 97.47 20.22 93.31 24.38 93.84 24.38"/><polygon class="cls-2" points="91.7 24.38 95.86 20.22 95.33 20.22 91.17 24.38 91.7 24.38"/><polygon class="cls-2" points="97.05 24.38 98.4 23.03 98.4 22.5 96.52 24.38 97.05 24.38"/><polygon class="cls-2" points="92.77 24.38 96.93 20.22 96.4 20.22 92.23 24.38 92.77 24.38"/><polygon class="cls-2" points="94.91 24.38 98.4 20.89 98.4 20.36 94.38 24.38 94.91 24.38"/><polygon class="cls-2" points="95.98 24.38 98.4 21.96 98.4 21.43 95.44 24.38 95.98 24.38"/><polygon class="cls-2" points="93.69 33.1 97.31 29.47 97.31 28.93 93.15 33.1 93.69 33.1"/><polygon class="cls-2" points="86.77 20.22 83.33 23.66 83.33 24.19 87.3 20.22 86.77 20.22"/><polygon class="cls-2" points="84.63 20.22 83.33 21.52 83.33 22.05 85.16 20.22 84.63 20.22"/><polygon class="cls-2" points="94.75 33.1 97.31 30.54 97.31 30 94.22 33.1 94.75 33.1"/><polygon class="cls-2" points="87.84 20.22 83.33 24.73 83.33 25.26 88.37 20.22 87.84 20.22"/><polygon class="cls-2" points="89.98 20.22 83.33 26.87 83.33 27.4 90.51 20.22 89.98 20.22"/><polygon class="cls-2" points="85.7 20.22 83.33 22.59 83.33 23.12 86.23 20.22 85.7 20.22"/><polygon class="cls-2" points="96.89 33.1 97.31 32.68 97.31 32.14 96.36 33.1 96.89 33.1"/><polygon class="cls-2" points="95.83 33.1 97.31 31.61 97.31 31.07 95.29 33.1 95.83 33.1"/><polygon class="cls-2" points="91.05 20.22 83.33 27.94 83.33 28.47 91.58 20.22 91.05 20.22"/><polygon class="cls-2" points="83.33 20.22 83.33 20.98 84.09 20.22 83.33 20.22"/><polygon class="cls-2" points="88.91 20.22 83.33 25.8 83.33 26.33 89.44 20.22 88.91 20.22"/><polygon class="cls-2" points="88.38 25.02 83.33 30.08 83.33 30.61 88.38 25.56 88.38 25.02"/><polygon class="cls-2" points="88.38 27.16 83.33 32.22 83.33 32.75 88.38 27.7 88.38 27.16"/><polygon class="cls-2" points="88.38 28.23 83.33 33.29 83.33 33.82 88.38 28.77 88.38 28.23"/><polygon class="cls-2" points="88.38 24.38 88.49 24.38 92.65 20.22 92.12 20.22 83.33 29.01 83.33 29.54 88.38 24.49 88.38 24.38"/><polygon class="cls-2" points="88.76 28.93 83.33 34.36 83.33 34.89 89.29 28.93 88.76 28.93"/><polygon class="cls-2" points="90.63 24.38 94.79 20.22 94.26 20.22 90.09 24.38 90.63 24.38"/><polygon class="cls-2" points="89.56 24.38 93.72 20.22 93.19 20.22 89.03 24.38 89.56 24.38"/><polygon class="cls-2" points="89.83 28.93 83.33 35.43 83.33 35.96 90.36 28.93 89.83 28.93"/><path class="cls-2" d="M32.37,46.85,31,45h.43l1.12,1.58L33.7,45h.43l-1.32,1.85,1.45,2h-.45l-1.23-1.76L31.34,48.9h-.43Z"/><path class="cls-2" d="M36.95,48.42a1.11,1.11,0,0,1-.48.42,1.51,1.51,0,0,1-.62.13,1.35,1.35,0,0,1-.53-.1,1.19,1.19,0,0,1-.41-.28,1.23,1.23,0,0,1-.26-.42,1.54,1.54,0,0,1-.09-.54,1.45,1.45,0,0,1,.09-.53,1.26,1.26,0,0,1,.26-.42,1.23,1.23,0,0,1,.4-.28,1.26,1.26,0,0,1,.51-.1,1.23,1.23,0,0,1,.51.1,1.13,1.13,0,0,1,.37.27,1.14,1.14,0,0,1,.23.38,1.27,1.27,0,0,1,.08.43v.23H34.89a1.14,1.14,0,0,0,0,.27.94.94,0,0,0,.15.32,1,1,0,0,0,.29.26.91.91,0,0,0,.48.11,1.06,1.06,0,0,0,.49-.12.88.88,0,0,0,.36-.33Zm-.25-1a.75.75,0,0,0-.07-.32.85.85,0,0,0-.19-.26.89.89,0,0,0-.28-.18.9.9,0,0,0-.34-.07.84.84,0,0,0-.45.11,1,1,0,0,0-.28.25,1,1,0,0,0-.15.28.76.76,0,0,0,0,.18Z"/><path class="cls-2" d="M37.69,44.74H38V46.8h0a.85.85,0,0,1,.19-.23,1.17,1.17,0,0,1,.25-.16,1.25,1.25,0,0,1,.28-.09l.29,0a1.42,1.42,0,0,1,.54.1,1.24,1.24,0,0,1,.7.7,1.5,1.5,0,0,1,0,1.07,1.24,1.24,0,0,1-.7.7,1.42,1.42,0,0,1-.54.1l-.29,0a1.25,1.25,0,0,1-.28-.09,1.17,1.17,0,0,1-.25-.16.85.85,0,0,1-.19-.23h0v.45h-.33Zm.3,2.89a1,1,0,0,0,.08.4,1,1,0,0,0,.23.33,1.09,1.09,0,0,0,.34.22,1.05,1.05,0,0,0,.42.08,1,1,0,0,0,.42-.08,1,1,0,0,0,.32-.22A1,1,0,0,0,40,48a1.22,1.22,0,0,0,0-.81,1,1,0,0,0-.2-.33,1,1,0,0,0-.32-.22,1,1,0,0,0-.42-.08,1,1,0,0,0-.42.08,1.08,1.08,0,0,0-.34.22,1,1,0,0,0-.23.33A1,1,0,0,0,38,47.63Z"/><path class="cls-2" d="M41.1,45.35a.24.24,0,1,1,.07.18A.24.24,0,0,1,41.1,45.35Zm.08,1h.33V48.9h-.33Z"/><path class="cls-2" d="M44.42,47.83q0,.19,0,.34c0,.1,0,.19,0,.28s0,.16,0,.24,0,.15,0,.22h-.31a2.38,2.38,0,0,1,0-.41h0a.93.93,0,0,1-.35.36,1.12,1.12,0,0,1-.54.12,1.28,1.28,0,0,1-.32,0,.85.85,0,0,1-.29-.13.71.71,0,0,1-.21-.23.7.7,0,0,1-.08-.35.68.68,0,0,1,.15-.46.92.92,0,0,1,.37-.26,1.73,1.73,0,0,1,.46-.11l.43,0h.38V47.2a.54.54,0,0,0-.2-.47.87.87,0,0,0-.51-.14,1.16,1.16,0,0,0-.78.29l-.19-.23a1.18,1.18,0,0,1,.45-.27,1.62,1.62,0,0,1,.52-.09,1.16,1.16,0,0,1,.74.22.84.84,0,0,1,.28.7Zm-.66-.21-.4,0a1.42,1.42,0,0,0-.35.09.65.65,0,0,0-.25.18.44.44,0,0,0,0,.48.46.46,0,0,0,.13.15.63.63,0,0,0,.18.09.72.72,0,0,0,.21,0,1.06,1.06,0,0,0,.43-.08.74.74,0,0,0,.27-.2.7.7,0,0,0,.14-.28,1.34,1.34,0,0,0,0-.32v-.17Z"/><path class="cls-2" d="M46.82,45h.36v1.72h0L49.11,45h.5l-2,1.78,2.08,2.11H49.2l-2-2h0v2h-.36Z"/><path class="cls-2" d="M50.09,47.07s0-.11,0-.17,0-.14,0-.21,0-.13,0-.2,0-.11,0-.14h.33c0,.1,0,.19,0,.28a.88.88,0,0,0,0,.17h0a.89.89,0,0,1,.33-.36,1,1,0,0,1,.54-.15,1.08,1.08,0,0,1,.48.09.78.78,0,0,1,.29.24.92.92,0,0,1,.15.35,2,2,0,0,1,0,.41V48.9h-.33V47.4a1.62,1.62,0,0,0,0-.3.8.8,0,0,0-.1-.26.5.5,0,0,0-.19-.18.66.66,0,0,0-.32-.07.94.94,0,0,0-.34.06.74.74,0,0,0-.28.19.93.93,0,0,0-.19.32,1.38,1.38,0,0,0-.07.46V48.9h-.33Z"/><path class="cls-2" d="M53,47.63a1.42,1.42,0,0,1,.1-.54,1.29,1.29,0,0,1,.28-.42,1.23,1.23,0,0,1,.42-.28,1.44,1.44,0,0,1,.54-.1,1.42,1.42,0,0,1,.54.1,1.24,1.24,0,0,1,.7.7,1.5,1.5,0,0,1,0,1.07,1.24,1.24,0,0,1-.7.7,1.42,1.42,0,0,1-.54.1,1.44,1.44,0,0,1-.54-.1,1.23,1.23,0,0,1-.42-.28,1.29,1.29,0,0,1-.28-.42A1.42,1.42,0,0,1,53,47.63Zm.33,0a1.18,1.18,0,0,0,.07.4,1,1,0,0,0,.2.33,1,1,0,0,0,.32.22,1.1,1.1,0,0,0,.84,0,1,1,0,0,0,.32-.22.94.94,0,0,0,.2-.33,1.22,1.22,0,0,0,0-.81.94.94,0,0,0-.2-.33,1,1,0,0,0-.32-.22,1.1,1.1,0,0,0-.84,0,1,1,0,0,0-.32.22,1,1,0,0,0-.2.33A1.18,1.18,0,0,0,53.34,47.63Z"/><path class="cls-2" d="M56.06,46.36h.36L57,48.49h0l.71-2.13h.31l.75,2.13h0l.6-2.13h.33L59,48.9h-.34l-.76-2.08h0L57.2,48.9h-.34Z"/><path class="cls-2" d="M60.35,44.74h.33V48.9h-.33Z"/><path class="cls-2" d="M63.86,48.42a1.11,1.11,0,0,1-.48.42,1.51,1.51,0,0,1-.62.13,1.35,1.35,0,0,1-.53-.1,1.19,1.19,0,0,1-.41-.28,1.23,1.23,0,0,1-.26-.42,1.54,1.54,0,0,1-.09-.54,1.45,1.45,0,0,1,.09-.53,1.26,1.26,0,0,1,.26-.42,1.23,1.23,0,0,1,.4-.28,1.26,1.26,0,0,1,.51-.1,1.23,1.23,0,0,1,.51.1,1.13,1.13,0,0,1,.37.27,1.14,1.14,0,0,1,.23.38,1.27,1.27,0,0,1,.08.43v.23H61.8a1.14,1.14,0,0,0,0,.27.94.94,0,0,0,.15.32,1,1,0,0,0,.29.26.91.91,0,0,0,.48.11,1.06,1.06,0,0,0,.49-.12.88.88,0,0,0,.36-.33Zm-.25-1a.75.75,0,0,0-.07-.32.85.85,0,0,0-.19-.26.89.89,0,0,0-.28-.18.9.9,0,0,0-.34-.07.84.84,0,0,0-.45.11A1,1,0,0,0,62,47a1,1,0,0,0-.15.28.76.76,0,0,0,0,.18Z"/><path class="cls-2" d="M66.89,48.45h0a.85.85,0,0,1-.19.23,1.14,1.14,0,0,1-.25.16,1.25,1.25,0,0,1-.28.09l-.29,0a1.44,1.44,0,0,1-.54-.1,1.23,1.23,0,0,1-.42-.28,1.29,1.29,0,0,1-.28-.42,1.5,1.5,0,0,1,0-1.07,1.29,1.29,0,0,1,.28-.42,1.23,1.23,0,0,1,.42-.28,1.44,1.44,0,0,1,.54-.1l.29,0a1.25,1.25,0,0,1,.28.09,1.14,1.14,0,0,1,.25.16.85.85,0,0,1,.19.23h0V44.74h.33V48.9h-.33Zm0-.83a1,1,0,0,0-.08-.4,1,1,0,0,0-.23-.33,1.08,1.08,0,0,0-.34-.22,1.05,1.05,0,0,0-.42-.08,1,1,0,0,0-.42.08,1,1,0,0,0-.32.22,1,1,0,0,0-.2.33,1.22,1.22,0,0,0,0,.81,1,1,0,0,0,.2.33,1,1,0,0,0,.32.22,1,1,0,0,0,.42.08,1.06,1.06,0,0,0,.42-.08,1.09,1.09,0,0,0,.34-.22,1,1,0,0,0,.23-.33A1,1,0,0,0,66.93,47.63Z"/><path class="cls-2" d="M70.58,48.73a1.81,1.81,0,0,1-.14.76,1.21,1.21,0,0,1-.34.45,1.14,1.14,0,0,1-.44.21,1.9,1.9,0,0,1-.43.06,2,2,0,0,1-.38,0,1.79,1.79,0,0,1-.35-.1,1.43,1.43,0,0,1-.3-.17,1.16,1.16,0,0,1-.23-.23l.26-.24a1,1,0,0,0,.44.36,1.38,1.38,0,0,0,.56.12,1.21,1.21,0,0,0,.43-.07.85.85,0,0,0,.29-.17.83.83,0,0,0,.18-.24,1.19,1.19,0,0,0,.09-.26,1.35,1.35,0,0,0,0-.24c0-.08,0-.14,0-.19V48.4h0a1,1,0,0,1-.39.36,1.19,1.19,0,0,1-.57.13,1.37,1.37,0,0,1-.53-.1,1.34,1.34,0,0,1-.72-.7,1.25,1.25,0,0,1,0-1,1.31,1.31,0,0,1,.29-.41,1.4,1.4,0,0,1,.43-.28,1.34,1.34,0,0,1,.53-.1,1.19,1.19,0,0,1,.57.13,1,1,0,0,1,.39.36h0v-.43h.33Zm-.32-1.14a1,1,0,0,0-.08-.39,1,1,0,0,0-.53-.53,1,1,0,0,0-.79,0,1,1,0,0,0-.53.53,1,1,0,0,0,0,.79,1,1,0,0,0,.53.53,1,1,0,0,0,.79,0,1,1,0,0,0,.53-.53A1,1,0,0,0,70.27,47.59Z"/><path class="cls-2" d="M73.64,48.42a1.11,1.11,0,0,1-.48.42,1.51,1.51,0,0,1-.62.13,1.35,1.35,0,0,1-.53-.1,1.19,1.19,0,0,1-.41-.28,1.23,1.23,0,0,1-.26-.42,1.54,1.54,0,0,1-.09-.54,1.45,1.45,0,0,1,.09-.53,1.26,1.26,0,0,1,.26-.42,1.23,1.23,0,0,1,.4-.28,1.26,1.26,0,0,1,.51-.1,1.23,1.23,0,0,1,.51.1,1.13,1.13,0,0,1,.37.27,1.14,1.14,0,0,1,.23.38,1.27,1.27,0,0,1,.08.43v.23H71.58a1.14,1.14,0,0,0,0,.27.94.94,0,0,0,.15.32,1,1,0,0,0,.29.26.91.91,0,0,0,.48.11,1.06,1.06,0,0,0,.49-.12.88.88,0,0,0,.36-.33Zm-.25-1a.75.75,0,0,0-.07-.32.85.85,0,0,0-.19-.26.89.89,0,0,0-.28-.18.9.9,0,0,0-.34-.07.84.84,0,0,0-.45.11,1,1,0,0,0-.28.25,1,1,0,0,0-.15.28.76.76,0,0,0,0,.18Z"/><path class="cls-2" d="M76,45h2.38v.33h-2v1.39h1.89v.33H76.34v1.52h2.11v.33H76Z"/><path class="cls-2" d="M79.79,47.52l-.91-1.17h.42l.7,1,.7-1h.41l-.9,1.17,1.09,1.38h-.43L80,47.75l-.87,1.15h-.4Z"/><path class="cls-2" d="M83.92,48.52a1.19,1.19,0,0,1-.42.33A1.22,1.22,0,0,1,83,49a1.44,1.44,0,0,1-.54-.1,1.23,1.23,0,0,1-.42-.28,1.29,1.29,0,0,1-.28-.42,1.5,1.5,0,0,1,0-1.07,1.29,1.29,0,0,1,.28-.42,1.23,1.23,0,0,1,.42-.28,1.44,1.44,0,0,1,.54-.1,1.18,1.18,0,0,1,.52.12,1.37,1.37,0,0,1,.43.32l-.26.2a1.15,1.15,0,0,0-.31-.25.77.77,0,0,0-.37-.09,1,1,0,0,0-.42.08,1,1,0,0,0-.32.22,1,1,0,0,0-.2.33A1.22,1.22,0,0,0,82,48a1,1,0,0,0,.2.33,1,1,0,0,0,.32.22,1,1,0,0,0,.42.08.77.77,0,0,0,.38-.1,1,1,0,0,0,.3-.26Z"/><path class="cls-2" d="M84.44,44.74h.33V46.8h0a.89.89,0,0,1,.33-.36,1,1,0,0,1,.54-.15,1.08,1.08,0,0,1,.48.09.78.78,0,0,1,.29.24.92.92,0,0,1,.15.35,2,2,0,0,1,0,.41V48.9h-.33V47.4a1.62,1.62,0,0,0,0-.3.8.8,0,0,0-.1-.26.5.5,0,0,0-.19-.18.66.66,0,0,0-.32-.07.94.94,0,0,0-.34.06.74.74,0,0,0-.28.19.93.93,0,0,0-.19.32,1.38,1.38,0,0,0-.07.46V48.9h-.33Z"/><path class="cls-2" d="M89.47,47.83q0,.19,0,.34c0,.1,0,.19,0,.28s0,.16,0,.24,0,.15,0,.22h-.31a2.38,2.38,0,0,1,0-.41h0a.93.93,0,0,1-.35.36,1.12,1.12,0,0,1-.54.12,1.28,1.28,0,0,1-.32,0,.85.85,0,0,1-.29-.13.71.71,0,0,1-.21-.23.7.7,0,0,1-.08-.35.68.68,0,0,1,.15-.46.92.92,0,0,1,.37-.26,1.73,1.73,0,0,1,.46-.11l.43,0h.38V47.2a.54.54,0,0,0-.2-.47.87.87,0,0,0-.51-.14,1.16,1.16,0,0,0-.78.29l-.19-.23a1.18,1.18,0,0,1,.45-.27,1.62,1.62,0,0,1,.52-.09,1.16,1.16,0,0,1,.74.22.84.84,0,0,1,.28.7Zm-.66-.21-.4,0a1.42,1.42,0,0,0-.35.09.65.65,0,0,0-.25.18.44.44,0,0,0,0,.48.46.46,0,0,0,.13.15.63.63,0,0,0,.18.09.72.72,0,0,0,.21,0,1.06,1.06,0,0,0,.43-.08.74.74,0,0,0,.27-.2.7.7,0,0,0,.14-.28,1.34,1.34,0,0,0,0-.32v-.17Z"/><path class="cls-2" d="M90.35,47.07s0-.11,0-.17,0-.14,0-.21,0-.13,0-.2,0-.11,0-.14h.33c0,.1,0,.19,0,.28a.88.88,0,0,0,0,.17h0a.89.89,0,0,1,.33-.36,1,1,0,0,1,.54-.15,1.08,1.08,0,0,1,.48.09.78.78,0,0,1,.29.24.92.92,0,0,1,.15.35,2,2,0,0,1,0,.41V48.9H92.2V47.4a1.62,1.62,0,0,0,0-.3.8.8,0,0,0-.1-.26.5.5,0,0,0-.19-.18.66.66,0,0,0-.32-.07.94.94,0,0,0-.34.06.74.74,0,0,0-.28.19.93.93,0,0,0-.19.32,1.38,1.38,0,0,0-.07.46V48.9h-.33Z"/><path class="cls-2" d="M96,48.73a1.81,1.81,0,0,1-.14.76,1.21,1.21,0,0,1-.34.45,1.14,1.14,0,0,1-.44.21,1.9,1.9,0,0,1-.43.06,2,2,0,0,1-.38,0,1.79,1.79,0,0,1-.35-.1,1.43,1.43,0,0,1-.3-.17,1.16,1.16,0,0,1-.23-.23l.26-.24a1,1,0,0,0,.44.36,1.38,1.38,0,0,0,.56.12,1.21,1.21,0,0,0,.43-.07.85.85,0,0,0,.29-.17.83.83,0,0,0,.18-.24,1.19,1.19,0,0,0,.09-.26,1.35,1.35,0,0,0,0-.24c0-.08,0-.14,0-.19V48.4h0a1,1,0,0,1-.39.36,1.19,1.19,0,0,1-.57.13,1.37,1.37,0,0,1-.53-.1,1.34,1.34,0,0,1-.72-.7,1.25,1.25,0,0,1,0-1,1.31,1.31,0,0,1,.29-.41,1.4,1.4,0,0,1,.43-.28,1.34,1.34,0,0,1,.53-.1,1.19,1.19,0,0,1,.57.13,1,1,0,0,1,.39.36h0v-.43H96Zm-.32-1.14a1,1,0,0,0-.08-.39,1,1,0,0,0-.53-.53,1,1,0,0,0-.79,0,1,1,0,0,0-.53.53,1,1,0,0,0,0,.79,1,1,0,0,0,.53.53,1,1,0,0,0,.79,0,1,1,0,0,0,.53-.53A1,1,0,0,0,95.64,47.59Z"/><path class="cls-2" d="M99,48.42a1.11,1.11,0,0,1-.48.42,1.51,1.51,0,0,1-.62.13,1.35,1.35,0,0,1-.53-.1,1.19,1.19,0,0,1-.41-.28,1.23,1.23,0,0,1-.26-.42,1.54,1.54,0,0,1-.09-.54,1.45,1.45,0,0,1,.09-.53,1.26,1.26,0,0,1,.26-.42,1.23,1.23,0,0,1,.4-.28,1.26,1.26,0,0,1,.51-.1,1.23,1.23,0,0,1,.51.1,1.13,1.13,0,0,1,.37.27A1.14,1.14,0,0,1,99,47a1.27,1.27,0,0,1,.08.43v.23H97A1.14,1.14,0,0,0,97,48a.94.94,0,0,0,.15.32,1,1,0,0,0,.29.26.91.91,0,0,0,.48.11,1.06,1.06,0,0,0,.49-.12.88.88,0,0,0,.36-.33Zm-.25-1a.75.75,0,0,0-.07-.32.85.85,0,0,0-.19-.26.89.89,0,0,0-.28-.18.9.9,0,0,0-.34-.07.84.84,0,0,0-.45.11,1,1,0,0,0-.28.25,1,1,0,0,0-.15.28.76.76,0,0,0,0,.18Z"/></svg>