<?xml version="1.0" encoding="utf-8"?>
<!-- Generator: Adobe Illustrator 21.1.0, SVG Export Plug-In . SVG Version: 6.00 Build 0)  -->
<svg version="1.1" id="Calque_1" xmlns="http://www.w3.org/2000/svg" xmlns:xlink="http://www.w3.org/1999/xlink" x="0px" y="0px"
	 viewBox="0 0 749.6 278.6" style="enable-background:new 0 0 749.6 278.6;" xml:space="preserve">
<style type="text/css">
	.st0{fill:#FFFFFF;}
	.st1{fill:#FF6444;}
</style>
<g>
	<g>
		<path class="st0" d="M252,78.8l-48.3,0c3.1-11.1,12.7-18.2,23.6-18.2C239.9,60.6,248.5,66.9,252,78.8 M203.1,95.2l71.1,0
			c0-1.5,0.2-3,0.2-4.5c0-11.8-2.5-21.2-8.4-29.1c-9.3-12.7-23.1-19.9-38.5-19.9c-12.2,0-24,5.3-33.1,14.8
			c-8.3,8.7-12.6,19.8-12.6,32.3c0,11.9,4.8,24,13.2,32.7c8.9,9.2,20.2,13.8,33.2,13.8c19.6,0,35.3-11,42.9-30.5l-22.3,0
			c-4.3,7.1-12.1,11.1-21.1,11.1C213.7,115.9,204.4,108,203.1,95.2"/>
		<path class="st0" d="M306.6,89.2c0-15.2,11.1-26.6,25.5-26.6c14.4,0,25.8,12.1,25.8,26.3c0,14.7-11.1,26.1-26.8,26.1
			C317.9,114.9,306.6,103.9,306.6,89.2 M305.8,51.5V15.7l-20.3,0l0,117.4l20.3,0v-7.2c8.3,6.4,17.2,9.4,27.6,9.4
			c11.2,0,21.3-3.6,29.1-10.3c10.7-9.2,16.7-22.2,16.7-36.4c0-13-5.3-25.6-15-34.5c-8.3-7.8-19-11.7-30.6-11.7
			C322.5,42.2,313.7,44.9,305.8,51.5"/>
		<path class="st0" d="M393.4,44.4l19.9,0l0,88.7l-19.9,0L393.4,44.4z M393.4,15.7l19.9,0v19.6l-19.9,0V15.7z"/>
		<path class="st0" d="M447.5,88c0-14.4,11.6-25.4,25.3-25.4c13,0,24.9,11.5,24.9,26.4c0,13.7-11.7,25.2-24.6,25.2
			C459.3,114.2,447.5,103.3,447.5,88 M500.3,133.1H520V44.4l-19.9,0v10.6c-6-8.6-15.3-12.8-28.1-12.8c-13.4,0-23.9,4.3-32.8,13.6
			c-8.3,8.5-12.7,20.1-12.7,32.5c0,26.4,19.6,46.7,46,46.7c13.7,0,22.6-4,27.6-12.9L500.3,133.1z"/>
	</g>
	<polygon class="st0" points="0.7,171.9 55.2,171.9 113.5,113.5 171.9,171.9 226.4,171.9 140.8,86.3 227.1,0 172.6,0 113.5,59 
		54.5,0 0,0 86.3,86.3 	"/>
</g>
<g>
	<path class="st1" d="M329.4,187.5c0.1,0.5,0.4,1.2,0.9,2.2c0.5,1,1.1,1.9,1.8,2.8c0.7,0.9,1.4,1.7,2.2,2.4c0.7,0.7,1.3,1,1.8,1
		c0.5,0,1.4-0.8,2.7-2.4c1.3-1.6,2.7-3.4,4.2-5.3s2.7-3.8,3.7-5.5c1.1-1.7,1.6-2.8,1.6-3.2s-0.4-1.2-1.1-2.4
		c-0.7-1.2-1.6-2.4-2.5-3.7c-1-1.3-2-2.5-3.1-3.5c-1.1-1.1-2-1.6-2.8-1.6c-0.7,0-1.6,0.9-2.7,2.7c-1.1,1.8-2.2,3.9-3.2,6.1
		c-1,2.3-1.8,4.4-2.5,6.5C329.8,185.6,329.4,186.9,329.4,187.5z"/>
	<path class="st1" d="M321.7,187.1c2.9-3.9,5.2-7,6.9-9.4c1.7-2.4,2.5-3.6,2.5-3.8c0-0.3-0.4-1-1.2-2.2c-0.8-1.2-1.6-2.3-2.6-3.5
		c-1-1.2-1.9-2.3-2.9-3.2c-1-1-1.6-1.4-2-1.4c-0.3,0-1.4,1.4-3.3,4.1c-1.9,2.7-4.6,6.5-8.1,11.2c-3.5,4.8-7.6,10.3-12.3,16.8
		c-4.8,6.4-10.1,13.4-16,20.8c-5.9,7.4-12.3,15.2-19.2,23.3c-6.9,8.1-14.1,16.2-21.7,24.3c1-4.9,2.3-10.8,4-17.9
		c1.7-7,3.8-14.6,6.3-22.8c2.5-8.2,5.6-16.7,9.1-25.6c3.5-8.8,7.5-17.5,12-26.1c0.5-0.7,0.5-1.2,0.1-1.7c-0.4-0.4-0.8-0.8-1.3-1.2
		c-0.3-0.2-0.9-0.6-1.7-1.4c-0.9-0.7-1.8-1.5-2.7-2.3c-1-0.8-1.9-1.5-2.9-2.2c-1-0.6-1.6-0.9-2-0.9c-0.3,0-1,1.2-2.2,3.7
		c-1.2,2.5-2.7,5.8-4.5,10c-1.8,4.2-3.8,9.1-6,14.6c-2.2,5.6-4.3,11.4-6.6,17.6s-4.4,12.4-6.5,18.8c-2.1,6.4-4,12.5-5.5,18.4
		c-1.6,5.9-2.9,11.3-3.9,16.2c-1,4.9-1.5,9-1.5,12.3c0,0.5,0.7,1,2.2,1.7c1.4,0.6,3,1.1,4.8,1.6c1.7,0.4,3.3,0.6,4.8,0.6
		c1.4,0,2.2-0.4,2.2-1.2c0-0.2,0-0.5,0.1-0.9c0-0.4,0.1-0.9,0.2-1.6c0.9,1.5,1.8,2.8,3,3.7c1.1,0.9,1.9,1.1,2.5,0.6
		c3.5-3.3,7.3-7.2,11.7-11.9c4.3-4.7,8.8-9.7,13.5-15.1c4.7-5.4,9.4-11.1,14.1-17c4.8-5.9,9.4-11.7,13.8-17.4
		c4.5-5.7,8.7-11.1,12.6-16.3C315.4,195.5,318.8,191,321.7,187.1z M232.4,250.2c-0.3,1.2-0.6,2.3-0.9,3.5c-0.3,1.1-0.6,2.3-0.9,3.5
		c-0.3,1.2-0.5,2.3-0.7,3.3c-0.1,0.5-0.2,1-0.3,1.5s-0.2,1-0.3,1.5c-0.1,0.5-0.2,1-0.3,1.4c-0.1,0.5-0.1,1-0.1,1.4
		c-0.1,0.5-0.2,0.9-0.2,1.2s-0.1,0.7-0.2,1.1c0,0.4,0,0.7-0.1,1.1c0,0.3-0.1,0.6-0.1,0.8c-0.1,0.4-0.1,0.8-0.1,1.2v-1.2
		c0-0.3,0-0.6,0.1-0.9c0.1-0.3,0.1-0.6,0.1-1c0-0.4,0-0.8,0.1-1.2c0-0.4,0.1-0.8,0.1-1.3c0.1-0.5,0.2-0.9,0.2-1.4
		c0-0.4,0.1-0.9,0.2-1.4c0.1-0.5,0.2-1,0.3-1.5s0.2-1.1,0.3-1.7c0.2-1.1,0.4-2.2,0.7-3.3c0.3-1.2,0.5-2.3,0.7-3.5
		c0.3-1.1,0.6-2.3,0.9-3.5c0.3-1.2,0.6-2.3,0.9-3.3c0.3-1.1,0.6-2.1,0.9-3c0.3-1,0.6-1.9,0.9-2.7c0.2-0.9,0.4-1.6,0.6-2.3
		c0.2-0.7,0.5-1.2,0.6-1.7c0.1-0.2,0.1-0.4,0.1-0.6s0-0.4,0.1-0.6c0-0.2,0-0.3,0.1-0.4l-1.4,5.8c-0.2,0.9-0.4,1.8-0.7,2.7
		c-0.3,1-0.5,2-0.7,3C232.9,248,232.7,249.1,232.4,250.2z M240.6,226.9c-0.1,0.4-0.2,0.9-0.3,1.4c-0.1,0.6-0.2,1.2-0.4,1.9
		c-0.4,1.3-0.8,2.8-1.3,4.5c-0.5,1.6-1,3.4-1.4,5.2c-0.5,1.7-0.9,3.4-1.4,5s-0.8,3.1-1.2,4.5c-0.4,1.1-0.7,2.2-0.9,3.2
		c0.1-0.4,0.2-0.8,0.2-1.4c0-0.5,0.2-1.1,0.4-1.8c0.2-0.7,0.4-1.4,0.5-2.2c0.1-0.8,0.3-1.6,0.5-2.4c0.2-0.8,0.4-1.6,0.7-2.4
		c0.3-0.9,0.5-1.7,0.7-2.6c0.2-1,0.4-1.9,0.7-2.7c0.3-0.9,0.5-1.7,0.7-2.4c0.2-0.8,0.4-1.5,0.6-2.3c0.2-0.8,0.5-1.5,0.6-2.2l1.4-4.3
		C240.8,226.2,240.7,226.5,240.6,226.9z M315.6,187.6c0.2-0.3,0.4-0.6,0.6-1c0.2-0.4,0.5-0.8,0.8-1.2c0.3-0.5,0.6-0.9,0.9-1.2
		c0.3-0.3,0.6-0.7,0.9-1.2c0.4-0.5,0.7-0.9,1-1.3c0.3-0.4,0.6-0.8,0.9-1.2c0.3-0.5,0.6-0.9,0.9-1.1c0.3-0.3,0.5-0.6,0.7-1
		c0.2-0.3,0.4-0.6,0.6-0.8c0.2-0.2,0.5-0.5,0.6-0.6c0.2-0.2,0.3-0.4,0.4-0.6c-0.1,0.2-0.2,0.4-0.4,0.7c-0.2,0.2-0.4,0.4-0.5,0.7
		c-0.1,0.3-0.3,0.6-0.5,0.9c-0.2,0.3-0.4,0.6-0.7,0.9c-0.3,0.3-0.5,0.7-0.7,1.2c-0.3,0.4-0.6,0.8-0.9,1.2c-0.3,0.4-0.6,0.8-1,1.3
		c-0.3,0.5-0.6,0.9-0.9,1.2c-0.3,0.3-0.6,0.7-0.9,1.2c-0.3,0.4-0.6,0.7-0.9,1.1c-0.3,0.3-0.5,0.6-0.7,0.9c-0.3,0.4-0.5,0.7-0.7,0.9
		c-0.2,0.2-0.4,0.4-0.6,0.6c-0.2,0.2-0.3,0.4-0.4,0.6L315.6,187.6z M306.1,204.8c-0.5,0.6-0.9,1.2-1.3,1.7c-0.4,0.5-0.8,1-1.2,1.4
		c0.3-0.4,0.6-0.9,1-1.4c0.4-0.5,0.8-1.1,1.2-1.7s1-1.4,1.7-2.3c0.6-0.8,1.2-1.6,1.8-2.6c0.6-1,1.3-2,2.1-3c0.8-1.1,1.5-2.1,2.3-3.2
		c0.8-1.1,1.5-2.1,2.3-3.2c0.9-1.1,1.7-2.1,2.4-3.2c0.8-1.1,1.5-2.1,2.3-3c1.7-2.2,3.1-4,4.2-5.5c0.6-0.8,1.1-1.5,1.7-2.1
		c0.5-0.6,1-1.2,1.4-1.7c0.4-0.5,0.8-1,1.2-1.4c-0.3,0.4-0.6,0.9-1,1.4c-0.4,0.5-0.8,1.1-1.2,1.8c-0.4,0.7-0.9,1.5-1.5,2.2
		c-0.6,0.8-1.2,1.6-1.9,2.5c-0.7,0.9-1.4,1.9-2.2,3c-0.8,1.1-1.5,2.1-2.3,3.2c-0.8,1.1-1.5,2.2-2.3,3.2c-0.8,1.1-1.6,2.1-2.4,3.1
		c-0.8,1-1.6,2-2.4,3.1c-1.3,1.9-2.7,3.7-4.2,5.5C307.2,203.5,306.6,204.2,306.1,204.8z"/>
	<path class="st1" d="M670.1,192.4c0.7,0.9,1.4,1.7,2.2,2.4c0.7,0.7,1.3,1,1.8,1c0.5,0,1.4-0.8,2.7-2.4c1.3-1.6,2.7-3.4,4.2-5.3
		s2.7-3.8,3.7-5.5c1.1-1.7,1.6-2.8,1.6-3.2s-0.4-1.2-1.1-2.4c-0.7-1.2-1.6-2.4-2.5-3.7c-1-1.3-2-2.5-3.1-3.5c-1.1-1.1-2-1.6-2.8-1.6
		c-0.7,0-1.6,0.9-2.7,2.7c-1.1,1.8-2.2,3.9-3.2,6.1c-1,2.3-1.8,4.4-2.5,6.5c-0.7,2.1-1,3.4-1,4c0.1,0.5,0.4,1.2,0.9,2.2
		C668.7,190.6,669.3,191.5,670.1,192.4z"/>
	<path class="st1" d="M748.3,232.1c-0.9-1.2-1.9-2.2-3-2.7l-0.7-0.3c-1.8-0.8-3.2-0.4-4,1c-0.4,0.7-1.1,2-2.2,4.1
		c-1.1,2.1-2.5,4.5-4.3,7.3c-1.8,2.8-4,5.8-6.4,8.9c-2.4,3.1-5.2,5.9-8.4,8.5c-3.1,2.6-6.6,4.7-10.3,6.4s-7.7,2.5-12,2.5
		c-1.4,0-2.6-0.5-3.5-1.4c-0.9-0.9-1.6-2-2.1-3.4c-0.5-1.3-0.8-2.9-1-4.5c-0.2-1.7-0.3-3.3-0.3-5c0-4.5,1.1-9.4,3.2-14.7
		c1.2,1.2,2.8,2.2,4.5,3.1c1.8,0.9,3.9,1.3,6.4,1.3c3.5,0,6.7-0.9,9.8-2.7c3.1-1.8,5.8-4,8.1-6.8c2.4-2.7,4.2-5.8,5.6-9.1
		c1.4-3.3,2.1-6.5,2.1-9.4c0-1,0-1.6-0.1-2c0.2,0.1,0.5,0.1,0.9,0.1c0.4,0,0.5-0.8,0.4-2.4c-0.1-1.6-0.7-3.4-1.8-5.3
		c-1.1-2-2.6-3.7-4.7-5.3c-2.1-1.6-4.8-2.4-8.3-2.4c-2.7,0-5.4,0.8-8.3,2.4c-2.8,1.6-5.6,3.7-8.4,6.3c-2.8,2.6-5.4,5.6-7.9,9.1
		c-2.5,3.5-4.7,7-6.6,10.7c-1.2,2.3-2.2,4.7-3.1,7c-0.9,1.8-2,3.8-3.1,5.9c-2.2,4.1-4.7,7.9-7.4,11.6s-5.7,6.7-9,9.3
		c-3.3,2.5-6.8,3.8-10.5,3.8c-0.7,0-0.6-1.2,0.1-3.6c0.7-2.4,1.8-5.4,3.2-9.1c1.4-3.6,3.1-7.6,4.9-12s3.6-8.4,5.2-12.2
		c1.6-3.8,3-7.1,4.1-9.8c1.1-2.7,1.7-4.3,1.7-4.7c0-1.1-0.4-2.3-1.2-3.8c-0.8-1.5-1.7-2.9-2.7-4.2c-1.1-1.3-2.1-2.3-3.2-3
		c-1.1-0.7-1.9-0.7-2.5,0c-0.2,0.3-0.9,1.7-2.2,4.2c-1.2,2.5-2.7,5.7-4.4,9.6c-1.7,3.8-3.5,8.1-5.4,12.8c-0.1,0.1-0.1,0.3-0.2,0.4
		c0,0.1-0.1,0.1-0.1,0.1c-0.9,1.5-1.9,3.2-3.1,5.1c-1.2,1.9-2.6,3.6-4.1,5.2c-1.5,1.6-3.2,2.9-5,4c-1.8,1.1-3.8,1.7-5.9,1.7
		c-1.1,0-1.7-0.4-2-1.3c1.2-1.9,2.2-3.8,3.2-5.5c1-1.8,1.9-3.5,2.7-5.3c0.6-1.2,0.9-2.4,0.9-3.9c0-1.4,0-2.9-0.2-4.5
		c0.9-1.8,1.8-3.6,2.7-5.3s1.7-3.2,2.4-4.6c0.7-1.4,1.2-2.6,1.7-3.6s0.6-1.8,0.6-2.2c0-1.1-0.3-2.2-0.8-3.5
		c-0.5-1.3-1.2-2.5-2.1-3.7c-0.9-1.2-1.9-2.1-3-2.9c-1.2-0.8-2.3-1.1-3.5-1.1c-0.5,0-1.2,0.7-2.3,2c-1.1,1.3-2.2,3.1-3.5,5.2
		c-1.3,2.1-2.6,4.5-4,7.1c-1.4,2.6-2.7,5.3-3.8,8c-1.2,2.7-2.1,5.3-2.8,7.7c-0.7,2.4-1.1,4.5-1.1,6.1c0,0.8,0,1.5,0.1,2.2
		c0.1,0.7,0.2,1.5,0.4,2.2c-2.3,3.4-4.7,6.6-7.3,9.8c-2.5,3.2-5.2,6-7.8,8.5c-2.7,2.5-5.4,4.5-8,6c-2.6,1.5-5.2,2.2-7.7,2.2
		c-0.7,0-1-0.6-1-1.9c0-3.8,0.6-7.8,1.9-11.8c1.2-4,2.8-8,4.8-11.8c1.9-3.8,4-7.5,6.2-11c2.2-3.5,4.3-6.6,6.2-9.4
		c1.9-2.7,3.5-5,4.8-6.8c1.2-1.8,1.9-2.9,1.9-3.4c0-0.6-0.3-1.5-0.9-2.7c-0.6-1.2-1.3-2.5-2.2-3.7c-0.9-1.2-1.9-2.3-3-3.2
		c-1.1-0.9-2.1-1.4-3.1-1.4c-0.7,0-1.8,1-3.5,3c-1.6,2-3.5,4.6-5.5,7.9c-2,3.2-4.2,6.9-6.4,10.9c-1.9,3.5-3.7,7-5.3,10.6
		c-0.4,0.6-1,1.5-1.6,2.6c-1.1,1.9-2.4,4.2-4,6.8c-1.6,2.6-3.3,5.3-5.2,8.2c-1.9,2.9-3.8,5.5-5.8,7.9s-4.1,4.4-6.1,6
		c-2.1,1.6-4,2.4-5.8,2.4c-0.6,0-0.7-0.6-0.4-1.7c0.3-1.2,0.8-2.6,1.4-4.4c0.7-1.8,1.5-3.7,2.4-5.8c1-2.1,1.8-4,2.7-5.9
		c0.8-1.9,1.5-3.5,2.2-4.8c0.6-1.3,0.9-2.2,0.9-2.4c0-0.5-0.4-1.3-1.3-2.6c-0.9-1.2-1.8-2.5-3-3.8s-2.2-2.4-3.2-3.5
		s-1.8-1.5-2.2-1.5c-0.4,0-1,0.6-1.7,1.9c-1.1,1.3-2.4,3.2-4.2,5.5c-1.7,2.4-3.7,4.9-6,7.6c-2.3,2.7-4.7,5.5-7.3,8.4
		s-5.2,5.5-7.7,7.8c-2.5,2.4-5.1,4.3-7.6,5.8s-4.8,2.2-6.8,2.2c-2.2,0-3.3-1.3-3.3-3.9c0-3.2,0.8-6.7,2.5-10.6
		c0.8-1.8,1.7-3.6,2.7-5.4c0.8-1.3,1.6-2.7,2.3-3.9c0.5-0.8,1-1.7,1.6-2.5c2.7-3.9,5.7-7.8,9.1-11.4c3.4-3.7,6.9-7,10.4-9.9
		c3.5-2.9,6.8-5.2,10-6.9c3.2-1.7,5.9-2.6,8.2-2.6c1.6,0,2.8,0.4,3.6,1.2c0.8,0.8,1.4,1.7,1.8,2.7c0.4,1,0.9,1.9,1.3,2.7
		c0.4,0.8,1.1,1.2,2.1,1.2c0.9,0,1.3-1.1,1.3-3.2c0-2.1-0.5-4.4-1.4-6.9c-1-2.5-2.4-4.8-4.5-6.9c-2-2.1-4.6-3.2-7.6-3.2
		c-2.6,0-5.7,0.9-9.4,2.7s-7.4,4.2-11.4,7.3c-3.9,3-7.8,6.5-11.7,10.5c-3.2,3.4-6.1,6.9-8.8,10.5c-0.1,0.1-0.2,0.1-0.2,0.3
		c0,0.1-0.1,0.1-0.1,0.2c-0.4,0.5-0.8,1-1.2,1.6c-2.7,3.8-4.9,7.6-6.6,11.5c-2.7,4.1-5.5,7.7-8.3,11c-2.8,3.3-5.6,5.9-8.4,7.8
		c-2.8,1.9-5.3,2.9-7.6,2.9c0-1.4,0.5-3.5,1.6-6.3c1.1-2.7,2.4-5.8,4-9.1s3.3-6.9,5.1-10.6c1.8-3.7,3.5-7.2,5.1-10.6
		c1.6-3.4,2.9-6.4,4-9.1c1.1-2.7,1.6-4.8,1.6-6.3c0-1.8-0.3-3.5-0.9-5c-0.6-1.5-1.4-2.9-2.2-4c-0.9-1.1-1.8-2-2.7-2.7
		c-0.9-0.7-1.7-1.2-2.2-1.5c-0.2-0.1-0.4-0.1-0.6-0.1l-0.3-0.1c-0.2,0-0.3,0-0.3,0.1c0,0.1,0,0.1-0.1,0.1c-0.8,0.5-2.2,1.8-4.2,3.9
		c-2.1,2.1-4.5,4.7-7.2,7.8c-2.7,3.1-5.7,6.5-8.9,10.2s-6.2,7.2-9.2,10.7c1.1-2.5,2.1-4.9,3.1-7.3c1-2.3,1.9-4.5,2.7-6.4
		c0.8-1.9,1.4-3.6,1.8-5c0.4-1.4,0.6-2.4,0.6-3c0-1.2-0.3-2.4-0.9-3.8c-0.6-1.4-1.4-2.7-2.3-3.9c-0.9-1.2-1.9-2.2-2.9-2.9
		c-1-0.8-1.9-1.2-2.7-1.2c-0.2,0-0.4,0.1-0.6,0.3c-1,0.7-2.7,2.3-5.1,4.8c-2.4,2.5-5.3,5.5-8.6,9s-6.8,7.4-10.5,11.6
		c-3.7,4.2-7.4,8.4-10.9,12.5c1.7-3.9,3.4-7.9,5.1-11.8s3.2-7.5,4.6-10.8c1.4-3.3,2.5-6,3.3-8.1c0.8-2.2,1.2-3.5,1.2-4
		c0-0.9-0.5-1.9-1.6-3.1c-1.1-1.2-2.2-2.2-3.4-3.1c-1.2-0.9-2.3-1.4-3.4-1.6c-1.1-0.2-1.6,0.3-1.6,1.4c0,0.4-0.5,1.7-1.4,4
		c-0.9,2.3-2.1,5.1-3.5,8.6c-1.4,3.5-3.1,7.3-5,11.6c-1.6,3.5-3.1,7.2-4.7,10.8c-2,4.6-5,9.5-9,14.8c-4,5.3-9,10-14.9,13.9
		c0.1-0.8,0.2-1.6,0.2-2.4c0-0.9,0.1-1.8,0.1-2.9c0-2.5-0.8-4.7-2.4-6.7c-1.6-2-3.7-3.7-6.2-5.2c-2.5-1.5-5.2-2.8-8.1-3.9
		c-2.9-1.1-5.5-2-8-2.7c-2.4-0.7-4.5-1.3-6.1-1.8c-1.6-0.5-2.4-0.9-2.4-1.2c0.1-1.7,0.9-3.5,2.4-5.2c1.5-1.7,3.4-3.4,5.5-5
		c2.2-1.6,4.5-3.1,7-4.5c2.5-1.3,4.8-2.5,6.9-3.4c2.1-0.9,3.9-1.5,5.3-1.8c1.4-0.3,2.1-0.2,2.1,0.1c-0.1,0.7-0.5,1.7-1.2,3
		c-0.7,1.3-1.4,2.8-2.2,4.3c-0.8,1.5-1.5,3-2.2,4.3c-0.7,1.3-1.1,2.4-1.2,3c-0.1,0.7,0.3,1.2,1.1,1.6c0.8,0.4,1.7,0.6,2.7,0.8
		c1,0.1,2,0.2,3,0.2s1.7,0,2.1,0c0.3,0,0.9-0.5,1.7-1.6c0.9-1.1,1.8-2.4,2.7-4c1-1.6,1.8-3.3,2.6-5.1c0.8-1.8,1.2-3.5,1.3-4.9
		c0.1-1.4,0-3.1-0.2-5c-0.2-1.9-0.7-3.6-1.4-5.3s-1.6-3.1-2.7-4.2c-1.1-1.1-2.5-1.7-4.1-1.7c-1.6,0-3.7,0.4-6.3,1.1
		c-2.5,0.7-5.3,1.7-8.3,3c-3,1.3-6,2.9-8.9,4.8c-3,1.9-5.7,4.1-8.2,6.5c-2.5,2.4-4.6,5-6.3,7.8c-1.7,2.8-2.7,5.9-3,9.1
		c-0.3,3.6,0.4,6.5,2,8.8c1.6,2.3,3.8,4.2,6.5,5.7s5.6,2.7,8.8,3.6c3.2,0.9,6.1,1.8,8.9,2.5c2.7,0.8,5,1.6,6.8,2.4
		c1.8,0.9,2.6,2,2.5,3.3c-0.2,1.7-1.1,3.2-2.7,4.5c-1.6,1.3-3.5,2.3-5.8,3.1c-2.3,0.8-4.7,1.2-7.3,1.3c-2.6,0.1-5-0.2-7.2-0.9
		s-3.9-1.9-5.2-3.6c-1.3-1.7-1.8-3.9-1.7-6.7c0-0.3-0.2-0.5-0.5-0.5c-0.3,0-0.7,0.1-1.2,0.6c-0.5,0.4-0.9,1.2-1.4,2.2
		c-0.4,1.1-0.7,2.5-0.9,4.5c-0.2,1.9,0,3.9,0.4,6c0.5,2.1,1.3,4,2.5,5.8c1.2,1.7,2.8,3.1,4.8,4.2c2,1.1,4.4,1.7,7.3,1.7
		c0.7,0,1.3,0,1.9-0.1c0.6-0.1,1.3-0.1,1.9-0.2c7.2-0.1,13.7-1.5,19.4-4.2c3.5-1.6,6.8-3.6,9.8-5.7c0,0.5,0.4,1.2,1.1,2.2
		c0.7,1.1,1.6,2.1,2.6,3.2c1,1.1,2.1,2.1,3.2,3c1.2,0.9,2.2,1.3,3,1.3c0.8,0,1.9-1.2,3.4-3.6c1.5-2.4,3.8-5.9,7-10.5
		s7.4-10.3,12.7-17.1c5.3-6.8,12.3-14.6,20.8-23.4c-2.2,4.7-4.5,9.5-7,14.4c-2.4,4.9-4.7,9.4-6.8,13.5c-2.1,4.1-3.9,7.7-5.3,10.6
		c-1.4,2.9-2.1,4.8-2.1,5.5c0,1.2,0.5,2.5,1.4,3.7c0.9,1.2,2,2.4,3.2,3.4c1.2,1,2.4,1.8,3.6,2.4c1.2,0.6,2,0.9,2.6,0.9
		c0.5,0,1.6-1.6,3.3-4.8s4.3-7.4,7.7-12.7c3.4-5.3,7.8-11.4,13-18.4c5.3-6.9,11.7-14.2,19.3-21.7c-1.8,4-3.8,8.2-6,12.5
		c-2.2,4.3-4.3,8.4-6.3,12.2c-2,3.9-3.6,7.5-4.9,10.9c-1.3,3.4-1.9,6.2-1.9,8.5c0,1.1,0.5,2.5,1.4,4c1,1.5,2.1,3,3.5,4.5
		c1.3,1.4,2.8,2.6,4.4,3.6s3,1.4,4.4,1.4c3.8,0,7.8-1.4,11.7-4.2c3.8-2.6,7.4-5.9,10.8-9.8c1.1,2.1,2.5,4.1,4.1,6
		c2,2.3,4.1,4.2,6.5,5.8c2.4,1.6,4.7,2.4,7,2.4c1.4,0,3-0.4,4.8-1.2c1.8-0.8,3.6-1.9,5.6-3.2c2-1.3,4-2.9,6-4.7
		c2.1-1.8,4.1-3.7,6.1-5.7v1.2c0,1.1,0.5,2.4,1.4,3.9s2.1,3,3.5,4.5c1.4,1.4,2.9,2.7,4.4,3.7c1.5,1.1,2.9,1.6,4.2,1.6
		c2.3,0,4.7-0.9,7.3-2.6c2.5-1.7,5.1-3.9,7.6-6.6c2.2-2.3,4.3-4.9,6.4-7.6c0.1,0.4,0.2,0.7,0.4,1.1c1.2,2.8,2.7,5.4,4.4,7.7
		c1.7,2.3,3.6,4.2,5.5,5.7c1.9,1.5,3.6,2.2,5,2.2c2.6,0,5.4-0.8,8.3-2.3c2.9-1.5,5.9-3.6,8.9-6.1s6-5.5,8.9-8.8
		c2.9-3.3,5.7-6.7,8.3-10.3c2.6,2.1,4.8,3.2,6.6,3.2c3.7,0,6.8-0.4,9.5-1.1c-0.2,0.8-0.5,1.5-0.7,2.3c-1.1,3.8-1.6,6.8-1.6,8.9
		c0,1.9,0.7,3.7,2,5.4c1.3,1.7,2.9,3.2,4.7,4.5c1.8,1.3,3.6,2.4,5.3,3.2c1.8,0.8,3.1,1.2,4.1,1.2c3.1,0,6.1-0.9,9.2-2.6
		c3.1-1.7,6-3.9,8.9-6.6c2.8-2.6,5.4-5.6,7.8-8.8c0.3-0.4,0.5-0.7,0.8-1.1c1.5,3.4,3.3,6.6,5.6,9.3c2.4,2.8,5,5.2,7.8,7
		s5.7,2.7,8.5,2.7c4.1,0,8.1-0.9,12-2.7c3.9-1.8,7.6-4.1,11-6.8c3.5-2.8,6.6-5.8,9.5-9.1c2.9-3.3,5.4-6.5,7.4-9.6
		c2.1-3.1,3.7-5.8,4.8-8.3c1.2-2.4,1.7-4.1,1.7-5.1C749.6,234.8,749.2,233.4,748.3,232.1z M462.6,218.1c0.1-0.2,0.2-0.4,0.2-0.7
		c0-0.3,0.2-0.6,0.4-1c0.2-0.4,0.3-0.8,0.4-1.2c0.1-0.4,0.2-0.8,0.4-1.3c0.2-0.5,0.3-0.9,0.4-1.4c0.1-0.4,0.2-0.9,0.4-1.4
		c0.1-0.5,0.2-1,0.2-1.4c0-0.5,0.1-1,0.1-1.4c0-0.6-0.1-1-0.1-1.3c0-0.4-0.1-0.8-0.3-1.2c-0.2-0.4-0.3-0.7-0.4-1
		c0-0.3-0.2-0.5-0.4-0.7c-0.1-0.1-0.1-0.2-0.1-0.4v-0.1c0.1,0,0.1,0.1,0.1,0.1c0,0.2,0,0.3,0.1,0.4c0.3,0.3,0.6,0.8,0.9,1.6
		c0.1,0.2,0.2,0.6,0.4,1.2c0.1,0.2,0.1,0.4,0.1,0.6c0,0.2,0,0.5,0.1,0.8c0,1.1-0.1,2.1-0.4,3c-0.2,1-0.5,1.9-0.9,2.7
		c-0.4,0.9-0.7,1.7-1,2.4c-0.2,0.4-0.3,0.7-0.4,1c-0.1,0.3-0.2,0.5-0.3,0.7c-0.1,0.3-0.2,0.5-0.3,0.6
		C462.5,218.7,462.5,218.4,462.6,218.1z M381.1,199.6c0,0,0.1-0.1,0.2-0.1h0.1c0,0.1,0,0.1-0.1,0.1h-0.4
		C380.9,199.7,381,199.7,381.1,199.6z M349.2,224.2c-0.2,0.3-0.4,0.7-0.6,1.3c-0.2,0.6-0.3,1-0.4,1.2c-0.1,0.3-0.1,0.6-0.1,1
		c-0.1,0.4-0.2,0.7-0.2,0.9s-0.1,0.5-0.1,0.6c0-0.6,0-1.1,0.1-1.6c0-0.2,0-0.4,0.1-0.5c0-0.1,0.1-0.3,0.1-0.5l0.4-1.3
		c0.1-0.7,0.5-1.6,1.2-2.7c0.3-0.5,0.6-1,0.9-1.5c0.3-0.5,0.6-1,1-1.5c0.4-0.5,0.8-1,1.2-1.6c0.4-0.6,0.9-1.1,1.4-1.6
		c2-2.2,4.2-4.2,6.5-5.9c1.2-0.9,2.3-1.7,3.5-2.5c1.2-0.8,2.4-1.6,3.7-2.4c1.2-0.8,2.3-1.4,3.4-1.9s2.2-1,3.2-1.5
		c1.1-0.5,2-0.9,2.8-1.2c0.8-0.3,1.6-0.6,2.2-0.8c0.3-0.1,0.6-0.1,0.8-0.2c-0.2,0.1-0.5,0.2-0.8,0.4c-0.6,0.2-1.3,0.5-2.1,0.9
		c-0.8,0.4-1.8,0.8-2.8,1.3c-1.9,1-4.1,2.2-6.6,3.6c-2.4,1.4-4.8,3.1-7.1,4.9c-1.2,1-2.3,1.9-3.4,2.8s-2.1,1.9-3.1,3l-2.6,3
		c-0.4,0.5-0.7,1-1,1.5c-0.3,0.5-0.6,1-0.9,1.5C349.6,223.2,349.3,223.7,349.2,224.2z M354.2,219.6c-0.5,0.6-0.9,1.1-1.4,1.7
		s-0.8,1-1.2,1.5c-0.1,0.1-0.2,0.2-0.2,0.3c-0.1,0.1-0.1,0.2-0.2,0.3c0,0.1-0.1,0.2-0.3,0.4l-0.1,0.3c0,0.1-0.1,0.1-0.1,0.1
		c0-0.1,0-0.2,0.1-0.4c0.1-0.2,0.3-0.6,0.7-1.2c0.5-1.1,1.2-2.2,2.3-3.5l2.9-2.9c0.2-0.2,0.4-0.4,0.6-0.5c0.2-0.1,0.4-0.3,0.6-0.4
		c0.2-0.1,0.3-0.2,0.4-0.3l-0.4,0.4c-0.4,0.4-0.7,0.7-0.9,1c-0.4,0.5-0.8,1-1.3,1.4C355.2,218.5,354.7,219,354.2,219.6z
		 M376.5,264.2c-0.2,0.1-0.4,0.2-0.6,0.3c-0.2,0.1-0.5,0.2-0.8,0.3c-0.3,0.2-0.8,0.4-1.6,0.6c-0.4,0.1-0.7,0.2-1,0.3
		c-0.3,0.1-0.6,0.2-1,0.3c-0.7,0.2-1.4,0.3-2.1,0.4c-0.7,0.1-1.5,0.2-2.2,0.3H365h-2.2c-0.3-0.1-0.6-0.1-0.9-0.1
		c-0.3,0-0.6,0-0.9-0.1c-0.5-0.1-1.1-0.2-1.9-0.4c-0.2-0.1-0.4-0.2-0.7-0.2c-0.3,0-0.5-0.1-0.7-0.2c-0.2-0.1-0.4-0.2-0.5-0.2
		c-0.1,0-0.3-0.1-0.5-0.2c-0.4-0.2-0.6-0.3-0.7-0.4l-0.1-0.1l0.9,0.4c0.2,0.1,0.6,0.2,1.2,0.4c0.2,0.1,0.4,0.1,0.6,0.1
		c0.2,0,0.5,0.1,0.8,0.1c0.3,0.1,0.6,0.1,0.9,0.1c0.3,0,0.6,0.1,0.9,0.1c0.3,0,0.6,0,0.9,0.1c0.3,0.1,0.7,0.1,1.1,0.1
		c0.6,0.2,1.2,0.2,2,0h2.2c0.8-0.1,1.5-0.2,2.2-0.3c0.7-0.1,1.4-0.2,2.2-0.3c0.7-0.2,1.3-0.4,1.9-0.5s1.2-0.3,1.7-0.5
		c0.6-0.2,1-0.4,1.3-0.6c0.6-0.2,1-0.3,1.2-0.4l0.6-0.3c-0.2,0.2-0.4,0.3-0.6,0.4C377.1,263.8,376.8,264,376.5,264.2z M418,220.7
		c0.6-1.3,1.2-2.7,1.7-4s1.1-2.7,1.6-4c0.6-1.2,1.1-2.4,1.6-3.6c0.5-1.2,1-2.3,1.4-3.3c0.5-1.1,0.9-2,1.2-2.9
		c0.3-0.9,0.6-1.6,0.8-2.2c0.3-0.7,0.5-1.3,0.7-1.9c0,0.2-0.1,0.4-0.1,0.6c-0.1,0.2-0.2,0.4-0.3,0.6c-0.1,0.2-0.2,0.4-0.3,0.7
		l-1.7,5.2c-0.5,1.1-0.9,2.2-1.4,3.3c-0.4,1.2-0.9,2.4-1.5,3.7c-0.5,1.3-1,2.7-1.6,4c-0.6,1.3-1.2,2.7-1.7,4c-0.6,1.3-1.2,2.7-1.7,4
		c-0.5,1.1-0.9,2.1-1.4,3.2c-0.1,0-0.2-0.1-0.3-0.1c-0.1,0-0.2,0-0.2,0C415.8,225.7,416.9,223.3,418,220.7z M420.9,220.8
		c0,0.1,0,0.3-0.1,0.5c-0.1,0.4-0.2,0.8-0.4,1.4c-0.2,0.5-0.4,1.1-0.6,1.8c-0.3,0.7-0.6,1.4-0.8,2.2c-0.2,0.8-0.6,1.5-0.9,2.3
		c-0.1,0.3-0.2,0.6-0.4,0.9c-0.3-0.3-0.5-0.5-0.8-0.7c0.1-0.2,0.2-0.4,0.3-0.6c0.4-0.8,0.7-1.5,1.1-2.2c0.3-0.7,0.6-1.4,0.9-2.1
		c0.3-0.6,0.6-1.1,0.8-1.6c0.2-0.5,0.5-0.9,0.6-1.3C420.7,221.1,420.7,220.9,420.9,220.8c0-0.1,0-0.3,0.1-0.4
		C420.9,220.5,420.9,220.7,420.9,220.8z M444.6,213.7c-0.5,0.5-1,1.1-1.5,1.8s-1.2,1.5-1.9,2.2c-1.4,1.6-3.1,3.5-5,5.6
		c-1.9,2.1-3.8,4.3-5.7,6.5c-1.9,2.2-3.8,4.4-5.7,6.5c-1.9,2.1-3.6,4-5.1,5.6c-0.8,0.8-1.4,1.5-2,2.2c-0.3,0.3-0.5,0.5-0.7,0.8
		c0.1-0.1,0.1-0.2,0.2-0.3c0.2-0.2,0.3-0.3,0.4-0.5c0.5-0.7,1.2-1.5,1.9-2.4c0.8-0.8,1.5-1.7,2.3-2.7c0.8-1,1.6-2,2.6-3.1
		c1.7-2,3.6-4.2,5.6-6.5c1-1.1,1.9-2.1,2.9-3.2c1-1.1,1.9-2.1,2.9-3.2c1-1.1,1.8-2,2.7-3c0.8-0.9,1.6-1.8,2.4-2.7
		c0.8-0.8,1.4-1.5,2-2.2s1.1-1.2,1.6-1.7l1.4-1.4C445.5,212.6,445.1,213.1,444.6,213.7z M444.6,237.3c-0.3,0.7-0.6,1.3-0.9,2
		c-0.3,0.7-0.7,1.4-1.1,2.2c-0.5,0.8-0.9,1.6-1.2,2.4c-0.3,0.9-0.7,1.7-1.2,2.4c-0.8,1.6-1.6,3.2-2.4,4.8c-0.8,1.6-1.6,3-2.2,4.2
		c-0.7,1.2-1.2,2.2-1.4,2.9c-0.2,0.4-0.4,0.8-0.6,1.2c0.1-0.4,0.2-0.8,0.4-1.2c0.3-0.7,0.7-1.7,1.3-3c0.3-0.7,0.6-1.4,0.9-2.1
		c0.3-0.7,0.7-1.5,1.1-2.2c0.4-0.8,0.8-1.6,1.2-2.4c0.4-0.8,0.8-1.7,1.3-2.5c0.5-0.8,0.9-1.6,1.2-2.4c0.3-0.8,0.7-1.6,1.2-2.4
		c0.8-1.7,1.5-3.1,2.2-4.2c0.3-0.6,0.6-1.1,0.9-1.6c0.3-0.5,0.5-0.9,0.7-1.3C445.6,235,445.2,236,444.6,237.3z M467.5,254.6
		c-0.1,0.2-0.2,0.4-0.2,0.7c-0.1,0.3-0.2,0.6-0.4,0.9c-0.1,0.5-0.3,1.2-0.7,2.2c-0.1,0.5-0.2,0.9-0.3,1.3c-0.1,0.4-0.2,0.8-0.3,1.3
		c-0.2,1-0.3,1.8-0.4,2.7c-0.1,0.8,0,1.6,0.2,2.4c0.2,0.8,0.3,1.2,0.4,1.4c0,0.2,0,0.3,0.1,0.3c0,0,0.1,0.1,0.1,0.1l-0.3-0.3
		c-0.1-0.2-0.2-0.4-0.3-0.6c-0.1-0.2-0.2-0.5-0.3-0.9c-0.3-0.7-0.4-1.4-0.4-2.3c0-0.5,0-0.9,0.1-1.4s0.1-0.9,0.2-1.4
		c0.1-0.5,0.2-0.9,0.3-1.4c0.1-0.4,0.2-0.9,0.4-1.4l0.9-2.2C467,255.2,467.3,254.8,467.5,254.6c0-0.1,0-0.2,0.1-0.2
		c0,0,0.1-0.1,0.1-0.2c0-0.1,0-0.1,0.1-0.1C467.7,254.1,467.6,254.3,467.5,254.6z M474.9,214.5c-0.6,0.7-1.2,1.4-1.8,2.2
		c-0.7,0.7-1.3,1.3-1.9,2s-1.2,1.3-1.8,2c-0.6,0.8-1.1,1.4-1.7,2c-0.5,0.6-1,1.1-1.5,1.6c-0.5,0.6-0.9,1.1-1.4,1.5
		c-0.4,0.4-0.8,0.8-1.1,1.1l-0.9,0.9c0.2-0.3,0.5-0.6,0.9-1c0.3-0.3,0.6-0.6,0.9-1.1c0.3-0.4,0.7-0.9,1.2-1.5c0.5-0.6,1-1.1,1.5-1.7
		s1-1.2,1.5-2c0.7-0.7,1.3-1.3,1.9-2s1.2-1.4,1.9-2.2c0.6-0.8,1.2-1.5,1.8-2.1c0.6-0.6,1.2-1.3,1.8-2.1c0.6-0.7,1.2-1.3,1.7-1.9
		c0.6-0.6,1.1-1.1,1.6-1.6c0.5-0.5,0.9-1,1.4-1.4c0.4-0.5,0.8-0.9,1.1-1.1l0.9-0.9l-0.3,0.3c-0.1,0.1-0.2,0.2-0.2,0.3
		c0,0.1-0.2,0.2-0.4,0.4c-0.3,0.3-0.6,0.7-0.9,1.2c-0.3,0.5-0.7,1-1.2,1.4c-0.5,0.6-1,1.2-1.5,1.7c-0.5,0.6-1.1,1.2-1.7,2
		C476.2,213.2,475.6,213.9,474.9,214.5z M481.8,208.2c-0.6,0.8-1.2,1.5-1.7,2.1c-0.6,0.6-1.1,1.2-1.6,1.7l-1.6,1.6
		c0-0.1,0.1-0.2,0.3-0.4c0.1-0.2,0.4-0.7,1-1.4c0.5-0.5,1-1.1,1.5-1.7s1.1-1.3,1.7-2c0.6-0.8,1.2-1.5,1.7-2.1
		c0.6-0.6,1.1-1.2,1.6-1.7c0.2-0.2,0.4-0.4,0.6-0.5c0.2-0.1,0.5-0.3,0.6-0.5c-0.2,0.2-0.4,0.4-0.5,0.6c-0.1,0.2-0.3,0.5-0.5,0.6
		c-0.5,0.5-1,1.1-1.5,1.7C482.9,206.9,482.4,207.5,481.8,208.2z M474.9,239.4c-0.4,0.9-0.8,1.7-1.2,2.6c-0.5,0.8-0.9,1.5-1.3,2.3
		c-0.4,0.8-0.8,1.5-1.2,2.3c-0.4,0.7-0.7,1.3-1,1.8c-0.3,0.5-0.5,1-0.7,1.4c0.2-0.4,0.4-0.8,0.6-1.4c0.2-0.5,0.5-1.2,0.9-1.9
		c0.7-1.4,1.4-3,2.2-4.8c0.5-0.8,0.9-1.6,1.3-2.5c0.4-0.9,0.8-1.8,1.3-2.7c0.5-1,0.9-1.9,1.4-2.7c0.4-0.9,0.9-1.7,1.4-2.6l2.3-4.6
		c0.4-0.7,0.7-1.2,1-1.7c0.3-0.5,0.5-1,0.7-1.4c-0.2,0.5-0.4,1-0.6,1.5c-0.2,0.5-0.5,1.1-0.8,1.8c-0.3,0.8-0.6,1.5-1,2.3
		c-0.4,0.8-0.8,1.5-1.2,2.3c-0.5,0.9-0.9,1.8-1.3,2.7c-0.4,0.9-0.8,1.8-1.3,2.7C475.8,237.7,475.4,238.6,474.9,239.4z M542.4,204.5
		c-0.3,0.2-0.6,0.4-1,0.6c-0.5,0.2-0.9,0.4-1.3,0.7c-0.4,0.3-0.8,0.6-1.3,0.9c-0.5,0.4-1,0.7-1.4,1s-1,0.6-1.4,1
		c-1.1,0.8-2,1.5-2.9,2.2c-0.9,0.7-1.7,1.3-2.4,1.9c-0.8,0.6-1.3,1-1.7,1.3c0.2-0.2,0.4-0.4,0.6-0.6c0.2-0.2,0.6-0.6,0.9-0.9
		c0.3-0.3,0.6-0.6,1-0.9c0.4-0.3,0.8-0.7,1.3-1.1c0.5-0.4,0.9-0.7,1.4-1.1s0.9-0.7,1.4-1.1c0.5-0.4,1-0.7,1.5-1
		c0.5-0.3,1-0.6,1.5-0.9c0.5-0.4,0.9-0.7,1.4-0.9c0.4-0.2,0.8-0.5,1.2-0.6c0.5-0.2,0.9-0.4,1.2-0.5c0.3-0.1,0.6-0.3,0.8-0.5
		c0.1,0,0.2,0,0.3-0.1c0,0,0.1,0,0.1,0c-0.1,0.1-0.2,0.1-0.4,0.2C542.9,204.1,542.7,204.3,542.4,204.5z M517.3,221.3
		c1.7-1.9,3.5-3.7,5.3-5.3c1.8-1.6,3.6-3.2,5.5-4.8c1.9-1.5,3.8-2.9,5.5-4.2c1.8-1.2,3.5-2.4,5.1-3.3c0.8-0.5,1.5-0.9,2.3-1.3
		c0.8-0.4,1.5-0.7,2.3-1c0.3-0.2,0.6-0.3,0.9-0.4c0.3-0.1,0.6-0.2,0.9-0.4c0.4-0.1,0.7-0.2,1-0.3c0.3-0.1,0.6-0.2,0.9-0.3
		c0.2-0.1,0.4-0.1,0.7-0.1c0.3,0,0.5,0,0.7-0.1c0.2,0,0.4,0,0.5-0.1c0.1,0,0.3-0.1,0.5-0.1h0.6c-0.1,0-0.2,0-0.2,0.1
		c0,0.1-0.2,0.1-0.4,0.1c-0.4,0-0.7,0-1,0.1c-0.6,0.2-1.1,0.3-1.4,0.4c-0.8,0.2-1.3,0.4-1.7,0.6c-0.3,0.2-0.6,0.3-0.9,0.4
		c-0.3,0.1-0.6,0.2-0.9,0.4c-1.2,0.6-2.7,1.4-4.5,2.6c-0.8,0.5-1.6,1-2.4,1.6c-0.9,0.6-1.7,1.2-2.6,1.9c-0.9,0.6-1.7,1.2-2.6,1.9
		c-0.9,0.7-1.7,1.5-2.6,2.2c-1.8,1.5-3.6,3.1-5.5,4.8c-1.8,1.7-3.6,3.4-5.2,5.3c-0.9,1-1.7,1.9-2.5,2.8c-0.8,0.9-1.6,1.9-2.4,2.8
		c-0.5,0.6-0.9,1.2-1.4,1.8c-0.3-0.2-0.6-0.4-0.9-0.6c0.5-0.6,0.9-1.2,1.4-1.8C514.1,225,515.7,223.1,517.3,221.3z M523.8,261.8
		c0.3-0.3,0.7-0.6,1.2-1c0.4-0.3,0.8-0.6,1.2-1c0.4-0.4,0.8-0.8,1.3-1.3l2.7-2.7c0.5-0.5,0.9-1,1.4-1.4s0.9-1,1.4-1.4
		c0.5-0.5,0.9-0.9,1.2-1.4c0.3-0.4,0.7-0.8,1.1-1.2c0.3-0.4,0.6-0.7,0.9-1c0.3-0.3,0.5-0.5,0.7-0.7l0.7-0.7
		c-0.2,0.2-0.4,0.4-0.6,0.7c-0.2,0.2-0.4,0.5-0.6,0.9c-0.2,0.4-0.5,0.8-0.8,1.1c-0.4,0.4-0.7,0.8-1.1,1.2c-0.3,0.4-0.7,0.9-1.2,1.4
		c-0.4,0.5-0.8,1-1.2,1.4c-0.4,0.5-0.9,1-1.4,1.4c-0.5,0.5-1,1-1.4,1.4c-0.5,0.5-1,0.9-1.4,1.3c-0.5,0.5-0.9,0.9-1.4,1.3
		s-0.8,0.7-1.2,1c-0.5,0.3-0.9,0.6-1.2,0.8c-0.3,0.2-0.6,0.5-0.9,0.6C523.3,262.3,523.5,262.1,523.8,261.8z M536.9,263.6
		c-0.3,0.3-0.6,0.6-1,0.9c-0.4,0.3-0.8,0.7-1.3,1.1c-0.5,0.5-1,0.9-1.5,1.4c-0.5,0.4-1.1,0.9-1.8,1.4c-0.7,0.5-1.3,1-1.9,1.5
		c-0.6,0.5-1.3,1-2.1,1.5c-0.4,0.2-0.7,0.4-1.1,0.7c-0.3,0.3-0.7,0.5-1.1,0.7c-0.4,0.2-0.7,0.4-1.1,0.6c-0.3,0.2-0.7,0.4-1.1,0.6
		c-0.4,0.2-0.7,0.4-1.1,0.5c-0.3,0.1-0.7,0.3-1.1,0.4c-0.3,0.2-0.6,0.3-0.9,0.4c-0.3,0-0.6,0.1-0.9,0.2c-0.3,0.1-0.6,0.1-1,0.1h-0.9
		c-0.2,0.1-0.4,0.1-0.6,0.1c-0.2,0-0.5-0.1-0.6-0.1c-0.2-0.1-0.3-0.1-0.4-0.1c-0.1,0-0.2,0-0.4-0.1c0.1,0,0.2,0,0.4,0.1
		s0.3,0.1,0.5,0.1h1.3c0.4,0,0.7,0,0.9-0.1c0.4,0,0.7,0,0.9-0.1c0.3-0.1,0.6-0.2,0.9-0.2c0.3,0,0.6-0.2,0.9-0.4
		c0.4-0.2,0.7-0.4,1.1-0.5c0.3-0.1,0.7-0.3,1.1-0.5c0.4-0.2,0.7-0.4,1.1-0.6c0.3-0.2,0.6-0.4,0.9-0.6c0.4-0.2,0.7-0.4,1.1-0.7
		c0.3-0.3,0.7-0.5,1.1-0.7c0.8-0.5,1.5-1,2.1-1.4c0.6-0.5,1.3-1,1.9-1.4c0.7-0.5,1.3-0.9,1.9-1.4c0.6-0.4,1.1-0.9,1.6-1.4
		c0.5-0.4,0.9-0.7,1.4-1.1c0.4-0.3,0.8-0.6,1.1-0.8c0.4-0.3,0.7-0.5,0.9-0.7L536.9,263.6z M587.3,222.7c0-0.2,0.1-0.4,0.2-0.6
		c0.1-0.2,0.2-0.3,0.3-0.4L587.3,222.7z M584.9,227.5c-0.4,0.9-0.8,1.9-1.3,2.9c-0.1-0.1-0.1-0.1-0.2-0.2c0.5-1,0.9-1.9,1.4-2.7
		c0.5-0.9,0.9-1.7,1.3-2.4c0.4-0.7,0.7-1.3,0.9-1.8c0.2-0.2,0.3-0.4,0.4-0.6L584.9,227.5z M585.6,223.2c0.8-1.5,1.5-3,2.3-4.3
		c0.5-0.8,0.9-1.5,1.2-2.2c0.3-0.7,0.7-1.3,1.1-1.9c0.5-0.7,0.9-1.3,1.2-1.9c0.3-0.6,0.6-1.2,0.9-1.7c0.4-0.6,0.7-1.1,1-1.6
		c0.3-0.5,0.6-1,0.9-1.4c0.3-0.5,0.6-0.9,0.9-1.2c0.3-0.3,0.5-0.7,0.7-1.1c0.6-0.8,0.9-1.2,1-1.3c-0.1,0.2-0.2,0.4-0.4,0.6
		c-0.1,0.2-0.3,0.5-0.5,0.8c-0.5,0.7-1,1.4-1.5,2.3c-0.5,0.9-1.1,1.9-1.8,3c-0.3,0.6-0.6,1.1-0.9,1.7c-0.3,0.6-0.7,1.2-1.1,1.9
		c-0.4,0.7-0.7,1.3-1.1,1.9s-0.7,1.3-1.2,2.1c-0.8,1.4-1.5,2.9-2.2,4.4s-1.5,3-2.2,4.7c-0.3,0.6-0.6,1.2-0.8,1.8
		c-0.1-0.1-0.2-0.2-0.2-0.2c-0.1-0.1-0.2-0.1-0.3-0.2c0.3-0.6,0.5-1.2,0.8-1.7C584.1,226.2,584.8,224.7,585.6,223.2z M576.5,259
		c0,0,0-0.1,0.1-0.1c0,0.1,0.1,0.3,0.1,0.4c0,0.2,0,0.4,0.1,0.6C576.7,259.7,576.6,259.3,576.5,259z M602,264.7
		c-0.2,0.1-0.4,0.3-0.6,0.5c-0.3,0.2-0.6,0.4-0.9,0.7c-0.3,0.3-0.6,0.5-0.9,0.7c-0.4,0.2-0.7,0.4-1.1,0.7c-0.3,0.3-0.7,0.5-1.2,0.7
		c-0.8,0.5-1.5,0.9-2.3,1.2c-0.5,0.2-0.9,0.3-1.2,0.4c-0.3,0.1-0.7,0.1-1.1,0.2c-0.2,0.1-0.5,0.1-0.9,0.1c-0.2,0.1-0.4,0.1-0.7,0.1
		h-0.4c0.2,0,0.3,0,0.4-0.1h0.7c0.2-0.1,0.3-0.1,0.4-0.1c0.1,0,0.2,0,0.4-0.1c0.3,0,0.6-0.1,1-0.3c0.2-0.1,0.4-0.2,0.6-0.2
		c0.2,0,0.4-0.1,0.6-0.2c0.8-0.3,1.5-0.7,2.3-1.2c1.5-0.9,2.9-1.8,4-2.7c0.6-0.3,1-0.6,1.3-0.9C602.4,264.4,602.2,264.6,602,264.7z
		 M603.5,259c-0.2,0.2-0.4,0.5-0.6,0.8c-0.2,0.3-0.5,0.6-0.9,0.9c-0.3,0.4-0.6,0.7-1,1.1c-0.4,0.3-0.8,0.7-1.3,1.1
		c-0.2,0.2-0.4,0.4-0.7,0.6c-0.3,0.2-0.5,0.4-0.7,0.6c-0.5,0.3-1,0.6-1.6,1c-1.2,0.7-2.3,1.2-3.3,1.6c-0.5,0.3-1,0.5-1.6,0.6
		c-0.3,0.1-0.6,0.1-0.8,0.1c-0.2,0-0.5,0-0.6,0.1c-0.3,0.1-0.5,0.1-0.7,0.1c-0.2,0-0.4,0-0.6,0.1h-1c-0.2,0-0.3,0-0.4-0.1
		c-0.1,0-0.2-0.1-0.3-0.1c0.3,0,0.5,0,0.7-0.1c0.4,0,0.7,0,0.9-0.1c0.2-0.1,0.4-0.1,0.6-0.1c0.2,0,0.5-0.1,0.6-0.3
		c0.5-0.1,0.9-0.2,1.4-0.4c0.4-0.2,0.9-0.4,1.4-0.6c0.8-0.4,1.3-0.7,1.6-0.9s0.6-0.3,0.8-0.4c0.2-0.1,0.5-0.2,0.8-0.4
		c0.5-0.3,1-0.6,1.5-0.9c0.5-0.3,1-0.6,1.5-0.9c0.5-0.4,0.9-0.7,1.3-1c0.4-0.3,0.8-0.6,1.2-0.9c0.4-0.3,0.7-0.6,1-0.8
		c0.3-0.2,0.5-0.5,0.7-0.6c0.1-0.1,0.2-0.1,0.3-0.1c0.1,0,0.2,0,0.3-0.1c0.1,0,0.1,0,0.1-0.1L603.5,259z M631,203.3
		c0.1-0.2,0.2-0.4,0.4-0.7c0.1-0.3,0.3-0.6,0.5-0.9c0.2-0.3,0.4-0.6,0.6-0.9c0.2-0.3,0.4-0.5,0.6-0.7c0.1-0.1,0.1-0.2,0.1-0.2
		c0,0,0-0.1,0.1-0.2c-0.1,0.1-0.1,0.2-0.1,0.3c0,0.1,0,0.2-0.1,0.3c-0.1,0.2-0.2,0.4-0.4,0.7c-0.1,0.3-0.3,0.6-0.5,0.9
		c-0.2,0.3-0.4,0.6-0.5,0.8c-0.1,0.2-0.3,0.5-0.5,0.6c-0.1,0.2-0.2,0.4-0.4,0.6L631,203.3z M627.5,209.4c-0.3,0.7-0.6,1.4-1,2.2
		c-0.4,0.8-0.8,1.5-1.2,2.3c-1,1.8-1.8,3.5-2.4,5c-0.5,0.9-0.9,1.7-1.2,2.6c-0.3,0.9-0.7,1.7-1.1,2.6c-0.7,1.5-1.2,3.1-1.7,4.6
		c-0.1,0.3-0.2,0.6-0.2,0.9s-0.1,0.6-0.2,0.9c-0.1,0.4-0.2,0.9-0.4,1.4c0,0.2,0,0.4-0.1,0.6c-0.1,0.2-0.1,0.3-0.1,0.4
		c0-0.4,0-0.7,0.1-1c0-1.1,0.2-2.2,0.6-3.5c0.2-0.8,0.4-1.5,0.6-2.3c0.2-0.8,0.6-1.5,0.9-2.3c0.3-0.9,0.6-1.7,1-2.6
		c0.4-0.9,0.8-1.8,1.2-2.7c0.5-0.9,0.9-1.7,1.3-2.6c0.4-0.9,0.8-1.7,1.3-2.4c0.4-0.8,0.8-1.5,1.2-2.2c0.4-0.7,0.8-1.4,1.2-2.1
		c0.4-0.6,0.7-1.1,1-1.6c0.3-0.5,0.5-0.9,0.7-1.3c0.2-0.4,0.4-0.7,0.6-0.9c-0.1,0.3-0.2,0.6-0.4,0.9c-0.2,0.4-0.4,0.8-0.7,1.4
		C628.1,208.2,627.8,208.8,627.5,209.4z M657,213.8c0.6-1.2,1.1-2.4,1.5-3.5c0.4-1.1,0.8-2,1.2-2.7l1.2-2.3h0.1
		c-0.1,0.2-0.2,0.4-0.3,0.7c-0.1,0.2-0.2,0.4-0.3,0.7c-0.1,0.3-0.2,0.6-0.4,1c-0.3,0.8-0.6,1.7-1,2.7c-0.4,1.1-0.9,2.3-1.4,3.6
		c-0.3,0.7-0.5,1.2-0.6,1.5s-0.2,0.6-0.3,0.9c-0.1,0.3-0.2,0.6-0.4,1c-0.1,0.4-0.4,1-0.8,1.7c-0.7,1.6-1.3,3.3-2,5
		c-0.6,1.5-1.2,3.1-1.8,4.6c-0.1-0.1-0.2-0.2-0.4-0.3c-0.2-0.1-0.4-0.2-0.6-0.2c1.2-3.1,2.3-5.7,3.1-7.6
		C654.8,218.7,655.9,216.4,657,213.8z M639.1,243.9c-0.3,0.3-0.7,0.5-1.2,0.7c-0.5,0.2-0.9,0.4-1.3,0.5c-0.4,0.1-0.8,0.3-1.3,0.5
		c-0.9,0.3-1.7,0.4-2.4,0.4c-0.4,0.1-0.7,0.1-0.9,0.1s-0.5,0-0.6,0h-0.6c0.1,0,0.2,0,0.2-0.1c0,0,0.2-0.1,0.4-0.1
		c0.3,0,0.5,0,0.7-0.1c0.4,0,0.7,0,0.9-0.1c0.4-0.1,0.7-0.2,1.1-0.2c0.3-0.1,0.7-0.2,1.2-0.4c0.6-0.2,1-0.4,1.3-0.6
		c0.4-0.1,0.8-0.3,1.2-0.6c1.7-0.9,3.1-1.8,4.2-2.9c0.3-0.2,0.5-0.4,0.7-0.6c0.2-0.2,0.4-0.4,0.6-0.6l0.4-0.4l-0.3,0.6
		c-0.2,0.2-0.4,0.4-0.6,0.6c-0.2,0.2-0.4,0.4-0.6,0.7c-0.3,0.2-0.6,0.4-0.9,0.7c-0.3,0.3-0.6,0.6-1,0.9
		C639.8,243.3,639.4,243.6,639.1,243.9z M641.2,256.9c0.1-0.2,0.1-0.4,0.1-0.7s0.1-0.7,0.3-1.2c0.2-0.8,0.5-1.7,0.8-2.8
		c0-0.1,0-0.1,0.1-0.2c0.2-0.1,0.4-0.2,0.6-0.2c-0.1,0.2-0.1,0.4-0.2,0.5c-0.4,1.1-0.7,2-1,2.7c-0.4,1-0.7,1.8-0.9,2.4
		C641,257.4,641.1,257.2,641.2,256.9z M644.6,253.3l-1.7,5.2c-0.2,0.8-0.4,1.5-0.6,2.3c-0.2,0.8-0.4,1.5-0.6,2.2
		c-0.3,1.3-0.4,2.4-0.4,3.3c0,0.2,0,0.4,0,0.5c-0.1-0.2-0.2-0.3-0.2-0.5c0-0.5,0-1,0-1.5s0.1-1.1,0.3-1.8c0.1-0.8,0.2-1.5,0.4-2.3
		c0.2-0.8,0.4-1.5,0.6-2.3c0.2-0.9,0.4-1.7,0.7-2.6c0.3-0.9,0.6-1.7,0.9-2.6l0.7-2c0.2-0.1,0.4-0.1,0.6-0.2
		C645,251.7,644.8,252.5,644.6,253.3z M718.7,221c-0.2,0.4-0.4,0.8-0.5,1.3c-0.1,0.5-0.4,1.1-0.8,1.7c-0.2,0.3-0.4,0.6-0.5,0.9
		c-0.1,0.3-0.3,0.6-0.5,1c-0.2,0.4-0.4,0.7-0.7,1c-0.3,0.3-0.5,0.6-0.7,1c-0.3,0.4-0.6,0.7-0.9,1c-0.3,0.3-0.6,0.6-0.9,1
		c-0.4,0.3-0.7,0.6-1,0.9c-0.3,0.3-0.7,0.6-1.2,0.8l-1,0.9c-0.2,0.2-0.4,0.3-0.6,0.4c-0.2,0-0.4,0.2-0.6,0.4
		c-0.5,0.2-0.9,0.4-1.2,0.6c-0.3,0.2-0.7,0.4-1.2,0.6c-0.4,0.2-0.8,0.3-1.2,0.4c-0.4,0.1-0.8,0.2-1.2,0.4c-0.4,0.1-0.8,0.2-1.2,0.2
		c-0.4,0.1-0.7,0.1-1,0.2c-0.4,0-0.7,0-1,0.1s-0.6,0.1-0.9,0.1h-1.4h-1c0.4,0,0.7,0,1-0.1h1.4l1.7-0.4c0.7,0,1.4-0.1,2.2-0.4
		c0.4-0.2,0.8-0.3,1.2-0.4c0.4-0.1,0.8-0.2,1.2-0.4c0.8-0.3,1.5-0.7,2.3-1.2c0.2-0.2,0.4-0.3,0.6-0.4c0.2,0,0.4-0.2,0.6-0.4l1-0.9
		c0.4-0.2,0.7-0.5,1-0.8c0.3-0.3,0.6-0.6,1-0.9c0.3-0.3,0.6-0.6,0.9-0.9c0.3-0.3,0.6-0.6,0.9-0.9c0.6-0.8,1.1-1.4,1.4-2
		c0.6-0.8,1-1.3,1.2-1.7c0.4-0.7,0.7-1.2,0.9-1.7c0.2-0.5,0.5-0.9,0.6-1.3c0.1-0.2,0.1-0.4,0.1-0.5c0-0.1,0-0.3,0.1-0.4
		c0-0.1,0-0.2,0.1-0.3L718.7,221z M718.8,217.5c-1,2.9-2.3,5.6-4,8.1c-1.7,2.5-3.9,4.7-6.6,6.4s-6,2.6-9.9,2.6
		c-1.2,0-2.2-0.1-2.9-0.4c1.5-3.1,3.3-6.2,5.3-9.2c2-3,4.1-5.6,6.3-7.9c2.2-2.3,4.3-4.1,6.5-5.4c2.2-1.3,4.2-2,6-2
		c0.3,0,0.6,0,0.9,0.1c0.3,0,0.6,0.1,0.9,0.1C720.5,212.1,719.8,214.7,718.8,217.5z M691.3,218.4c0.1-0.2,0.2-0.4,0.4-0.7
		c0.4-0.5,0.8-1.1,1.3-1.9c0.5-0.8,1.1-1.6,1.9-2.4c0.8-0.9,1.6-1.8,2.4-2.7c0.8-1,1.8-1.9,2.8-2.9c0.6-0.5,1.1-1,1.7-1.4
		s1.1-1,1.7-1.4c0.7-0.5,1.3-0.9,1.9-1.3s1.2-0.8,2-1.2c1.3-0.8,2.7-1.3,4-1.7c0.8-0.3,1.5-0.5,2.2-0.6c0.7-0.1,1.4-0.2,2.1-0.3
		c1.3-0.1,2.7,0,4.2,0.3c0.2,0.1,0.3,0.1,0.4,0.1c0.1,0,0.2,0.1,0.4,0.1c0.6,0.2,0.9,0.3,1,0.3c0.4,0.2,0.6,0.3,0.7,0.4
		c0.4,0.2,0.7,0.3,0.9,0.3c0.5,0.3,0.9,0.6,1.3,0.9c0.4,0.3,0.8,0.6,1.3,0.8c0.3,0.4,0.6,0.7,0.9,0.9c0.3,0.2,0.6,0.5,0.8,0.6
		c0.3,0.4,0.6,0.8,1,1.2c0.1,0.2,0.2,0.3,0.3,0.4c-0.1,0-0.2-0.1-0.4-0.3c-0.2-0.1-0.4-0.2-0.5-0.4s-0.3-0.4-0.5-0.6
		c-0.3-0.2-0.6-0.4-0.9-0.7c-0.3-0.3-0.6-0.5-1-0.7c-0.9-0.7-1.7-1.2-2.6-1.6c-0.3,0-0.5-0.1-0.7-0.3c-0.2-0.1-0.3-0.1-0.4-0.1
		c-0.1,0-0.2-0.1-0.4-0.1c-0.2-0.1-0.3-0.1-0.4-0.1s-0.2,0-0.4-0.1c-0.2,0-0.3,0-0.4-0.1c-0.1,0-0.2-0.1-0.4-0.1
		c-0.7-0.2-1.3-0.3-1.9-0.3c-0.6,0-1.3,0-1.9,0c-1.5,0.2-2.9,0.5-4,1c-1.3,0.4-2.7,1-4,1.7c-0.6,0.4-1.2,0.7-1.8,1.1
		c-0.6,0.3-1.2,0.7-1.8,1.2s-1.2,0.9-1.7,1.4s-1.1,0.9-1.6,1.4c-0.5,0.5-1,0.9-1.4,1.4c-0.5,0.4-1,0.9-1.4,1.4
		c-0.5,0.5-0.9,0.9-1.3,1.3c-0.4,0.4-0.8,0.8-1.2,1.3c-0.8,0.8-1.4,1.5-2,2.2c-0.6,0.7-1.1,1.3-1.6,1.8
		C691.7,218.1,691.5,218.4,691.3,218.4c-0.1,0.2-0.2,0.4-0.3,0.6C691.1,218.8,691.2,218.6,691.3,218.4z M687.7,225
		c0.3-0.4,0.6-0.8,0.8-1.2c0.2-0.4,0.5-0.8,0.8-1.2s0.6-0.7,0.8-1.1c0.2-0.3,0.5-0.6,0.8-0.9c0.2-0.4,0.4-0.7,0.7-1
		c0.3-0.3,0.5-0.6,0.7-0.9c0.5-0.5,0.9-0.9,1.3-1.4c0.4-0.4,0.7-0.8,1-1.1c-0.2,0.4-0.5,0.8-0.9,1.2c-0.4,0.4-0.8,0.9-1.3,1.5
		l-1.3,1.7c-0.2,0.4-0.4,0.7-0.7,1.1c-0.3,0.3-0.5,0.7-0.7,1.1c-0.3,0.4-0.6,0.8-0.8,1.1c-0.2,0.4-0.5,0.8-0.8,1.2
		c-0.2,0.4-0.4,0.8-0.6,1.2c-0.2,0.4-0.5,0.8-0.6,1.3c-0.1,0.3-0.2,0.5-0.4,0.7c-0.2-0.1-0.3-0.2-0.5-0.2c0,0,0,0-0.1,0
		c0.1-0.3,0.2-0.5,0.4-0.8C686.8,226.6,687.3,225.8,687.7,225z M673.2,257.9c-0.6,0.8-1.1,1.3-1.6,1.6c0.3-0.4,0.7-1,1.3-1.7
		c0.3-0.4,0.6-0.8,0.9-1.2s0.6-0.8,0.9-1.3c0.4-0.5,0.7-1,1-1.4c0.3-0.5,0.6-1,1-1.4c0.4-0.5,0.7-1,1-1.4s0.6-1,0.9-1.4
		c0.1-0.1,0.1-0.2,0.2-0.3c0,0.3,0,0.6,0,0.9c-0.2,0.4-0.5,0.8-0.7,1.1c-0.3,0.5-0.6,1-1,1.4c-0.4,0.5-0.7,1-1,1.4
		c-0.3,0.5-0.6,1-1,1.4c-0.4,0.5-0.7,0.9-1.1,1.3C673.7,257.3,673.4,257.6,673.2,257.9z M677.8,254.1c-0.3,0.5-0.6,1-0.9,1.4
		c-0.3,0.5-0.6,0.9-0.9,1.2c-0.3,0.3-0.5,0.6-0.7,0.9c-0.2,0.2-0.3,0.3-0.4,0.3c0,0-0.1,0.1-0.2,0.1c0.2-0.2,0.3-0.4,0.4-0.6
		c0.2-0.2,0.4-0.5,0.6-0.8c0.2-0.3,0.5-0.7,0.8-1.2c0.3-0.5,0.6-1,0.9-1.4s0.6-1,0.9-1.6l0.5-0.9c0,0.3,0.1,0.5,0.1,0.8l-0.2,0.4
		C678.5,253.2,678.2,253.7,677.8,254.1z M718.9,264.8c-0.4,0.3-0.8,0.6-1.3,0.9c-0.5,0.4-1,0.7-1.7,1c-0.6,0.3-1.3,0.6-1.9,1
		l-2.2,0.9c-0.4,0.2-0.7,0.3-1.1,0.4c-0.3,0-0.7,0.2-1.1,0.4c-0.5,0.2-0.9,0.3-1.2,0.4c-0.3,0.1-0.7,0.1-1.1,0.2
		c-0.5,0.1-0.9,0.2-1.2,0.2c-0.3,0-0.7,0.1-1.1,0.2c-1,0.2-1.7,0.3-2.2,0.3c-0.5,0.1-1.1,0.1-1.9,0.1c-0.4,0.1-0.9,0.1-1.6,0.1h-1.3
		h-0.9c0.1,0,0.2,0,0.4-0.1s0.3-0.1,0.5-0.1c0.5,0,0.9-0.1,1.3-0.1c0.7,0,1.2,0,1.6-0.1c0.3,0,0.6,0,0.9-0.1c0.3,0,0.6-0.1,1-0.1
		c0.4-0.1,1.1-0.2,2-0.4c0.4-0.1,0.8-0.2,1.2-0.2c0.4,0,0.8-0.1,1.2-0.2c0.4-0.2,0.7-0.3,1.1-0.4c0.3,0,0.7-0.2,1.1-0.4
		c0.5-0.1,0.9-0.2,1.2-0.3c0.3-0.1,0.7-0.2,1.1-0.4c0.4-0.2,0.7-0.3,1.1-0.4c0.3-0.1,0.7-0.2,1.1-0.4c0.7-0.2,1.3-0.5,1.9-0.8
		c0.6-0.3,1.2-0.6,1.7-0.8C718,265.2,718.4,265,718.9,264.8c0.4-0.3,0.7-0.5,1-0.7C719.7,264.3,719.3,264.5,718.9,264.8z"/>
	<path class="st1" d="M344.9,242c-0.8-1-1.6-1.6-2.4-2c-0.8-0.4-1.4-0.3-1.8,0.1c-1.9,2.9-4.2,6.3-6.9,10.1c-0.9,1.3-2,2.5-2.9,3.8
		c-2,2.4-4.2,4.3-6.5,6.1c-3.3,2.5-6.8,3.8-10.5,3.8c-0.7,0-0.6-1.2,0.1-3.6c0.7-2.4,1.8-5.4,3.2-9.1c1.4-3.6,3.1-7.6,4.9-12
		s3.6-8.4,5.2-12.2c1.6-3.8,3-7.1,4.1-9.8c1.1-2.7,1.7-4.3,1.7-4.7c0-1.1-0.4-2.3-1.2-3.8c-0.8-1.5-1.7-2.9-2.7-4.2
		c-1.1-1.3-2.1-2.3-3.2-3c-1.1-0.7-1.9-0.7-2.5,0c-0.2,0.3-0.9,1.7-2.2,4.2c-1.2,2.5-2.7,5.7-4.4,9.6c-1.7,3.8-3.5,8.1-5.4,12.8
		c-1.9,4.7-3.7,9.3-5.4,13.8c-1.7,4.5-3,8.7-4.1,12.5c-1.1,3.8-1.6,6.8-1.6,8.9c0,1.9,0.7,3.7,2,5.4c1.3,1.7,2.9,3.2,4.7,4.5
		c1.8,1.3,3.6,2.4,5.3,3.2c1.8,0.8,3.1,1.2,4.1,1.2c3.1,0,6.1-0.9,9.2-2.6c3.1-1.7,6-3.9,8.9-6.6c1.2-1.2,2.4-2.3,3.6-3.6
		c0.6-0.8,1.3-1.5,1.9-2.3c2.2-2.8,3.9-5.4,5.3-7.7c1.3-2.3,2.1-4,2.2-5.1c0.2-1.6,0-3.1-0.5-4.6C346.4,244.2,345.7,243,344.9,242z
		 M310.9,240.6c-0.2,0.5-0.4,1-0.5,1.4c-0.1,0.5-0.3,1.1-0.5,1.7c-0.2,0.7-0.4,1.4-0.7,2.1c-0.3,0.7-0.6,1.5-0.9,2.4
		c-0.3,0.8-0.6,1.6-0.9,2.4c-0.3,0.9-0.5,1.7-0.7,2.6l-1.7,5.2c-0.2,0.8-0.4,1.5-0.6,2.3c-0.2,0.8-0.4,1.5-0.6,2.2
		c-0.3,1.3-0.4,2.4-0.4,3.3c0,0.2,0,0.4,0,0.5c-0.1-0.2-0.2-0.3-0.2-0.5c0-0.5,0-1,0-1.5s0.1-1.1,0.3-1.8c0.1-0.8,0.2-1.5,0.4-2.3
		c0.2-0.8,0.4-1.5,0.6-2.3c0.2-0.9,0.4-1.7,0.7-2.6c0.3-0.9,0.6-1.7,0.9-2.6l1.7-5.2c0.6-1.5,1.2-3,1.7-4.3c0.2-0.7,0.4-1.3,0.6-1.8
		c0.2-0.5,0.5-1,0.6-1.4c0.2-0.4,0.3-0.8,0.4-1.2C311.2,239.8,311,240.2,310.9,240.6z M311.4,234.7c-0.7,1.7-1.3,3.4-1.9,5
		c-0.4,0.8-0.7,1.5-1,2.3c-0.3,0.8-0.6,1.5-0.9,2.3c-0.2,0.8-0.4,1.5-0.7,2.2c-0.3,0.7-0.5,1.4-0.7,2.1c-0.5,1.3-0.9,2.5-1.3,3.6
		c-0.4,1.1-0.7,2-1,2.7c-0.4,1-0.7,1.8-0.9,2.4c0-0.1,0.1-0.3,0.1-0.6c0.1-0.2,0.1-0.4,0.1-0.7s0.1-0.7,0.3-1.2
		c0.2-0.8,0.5-1.7,0.8-2.8c0.3-1.1,0.7-2.3,1.1-3.7c0.9-2.8,1.9-5.9,3.1-9.2c1.2-3.4,2.5-6.8,4-10.2c1.3-3.5,2.5-6.2,3.4-8.3
		c0.9-2.1,1.9-4.4,3.1-7c0.6-1.2,1.1-2.4,1.5-3.5c0.4-1.1,0.8-2,1.2-2.7l1.2-2.3h0.1c-0.1,0.2-0.2,0.4-0.3,0.7
		c-0.1,0.2-0.2,0.4-0.3,0.7c-0.1,0.3-0.2,0.6-0.4,1c-0.3,0.8-0.6,1.7-1,2.7c-0.4,1.1-0.9,2.3-1.4,3.6c-0.3,0.7-0.5,1.2-0.6,1.5
		s-0.2,0.6-0.3,0.9c-0.1,0.3-0.2,0.6-0.4,1c-0.1,0.4-0.4,1-0.8,1.7c-0.7,1.6-1.3,3.3-2,5c-0.7,1.7-1.3,3.5-2,5.2
		C312.8,231.2,312.1,233,311.4,234.7z M329.4,261.9c-0.6,0.7-1.2,1.2-1.7,1.5c0.3-0.4,0.8-0.9,1.4-1.7c0.3-0.4,0.6-0.7,1-1.1
		c0.4-0.4,0.7-0.8,1-1.2c0.4-0.5,0.8-0.9,1.1-1.4c0.3-0.5,0.7-0.9,1.1-1.4c0.4-0.5,0.8-0.9,1.1-1.4c0.3-0.5,0.6-0.9,0.9-1.4
		c0.6-0.9,1.2-1.8,1.9-2.5c0.2-0.4,0.4-0.7,0.6-1c0.2-0.3,0.4-0.6,0.6-0.8c0.2-0.3,0.4-0.5,0.5-0.7c-0.1,0.2-0.2,0.4-0.3,0.7
		c-0.2,0.2-0.4,0.5-0.5,0.8c-0.2,0.4-0.4,0.8-0.6,1.1c-0.2,0.4-0.5,0.8-0.8,1.3c-0.3,0.5-0.6,0.9-0.9,1.4c-0.3,0.5-0.6,0.9-0.9,1.4
		c-0.3,0.5-0.7,0.9-1.1,1.4c-0.4,0.5-0.8,0.9-1.1,1.4c-0.3,0.5-0.7,0.9-1.1,1.4c-0.4,0.5-0.8,0.9-1.1,1.2
		C330,261.3,329.7,261.6,329.4,261.9z M342.3,245.7c-0.2,0.4-0.4,0.8-0.6,1.3c-0.2,0.5-0.5,1-0.8,1.5c-0.3,0.6-0.6,1.1-1,1.7
		c-0.3,0.6-0.7,1.1-1,1.7c-0.4,0.6-0.8,1.2-1.2,1.8l-2.3,3.3c-0.4,0.5-0.8,0.9-1.2,1.4c-0.4,0.5-0.7,0.9-1,1.4
		c-0.3,0.5-0.6,0.8-0.9,1.1c-0.3,0.3-0.6,0.5-0.8,0.8c-0.2,0.2-0.3,0.3-0.4,0.3c0,0-0.1,0-0.2,0.1c0.2-0.2,0.4-0.4,0.5-0.6
		c0.2-0.2,0.4-0.4,0.7-0.8c0.3-0.3,0.5-0.7,0.9-1.2c0.3-0.5,0.7-0.9,1-1.4c0.4-0.5,0.7-1,1-1.5l2.3-3.3c0.4-0.7,0.8-1.3,1.2-1.8
		c0.4-0.6,0.7-1.1,1-1.7c0.3-0.6,0.7-1.1,1-1.6c0.4-0.5,0.7-1,0.9-1.5c0.2-0.5,0.5-0.9,0.7-1.2c0.3-0.3,0.5-0.6,0.7-0.9
		C342.6,245,342.5,245.4,342.3,245.7z"/>
</g>
</svg>
