<svg id="Calque_1" data-name="Calque 1" xmlns="http://www.w3.org/2000/svg" viewBox="0 0 128 87"><defs><style>.cls-1{fill:none;}</style></defs><title>logo-kodokojo</title><g id="Calque_2" data-name="Calque 2"><rect class="cls-1" width="128" height="87"/></g><g id="_Groupe_" data-name="&lt;Groupe&gt;"><g id="_Groupe_2" data-name="&lt;Groupe&gt;"><path id="_Tracé_" data-name="&lt;Tracé&gt;" d="M50.15,48.43c.08.14.08.22-.14.22h-.74c-.08,0-.14,0-.22-.14L47,45.93c-.89-1.11-1.69-2.21-3.24-2.21h-.52v4.71c0,.14-.08.14-.14.14h-.59c-.14,0-.14-.08-.14-.14V33.32c0-.14.08-.14.14-.14h.59c.14,0,.14.08.14.14v9.58h.52c1.25,0,2.36-1.25,3.24-2.28l2-2.36c.08-.08.14-.14.22-.14h.74c.14,0,.22.14.14.22L47.81,41a6.76,6.76,0,0,1-2.36,2.14c-.14.08-.14.14,0,.22A6.74,6.74,0,0,1,48,45.57Z"/><path id="_Tracé_transparent_" data-name="&lt;Tracé transparent&gt;" d="M59.82,43.43c0,3.39-1.77,5.52-4.71,5.52s-4.71-2.14-4.71-5.52,1.77-5.52,4.71-5.52S59.82,40,59.82,43.43Zm-8.41,0c0,2.88,1.41,4.57,3.76,4.57s3.76-1.69,3.76-4.57-1.41-4.57-3.76-4.57S51.4,40.55,51.4,43.43Z"/><path id="_Tracé_transparent_2" data-name="&lt;Tracé transparent&gt;" d="M70,48.51c0,.14-.08.14-.14.14h-.52c-.14,0-.14-.08-.14-.14V47c0-.22-.14-.22-.3,0a4.2,4.2,0,0,1-3.54,2c-2.8,0-4.43-2.14-4.43-5.52S62.6,38,65.56,37.9a6.16,6.16,0,0,1,2.8.59l.66.37V33.32c0-.14.08-.14.14-.14h.59c.14,0,.14.08.14.14V48.51H70ZM68.07,39.3a5.29,5.29,0,0,0-2.5-.52c-2.36,0-3.76,1.69-3.76,4.57s1.33,4.57,3.54,4.57c2.5,0,3.69-2.14,3.69-5V39.74Z"/><path id="_Tracé_transparent_3" data-name="&lt;Tracé transparent&gt;" d="M81.11,43.43c0,3.39-1.77,5.52-4.71,5.52s-4.71-2.14-4.71-5.52,1.77-5.52,4.71-5.52S81.11,40,81.11,43.43Zm-8.48,0C72.63,46.3,74,48,76.39,48s3.76-1.69,3.76-4.57-1.41-4.57-3.76-4.57S72.63,40.55,72.63,43.43Z"/><path id="_Tracé_2" data-name="&lt;Tracé&gt;" d="M92.69,48.36c.14.22,0,.37-.22.37H89.3a.4.4,0,0,1-.37-.22l-1.18-2.36c-.44-.81-.89-1.41-1.91-1.41h-.14v3.69a.32.32,0,0,1-.3.3H82.45a.32.32,0,0,1-.3-.3V32.81a.32.32,0,0,1,.3-.3h2.94a.32.32,0,0,1,.3.3v8.78h.22c1,0,1.33-.74,1.77-1.55l1.11-2.14a.34.34,0,0,1,.37-.22h3.17c.22,0,.3.14.22.37l-1.77,3.46A3.09,3.09,0,0,1,89.14,43c-.08,0-.08.14,0,.14a3.83,3.83,0,0,1,1.77,1.47Z"/><path id="_Tracé_transparent_4" data-name="&lt;Tracé transparent&gt;" d="M102.93,43.2c0,3.46-2.06,5.68-5.38,5.68s-5.38-2.21-5.38-5.68,2.06-5.68,5.38-5.68S102.93,39.74,102.93,43.2Zm-7.37,0c0,1.63.74,2.58,2,2.58s1.91-1,1.91-2.58-.74-2.58-1.91-2.58S95.56,41.65,95.56,43.2Z"/><path id="_Tracé_transparent_5" data-name="&lt;Tracé transparent&gt;" d="M107.87,48.28c0,2.21-1,3.76-3.32,5.09l-.52.3c-.14.14-.3.08-.37-.14l-1.25-2.36c-.08-.14-.08-.3.14-.37l.37-.22a2.53,2.53,0,0,0,1.47-2.28V40.86h-1.18a.32.32,0,0,1-.3-.3V38a.32.32,0,0,1,.3-.3h4.36a.32.32,0,0,1,.3.3V48.28Zm0-13.93a2,2,0,1,1-4,0,1.83,1.83,0,0,1,2-2A1.8,1.8,0,0,1,107.87,34.35Z"/><path id="_Tracé_transparent_6" data-name="&lt;Tracé transparent&gt;" d="M119.37,43.2c0,3.46-2.06,5.68-5.38,5.68s-5.38-2.21-5.38-5.68,2.06-5.68,5.38-5.68S119.37,39.74,119.37,43.2Zm-7.37,0c0,1.63.74,2.58,2,2.58s1.91-1,1.91-2.58-.74-2.58-1.91-2.58S112,41.65,112,43.2Z"/></g><g id="_Groupe_3" data-name="&lt;Groupe&gt;"><path id="_Tracé_transparent_7" data-name="&lt;Tracé transparent&gt;" d="M31.06,55.69a5.86,5.86,0,0,1-1.25-1,4.22,4.22,0,0,1-1.63-1.41,3.53,3.53,0,0,1-.81-1H27.3v.08l-.22-.22c0-.14.22-.08-.14-.22.08.08.14.08.14.14-.14-.59-1.77-1.18-1.91-2-.59-.74-1.33-1.41-2-2.14-.3-.37-.74-1.11-1.18-1.33-.08,0-.14-.3-.22-.3.08,0-.52.22-.44.37l-.22.22c0,.08.08.14.08.22V47c.08,0,0,.14,0,.14v.14H21.1s-.14.3-.08.3a.24.24,0,0,1-.22-.22c0,.08-.08.08-.14.08V48l.08-.08c-.08,0-.08-.08,0-.14a1.73,1.73,0,0,1,.3.44.08.08,0,0,0-.08.08c.08,0,.22,0,.14.08.14-.08.08.59-.3.44v-.08a.08.08,0,0,0-.08.08l-.08-.08v-.08c-.08.14-.3.74-.08.89,0,.08-.08.08-.14,0,.08.14-.08.3-.08.44.08-.08.08.08.08.08s.08-.14.14,0c-.14.14.22.44-.14.44,0,.08,0,.14.08.14v.07h.08c0,.08,0,.14-.08.14v-.14c0,.08-.08.08-.08.14h.08c.14.3-.22.44-.14.59h.08c0,.37-.3.74-.3,1a.08.08,0,0,0-.08-.08v.14a.55.55,0,0,0-.14.37s-.08-.08-.08,0l-.3.59a.26.26,0,0,1-.08-.22c0,.08-.08.14,0,.3-.08,0-.08-.08-.08-.14s-.14.08-.08.22h.22a5.46,5.46,0,0,0-.37,1c-.14.08-.22.44-.37.59a6.33,6.33,0,0,0-.37.59c-.08.37-.14.08.14.22a1.73,1.73,0,0,0-.3.44H18.2a.7.7,0,0,1-.3.37V57c0,.08-.08.08-.14.08a14.89,14.89,0,0,0,13.64-1.18.74.74,0,0,1-.33-.18C30.7,55.54,31.14,55.77,31.06,55.69ZM21,47.81V48c-.08,0-.14-.3-.14-.3.22-.14-.14,0-.08,0-.14,0,.08-.3.14-.3v.22H21c-.07.08-.07.08,0,.15Zm-.29,1.62h0c-.08,0-.08-.14-.08-.22A.27.27,0,0,1,20.75,49.42Zm.14.3v.22c-.14,0-.14-.08,0-.22l-.08-.08C20.89,49.58,20.89,49.58,20.89,49.72Zm.08-.59h0c0,.22-.22.52-.22.14l.08.08s.14-.3.08-.37H21C21.11,49.06,21,49.14,21,49.14Zm.37-2.29h0l.14-.08v.14l-.14-.07Zm-.14,1.33h0c-.08,0-.08-.08,0-.08v.08Zm0-.66h0c.08,0,.08.08.08.14h-.08v-.14Zm.22.52c-.08-.08-.14,0-.14-.08l.14-.14c.08,0,0,.14,0,.14s0,0,0,.08Zm0-.44c-.08.3-.08-.66,0-.3h.08a.6.6,0,0,1-.08.3C21.41,47.66,21.48,47.51,21.41,47.59Z"/><path id="_Tracé_3" data-name="&lt;Tracé&gt;" d="M22.74,42.79H22.6l-.08-.08h0c0,.08.08.08.14.08s0,.08.08.08h0a.08.08,0,0,0,.08.08l.08-.08-.08-.08c-.08.08-.08.08-.08,0Z"/><path id="_Tracé_4" data-name="&lt;Tracé&gt;" d="M22.22,45.74c-.08,0,0,.08,0,.08s.08-.08,0-.08S22.3,45.74,22.22,45.74Z"/><path id="_Tracé_5" data-name="&lt;Tracé&gt;" d="M22.3,46.11h0l.08-.14v-.08A.25.25,0,0,0,22.3,46.11Z"/><path id="_Tracé_6" data-name="&lt;Tracé&gt;" d="M22.88,42.79h0l.08-.08h-.08v.08c-.08,0-.08.08,0,.08Z"/><path id="_Tracé_7" data-name="&lt;Tracé&gt;" d="M22.74,46.4h0v.08h.14v.08h0v.08a.23.23,0,0,0-.08-.14h.08c-.08,0-.08.08-.08.14h0c.08,0,.14,0,.14.08v-.23a.08.08,0,0,1-.08-.08v-.08h-.15c.09.08.09.08,0,.08Z"/><path id="_Tracé_8" data-name="&lt;Tracé&gt;" d="M24.07,48.47h0v.14h0v.08l-.08.08a.08.08,0,0,1,.08-.08l.08.08c.14.14,0,.14.08.08s.08,0,.08.08a.48.48,0,0,0-.23-.45Z"/><path id="_Tracé_9" data-name="&lt;Tracé&gt;" d="M24.8,49.36c-.08-.14-.14-.22-.22-.37-.07.07.22.43.22.37v.14c.08,0,.08.08.14.08s0,.08.08.14h0c0,.08.08-.08.14,0s0-.22.08-.22h0a1.33,1.33,0,0,0,.14.3c0-.14-.3-.3-.37-.37s-.08-.14-.14-.14a.08.08,0,0,0-.08.07Z"/><path id="_Tracé_10" data-name="&lt;Tracé&gt;" d="M18.31,46.26h0c.08,0,.08-.14.14-.14l.08-.08h.14A.26.26,0,0,0,18.9,46h0c-.08.08-.14.22-.22.22s-.14.14-.22.14h-.08c-.08,0-.08-.22-.08-.22s-.08-.14-.14-.08h0v.08h0v.07c.07-.06.07.09.14.09Z"/><path id="_Tracé_11" data-name="&lt;Tracé&gt;" d="M17.95,41.39c.07,0,.07.08,0,0h.22l.08-.08H18a.08.08,0,0,0-.07.08Z"/><path id="_Tracé_12" data-name="&lt;Tracé&gt;" d="M25.46,50.24v.08l.08.08v-.08h.14a.08.08,0,0,0-.08-.08h0a.27.27,0,0,1-.08-.14h0v.08l-.08-.08h-.08c0,.07,0,.14.09.14S25.38,50.24,25.46,50.24Z"/><path id="_Tracé_13" data-name="&lt;Tracé&gt;" d="M19.94,42.57h0l.08.08c0,.08.08.08.14.08v-.14h-.08l-.08.08c-.08,0-.08-.08-.08-.14a.08.08,0,0,0-.08-.08.08.08,0,0,1-.08-.08h0a.26.26,0,0,1-.08.22Z"/><path id="_Tracé_14" data-name="&lt;Tracé&gt;" d="M20.08,42.21h0l.08.08h.08v-.08a.15.15,0,0,1-.14-.14s0,.07,0,.14Z"/><path id="_Tracé_15" data-name="&lt;Tracé&gt;" d="M23.47,40.07c0-.08,0-.08-.08-.14l-.08.08v.08h.15c-.07,0-.07,0,0,0a.08.08,0,0,0-.08.08h.08Z"/><path id="_Tracé_16" data-name="&lt;Tracé&gt;" d="M23.77,39h0a.08.08,0,0,0,.08.08h0L23.77,39c.08,0,0-.07,0,0Z"/><path id="_Tracé_17" data-name="&lt;Tracé&gt;" d="M23.91,38.3h0c-.08,0-.08.08-.14.08l.08.08a.26.26,0,0,0,.08.22.08.08,0,0,0,0-.15c.07-.08.07-.08,0-.22Z"/><path id="_Tracé_18" data-name="&lt;Tracé&gt;" d="M23,42.05,23.1,42V41.9h0V42h-.15c.08,0,.08,0,.08.08S23,42,23,42.05Z"/><path id="_Tracé_19" data-name="&lt;Tracé&gt;" d="M23.25,35.57h0c.08,0,.08.08.14.08v.22h.22V35.8h-.15v-.08c-.06-.08-.13-.15-.21-.15Z"/><path id="_Tracé_20" data-name="&lt;Tracé&gt;" d="M23.69,39.47h0a.08.08,0,0,0-.08.08h.15a.08.08,0,0,0,.08-.08Z"/><path id="_Tracé_21" data-name="&lt;Tracé&gt;" d="M23.55,33.51c.08,0,.08,0,.14.08v-.08h0c0-.08-.08-.08-.08-.14h0s0,0-.07.14a.08.08,0,0,1,.08-.08l-.08.08C23.62,33.51,23.62,33.43,23.55,33.51Z"/><path id="_Tracé_22" data-name="&lt;Tracé&gt;" d="M24.07,37.19h0l-.08.08h.08v-.08Z"/><path id="_Tracé_23" data-name="&lt;Tracé&gt;" d="M32.83,54.66h0l.08-.14c-.08.08-.08.08-.08.14Z"/><path id="_Tracé_24" data-name="&lt;Tracé&gt;" d="M32.61,54.66h.08c0-.08-.08-.08-.08-.14h-.08v-.08c-.08,0-.08,0-.08.08v.08h0l.08-.08c0,.08,0,.08.08.14Z"/><path id="_Tracé_25" data-name="&lt;Tracé&gt;" d="M33.35,54.37h0c0-.08,0-.08-.08-.08h0l.08.08Z"/><path id="_Tracé_26" data-name="&lt;Tracé&gt;" d="M33.13,54.37c-.08-.08-.08-.08-.08,0v.08c0,.08,0,.08.08.14l.08-.08h-.08c-.08-.08-.08-.08,0-.14Z"/><path id="_Tracé_27" data-name="&lt;Tracé&gt;" d="M25.83,50.46a.08.08,0,0,0-.08.08l.08-.08v.14h.08l-.08.08h-.08a.08.08,0,0,0,.08.08l.08.08V50.7c0-.17,0-.23-.08-.23Z"/><path id="_Tracé_transparent_8" data-name="&lt;Tracé transparent&gt;" d="M20.08,43.09s-.22-.14-.22-.08a.26.26,0,0,1-.08-.22.08.08,0,0,0-.08-.08c-.08-.08-.08-.08-.08-.14a.15.15,0,0,0-.14.14v-.08c-.08.22-.08-.08-.08-.08v-.08c-.14-.14,0,.08-.08.3.08.08,0,.14-.08.14h0c.08,0-.08-.14-.08-.14s0,.22-.08.22-.14-.3-.22-.3-.22-.08-.22-.14h-.3c0-.22-.08,0-.14,0,.08-.37-.52.14-.37.22v0h-.08c.3.22-.22.14-.22.37v.14c0,.14-.08.22-.14.22a.27.27,0,0,1,.08.14c0,.08-.08.08-.08.14V44l.08.08a.08.08,0,0,1-.08.08.08.08,0,0,0,.08.08.23.23,0,0,0-.08.14h.08l-.08.08c-.14.08,0,.3,0,.44.44,0,.14.08.22.08s.22,0,.3.08c.14-.08.14.08.3.08s.08.08.14.08.22-.08.3-.08a2.73,2.73,0,0,1,.44-.22h0c-.08,0,0-.08,0,0h.22a.26.26,0,0,1,.22-.08c.08-.08.14-.08.22-.14h0c.08,0,.08-.08.08-.14.08-.22-.14-.37,0-.59.08,0-.08-.08-.08-.08s-.08-.14-.14-.22h.08c.08,0,.08,0,.08-.08a.08.08,0,0,0-.08-.08c0-.14.08,0,.14,0l.08.08v-.08h-.08v-.08h0v-.08h.08c0-.08,0-.08-.08-.14a.08.08,0,0,1-.08.08l-.14-.22h-.08V43h.08c.08-.08.14,0,.14.08h.08a.26.26,0,0,1,.08.22l.08.08h.08V43.3c0-.08.22-.08.22,0s.22-.14.14-.14A.71.71,0,0,0,20.08,43.09ZM18,42.72Zm1.63.52a.13.13,0,0,1,0,.22.08.08,0,0,0-.08-.08c.15,0,.15-.07.08-.14,0,.08-.08.08-.08.14s-.08-.14-.14-.22c.14-.07.22,0,.22.08S19.64,43.16,19.64,43.24Z"/><path id="_Tracé_28" data-name="&lt;Tracé&gt;" d="M28.63,29.89V30a2.74,2.74,0,0,0-.59,1,3.31,3.31,0,0,0-.22.66,1.91,1.91,0,0,1-.14.89c.14.22.08,1.91,1,1.41,1.47-.89,1.33-1.69,1.63-3.24.08-.14,0-.3-.08-.44-.44-.22-1-.44-1.47-.66A1,1,0,0,1,28.63,29.89Z"/><path id="_Tracé_29" data-name="&lt;Tracé&gt;" d="M29.15,34.84s-.52.3-.59.08.52-.14.52-.14S29.22,34.84,29.15,34.84Z"/><path id="_Tracé_30" data-name="&lt;Tracé&gt;" d="M31.14,32.92c.08-.08.14,0,.08.14s-.08-.08-.08-.14S31.14,33,31.14,32.92Z"/><path id="_Tracé_31" data-name="&lt;Tracé&gt;" d="M18.31,35.64c.08-.08.14,0,.08.14s-.15-.07-.08-.14Z"/><path id="_Tracé_32" data-name="&lt;Tracé&gt;" d="M15.51,37.19s-.66.14-.66-.08.59,0,.59,0C15.59,37.12,15.59,37.12,15.51,37.19Z"/><path id="_Tracé_33" data-name="&lt;Tracé&gt;" d="M17.21,30.85h.14a.26.26,0,0,1,.22.08.65.65,0,0,1,.22.44c-.08,0-.14-.08-.22-.08a.8.8,0,0,0-.52-.22A.08.08,0,0,1,17,31c.17-.14.23-.14.23-.14Z"/><path id="_Tracé_34" data-name="&lt;Tracé&gt;" d="M14.48,35c0-.22.22-.52.14-.66a1.91,1.91,0,0,0,.37-.89c.08-.3.3-.52.37-.74s.59-.89,1-1c.08-.14.44-.74.66-.59.08,0,.14.08.14,0,.37-.22.81.44.81.74,0,.14.08,1-.08,1.11-.3.59-.3,1.18-.66,1.77a3.45,3.45,0,0,1-2,1.33C14.7,36.17,14.41,35.28,14.48,35Z"/><path id="_Tracé_transparent_9" data-name="&lt;Tracé transparent&gt;" d="M31.8,31.66l-.08.08c.08.08-.08.22-.08.3s-.22.59-.22.74c0,0-.08.59-.3.3.14.22-.66,1-.66,1s.22-.22.14-.22-.22.22-.3.22v.14c.37-.14-.37.44-.3.37h-.08a.27.27,0,0,0-.08.14l-.08.08h-.14c-.22.52-1,.37-1.41.3-.08,0-.14-.08-.22-.08-.52-.22-.74-.74-1.18-1-.08,0-.08-.08-.14-.08a3.48,3.48,0,0,1-.22-2.72,6.92,6.92,0,0,1,.81-2,15.3,15.3,0,0,0-9.58.66.58.58,0,0,1,.37.14,1.15,1.15,0,0,1,.44.14,3,3,0,0,1,1,2.43,13.47,13.47,0,0,1-.14,1.84l-.08.08c.08.08-.14.22-.14.3s-.44.59-.44.81c0,0-.3.59-.37.3.08.3-1,.89-1,1,0-.08.3-.22.22-.3l-.37.14A.26.26,0,0,0,17,37c.44-.08-.59.3-.44.3h-.14a.27.27,0,0,1-.14.08.21.21,0,0,0-.14.08.23.23,0,0,1-.14-.08c-.37.52-1.25.14-1.63-.08-.08-.08-.14-.14-.22-.14-.52-.37-.59-1-1-1.41,0-.22,0-.3-.08-.37a3.74,3.74,0,0,1,.52-2.94A14.89,14.89,0,0,0,8.88,46.26a4.15,4.15,0,0,1,.44-1.63,7.75,7.75,0,0,1,2.06-3c.89-.74,1.11-.14,1.91.22a1.15,1.15,0,0,1,.44.14A3.38,3.38,0,0,1,15,44.26c0,.22.14,1.77.08,1.77L15,46.1c.08.08-.08.22-.14.3s-.3.52-.3.74c0,0-.22.59-.37.3.14.3-.89,1-.89,1s.3-.3.22-.3l-.3.22c-.08.08,0,.14,0,.22.44-.14-.52.37-.44.37h-.14a.27.27,0,0,0-.08.14.21.21,0,0,0-.14.08h-.14c-.3.52-1.18.3-1.55.08-.08,0-.14-.08-.22-.14-.52-.3-.74-.89-1.11-1.25a14.79,14.79,0,0,0,6.34,8.26c1.18-1,1.55-2.94,1.91-4.35.22-.89.37-1.84.66-2.72.3-1.18.44-1.55-1-1.55.14,0,.3-.08.44-.08-.08-.3-1-.22-.81-.66s1-.3,1.25-.37c-.3-.08-.74-.44-.74-.66s-.52-.59-.52-.81a2.17,2.17,0,0,1-.3-1.18h.08c-.44-.37.37-2.14.66-2.28v.08l1-.59c.08.14.14.08.14.08s.14-.08.14,0V41c.3-.08.22.3.44.3-.22.22.14,1.11.44.59v-.22c0,.22.81.3.81.3a.63.63,0,0,1,.08-.37,56.88,56.88,0,0,0,.74-6.19c.08-.37,0-1,.08-1.25s.3-.22.3-.37.14-1.25.14-1.25h.08c0,.08.59-.37.44-.37a.13.13,0,0,0,.22,0c.14-.08,1.41-.22,1.25.14l.08-.08a.08.08,0,0,1,.08.08l-.08.08h-.14c0,.22.22.08.22.22s.37.08.14.22h.08a.08.08,0,0,0,.08.08c-.08,0-.08.08-.14.14s.22.08.3.14v.08c.08.08.22.14.3.22s-.08.14-.08.22h.08c0,.08.08.14.14.08s-.3-.14,0-.22v.14c.22,0,.08.52.08.59s-.08,0-.14-.08a.08.08,0,0,1-.08.08c-.08-.37.3-.74-.37-.52.08.08.14.08.14.14h-.22v-.08h0a.08.08,0,0,1,.08-.08h-.14c-.08-.08-.14,0-.22,0v-.14c.08,0,.14.08.22.08s.08.22.22,0c.08,0,.08,0,.14-.08s-.08-.08-.14-.08a.08.08,0,0,1-.08-.08c.08-.08.08-.14-.08-.3h-.08v-.08c.08,0,.08.08,0,.14v-.08a.26.26,0,0,0-.08.22c-.08-.08-.3.3-.3.3s.14.22.08.3.14-.08.22-.14a.36.36,0,0,0,.14.44c-.08,0-.14-.08-.22-.14,0,.14-.14-.08-.14-.14a.23.23,0,0,0-.14.08s.44.52.52.44a.23.23,0,0,0-.14-.08c0,.08.14.3-.08.22a.15.15,0,0,0,.14.14c-.08-.14-.08-.22.08-.22l-.08.08c.22.08,0,.44.08.44-.14.14-.37.22-.44.37l-.14-.14h.14c-.08-.08-.14-.14,0-.22s.14.08.22.08-.08-.14-.08-.22-.08-.3-.08-.08a3,3,0,0,1-.37.52h.08v.3l.08-.08c.08.14.08.3.14.44.14-.14.52.22.3-.37a.37.37,0,0,1-.3.14s.14-.3.22-.3-.14-.3.14-.08,0,.81-.08,1c.14,0,.08.52,0,.44,0,.14.37.14.14.3a.13.13,0,0,1,.22,0c0,.08-.08.14-.08.22s.08.08.14.08-.14.22-.08.3-.08,0,0,.14c-.14,0-.08-.14-.37-.14V37.6c0,.08-.08.08-.14.08a.08.08,0,0,1-.08.08v-.14h.08a.44.44,0,0,0-.08-.3.26.26,0,0,1-.08.22v-.44c-.22.08,0,.44-.22.44h.08c-.08.14.22.08.3.08-.08.14-.08.22-.22.3h.08c0-.08.14-.14.14,0h.08v.14H24v.22c.14-.14.22,0,.14,0,.08.08.08.22,0,.22s-.08.3.08.22a.23.23,0,0,1-.08.14.08.08,0,0,0-.08-.08s-.22.81-.22.89-.08-.08-.14-.08a.1.1,0,0,0,0,.14h-.08V40L23.7,40c0,.14-.08.22-.22.14a.81.81,0,0,1,0,.81h.14c-.22,0-.22,1-.44.89.44.14-.44.74-.3.59-.08,0-.22.08-.14.14s.14,0,.08.14.14.08.08.14a6.88,6.88,0,0,0,1.33-1c.08-.3.66-.66,1-.89V41c0-.37,1.11-1,1.33-1.25v.14c0-.59,1.33-1.55,1.69-1.91l.08.08a.08.08,0,0,0-.08-.08c.08-.08.14,0,.14.08h.14c-.08-.08-.08-.14-.22-.08.14-.22.14-.08.3-.14h-.14a.64.64,0,0,1,.44-.3l-.08-.08c.14.08.22,0,.14-.14l-.08.08c0-.14,0-.22.14-.22s0,.08.08.08,0-.14.08-.14v.08a.27.27,0,0,0,.08-.14V37c0-.08.08-.08.14-.08-.08-.37,1.25-1.11,1.25-.66.08-.08.08-.08,0-.14h.08c.08-.08.08-.14.22-.14,0-.3,1-1.18,1.18-.89.08,0,.08,0,.08.08s.14.89-.22,1H32a8.17,8.17,0,0,0-1,1.25c0,.08.08.08.08.14l-.3.3a.08.08,0,0,1-.08-.08.08.08,0,0,0,.08.08.42.42,0,0,1-.37.22c.08.08-.22.22-.22.22,0,.22-.37.3-.44.44s-.08-.08-.08,0v.08l-.3.3c0-.08,0-.08.08-.14h-.08s-.22.3-.14.3a.15.15,0,0,0-.14.14H29c0,.08,0,.08-.08.14v-.08c-.14.14-1.25,1.11-1.25,1.18s0,.14-.08.14V40.7c0,.08-.08.22,0,.3-.08,0-.08,0-.08.08V41a4.88,4.88,0,0,1-.59.59c-.08,0-.08-.08-.14-.08s.08.14,0,.22a.27.27,0,0,1-.08-.14c-.08.08-.22.14-.22.3-.08,0-.08,0-.14.08v.14a.08.08,0,0,0-.08.08V42c-.08.08-.14.08-.22.14v.08s-.08-.08,0-.08c-.08.22-.74.66-.89.74h-.08A.08.08,0,0,1,25,43c0,.08,0,.08-.08.14l.08.08c-.14-.08-.59.22-.59.37h-.22s-.37.22-.37.3a.15.15,0,0,0-.14.14c.08.14-.22.14-.14.3h-.08a1,1,0,0,0-.22.3.08.08,0,0,1,.08.08.15.15,0,0,0,.14.14.08.08,0,0,1,.08-.08l.22.22c-.22,0,.08.14.08.3a.27.27,0,0,1,.14-.08.08.08,0,0,0-.08-.08,2.34,2.34,0,0,1,.22.44.26.26,0,0,0,.08-.22,1.14,1.14,0,0,1,.44.59.08.08,0,0,1,.08-.08l.08.08c-.22-.37.08-.22.08-.14a.08.08,0,0,0,.08-.08c0,.08,0,.08-.08.08.14-.08,0,.3,0,.37s.22.52.52.52c0,.08-.08.14,0,.22l.08-.08c0,.08.08.08.14.14a.08.08,0,0,0-.08.08c.08-.08.22.08.22.14a.15.15,0,0,1,.14-.14v.22c.08,0,.08-.08.08-.14a.26.26,0,0,1,.08.22c.22-.08.14.3.14.37a.27.27,0,0,0,.08-.14l.08.08.08-.08a.23.23,0,0,1-.08.14c.14.08.08.3.14.3s.14-.08.08-.14c.14.08,0,.3.08.37s.14,0,.14.14h.08a.26.26,0,0,0,.08.22v-.08c-.08,0,.44.59.52.66h-.08c.22.22.66.59.66.89v-.14c.74,1,1.55,1.77,2.28,2.66A4.48,4.48,0,0,0,33.7,54v.08H34v.08a14.94,14.94,0,0,0-1.9-23C31.73,31.3,31.66,31.74,31.8,31.66Zm-8.11.66h0c-.07-.07,0-.07,0,0Zm.52.38a.08.08,0,0,1-.08-.08h0c0-.08,0-.08-.08-.08.14,0,.22.08.22.14S24.21,32.7,24.21,32.7ZM24.13,38h0c-.08-.08-.08-.08-.08-.14l.14.14c-.07.08-.07.08-.07,0S24.13,38.08,24.13,38Zm-.37,2.14h0v.08c-.08,0-.08,0,0,.08v.08c-.08,0-.08-.08,0-.14a.08.08,0,0,1-.08-.08h0c0,.07,0,.07.08,0-.08-.07,0-.07,0,0Zm.22-.22V40a.08.08,0,0,0-.08-.08h-.08V40h0v.08h0V40c-.08,0-.08-.08,0-.14h0v-.08c0-.08,0-.08.08-.08v.08c0,.08,0,.08.08.14-.08-.08,0-.08,0-.08s.08,0,0,.08Zm.44-1.84c0,.08-.08.08-.08.14h0l-.08-.08c.08-.07.08-.07.15-.07-.08,0-.08,0-.14-.08h-.08a.08.08,0,0,1,.08-.08v-.08h.14v.23C24.36,38.08,24.43,38,24.43,38.08ZM24.36,36a.27.27,0,0,0-.08.14v-.08c0-.08,0-.08-.08-.08h0a.26.26,0,0,1,.08-.22.26.26,0,0,0,.08-.22v-.08c0-.08-.08-.08,0-.14a.08.08,0,0,1-.08-.08c.08,0,.08,0,.08-.08V35.1a.08.08,0,0,0,.08.08.27.27,0,0,1,.14-.08.23.23,0,0,1-.08.14c.08.14,0,.3,0,.37-.07.25-.14.33-.14.4Zm.52-.89v.08l-.08.08v.08c-.08.08-.08.08-.08.14v.08c-.08,0,0,.22,0,.3s0,.08-.08.08a1.29,1.29,0,0,1-.08.74c0,.08,0,.08-.08.08h-.08c0-.08,0-.08-.08-.08.08,0,.08-.08.14-.08v-.08a.92.92,0,0,1-.14-.37h.08l-.08-.3a.08.08,0,0,0,.08-.08l.08.08v-.14l-.08-.08v-.08c.08,0,0-.22,0-.14l.14-.14a.08.08,0,0,1-.08-.08c0-.08.08-.08.08-.14a.93.93,0,0,1-.14-.52c.22-.66.44.3.44.44a.28.28,0,0,1,0,.13Zm.29-.59c0,.08-.08.08-.08.14s-.08.3-.22.3h0c.08,0,.14-.08.08-.14s.08-.14.08-.22a.26.26,0,0,0,.08-.22v-.08c0-.08-.08-.08,0-.14A.08.08,0,0,1,25,34.1c.08,0,.08,0,.08-.08v-.08c.07.3.14.38.07.6S25.24,34.46,25.16,34.54ZM23.85,44V43.9H24l-.15.08Zm1.54,3c-.08,0-.14-.14-.14-.22s.14.07.14.22C25.46,46.78,25.54,46.92,25.38,47Zm10-.6c.08.08-.08.3-.14.37.08.22-.37.74-.37,1,0,0-.22.74-.37.37.14.3-1,1.18-1,1.25s.3-.37.22-.37c.08,0-.37.22-.37.22s0,.14,0,.22-.37.44-.44.44h-.14L32.7,50a.27.27,0,0,1-.14.08h-.22c-.37.66-1.33.44-1.84.22-.08,0-.14-.14-.3-.14a3.89,3.89,0,0,1-.66-.52c-.3-.3-.44-.66-.81-.89-.08-.08-.14-.08-.14-.14a4.74,4.74,0,0,1,0-3.61,7.88,7.88,0,0,1,2.14-3.61c1-1,1.33-.44,2.36,0a1.53,1.53,0,0,1,.59.08,3.86,3.86,0,0,1,1.63,2.36,17.74,17.74,0,0,1,.3,2.36,1.19,1.19,0,0,1-.18.21Z"/><path id="_Tracé_35" data-name="&lt;Tracé&gt;" d="M12.63,42.65H13a1,1,0,0,1,.3.44.26.26,0,0,1-.22-.08c-.14-.08-.37-.14-.52-.22a.08.08,0,0,1-.08-.08c.09,0,.09-.07.15-.07Z"/><path id="_Tracé_36" data-name="&lt;Tracé&gt;" d="M11.68,49.06s-.59.22-.66,0,.59-.08.59-.08S11.75,49,11.68,49.06Z"/><path id="_Tracé_37" data-name="&lt;Tracé&gt;" d="M13.6,44.71a14.79,14.79,0,0,1-.44,1.77A3.28,3.28,0,0,1,11.32,48c-1,.37-.66-1.41-.81-1.69a3.33,3.33,0,0,0,.3-.89,7.33,7.33,0,0,0,.3-.74c.14-.3.52-1,.81-1,.08-.14.37-.81.59-.66h.14c.3-.3.89.37.89.59s.21,1,.07,1.18S13.66,44.63,13.6,44.71Z"/><path id="_Tracé_38" data-name="&lt;Tracé&gt;" d="M14.26,47.37v-.08c.08-.08.14,0,.08.14S14.26,47.44,14.26,47.37Z"/><path id="_Tracé_39" data-name="&lt;Tracé&gt;" d="M34.6,47.87c.14-.08.14,0,.14.22-.14-.07-.22-.07-.14-.22Z"/><path id="_Tracé_40" data-name="&lt;Tracé&gt;" d="M32.31,42.57h.14c.08-.08.14,0,.3,0a1.84,1.84,0,0,1,.37.44c-.08,0-.22,0-.22-.08a2,2,0,0,0-.66-.14.21.21,0,0,1-.14-.08c.08-.07.15-.14.22-.14S32.25,42.57,32.31,42.57Z"/><path id="_Tracé_41" data-name="&lt;Tracé&gt;" d="M31.73,50.17s-.66.37-.74.08.66-.14.66-.14c.15,0,.15.07.08.07Z"/><path id="_Tracé_42" data-name="&lt;Tracé&gt;" d="M33.64,44.93a9,9,0,0,1-.52,2.36,4.08,4.08,0,0,1-2,1.69c-.52.22-1-.59-1.11-1s.08-.74,0-1a6,6,0,0,0,.3-1c.08-.3.22-.59.3-.89a3.27,3.27,0,0,1,.89-1.33c.08-.22.37-1,.66-.81h.22c.37-.37,1,.37,1.11.66s.3,1,.14,1.26S33.64,44.85,33.64,44.93Z"/></g></g><path d="M42.2,54.44a1.6,1.6,0,0,0,.77.22c.44,0,.7-.22.7-.59s-.19-.48-.63-.66-.89-.48-.89-1a1,1,0,0,1,1.11-.92,1.3,1.3,0,0,1,.74.19l-.11.37a1.17,1.17,0,0,0-.63-.14c-.48,0-.63.3-.63.52s.22.48.66.66.85.48.85,1-.37,1-1.18,1a1.71,1.71,0,0,1-.85-.22Z"/><path d="M45.74,55a1.16,1.16,0,0,1-1.18-1.25,1.21,1.21,0,0,1,1.22-1.29A1.17,1.17,0,0,1,47,53.74,1.19,1.19,0,0,1,45.74,55Zm0-.33c.41,0,.74-.41.74-1s-.22-.92-.74-.92-.74.48-.74,1,.33.92.74.92Z"/><path d="M47.54,55v-2.1h-.33v-.33h.33v-.11a1.11,1.11,0,0,1,.3-.85.84.84,0,0,1,.59-.22.78.78,0,0,1,.37.08l-.08.33a.61.61,0,0,0-.3-.08c-.37,0-.48.33-.48.7v.14h.59v.33h-.59V55Z"/><path d="M49.57,52v.59h.63v.33h-.63v1.33c0,.3.08.48.33.48a.57.57,0,0,0,.25,0l0,.33a1.06,1.06,0,0,1-.41.08.63.63,0,0,1-.48-.19,1,1,0,0,1-.19-.63V52.92h-.37v-.33h.37v-.44Z"/><path d="M50.89,52.56l.33,1.22a6.57,6.57,0,0,1,.19.77h0c.08-.25.14-.52.22-.77L52,52.52h.37l.37,1.22c.08.3.14.55.22.81h0a4.93,4.93,0,0,1,.19-.77l.33-1.22H54L53.19,55h-.41l-.37-1.14c-.08-.3-.14-.52-.22-.81h0c-.08.3-.14.55-.22.81L51.56,55h-.41l-.74-2.43Z"/><path d="M56.09,54.4a3.22,3.22,0,0,0,0,.59h-.41l0-.3h0a1,1,0,0,1-.74.37.69.69,0,0,1-.74-.7c0-.59.52-.92,1.47-.92v0a.49.49,0,0,0-.55-.55,1.18,1.18,0,0,0-.63.19l-.11-.3a1.78,1.78,0,0,1,.81-.22c.74,0,.92.52.92,1v.89Zm-.4-.66c-.48,0-1,.08-1,.55a.37.37,0,0,0,.41.41.57.57,0,0,0,.59-.41s0-.11,0-.14v-.41Z"/><path d="M56.83,53.33a5.71,5.71,0,0,0,0-.77h.41l0,.48h0a.7.7,0,0,1,.66-.52H58v.41h-.14a.61.61,0,0,0-.59.55V55h-.44Z"/><path d="M58.66,53.85a.78.78,0,0,0,.85.85,2.29,2.29,0,0,0,.66-.11l.08.3a1.91,1.91,0,0,1-.81.14,1.14,1.14,0,0,1-1.18-1.22,1.2,1.2,0,0,1,1.14-1.33,1,1,0,0,1,1,1.14v.22ZM60,53.52a.61.61,0,0,0-.63-.7.72.72,0,0,0-.66.7Z"/><path d="M62.06,55v-2.1h-.33v-.33h.33v-.11a1.11,1.11,0,0,1,.3-.85.84.84,0,0,1,.59-.22.78.78,0,0,1,.37.08l-.08.33a.61.61,0,0,0-.3-.08c-.37,0-.48.33-.48.7v.14H63v.33h-.55V55Z"/><path d="M65.19,54.4a3.22,3.22,0,0,0,0,.59h-.41l0-.3h0a1,1,0,0,1-.74.37.69.69,0,0,1-.74-.7c0-.59.52-.92,1.47-.92v0a.51.51,0,0,0-.55-.55,1.18,1.18,0,0,0-.63.19l-.11-.3a1.63,1.63,0,0,1,.81-.22c.74,0,.92.52.92,1v.89Zm-.44-.66c-.48,0-1,.08-1,.55a.37.37,0,0,0,.41.41.57.57,0,0,0,.59-.41s0-.11,0-.14v-.41Z"/><path d="M67.63,54.92a1.36,1.36,0,0,1-.7.14,1.17,1.17,0,0,1-1.22-1.25A1.24,1.24,0,0,1,67,52.52a1.61,1.61,0,0,1,.63.14l-.11.33a.86.86,0,0,0-.52-.11.84.84,0,0,0-.85.92.85.85,0,0,0,.85.92,1.93,1.93,0,0,0,.55-.11Z"/><path d="M68.74,52v.59h.63v.33h-.63v1.33c0,.3.08.48.33.48a.57.57,0,0,0,.25,0l0,.33a1.06,1.06,0,0,1-.41.08.63.63,0,0,1-.48-.19,1,1,0,0,1-.19-.63V52.92h-.37v-.33h.37v-.44Z"/><path d="M70.83,55a1.16,1.16,0,0,1-1.18-1.25,1.21,1.21,0,0,1,1.22-1.29,1.28,1.28,0,0,1,0,2.55Zm0-.33c.41,0,.74-.41.74-1s-.22-.92-.74-.92-.74.48-.74,1,.3.92.74.92Z"/><path d="M72.6,53.33a5.71,5.71,0,0,0,0-.77h.37L73,53h0a.7.7,0,0,1,.66-.52h.11v.41h-.14a.61.61,0,0,0-.59.55V55h-.44Z"/><path d="M74.51,52.56,75,54a2.51,2.51,0,0,1,.14.48h0c0-.14.11-.33.14-.52l.48-1.44h.48l-.66,1.74a3.4,3.4,0,0,1-.85,1.52,1.73,1.73,0,0,1-.55.3l-.11-.37a1.52,1.52,0,0,0,.41-.22,1.77,1.77,0,0,0,.37-.48.2.2,0,0,0,0-.22L74,52.53l.53,0Z"/><path d="M79.89,51.42v2.94a3.62,3.62,0,0,0,0,.63h-.41l0-.41h0a.94.94,0,0,1-.81.48,1.12,1.12,0,0,1-1-1.25,1.17,1.17,0,0,1,1.11-1.29.88.88,0,0,1,.74.37h0V51.44l.4,0Zm-.43,2.14a.32.32,0,0,0,0-.19.64.64,0,0,0-.63-.52.82.82,0,0,0-.74.92c0,.51.25.92.74.92a.7.7,0,0,0,.66-.52c0-.08,0-.11,0-.19v-.44h0Z"/><path d="M81.63,55a1.16,1.16,0,0,1-1.18-1.25,1.21,1.21,0,0,1,1.22-1.29,1.17,1.17,0,0,1,1.18,1.25A1.19,1.19,0,0,1,81.63,55Zm0-.33c.41,0,.74-.41.74-1s-.22-.92-.74-.92-.74.48-.74,1,.3.92.74.92Z"/><path d="M83.4,53.22a4.23,4.23,0,0,0,0-.66h.41l0,.41h0a.9.9,0,0,1,.81-.44c.33,0,.85.19.85,1V55H85V53.59c0-.41-.14-.74-.55-.74a.63.63,0,0,0-.59.44.51.51,0,0,0,0,.22V55h-.44V53.22Z"/><path d="M86.42,53.85a.78.78,0,0,0,.85.85,2.29,2.29,0,0,0,.66-.11l.08.3a1.91,1.91,0,0,1-.81.14A1.14,1.14,0,0,1,86,53.82a1.2,1.2,0,0,1,1.14-1.33,1,1,0,0,1,1,1.14v.22Zm1.28-.33c0-.3-.11-.7-.59-.7a.72.72,0,0,0-.66.7Z"/><path d="M89.77,53.33a5.71,5.71,0,0,0,0-.77h.37l0,.48h0a.7.7,0,0,1,.66-.52h.11v.41h-.14a.61.61,0,0,0-.59.55V55h-.41Z"/><path d="M91.66,52.11a.29.29,0,0,1-.3-.3.3.3,0,0,1,.3-.3.27.27,0,0,1,.3.3c0,.15-.15.3-.3.3ZM91.43,55V52.56h.44V55Z"/><path d="M94.68,54.63a1.47,1.47,0,0,1-.33,1.11,1.34,1.34,0,0,1-.89.3,1.71,1.71,0,0,1-.81-.19l.11-.33a1.22,1.22,0,0,0,.7.19c.44,0,.77-.22.77-.85v-.25h0a.91.91,0,0,1-.77.41,1.1,1.1,0,0,1-1-1.18,1.19,1.19,0,0,1,1.11-1.29.88.88,0,0,1,.77.41h0v-.37h.41c0,.19,0,.37,0,.66v1.39Zm-.44-1.11a.32.32,0,0,0,0-.19.65.65,0,0,0-.63-.48.82.82,0,0,0-.74.92c0,.48.25.89.7.89a.68.68,0,0,0,.63-.44.51.51,0,0,0,0-.22l0-.48Z"/><path d="M95.41,51.42h.44v1.52h0a.73.73,0,0,1,.33-.3.94.94,0,0,1,.44-.11c.33,0,.85.19.85,1V55H97V53.59c0-.41-.14-.74-.55-.74a.59.59,0,0,0-.59.44.45.45,0,0,0,0,.22V55h-.44V51.42Z"/><path d="M98.73,52v.59h.63v.33h-.63v1.33c0,.3.08.48.33.48a.57.57,0,0,0,.25,0l0,.33a1.06,1.06,0,0,1-.41.08.63.63,0,0,1-.48-.19,1,1,0,0,1-.19-.63V52.92h-.37v-.33h.37v-.44Z"/></svg>