<svg id="Calque_1" data-name="Calque 1" xmlns="http://www.w3.org/2000/svg" viewBox="0 0 130 70"><defs><style>.cls-1{fill:none;}.cls-2{fill:#1d1d1b;}.cls-3{fill:#e42825;}</style></defs><title>logo-les-echos</title><rect class="cls-1" width="130" height="70"/><path class="cls-2" d="M37.54,29.43c-.72.55-1.72,2.06-1.92,5.75,2.93-1.35,4.06-2.73,3.92-4.56-.09-1.22-.86-1.51-1.16-1.51a1.44,1.44,0,0,0-.85.32m5,9.29c-2.59,3.21-5.06,3.79-6.54,3.79s-3.65-.93-3.92-4.76a10.4,10.4,0,0,1,2.8-8.13,7.17,7.17,0,0,1,4.69-2c2.1,0,3.23,1.19,3.34,2.7.22,3.05-4.61,5.14-7.31,6.14a3.47,3.47,0,0,0,0,.55c.1,1.41.74,3.09,2.29,3.09a6,6,0,0,0,4-2.19Z"/><path class="cls-2" d="M56.77,26.5c.37-3.47.21-3.69-2.12-3.89l.13-1H68.26c0,.87-.06,3.31-.14,5l-1.06.1a5.47,5.47,0,0,0-.8-2.86c-.4-.55-1.16-.8-3.14-.8h-1c-1.19,0-1.25,0-1.37,1.12l-.68,6.58H62c2.55,0,2.69-.67,3.26-3h1.23l-.88,7.38H64.41c0-2.54.09-2.7-2.46-2.7h-2l-.58,5.49C59.06,40.41,59.37,41,62,41a4.69,4.69,0,0,0,3.35-.93,10,10,0,0,0,1.84-3.24l1.09.22c-.3,1.19-1.09,4.24-1.48,5.4H52.65l.13-1c2.18-.19,2.46-.42,2.83-3.89l1.16-11m-11.13,16c-1.16,0-3.21-.9-3.36-2.15a2.18,2.18,0,0,1,.8-1.86.83.83,0,0,1,1.26.13,4.78,4.78,0,0,0,3,1.83,1.34,1.34,0,0,0,1.32-1.51c0-.67-.41-1.28-1.94-2.28-1.28-.84-3-1.64-3.17-3.66A4.52,4.52,0,0,1,45,29.28a4.89,4.89,0,0,1,3.46-1.67c1.51,0,2.79.77,2.87,1.83a1.84,1.84,0,0,1-.65,1.44c-.52.45-.91.35-1.13.1a3.7,3.7,0,0,0-2.28-1.38A1.23,1.23,0,0,0,45.86,31c.06.9,1.16,1.6,2.1,2.15,1.67,1,3.06,2.12,3.18,3.72a5.66,5.66,0,0,1-5.51,5.65"/><path class="cls-2" d="M78.31,39.11c-1.79,2.25-4.21,3.4-5.75,3.4-2.47,0-3.85-1.67-4.06-4.72A11.15,11.15,0,0,1,71,29.92a7.39,7.39,0,0,1,4.84-2.31c1.46,0,2.88.8,3,1.86A2.07,2.07,0,0,1,78,31a.89.89,0,0,1-1.37,0c-1.09-1.41-1.69-1.67-2.1-1.67S73.47,29.7,73,31A15,15,0,0,0,72.1,37c.15,2.12.89,3.05,2,3.05,1.6,0,2.94-1.28,3.57-1.83l.62.87"/><path class="cls-2" d="M78.56,42.51c.17-1.58.35-3.14.52-4.72L80.6,23.66c.12-1.18.1-1.37-.92-1.37H78.49l-.07-.9c2.32-.53,5.26-1.3,5.49-1.3s.45.53.32,1.62L83,33H83a13,13,0,0,1,4-4.1,4.2,4.2,0,0,1,2.12-.81c.79,0,2,.47,1.68,3l-1,7.8c-.07.62-.13.93.07.93a6,6,0,0,0,1.86-1.21l.5.87c-1.56,1.74-4,3-4.81,3s-1.45-.65-1.17-2.76l.92-7.21c.17-1.24.21-1.89-.37-1.89s-2.91,2.39-4,4.94c-.14.87-.58,4.35-.63,6.09h0l-3.58.84"/><path class="cls-2" d="M98.45,29.16a1.54,1.54,0,0,0-.74.16c-.84.41-2.36,2.87-2,7.85.18,2.49,1.12,3.86,2.11,3.86a1.6,1.6,0,0,0,.63-.13c.93-.42,2.31-3.9,1.94-8.24-.17-2.43-1-3.51-1.94-3.51m-6.38,8.11c-.3-4.22,1.61-7.12,3.53-8.37a7.17,7.17,0,0,1,3.76-1.21c2.71,0,4.46,2.08,4.66,4.92a10.48,10.48,0,0,1-2.51,7.7,7.1,7.1,0,0,1-4.73,2.2c-3.38,0-4.54-2.84-4.71-5.24"/><path class="cls-2" d="M28.58,22.06l-.1,1c-2.23.19-2.5.41-2.84,3.81L24.47,38a6.6,6.6,0,0,0,0,1.75,1.43,1.43,0,0,0,.4.82c.39.37.36.44,1.11.45a4.33,4.33,0,0,0,3.13-.95A10.63,10.63,0,0,0,30.86,37l1.06.22c-.29,1.17-1.07,4.16-1.45,5.3l-12.67.07.1-1c2.31-.19,2.56-.41,2.93-3.81L22,26.88c.36-3.4.14-3.63-2.11-3.81l.1-1h8.62m78,20.45c-1.16,0-3.21-.9-3.36-2.15a2.18,2.18,0,0,1,.8-1.86.83.83,0,0,1,1.26.13,4.78,4.78,0,0,0,3,1.83,1.34,1.34,0,0,0,1.32-1.51c0-.67-.41-1.28-1.94-2.28-1.28-.83-3-1.64-3.17-3.66a4.52,4.52,0,0,1,1.37-3.72,4.89,4.89,0,0,1,3.46-1.67c1.51,0,2.79.77,2.87,1.83a1.84,1.84,0,0,1-.65,1.44c-.52.45-.91.35-1.13.1a3.7,3.7,0,0,0-2.28-1.38A1.23,1.23,0,0,0,106.76,31c.06.9,1.16,1.6,2.1,2.15,1.67,1,3.06,2.12,3.18,3.72a5.66,5.66,0,0,1-5.51,5.65"/><path class="cls-3" d="M36.35,44.34v2h.5v.28H36V44.34ZM36,48H97.38v1.92H36Z"/><path class="cls-3" d="M97.39,44.34v.27h-.51v.66h.51v.27h-.51v.8h.51v.27h-.82V44.34h.82m-2.84,0h.31V46.6h-.31Zm-3,0,.45,1.51h0l.45-1.51h.34V46.6h-.3V45.1h0l-.37,1.28h-.24l-.37-1.28h0v1.5h-.3V44.34h.34m-2.54,2c.22,0,.27-.39.27-1s-.12-.82-.27-.82-.27.23-.27.94c0,.46,0,.84.27.84m0-2.07c.54,0,.59.59.59,1.17s-.11,1.17-.59,1.17-.6-.59-.6-1.17.11-1.17.6-1.17m-3,0,.46,1.43h0V44.34h.3V46.6h-.31l-.46-1.43h0V46.6h-.3V44.34h.31m-2.51,2c.22,0,.27-.39.27-1s-.12-.82-.27-.82-.27.23-.27.94c0,.46,0,.84.27.84m0-2.07c.54,0,.59.59.59,1.17s-.11,1.17-.59,1.17-.6-.59-.6-1.17.11-1.17.6-1.17m-2.47.62c0-.24-.13-.34-.23-.34s-.31.42-.31.86.06.92.3.92.25-.22.28-.44l.3.11c0,.34-.21.61-.59.61s-.62-.32-.62-1.19c0-.44.06-1.16.64-1.16.27,0,.45.16.54.51l-.31.1m-2.39-.57v.27h-.51v.66h.51v.27h-.51v.8h.51v.27h-.82V44.34h.82M76.2,45l.18-.63h.3l-.25.63H76.2M75,44.34v2h.5v.28h-.82V44.34H75m-4,0v.27h-.51v.66h.51v.27h-.51v.8h.51v.27h-.82V44.34h.82m-3.25,2c.37,0,.48-.38.48-.86s-.17-.86-.48-.86v1.72m-.31-2h.36c.59,0,.76.56.76,1.15s-.15,1.11-.73,1.11h-.39Zm-4.53,0,.46,1.43h0V44.34h.3V46.6H63.3l-.46-1.43h0V46.6h-.3V44.34h.31m-1.89,0v.27h-.51v.66H61v.27h-.51v.8H61v.27h-.82V44.34H61m-2.84,0h.31V46.6h-.31Zm-2.47,2c.37,0,.48-.38.48-.86s-.17-.86-.48-.86v1.72m-.31-2h.36c.6,0,.76.56.76,1.15s-.15,1.11-.73,1.11h-.39Zm-2,0h.31V46.6h-.31ZM51,44.62h-.4v-.28h1.11v.28h-.4v2H51v-2m-2.5,1.74c.22,0,.27-.39.27-1s-.12-.82-.27-.82-.27.23-.27.94c0,.46,0,.84.27.84m0-2.07c.54,0,.59.59.59,1.17s-.11,1.17-.59,1.17-.6-.59-.6-1.17.11-1.17.6-1.17M46.32,46c0,.46-.23.6-.53.6s-.54-.14-.54-.6v-1.7h.31V46c0,.14,0,.32.23.32S46,46.18,46,46v-1.7h.31V46m-3.16,0,.08.13a2.87,2.87,0,0,0,.07-.76c0-.68-.12-.82-.27-.82s-.27.23-.27.94c0,.46,0,.84.27.84h0L43,46.15l.2-.11m.06.58-.08,0H43c-.54,0-.6-.59-.6-1.17s.11-1.17.6-1.17.6.59.6,1.17a1.74,1.74,0,0,1-.21,1l.14.21-.24.16Zm-4-2.27v.27h-.51v.66h.51v.27h-.51v.8h.51v.27h-.82V44.34h.82"/></svg>