<svg id="Calque_1" data-name="Calque 1" xmlns="http://www.w3.org/2000/svg" viewBox="0 0 130 70"><defs><style>.cls-1{fill:none;}.cls-2{fill:#434762;}</style></defs><title>logo-recrutement</title><rect class="cls-1" width="130" height="70"/><path class="cls-2" d="M89.65,35.24a5.17,5.17,0,0,0-5.18-5.18,2.71,2.71,0,0,0-.8.08L81.29,18.67a5.19,5.19,0,1,0-6.21-5.1,3.27,3.27,0,0,0,.08.88l-21.5,3.42a5.16,5.16,0,1,0-5.89,6.53L45.61,43.68h-.08a5.18,5.18,0,1,0,4.62,7.49l17,4.54c0,.24-.08.48-.08.72a5.18,5.18,0,1,0,10.35,0,5.24,5.24,0,0,0-2.31-4.3l7.17-12.19a5.43,5.43,0,0,0,2.23.56A5.27,5.27,0,0,0,89.65,35.24Zm-.8,0a4.38,4.38,0,1,1-4.38-4.38A4.42,4.42,0,0,1,88.85,35.24Zm-17,16a6.89,6.89,0,0,0-1.83.48l-5.81-9.16L74,39.3Zm-8.12-9.4-4.14-6.53L67,27.91l8.52,3.82-1.19,6.69ZM49.51,45.59l9.56-9.72,4,6.21-13,4.3A4.83,4.83,0,0,1,49.51,45.59ZM53.25,21.7l12.9,5.81-7,7.09L51.9,23.29A4.39,4.39,0,0,0,53.25,21.7Zm23.81-4.06a4.83,4.83,0,0,0,.8.56L75.55,30.94l-8-3.66Zm-.88,14.5,3.42,1.51a5.29,5.29,0,0,0-.24,1.67,4.51,4.51,0,0,0,.24,1.43l-4.46,1.43Zm6.69-1.75a5.31,5.31,0,0,0-3,2.55l-3.58-1.59,2.31-12.74a5.66,5.66,0,0,0,1.67.24h.24ZM80.25,9.27a4.38,4.38,0,1,1-4.38,4.38A4.42,4.42,0,0,1,80.25,9.27Zm-4.94,6a4.73,4.73,0,0,0,1.12,1.83L66.71,27,53.49,21a6.2,6.2,0,0,0,.32-1.67,1.55,1.55,0,0,0-.08-.64Zm-31,4.06a4.38,4.38,0,1,1,4.38,4.38h-.48A4.46,4.46,0,0,1,44.33,19.31Zm4.14,5.18h.16a5,5,0,0,0,2.63-.72l7.33,11.47L49,45a5.1,5.1,0,0,0-2.63-1.27Zm-3,28.67a4.38,4.38,0,1,1,4.38-4.38A4.42,4.42,0,0,1,45.45,53.16Zm4.86-2.79a5.43,5.43,0,0,0,0-3.19l13.14-4.3,5.89,9.24a5.2,5.2,0,0,0-2.07,2.79Zm26.28,6.05A4.38,4.38,0,1,1,72.21,52,4.37,4.37,0,0,1,76.59,56.42Zm-2.23-4.7a6.61,6.61,0,0,0-1.67-.48l2.23-12.19,4.86-1.59a5,5,0,0,0,1.75,2.07Z"/></svg>