<?xml version="1.0" encoding="utf-8"?>
<!-- Generator: Adobe Illustrator 20.1.0, SVG Export Plug-In . SVG Version: 6.00 Build 0)  -->
<svg version="1.1" id="Calque_1" xmlns="http://www.w3.org/2000/svg" xmlns:xlink="http://www.w3.org/1999/xlink" x="0px" y="0px"
	 viewBox="0 0 760 890" style="enable-background:new 0 0 760 890;" xml:space="preserve">
<style type="text/css">
	.st0{fill:#FF6444;}
	.st1{fill:#424661;}
</style>
<title>pic-good</title>
<g>
	<path class="st0" d="M736.8,562.6c-1-1.2-2-2.3-3.1-3.4c-15.7-15.9-40.7-18-58.9-5l-13.4,9.3V88.8c0-5.1-4.7-9.2-10.4-9.2H110.7
		c-5.7,0-10.4,4.2-10.4,9.2v559c-6.8,6-13.3,12.4-19.5,19.1l-61.6,66.7c-10.9,11.1-10.9,29,0,40.1l110.3,108.9l1.5,1.3
		c5.4,4.1,12,6.2,18.8,6.2c7.5,0.1,14.7-2.8,20.1-8l50.7-47.1c3.5-3,7.9-4.7,12.5-5l217-20.1c34-0.1,67.2-11.1,94.5-31.4L730.2,627
		C749.8,611.1,752.8,582.2,736.8,562.6z M121.1,98h519.6v479.8L542,646.4c6.8-11.7,8.8-25.5,5.4-38.6c-2.4-9.2-7.1-17.6-13.8-24.3
		c-6-6-13.4-10.5-21.5-13l-134.6,12.7l-38.4,4.9c-10,1.5-20.1,1.5-30.1,0h-1c-66.3-10.8-133.3,5.3-186.9,43.3V98z M711.6,600.9
		c-0.4,0.4-0.7,0.7-1.1,1l0.4,0.1L533.2,748.3l-7,5.6c-22.5,16.7-49.7,25.8-77.7,26l-217.6,20.1c-11.3,1.1-21.8,5.9-30.1,13.6
		l-50.1,47L41.9,755.4l61.2-67.3c50.5-55.4,125.4-81.8,199.5-70.2c13.3,2.2,26.8,2.5,40.1,0.6L491,599h1.5c7-1.5,14.4,0.7,19.4,5.9
		c2.9,2.8,5,6.2,6.1,10c2.8,10.9-3.3,22.1-14,25.7l-164.2,40.1h-1.3c-12.3,4.4-19.3,17.4-16.1,30.1v1.1c3.7,10.9,14.5,17.8,26,16.6
		l126.4,0.9l216.8-152.3c6.2-4.4,14.6-3.8,20.1,1.5C717.7,584.7,717.7,594.7,711.6,600.9z M513.1,673.5l-40.6,28.5l-74.8-0.5
		L513.1,673.5z"/>
	<path class="st1" d="M173.7,394.1h410.7c5.7,0,10.4-2.4,10.4-5.2s-4.7-5.2-10.4-5.2H173.7c-5.7,0-10.4,2.4-10.4,5.2
		S168,394.1,173.7,394.1z"/>
	<path class="st1" d="M173.7,445.1h410.7c5.7,0,10.4-2.4,10.4-5.2s-4.7-5.2-10.4-5.2H173.7c-5.7,0-10.4,2.4-10.4,5.2
		S168,445.1,173.7,445.1z"/>
	<path class="st1" d="M173.7,496.1h410.7c5.7,0,10.4-2.4,10.4-5.2s-4.7-5.2-10.4-5.2H173.7c-5.7,0-10.4,2.4-10.4,5.2
		S168,496.1,173.7,496.1z"/>
	<path class="st0" d="M289.6,314.1l54,29c1.5,0.8,3.2,1.2,4.8,1.2c1.1,0,2.2-0.1,3.3-0.6c2.8-0.8,5-2.9,6.1-5.4l23-48.9l23,48.9
		c1.2,2.6,3.5,4.6,6.1,5.4c2.8,0.8,5.7,0.7,8.2-0.7l54-29c5-2.8,6.9-8.9,4.4-13.9l-32.4-64.4c-0.1-0.1-0.1-0.3-0.3-0.6
		c5.7-10.3,9-22,9-34.6c0-38.9-32.3-70.5-72.1-70.5c-39.8,0-72.1,31.7-72.1,70.5c0,12.5,3.3,24.4,9,34.6c-0.1,0.1-0.1,0.3-0.3,0.6
		l-32.4,64.4C282.7,305.3,284.6,311.5,289.6,314.1z M453.5,300.4L418,319.5l-23-48.6c13.2-2.6,25.1-8.9,34.6-17.7L453.5,300.4z
		 M380.9,150.9c28.3,0,51.3,22.3,51.3,49.7c0,28-23,50.9-51.3,50.9c-28.3,0-51.3-22.9-51.3-50.9
		C329.6,173.2,352.6,150.9,380.9,150.9z M332.1,253.2c9.6,8.7,21.5,15,34.6,17.7l-23,48.6l-35.5-19.1L332.1,253.2z"/>
</g>
</svg>
