<svg id="Calque_1" data-name="Calque 1" xmlns="http://www.w3.org/2000/svg" viewBox="0 0 70 70"><defs><style>.cls-1{fill:none;}.cls-2{fill:#434762;}.cls-3{fill:#ec654a;}</style></defs><title>creation-picto-4</title><rect class="cls-1" width="70" height="70"/><path class="cls-2" d="M54.86,26.71a20,20,0,0,0-40-.16,15.53,15.53,0,0,0,4.68,12.39c1.84,2,6.63,8.09,6.75,12.23a1.39,1.39,0,0,0,1.39,1.35H42a1.39,1.39,0,0,0,1.39-1.35C43.53,47,48.32,40.94,50.09,39A15.54,15.54,0,0,0,54.86,26.71ZM48.11,37.05c-.28.3-6.31,6.93-7.34,12.69H28.91C27.89,44,21.85,37.35,21.5,37a12.87,12.87,0,0,1-3.89-10.27,17.24,17.24,0,1,1,34.48.16A12.89,12.89,0,0,1,48.11,37.05Z"/><path class="cls-3" d="M31.61,25.47c-7.29,2-9.81,9.87-9.92,10.2a1.39,1.39,0,0,0,.92,1.74,1.47,1.47,0,0,0,.41.06,1.39,1.39,0,0,0,1.33-1c0-.07,2.16-6.71,8-8.35a1.39,1.39,0,1,0-.75-2.68Z"/><path class="cls-2" d="M40.8,56H28.89a1.13,1.13,0,0,0,0,2.26H40.8a1.13,1.13,0,0,0,0-2.26Z"/><path class="cls-2" d="M39.23,61.05H30.46a1.13,1.13,0,0,0,0,2.26h8.77a1.13,1.13,0,1,0,0-2.26Z"/><path class="cls-3" d="M35.08,32.9a1.39,1.39,0,0,0,1.39-1.39V25.64a1.39,1.39,0,1,0-2.78,0v5.87A1.39,1.39,0,0,0,35.08,32.9Z"/><path class="cls-3" d="M9,35.28H3.08a1.39,1.39,0,1,0,0,2.78H9a1.39,1.39,0,1,0,0-2.78Z"/><path class="cls-3" d="M66.92,35.28H61a1.39,1.39,0,0,0,0,2.78h5.88a1.39,1.39,0,1,0,0-2.78Z"/><path class="cls-3" d="M15.68,45l-4.16,4.15a1.39,1.39,0,1,0,2,2L17.64,47a1.39,1.39,0,0,0-2-2Z"/><path class="cls-3" d="M53.49,20.54a1.39,1.39,0,0,0,1-.41L58.63,16a1.39,1.39,0,1,0-2-2l-4.15,4.16a1.39,1.39,0,0,0,1,2.37Z"/><path class="cls-3" d="M54.48,45a1.39,1.39,0,1,0-2,2l4.16,4.15a1.39,1.39,0,1,0,2-2Z"/><path class="cls-3" d="M15.68,20.13a1.39,1.39,0,1,0,2-2L13.49,14a1.39,1.39,0,0,0-2,2Z"/></svg>