<svg id="Calque_1" data-name="Calque 1" xmlns="http://www.w3.org/2000/svg" viewBox="0 0 760 890"><defs><style>.cls-1{fill:#ff6444;}.cls-2{fill:#fff;stroke:#424661;stroke-miterlimit:10;stroke-width:18px;}</style></defs><title>picto-heart</title><path class="cls-1" d="M736.81,562.37a45.76,45.76,0,0,0-62-8.43L542,646.21a51.25,51.25,0,0,0,5.42-38.61,53.25,53.25,0,0,0-13.84-24.27,52.35,52.35,0,0,0-21.46-13l-5.63.53c10.94-10,24-21.79,39.75-35.81,14.68-13.11,26.41-23,34.3-30.18s18.18-17.15,30.87-29.84,22.72-23.6,29.84-32.59c7.29-9.19,15-20.31,23.66-33.61,17.73-27.17,25.49-48.68,31.89-78.88a223.23,223.23,0,0,0,4.8-46.3c0-48.37-20.23-94.32-52.13-125.88A181.63,181.63,0,0,0,523.25,106,176,176,0,0,0,442.3,125.5,173.79,173.79,0,0,0,379.19,179a173.82,173.82,0,0,0-63.11-53.5,176.06,176.06,0,0,0-80.94-19.55,181.65,181.65,0,0,0-126.22,51.79C77,189.29,56.78,235.24,56.78,283.61a274.94,274.94,0,0,0,15.78,89.86,186.31,186.31,0,0,0,19.55,38.41c8.8,13.46,16.81,24.69,23.66,33.61a316.3,316.3,0,0,0,29.84,32.93c13.21,12.87,24,23,31.9,30.18s19.89,17.85,35.67,31.56c18.17,15.78,31.13,27.53,39.45,35,2.94,2.64,6.53,6,10.42,9.61a253.09,253.09,0,0,0-182.28,82L19.19,733.45a28.68,28.68,0,0,0,0,40.11L129.5,882.48l1.5,1.3A31.19,31.19,0,0,0,149.76,890a28.08,28.08,0,0,0,20.06-8l50.74-47.13a21.36,21.36,0,0,1,12.54-5l217-20.06a159,159,0,0,0,94.47-31.39L730.22,626.85a45.83,45.83,0,0,0,6.59-64.48Zm-498.93-51-23.66-20.92L192.61,470.9c-9.36-8.47-16.56-15.35-21.26-20.58-4.55-5.06-10.63-11.66-18.17-19.89A176.87,176.87,0,0,1,136,409.14c-7.86-12-21.22-30-26.06-44.93l-7.89-24.35c-5.75-17.75-7.54-36-7.54-56.25,0-38.41,13.72-71.34,41.16-98.44C163.46,157.74,196.39,144,235.14,144a136.19,136.19,0,0,1,75.12,22c23,14.74,40.7,34.19,52.13,58.65q5,10.65,16.81,10.63c7.89,0,14-3.29,17.49-10.63,11.58-24.23,28.13-43.9,51.1-58.65a137.27,137.27,0,0,1,75.45-22c38.76,0,71.68,13.72,99.12,40.81s41.16,60,41.16,98.78a205.15,205.15,0,0,1-3.1,35q-9.91,57.08-59.68,112.15c-14.49,16-41.08,41.59-79.92,76.14-20.15,17.93-36.35,32.59-49,44.25-7.54,6.92-16.28,15.52-26,25.43L377.51,583l-38.41,4.91a102,102,0,0,1-17.67.92c-14.2-14.51-25.71-26-34.51-34-10.63-9.53-26.83-23.83-49-43.49ZM711.56,600.7q-.53.53-1.1,1l.4.1L533.16,748.1l-7,5.62a131.27,131.27,0,0,1-77.72,26l-217.65,20a51.64,51.64,0,0,0-30.09,13.64l-50.14,47L41.85,755.22,103,687.92a223.14,223.14,0,0,1,199.47-70.2,131.65,131.65,0,0,0,40.11.6L491,598.77h1.5a20.76,20.76,0,0,1,19.36,5.92,23.07,23.07,0,0,1,6.12,10,21.46,21.46,0,0,1-14,25.67L339.8,680.5h-1.3a25.37,25.37,0,0,0-16.15,30.09v1.1a24.77,24.77,0,0,0,26,16.65l126.36.9,216.8-152.33a15.59,15.59,0,0,1,20,23.77ZM513.1,673.28l-40.62,28.48-74.81-.5Z"/><path class="cls-2" d="M509.06,197.11s89.15-7.82,89.15,70.11"/></svg>