<svg id="Calque_1" data-name="Calque 1" xmlns="http://www.w3.org/2000/svg" viewBox="0 0 760 890"><defs><style>.cls-1{fill:#ff6444;}.cls-2{fill:#424661;}</style></defs><title>pic-xebicon</title><path class="cls-1" d="M734.44,557.29a45.9,45.9,0,0,0-59.32-5L542.42,644.76c7-12.06,9-25.13,5-38.2a45.47,45.47,0,0,0-14.08-24.13c-3-3-6-5-10.05-8L752.54,346.17l-81.43-81.43-8,8c-14.08,14.08-25.13,19.1-47.25,19.1-44.24,0-76.41-32.17-76.41-76.41,0-22.12,4-32.17,19.1-47.25l8-8L485.11,78.74,43.76,521.1l81.43,81.43,8-8c14.08-14.08,25.13-19.1,47.25-19.1a82.51,82.51,0,0,1,42.23,11.06C169.43,596.5,119.16,623.65,82,664.87L20.64,732.23a28.52,28.52,0,0,0,0,40.21L131.23,882l2,1c5,4,12.06,6,19.1,6s15.08-3,20.11-8l51.27-47.25c4-3,8-5,12.06-5l217.16-20.11a159,159,0,0,0,94.5-31.17l184-151.81c20.11-16.09,23.12-45.24,7-64.34A7.85,7.85,0,0,0,734.44,557.29Zm-555-3c-24.13,0-39.21,5-54.29,18.1L74.93,522.11,212.66,384.37l36.19,36.19,15.08-15.08-36.19-36.19L485.11,111.92l50.27,50.27c-13.07,15.08-18.1,30.16-18.1,54.29,0,56.3,42.23,98.53,98.53,98.53,24.13,0,39.21-5,54.29-18.1l50.27,50.27L498.18,570.36l-62.33,6-8-8-10.05,9-40.21,4-38.2,5a151.18,151.18,0,0,1-30.16,0h-1a274.08,274.08,0,0,0-57.31-3C233.77,565.34,208.64,554.28,179.48,554.28Zm532.84,45.24-1,1h0L533.37,747.31l-7,6c-22.12,17.09-50.27,26.14-78.42,26.14L229.75,799.59a49.69,49.69,0,0,0-30.16,14.08l-50.27,47.25L41.75,754.35,103.08,687c50.27-55.3,125.67-82.44,200.07-70.38,13.07,2,27.14,2,40.21,1l148.79-20.11h1c7-2,14.08,1,19.1,6a20.86,20.86,0,0,1,6,10.05c3,11.06-3,22.12-14.08,26.14L339.34,679.95h-1c-12.06,4-19.1,17.09-16.09,30.16v1c4,11.06,14.08,18.1,26.14,17.09H475.06L692.22,575.39c6-4,15.08-4,20.11,2C719.36,582.43,719.36,592.48,712.33,599.52ZM513.26,671.91,473,700.06h-75.4Z"/><g id="Calque_1-2" data-name="Calque 1"><path class="cls-2" d="M337.33,452.74c-4,4-7,9-7,14.08a20.46,20.46,0,0,0,6,15.08c8,8,20.11,9,29.16,1l1-1a19.84,19.84,0,0,0,4-23.12l-7,8c1,4-1,7-3,10.05-3,4-10.05,5-14.08,1h0l22.12-22.12-2-2c-4-4-9-7-14.08-7A20.46,20.46,0,0,0,337.33,452.74Zm4,19.1c-4-4-1-10.05,2-12.06a9.53,9.53,0,0,1,13.07-2Z"/><path class="cls-2" d="M372.51,419.56c-4,3-6,8-7,12.06l-11.06-11.06-7,6,36.19,37.2,7-7h-1c5-1,9-4,12.06-7a19.85,19.85,0,0,0,6-14.08,20.46,20.46,0,0,0-6-15.08,19.85,19.85,0,0,0-14.08-6A16.59,16.59,0,0,0,372.51,419.56Zm25.13,17.09a10.38,10.38,0,0,1-11.06,11.06,9.14,9.14,0,0,1-8-4,11.42,11.42,0,0,1-3-8,9.14,9.14,0,0,1,4-8,11.42,11.42,0,0,1,8-3,9.14,9.14,0,0,1,8,4c0,2,2,5,2,8Z"/><rect class="cls-2" x="402.67" y="394.63" width="10.05" height="39.21" transform="matrix(0.72, -0.69, 0.69, 0.72, -173.33, 399.5)"/><rect class="cls-2" x="383.42" y="389.53" width="10.05" height="9.05" transform="translate(-164.71 380.46) rotate(-44)"/><polygon class="cls-2" points="324.26 440.67 306.16 456.76 306.16 493.96 269.97 492.95 251.87 510.04 307.16 512.05 307.16 566.34 324.26 549.25 325.26 513.06 361.45 514.06 378.55 496.97 324.26 494.96 324.26 440.67"/><path class="cls-2" d="M457,338.13a20.63,20.63,0,1,0,29.16,1c-7-8-21.11-9-29.16-1Zm23.12,23.12c-5,4-12.06,4-16.09,0-4-5-4-12.06,0-16.09,5-4,12.06-4,16.09,0s4,12.06,0,16.09Z"/><path class="cls-2" d="M444.9,395.43a17.77,17.77,0,0,1-25.13-25.13,19.11,19.11,0,0,1,13.07-5l9-9c-15.08-5-31.17,2-36.19,17.09s2,31.17,17.09,36.19,31.17-2,36.19-17.09a31,31,0,0,0,0-19.1l-9,9C449.93,387.39,447.92,391.41,444.9,395.43Z"/><path class="cls-2" d="M503.21,315a7.82,7.82,0,0,0-11.06,11.06h0l17.09,18.1-7,7L475.06,323l7-7,2,2a16.14,16.14,0,0,1,5-11.06,14.58,14.58,0,0,1,21.11,0l1,1,18.1,18.1-9,7Z"/></g></svg>