<svg id="Calque_1" data-name="Calque 1" xmlns="http://www.w3.org/2000/svg" viewBox="0 0 170 105"><defs><style>.cls-1{fill:none;}.cls-2{fill:#ec664e;}.cls-3{fill:#ec654a;}.cls-4{fill:#fff;}</style></defs><title>asset5</title><rect class="cls-1" width="170" height="105"/><path class="cls-2" d="M115.26,24.74a16.2,16.2,0,0,0-12.47-6.1A16,16,0,0,0,91.87,23.1a20.56,20.56,0,0,0-15-6.71,20.82,20.82,0,0,0-16,7.86,28.58,28.58,0,0,0-6.42,18.41,28.58,28.58,0,0,0,6.42,18.41,21.9,21.9,0,0,0,9.89,6.88l-.12,3.84,3.69.11c.19,6.84,1.87,9.5,3.36,11.87s2.8,4.43,2.8,11.79h5.16c0-8.86-1.91-11.88-3.59-14.55-1.27-2-2.39-3.79-2.56-9l3.49.11.13-4.24a21.92,21.92,0,0,0,9.8-6.85,26.06,26.06,0,0,0,2.61-3.73,15.77,15.77,0,0,0,2.68,1.13l-.09,2.85,2.15.06c.23,4.83,1.48,6.81,2.59,8.58s2,3.15,2,8.46H110c0-6.8-1.48-9.15-2.78-11.22a9.87,9.87,0,0,1-1.78-5.67l1.91.06.09-3.13a17,17,0,0,0,7.84-5.39,22,22,0,0,0,5-14.17A22,22,0,0,0,115.26,24.74ZM76.81,66.16c-10.64,0-19.3-10.57-19.3-23.56S66.17,19,76.81,19,96.11,29.6,96.11,42.6,87.45,66.16,76.81,66.16Zm26.3-9.81a12,12,0,0,1-6-1.62,35.13,35.13,0,0,0,1.94-11.59,34,34,0,0,0-5-18,12.58,12.58,0,0,1,9-4c7.86,0,14.26,7.88,14.26,17.57S111,56.35,103.11,56.35Z"/><path class="cls-3" d="M84.83,74.39,81,74.88a10.18,10.18,0,0,1-3,0l-.1,0a25.24,25.24,0,0,0-22.66,7.86L49.1,89.39a2.86,2.86,0,0,0,0,4l11,10.86.15.13a3.11,3.11,0,0,0,1.87.62,2.8,2.8,0,0,0,2-.8l5.06-4.7A2.13,2.13,0,0,1,70.43,99l21.64-2a15.85,15.85,0,0,0,9.42-3.13L120,78.76a4.57,4.57,0,0,0,.35-6.77h0a4.55,4.55,0,0,0-5.87-.5l-13.25,9.2a5.11,5.11,0,0,0,.54-3.85,5.31,5.31,0,0,0-1.38-2.42,5.22,5.22,0,0,0-2.14-1.3"/><path class="cls-4" d="M118.07,76.26,100.35,90.85l-.7.56A13.09,13.09,0,0,1,91.9,94L70.2,96a5.15,5.15,0,0,0-3,1.36l-5,4.69L51.36,91.56l6.1-6.71a22.25,22.25,0,0,1,19.89-7,13.13,13.13,0,0,0,4,.06l14.8-1.95.15,0a2.07,2.07,0,0,1,1.93.59,2.3,2.3,0,0,1,.61,1,2.14,2.14,0,0,1-1.4,2.56l-16.37,4-.13,0a2.53,2.53,0,0,0-1.61,3l0,.11a2.47,2.47,0,0,0,2.59,1.66l12.6.09,21.62-15.19a1.57,1.57,0,0,1,2,.15,1.57,1.57,0,0,1-.11,2.32Z"/><polygon class="cls-4" points="98.35 83.39 94.3 86.23 86.84 86.18 98.35 83.39"/></svg>