<svg id="Calque_1" data-name="Calque 1" xmlns="http://www.w3.org/2000/svg" viewBox="0 0 70 70"><defs><style>.cls-1{fill:none;}.cls-2{fill:#424661;}.cls-3{fill:#ff6444;}</style></defs><title>picto-events</title><rect class="cls-1" width="70" height="70"/><path class="cls-2" d="M61.7,18.54l-.76.76a5.42,5.42,0,0,1-4.59,1.82,7.23,7.23,0,0,1-7.48-7.48,5.42,5.42,0,0,1,1.82-4.59l.76-.76L43.54.38.38,43.54,8.3,51.46l.76-.76a5.42,5.42,0,0,1,4.59-1.82,7.23,7.23,0,0,1,7.48,7.48,5.42,5.42,0,0,1-1.82,4.59l-.76.76,7.92,7.92L69.62,26.46ZM51.65,41.41,26.46,66.6l-4.93-4.93a7.36,7.36,0,0,0,1.72-5.31,9.4,9.4,0,0,0-9.61-9.61,7.37,7.37,0,0,0-5.31,1.72L3.4,43.54,28.59,18.35l1.51-1.51L43.54,3.4l4.93,4.93a7.36,7.36,0,0,0-1.72,5.31,9.4,9.4,0,0,0,9.61,9.61,7.37,7.37,0,0,0,5.31-1.72l4.93,4.93L53.16,39.9Z"/><path class="cls-3" d="M38.94,28.67,34.66,24.4l1.51-1.51,4.27,4.27Z"/><path class="cls-3" d="M32.85,22.64l-4.27-4.27,1.51-1.51,4.27,4.27Z"/><path class="cls-3" d="M45.29,35.13,41,30.85l1.51-1.51,4.27,4.27Z"/><path class="cls-3" d="M51.65,41.41l-4.27-4.27,1.51-1.51,4.27,4.27Z"/></svg>