<?xml version="1.0" encoding="utf-8"?>
<!-- Generator: Adobe Illustrator 20.1.0, SVG Export Plug-In . SVG Version: 6.00 Build 0)  -->
<svg version="1.1" id="Calque_1" xmlns="http://www.w3.org/2000/svg" xmlns:xlink="http://www.w3.org/1999/xlink" x="0px" y="0px"
	 viewBox="0 0 70 70" style="enable-background:new 0 0 70 70;" xml:space="preserve">
<style type="text/css">
	.st0{fill:none;}
	.st1{fill:#434762;}
	.st2{fill:#EC654A;}
</style>
<title>picto-blog</title>
<rect class="st0" width="70" height="70"/>
<path class="st1" d="M35.3,0.5l-0.2,0.1c-0.2,0.1-0.3,0.2-0.4,0.4L2.8,54.4c-0.1,0.2-0.1,0.4-0.1,0.6l1.8,11.5
	c0.1,0.5,0.6,0.8,1.1,0.7h0.2L17,62.9c0.2-0.1,0.4-0.2,0.5-0.4L49.4,9.1c0.3-0.4,0.1-1-0.4-1.2c0,0,0,0,0,0L36,0.6
	C35.8,0.5,35.5,0.4,35.3,0.5z M36.5,3.5L46.1,9l-2.5,4.1l-9.5-5.6L36.5,3.5z M41.9,16.1L15.6,60.5l-8.8,3.3L6,55.5l26.3-45.1
	L41.9,16.1z"/>
<path class="st2" d="M69.3,69.2H10.1c-0.3,0-0.5-0.4-0.5-1s0.2-1,0.5-1h59.2c0.3,0,0.5,0.4,0.5,1S69.6,69.2,69.3,69.2z"/>
</svg>
