<?xml version="1.0" encoding="utf-8"?>
<!-- Generator: Adobe Illustrator 21.0.2, SVG Export Plug-In . SVG Version: 6.00 Build 0)  -->
<svg version="1.1" id="Calque_1" xmlns="http://www.w3.org/2000/svg" xmlns:xlink="http://www.w3.org/1999/xlink" x="0px" y="0px"
	 viewBox="0 0 760 890" style="enable-background:new 0 0 760 890;" xml:space="preserve">
<style type="text/css">
	.st0{fill:#424661;}
	.st1{fill:#FF6444;}
</style>
<g>
	<rect x="197.5" y="244.8" class="st0" width="258.1" height="12.3"/>
	<rect x="485.6" y="244.8" class="st0" width="37.7" height="12.3"/>
	<rect x="197.5" y="322.4" class="st0" width="258.1" height="12.3"/>
	<rect x="197.5" y="400" class="st0" width="225.6" height="12.3"/>
	<rect x="197.5" y="477.5" class="st0" width="169.4" height="12.3"/>
	<path class="st0" d="M682.5,206.3L417.9,470.9c-0.8,0.8-1.5,1.9-1.9,3L390.2,546c-1,2.9-0.3,6.2,1.9,8.3c2.2,2.2,5.4,2.9,8.3,1.9
		l72.1-25.7c1.1-0.4,2.1-1,3-1.9L740.1,264c10.9-10.9,10.9-28.7,0-39.6l-18.1-18.1C711.1,195.4,693.4,195.4,682.5,206.3z M411,535.5
		l19.5-54.5l206.4-206.4l35,35L465.5,516L411,535.5z M728.8,235.7c4.7,4.7,4.7,12.3,0,17l-45.6,45.6l-35-35l45.6-45.6
		c4.7-4.7,12.3-4.7,17,0L728.8,235.7z"/>
	<path class="st1" d="M732.6,559.9L732.6,559.9c-15.9-15.9-40.7-17.9-58.7-5l-49.6,34.4V379.9l-28.8,28.8v200.7L541.3,647
		c6.6-11.3,8.9-25,5.4-38.5c-2.4-9.1-7.2-17.5-13.8-24.2c-6.2-6.2-13.5-10.6-21.4-13c-7.9-2.4-14.2-2.9-20.2-2.3
		s-114.2,14.9-114.2,14.9l-38.3,4.8c-9.1,1.3-23,1.1-29.7-0.5l-1-0.2c-64-10.3-128.3,4.3-180.8,39.4V194.9h468.1v98.4l28.8-28.8
		v-86.7c0-5.5-4.5-10-10-10H110.5c-5.5,0-10,4.5-10,10v470.4c-6.6,5.8-12.9,11.9-18.9,18.4l-61.8,67.2C9,744.7,9,763,19.9,773.9
		l110,108.6l1.5,1.3c5.6,4.2,12.2,6.2,18.7,6.2c7.4,0,14.7-2.7,19.9-8l50.6-47c3.4-3.2,7.9-5.1,12.5-5.6l216.4-19.7
		c38.9-1.8,68.8-11.7,94.2-31.3l185.4-150.9c14.5-11.8,20.3-31,14.8-48.9C741.6,571.6,737.7,565.1,732.6,559.9z M709.5,602.6
		l-177.2,146l-7,5.6c-20.1,15.6-44.5,23.7-77.6,25.4l-216.9,20.9c-11.2,1.1-21.9,5.9-30.1,13.6l-50.5,46.9L42.4,755.6l61-67.1
		c50.4-55.5,124.8-81.8,198.9-70.4c11.8,2.5,29.4,2.2,39.9,0.6l148-19.5l1.5-0.3c6.7-1.6,13.9,0.6,19.3,5.9c2.9,2.9,5,6.5,6.1,10.5
		c3.2,12-5,23-14,25.6l-163.7,39.7l-1.3,0.4c-12.3,4.2-19.4,17.4-16.1,30.2l0.3,1.1c1.2,3.6,3.3,7,6,9.6c5.3,5.2,12.4,7.7,19.9,7
		l126,0.9l216.2-151.9c7.1-5.1,15.5-3.1,20.2,1.5c1.8,1.8,3.1,3.9,3.9,6.4C716.4,591.9,714.5,598.5,709.5,602.6z M512.3,673.9
		l-40.5,28.4l-74.6-0.5L512.3,673.9z"/>
</g>
</svg>
