<?xml version="1.0" encoding="utf-8"?>
<!-- Generator: Adobe Illustrator 21.0.2, SVG Export Plug-In . SVG Version: 6.00 Build 0)  -->
<svg version="1.1" id="Calque_1" xmlns="http://www.w3.org/2000/svg" xmlns:xlink="http://www.w3.org/1999/xlink" x="0px" y="0px"
	 viewBox="0 0 760 890" style="enable-background:new 0 0 760 890;" xml:space="preserve">
<style type="text/css">
	.st0{fill:#FF6444;}
	.st1{fill:#424661;}
</style>
<g>
	<path class="st0" d="M745,578.7c-2.2-7.1-6.1-13.6-11.3-18.8v0c-11.7-11.7-28.3-15.9-43.5-12V446.6c0-16.7-7.5-32.2-20.4-42.7v0
		c-27-21.8-56.5-41.2-87.8-57.8V332c2.8-5.4,5-11,6.7-16.7c6.2-6.2,10.9-15.8,15.1-30.8c3.6-12.5,7.1-30.4-2.7-44.1
		c4.4-30.7,0.4-54.1-11.9-69.7c-5-6.3-11-11-17.8-14c-6.2-7.4-13.9-13.5-22.1-17.6c-13-7.4-27.6-11.4-42.3-11.4
		c-2.9,0-5.8,0.2-8.4,0.4c-7.1,0.4-14.2,1.7-21.1,4.1c-7.8,2.7-15.4,6.6-21.8,11.1c-7.8,5-14.9,10.9-21,17.4
		c-11.9,11.7-20.3,26.7-24.5,43.3c-2.8,12.1-3.2,24.8-1.1,36.9c-9.6,13.4-6.1,31.3-2.6,43.6c4.2,14.8,8.9,24.3,15,30.5
		c1.7,5.8,3.9,11.4,6.6,16.8v13.6c-15.3,8.1-30.2,16.9-44.6,26.3l7.1-16.4l-1.7-14.9l-2.7-3.6c-1.4-1.9-3.3-4.1-5.4-6.6
		c-6.6-7.5-12.3-13.9-11.2-24.3c4.5-45.6-3.4-80-22.7-99.4c-10.3-10.4-23.6-16.2-38.6-17c-8-5.8-20.9-12.1-38.8-12.1c0,0,0,0,0,0
		c-9.7,0-19.9,2-30.2,5.8l-2.1,0.7c-16.9,5.2-52.1,16-64.8,92.7c-7,42-8.1,77.5-8.3,82.3l0.8,5.9c0.7,2.5,6.8,21.8,33.4,32.2
		c-3.6,1.1-6.8,2.1-9.3,2.8l-4.6,1.2c-10.9,2.9-21.5,6.9-31.5,11.9c-17.7,8.4-29.5,25.3-31.7,45.9l0,173.8
		c-13.8,9.9-26.7,21.3-38.4,34L21,733.9c-10.8,10.8-10.8,29.1,0.1,40l110,108.6l1.5,1.3c5.6,4.2,12.2,6.2,18.7,6.2
		c7.4,0,14.7-2.7,19.9-8l50.6-47c3.4-3.2,7.9-5.1,12.5-5.6l216.4-19.7c38.9-1.8,68.8-11.7,94.2-31.3l185.4-150.9
		C744.8,615.8,750.6,596.6,745,578.7z M440.2,371.7c0,0,0.1-18,16.8-29.2v-18.1l-0.8-1.4c-4.2-7.1-7-14.8-8.5-22.9l-0.3-4.5
		l-4.7-0.3c-0.1-0.1-3.7-2.1-8.4-18.7c-4.3-15-2-18.6-1.7-19c0.3-0.4,1.2-0.6,2.5-0.6h8.4l-2.8-8c-1-2.9-1.8-5.9-2.4-9.3
		c-2.2-9.5-2.2-19.6,0-29.1c2.8-11.3,8.7-21.7,17.2-30c4.8-5.1,10.2-9.5,16.3-13.4c4.7-3.3,9.8-5.9,15.2-7.8
		c4.4-1.5,8.9-2.3,13.9-2.6c12-1.3,24,1.2,34.9,7.5c6.9,3.4,12.7,8.6,16.8,15l1.7,2.4l2.8,0.3c0.2,0,5.4,0.7,10,6.7
		c5.1,6.7,10.1,21.1,5.1,51.2c-0.5,3-1.4,6.1-2.4,9l-3.1,8.8l9.3-0.8c0.5,0,1.6-0.1,2,0.3c0.1,0.1,2.8,3.6-1.7,19.3
		c-4.5,15.9-7.9,18.5-7.5,18.6h-5l-0.9,4.9c-1.4,8.1-4.4,15.8-8.6,22.9l-0.9,1.4v15.6c6.1,3,15.2,10.9,15.5,31.8
		c29.6,15.7,57.5,34,83,54.6c6.1,5,9.7,12.4,9.7,20.3l0,117.8L542.5,647c6.6-11.3,8.9-25,5.4-38.5c-2.4-9.1-7.2-17.5-13.8-24.2
		c-6.2-6.2-13.5-10.6-21.4-13s-14.2-2.9-20.2-2.3c-3.7,0.4-48.3,6.2-80.6,10.5V459.9l0-0.6c-1.4-13.5-9.9-25.4-22.1-31.1
		c-7.3-3.6-15-6.6-23-9.1C389.7,401.5,414.2,385.5,440.2,371.7z M150,460.6c1-9.3,6.9-17.6,15.4-21.7c8.5-4.2,17.4-7.5,26.5-10l0,0
		c3.7-0.8,12.3-3.4,19.7-5.8l11.9-27.7c0,0,7.2-11.7,22.2-14.6l-6-6c-0.5,0-1,0-1.5,0c-34.9,0-43.7-14-45.1-17.1
		c0.2-6.5,1.6-38.9,7.8-76.3c9.8-59.1,31.5-65.8,44.4-69.8c1.5-0.5,2.8-0.9,4.1-1.3c30.5-11.4,45.5,5.4,46.1,6.1l5.1,2.1
		c10.8-1,19.3,1.7,25.9,8.4c12.7,12.8,18,40.6,14.4,76.3c-2.2,22.9,10.6,37.4,18.2,46.1c0.7,0.7,1.3,1.4,1.8,2.1l-6,14
		c-19,9.5-44.2,9.1-44.5,9l-6.1,6c0,0,14.4,2.4,19.4,13l14.8,29.6c7.8,2.5,16,4.9,19.5,5.7l0,0c9.1,2.5,18,5.9,26.6,10.2
		c8.4,4,14.3,12.1,15.4,21.3v120.8c-12.8,1.7-21.7,2.9-21.7,2.9l-38.3,4.8c-9.1,1.3-23,1.1-29.7-0.5l-1-0.2
		C253.8,579.1,198,589,150,614.7c0,0,0,0,0,0L150,460.6z M710.7,602.6l-177.2,146l-7,5.6c-20.1,15.6-44.5,23.7-77.6,25.4L232,800.4
		c-11.2,1.1-21.9,5.9-30.1,13.6l-50.5,46.9L43.6,755.6l61-67.1c50.4-55.5,124.8-81.8,198.9-70.4c11.8,2.5,29.4,2.2,39.9,0.6
		l148-19.5l1.5-0.3c6.7-1.6,13.9,0.6,19.3,5.9c2.9,2.9,5,6.5,6.1,10.5c3.2,12-5,23-14,25.6l-163.7,39.7l-1.3,0.4
		c-12.3,4.2-19.4,17.4-16.1,30.2l0.3,1.1c1.2,3.6,3.3,7,6,9.6c5.3,5.2,12.4,7.7,19.9,7l126,0.9l216.2-151.9
		c7.1-5.1,15.5-3.1,20.2,1.5c1.8,1.8,3.1,3.9,3.9,6.4C717.6,591.9,715.7,598.5,710.7,602.6z M513.5,673.9L473,702.3l-74.6-0.5
		L513.5,673.9z"/>
	<path class="st1" d="M457,355.8v-13.3c-16.7,11.2-16.8,29.2-16.8,29.2l20.7,65.6l42.9-23.2L457,355.8z M452.4,370.3
		c0-0.3,0.1-0.6,0.2-1l33,41l-17.5,9.5L452.4,370.3z"/>
	<path class="st1" d="M553.3,339.9v15.9l-46.9,58.3l43.1,23.3l19.3-65.7C568.5,350.8,559.4,342.9,553.3,339.9z M542.1,419.8
		l-17.4-9.4l31.7-39.4L542.1,419.8z"/>
	<path class="st1" d="M346.3,442.4l-7.7-19.4l-14.8-29.6c-5-10.6-19.4-13-19.4-13v16.7l-28.6,89.6l-30.1-89.9c0,0,0-0.1,0-0.1v-16
		c-15,2.9-22.2,14.6-22.2,14.6l-11.9,27.7l-7.8,19.6c-0.8,1.9-0.8,4,0,5.9c0.8,1.9,2.3,3.3,4.2,4.1l3.7,0.5l17.2-1.8l47,65.3
		l45.3-65.6l17.1,1.8c2,0.2,4-0.3,5.6-1.5s2.7-3.1,2.9-5.1L346.3,442.4z M234.6,438.7l-17,1.8l5.1-12.8l11.4-26.5
		c0.1-0.1,0.2-0.2,0.3-0.4l23.5,70.2L234.6,438.7z M315.4,438.3l-21.6,31.3l21.3-66.7l12.6,25l4.9,12.2L315.4,438.3z"/>
</g>
</svg>
