<?xml version="1.0" encoding="utf-8"?>
<!-- Generator: Adobe Illustrator 21.0.2, SVG Export Plug-In . SVG Version: 6.00 Build 0)  -->
<svg version="1.1" id="Calque_1" xmlns="http://www.w3.org/2000/svg" xmlns:xlink="http://www.w3.org/1999/xlink" x="0px" y="0px"
	 viewBox="0 0 260 140" style="enable-background:new 0 0 260 140;" xml:space="preserve">
<style type="text/css">
	.st0{fill:#424661;}
	.st1{fill:#FF6444;}
</style>
<g>
	<path class="st0" d="M132.5,65.5c-0.1,0-0.3,0-0.4-0.1c-0.2-0.1-0.4-0.4-0.4-0.7V47.8c0-0.3,0.1-0.5,0.4-0.7c0.2-0.1,0.5-0.1,0.8,0
		l16.9,9.3c0.3,0.1,0.4,0.4,0.4,0.7c0,0.3-0.2,0.6-0.5,0.7l-16.9,7.6C132.7,65.5,132.6,65.5,132.5,65.5z M133.3,49.2v14.4l14.4-6.5
		L133.3,49.2z"/>
</g>
<path class="st0" d="M88.2,70.1l-1.5-2.7c0.5-0.5,0.7-1.2,0.3-1.9l-1.6-3c-0.4-0.8-1.4-1.1-2.1-0.6c-0.8,0.4-1.1,1.4-0.6,2.1l1.6,3
	c0.3,0.5,0.8,0.8,1.4,0.8c0.1,0,0.2,0,0.4,0l1.4,2.6v7.9h0.8v-8C88.3,70.3,88.3,70.2,88.2,70.1z"/>
<path class="st1" d="M179.2,28.4h-77.4c-1.3,0-2.3,1-2.3,2.3v32c-1.1-0.7-2.3-1.6-2.9-2.1c-0.5-0.3-0.9-0.6-1.2-0.9
	c-2-1.7-4.2-3-5.8-3.9v-0.2c0.1-0.2,0.1-0.3,0.2-0.5c0.6-0.5,1.1-1.4,1.4-2.6c0.5-1.4,0.4-2.4,0.1-3.2c0.3-2.3,0-4-0.9-5.1
	c-0.4-0.5-0.8-0.8-1.3-1.1c-0.4-0.7-1-1.4-1.8-1.9c0,0,0,0-0.1,0c-0.7-0.4-1.9-0.8-3.4-0.8h-0.4c-0.6,0-1.3,0.1-1.9,0.4
	c-0.7,0.2-1.2,0.5-1.6,0.8c0,0-0.1,0-0.1,0.1c-0.6,0.4-1.1,0.8-1.6,1.3c0,0-0.1,0.1-0.1,0.1c-0.6,0.7-1.5,1.8-1.9,3.4
	c0,0,0,0.1,0,0.1C76,47.4,76,48.1,76,48.8c-0.7,1.1-0.4,2.5-0.1,3.5c0,0,0,0,0,0c0.3,0.9,0.6,1.7,1.1,2.2c0.1,0.5,0.3,0.9,0.5,1.4
	c-1.4,0.8-3.6,2-5.7,3.8c-1.1,0.8-1.7,2.1-1.7,3.6v3.1v11.8c0,2.3,0.8,4.6,2.3,6.3l1.8,2.2l2.1,26.9c0.2,2.2,2,3.9,4.2,3.9h20.2
	c1.3,0,2.3-1,2.3-2.2l1.5-29.8h2.5c0.8,0,1.5-0.4,1.9-1l0.2-0.3h70.2c1.3,0,2.3-1,2.3-2.3V30.7C181.5,29.4,180.5,28.4,179.2,28.4z
	 M86.6,115.2h-6.2c-1,0-1.8-0.7-1.9-1.7l-2.2-27.7l-2.3-2.8c-1.1-1.3-1.7-3.1-1.7-4.8V66.4v-3.1c0-0.7,0.3-1.3,0.8-1.7
	c2.8-2.4,6-3.9,6.5-4.2c0.1,0,0.1-0.1,0.1-0.1v-1.6c-0.4-0.7-0.7-1.6-0.7-2.2c-0.2,0-0.6-0.4-1-1.6c-0.4-1.6,0-1.9,0.4-1.9h0.1
	c-0.3-0.9-0.3-1.8-0.1-2.6c0.2-1,0.7-1.7,1.3-2.4c0.4-0.4,0.8-0.7,1.3-1c0.4-0.2,0.7-0.4,1.2-0.6c0.4-0.1,0.7-0.2,1.1-0.2
	c0.1,0,0.3,0,0.4,0c1,0,1.7,0.3,2.3,0.6c1,0.5,1.1,1.8,1.1,1.8s2.7-0.4,1.6,4.8c0.3,0.1,0.6,0.6,0.1,1.9c-0.4,1.3-0.7,1.6-1,1.6
	c-0.1,0-0.1,0-0.2-0.1c-0.1,0.6-0.3,1.2-0.5,1.8v1.9c0,0.1,0.1,0.1,0.1,0.1c0.6,0.3,3.7,1.9,6.5,4.2c1.4,1,5.6,4.2,7.3,4.7
	c1.7,0.5,9.2-1.8,9.9-1.5c0.7,0.3,1.8,3.1,1.2,3.6c-0.6,0.5-8.1,3.6-10.2,3.3c-2.1-0.2-8.9-2.2-8.9-2.2l-0.6,8.6H78.8
	c-0.3,0-0.6,0.2-0.7,0.4c-0.1,0.3-0.1,0.6,0,0.8l2.9,4.1c0.1,0.2,0.4,0.3,0.6,0.3h3.9l2.2,30.6c0,0,0,0.1,0,0.1
	C87.5,115,87.1,115.2,86.6,115.2z M102.2,83.2l-1.6,32h-0.7H89.4h-1c0.1-0.1,0.2-0.2,0.3-0.4c-0.1-0.1-0.1-0.2-0.1-0.3l-2.3-31.3
	h-4.6l-2.9-4.1h30.9l-2.3,3.4l0,0l-0.5,0.8H102.2z M179.2,81.9h-70.5l1.6-2.3c0.1-0.1,0.2-0.3,0.2-0.5c0-0.4-0.3-0.8-0.8-0.8h0H93.4
	l0.5-7.6c2,0.5,6.4,1.8,8.1,1.9c0.1,0,0.2,0,0.3,0c1.5,0,4.4-1,6-1.5c0,0,3.9-1.4,4.6-2c0.3-0.3,0.5-0.8,0.4-1.5
	c-0.1-0.9-0.9-2.9-1.8-3.4c-0.2-0.1-0.3-0.1-0.6-0.1c-0.6,0-1.8,0.2-3.7,0.6c-1.9,0.4-4.2,0.9-5.4,0.9V30.7h77.4V81.9z"/>
<path class="st0" d="M141.3,98V84.2h-1.6V98L123,114.7c-0.3,0.3-0.3,0.8,0,1.1c0.2,0.2,0.4,0.2,0.6,0.2c0.2,0,0.4-0.1,0.6-0.2
	l15.6-15.6v15c0,0.4,0.3,0.8,0.8,0.8s0.8-0.3,0.8-0.8v-15l15.6,15.6c0.2,0.2,0.4,0.2,0.6,0.2c0.2,0,0.4-0.1,0.6-0.2
	c0.3-0.3,0.3-0.8,0-1.1L141.3,98z"/>
</svg>
