<?xml version="1.0" encoding="utf-8"?>
<!-- Generator: Adobe Illustrator 21.0.2, SVG Export Plug-In . SVG Version: 6.00 Build 0)  -->
<svg version="1.1" id="Calque_1" xmlns="http://www.w3.org/2000/svg" xmlns:xlink="http://www.w3.org/1999/xlink" x="0px" y="0px"
	 viewBox="0 0 760 890" style="enable-background:new 0 0 760 890;" xml:space="preserve">
<style type="text/css">
	.st0{fill:#FF6548;}
	.st1{fill:#424661;}
</style>
<g>
	<path class="st0" d="M745,578.7c-2.2-7.1-6.1-13.6-11.3-18.8v0c-15.9-15.9-40.7-17.9-58.7-5l-132.5,92c6.6-11.3,8.9-25,5.4-38.5
		c-2.4-9.1-7.2-17.5-13.8-24.2c-12.5-12.5-29.8-17.7-46.4-14.2l-1.1,0.1c-3.1-18.7-14-27.7-27.1-27.7h-73.7v-64.6
		c86.2,0,156.1-69.9,156.1-156.1V275c0-8.6-7-15.6-15.6-15.6c-8.6,0-15.6,7-15.6,15.6v31.2c0,77.6-62.9,140.5-140.5,140.5
		s-140.5-62.9-140.5-140.5V275c0-8.6-7-15.6-15.6-15.6c-8.6,0-15.6,7-15.6,15.6v46.8c0,86.2,69.9,156.1,156.1,156.1v64.6h-73.7
		c-15.4,0-28,12.6-28,28v14.8c-64.4,4-125.4,32.6-170.2,81.4L21,733.9c-10.8,10.8-10.8,29.1,0.1,40l110,108.6l1.5,1.3
		c5.6,4.2,12.2,6.2,18.7,6.2c7.4,0,14.7-2.7,19.9-8l50.6-47c3.4-3.2,7.9-5.1,12.5-5.6l216.4-19.7c38.9-1.8,68.8-11.7,94.2-31.3
		l185.4-150.9C744.8,615.8,750.6,596.6,745,578.7z M268.9,570.5c0-6.6,5.4-12,12-12h178.6c6.6,0,12,5.4,12,12v1.6L340,588.8
		c-9.1,1.3-23,1.1-29.7-0.5l-1-0.2c-13.5-2.2-27-3.2-40.4-3.2V570.5z M711.3,604.3l-177.9,145l-7,5.6c-20.1,15.5-44.6,23.5-77.7,25
		l-217.1,19.7c-11.2,1-21.9,5.8-30.2,13.4l-50.7,46.6L43.4,753.8l61.4-66.8c50.7-55.2,125.2-81.1,199.3-69.4
		c11.8,2.6,29.4,2.4,39.9,0.9l148.1-18.7l1.5-0.3c6.7-1.5,13.9,0.7,19.2,6c2.9,2.9,5,6.5,6,10.5c3.1,12-5.1,23-14.1,25.5
		l-163.9,38.8l-1.3,0.4c-12.3,4.1-19.5,17.3-16.3,30.1l0.3,1.1c1.2,3.6,3.3,7,5.9,9.6c5.2,5.3,12.3,7.8,19.8,7.1l126,1.6l217-150.7
		c7.1-5.1,15.5-3,20.2,1.7c1.8,1.8,3.1,3.9,3.8,6.4C718.3,593.7,716.3,600.3,711.3,604.3z M506.7,671.8l-40.6,28.2l-74.6-0.9
		L506.7,671.8z"/>
	<path class="st1" d="M369.2,413.4c-59.6,0-108-48.4-108-108V113c0-59.6,48.4-108,108-108s108,48.4,108,108v192.4
		C477.2,365,428.7,413.4,369.2,413.4z M369.2,21c-50.7,0-92,41.3-92,92v192.4c0,50.7,41.3,92,92,92s92-41.3,92-92V113
		C461.2,62.3,419.9,21,369.2,21z"/>
</g>
</svg>
