<svg id="Calque_1" data-name="Calque 1" xmlns="http://www.w3.org/2000/svg" viewBox="0 0 70 70"><defs><style>.cls-1{fill:#434762;}.cls-2{fill:#ec654a;}.cls-3{fill:none;}</style></defs><title>creation-picto-6</title><path class="cls-1" d="M68.56,30H66.12V19.61a3.84,3.84,0,0,0-3.83-3.83H51.68V13.54a.15.15,0,0,0-.15-.15H45.63a.15.15,0,0,0-.15.15v2.24H38.41v-2.3a1.54,1.54,0,0,0-1.54-1.54H34a1.54,1.54,0,0,0-1.54,1.54v2.3H4.3A3.84,3.84,0,0,0,.47,19.61V54.24A3.84,3.84,0,0,0,4.3,58.07h58a3.84,3.84,0,0,0,3.83-3.83v-14h2.45a1,1,0,0,0,1-1v-8.3A1,1,0,0,0,68.56,30ZM64.2,30H57.08a1,1,0,0,0-1,1v8.3a1,1,0,0,0,1,1H64.2v14a1.92,1.92,0,0,1-1.92,1.92H39.84V49.39a1,1,0,0,0-.95-.95H29.52a1,1,0,0,0-.95.95v6.76H4.3a1.92,1.92,0,0,1-1.78-1.22H4.91A.88.88,0,0,0,5.8,54v-3.9a.88.88,0,0,0-.88-.88H2.39V21.57h24V17.69h5.2V25.6a.72.72,0,0,0,.72.72h6.17a.72.72,0,0,0,.72-.72V17.69H44v7.25h9.16V17.69h9.13a1.92,1.92,0,0,1,1.92,1.92Z"/><path class="cls-2" d="M22.79,40.46a.55.55,0,0,0,.55.55h10a.55.55,0,0,0,.55-.55v-10a.55.55,0,0,0-.55-.55h-10a.55.55,0,0,0-.55.55v10Z"/><path class="cls-2" d="M9.11,43.91a.55.55,0,0,0,.55.55h2.07a.55.55,0,0,0,.55-.55V28.43a.55.55,0,0,0-.55-.55H9.66a.55.55,0,0,0-.55.55Z"/><rect class="cls-3" width="70" height="70"/></svg>