<?xml version="1.0" encoding="utf-8"?>
<!-- Generator: Adobe Illustrator 21.0.2, SVG Export Plug-In . SVG Version: 6.00 Build 0)  -->
<svg version="1.1" id="Calque_1" xmlns="http://www.w3.org/2000/svg" xmlns:xlink="http://www.w3.org/1999/xlink" x="0px" y="0px"
	 viewBox="0 0 760 890" style="enable-background:new 0 0 760 890;" xml:space="preserve">
<style type="text/css">
	.st0{fill:#424661;}
	.st1{fill:#FF6444;}
</style>
<g>
	<polygon class="st0" points="341,588.6 352.3,587.2 352.3,455.4 614.1,455.4 614.1,445.7 82.7,445.7 82.7,455.4 341,455.4 	"/>
	<path class="st1" d="M745,578.7c-2.2-7.1-6.1-13.6-11.3-18.8v0c-15.9-15.9-40.7-17.9-58.7-5l-37.5,26V256.8L409.4,368.3V256.8
		L181.2,368.3V105.4H58v588.2l-37,40.3c-10.8,10.8-10.8,29.1,0.1,40l110,108.6l1.5,1.3c5.6,4.2,12.2,6.2,18.7,6.2
		c7.4,0,14.7-2.7,19.9-8l50.6-47c3.4-3.2,7.9-5.1,12.5-5.6l216.4-19.7c38.9-1.8,68.8-11.7,94.2-31.3l185.4-150.9
		C744.8,615.8,750.6,596.6,745,578.7z M82.7,130.5h75.1v284.3L386,300.3v114.5l228.1-114.5v296.9L542.5,647
		c6.6-11.3,8.9-25,5.4-38.5c-2.4-9.1-7.2-17.5-13.8-24.2c-12.5-12.5-29.8-17.7-46.4-14.2L340,588.8c-9.1,1.3-23,1.1-29.7-0.5l-1-0.2
		c-84.2-13.6-168.9,15.8-226.6,78.6l0,0V130.5z M711.3,604.3l-177.9,145l-7,5.6c-20.1,15.5-44.6,23.5-77.7,25l-217.1,19.7
		c-11.2,1-21.9,5.8-30.2,13.4l-50.7,46.6L43.4,753.8l61.4-66.8c50.7-55.2,125.2-81.1,199.3-69.4c11.8,2.6,29.4,2.4,39.9,0.9
		l148.1-18.7l1.5-0.3c6.7-1.5,13.9,0.7,19.2,6c2.9,2.9,5,6.5,6,10.5c3.1,12-5.1,23-14.1,25.5l-163.9,38.8l-1.3,0.4
		c-12.3,4.1-19.5,17.3-16.3,30.1l0.3,1.1c1.2,3.6,3.3,7,5.9,9.6c5.2,5.3,12.3,7.8,19.8,7.1l126,1.6l217-150.7
		c7.1-5.1,15.5-3,20.2,1.7c1.8,1.8,3.1,3.9,3.8,6.4C718.3,593.7,716.3,600.3,711.3,604.3z M506.7,671.8l-40.6,28.2l-74.6-0.9
		L506.7,671.8z"/>
</g>
</svg>
