<?xml version="1.0" encoding="utf-8"?>
<!-- Generator: Adobe Illustrator 21.0.2, SVG Export Plug-In . SVG Version: 6.00 Build 0)  -->
<svg version="1.1" id="Calque_1" xmlns="http://www.w3.org/2000/svg" xmlns:xlink="http://www.w3.org/1999/xlink" x="0px" y="0px"
	 viewBox="0 0 170 105" style="enable-background:new 0 0 170 105;" xml:space="preserve">
<style type="text/css">
	.st0{fill:none;}
	.st1{fill:#EC654F;}
	.st2{fill:#FFFFFF;stroke:#444661;stroke-width:2;stroke-miterlimit:10;}
	.st3{fill:#EC654A;}
	.st4{fill:#FFFFFF;}
</style>
<title>asset6</title>
<rect y="0" class="st0" width="170" height="105"/>
<path class="st1" d="M114.7,48.7h-1c-1.7-4.2-4.4-8-7.9-10.9c-0.5-2,0-4.2,1.2-5.9c0.7-1.1,0.8-2.6,0.1-3.7
	c-0.6-1.2-1.9-1.9-3.2-1.9h-0.5c-3.8,0.3-7.3,2.1-9.8,4.9c-1.8-0.5-3.6-0.8-5.5-0.9c-1.3-0.1-2.6-0.2-3.9-0.2
	c-8-0.1-15.8,2.8-21.9,8c-5.8,4.8-9.1,12-9.2,19.5c0,1.9,0.2,3.8,0.7,5.7c0,0,0,0.1,0,0.1v0.1c0.5,1.9,1.1,3.7,2,5.5
	c1.3,2.9,3.1,5.6,5.2,7.9c2,2.2,3.2,4.9,3.3,7.9v0.8c0,0.1,0,0.3,0,0.4c0.3,1.7,1.7,3,3.5,3h10.3c1.9,0,3.5-1.6,3.5-3.5V85
	c1.5,0.1,2.9,0.1,4.4,0.1v0.4c0,1.9,1.6,3.5,3.5,3.5h10.2c1.9,0,3.5-1.6,3.5-3.5V83c0.2-2.2,1.2-4.2,2.8-5.6l0.4-0.3l0,0
	c0,0,0.1-0.1,0.1-0.1c3.3-2.9,5.9-6.6,7.4-10.8h0.8c2.7,0,4.9-2.2,4.9-4.9v-7.6C119.6,50.9,117.4,48.7,114.7,48.7
	C114.7,48.7,114.7,48.7,114.7,48.7z M117.7,61.4c0,0.7-0.6,1.3-1.3,1.3h-2.2c-0.8,0-1.6,0.5-1.9,1.3c-1.4,4.3-3.8,8.1-7.2,11l0,0
	l0,0l-0.4,0.3l0,0c-2.5,2.2-4.1,5.4-4.2,8.7v2.5H90.1v-2.2c0-1.1-0.9-1.9-2-1.9c-0.1,0-0.1,0-0.2,0c-1.2,0.1-2.3,0.2-3.5,0.2
	c-1.5,0-3-0.1-4.5-0.3c-1.1-0.1-2,0.6-2.2,1.7c0,0.1,0,0.2,0,0.3v2.4H67.4V86c-0.2-4-1.8-7.9-4.5-10.9c-2-2.1-3.6-4.6-4.8-7.3
	c0,0,0,0,0-0.1c-0.8-1.6-1.4-3.3-1.9-5l0,0l0,0c-0.4-1.7-0.6-3.4-0.6-5.1c0-13.8,12.9-25,28.8-25c1.2,0,2.5,0.1,3.7,0.2h0.1
	c2,0.1,3.9,0.5,5.8,1.2c0.9,0.5,2,0.2,2.5-0.6c1.2-1.9,3.7-4.2,8.5-4.8c-1.9,2.7-2.5,6.1-1.7,9.3c0,0.6,0.3,1.1,0.7,1.5
	c3.7,3,6.6,6.9,8.1,11.5c0.3,0.8,1,1.3,1.8,1.3h2.4c0.7,0,1.3,0.6,1.3,1.3L117.7,61.4L117.7,61.4L117.7,61.4z"/>
<path class="st2" d="M70.7,41c0,0-5.1-3.7-3-11c0,0,1.8-6.3,9.6-6.5c4.4,0.1,8.1,3.2,9.1,7.5c0.6,2,0.4,4.1-0.5,6
	C85.8,37,76.9,35.3,70.7,41z"/>
<path class="st3" d="M84.8,74.4L81,74.9c-1,0.1-2,0.1-3,0h-0.1c-8.4-1.4-16.9,1.6-22.7,7.9l-6.1,6.7c-1.1,1.1-1.1,2.9,0,4l11,10.9
	l0.2,0.1c0.5,0.4,1.2,0.6,1.9,0.6c0.7,0,1.5-0.3,2-0.8l5.1-4.7c0.4-0.3,0.8-0.5,1.3-0.5l21.6-2c3.4,0,6.7-1.1,9.4-3.1L120,78.8
	c2-1.6,2.3-4.5,0.7-6.4c-0.1-0.1-0.2-0.2-0.3-0.3l0,0c-1.6-1.6-4.1-1.8-5.9-0.5l-13.2,9.2c0.7-1.2,0.9-2.5,0.5-3.8
	c-0.2-0.9-0.7-1.8-1.4-2.4c-0.6-0.6-1.3-1-2.1-1.3"/>
<path class="st4" d="M118.1,76.3l-17.7,14.6l-0.7,0.6c-2.2,1.7-5,2.6-7.8,2.6l-21.7,2c-1.1,0.1-2.2,0.6-3,1.4l-5,4.7L51.4,91.6
	l6.1-6.7c5-5.5,12.5-8.2,19.9-7c1.3,0.2,2.7,0.2,4,0.1L96.2,76h0.2c0.7-0.2,1.4,0.1,1.9,0.6c0.3,0.3,0.5,0.6,0.6,1
	c0.3,1.1-0.3,2.2-1.4,2.6l-16.4,4h-0.1c-1.2,0.4-1.9,1.7-1.6,3v0.1c0.4,1.1,1.4,1.8,2.6,1.7L94.5,89l21.6-15.2
	c0.6-0.4,1.5-0.4,2,0.2c0.6,0.6,0.6,1.6,0,2.2C118.1,76.2,118.1,76.2,118.1,76.3L118.1,76.3z"/>
<polygon class="st4" points="98.3,83.4 94.3,86.2 86.8,86.2 "/>
</svg>
