<svg id="Calque_1" data-name="Calque 1" xmlns="http://www.w3.org/2000/svg" viewBox="0 0 170 105"><defs><style>.cls-1,.cls-2,.cls-3{fill:none;}.cls-2,.cls-3{stroke:#ec654a;stroke-miterlimit:10;}.cls-2{stroke-width:3px;}.cls-4{fill:#434661;}.cls-5{fill:#ec654a;}.cls-6{fill:#fff;}</style></defs><title>asset4</title><rect class="cls-1" width="170" height="105"/><circle class="cls-2" cx="83.72" cy="60.21" r="34.37"/><circle class="cls-3" cx="83.72" cy="60.21" r="25.38"/><path class="cls-4" d="M88.53,60.11H78.09v.69a9,9,0,0,0,2,6.16,6.81,6.81,0,0,0,5.4,2.31,13.22,13.22,0,0,0,2-.15,11.29,11.29,0,0,0,1.88-.45v1a14.16,14.16,0,0,1-3.87.55,7.78,7.78,0,0,1-6-2.55,9.83,9.83,0,0,1-2.32-6.87v-.69H73.84v-1h3.29V55.24H73.84v-1h3.29v-1a9.89,9.89,0,0,1,2.3-6.86,7.71,7.71,0,0,1,6-2.56,12.62,12.62,0,0,1,1.88.14q.93.14,2,.4v1A15.71,15.71,0,0,0,87.44,45a11.94,11.94,0,0,0-2-.17,6.81,6.81,0,0,0-5.39,2.26,9,9,0,0,0-2,6.17v1H88.53v1H78.09v3.91H88.53Z"/><path class="cls-5" d="M84.83,74.39,81,74.88a10.18,10.18,0,0,1-3,0l-.1,0a25.24,25.24,0,0,0-22.66,7.86L49.1,89.39a2.86,2.86,0,0,0,0,4l11,10.86.15.13a3.11,3.11,0,0,0,1.87.62,2.8,2.8,0,0,0,2-.8l5.06-4.7A2.13,2.13,0,0,1,70.43,99l21.64-2a15.85,15.85,0,0,0,9.42-3.13L120,78.76a4.57,4.57,0,0,0,.35-6.77h0a4.55,4.55,0,0,0-5.87-.5l-13.25,9.2a5.11,5.11,0,0,0,.54-3.85,5.31,5.31,0,0,0-1.38-2.42,5.22,5.22,0,0,0-2.14-1.3"/><path class="cls-6" d="M118.07,76.26,100.35,90.85l-.7.56A13.09,13.09,0,0,1,91.9,94L70.2,96a5.15,5.15,0,0,0-3,1.36l-5,4.69L51.36,91.56l6.1-6.71a22.25,22.25,0,0,1,19.89-7,13.13,13.13,0,0,0,4,.06l14.8-1.95.15,0a2.07,2.07,0,0,1,1.93.59,2.3,2.3,0,0,1,.61,1,2.14,2.14,0,0,1-1.4,2.56l-16.37,4-.13,0a2.53,2.53,0,0,0-1.61,3l0,.11a2.47,2.47,0,0,0,2.59,1.66l12.6.09,21.62-15.19a1.57,1.57,0,0,1,2,.15,1.57,1.57,0,0,1-.11,2.32Z"/><polygon class="cls-6" points="98.35 83.39 94.3 86.23 86.84 86.18 98.35 83.39"/></svg>