<?xml version="1.0" encoding="utf-8"?>
<!-- Generator: Adobe Illustrator 21.0.2, SVG Export Plug-In . SVG Version: 6.00 Build 0)  -->
<svg version="1.1" id="Calque_1" xmlns="http://www.w3.org/2000/svg" xmlns:xlink="http://www.w3.org/1999/xlink" x="0px" y="0px"
	 viewBox="0 0 130 70" style="enable-background:new 0 0 130 70;" xml:space="preserve">
<style type="text/css">
	.st0{fill:#424661;}
	.st1{fill:#FF6444;}
</style>
<g>
	<g>
		<path class="st0" d="M67.4,32.3c-0.1,0-0.1,0-0.2-0.1C67.1,32.1,67,32,67,31.9v-8.5c0-0.1,0.1-0.3,0.2-0.3c0.1-0.1,0.3-0.1,0.4,0
			l8.5,4.6c0.1,0.1,0.2,0.2,0.2,0.4s-0.1,0.3-0.2,0.3l-8.5,3.8C67.5,32.3,67.4,32.3,67.4,32.3z M67.8,24.1v7.2L75,28L67.8,24.1z"/>
	</g>
	<path class="st0" d="M45.2,34.6l-0.7-1.4c0.3-0.2,0.3-0.6,0.2-0.9l-0.8-1.5c-0.2-0.4-0.7-0.5-1.1-0.3c-0.4,0.2-0.5,0.7-0.3,1.1
		l0.8,1.5c0.1,0.3,0.4,0.4,0.7,0.4c0.1,0,0.1,0,0.2,0l0.7,1.3v3.9h0.4L45.2,34.6C45.2,34.6,45.2,34.6,45.2,34.6z"/>
	<path class="st1" d="M90.8,13.7H52c-0.6,0-1.2,0.5-1.2,1.2v16c-0.6-0.4-1.1-0.8-1.5-1c-0.2-0.2-0.4-0.3-0.6-0.4
		c-1-0.9-2.1-1.5-2.9-1.9v-0.1c0-0.1,0.1-0.2,0.1-0.2c0.3-0.3,0.5-0.7,0.7-1.3c0.2-0.7,0.2-1.2,0-1.6c0.2-1.1,0-2-0.5-2.6
		c-0.2-0.2-0.4-0.4-0.7-0.5c-0.2-0.4-0.5-0.7-0.9-0.9c0,0,0,0,0,0c-0.4-0.2-0.9-0.4-1.7-0.4h-0.2c-0.3,0-0.6,0.1-1,0.2
		c-0.3,0.1-0.6,0.3-0.8,0.4c0,0,0,0,0,0c-0.3,0.2-0.6,0.4-0.8,0.7c0,0,0,0,0,0.1c-0.3,0.4-0.8,0.9-0.9,1.7c0,0,0,0,0,0.1
		c-0.1,0.4-0.1,0.7-0.1,1.1c-0.3,0.6-0.2,1.3-0.1,1.7c0,0,0,0,0,0c0.1,0.5,0.3,0.8,0.5,1.1c0.1,0.2,0.1,0.5,0.2,0.7
		c-0.7,0.4-1.8,1-2.9,1.9c-0.5,0.4-0.9,1.1-0.9,1.8v1.6v5.9c0,1.2,0.4,2.3,1.1,3.2l0.9,1.1l1.1,13.5c0.1,1.1,1,1.9,2.1,1.9h10.1
		c0.6,0,1.1-0.5,1.2-1.1l0.7-14.9h1.2c0.4,0,0.7-0.2,1-0.5l0.1-0.2h35.2c0.6,0,1.2-0.5,1.2-1.2V14.8C91.9,14.2,91.4,13.7,90.8,13.7z
		 M44.4,57.2h-3.1c-0.5,0-0.9-0.4-0.9-0.9l-1.1-13.9l-1.2-1.4c-0.6-0.7-0.9-1.5-0.9-2.4v-5.9v-1.6c0-0.3,0.1-0.7,0.4-0.9
		c1.4-1.2,3-1.9,3.3-2.1c0,0,0.1,0,0.1-0.1v-0.8c-0.2-0.4-0.3-0.8-0.4-1.1c-0.1,0-0.3-0.2-0.5-0.8c-0.2-0.8,0-1,0.2-1h0
		c-0.1-0.4-0.1-0.9-0.1-1.3c0.1-0.5,0.4-0.9,0.7-1.2c0.2-0.2,0.4-0.4,0.6-0.5c0.2-0.1,0.4-0.2,0.6-0.3c0.2-0.1,0.4-0.1,0.6-0.1
		c0.1,0,0.1,0,0.2,0c0.5,0,0.9,0.1,1.2,0.3c0.5,0.3,0.6,0.9,0.6,0.9s1.3-0.2,0.8,2.4c0.1,0.1,0.3,0.3,0.1,1
		c-0.2,0.6-0.4,0.8-0.5,0.8c0,0-0.1,0-0.1,0c0,0.3-0.1,0.6-0.3,0.9v1c0,0,0,0.1,0.1,0.1c0.3,0.1,1.9,0.9,3.3,2.1
		c0.7,0.5,2.8,2.1,3.6,2.3c0.8,0.2,4.6-0.9,5-0.7c0.3,0.2,0.9,1.6,0.6,1.8c-0.3,0.3-4.1,1.8-5.1,1.7c-1.1-0.1-4.5-1.1-4.5-1.1
		l-0.3,4.3h-6.9c-0.1,0-0.3,0.1-0.3,0.2s-0.1,0.3,0,0.4l1.4,2.1c0.1,0.1,0.2,0.2,0.3,0.2h2L45,56.8c0,0,0,0,0,0.1
		C44.9,57.1,44.6,57.2,44.4,57.2z M52.2,41.1l-0.8,16.1H51h-5.2h-0.5c0.1-0.1,0.1-0.1,0.2-0.2c0-0.1-0.1-0.1-0.1-0.2l-1.1-15.7h-2.3
		L40.5,39H56l-1.2,1.7l0,0l-0.3,0.4H52.2z M90.8,40.4H55.5l0.8-1.2c0.1-0.1,0.1-0.1,0.1-0.2c0-0.2-0.2-0.4-0.4-0.4h0h-8.2l0.3-3.8
		c1,0.3,3.2,0.9,4.1,1c0.1,0,0.1,0,0.2,0c0.8,0,2.2-0.5,3-0.8c0,0,2-0.7,2.3-1c0.2-0.2,0.2-0.4,0.2-0.8c-0.1-0.5-0.4-1.5-0.9-1.7
		c-0.1,0-0.2-0.1-0.3-0.1c-0.3,0-0.9,0.1-1.8,0.3c-0.9,0.2-2.1,0.5-2.7,0.5V14.8h38.8V40.4z"/>
	<path class="st0" d="M71.8,48.5v-6.9H71v6.9l-8.4,8.4c-0.2,0.2-0.2,0.4,0,0.6c0.1,0.1,0.2,0.1,0.3,0.1s0.2,0,0.3-0.1l7.8-7.8v7.5
		c0,0.2,0.2,0.4,0.4,0.4s0.4-0.2,0.4-0.4v-7.5l7.8,7.8c0.1,0.1,0.2,0.1,0.3,0.1c0.1,0,0.2,0,0.3-0.1c0.2-0.2,0.2-0.4,0-0.6
		L71.8,48.5z"/>
</g>
</svg>
