<?xml version="1.0" encoding="utf-8"?>
<!-- Generator: Adobe Illustrator 21.0.2, SVG Export Plug-In . SVG Version: 6.00 Build 0)  -->
<svg version="1.1" id="Calque_1" xmlns="http://www.w3.org/2000/svg" xmlns:xlink="http://www.w3.org/1999/xlink" x="0px" y="0px"
	 viewBox="0 0 760 890" style="enable-background:new 0 0 760 890;" xml:space="preserve">
<style type="text/css">
	.st0{fill:#FF6449;}
	.st1{fill:#434661;}
</style>
<g>
	<path class="st0" d="M540.3,56.9c-35.4,0-69.7,15.4-96.2,42.7c-34.4-38.9-80.7-62.8-131.7-62.8c-105.6,0-191.5,102.5-191.5,228.4
		s85.9,228.4,191.5,228.4c68.1,0,127.9-42.6,161.9-106.6c20.4,12.2,42.9,18.7,66,18.7c81,0,146.8-78.2,146.8-174.4
		S621.2,56.9,540.3,56.9z M312.4,465.6c-90.2,0-163.5-89.9-163.5-200.4S222.2,64.8,312.4,64.8s163.5,89.9,163.5,200.4
		S402.5,465.6,312.4,465.6z M540.3,377.7c-19,0-37.5-5.6-54.3-16.3c11.5-29.3,17.9-61.9,17.9-96.3c0-54.2-15.9-104-42.4-143.2
		c21.8-23.9,49.4-37.1,78.8-37.1c65.5,0,118.8,65.7,118.8,146.4S605.8,377.7,540.3,377.7z"/>
	<path class="st0" d="M151.3,890c-6.5,0-13.1-2-18.7-6.2l-1.5-1.3l-110-108.6c-10.9-10.9-10.9-29.2-0.1-40l61.8-67.2
		c57.7-62.8,142.4-92.2,226.6-78.6l1,0.2c6.7,1.6,20.6,1.8,29.7,0.5l147.7-18.6c16.6-3.5,33.9,1.7,46.4,14.2
		c6.7,6.7,11.4,15,13.8,24.2c3.5,13.5,1.2,27.2-5.4,38.5L675,555c18.1-13,42.9-10.9,58.7,5v0c5.2,5.2,9.1,11.7,11.3,18.8
		c5.5,17.9-0.3,37.1-14.8,48.9L544.9,778.5c-25.4,19.6-55.3,29.5-94.2,31.3l-216.4,19.7c-4.6,0.4-9.1,2.4-12.5,5.6l-50.6,47
		C165.9,887.3,158.7,890,151.3,890z M43.4,753.8l107.3,105.9l50.7-46.6c8.3-7.7,19-12.4,30.2-13.4l217.1-19.7
		c33.1-1.5,57.6-9.4,77.7-25l7-5.6l177.9-145c5-4.1,7-10.6,5.1-16.8c-0.8-2.5-2.1-4.7-3.8-6.4c-4.7-4.7-13.1-6.8-20.2-1.7
		l-217,150.7l-126-1.6c-7.5,0.6-14.6-1.9-19.8-7.1c-2.6-2.6-4.7-6-5.9-9.6l-0.3-1.1c-3.2-12.8,4-26,16.3-30.1l1.3-0.4l163.9-38.8
		c9-2.5,17.2-13.5,14.1-25.5c-1-4-3.1-7.6-6-10.5c-5.3-5.3-12.5-7.5-19.2-6l-1.5,0.3L344,618.5c-10.6,1.5-28.2,1.7-39.9-0.9
		C230,605.9,155.6,631.8,104.8,687L43.4,753.8z M42.7,754.6L42.7,754.6C42.7,754.6,42.7,754.6,42.7,754.6z M391.6,699.1l74.6,0.9
		l40.6-28.2L391.6,699.1z"/>
	<path class="st1" d="M298.8,536.5h5.9c0.8,11.3,3.6,32.6,13.5,52.8c5.7,0.4,12.4,0.4,18.2-0.1c-11.4-18.9-14.7-41.1-15.6-52.7h5.2
		c21,0,38-17,38-38V485c-5.2,1.8-10.6,3.3-16,4.5v8.9c0,12.1-9.9,22-22,22h-27.2c-12.1,0-22-9.9-22-22v-8.9
		c-5.4-1.2-10.7-2.7-16-4.5v13.4C260.8,519.4,277.8,536.5,298.8,536.5z"/>
	<path class="st1" d="M534,443h3.5c0.9,13,4.5,39.3,18.6,62c18.4,29.7,28.7,67.2,30.6,111.4l15.5-10.7c-3.1-42.7-14-79.3-32.5-109.1
		c-11.8-19-15.1-41.8-16.1-53.6h2.9c15.4,0,28-12.6,28-28v-17.4c-5.2,2-10.6,3.5-16,4.8V415c0,6.6-5.4,12-12,12H534
		c-6.6,0-12-5.4-12-12v-10.7c-5.4-0.8-10.7-1.9-16-3.4V415C506,430.4,518.5,443,534,443z"/>
</g>
</svg>
