<?xml version="1.0" encoding="utf-8"?>
<!-- Generator: Adobe Illustrator 22.1.0, SVG Export Plug-In . SVG Version: 6.00 Build 0)  -->
<svg version="1.1" id="Calque_1" xmlns="http://www.w3.org/2000/svg" xmlns:xlink="http://www.w3.org/1999/xlink" x="0px" y="0px"
	 viewBox="0 0 220 140" style="enable-background:new 0 0 220 140;" xml:space="preserve">
<style type="text/css">
	.st0{fill:#32354F;}
</style>
<path class="st0" d="M145.6,52.2c-0.2-0.6-0.4-1.1-0.7-1.5c-0.9-1.8-2.2-3.4-3.9-4.4l-25.9-15c-3.2-1.6-7-1.6-10.2,0L79,46.1
	c-1.7,1.1-3.1,2.6-3.9,4.4c-0.3,0.5-0.5,1.1-0.7,1.5c-0.3,1-0.5,1.9-0.5,2.9v29.8c0.1,3.7,2,6.9,5.1,8.9l25.8,14.9
	c3.3,1.8,7.1,1.8,10.3,0.1l25.8-14.9c3.1-1.9,5-5.3,5.1-8.9V55.1C146.1,54.1,145.9,53.2,145.6,52.2z M107.5,35.8
	c1.6-0.8,3.5-0.8,5.1,0l25.8,14.9l-25.9,14.8c-1.6,0.8-3.5,0.8-5.1,0L81.7,50.7L107.5,35.8z M140.9,84.9c-0.2,1.7-1.1,3.4-2.5,4.4
	l-25.9,14.8c-1.6,0.7-3.5,0.7-5.1,0L81.6,89.3c-1.4-1-2.4-2.6-2.5-4.3v-6.4l26.6,15.3c2.8,1.4,6.1,1.4,8.8,0L141,78.6L140.9,84.9
	L140.9,84.9z M140.9,76l-0.8,0.4l-27,15.6c-2,1.1-4.5,1.1-6.5,0l-27-15.6L79,75.9v-9l26.6,15.3c2.8,1.4,6.1,1.4,8.8,0l26.6-15.3V76z
	 M140.9,64.4l-27.6,15.9c-2,1.1-4.5,1.1-6.5,0l-27-15.6l-0.7-0.4v-9.2L104.9,70c3.2,1.7,7,1.7,10.3,0L141,55.1L140.9,64.4
	L140.9,64.4z"/>
</svg>
