<svg id="Calque_1" data-name="Calque 1" xmlns="http://www.w3.org/2000/svg" viewBox="0 0 170 105"><defs><style>.cls-1,.cls-4{fill:none;}.cls-2{fill:#ec654f;}.cls-3,.cls-6{fill:#fff;}.cls-3{stroke:#444661;stroke-width:2px;}.cls-3,.cls-4{stroke-miterlimit:10;}.cls-4{stroke:#ec654f;}.cls-5{fill:#ec654a;}</style></defs><title>asset6</title><rect class="cls-1" width="170" height="105"/><path class="cls-2" d="M114.73,48.71h-1a27.32,27.32,0,0,0-7.91-10.92A7.18,7.18,0,0,1,107,31.94a3.64,3.64,0,0,0,.11-3.74,3.68,3.68,0,0,0-3.2-1.9l-.46,0a14.81,14.81,0,0,0-9.82,4.95,27.44,27.44,0,0,0-5.47-.93,36.91,36.91,0,0,0-3.89-.22,33.25,33.25,0,0,0-21.94,8,25.79,25.79,0,0,0-9.22,19.52,24.27,24.27,0,0,0,.67,5.69s0,.08,0,.11v.07a26.07,26.07,0,0,0,2,5.48,28.91,28.91,0,0,0,5.25,7.92,12.41,12.41,0,0,1,3.3,7.88v.8a2.12,2.12,0,0,0,0,.42,3.52,3.52,0,0,0,3.46,3H78.11a3.5,3.5,0,0,0,3.5-3.5V85a35.8,35.8,0,0,0,4.36.05v.41a3.5,3.5,0,0,0,3.5,3.5H99.63a3.5,3.5,0,0,0,3.5-3.5V83a8.2,8.2,0,0,1,2.81-5.63l.38-.33,0,0a.32.32,0,0,0,.1-.1,27.14,27.14,0,0,0,7.44-10.8h.8a4.93,4.93,0,0,0,4.92-4.92V53.6A4.87,4.87,0,0,0,114.73,48.71ZM103.93,30h0l-.23-1.83Zm13.74,31.39a1.31,1.31,0,0,1-1.3,1.3h-2.23A1.94,1.94,0,0,0,112.28,64a24.45,24.45,0,0,1-7.21,11l0,0h0l-.39.34,0,0a12.45,12.45,0,0,0-4.24,8.72v2.49H90.05V84.34a1.94,1.94,0,0,0-2.13-1.92,32.17,32.17,0,0,1-3.51.19,33.33,33.33,0,0,1-4.48-.3,1.93,1.93,0,0,0-2.19,1.92v2.45H67.45V86A16.93,16.93,0,0,0,62.9,75.14a26.16,26.16,0,0,1-4.79-7.29s0,0,0-.07a22.53,22.53,0,0,1-1.86-5s0,0,0,0v0a22.32,22.32,0,0,1-.62-5.14c0-13.78,12.94-25,28.84-25a35.25,35.25,0,0,1,3.69.2h.09A18.85,18.85,0,0,1,94,34a1.94,1.94,0,0,0,2.52-.62c1.25-1.85,3.74-4.18,8.52-4.77a11.42,11.42,0,0,0-1.66,9.29,2,2,0,0,0,.72,1.45,24.74,24.74,0,0,1,8.1,11.45A1.94,1.94,0,0,0,114,52.13h2.38a1.31,1.31,0,0,1,1.3,1.3v7.93h0Z"/><path class="cls-3" d="M70.73,41s-5.11-3.66-3-11c0,0,1.84-6.31,9.58-6.47A9.58,9.58,0,0,1,86.38,31a8.28,8.28,0,0,1-.53,6S76.92,35.33,70.73,41Z"/><path class="cls-4" d="M71.05,42.53a17,17,0,0,1,15.33-4"/><path class="cls-5" d="M84.83,74.39,81,74.88a10.18,10.18,0,0,1-3,0l-.1,0a25.24,25.24,0,0,0-22.66,7.86L49.1,89.39a2.86,2.86,0,0,0,0,4l11,10.86.15.13a3.11,3.11,0,0,0,1.87.62,2.8,2.8,0,0,0,2-.8l5.06-4.7A2.13,2.13,0,0,1,70.43,99l21.64-2a15.85,15.85,0,0,0,9.42-3.13L120,78.76a4.57,4.57,0,0,0,.35-6.77h0a4.55,4.55,0,0,0-5.87-.5l-13.25,9.2a5.11,5.11,0,0,0,.54-3.85,5.31,5.31,0,0,0-1.38-2.42,5.22,5.22,0,0,0-2.14-1.3"/><path class="cls-6" d="M118.07,76.26,100.35,90.85l-.7.56A13.09,13.09,0,0,1,91.9,94L70.2,96a5.15,5.15,0,0,0-3,1.36l-5,4.69L51.36,91.56l6.1-6.71a22.25,22.25,0,0,1,19.89-7,13.13,13.13,0,0,0,4,.06l14.8-1.95.15,0a2.07,2.07,0,0,1,1.93.59,2.3,2.3,0,0,1,.61,1,2.14,2.14,0,0,1-1.4,2.56l-16.37,4-.13,0a2.53,2.53,0,0,0-1.61,3l0,.11a2.47,2.47,0,0,0,2.59,1.66l12.6.09,21.62-15.19a1.57,1.57,0,0,1,2,.15,1.57,1.57,0,0,1-.11,2.32Z"/><polygon class="cls-6" points="98.35 83.39 94.3 86.23 86.84 86.18 98.35 83.39"/></svg>