<svg id="Calque_1" data-name="Calque 1" xmlns="http://www.w3.org/2000/svg" viewBox="0 0 70 70"><defs><style>.cls-1{fill:none;}.cls-2{fill:#424661;}.cls-3{fill:#ff6444;}</style></defs><title>picto-printer</title><rect class="cls-1" width="70" height="70"/><path class="cls-2" d="M62.44,29.24h-4V19.51a1.2,1.2,0,0,0-1.2-1.2H51.92V7.86a1.2,1.2,0,0,0-1.2-1.2H19.28a1.2,1.2,0,0,0-1.2,1.2V18.31H12.72a1.2,1.2,0,0,0-1.2,1.2v9.73h-4a5.89,5.89,0,0,0-5.88,5.88V62.69a1.2,1.2,0,0,0,1.2,1.2h15.2v4.81a1.2,1.2,0,0,0,1.2,1.2H50.72a1.2,1.2,0,0,0,1.2-1.2V63.9h15.2a1.2,1.2,0,0,0,1.2-1.2V35.12A5.89,5.89,0,0,0,62.44,29.24Zm-6.36-8.53v8.53H51.92V20.71ZM49.51,9.06V29.24h-29V9.06ZM13.92,20.71h4.16v8.53H13.92Zm4.16,35.73H15.53a1.6,1.6,0,1,1,0-3.21h2.55Zm2.4,11.06V53.24h29V67.51ZM51.92,53.24h2.55a1.6,1.6,0,1,1,0,3.21H51.92Zm14,8.26h-14V58.85h2.55a4,4,0,1,0,0-8H15.53a4,4,0,1,0,0,8h2.55v2.64h-14V35.12a3.48,3.48,0,0,1,3.48-3.48H62.44a3.48,3.48,0,0,1,3.48,3.48Z"/><path class="cls-3" d="M45.13,61.86H24.86a1.2,1.2,0,0,0,0,2.4H45.13a1.2,1.2,0,0,0,0-2.4Z"/><path class="cls-3" d="M45.13,56.73H24.86a1.2,1.2,0,0,0,0,2.4H45.13a1.2,1.2,0,0,0,0-2.4Z"/><path class="cls-3" d="M61.32,36H47.64a1.2,1.2,0,0,0,0,2.4H61.32a1.2,1.2,0,1,0,0-2.4Z"/><path class="cls-3" d="M44.54,36.17A1.2,1.2,0,1,0,45,37.63,1.22,1.22,0,0,0,44.54,36.17Z"/></svg>