<svg id="Calque_1" data-name="Calque 1" xmlns="http://www.w3.org/2000/svg" viewBox="0 0 70 70"><defs><style>.cls-1{fill:#434762;}.cls-2{fill:#ec654a;}.cls-3{fill:none;}</style></defs><title>creation-picto-2</title><path class="cls-1" d="M34.7,16.15a7.84,7.84,0,1,1,7.84-7.84A7.85,7.85,0,0,1,34.7,16.15Zm0-12.43a4.59,4.59,0,1,0,4.6,4.59A4.6,4.6,0,0,0,34.7,3.71Z"/><path class="cls-2" d="M15.06,18.11a6.6,6.6,0,1,1,6.6-6.6A6.6,6.6,0,0,1,15.06,18.11Zm0-10a3.35,3.35,0,1,0,3.35,3.35A3.36,3.36,0,0,0,15.06,8.16Z"/><path class="cls-2" d="M54.07,18.11a6.6,6.6,0,1,1,6.6-6.6A6.61,6.61,0,0,1,54.07,18.11Zm0-10a3.35,3.35,0,1,0,3.35,3.35A3.36,3.36,0,0,0,54.07,8.16Z"/><path class="cls-1" d="M46.12,18.85H23.27a6,6,0,0,0-5.95,5.95V42.22a6,6,0,0,0,5.95,5.95h1.35V64.94a4.6,4.6,0,0,0,4.59,4.59h2.64a4.54,4.54,0,0,0,3-1.16,4.54,4.54,0,0,0,3,1.16h2.11a4.6,4.6,0,0,0,4.59-4.59V48.16h1.62a6,6,0,0,0,5.95-5.95V24.8A6,6,0,0,0,46.12,18.85Zm2.7,23.37a2.71,2.71,0,0,1-2.7,2.7H44.5V28.58H41.26V64.94a1.35,1.35,0,0,1-1.35,1.35H37.8a1.35,1.35,0,0,1-1.35-1.35V46.54H33.21V64.94a1.35,1.35,0,0,1-1.35,1.35H29.22a1.35,1.35,0,0,1-1.35-1.35V28.58H24.62V44.92H23.27a2.71,2.71,0,0,1-2.7-2.7V24.8a2.71,2.71,0,0,1,2.7-2.7H46.13a2.71,2.71,0,0,1,2.7,2.7V42.22Z"/><path class="cls-2" d="M14.31,50.2V58A1.34,1.34,0,0,1,13,59.36H11.56A1.34,1.34,0,0,1,10.23,58V28.58H7V41.23H5.43a1.49,1.49,0,0,1-1.49-1.49V24.93a1.49,1.49,0,0,1,1.49-1.49h9.63V20.2H5.43A4.73,4.73,0,0,0,.7,24.93V39.75a4.73,4.73,0,0,0,4.73,4.73H7V58a4.58,4.58,0,0,0,4.58,4.58H13A4.58,4.58,0,0,0,17.55,58V50.2Z"/><path class="cls-2" d="M64.57,20.2H54.94v3.24h9.62a1.49,1.49,0,0,1,1.49,1.49V39.75a1.49,1.49,0,0,1-1.49,1.49H63V28.58H59.77V58a1.34,1.34,0,0,1-1.33,1.34H57A1.34,1.34,0,0,1,55.69,58V50.2H52.45V58A4.58,4.58,0,0,0,57,62.6h1.41A4.58,4.58,0,0,0,63,58V44.48h1.55a4.73,4.73,0,0,0,4.73-4.73V24.93A4.73,4.73,0,0,0,64.57,20.2Z"/><rect class="cls-3" width="70" height="70"/></svg>