<?xml version="1.0" encoding="utf-8"?>
<!-- Generator: Adobe Illustrator 21.0.2, SVG Export Plug-In . SVG Version: 6.00 Build 0)  -->
<svg version="1.1" id="Calque_1" xmlns="http://www.w3.org/2000/svg" xmlns:xlink="http://www.w3.org/1999/xlink" x="0px" y="0px"
	 viewBox="0 0 760 890" style="enable-background:new 0 0 760 890;" xml:space="preserve">
<style type="text/css">
	.st0{fill:#434762;}
	.st1{fill:#FF6444;}
</style>
<g>
	<g>
		<path class="st0" d="M594.4,381.9l-7.8-9.8c-3-3.8-73.7-93-73.7-152.9c0-52.5,41-80,81.5-80s81.5,27.5,81.5,80
			c0,59.9-70.6,149.1-73.7,152.9L594.4,381.9z M594.4,159.1c-22.8,0-61.5,12.6-61.5,60c0,42.1,43.3,105.4,61.5,130.1
			c18.1-24.7,61.5-88,61.5-130.1C655.9,171.8,617.2,159.1,594.4,159.1z"/>
	</g>
	<g>
		<path class="st0" d="M593.9,252.8c-18.6,0-33.7-15.1-33.7-33.7s15.1-33.7,33.7-33.7s33.7,15.1,33.7,33.7S612.4,252.8,593.9,252.8z
			 M593.9,195.5c-13,0-23.7,10.6-23.7,23.7c0,13,10.6,23.7,23.7,23.7s23.7-10.6,23.7-23.7C617.5,206.1,606.9,195.5,593.9,195.5z"/>
	</g>
	<path class="st1" d="M745,578.7c-2.2-7.1-6.1-13.6-11.3-18.8v0c-15.9-15.9-40.7-17.9-58.7-5l-44.5,30.9c28-46,44.4-99.9,44.4-157.6
		c0-44.6-9.7-87-27-125.2c-4.9,8.9-10,17.4-15,25.3c11.2,28.7,17.8,59.6,19,91.8H521c-1.3-48.7-12.9-94.3-31.4-138.3
		c11.5-4,23-8.9,34.4-14.2c-1.4-3.6-2.7-7.2-3.9-10.8c-10.5,5.5-21.2,10.6-32.3,14.7c-42.3-75.8-69.6-95.6-108.1-129
		c46.2,6.4,96.8,21,139.1,44.8c2.7-6.8,6.3-12.9,10.6-18.3c-43.4-26.6-93.9-42.8-148-44.6l-5.9-0.2c-1.5,0-3.1-0.1-4.6-0.1
		c-1.5,0-3.1,0.1-4.6,0.1l-5.9,0.2c-83,2.9-157.7,39.1-210.9,95.7c-0.1,0.1-0.1,0.1-0.1,0.2c0,0,0,0-0.1,0
		c-51.1,54.4-82.5,127.6-82.5,208c0,73.7,26.4,141.2,70.1,193.9c-19.7,12.1-38,26.9-54.1,44.5L21,733.9c-10.8,10.8-10.8,29.1,0.1,40
		l110,108.6l1.5,1.3c5.6,4.2,12.2,6.2,18.7,6.2c7.4,0,14.7-2.7,19.9-8l50.6-47c3.4-3.2,7.9-5.1,12.5-5.6l216.4-19.7
		c38.9-1.8,68.8-11.7,94.2-31.3l185.4-150.9C744.8,615.8,750.6,596.6,745,578.7z M651.9,434c-2.5,67-27.9,128.2-68.8,176.3
		c-17.2-11.5-35.2-21.4-53.7-30c-5.1-4.1-10.8-7.1-16.8-8.9c-3.1-1-6-1.6-8.7-1.9c-3.1-1.2-6.1-2.5-9.3-3.6
		c16.1-41.6,25.1-86,26.3-131.8H651.9z M547.9,608.5c-0.7-2.8-1.8-5.5-2.9-8.2c11.2,6.5,22.1,13.3,32.1,20.4
		c-2.3,2.5-4.7,4.9-7.2,7.3l-27.3,19C549.1,635.7,551.4,621.9,547.9,608.5z M375.8,147.3c43.3,36.5,77.2,78.9,101.7,127.5
		c-33.2,9-66.7,15.5-101.7,16.4V147.3z M375.7,299.6c35.5-0.9,70.3-6.2,103.8-15.7c18.2,42.7,28.4,88.9,29.7,136.4H375.7V299.6z
		 M375.7,434h133.5c-1.3,43.3-11.3,88.7-27,128.2c-34.7-10.2-69.6-19-106.5-19.9V434z M375.7,553.7c32.9,1,67.3,8.4,98.8,17.7
		c-32.3,4.2-96.3,12.6-96.3,12.6l-2.6,0.3V553.7z M364.7,147.3v144.1c-35.3-0.9-69.4-6.9-102.9-15.9
		C286.6,226.9,321,183.8,364.7,147.3z M257.1,562.1c-17.3-45-25.9-84.8-27.2-128.2h134.8v108.3C327.5,543.2,292.2,552,257.1,562.1z
		 M364.7,553.9v31.8l-24.7,3.1c-9.1,1.3-23,1.1-29.7-0.5l-1-0.2c-13.8-2.2-27.7-3.2-41.4-3.1c-2.2-4.3-4.3-8.6-6.4-13
		C295.2,562.1,329.2,554.9,364.7,553.9z M255.9,585.3c-13.7,0.7-27.4,2.4-40.7,5.3c12.3-5.5,24.7-10.4,36.3-15.1
		C253,578.9,254.5,582.1,255.9,585.3z M229.9,420.4c1.4-47.5,11.7-93.7,30-136.4c33.8,9.5,69,14.8,104.8,15.7v120.7H229.9z
		 M358.9,142.7c-42,33.6-84.9,84.3-107.3,130.1c-29.8-10-58.6-30.2-85.5-46.8C213.6,181.5,290.3,151.4,358.9,142.7z M162.1,234.7
		c27.6,17.7,56.9,37,87.5,47.6c-18.7,44.9-29.1,88.2-30.5,138.1h-133C88.8,349.2,117,284.3,162.1,234.7z M86.2,434h133
		c1.2,45.7,10.4,90.2,26.8,131.8c-31.5,11.1-61.7,26-89.9,44.6C114.5,562.2,88.7,500.9,86.2,434z M710.7,602.6L533.5,748.5l-7,5.6
		c-20.1,15.6-44.5,23.7-77.6,25.4L232,800.4c-11.2,1.1-21.9,5.9-30.1,13.6l-50.5,46.9L43.6,755.6l61-67.1
		c50.4-55.5,124.8-81.8,198.9-70.4c11.8,2.5,29.4,2.2,39.9,0.6l148-19.5l1.5-0.3c6.7-1.6,13.9,0.6,19.3,5.9c2.9,2.9,5,6.5,6.1,10.4
		c3.2,12-5,23-14,25.6l-163.7,39.7l-1.3,0.4c-12.3,4.2-19.4,17.4-16.1,30.2l0.3,1.1c1.2,3.6,3.3,7,6,9.6c5.3,5.2,12.4,7.7,19.9,7
		l126,0.9l216.2-151.9c7.1-5.1,15.5-3.1,20.2,1.5c1.8,1.8,3.1,3.9,3.9,6.4C717.6,591.9,715.7,598.5,710.7,602.6z M513.5,673.9
		L473,702.3l-74.6-0.5L513.5,673.9z"/>
</g>
</svg>
