<?xml version="1.0" encoding="utf-8"?>
<!-- Generator: Adobe Illustrator 21.0.2, SVG Export Plug-In . SVG Version: 6.00 Build 0)  -->
<svg version="1.1" id="Calque_1" xmlns="http://www.w3.org/2000/svg" xmlns:xlink="http://www.w3.org/1999/xlink" x="0px" y="0px"
	 viewBox="0 0 130 70" style="enable-background:new 0 0 130 70;" xml:space="preserve">
<style type="text/css">
	.st0{fill:#FF6444;}
	.st1{fill:#424661;}
</style>
<g>
	<path class="st0" d="M84.2,38.7c-0.1-0.4-0.3-0.7-0.6-1l0,0c-0.6-0.6-1.5-0.8-2.3-0.6v-5.3c0-0.9-0.4-1.7-1.1-2.2l0,0
		c-1.4-1.1-3-2.2-4.6-3v-0.7c0.1-0.3,0.3-0.6,0.4-0.9c0.3-0.3,0.6-0.8,0.8-1.6c0.2-0.7,0.4-1.6-0.1-2.3c0.2-1.6,0-2.8-0.6-3.7
		c-0.3-0.3-0.6-0.6-0.9-0.7c-0.3-0.4-0.7-0.7-1.2-0.9c-0.7-0.4-1.4-0.6-2.2-0.6c-0.2,0-0.3,0-0.4,0c-0.4,0-0.7,0.1-1.1,0.2
		c-0.4,0.1-0.8,0.3-1.1,0.6c-0.4,0.3-0.8,0.6-1.1,0.9c-0.6,0.6-1.1,1.4-1.3,2.3c-0.1,0.6-0.2,1.3-0.1,1.9c-0.5,0.7-0.3,1.6-0.1,2.3
		c0.2,0.8,0.5,1.3,0.8,1.6c0.1,0.3,0.2,0.6,0.3,0.9v0.7c-0.8,0.4-1.6,0.9-2.3,1.4l0.4-0.9l-0.1-0.8L65.3,26
		c-0.1-0.1-0.2-0.2-0.3-0.3c-0.3-0.4-0.6-0.7-0.6-1.3c0.2-2.4-0.2-4.2-1.2-5.2c-0.5-0.5-1.2-0.9-2-0.9c-0.4-0.3-1.1-0.6-2-0.6l0,0
		c-0.5,0-1,0.1-1.6,0.3l-0.1,0c-0.9,0.3-2.7,0.8-3.4,4.9c-0.4,2.2-0.4,4.1-0.4,4.3l0,0.3c0,0.1,0.4,1.1,1.8,1.7
		c-0.2,0.1-0.4,0.1-0.5,0.1l-0.2,0.1c-0.6,0.2-1.1,0.4-1.7,0.6c-0.9,0.4-1.5,1.3-1.7,2.4v9.1c-0.7,0.5-1.4,1.1-2,1.8l-3.2,3.5
		c-0.6,0.6-0.6,1.5,0,2.1l5.8,5.7l0.1,0.1c0.3,0.2,0.6,0.3,1,0.3c0.4,0,0.8-0.1,1-0.4l2.7-2.5c0.2-0.2,0.4-0.3,0.7-0.3l11.4-1
		c2-0.1,3.6-0.6,4.9-1.6l9.7-7.9C84.1,40.6,84.4,39.6,84.2,38.7z M68.2,27.8c0,0,0-0.9,0.9-1.5v-0.9l0-0.1c-0.2-0.4-0.4-0.8-0.4-1.2
		l0-0.2l-0.2,0c0,0-0.2-0.1-0.4-1c-0.2-0.8-0.1-1-0.1-1c0,0,0.1,0,0.1,0h0.4l-0.1-0.4c-0.1-0.2-0.1-0.3-0.1-0.5
		c-0.1-0.5-0.1-1,0-1.5c0.1-0.6,0.5-1.1,0.9-1.6c0.3-0.3,0.5-0.5,0.9-0.7c0.2-0.2,0.5-0.3,0.8-0.4c0.2-0.1,0.5-0.1,0.7-0.1
		c0.6-0.1,1.3,0.1,1.8,0.4c0.4,0.2,0.7,0.5,0.9,0.8l0.1,0.1l0.1,0c0,0,0.3,0,0.5,0.4c0.3,0.4,0.5,1.1,0.3,2.7c0,0.2-0.1,0.3-0.1,0.5
		l-0.2,0.5l0.5,0c0,0,0.1,0,0.1,0c0,0,0.1,0.2-0.1,1c-0.2,0.8-0.4,1-0.4,1h-0.3l0,0.3c-0.1,0.4-0.2,0.8-0.5,1.2l0,0.1v0.8
		c0.3,0.2,0.8,0.6,0.8,1.7c1.6,0.8,3,1.8,4.4,2.9c0.3,0.3,0.5,0.7,0.5,1.1v6.2l-6.2,4.3c0.3-0.6,0.5-1.3,0.3-2
		c-0.1-0.5-0.4-0.9-0.7-1.3c-0.3-0.3-0.7-0.6-1.1-0.7c-0.4-0.1-0.7-0.2-1.1-0.1c-0.2,0-2.5,0.3-4.2,0.6v-6.3v0
		c-0.1-0.7-0.5-1.3-1.2-1.6c-0.4-0.2-0.8-0.3-1.2-0.5C65.5,29.4,66.8,28.5,68.2,27.8z M52.9,32.5c0.1-0.5,0.4-0.9,0.8-1.1
		c0.4-0.2,0.9-0.4,1.4-0.5l0,0c0.2,0,0.6-0.2,1-0.3l0.6-1.5c0,0,0.4-0.6,1.2-0.8L57.6,28c0,0-0.1,0-0.1,0c-1.8,0-2.3-0.7-2.4-0.9
		c0-0.3,0.1-2,0.4-4c0.5-3.1,1.7-3.5,2.3-3.7c0.1,0,0.1,0,0.2-0.1c1.6-0.6,2.4,0.3,2.4,0.3l0.3,0.1c0.6-0.1,1,0.1,1.4,0.4
		c0.7,0.7,0.9,2.1,0.8,4c-0.1,1.2,0.6,2,1,2.4c0,0,0.1,0.1,0.1,0.1l-0.3,0.7c-1,0.5-2.3,0.5-2.3,0.5L61,28.3c0,0,0.8,0.1,1,0.7
		l0.8,1.6c0.4,0.1,0.8,0.3,1,0.3l0,0c0.5,0.1,0.9,0.3,1.4,0.5c0.4,0.2,0.8,0.6,0.8,1.1v6.3c-0.7,0.1-1.1,0.2-1.1,0.2l-2,0.3
		c-0.5,0.1-1.2,0.1-1.6,0l-0.1,0c-2.9-0.5-5.8,0.1-8.4,1.4l0,0V32.5z M82.4,39.9l-9.3,7.7l-0.4,0.3c-1.1,0.8-2.3,1.2-4.1,1.3
		l-11.4,1.1c-0.6,0.1-1.1,0.3-1.6,0.7L53,53.5l-5.7-5.5l3.2-3.5c2.6-2.9,6.5-4.3,10.4-3.7c0.6,0.1,1.5,0.1,2.1,0l7.8-1l0.1,0
		c0.4-0.1,0.7,0,1,0.3c0.2,0.2,0.3,0.3,0.3,0.6c0.2,0.6-0.3,1.2-0.7,1.3L62.9,44l-0.1,0c-0.6,0.2-1,0.9-0.8,1.6l0,0.1
		c0.1,0.2,0.2,0.4,0.3,0.5c0.3,0.3,0.7,0.4,1,0.4l6.6,0l11.3-8c0.4-0.3,0.8-0.2,1.1,0.1c0.1,0.1,0.2,0.2,0.2,0.3
		C82.7,39.4,82.6,39.7,82.4,39.9z M72,43.7l-2.1,1.5l-3.9,0L72,43.7z"/>
	<path class="st1" d="M69,27v-0.7c-0.9,0.6-0.9,1.5-0.9,1.5l1.1,3.4l2.3-1.2L69,27z M68.8,27.7C68.8,27.7,68.8,27.7,68.8,27.7
		l1.7,2.1l-0.9,0.5L68.8,27.7z"/>
	<path class="st1" d="M74.1,26.1V27L71.6,30l2.3,1.2l1-3.4C74.9,26.7,74.4,26.3,74.1,26.1z M73.5,30.3l-0.9-0.5l1.7-2.1L73.5,30.3z"
		/>
	<path class="st1" d="M63.2,31.5l-0.4-1l-0.8-1.6c-0.3-0.6-1-0.7-1-0.7v0.9l-1.5,4.7L58,29.1v0v-0.8c-0.8,0.2-1.2,0.8-1.2,0.8
		l-0.6,1.5l-0.4,1c0,0.1,0,0.2,0,0.3c0,0.1,0.1,0.2,0.2,0.2l0.2,0l0.9-0.1l2.5,3.4l2.4-3.4l0.9,0.1c0.1,0,0.2,0,0.3-0.1
		c0.1-0.1,0.1-0.2,0.2-0.3L63.2,31.5z M57.4,31.3l-0.9,0.1l0.3-0.7l0.6-1.4c0,0,0,0,0,0l1.2,3.7L57.4,31.3z M61.6,31.3l-1.1,1.6
		l1.1-3.5l0.7,1.3l0.3,0.6L61.6,31.3z"/>
</g>
</svg>
