<?xml version="1.0" encoding="utf-8"?>
<!-- Generator: Adobe Illustrator 21.0.2, SVG Export Plug-In . SVG Version: 6.00 Build 0)  -->
<svg version="1.1" id="Calque_1" xmlns="http://www.w3.org/2000/svg" xmlns:xlink="http://www.w3.org/1999/xlink" x="0px" y="0px"
	 viewBox="0 0 130 70" style="enable-background:new 0 0 130 70;" xml:space="preserve">
<style type="text/css">
	.st0{fill:#424661;}
	.st1{fill:#FF6444;}
</style>
<path class="st0" d="M72.6,37.4H59.3c-0.1,0-0.2-0.1-0.2-0.2c0-0.1,0.1-0.2,0.2-0.2h13.4c0.1,0,0.2,0.1,0.2,0.2
	C72.8,37.3,72.7,37.4,72.6,37.4z"/>
<path class="st0" d="M71.6,39.9H59.3c-0.1,0-0.2-0.1-0.2-0.2s0.1-0.2,0.2-0.2h12.3c0.1,0,0.2,0.1,0.2,0.2S71.7,39.9,71.6,39.9z"/>
<path class="st0" d="M72.6,42.6H59.3c-0.1,0-0.2-0.1-0.2-0.2s0.1-0.2,0.2-0.2h13.4c0.1,0,0.2,0.1,0.2,0.2S72.7,42.6,72.6,42.6z"/>
<path class="st0" d="M71.6,45.1H59.3c-0.1,0-0.2-0.1-0.2-0.2s0.1-0.2,0.2-0.2h12.3c0.1,0,0.2,0.1,0.2,0.2S71.7,45.1,71.6,45.1z"/>
<path class="st0" d="M72.6,47.9H59.3c-0.1,0-0.2-0.1-0.2-0.2s0.1-0.2,0.2-0.2h13.4c0.1,0,0.2,0.1,0.2,0.2S72.7,47.9,72.6,47.9z"/>
<g>
	<path class="st0" d="M53.5,44H39.3c-0.1,0-0.2-0.1-0.2-0.2v-3.5c0-0.1,0.1-0.2,0.2-0.2h14.1c0.1,0,0.2,0.1,0.2,0.2v3.5
		C53.7,43.9,53.6,44,53.5,44z M39.5,43.6h13.7v-3.1H39.5V43.6z"/>
</g>
<path class="st0" d="M67.2,29.4c0-0.5,0.3-1,0.8-1.3c-0.1-0.3-0.2-0.6-0.4-0.9c-0.6,0.1-1-0.1-1.4-0.5c-0.4-0.4-0.5-0.8-0.4-1.4
	c-0.3-0.1-0.6-0.3-0.9-0.4c-0.3,0.5-0.8,0.8-1.4,0.8c-0.5,0-1.1-0.3-1.4-0.8c-0.3,0.1-0.6,0.2-0.9,0.4c0.1,0.6,0,1-0.4,1.4
	c-0.4,0.4-0.8,0.6-1.4,0.5c-0.1,0.3-0.3,0.6-0.4,0.9c0.5,0.3,0.8,0.7,0.8,1.3c0,0.5-0.3,1.1-0.8,1.4c0.1,0.3,0.2,0.6,0.4,0.9
	c0.6-0.1,1,0,1.4,0.4c0.4,0.4,0.5,0.9,0.4,1.4c0.3,0.1,0.6,0.3,0.9,0.4c0.3-0.5,0.8-0.8,1.4-0.8c0.5,0,1.1,0.3,1.4,0.8
	c0.3-0.1,0.6-0.2,0.9-0.4c-0.1-0.6,0-1,0.4-1.4c0.4-0.4,0.8-0.6,1.4-0.5c0.1-0.3,0.3-0.6,0.4-0.9C67.6,30.4,67.2,30,67.2,29.4z
	 M63.7,31.3c-1.1,0-1.9-0.9-1.9-1.9c0-1.1,0.9-1.9,1.9-1.9c1.1,0,1.9,0.9,1.9,1.9C65.6,30.5,64.7,31.3,63.7,31.3z"/>
<path class="st0" d="M73.4,31c0-0.3,0.2-0.6,0.5-0.8c-0.1-0.2-0.1-0.4-0.2-0.6c-0.4,0.1-0.6,0-0.9-0.3c-0.2-0.2-0.3-0.5-0.2-0.9
	c-0.2-0.1-0.4-0.2-0.6-0.2c-0.2,0.3-0.5,0.5-0.9,0.5c-0.3,0-0.7-0.2-0.9-0.5c-0.2,0.1-0.4,0.1-0.6,0.2c0.1,0.4,0,0.7-0.2,0.9
	c-0.2,0.2-0.5,0.4-0.9,0.3c-0.1,0.2-0.2,0.4-0.2,0.6c0.3,0.2,0.5,0.5,0.5,0.8c0,0.3-0.2,0.7-0.5,0.9c0.1,0.2,0.1,0.4,0.2,0.6
	c0.4-0.1,0.7,0,0.9,0.2c0.2,0.2,0.3,0.5,0.2,0.9c0.2,0.1,0.4,0.2,0.6,0.2c0.2-0.3,0.5-0.5,0.9-0.5c0.3,0,0.7,0.2,0.9,0.5
	c0.2-0.1,0.4-0.1,0.6-0.2c-0.1-0.4,0-0.6,0.2-0.9c0.2-0.2,0.5-0.4,0.9-0.3c0.1-0.2,0.2-0.4,0.2-0.6C73.6,31.7,73.4,31.4,73.4,31z
	 M71.2,32.3c-0.7,0-1.2-0.5-1.2-1.2c0-0.7,0.5-1.2,1.2-1.2c0.7,0,1.2,0.5,1.2,1.2C72.4,31.7,71.8,32.3,71.2,32.3z"/>
<path class="st1" d="M104.2,50.1h-4.4v-0.4h1c0.7,0,1.2-0.5,1.2-1.2v-2.7c0-0.7-0.5-1.2-1.2-1.2H81.1V19.3c0-0.7-0.5-1.2-1.2-1.2H52
	c-0.7,0-1.2,0.5-1.2,1.2v2.5h-0.7c-0.1,0-0.2,0.1-0.2,0.2s0.1,0.2,0.2,0.2h0.7v3.4h-0.7c-0.1,0-0.2,0.1-0.2,0.2s0.1,0.2,0.2,0.2h0.7
	v3.4h-0.7c-0.1,0-0.2,0.1-0.2,0.2s0.1,0.2,0.2,0.2h0.7V33h-0.7c-0.1,0-0.2,0.1-0.2,0.2s0.1,0.2,0.2,0.2h0.7v3.4h-0.7
	c-0.1,0-0.2,0.1-0.2,0.2s0.1,0.2,0.2,0.2h0.7v0.8H39.3C38,37.9,37,39,37,40.3v2.4h-0.2c-0.7,0-1.2,0.5-1.2,1.2v0.8
	c-0.6,0.1-1,0.6-1,1.2v2.7h-8.8c-0.7,0-1.2,0.5-1.2,1.2V56c0,1.1,0.9,2,2,2h10h10.6H52h4.2h19.6h4.1h19.9c0.7,0,1.2-0.5,1.2-1.2
	v-1.6h3.3c0.7,0,1.2-0.5,1.2-1.2v-2.7C105.4,50.6,104.9,50.1,104.2,50.1z M79.7,53.2V52c0-0.3,0.3-0.6,0.6-0.6h18.4h5.4v2.4h-4.3
	H80.3C79.9,53.8,79.7,53.6,79.7,53.2z M76.3,47.7v-1.2c0-0.3,0.3-0.6,0.6-0.6h23.8v2.4h-2H76.9C76.6,48.3,76.3,48.1,76.3,47.7z
	 M76.9,48.7h21.5v2.4H80.3h-5.6c-0.3,0-0.6-0.3-0.6-0.6v-1.2c0-0.3,0.3-0.6,0.6-0.6H76.9z M80.3,54.2h19.3v2.4H75.8
	c-0.3,0-0.6-0.3-0.6-0.6v-1.2c0-0.3,0.3-0.6,0.6-0.6H80.3z M53.9,37.1c0.1,0,0.2-0.1,0.2-0.2s-0.1-0.2-0.2-0.2H52v-3.4h1.9
	c0.1,0,0.2-0.1,0.2-0.2S54,33,53.9,33H52v-3.4h1.9c0.1,0,0.2-0.1,0.2-0.2s-0.1-0.2-0.2-0.2H52v-3.4h1.9c0.1,0,0.2-0.1,0.2-0.2
	s-0.1-0.2-0.2-0.2H52v-3.4h1.9c0.1,0,0.2-0.1,0.2-0.2s-0.1-0.2-0.2-0.2H52v-2.5h27.9v26.3h-3c-0.5,0-1,0.4-1,1v1.2
	c0,0.2,0.1,0.4,0.2,0.6h-1.4c-0.5,0-1,0.4-1,1v1.2c0,0.5,0.4,1,1,1h4.8c-0.1,0.2-0.2,0.4-0.2,0.6v1.2c0,0.2,0.1,0.4,0.2,0.6h-3.7
	c-0.5,0-1,0.4-1,1V56c0,0.3,0.2,0.6,0.4,0.8H56.8c0.2-0.2,0.4-0.5,0.4-0.8V45.8c0-0.1-0.1-0.2-0.2-0.2h-0.8v-1.8
	c0-0.1-0.1-0.2-0.2-0.2h-1.2v-3.3c0-0.8-0.6-1.4-1.4-1.4H52v-1.8H53.9z M54.5,43.6h-0.8v0.2c0,0.1-0.1,0.2-0.2,0.2h1.2h1.2v1.6H37
	V44h1.2h1.2c-0.1,0-0.2-0.1-0.2-0.2v-0.2h-0.8v-3.3c0-0.5,0.4-1,1-1h14.1c0.5,0,1,0.4,1,1V43.6z M35.8,56.6h-9.2
	c-0.3,0-0.6-0.3-0.6-0.6v-6.1h9.6V56C35.6,56.2,35.7,56.4,35.8,56.6z M36,49.9v-0.4V46h0.8H56h0.8v10c0,0.3-0.3,0.6-0.6,0.6H36.6
	c-0.3,0-0.6-0.3-0.6-0.6V49.9z M36,56.8C36,56.8,36,56.8,36,56.8L36,56.8L36,56.8z"/>
</svg>
