<svg id="Calque_1" data-name="Calque 1" xmlns="http://www.w3.org/2000/svg" viewBox="0 0 70 70"><defs><style>.cls-1{fill:none;}.cls-2{fill:#434762;}.cls-3{fill:#ec654a;}</style></defs><title>creation-picto-1</title><rect class="cls-1" width="70" height="70"/><path class="cls-2" d="M35.18,48.67c-.09,0-7.27-3.1-10.76-8.13H44.88a29.38,29.38,0,0,1-6.49,6.34,1.56,1.56,0,0,0,1.88,2.5c7.26-5.44,10.55-10.91,9.79-16.25-1.26-8.82-13.2-13.68-14.53-14.2-6.33-3.4-9.6-7-11.29-10H45.5a24.42,24.42,0,0,1-7.1,7.47,1.56,1.56,0,0,0,1.86,2.52C52.68,9.71,49.77,1.8,49.64,1.47a1.55,1.55,0,0,0-2-.88,1.58,1.58,0,0,0-.93,2,6.18,6.18,0,0,1,0,3.17H22.92a9.24,9.24,0,0,1-.4-3.49,1.56,1.56,0,0,0-3.1-.46c-.07.46-1.52,11.27,14.72,19.93l.19.08c.09,0,6.74,2.59,10.39,7H24.9a27.28,27.28,0,0,1,5.31-5.28,1.56,1.56,0,0,0-1.93-2.47,27.06,27.06,0,0,0-7.1,7.74H21v.41a12.09,12.09,0,0,0-1.45,7.35c1.25,9.34,13.91,14.73,14.4,14.94,6.55,3,10,6.43,11.77,9.35H23.87a15.44,15.44,0,0,1,6.59-6.34A1.56,1.56,0,0,0,29,51.79c-11.18,6-9.66,16-9.59,16.44a1.57,1.57,0,0,0,1.54,1.31l.26,0a1.56,1.56,0,0,0,1.28-1.8,10.83,10.83,0,0,1,.24-3.7H47.12a9,9,0,0,1,.43,3.71,1.57,1.57,0,0,0,1.28,1.79l.26,0a1.56,1.56,0,0,0,1.54-1.3C50.72,67.76,52.42,56.58,35.18,48.67ZM22.89,37.4a8.42,8.42,0,0,1-.26-1.22A8.56,8.56,0,0,1,23.17,32H46.55a8,8,0,0,1,.41,1.6,8.08,8.08,0,0,1-.42,3.83Z"/><path class="cls-3" d="M46.73,5.75A8.65,8.65,0,0,1,45.5,8.88H24.24a9.42,9.42,0,0,1-1.32-3.13Z"/><path class="cls-3" d="M22.71,64a7.78,7.78,0,0,1,1.15-3.13H45.69A8.67,8.67,0,0,1,47.12,64Z"/></svg>