<svg id="Calque_1" data-name="Calque 1" xmlns="http://www.w3.org/2000/svg" viewBox="0 0 70 70"><defs><style>.cls-1{fill:none;}.cls-2{fill:#434762;}.cls-3{fill:#ec654a;}</style></defs><title>creation-picto-3</title><rect class="cls-1" width="70" height="70"/><path class="cls-2" d="M58.5,20.61A60.24,60.24,0,0,0,46,10.52,64.57,64.57,0,0,0,11.92.47H10.81V69.53L59.19,21.39ZM13,13.76a52.53,52.53,0,0,1,35.59,15L13,64.19ZM50.19,27.21C34.79,12.36,17.69,11.47,13,11.53V2.7c23.79.44,39.61,15.09,43.08,18.62Z"/><path class="cls-3" d="M22.43,36.61a5,5,0,1,1,4.62-3A5,5,0,0,1,22.43,36.61Zm0-7.93a2.89,2.89,0,1,0,1.15.24A2.89,2.89,0,0,0,22.43,28.68Z"/><path class="cls-3" d="M27.67,44.46a5,5,0,1,1,4.63-3A5,5,0,0,1,27.67,44.46Zm0-7.93a2.89,2.89,0,0,0-1.16,5.53,2.86,2.86,0,0,0,1.15.24,2.89,2.89,0,0,0,0-5.77Z"/><rect class="cls-3" x="32.67" y="27.43" width="7.25" height="2.16" transform="translate(-7.89 15.19) rotate(-21.38)"/><rect class="cls-3" x="17.96" y="42.08" width="2.16" height="7.25" transform="translate(-15.35 10.08) rotate(-21.37)"/><circle class="cls-3" cx="37.02" cy="35.65" r="1.68"/><circle class="cls-3" cx="22.43" cy="53.96" r="1.68"/><circle class="cls-3" cx="31.25" cy="22.84" r="1.68"/></svg>