<svg id="Calque_1" data-name="Calque 1" xmlns="http://www.w3.org/2000/svg" viewBox="0 0 70 70"><defs><style>.cls-1{fill:none;}.cls-2{fill:#434762;}.cls-3{fill:#ec654a;}.cls-4{fill:#f2f2f2;}</style></defs><title>creation-picto-5</title><rect class="cls-1" width="70" height="70"/><path class="cls-2" d="M63.09,8.54a6.42,6.42,0,0,0-4.26,11.24L42.89,48.66a6.56,6.56,0,0,0-.87-.09,6.34,6.34,0,0,0-3,.79L26.66,37a6.36,6.36,0,0,0,.87-3.16,6.44,6.44,0,1,0-12.88,0A6.38,6.38,0,0,0,15.51,37l-5.19,5.19a6.38,6.38,0,0,0-3.4-1,6.44,6.44,0,1,0,6.44,6.44,6.34,6.34,0,0,0-.71-2.88L18,39.46a6.2,6.2,0,0,0,6.23,0l12.3,12.29A6.37,6.37,0,0,0,35.57,55a6.44,6.44,0,1,0,10.51-5L61.94,21.31A6.44,6.44,0,1,0,63.09,8.54ZM6.91,50.64a3,3,0,1,1,3-3A3,3,0,0,1,6.91,50.64ZM18.1,33.85a3,3,0,1,1,3,3A3,3,0,0,1,18.1,33.85ZM42,58a3,3,0,1,1,3-3A3,3,0,0,1,42,58ZM63.09,18a3,3,0,1,1,3-3A3,3,0,0,1,63.09,18Z"/><circle class="cls-3" cx="6.91" cy="47.66" r="6.76"/><circle class="cls-4" cx="6.91" cy="47.66" r="2.98"/><circle class="cls-3" cx="21.08" cy="33.85" r="6.76"/><circle class="cls-4" cx="21.08" cy="33.85" r="2.98"/><circle class="cls-3" cx="42.02" cy="55.02" r="6.76"/><circle class="cls-4" cx="42.02" cy="55.02" r="2.98"/><circle class="cls-3" cx="63.09" cy="14.98" r="6.76"/><circle class="cls-4" cx="63.09" cy="14.98" r="2.98"/></svg>