<svg id="Calque_1" data-name="Calque 1" xmlns="http://www.w3.org/2000/svg" viewBox="0 0 170 170"><defs><style>.cls-1{fill:#f2f2f2;}</style></defs><title>target</title><path class="cls-1" d="M.34,148l25.38-3.63-3.63,25.38L41.4,150.42a82,82,0,1,0-21.76-21.76Zm40-112.55a66.66,66.66,0,1,1,94.27,94.27,66.67,66.67,0,0,1-88.52,5.13l18.33-18.33a41,41,0,1,0-10.88-10.88L35.25,123.94a66.67,66.67,0,0,1,5.13-88.52ZM90.9,79.16a7.69,7.69,0,0,0-10.88,0L64.78,94.4a25.67,25.67,0,1,1,10.88,10.88L90.9,90A7.69,7.69,0,0,0,90.9,79.16Z"/></svg>