<?xml version="1.0" encoding="utf-8"?>
<!-- Generator: Adobe Illustrator 20.1.0, SVG Export Plug-In . SVG Version: 6.00 Build 0)  -->
<svg version="1.1" id="Calque_1" xmlns="http://www.w3.org/2000/svg" xmlns:xlink="http://www.w3.org/1999/xlink" x="0px" y="0px"
	 viewBox="0 0 430 230" style="enable-background:new 0 0 430 230;" xml:space="preserve">
<style type="text/css">
	.st0{fill:none;}
	.st1{fill:#6B215F;}
	.st2{fill:#010101;}
	.st3{fill:#929085;}
</style>
<title>picto-techtrends</title>
<rect class="st0" width="430" height="230"/>
<g>
	<path class="st1" d="M260.2,53.1h-3.9v-4.3h-1.4c-27.3,0-36.5,6.5-39.6,10.1c-2.9-3.6-12.1-10.1-39.6-10.1h-1.4v4.3h-7v62.1h3.1
		c33.8,0,40.8,7.7,41.6,9.2h6.3c1-1.4,8.2-9.2,41.5-9.2h3.1V53.1H260.2z M213.3,112.5c-4.6-3.4-14.7-7.5-35.3-7.7V52.4
		c29,0.5,34.5,8.2,35.3,9.7V112.5z M252.9,104.8c-20.8,0.2-30.7,4.3-35.3,7.7V62.3c0.7-1.5,6.5-9.2,35.3-9.7V104.8z"/>
	<path class="st2" d="M190.4,173.2c-0.2-0.1-0.1-0.3-0.1-0.5c0-3.5,0-7,0-10.4c0-0.4-0.1-0.6-0.5-0.5c-1.9,0-3.9,0-5.8,0
		c-0.5,0-0.6,0.2-0.6,0.6c0,4.7,0,9.4,0,14.1c0,0.5-0.1,0.6-0.6,0.6c-1.7,0-3.4,0-5,0c-0.4,0-0.4-0.1-0.4-0.4c0-10.9,0-21.7,0-32.6
		c0-0.4,0.1-0.5,0.5-0.5c1.7,0,3.4,0,5.1,0c0.4,0,0.4,0.1,0.4,0.4c0,4.3,0,8.7,0,13c0,0.5,0.1,0.6,0.6,0.6c1.9,0,3.9,0,5.8,0
		c0.4,0,0.5-0.1,0.5-0.5c0-4.4,0-8.7,0-13.1c0-0.4,0.1-0.5,0.5-0.5c1.7,0,3.4,0,5.1,0c0.5,0,0.5,0.2,0.5,0.6c0,6.2,0,12.5,0,18.7
		c0,0.2,0,0.4,0,0.6s-0.1,0.6-0.3,0.8c-1,1.7-2.1,3.4-3.1,5c-0.7,1-1.3,2.1-1.9,3.1C191,172.6,190.8,173,190.4,173.2z"/>
	<path class="st2" d="M154.4,160.3c0-2.2,0-4.3,0-6.5c0-1.8,0.3-3.7,0.9-5.4c0.7-2.3,2.6-4.1,4.9-4.7c1.5-0.4,3.1-0.6,4.7-0.5
		c1.5,0,2.9,0.4,4.3,1.1c1.4,0.7,2.4,2,3,3.4c0.4,1.1,0.7,2.3,0.8,3.4c0.2,1.4,0,2.8,0.1,4.1c0,0.3,0,0.4-0.4,0.4
		c-1.8,0-3.5,0-5.2,0c-0.3,0-0.3-0.1-0.3-0.4c0-1.4,0-2.9,0-4.3c0-0.6-0.1-1.2-0.4-1.8c-0.4-0.9-1.3-1.5-2.2-1.5
		c-0.7-0.1-1.4,0-2,0.2c-1,0.4-1.7,1.3-1.8,2.4c-0.2,1.3-0.3,2.6-0.2,3.9c0,4.5,0,9,0,13.5c-0.1,1.2,0.1,2.4,0.5,3.5
		c0.3,0.9,1,1.5,1.9,1.7c0.9,0.2,1.8,0.1,2.7-0.3c0.8-0.5,1.3-1.3,1.4-2.2c0.2-1.8,0.2-3.6,0.1-5.4c0-0.4,0.1-0.5,0.4-0.4
		c1.7,0,3.3,0,5,0c0.3,0,0.4,0.1,0.4,0.4c0,1.2,0.1,2.3,0,3.5c-0.1,1.7-0.5,3.5-1.2,5.1c-0.8,1.6-2.3,2.9-4.1,3.4
		c-1.7,0.5-3.5,0.7-5.2,0.5c-1.7-0.1-3.4-0.7-4.9-1.7c-1-0.8-1.9-1.9-2.4-3.1c-0.3-0.9-0.6-1.8-0.8-2.7c-0.1-0.4-0.1-0.8-0.1-1.2
		c-0.2-2.6-0.1-5.2-0.1-7.8C154.4,160.6,154.4,160.5,154.4,160.3z"/>
	<path class="st2" d="M137.2,160.3c0-5.4,0-10.8,0-16.2c0-0.4,0.1-0.5,0.5-0.5c4.4,0,8.8,0,13.2,0c0.4,0,0.5,0.1,0.5,0.5
		c0,1.1,0,2.2,0,3.4c0,0.4-0.1,0.5-0.5,0.5c-2.3,0-4.6,0-6.9,0c-0.4,0-0.6,0.1-0.6,0.6c0,2.8,0,5.7,0,8.5c0,0.5,0.1,0.6,0.6,0.6
		c1.8,0,3.6,0,5.3,0c0.4,0,0.4,0.1,0.4,0.4c0,1.2,0,2.4,0,3.5c0,0.3-0.1,0.4-0.4,0.4c-1.8,0-3.6,0-5.4,0c-0.4,0-0.5,0.1-0.5,0.5
		c0,3.3,0,6.7,0,10.1c0,0.4,0.1,0.5,0.5,0.5c2.3,0,4.7,0,7,0c0.5,0,0.6,0.1,0.6,0.6c0,1.1,0,2.2,0,3.3c0,0.3-0.1,0.4-0.4,0.4
		c-4.5,0-9,0-13.4,0c-0.4,0-0.4-0.2-0.4-0.5C137.2,171.1,137.2,165.7,137.2,160.3z"/>
	<path class="st2" d="M129,162.5c0,4.7,0,9.3,0,14c0,0.4,0,0.5-0.5,0.5c-1.7,0-3.4,0-5.1,0c-0.4,0-0.5-0.1-0.5-0.5
		c0-9.3,0-18.6,0-27.9c0-0.5-0.1-0.6-0.7-0.6c-1.5,0-3.1,0-4.6,0c-0.3,0-0.4-0.1-0.4-0.4c0-1.2,0-2.4,0-3.7c0-0.3,0.1-0.4,0.4-0.4
		c5.5,0,11,0,16.5,0c0.3,0,0.4,0.1,0.4,0.4c0,1.2,0,2.4,0,3.7c0,0.4-0.1,0.4-0.4,0.4c-1.6,0-3.1,0-4.7,0c-0.4,0-0.5,0.1-0.5,0.5
		C129,153.2,129,157.8,129,162.5z"/>
	<path class="st3" d="M190.4,173.2c1-1.6,2-3.2,3-4.8s2-3.3,3-4.9c0-0.1,0-0.1,0-0.2c0.4-0.2,0.5-0.6,0.7-1c1-1.6,1.9-3.2,2.9-4.7
		c0.6-1,1.3-2,1.9-3.1c0.1-0.3,0.3-0.3,0.5-0.2s0.2,0.4,0.1,0.6l-1,1.7l-2.5,4c-0.7,1.2-1.5,2.4-2.2,3.6c-1.1,1.9-2.3,3.7-3.4,5.5
		c-0.8,1.4-1.6,2.7-2.5,4.1s-1.8,2.9-2.7,4.3c-0.5,0.9-1,1.8-1.6,2.6c-0.1,0.2-0.2,0.5-0.5,0.4s-0.5-0.2-0.3-0.6
		c1-1.6,1.9-3.1,2.9-4.7c0.5-0.8,1-1.6,1.5-2.4C190.4,173.5,190.2,173.3,190.4,173.2z"/>
	<g>
		<path class="st1" d="M206.1,177.1v-31.2h-6.5v-2.4h16.1v2.4h-6.6v31.2H206.1z"/>
		<path class="st1" d="M218.4,177.1v-33.6h9c1.1,0,2.1,0.2,3,0.5s1.6,0.7,2.1,1.2s1,1.2,1.3,1.9s0.5,1.5,0.7,2.4s0.2,1.7,0.2,2.7
			c0,4.3-1.6,7-4.7,8.1l5.2,16.8h-3.2l-4.9-16.4h-5.6v16.4H218.4z M221.4,158.3h6c0.8,0,1.6-0.2,2.1-0.5s1-0.8,1.3-1.4
			s0.5-1.3,0.6-2s0.2-1.5,0.2-2.3c0-0.7,0-1.4-0.1-1.9s-0.2-1.1-0.4-1.7s-0.4-1-0.8-1.4s-0.7-0.7-1.2-0.9s-1.1-0.3-1.8-0.3h-6V158.3
			z"/>
		<path class="st1" d="M239.8,177.1v-33.6h11.7v2.4h-8.8v12.7h6.2v2.2h-6.2v13.9h8.8v2.4H239.8z"/>
		<path class="st1" d="M255.9,177.1v-33.6h2.3l10.6,26.6v-26.6h2.5v33.6h-2.2L258.5,151v26.1H255.9z"/>
		<path class="st1" d="M277.6,177.1v-33.6h7.6c1.3,0,2.4,0.2,3.4,0.5c1,0.3,1.8,0.8,2.5,1.4s1.2,1.3,1.6,2.2s0.7,1.8,0.9,2.7
			s0.3,2,0.3,3.2v13.7c0,6.6-2.9,9.9-8.6,9.9H277.6z M280.6,174.7h4.6c3.7,0,5.6-2.3,5.6-6.9v-15c0-4.6-1.9-7-5.6-7h-4.6V174.7z"/>
		<path class="st1" d="M297.9,169l2.6-0.8c0.1,0.9,0.3,1.8,0.6,2.6s0.6,1.5,1.1,2.2s1.1,1.2,1.8,1.6s1.6,0.6,2.5,0.6
			c1.5,0,2.7-0.4,3.5-1.3s1.2-2,1.2-3.6c0-1.3-0.4-2.5-1.1-3.7s-1.9-2.6-3.4-4.1l-5.3-5.5c-1.1-1.2-2-2.3-2.6-3.4s-0.9-2.2-0.9-3.3
			c0-2.2,0.7-4,2.2-5.3s3.3-2,5.6-2c2.2,0,4,0.6,5.3,1.9s2.2,3,2.7,5.4l0.1,0.3l-2.5,0.8l0-0.3c-0.3-1.7-0.9-3.1-1.8-4.1
			s-2.2-1.6-3.7-1.6c-1.5,0-2.7,0.4-3.5,1.1s-1.3,1.9-1.3,3.3c0,0.9,0.2,1.8,0.7,2.6s1.2,1.8,2,2.7l4.9,5.4c0.1,0.1,0.5,0.5,1,1.1
			s0.9,0.9,1,1.1s0.5,0.5,0.9,1.1s0.7,0.9,0.9,1.2s0.4,0.6,0.7,1.1s0.5,0.9,0.6,1.3s0.2,0.8,0.3,1.3s0.2,1,0.2,1.4
			c0,2.4-0.7,4.2-2.2,5.5s-3.4,2-5.7,2c-1.2,0-2.3-0.2-3.3-0.7s-1.8-1.1-2.5-1.9s-1.2-1.7-1.6-2.7S298.1,170.2,297.9,169z"/>
	</g>
</g>
</svg>
