<svg id="Calque_1" data-name="Calque 1" xmlns="http://www.w3.org/2000/svg" viewBox="0 0 70 70"><defs><style>.cls-1{fill:none;}.cls-2{fill:#434762;}.cls-3{fill:#ec654a;}</style></defs><title>picto-blog</title><rect class="cls-1" width="70" height="70"/><path class="cls-2" d="M35.28.5l-.16.07a.94.94,0,0,0-.39.38L2.8,56.26a.94.94,0,0,0-.11.61L4.5,68.74a.94.94,0,0,0,1.08.77l.18,0L17,65.1a.94.94,0,0,0,.47-.4L49.36,9.4A.94.94,0,0,0,49,8.12L36,.61A.94.94,0,0,0,35.28.5Zm.62,2.2L47.26,9.26l-2.82,4.89L33.08,7.59Zm-3.76,6.5L43.5,15.76,16,63.48,6.16,67.33,4.6,56.87,32.14,9.21Z"/><path class="cls-3" d="M69.32,69.69H10.09a.5.5,0,0,1,0-1H69.32a.5.5,0,0,1,0,1Z"/></svg>