<svg id="Calque_1" data-name="Calque 1" xmlns="http://www.w3.org/2000/svg" viewBox="0 0 118.56 198.19"><defs><style>.cls-1{fill:none;stroke:#fff;stroke-linecap:round;stroke-linejoin:round;stroke-width:8px;}</style></defs><title>potdefleur</title><path class="cls-1" d="M87.37,36C77.74,47.91,57.11,47.16,57.11,47.16s-5-20,4.6-31.91S92,4.11,92,4.11,97,24.13,87.37,36Z"/><path class="cls-1" d="M94,90.49c-15.83,7.81-36.9-2.54-36.9-2.54s4.59-23,20.42-30.84,36.9,2.54,36.9,2.54S109.84,82.67,94,90.49Z"/><path class="cls-1" d="M19.89,60C5.26,48.42,4.12,25.47,4.12,25.47s22.59-4.24,37.22,7.3S57.11,67.26,57.11,67.26,34.52,71.5,19.89,60Z"/><polygon class="cls-1" points="100.72 133.45 105.19 106.38 9.82 106.38 14.3 133.45 100.72 133.45"/><polygon class="cls-1" points="82.81 194.1 95.12 133.45 19.9 133.45 32.21 194.1 82.81 194.1"/><line class="cls-1" x1="57.11" y1="106.38" x2="57.11" y2="47.16"/></svg>