<?xml version="1.0" encoding="utf-8"?>
<!-- Generator: Adobe Illustrator 21.0.2, SVG Export Plug-In . SVG Version: 6.00 Build 0)  -->
<svg version="1.1" id="Calque_1" xmlns="http://www.w3.org/2000/svg" xmlns:xlink="http://www.w3.org/1999/xlink" x="0px" y="0px"
	 viewBox="0 0 130 70" style="enable-background:new 0 0 130 70;" xml:space="preserve">
<style type="text/css">
	.st0{fill:#424661;}
	.st1{fill:#FF6444;}
</style>
<g>
	<path class="st0" d="M84.8,48.6c-0.1,0-0.2,0-0.3-0.1l-2-2c-0.2-0.2-0.2-0.4,0-0.6l2-2c0.2-0.2,0.4-0.2,0.6,0s0.2,0.4,0,0.6
		l-1.7,1.7l1.7,1.7c0.2,0.2,0.2,0.4,0,0.6C85,48.6,84.9,48.6,84.8,48.6z"/>
</g>
<g>
	<path class="st0" d="M89.6,48.6c-0.1,0-0.2,0-0.3-0.1c-0.2-0.2-0.2-0.4,0-0.6l1.7-1.7l-1.7-1.7c-0.2-0.2-0.2-0.4,0-0.6
		c0.2-0.2,0.4-0.2,0.6,0l2,2c0.2,0.2,0.2,0.4,0,0.6l-2,2C89.8,48.6,89.7,48.6,89.6,48.6z"/>
</g>
<g>
	<path class="st0" d="M85.9,50c0,0-0.1,0-0.1,0c-0.2-0.1-0.3-0.3-0.2-0.5l2.7-6.6c0.1-0.2,0.3-0.3,0.5-0.2c0.2,0.1,0.3,0.3,0.2,0.5
		l-2.7,6.6C86.2,49.9,86,50,85.9,50z"/>
</g>
<path class="st0" d="M38,42.2c-0.1,0-0.2,0-0.3-0.1l-2-2c-0.2-0.2-0.2-0.4,0-0.6l2-2c0.2-0.2,0.4-0.2,0.6,0c0.2,0.2,0.2,0.4,0,0.6
	l-1.7,1.7l1.7,1.7c0.2,0.2,0.2,0.4,0,0.6C38.2,42.1,38.1,42.2,38,42.2z"/>
<path class="st0" d="M42.7,42.2c-0.1,0-0.2,0-0.3-0.1c-0.2-0.2-0.2-0.4,0-0.6l1.7-1.7l-1.7-1.7c-0.2-0.2-0.2-0.4,0-0.6
	c0.2-0.2,0.4-0.2,0.6,0l2,2c0.2,0.2,0.2,0.4,0,0.6l-2,2C42.9,42.1,42.8,42.2,42.7,42.2z"/>
<path class="st0" d="M39,43.5c0,0-0.1,0-0.1,0c-0.2-0.1-0.3-0.3-0.2-0.5l2.7-6.6c0.1-0.2,0.3-0.3,0.5-0.2c0.2,0.1,0.3,0.3,0.2,0.5
	l-2.7,6.6C39.3,43.4,39.2,43.5,39,43.5z"/>
<path class="st0" d="M60,39.9c-0.1,0-0.2,0-0.3-0.1l-3.1-3.1c-0.2-0.2-0.2-0.4,0-0.6l3.1-3.1c0.2-0.2,0.4-0.2,0.6,0
	c0.2,0.2,0.2,0.4,0,0.6l-2.8,2.8l2.8,2.8c0.2,0.2,0.2,0.4,0,0.6C60.2,39.8,60.1,39.9,60,39.9z"/>
<path class="st0" d="M67.5,39.9c-0.1,0-0.2,0-0.3-0.1c-0.2-0.2-0.2-0.4,0-0.6l2.8-2.8l-2.8-2.8c-0.2-0.2-0.2-0.4,0-0.6
	c0.2-0.2,0.4-0.2,0.6,0l3.1,3.1c0.2,0.2,0.2,0.4,0,0.6l-3.1,3.1C67.7,39.8,67.6,39.9,67.5,39.9z"/>
<path class="st0" d="M61.6,42c0,0-0.1,0-0.1,0c-0.2-0.1-0.3-0.3-0.2-0.5L65.5,31c0.1-0.2,0.3-0.3,0.5-0.2c0.2,0.1,0.3,0.3,0.2,0.5
	L62,41.7C61.9,41.9,61.8,42,61.6,42z"/>
<g>
	<path class="st1" d="M40.4,50.1c-0.8,0-1.5,0.7-1.5,1.5c0,0.8,0.7,1.5,1.5,1.5s1.5-0.7,1.5-1.5C41.9,50.8,41.2,50.1,40.4,50.1z
		 M40.4,52.7c-0.6,0-1.1-0.5-1.1-1.1s0.5-1.1,1.1-1.1s1.1,0.5,1.1,1.1S41,52.7,40.4,52.7z"/>
	<path class="st1" d="M99.9,37.8H90V21.6c0-2-1.6-3.6-3.6-3.6H41.8c-2,0-3.6,1.6-3.6,3.6v3.3h-4.1c-1.2,0-2.2,1-2.2,2.2v25.5
		c0,1.2,1,2.2,2.2,2.2h7.7h4.8h27.9h11.9h13.5c1.2,0,2.2-1,2.2-2.2V40C102.2,38.8,101.2,37.8,99.9,37.8z M39.3,21.6
		c0-1.3,1.1-2.4,2.4-2.4h44.6c1.3,0,2.4,1.1,2.4,2.4v17h-4.2V22.5c0-0.2-0.2-0.4-0.4-0.4H43.3c-0.2,0-0.4,0.2-0.4,0.4v3.1h-3.5V21.6
		z M46.5,25.6h-3.2v-3.1h40.9v16.1h-9.6c-0.9,0-1.6,0.7-1.6,1.6v10.1H48v-23C48,26.3,47.3,25.6,46.5,25.6z M46.5,53.6h-4.7h-7.5
		c-0.7,0-1.2-0.5-1.2-1.2v-2.6h12.5c0.1,0,0.2-0.1,0.2-0.2s-0.1-0.2-0.2-0.2H33.1V29.2h12.5c0.1,0,0.2-0.1,0.2-0.2s-0.1-0.2-0.2-0.2
		H33.1v-1.6c0-0.7,0.5-1.2,1.2-1.2h5.1h7.1c0.7,0,1.2,0.5,1.2,1.2v25.2C47.7,53,47.1,53.6,46.5,53.6z M47.5,53.6
		c0.3-0.3,0.5-0.7,0.5-1.2v-1.8h25v1.8c0,0.5,0.2,0.9,0.5,1.2H47.5z M77.2,53.6h-2.6c-0.7,0-1.2-0.5-1.2-1.2V40.2
		c0-0.7,0.5-1.2,1.2-1.2h2.6V53.6z M97.8,53.6H86.4h-8.8V39h11.3h9V53.6z M101,52.4c0,0.7-0.5,1.2-1.2,1.2h-1.6V39h1.6
		c0.7,0,1.2,0.5,1.2,1.2V52.4z"/>
	<path class="st1" d="M40.8,27.3h-3.4c-0.1,0-0.2,0.1-0.2,0.2c0,0.1,0.1,0.2,0.2,0.2h3.4c0.1,0,0.2-0.1,0.2-0.2
		C41,27.4,41,27.3,40.8,27.3z"/>
	<path class="st1" d="M43.2,27.3h-1c-0.1,0-0.2,0.1-0.2,0.2c0,0.1,0.1,0.2,0.2,0.2h1c0.1,0,0.2-0.1,0.2-0.2
		C43.4,27.4,43.3,27.3,43.2,27.3z"/>
	<circle class="st1" cx="74.3" cy="42.8" r="0.5"/>
	<path class="st1" d="M99.5,43.2c-0.1,0-0.2,0.1-0.2,0.2v3.4c0,0.1,0.1,0.2,0.2,0.2c0.1,0,0.2-0.1,0.2-0.2v-3.4
		C99.7,43.3,99.6,43.2,99.5,43.2z"/>
	<path class="st1" d="M99.5,47.9c-0.1,0-0.2,0.1-0.2,0.2v1c0,0.1,0.1,0.2,0.2,0.2c0.1,0,0.2-0.1,0.2-0.2v-1
		C99.7,48,99.6,47.9,99.5,47.9z"/>
	<path class="st1" d="M74.5,45v2.6c0,0.5,0.4,0.9,0.9,0.9c0.5,0,0.9-0.4,0.9-0.9V45c0-0.5-0.4-0.9-0.9-0.9
		C74.9,44.1,74.5,44.5,74.5,45z M74.9,45c0-0.3,0.2-0.5,0.5-0.5c0.3,0,0.5,0.2,0.5,0.5v2.6c0,0.3-0.2,0.5-0.5,0.5
		c-0.3,0-0.5-0.2-0.5-0.5V45z"/>
</g>
</svg>
