<?xml version="1.0" encoding="utf-8"?>
<!-- Generator: Adobe Illustrator 21.0.2, SVG Export Plug-In . SVG Version: 6.00 Build 0)  -->
<svg version="1.1" id="Calque_1" xmlns="http://www.w3.org/2000/svg" xmlns:xlink="http://www.w3.org/1999/xlink" x="0px" y="0px"
	 viewBox="0 0 760 890" style="enable-background:new 0 0 760 890;" xml:space="preserve">
<style type="text/css">
	.st0{fill:#FF6444;}
	.st1{fill:#424661;}
</style>
<g>
	<path class="st0" d="M745,578.7c-2.2-7.1-6.1-13.6-11.3-18.8v0c-15.9-15.9-40.7-17.9-58.7-5l-33.4,23.2
		c24.1-43.3,37.9-93.1,37.9-146.1c0-166.7-135.6-302.3-302.3-302.3S75,265.4,75,432.1c0,70.9,24.6,136.2,65.7,187.8
		c-21.2,12.5-40.8,28.1-57.9,46.8L21,733.9c-10.8,10.8-10.8,29.1,0.1,40l110,108.6l1.5,1.3c5.6,4.2,12.2,6.2,18.7,6.2
		c7.4,0,14.7-2.7,19.9-8l50.6-47c3.4-3.2,7.9-5.1,12.5-5.6l216.4-19.7c38.9-1.8,68.8-11.7,94.2-31.3l185.4-150.9
		C744.8,615.8,750.6,596.6,745,578.7z M95,432.1c0-155.6,126.6-282.3,282.3-282.3s282.3,126.6,282.3,282.3
		c0,67.2-23.7,129-63.1,177.5L542.5,647c6.6-11.3,8.9-25,5.4-38.5c-2.4-9.1-7.2-17.5-13.8-24.2c-6.2-6.2-13.5-10.6-21.4-13
		l-134.3,12.6l-38.3,4.8c-9.1,1.3-23,1.1-29.7-0.5l-1-0.2c-52.3-8.4-104.7-0.3-150.8,22.1C118.9,561.6,95,499.6,95,432.1z
		 M710.7,602.6L533.5,748.5l-7,5.6c-20.1,15.6-44.5,23.7-77.6,25.4L232,800.4c-11.2,1.1-21.9,5.9-30.1,13.6l-50.5,46.9L43.6,755.6
		l61-67.1c50.4-55.5,124.8-81.8,198.9-70.4c11.8,2.5,29.4,2.2,39.9,0.6l148-19.5l1.5-0.3c6.7-1.6,13.9,0.6,19.3,5.9
		c2.9,2.9,5,6.5,6.1,10.4c3.2,12-5,23-14,25.6l-163.7,39.7l-1.3,0.4c-12.3,4.2-19.4,17.4-16.1,30.2l0.3,1.1c1.2,3.6,3.3,7,6,9.6
		c5.3,5.2,12.4,7.7,19.9,7l126,0.9l216.2-151.9c7.1-5.1,15.5-3.1,20.2,1.5c1.8,1.8,3.1,3.9,3.9,6.4
		C717.6,591.9,715.7,598.5,710.7,602.6z M513.5,673.9L473,702.3l-74.6-0.5L513.5,673.9z"/>
	<path class="st1" d="M222.5,589.3c4.2-0.8,8.3-1.5,12.6-2.1c-42.1-38.5-68.6-93.7-68.6-155.1c0-116.2,94.6-210.8,210.8-210.8
		c116.2,0,210.8,94.6,210.8,210.8c0,57.2-23.1,109-60.2,147c2.2,1.6,4.3,3.3,6.2,5.3c0.5,0.5,0.9,1,1.3,1.5
		c38.7-39.8,62.6-94,62.6-153.7c0-121.7-99-220.8-220.8-220.8s-220.8,99-220.8,220.8C156.5,493.6,181.8,549.2,222.5,589.3z"/>
	<g>
		<path class="st1" d="M279.8,396.2h22.8c2.1-13,5.5-24.8,10.5-35.2c4.9-10.5,11-19.4,18.3-26.8c7.3-7.4,15.7-13,25.2-17
			s19.8-5.9,31-5.9c13.8,0,25.7,2.6,35.5,7.7c9.8,5.2,18.3,12.3,25.6,21.4l-9.4,10.5c-0.8,0.9-1.7,1.7-2.5,2.4c-0.8,0.7-2,1-3.4,1
			c-1.8,0-3.6-1-5.5-2.9c-1.9-2-4.5-4.1-7.7-6.5c-3.2-2.4-7.3-4.5-12.3-6.5c-5-2-11.4-2.9-19.1-2.9c-15.1,0-27.6,5.2-37.6,15.5
			c-10,10.3-16.6,25.4-19.9,45.2h84.7v8.5c0,1.9-0.7,3.5-2.1,5c-1.4,1.5-3.3,2.2-5.8,2.2h-78.7c-0.1,2.1-0.2,4.1-0.2,6.2
			c-0.1,2.1-0.1,4.2-0.1,6.4c0,1.7,0,3.3,0,4.8c0,1.5,0.1,3.1,0.2,4.6h72.3v8.7c0,1.8-0.7,3.4-2.2,4.9c-1.4,1.5-3.4,2.2-5.9,2.2
			h-62.9c2.9,21.3,9.3,37.2,19.2,47.9c9.9,10.6,22.4,16,37.5,16c5.6,0,10.5-0.5,14.7-1.6c4.2-1.1,7.9-2.5,11-4.1
			c3.1-1.7,5.8-3.4,8-5.3c2.2-1.9,4.2-3.7,5.8-5.3c1.7-1.7,3.1-3,4.4-4.1c1.3-1.1,2.6-1.6,3.8-1.6c0.8,0,1.6,0.2,2.2,0.5
			c0.6,0.4,1.3,0.9,2.2,1.6l11.6,10.8c-7.2,10.5-16.2,18.7-27,24.6c-10.7,5.8-23.5,8.8-38.3,8.8c-12,0-22.8-2-32.4-6.1
			s-17.9-9.9-24.9-17.5c-7-7.6-12.8-16.8-17.3-27.7c-4.5-10.9-7.6-23.1-9.2-36.6h-22V434h20.8c-0.1-1.5-0.2-3.1-0.2-4.6
			c0-1.5,0-3.1,0-4.8c0-2.1,0-4.2,0.1-6.3c0.1-2.1,0.1-4.2,0.2-6.3h-20.9V396.2z"/>
	</g>
</g>
</svg>
