<?xml version="1.0" encoding="utf-8"?>
<!-- Generator: Adobe Illustrator 21.0.2, SVG Export Plug-In . SVG Version: 6.00 Build 0)  -->
<svg version="1.1" id="Calque_1" xmlns="http://www.w3.org/2000/svg" xmlns:xlink="http://www.w3.org/1999/xlink" x="0px" y="0px"
	 viewBox="0 0 130 70" style="enable-background:new 0 0 130 70;" xml:space="preserve">
<style type="text/css">
	.st0{fill:#424661;}
	.st1{fill:#FF6444;}
</style>
<path class="st0" d="M80.3,34.8H63.6c-0.1,0-0.2-0.1-0.2-0.2s0.1-0.2,0.2-0.2h16.7c0.1,0,0.2,0.1,0.2,0.2S80.4,34.8,80.3,34.8z"/>
<path class="st0" d="M77.7,37.3H63.6c-0.1,0-0.2-0.1-0.2-0.2s0.1-0.2,0.2-0.2h14.1c0.1,0,0.2,0.1,0.2,0.2S77.8,37.3,77.7,37.3z"/>
<path class="st0" d="M74.6,40.1h-11c-0.1,0-0.2-0.1-0.2-0.2s0.1-0.2,0.2-0.2h11c0.1,0,0.2,0.1,0.2,0.2S74.7,40.1,74.6,40.1z"/>
<path class="st0" d="M73.1,42.5h-9.5c-0.1,0-0.2-0.1-0.2-0.2s0.1-0.2,0.2-0.2h9.5c0.1,0,0.2,0.1,0.2,0.2S73.2,42.5,73.1,42.5z"/>
<path class="st0" d="M80.3,45.3H63.6c-0.1,0-0.2-0.1-0.2-0.2c0-0.1,0.1-0.2,0.2-0.2h16.7c0.1,0,0.2,0.1,0.2,0.2
	C80.5,45.2,80.4,45.3,80.3,45.3z"/>
<path class="st0" d="M79,47.8H63.6c-0.1,0-0.2-0.1-0.2-0.2s0.1-0.2,0.2-0.2H79c0.1,0,0.2,0.1,0.2,0.2S79.1,47.8,79,47.8z"/>
<path class="st0" d="M80.3,50.5H63.6c-0.1,0-0.2-0.1-0.2-0.2s0.1-0.2,0.2-0.2h16.7c0.1,0,0.2,0.1,0.2,0.2S80.4,50.5,80.3,50.5z"/>
<path class="st0" d="M80.3,24.3h-5.8c-0.1,0-0.2-0.1-0.2-0.2s0.1-0.2,0.2-0.2h5.8c0.1,0,0.2,0.1,0.2,0.2S80.4,24.3,80.3,24.3z"/>
<path class="st0" d="M79.9,26.8h-5.3c-0.1,0-0.2-0.1-0.2-0.2s0.1-0.2,0.2-0.2h5.3c0.1,0,0.2,0.1,0.2,0.2S80,26.8,79.9,26.8z"/>
<path class="st0" d="M80.3,29.6h-5.8c-0.1,0-0.2-0.1-0.2-0.2s0.1-0.2,0.2-0.2h5.8c0.1,0,0.2,0.1,0.2,0.2S80.4,29.6,80.3,29.6z"/>
<path class="st0" d="M79,32.1H63.6c-0.1,0-0.2-0.1-0.2-0.2s0.1-0.2,0.2-0.2H79c0.1,0,0.2,0.1,0.2,0.2S79.1,32.1,79,32.1z"/>
<path class="st0" d="M72.5,29.6h-8.9c-0.1,0-0.2-0.1-0.2-0.2v-5.2c0-0.1,0.1-0.2,0.2-0.2h8.9c0.1,0,0.2,0.1,0.2,0.2v5.2
	C72.7,29.5,72.6,29.6,72.5,29.6z M63.8,29.2h8.5v-4.8h-8.5V29.2z"/>
<g>
	<path class="st0" d="M50.6,47.7c-0.1,0-0.2-0.1-0.2-0.2c0-0.1,0-0.2,0.2-0.2l5.3-1.1c0.1,0,0.2,0,0.2,0.2c0,0.1,0,0.2-0.2,0.2
		L50.6,47.7C50.6,47.7,50.6,47.7,50.6,47.7z"/>
	<path class="st0" d="M50.5,49.1c-0.1,0-0.2-0.1-0.2-0.2c0-0.1,0-0.2,0.2-0.2l5.5-1.1c0.1,0,0.2,0,0.2,0.2s0,0.2-0.2,0.2L50.5,49.1
		C50.6,49.1,50.5,49.1,50.5,49.1z"/>
	<path class="st0" d="M50.5,50.4c-0.1,0-0.2-0.1-0.2-0.2c0-0.1,0-0.2,0.1-0.2l6.5-1.4c0.1,0,0.2,0,0.2,0.2c0,0.1,0,0.2-0.1,0.2
		L50.5,50.4C50.5,50.4,50.5,50.4,50.5,50.4z"/>
	<path class="st0" d="M50.4,51.8c-0.1,0-0.2-0.1-0.2-0.2c0-0.1,0-0.2,0.2-0.2l5.4-1.1c0.1,0,0.2,0,0.2,0.2s0,0.2-0.2,0.2L50.4,51.8
		C50.5,51.8,50.5,51.8,50.4,51.8z"/>
	<path class="st0" d="M55.5,40.1c-0.1,0-0.2-0.1-0.2-0.1c0-0.1,0-0.2,0.1-0.2l3.1-0.8c0.1,0,0.2,0,0.2,0.1c0,0.1,0,0.2-0.1,0.2
		L55.5,40.1C55.6,40.1,55.5,40.1,55.5,40.1z"/>
	<path class="st0" d="M55.5,41.9c-0.1,0-0.2-0.1-0.2-0.2c0-0.1,0-0.2,0.1-0.2l2.4-0.6c0.1,0,0.2,0,0.2,0.1c0,0.1,0,0.2-0.1,0.2
		L55.5,41.9C55.5,41.9,55.5,41.9,55.5,41.9z"/>
	<path class="st0" d="M55.1,43.8c-0.1,0-0.2-0.1-0.2-0.2c0-0.1,0-0.2,0.1-0.2l2.4-0.6c0.1,0,0.2,0,0.2,0.1c0,0.1,0,0.2-0.1,0.2
		L55.1,43.8C55.1,43.8,55.1,43.8,55.1,43.8z"/>
	<path class="st0" d="M50.6,46.3c-0.1,0-0.2-0.1-0.2-0.2c0-0.1,0-0.2,0.1-0.2l5.3-1.2c0.1,0,0.2,0,0.2,0.1c0,0.1,0,0.2-0.1,0.2
		L50.6,46.3C50.6,46.3,50.6,46.3,50.6,46.3z"/>
	<path class="st0" d="M50.6,44.9c0,0-0.1,0-0.1,0c0,0-0.1-0.1-0.1-0.2l0.1-3.6c0-0.1,0.1-0.2,0.1-0.2l3.7-1c0.1,0,0.1,0,0.2,0
		c0,0,0.1,0.1,0.1,0.2l-0.2,3.7c0,0.1-0.1,0.2-0.2,0.2L50.6,44.9C50.7,44.9,50.6,44.9,50.6,44.9z M50.9,41.2l-0.1,3.2l3.2-0.8
		l0.2-3.3L50.9,41.2z M54.2,43.8L54.2,43.8L54.2,43.8z"/>
</g>
<path class="st0" d="M97,28.9l-0.7-1.1c-0.2-0.3-0.6-0.5-0.9-0.6c-0.4-0.1-0.8,0-1.1,0.2L91,29.6c0,0,0,0,0,0c0,0,0,0,0,0l-14.5,9.9
	c0,0-0.1,0.1-0.1,0.1l-2,3.5c-0.1,0.1-0.1,0.3,0,0.4c0.1,0.1,0.2,0.2,0.3,0.2c0,0,0,0,0.1,0l4-0.6c0.1,0,0.1,0,0.2-0.1l17.7-12.1
	C97.3,30.5,97.4,29.6,97,28.9z M78.5,42.4l-3.1,0.5l1.6-2.7l14.1-9.7l1.5,2.2L78.5,42.4z M96.2,30.3l-2.9,2l-1.5-2.2l2.9-2
	c0.3-0.2,0.7-0.1,0.9,0.2l0.7,1.1C96.5,29.6,96.5,30.1,96.2,30.3z"/>
<path class="st1" d="M85.3,38.7v16.7H57.4v-3.2l0.9-0.2c0.1,0,0.1-0.1,0.2-0.2l0.5-3.7c0.9-0.2,2.1-0.6,2.4-1
	c0.6-0.7,0.8-2.8,0.2-3.5c-0.4-0.5-1-0.8-1.9-1.2l0.8-5.4c0-0.1,0-0.1-0.1-0.2c0,0-0.1-0.1-0.2,0l-2.2,0.5c-0.1-0.3-0.4-0.8-0.7-1.1
	V17.8h27.9v15.7l1.2-0.8V17.8c0-0.7-0.5-1.2-1.2-1.2H57.4c-0.7,0-1.2,0.5-1.2,1.2v16c-0.9-0.7-1.9-1.3-2.9-1.9
	c-0.1-0.5-0.3-0.9-0.6-1.2c0.1-0.3,0.2-0.5,0.3-0.8c0.5-0.5,0.7-1.2,0.8-1.6c0.2-0.6,0.4-1.6-0.1-2.3c0.2-1.6,0-2.8-0.6-3.6
	c-0.3-0.4-0.6-0.6-0.9-0.7c-0.3-0.4-0.7-0.7-1.2-0.9c-0.7-0.4-1.4-0.6-2.2-0.6c-0.1,0-0.3,0-0.4,0c-0.4,0-0.7,0.1-1.1,0.2
	c-0.4,0.1-0.8,0.3-1.1,0.6c-0.4,0.3-0.8,0.6-1.1,0.9c-0.6,0.6-1.1,1.4-1.3,2.2c-0.1,0.6-0.2,1.3-0.1,1.9c-0.5,0.7-0.3,1.6-0.1,2.3
	c0.1,0.4,0.3,1.1,0.8,1.6c0.1,0.3,0.2,0.6,0.3,0.9v0.1c-0.3,0.3-0.5,0.6-0.6,1c-1.4,0.8-2.7,1.7-4,2.7c0,0-0.9,0.8-1.5,1.6l-1.3-0.3
	c-0.1,0-0.2,0-0.3,0c-0.3,0-0.6,0.1-0.8,0.3c-0.3,0.3-0.4,0.6-0.4,1l0.7,4.7c-0.6,0.3-1.1,0.6-1.5,1.2c-0.8,1-0.6,3.7,0.3,4.7
	c0.5,0.6,1.5,0.9,2.3,1.1l0.4,3c0.1,0.5,0.4,0.9,0.9,1l9.5,2c0.1,0,0.2,0,0.2,0c0.1,0,0.2,0,0.2,0l7.2-1.5v2c0,0.7,0.5,1.2,1.2,1.2
	h27.9c0.7,0,1.2-0.5,1.2-1.2V37.8L85.3,38.7z M61.4,43.9c0.4,0.5,0.3,2.4-0.2,3c-0.4,0.5-2.6,1-3.1,0.9c-0.3-0.1-0.5-0.9-0.5-1.5
	c0-0.1-0.1-0.2-0.2-0.2c-0.2,0-0.6-0.1-0.7-0.3c-0.1-0.3-0.1-0.3,0.5-0.7c0.4-0.3,1.2-0.7,2.4-1c0.1,0,0.1-0.1,0.1-0.2l0.1-1
	C60.6,43.1,61.1,43.4,61.4,43.9z M44.9,26.9c0,0,0.1-0.1,0.2-0.1c0.1,0,0.1,0,0.2-0.1c0-0.1,0-0.1,0-0.2c-0.1-0.2-0.1-0.3-0.1-0.5
	c-0.1-0.5-0.1-1,0-1.6c0.2-0.6,0.5-1.2,0.9-1.6c0.3-0.3,0.5-0.5,0.9-0.7c0.3-0.2,0.5-0.3,0.8-0.4c0.2-0.1,0.5-0.1,0.7-0.1
	c0.6-0.1,1.3,0.1,1.9,0.4c0.4,0.2,0.7,0.5,0.9,0.8c0,0.1,0.1,0.1,0.2,0.1c0,0,0.3,0,0.6,0.4c0.3,0.4,0.6,1.1,0.3,2.7
	c0,0.2-0.1,0.3-0.1,0.5c0,0.1,0,0.1,0,0.2c0,0.1,0.1,0.1,0.2,0.1c0.1,0,0.2,0,0.2,0.1c0.1,0.1,0.2,0.3-0.1,1.1c-0.3,1-0.5,1-0.5,1
	c-0.1,0-0.2,0.1-0.2,0.2c-0.1,0.4-0.2,0.8-0.5,1.2c0,0,0,0.1,0,0.1v0.8c0,0,0,0,0,0c0,0,0,0,0,0v0.8l-2.6,3l-2.6-3v-0.7v-0.9
	c0,0,0-0.1,0-0.1c-0.2-0.4-0.4-0.8-0.4-1.2c0-0.1-0.1-0.2-0.2-0.2c0,0-0.2,0-0.5-1C44.7,27.2,44.8,27,44.9,26.9z M52.1,32.9l-1,3.4
	l-2-1.1l2.6-3c0,0,0-0.1,0-0.1v-0.5C51.9,31.8,52,32.2,52.1,32.9z M45.8,32.3l2.6,3l-2,1.1l-1.1-3.4c0,0-0.1-0.6,0.4-1.1v0.3
	C45.7,32.2,45.7,32.2,45.8,32.3z M36.4,46.8c-0.5-0.6-0.6-2.5-0.2-3c0.3-0.4,0.8-0.7,1.6-1l0.1,1c0,0.1,0.1,0.1,0.1,0.2
	c1.2,0.3,1.9,0.7,2.4,1c0.5,0.4,0.5,0.4,0.5,0.7c-0.1,0.2-0.5,0.3-0.7,0.3c-0.1,0-0.2,0.1-0.2,0.2c0,0.6-0.2,1.4-0.5,1.5
	C39,47.9,36.8,47.3,36.4,46.8z M48.6,53.5l-9.2-2L39,48.1c0.1,0,0.3,0,0.4,0c0.1,0,0.2,0,0.3,0c0.6-0.1,0.8-1.3,0.8-1.7
	c0.3-0.1,0.7-0.2,0.8-0.6c0.1-0.5,0.1-0.6-0.6-1.1c-0.4-0.4-1.2-0.7-2.4-1l-0.2-1.1c0,0,0,0,0,0l-0.8-5.3l11.2,2.5V53.5z M48.8,39.4
	l-9.2-2c0.2-0.5,1-1.4,1.4-1.8c1.2-1,2.5-1.8,3.9-2.6c0,0,0,0,0,0l1.2,3.6c0,0.1,0.1,0.1,0.1,0.1c0,0,0,0,0.1,0c0,0,0.1,0,0.1,0
	l2.4-1.3l2.4,1.3c0,0,0.1,0,0.1,0c0,0,0.1,0,0.1,0c0.1,0,0.1-0.1,0.1-0.1l1.1-3.6c0,0,0,0,0,0c1.4,0.8,2.7,1.6,3.9,2.6
	c0.4,0.3,1.3,1.3,1.5,1.8L48.8,39.4z M49,53.5V39.7l11.2-2.5l-0.8,5.3c0,0,0,0,0,0l-0.2,1.1c-1.2,0.3-1.9,0.7-2.4,1
	c-0.6,0.5-0.7,0.6-0.6,1.1c0.1,0.4,0.6,0.5,0.8,0.6c0,0.4,0.2,1.6,0.8,1.7c0.1,0,0.2,0,0.3,0c0.1,0,0.2,0,0.4,0l-0.5,3.4L49,53.5z"
	/>
</svg>
