<?xml version="1.0" encoding="utf-8"?>
<!-- Generator: Adobe Illustrator 20.0.0, SVG Export Plug-In . SVG Version: 6.00 Build 0)  -->
<svg version="1.1" id="Calque_1" xmlns="http://www.w3.org/2000/svg" xmlns:xlink="http://www.w3.org/1999/xlink" x="0px" y="0px"
	 viewBox="0 0 500 600" style="enable-background:new 0 0 500 600;" xml:space="preserve">
<style type="text/css">
	.st0{fill:#FFFFFF;}
</style>
<path class="st0" d="M30.5,20L30.5,20c2.4,0,7.5,0.8,15.7,6.1l427.1,264.7c3.6,2.9,6.6,7.1,6.6,9.2c0,2.4-3.5,6.8-6.5,9.1
	L46.2,573.9c-0.1,0.1-0.3,0.2-0.4,0.3c-7.8,5.1-12.9,5.8-15.2,5.8c-10,0-10.5-18.8-10.5-22.6V42.6C20,38.8,20.5,20,30.5,20 M30.5,0
	C12.4,0,0,15.5,0,42.6v514.8c0,27,12.4,42.6,30.5,42.6c7.9,0,16.8-2.9,26.2-9.1l428-265.1c0,0,15.2-10.8,15.2-25.7
	c0-14.9-15.2-25.7-15.2-25.7L56.7,9.1C47.3,2.9,38.4,0,30.5,0L30.5,0z"/>
</svg>
