<?xml version="1.0" encoding="utf-8"?>
<!-- Generator: Adobe Illustrator 20.0.0, SVG Export Plug-In . SVG Version: 6.00 Build 0)  -->
<svg version="1.1" id="Calque_1" xmlns="http://www.w3.org/2000/svg" xmlns:xlink="http://www.w3.org/1999/xlink" x="0px" y="0px"
	 viewBox="0 0 500 600" style="enable-background:new 0 0 500 600;" xml:space="preserve">
<style type="text/css">
	.st0{fill:#FFFFFF;}
</style>
<g>
	<path class="st0" d="M30.5,0v2c7.7,0,16.4,3,25.2,8.8L483.6,276c0,0,0,0,0,0c2.4,1.8,14.3,11.4,14.3,24c0,13.3-13.5,23.4-14.4,24
		l-428,265.1c0,0,0,0,0,0c-8.8,5.8-17.5,8.8-25.1,8.8C12.9,598,2,582.5,2,557.4V42.6C2,17.6,12.9,2,30.5,2V0 M30.5,0
		C12.4,0,0,15.5,0,42.6v514.8c0,27,12.4,42.6,30.5,42.6c7.8,0,16.8-2.9,26.2-9.1l428-265.1c0,0,15.2-10.7,15.2-25.7
		s-15.2-25.7-15.2-25.7L56.7,9.1C47.3,2.9,38.4,0,30.5,0L30.5,0z"/>
</g>
</svg>
