<?xml version="1.0" encoding="utf-8"?>
<!-- Generator: Adobe Illustrator 21.1.0, SVG Export Plug-In . SVG Version: 6.00 Build 0)  -->
<svg version="1.1" id="Calque_1" xmlns="http://www.w3.org/2000/svg" xmlns:xlink="http://www.w3.org/1999/xlink" x="0px" y="0px"
	 viewBox="0 0 200 190" style="enable-background:new 0 0 200 190;" xml:space="preserve">
<style type="text/css">
	.st0{fill:#FFFFFF;}
	.st1{fill:#424661;}
	.st2{fill:#FF6449;}
</style>
<g>
	<path class="st0" d="M56.4,188c-0.8,0-1.7-0.3-2.4-0.8l-0.2-0.2L33,166.4c-1.3-1.3-1.3-3.5,0-4.8l10.3-11.2l0-30.6
		c0.2-2.3,1.6-4.2,3.6-5.1c1.5-0.8,3.1-1.4,4.8-1.8l0.4-0.1c0.7-0.2,2.3-0.7,3.9-1.2l0.3-0.1l1.1-0.9l3.4-2.7l-4.3-0.8
		c-4.9-0.9-5.9-3.7-6-4l-0.4-1.4H34c-1.1,0-2-0.9-2-2V25c0-1.1,0.9-2,2-2h132.8c1.1,0,2,0.9,2,2v74.7c0,1.1-0.9,2-2,2h-20.4v5.6
		l1.1,0.6c5.3,2.7,10.2,6,14.8,9.7c1.5,1.2,2.3,2.9,2.3,4.8v5l0.8,0.6c0.2,0.2,0.5,0.4,0.7,0.6c0.8,0.8,1.3,1.7,1.7,2.8
		c0.8,2.6,0,5.4-2.2,7.2l-35.3,28.8c-4.5,3.4-9.8,5.2-16.8,5.5L72,176.5c-1.3,0.1-2.6,0.7-3.6,1.6l-9.7,9
		C58.2,187.7,57.3,188,56.4,188z M101.7,151.7l0.4,3.9l14.9,0.2l8.3-5.7l-1.6-3.6L101.7,151.7z M80.4,112.9c1.6,0.5,3.2,1.1,4.7,1.8
		c2,1,3.4,2.9,3.6,5.1l0,15l2.1-0.1c0.6,0,1.3-0.1,1.8-0.2l15.7-2v-10.3c0-1.9,0.8-3.6,2.3-4.8c4.6-3.7,9.6-6.9,14.9-9.7l1.1-0.6
		v-5.5H82.4l-1.6,3.6l-0.2,0.1c-1.4,0.7-3.1,1.3-5,1.6l-4.5,0.7l4.8,3.7l0.3,0.1c1.9,0.6,3.6,1.1,3.9,1.2l0.3,0.1L80.4,112.9z"/>
	<g>
		<g>
			<path class="st1" d="M88.4,73.1c-0.3,0-0.6-0.1-0.9-0.4l-9.9-9.9c-0.2-0.2-0.4-0.6-0.4-0.9s0.1-0.7,0.4-0.9l9.9-9.9
				c0.5-0.5,1.3-0.5,1.8,0c0.5,0.5,0.5,1.3,0,1.8l-9,9l9,9c0.5,0.5,0.5,1.3,0,1.8C89,73,88.7,73.1,88.4,73.1z"/>
			<path class="st1" d="M112.4,73.1c-0.3,0-0.6-0.1-0.9-0.4c-0.5-0.5-0.5-1.3,0-1.8l9-9l-9-9c-0.5-0.5-0.5-1.3,0-1.8
				c0.5-0.5,1.3-0.5,1.8,0l9.9,9.9c0.2,0.2,0.4,0.6,0.4,0.9s-0.1,0.7-0.4,0.9l-9.9,9.9C113,73,112.7,73.1,112.4,73.1z"/>
			<path class="st1" d="M93.6,79.9c-0.2,0-0.3,0-0.5-0.1c-0.6-0.3-0.9-1-0.7-1.6L106,44.8c0.3-0.6,1-0.9,1.6-0.7
				c0.6,0.3,0.9,1,0.7,1.6L94.8,79.1C94.6,79.6,94.1,79.9,93.6,79.9z"/>
		</g>
	</g>
	<path class="st2" d="M166.8,103.7c2.2,0,4-1.8,4-4V25c0-2.2-1.8-4-4-4H34c-2.2,0-4,1.8-4,4v74.7c0,2.2,1.8,4,4,4h14.6
		c0.2,0.7,1.6,4.3,7.5,5.4c-0.3,0.3-0.6,0.5-0.8,0.6c-1.6,0.5-3.2,1-3.8,1.2h0l-0.4,0.1c-1.8,0.5-3.5,1.1-5.1,1.9
		c-2.6,1.2-4.4,3.8-4.7,6.6l0,0.1v0.1l0,29.8l-9.7,10.6c-2.1,2.1-2.1,5.5,0,7.6l21,20.7l0.3,0.3c1.1,0.8,2.3,1.2,3.6,1.2
		c1.4,0,2.8-0.5,3.8-1.5l9.7-9c0.7-0.6,1.5-1,2.4-1.1l41.3-3.8c7.4-0.3,13.1-2.2,18-6l35.3-28.8c2.8-2.3,3.9-5.9,2.8-9.3
		c-0.4-1.4-1.2-2.6-2.2-3.6v0c-0.3-0.3-0.6-0.5-0.9-0.8v-4c0-2.5-1.1-4.8-3-6.4c-4.6-3.7-9.7-7.1-15.1-9.9v-2.4H166.8z M142,103.2
		c-1.2,0.7-9.8,0.7-10.9,0c-0.8-0.6-2.2-1.6-2.8-1.9c-0.6-1.1-1.1-2.4-1.3-3.7c-0.1-0.5-0.4-0.8-0.8-0.8c0,0-0.6-0.4-1.4-3.1
		c-0.7-2.5-0.3-3.1-0.3-3.2c0.1-0.2,0.9-0.1,1.2-0.5c0.2-0.3,0.2-0.6,0.1-0.9c-0.2-0.5-0.3-1-0.4-1.6c-0.4-1.6-0.4-3.3,0-4.9
		c0.5-1.9,1.5-3.6,2.9-5c0.8-0.9,1.7-1.6,2.7-2.2c0.8-0.6,1.6-1,2.5-1.3c0.7-0.2,1.5-0.4,2.3-0.4c2-0.2,4,0.2,5.9,1.3
		c1.2,0.6,2.1,1.4,2.8,2.5c0.2,0.3,0.5,0.4,0.8,0.5c0,0,0.9,0.1,1.7,1.1c0.9,1.1,1.7,3.5,0.9,8.6c-0.1,0.5-0.2,1-0.4,1.5
		c-0.1,0.3-0.1,0.7,0.2,0.9c0.2,0.3,0.5,0.4,0.9,0.4c0.1,0,0.3,0,0.3,0.1c0,0,0.5,0.6-0.3,3.2c-0.8,2.7-1.3,3.1-1.3,3.1
		c-0.5,0-0.9,0.3-1,0.8c-0.2,1.3-0.7,2.4-1.3,3.5l0,0C144.9,101.2,143,102.6,142,103.2z M144.6,103.9v2.7c-1.5,0.3-5,0.9-8.1,0.9
		c-3.1,0-6.5-0.6-8-0.9v-2.7c0.5,0.3,1,0.7,1.3,1c0.8,0.6,3.7,0.9,6.7,0.9c2.9,0,5.7-0.3,6.6-0.8
		C143.5,104.6,144.1,104.2,144.6,103.9z M106.4,122.2v8.6l-14,1.8c-0.5,0.1-1,0.1-1.6,0.1l0-12.8v-0.1l0-0.1
		c-0.3-2.9-2.1-5.4-4.7-6.7c-1.6-0.8-3.3-1.4-5.1-1.9l-0.4-0.1h0c-0.6-0.2-2.2-0.6-3.8-1.2c-0.2-0.2-0.5-0.4-0.9-0.7
		c1.8-0.3,3.8-0.8,5.6-1.8l0.8-0.5l0.4-0.9l0.9-2.1h41v2.3c-5.4,2.8-10.6,6.2-15.2,9.9C107.5,117.4,106.4,119.8,106.4,122.2z
		 M49.3,92.7H41V32h118.8v60.7h-7.2c0.2-1.5,0.2-3.2-0.8-4.5c-0.1-0.1-0.1-0.2-0.2-0.3c0.8-5.1,0.2-8.9-1.7-11.3
		c-0.9-1.2-2-1.8-2.8-2.1c-1-1.2-2.2-2.2-3.6-2.9c-2-1.1-4.3-1.8-6.6-1.8c-0.4,0-0.9,0-1.3,0.1c-1.1,0.1-2.2,0.3-3.2,0.6
		c-1.2,0.4-2.4,1-3.5,1.8c-1.2,0.8-2.3,1.7-3.3,2.8c-1.9,1.9-3.2,4.2-3.8,6.8c-0.5,2.1-0.5,4.2-0.1,6.2c-0.1,0.1-0.1,0.2-0.2,0.2
		c-1,1.3-1,2.9-0.8,4.4H80.9c0.3-4.8-0.1-10.7-3.3-14.3c-1.6-1.8-3.9-2.8-6.4-2.9c-1.2-0.9-3.2-2-6.2-2c-1.5,0-3.1,0.3-4.7,0.9
		c-0.1,0-0.3,0.1-0.5,0.1c-4,1.2-8.3,3.9-10.1,14.7C49.6,90.5,49.5,91.6,49.3,92.7z M121,94.7c0,0,0,0.1,0,0.1
		c0.3,1.2,1,3.5,2.4,4.8c0,0,0,0,0,0H83.7c-0.2-0.3-0.5-0.6-0.8-0.9c-1.2-1.3-2-2.5-2.1-4.1H121z M34,25h132.8v74.7h-17.1
		c0,0,0,0,0,0c1.4-1.3,2.1-3.7,2.5-4.9c0,0,0-0.1,0-0.1h8.6c0.6,0,1-0.4,1-1V31c0-0.6-0.4-1-1-1H40c-0.6,0-1,0.4-1,1v62.7
		c0,0.6,0.4,1,1,1h9.1c-0.2,1.9-0.4,3.7-0.5,5H34V25z M52.3,102.7c0-1.1,0.3-6.5,1.3-12.8c1.6-9.9,5.3-11,7.4-11.7
		c0.2-0.1,0.5-0.1,0.7-0.2c5.1-1.9,7.6,0.9,7.7,1c0.2,0.3,0.5,0.4,0.9,0.4c1.8-0.2,3.2,0.3,4.3,1.4c2.1,2.1,3,6.8,2.4,12.8
		c-0.4,3.8,1.8,6.3,3.1,7.7c0.1,0.1,0.2,0.2,0.3,0.3l-1,2.3c-3.2,1.6-7.4,1.5-7.5,1.5c0,0,0,0,0,0c0,0,0,0,0,0l-11.8,0.1
		c-0.1,0-0.2,0-0.3,0C54,105.6,52.5,103.2,52.3,102.7z M71.2,110.1c-1.7-0.3-3.7-0.6-5.2-0.6c-1.6,0-3.5,0.3-5.3,0.7
		c0.2-0.2,0.4-0.5,0.4-0.8v-1.9l9.8,0v1.9C70.9,109.7,71.1,110,71.2,110.1z M47.6,116.3c1.4-0.7,2.9-1.3,4.4-1.7l0,0
		c0.9-0.2,3.7-1.1,4.9-1.5c0.3-0.1,5.8-1.7,9.1-1.7c3.3,0,8.8,1.5,9.1,1.6c1.6,0.6,4,1.3,4.8,1.5v0c1.5,0.4,3,1,4.5,1.7
		c1.4,0.7,2.4,2,2.6,3.6l0,12.6c-0.1,0-0.2,0-0.2,0l-0.2,0c-15.2-2.5-30.5,2.5-41.4,13.2l0-25.7C45.2,118.4,46.2,117,47.6,116.3z
		 M163.2,135.5l-33.9,27.6l-1.3,1.1c-3.8,3-8.5,4.5-14.8,4.8l-41.4,3.8c-2.1,0.2-4.2,1.1-5.8,2.6l-9.7,8.9L35.8,164l11.7-12.7
		c9.7-10.5,23.9-15.5,38-13.2c2.2,0.5,5.6,0.5,7.6,0.2l28.2-3.6l0.3-0.1c1.3-0.3,2.7,0.1,3.7,1.1c0.6,0.6,0.9,1.2,1.1,2
		c0.6,2.3-1,4.4-2.7,4.9L92.5,150l-0.2,0.1c-2.3,0.8-3.7,3.3-3.1,5.7l0.1,0.2c0.2,0.7,0.6,1.3,1.1,1.8c1,1,2.4,1.5,3.8,1.4l24,0.3
		l41.4-28.7c1.4-1,3-0.6,3.9,0.3c0.3,0.3,0.6,0.8,0.7,1.2C164.5,133.5,164.1,134.8,163.2,135.5z M124.2,148.4l-7.7,5.4l-14.2-0.2
		L124.2,148.4z M161.1,118.9c1,0.8,1.6,2.1,1.6,3.4l0,2.4c-2.2-0.4-4.6,0.1-6.5,1.5L131,143.7c1.3-2.2,1.7-4.8,1-7.3
		c-0.5-1.7-1.4-3.3-2.6-4.6c-2.4-2.4-5.7-3.4-8.8-2.7l-10.3,1.3v-8.1c0-1.3,0.6-2.6,1.6-3.4c4.6-3.7,9.6-6.9,15-9.7l0.9-0.6
		c1.3,0.3,5.1,1,8.8,1c3.6,0,7.5-0.7,8.9-1l0.6,0.5c0.1,0.1,0.1,0.1,0.2,0.1C151.5,111.9,156.5,115.2,161.1,118.9z"/>
</g>
</svg>
