<?xml version="1.0" encoding="utf-8"?>
<!-- Generator: Adobe Illustrator 21.1.0, SVG Export Plug-In . SVG Version: 6.00 Build 0)  -->
<svg version="1.1" id="Calque_1" xmlns="http://www.w3.org/2000/svg" xmlns:xlink="http://www.w3.org/1999/xlink" x="0px" y="0px"
	 viewBox="0 0 200 190" style="enable-background:new 0 0 200 190;" xml:space="preserve">
<style type="text/css">
	.st0{fill:#FFFFFF;}
	.st1{fill:#FF6444;}
	.st2{fill:#424661;}
</style>
<g>
	<path class="st0" d="M169,68.2c1.3-1.3,1.3-3.5,0-4.8l-3.5-3.5c-0.6-0.6-1.5-1-2.4-1s-1.8,0.4-2.4,1l-14.5,14.5V31.7
		c0-2.8-2.2-5-5-5H55.8c-2.8,0-5,2.2-5,5l0,110.4l0,0.1v1.1l-0.8,0.6c-1.9,1.5-3.7,3.2-5.2,4.9L33,161.7c-1.3,1.3-1.3,3.5,0,4.8
		L53.8,187l0.2,0.2c0.7,0.5,1.5,0.8,2.4,0.8c0.9,0,1.8-0.3,2.4-1l9.7-9c1-0.9,2.2-1.5,3.6-1.6l41.3-3.8c7-0.3,12.3-2.1,16.8-5.5
		l35.3-28.8c2.1-1.7,3-4.6,2.2-7.2c-0.3-1-0.9-2-1.7-2.8c-1.3-1.3-3-2-4.8-2c-1.4,0-2.7,0.4-3.9,1.3l-11.1,7.7V90.9L169,68.2z
		 M102.2,155.6l-0.4-3.9l22-5.2l1.6,3.6l-8.3,5.7L102.2,155.6z"/>
	<path class="st1" d="M170.4,69.6c2.1-2.1,2.1-5.5,0-7.6l-3.5-3.5c-2.1-2.1-5.5-2.1-7.6,0l-11,11V31.7c0-3.9-3.1-7-7-7H55.8
		c-3.9,0-7,3.1-7,7v110.5c0,0,0,0.1,0,0.1c-1.9,1.5-3.8,3.2-5.5,5.1l-11.8,12.8c-2.1,2.1-2.1,5.5,0,7.6l21,20.7l0.3,0.3
		c1.1,0.8,2.3,1.2,3.6,1.2c1.4,0,2.8-0.5,3.8-1.5l9.7-9c0.7-0.6,1.5-1,2.4-1.1l41.3-3.8c7.4-0.3,13.1-2.2,18-6l35.3-28.8
		c2.8-2.3,3.9-5.9,2.8-9.3c-0.4-1.4-1.2-2.6-2.2-3.6v0c-3-3-7.8-3.4-11.2-0.9l-8,5.5V91.7L170.4,69.6z M161.5,60.7
		c0.9-0.9,2.4-0.9,3.3,0l3.5,3.5c0.9,0.9,0.9,2.4,0,3.3l-8.8,8.8l-6.7-6.7L161.5,60.7z M157.3,78.4l-39.7,39.7l-10.5,3.7l3.7-10.5
		l39.7-39.7L157.3,78.4z M159.6,130.8c1.4-1,3-0.6,3.9,0.3c0.3,0.3,0.6,0.8,0.7,1.2c0.4,1.2,0,2.4-1,3.2l-33.9,27.6l-1.3,1.1
		c-3.8,3-8.5,4.5-14.8,4.8l-41.4,3.8c-2.1,0.2-4.2,1.1-5.8,2.6l-9.7,8.9L35.8,164l11.7-12.7c9.7-10.5,23.9-15.5,38-13.2
		c2.2,0.5,5.6,0.5,7.6,0.2l28.2-3.6l0.3-0.1c1.3-0.3,2.7,0.1,3.7,1.1c0.6,0.6,0.9,1.2,1.1,2c0.6,2.3-1,4.4-2.7,4.9L92.5,150
		l-0.2,0.1c-2.3,0.8-3.7,3.3-3.1,5.7l0.1,0.2c0.2,0.7,0.6,1.3,1.1,1.8c1,1,2.4,1.5,3.8,1.4l24,0.3L159.6,130.8z M124.2,148.4
		l-7.7,5.4l-14.2-0.2L124.2,148.4z M142.3,135.8l-11.3,7.8c1.3-2.2,1.7-4.8,1-7.3c-0.5-1.7-1.4-3.3-2.6-4.6
		c-2.4-2.4-5.7-3.4-8.8-2.7l-28.2,3.6c-1.7,0.2-4.4,0.2-5.7-0.1l-0.2,0c-11.1-1.8-22.3,0.4-31.7,5.8V31.7c0-0.6,0.4-1,1-1h85.5
		c0.6,0,1,0.4,1,1v43.8l-33.9,33.9c-0.2,0.2-0.3,0.4-0.4,0.6l-5,13.9c-0.2,0.6-0.1,1.2,0.4,1.6c0.4,0.4,1,0.6,1.6,0.4l13.9-5
		c0.2-0.1,0.4-0.2,0.6-0.4l22.8-22.8V135.8z"/>
	<g>
		<path class="st2" d="M113.5,92.5H65.6c-0.6,0-1.1-0.5-1.1-1.1s0.5-1.1,1.1-1.1h47.9c0.6,0,1.1,0.5,1.1,1.1S114.1,92.5,113.5,92.5z
			"/>
		<path class="st2" d="M104.5,101.8H65.6c-0.6,0-1.1-0.5-1.1-1.1s0.5-1.1,1.1-1.1h38.9c0.6,0,1.1,0.5,1.1,1.1
			S105.1,101.8,104.5,101.8z"/>
		<path class="st2" d="M100,111.1H65.6c-0.6,0-1.1-0.5-1.1-1.1s0.5-1.1,1.1-1.1H100c0.6,0,1.1,0.5,1.1,1.1S100.6,111.1,100,111.1z"
			/>
		<path class="st2" d="M100,120.4H65.6c-0.6,0-1.1-0.5-1.1-1.1s0.5-1.1,1.1-1.1H100c0.6,0,1.1,0.5,1.1,1.1S100.6,120.4,100,120.4z"
			/>
	</g>
	<path class="st2" d="M100,60.5c0-2,1.2-3.6,3.1-4.7c-0.3-1.1-0.8-2.2-1.3-3.2c-2.1,0.5-3.8-0.3-5.2-1.7c-1.4-1.4-1.8-3.1-1.3-5.2
		c-1-0.5-2.1-1-3.2-1.3c-1.1,1.9-3,3.1-5,3.1c-2,0-4-1.2-5-3.1c-1.1,0.3-2.2,0.8-3.2,1.3c0.5,2.1,0.1,3.8-1.3,5.2
		c-1.4,1.4-3.1,2.2-5.2,1.7c-0.5,1-1,2.1-1.3,3.2c1.9,1.1,3.1,2.7,3.1,4.7c0,2-1.2,4-3.1,5c0.3,1.1,0.8,2.2,1.3,3.2
		c2.1-0.5,3.8-0.1,5.2,1.3c1.4,1.4,1.8,3.1,1.3,5.2c1,0.5,2.1,1,3.2,1.3c1.1-1.9,3-3.1,5-3.1c2,0,4,1.2,5,3.1
		c1.1-0.3,2.2-0.8,3.2-1.3c-0.5-2.1-0.1-3.8,1.3-5.2c1.4-1.4,3.1-2.2,5.2-1.7c0.5-1,1-2.1,1.3-3.2C101.2,64.1,100,62.5,100,60.5z
		 M87.1,67.5c-3.8,0-7-3.1-7-7c0-3.8,3.1-7,7-7c3.8,0,7,3.1,7,7C94,64.4,90.9,67.5,87.1,67.5z"/>
	<path class="st2" d="M122.5,66.4c0-1.3,0.8-2.3,1.9-2.9c-0.2-0.7-0.5-1.4-0.8-2c-1.3,0.3-2.4-0.2-3.3-1.1c-0.9-0.9-1.2-1.9-0.8-3.3
		c-0.6-0.3-1.3-0.6-2-0.8c-0.7,1.2-1.9,1.9-3.2,1.9c-1.3,0-2.5-0.8-3.2-1.9c-0.7,0.2-1.4,0.5-2,0.8c0.3,1.3,0.1,2.4-0.8,3.3
		c-0.9,0.9-1.9,1.4-3.3,1.1c-0.3,0.6-0.6,1.3-0.8,2c1.2,0.7,1.9,1.7,1.9,2.9c0,1.3-0.8,2.5-1.9,3.2c0.2,0.7,0.5,1.4,0.8,2
		c1.3-0.3,2.4-0.1,3.3,0.8c0.9,0.9,1.2,2,0.8,3.3c0.6,0.3,1.3,0.6,2,0.8c0.7-1.2,1.9-1.9,3.2-1.9c1.3,0,2.5,0.8,3.2,1.9
		c0.7-0.2,1.4-0.5,2-0.8c-0.3-1.3-0.1-2.4,0.8-3.3c0.9-0.9,1.9-1.4,3.3-1.1c0.3-0.6,0.6-1.3,0.8-2C123.3,68.7,122.5,67.7,122.5,66.4
		z M114.4,70.8c-2.4,0-4.4-2-4.4-4.4c0-2.4,2-4.4,4.4-4.4c2.4,0,4.4,2,4.4,4.4C118.8,68.9,116.8,70.8,114.4,70.8z"/>
</g>
</svg>
