<?xml version="1.0" encoding="utf-8"?>
<!-- Generator: Adobe Illustrator 21.1.0, SVG Export Plug-In . SVG Version: 6.00 Build 0)  -->
<svg version="1.1" id="Calque_1" xmlns="http://www.w3.org/2000/svg" xmlns:xlink="http://www.w3.org/1999/xlink" x="0px" y="0px"
	 viewBox="0 0 200 190" style="enable-background:new 0 0 200 190;" xml:space="preserve">
<style type="text/css">
	.st0{fill:#FFFFFF;}
	.st1{fill:#FF6449;}
	.st2{fill:#424661;}
</style>
<g>
	<g>
		<path class="st0" d="M192.4,94.3h-25.3V53.2c0-4.8-3.9-8.6-8.6-8.6h-112c-4.8,0-8.6,3.9-8.6,8.6v8.6H27.3c-2.8,0-5.2,2.3-5.2,5.2
			v63.9c0,2.8,2.3,5.2,5.2,5.2h35.6l-6.6,3.7c-4.3,2.4-8.1,5.4-11.4,9L33,161.7c-1.3,1.3-1.3,3.5,0,4.8L53.8,187l0.2,0.2
			c0.7,0.5,1.5,0.8,2.4,0.8c0.9,0,1.8-0.3,2.4-1l9.7-9c1-0.9,2.2-1.5,3.6-1.6l41.3-3.8c7-0.3,12.3-2.1,16.8-5.5l35.3-28.8
			c0.5-0.4,1-0.9,1.4-1.5l0.6-0.9h24.9c2.8,0,5.2-2.3,5.2-5.2V99.5C197.5,96.6,195.2,94.3,192.4,94.3z M117,155.8l-14.9-0.2
			l-0.4-3.9l22-5.2l1.6,3.6L117,155.8z M129.3,142.7c0.8-1.4,1.1-2.9,1-4.5l-0.2-2.2h15.4l-13.4,9.3L129.3,142.7z"/>
		<path class="st1" d="M42.9,124.7c-2.1,0-3.9,1.7-3.9,3.9c0,2.1,1.7,3.9,3.9,3.9c2.1,0,3.9-1.7,3.9-3.9
			C46.8,126.4,45.1,124.7,42.9,124.7z M42.9,131.4c-1.6,0-2.9-1.3-2.9-2.9c0-1.6,1.3-2.9,2.9-2.9c1.6,0,2.9,1.3,2.9,2.9
			C45.8,130.1,44.5,131.4,42.9,131.4z"/>
		<path class="st1" d="M44.2,67.6h-8.4c-0.3,0-0.5,0.2-0.5,0.5s0.2,0.5,0.5,0.5h8.4c0.3,0,0.5-0.2,0.5-0.5S44.5,67.6,44.2,67.6z"/>
		<path class="st1" d="M50.1,67.6h-2.6c-0.3,0-0.5,0.2-0.5,0.5s0.2,0.5,0.5,0.5h2.6c0.3,0,0.5-0.2,0.5-0.5S50.4,67.6,50.1,67.6z"/>
		<circle class="st1" cx="128.1" cy="106.5" r="1.3"/>
		<path class="st1" d="M191.3,107.5c-0.3,0-0.5,0.2-0.5,0.5v8.4c0,0.3,0.2,0.5,0.5,0.5s0.5-0.2,0.5-0.5V108
			C191.8,107.7,191.5,107.5,191.3,107.5z"/>
		<path class="st1" d="M191.3,119.3c-0.3,0-0.5,0.2-0.5,0.5v2.6c0,0.3,0.2,0.5,0.5,0.5s0.5-0.2,0.5-0.5v-2.6
			C191.8,119.5,191.5,119.3,191.3,119.3z"/>
		<path class="st1" d="M128.7,111.9v6.5c0,1.2,1,2.2,2.2,2.2c1.2,0,2.2-1,2.2-2.2v-6.5c0-1.2-1-2.2-2.2-2.2
			C129.6,109.7,128.7,110.7,128.7,111.9z M129.7,111.9c0-0.7,0.5-1.2,1.2-1.2c0.7,0,1.2,0.5,1.2,1.2v6.5c0,0.7-0.5,1.2-1.2,1.2
			c-0.7,0-1.2-0.5-1.2-1.2V111.9z"/>
		<path class="st1" d="M192.4,92.3h-23.3V53.2c0-5.9-4.8-10.6-10.6-10.6h-112c-5.9,0-10.6,4.8-10.6,10.6v6.6h-8.6
			c-4,0-7.2,3.2-7.2,7.2v63.9c0,4,3.2,7.2,7.2,7.2h27.9c-4.4,2.5-8.4,5.6-11.9,9.4l-11.8,12.8c-2.1,2.1-2.1,5.5,0,7.6l21,20.7
			l0.3,0.3c1.1,0.8,2.3,1.2,3.6,1.2c1.4,0,2.8-0.5,3.8-1.5l9.7-9c0.7-0.6,1.5-1,2.4-1.1l41.3-3.8c7.4-0.3,13.1-2.2,18-6l35.3-28.8
			c0.7-0.6,1.3-1.2,1.8-2h23.8c4,0,7.2-3.2,7.2-7.2V99.5C199.5,95.5,196.3,92.3,192.4,92.3z M40.4,53.2c0-3.4,2.7-6.1,6.1-6.1h112
			c3.4,0,6.1,2.7,6.1,6.1v42.6h-10.6V55.5c0-0.5-0.4-1-1-1H50.3c-0.5,0-1,0.4-1,1v7.9h-8.9V53.2z M132.3,138h6.9l-8.2,5.7
			C132,142,132.4,140,132.3,138z M135.3,133.4h-4.5c-0.4-0.6-0.8-1.2-1.4-1.7c-1-1-2.2-1.8-3.5-2.3V99.8c0-1.6,1.3-3,3-3h6.4V133.4z
			 M128.9,95.9c-2.2,0-3.9,1.8-3.9,3.9v25.3H62.2V67.3c0-2.2-1.8-3.9-3.9-3.9h-8v-7.9h102.7v40.4H128.9z M27.6,133.4
			c-1.6,0-3-1.3-3-3v-6.4H56c0.3,0,0.5-0.2,0.5-0.5c0-0.3-0.2-0.5-0.5-0.5H24.7V72.3H56c0.3,0,0.5-0.2,0.5-0.5
			c0-0.3-0.2-0.5-0.5-0.5H24.7v-3.9c0-1.6,1.3-3,3-3h12.8h8.9h1h8c1.6,0,3,1.3,3,3v63.2c0,1.6-1.3,3-3,3H46.5H27.6z M60.9,133.4
			c0.8-0.7,1.4-1.8,1.4-3v-4.4h62.7v3.1c-1.4-0.4-2.9-0.4-4.4-0.1l-28.2,3.6c-1.7,0.2-4.4,0.2-5.7-0.1l-0.2,0
			c-6.8-1.1-13.6-0.7-20.1,1H60.9z M163.2,135.5l-33.9,27.6l-1.3,1.1c-3.8,3-8.5,4.5-14.8,4.8l-41.4,3.8c-2.1,0.2-4.2,1.1-5.8,2.6
			l-9.7,8.9L35.8,164l11.7-12.7c9.7-10.5,23.9-15.5,38-13.2c2.2,0.5,5.6,0.5,7.6,0.2l28.2-3.6l0.3-0.1c1.3-0.3,2.7,0.1,3.7,1.1
			c0.6,0.6,0.9,1.2,1.1,2c0.6,2.3-1,4.4-2.7,4.9L92.5,150l-0.2,0.1c-2.3,0.8-3.7,3.3-3.1,5.7l0.1,0.2c0.2,0.7,0.6,1.3,1.1,1.8
			c1,1,2.4,1.5,3.8,1.4l24,0.3l41.4-28.7c1.4-1,3-0.6,3.9,0.3c0.3,0.3,0.6,0.8,0.7,1.2C164.5,133.5,164.1,134.8,163.2,135.5z
			 M124.2,148.4l-7.7,5.4l-14.2-0.2L124.2,148.4z M187.1,133.4H170c0-0.9-0.1-1.9-0.4-2.8c-0.4-1.4-1.2-2.6-2.2-3.6v0
			c-3-3-7.8-3.4-11.2-0.9l-10.5,7.3h-9.4V96.9h28.3h22.5V133.4z M195,130.5c0,1.6-1.3,3-3,3h-3.9V96.9h3.9c1.6,0,3,1.3,3,3V130.5z"
			/>
	</g>
	<g>
		<g>
			<path class="st2" d="M92.2,98.3c-0.3,0-0.5-0.1-0.7-0.3l-7.8-7.8c-0.2-0.2-0.3-0.4-0.3-0.7s0.1-0.5,0.3-0.7l7.8-7.8
				c0.4-0.4,1-0.4,1.4,0c0.4,0.4,0.4,1,0,1.4l-7.1,7.1l7.1,7.1c0.4,0.4,0.4,1,0,1.4C92.7,98.2,92.4,98.3,92.2,98.3z"/>
			<path class="st2" d="M111,98.3c-0.3,0-0.5-0.1-0.7-0.3c-0.4-0.4-0.4-1,0-1.4l7.1-7.1l-7.1-7.1c-0.4-0.4-0.4-1,0-1.4
				c0.4-0.4,1-0.4,1.4,0l7.8,7.8c0.2,0.2,0.3,0.4,0.3,0.7s-0.1,0.5-0.3,0.7l-7.8,7.8C111.5,98.2,111.3,98.3,111,98.3z"/>
			<path class="st2" d="M96.3,103.6c-0.1,0-0.2,0-0.4-0.1c-0.5-0.2-0.7-0.8-0.5-1.3L106,76.1c0.2-0.5,0.8-0.7,1.3-0.5
				c0.5,0.2,0.7,0.8,0.5,1.3L97.2,103C97,103.4,96.7,103.6,96.3,103.6z"/>
			<path class="st2" d="M37,104.1c-0.3,0-0.5-0.1-0.7-0.3l-4.9-4.9c-0.4-0.4-0.4-1,0-1.4l4.9-4.9c0.4-0.4,1-0.4,1.4,0
				c0.4,0.4,0.4,1,0,1.4l-4.2,4.2l4.2,4.2c0.4,0.4,0.4,1,0,1.4C37.5,104,37.2,104.1,37,104.1z"/>
			<path class="st2" d="M48.9,104.1c-0.3,0-0.5-0.1-0.7-0.3c-0.4-0.4-0.4-1,0-1.4l4.2-4.2l-4.2-4.2c-0.4-0.4-0.4-1,0-1.4
				c0.4-0.4,1-0.4,1.4,0l4.9,4.9c0.4,0.4,0.4,1,0,1.4l-4.9,4.9C49.4,104,49.2,104.1,48.9,104.1z"/>
			<path class="st2" d="M39.6,107.4c-0.1,0-0.2,0-0.4-0.1c-0.5-0.2-0.7-0.8-0.5-1.3l6.7-16.6c0.2-0.5,0.8-0.7,1.3-0.5
				c0.5,0.2,0.7,0.8,0.5,1.3l-6.7,16.6C40.3,107.2,40,107.4,39.6,107.4z"/>
			<path class="st2" d="M154.5,120.3c-0.3,0-0.5-0.1-0.7-0.3l-4.9-4.9c-0.4-0.4-0.4-1,0-1.4l4.9-4.9c0.4-0.4,1-0.4,1.4,0
				c0.4,0.4,0.4,1,0,1.4l-4.2,4.2l4.2,4.2c0.4,0.4,0.4,1,0,1.4C155,120.2,154.7,120.3,154.5,120.3z"/>
			<path class="st2" d="M166.4,120.3c-0.3,0-0.5-0.1-0.7-0.3c-0.4-0.4-0.4-1,0-1.4l4.2-4.2l-4.2-4.2c-0.4-0.4-0.4-1,0-1.4
				c0.4-0.4,1-0.4,1.4,0l4.9,4.9c0.4,0.4,0.4,1,0,1.4l-4.9,4.9C166.9,120.2,166.7,120.3,166.4,120.3z"/>
			<path class="st2" d="M157.1,123.7c-0.1,0-0.2,0-0.4-0.1c-0.5-0.2-0.7-0.8-0.5-1.3l6.7-16.6c0.2-0.5,0.8-0.7,1.3-0.5
				c0.5,0.2,0.7,0.8,0.5,1.3L158,123C157.8,123.4,157.5,123.7,157.1,123.7z"/>
		</g>
	</g>
</g>
<path class="st0" d="M132.3,138h6.9l-8.2,5.7C132,142,132.4,140,132.3,138z"/>
</svg>
