<?xml version="1.0" encoding="utf-8"?>
<!-- Generator: Adobe Illustrator 21.1.0, SVG Export Plug-In . SVG Version: 6.00 Build 0)  -->
<svg version="1.1" id="Calque_1" xmlns="http://www.w3.org/2000/svg" xmlns:xlink="http://www.w3.org/1999/xlink" x="0px" y="0px"
	 viewBox="0 0 200 190" style="enable-background:new 0 0 200 190;" xml:space="preserve">
<style type="text/css">
	.st0{fill:#FFFFFF;}
	.st1{fill:#FF6449;}
	.st2{fill:#424661;}
</style>
<g>
	<path class="st0" d="M167.7,131.2c-0.3-1-0.9-2-1.7-2.8c-1.3-1.3-3-2-4.8-2c-1.4,0-2.7,0.4-3.9,1.3l-17.3,12v-27.1
		c0-3.3-1.5-6.3-4-8.4c-6.6-5.3-13.7-10.1-21.3-14.2l1-3.8h16.1c0.7,0,1.3-0.3,1.7-0.8c0.4-0.5,0.7-1.1,0.6-1.8l-4-54.8
		c-0.1-1.2-1.1-2.2-2.4-2.2H64.3c-1.2,0-2.3,1-2.4,2.2l-4,54.8c0,0.7,0.2,1.3,0.6,1.8c0.4,0.5,1.1,0.8,1.7,0.8h14.2l0.9,3.8
		c-8.1,4.3-15.3,9.1-21.5,14.1c-2.5,2.1-4,5.1-4,8.4V143l-0.7,1.5c-1.6,1.3-3.1,2.8-4.5,4.3L33,161.7c-1.3,1.3-1.3,3.5,0,4.8
		L53.8,187l0.2,0.2c0.7,0.5,1.5,0.8,2.4,0.8c0.9,0,1.8-0.3,2.4-1l9.7-9c1-0.9,2.2-1.5,3.6-1.6l41.3-3.8c7-0.3,12.3-2.1,16.8-5.5
		l35.3-28.8C167.7,136.7,168.5,133.9,167.7,131.2z M117,155.8l-14.9-0.2l-0.4-3.9l22-5.2l1.6,3.6L117,155.8z"/>
	<path class="st1" d="M169.6,130.6c-0.4-1.4-1.2-2.6-2.2-3.6v0c-3-3-7.8-3.4-11.2-0.9l-14.1,9.8v-23.3c0-3.9-1.7-7.5-4.8-9.9
		c-6.7-5.4-13.9-10.2-21.6-14.4h16.1c1.2,0,2.4-0.5,3.2-1.4c0.8-0.9,1.2-2.1,1.2-3.3l-4-54.8c-0.2-2.3-2.1-4.1-4.4-4.1h-15.1
		c-0.8-5.9-5.9-10.5-12-10.5c-1.9,0-3.7,0.4-5.3,1.2c-1.6-0.8-3.4-1.2-5.3-1.2c-6.1,0-11.2,4.6-12,10.5h-14c-2.3,0-4.2,1.8-4.4,4.1
		l-4,54.8c-0.1,1.2,0.3,2.4,1.2,3.3c0.8,0.9,2,1.4,3.2,1.4h14.2c-8.2,4.4-15.5,9.2-21.8,14.3c-3,2.4-4.7,6.1-4.8,9.9V143
		c0,0,0,0,0,0c-1.6,1.4-3.2,2.8-4.7,4.4l-11.8,12.8c-2.1,2.1-2.1,5.5,0,7.6l21,20.7l0.3,0.3c1.1,0.8,2.3,1.2,3.6,1.2
		c1.4,0,2.8-0.5,3.8-1.5l9.7-9c0.7-0.6,1.5-1,2.4-1.1l41.3-3.8c7.4-0.3,13.1-2.2,18-6l35.3-28.8C169.6,137.7,170.7,134,169.6,130.6z
		 M80.4,91.1C80.4,91,80.4,91,80.4,91.1 M109.9,91C109.9,91,109.9,91,109.9,91 M120.8,30.6h5.6l3.7,50.6l-9.3-7.8V30.6z M128.5,82.4
		h-12.6l4.2-7.1L128.5,82.4z M118.8,30.6v43l-3.7,6.2l3.6-49.2H118.8z M100.8,16.3c5,0,9.1,3.7,9.9,8.5h-8.5c-0.4-3.2-2.1-6-4.6-7.9
		C98.6,16.5,99.7,16.3,100.8,16.3z M95.5,17.8c2.4,1.5,4.2,4,4.7,6.9h-9.3C91.3,21.8,93.1,19.3,95.5,17.8z M90.2,16.3
		c1.1,0,2.1,0.2,3.1,0.5c-2.4,1.9-4.1,4.7-4.6,7.9h-8.5C81.1,19.9,85.2,16.3,90.2,16.3z M61.9,82.4l3.8-51.8h12.4v6.3
		c0,0.6,0.4,1,1,1s1-0.4,1-1v-6.3h20.2v6.3c0,0.6,0.4,1,1,1s1-0.4,1-1v-6.3h14.4l-3.8,51.8H61.9z M91.9,132.6
		c-1.7,0.2-4,0.1-5.2-0.1l-0.2,0c-11.7-1.9-23.4,0.6-33.2,6.7c0,0,0,0,0,0v-26.5c0-2.2,1-4.4,2.8-5.8c6.2-5,13.4-9.7,21.4-14
		l4.4-3.6v-3.8h26.4v3.8l4.4,3.6c7.5,4.1,14.7,8.8,21.2,14c1.7,1.4,2.8,3.5,2.8,5.8v27l-5.8,4c1.3-2.2,1.7-4.8,1-7.3
		c-0.5-1.7-1.4-3.3-2.6-4.6c-2.4-2.4-5.7-3.4-8.8-2.7L91.9,132.6z M50.7,140.9C50.6,140.9,50.6,141,50.7,140.9
		C50.6,141,50.6,140.9,50.7,140.9z M163.2,135.5l-33.9,27.6l-1.3,1.1c-3.8,3-8.5,4.5-14.8,4.8l-41.4,3.8c-2.1,0.2-4.2,1.1-5.8,2.6
		l-9.7,8.9L35.8,164l11.7-12.7c9.7-10.5,23.9-15.5,38-13.2c2.2,0.5,5.6,0.5,7.6,0.2l28.2-3.6l0.3-0.1c1.3-0.3,2.7,0.1,3.7,1.1
		c0.6,0.6,0.9,1.2,1.1,2c0.6,2.3-1,4.4-2.7,4.9L92.5,150l-0.2,0.1c-2.3,0.8-3.7,3.3-3.1,5.7l0.1,0.2c0.2,0.7,0.6,1.3,1.1,1.8
		c1,1,2.4,1.5,3.8,1.4l24,0.3l41.4-28.7c1.4-1,3-0.6,3.9,0.3c0.3,0.3,0.6,0.8,0.7,1.2C164.5,133.5,164.1,134.8,163.2,135.5z
		 M124.2,148.4l-7.7,5.4l-14.2-0.2L124.2,148.4z"/>
	<path class="st2" d="M117.1,104l-4.3-11.2l-4.4-3.6l-4.7,16.3c-0.7,2.5-3.6,5.1-8.6,5.1c-4.8,0-7.7-2.6-8.4-5.1L82,89.2l-4.4,3.6
		L73.2,104c-0.1,0.3-0.1,0.6,0.1,0.8c0.1,0.3,0.4,0.4,0.7,0.5l8,1.7l-5.4,7.6c-0.3,0.4-0.2,0.9,0.1,1.3l15.4,16.8l2.6-0.3l-6.3-21.7
		c1.7,1.2,4,2,6.9,2c2.7,0,5.2-0.8,7.1-2.1l-6.3,21.6l3.3-0.4l14.5-15.8c0.3-0.3,0.4-0.9,0.1-1.3l-5.4-7.6l8-1.7
		c0.3-0.1,0.5-0.2,0.7-0.5C117.2,104.6,117.2,104.3,117.1,104z M91.5,129.2l-12.9-14.1l5.9-8.2c0.2-0.3,0.2-0.6,0.1-0.9
		c-0.1-0.3-0.4-0.5-0.7-0.6l-8.3-1.8l4.9-12.5l0-0.1L91.5,129.2z M106.5,105.4c-0.3,0.1-0.6,0.3-0.7,0.6c-0.1,0.3-0.1,0.7,0.1,0.9
		l5.9,8.2l-12.9,14.1L109.9,91l0,0.1l4.9,12.5L106.5,105.4z"/>
</g>
</svg>
