<?xml version="1.0" encoding="utf-8"?>
<!-- Generator: Adobe Illustrator 21.1.0, SVG Export Plug-In . SVG Version: 6.00 Build 0)  -->
<svg version="1.1" id="Calque_1" xmlns="http://www.w3.org/2000/svg" xmlns:xlink="http://www.w3.org/1999/xlink" x="0px" y="0px"
	 viewBox="0 0 200 190" style="enable-background:new 0 0 200 190;" xml:space="preserve">
<style type="text/css">
	.st0{fill:#424661;}
	.st1{fill:#FFFFFF;}
	.st2{fill:#FF6449;}
</style>
<g>
	<circle class="st0" cx="94.5" cy="3.4" r="2"/>
	<path class="st0" d="M105.5,11c-1.9,0-3.4-1.5-3.4-3.4s1.5-3.3,3.4-3.3c1.9,0,3.3,1.5,3.3,3.3C108.8,9.5,107.4,11,105.5,11z"/>
	<path class="st0" d="M100,23.7c-3,0-5.5-2.5-5.5-5.5s2.5-5.5,5.5-5.5s5.5,2.5,5.5,5.5S103,23.7,100,23.7z"/>
	<g>
		<path class="st1" d="M167.7,131.2c-0.3-1-0.9-2-1.7-2.8c-1.3-1.3-3-2-4.8-2c-1.4,0-2.7,0.4-3.9,1.3l-25.3,17.5l-2.9-2.6
			c1-1.8,1.3-3.9,0.8-5.8c-0.4-1.4-1.1-2.7-2.1-3.7c-0.7-0.7-1.6-1.3-2.6-1.7l-2.9-1.2l2.4-2.1c7.8-6.9,12.3-16.8,12.3-27.1
			c0-15-9.4-28.6-23.4-33.9l-1.3-0.5V37.6l1.9-0.1c2.5-0.1,4.5-2.2,4.5-4.7c0-2.6-2.1-4.7-4.7-4.7H87.7c-2.6,0-4.7,2.1-4.7,4.7
			c0,2.5,2,4.6,4.5,4.7l1.9,0.1v29.1l-1.3,0.5C73.9,72.5,64.7,85.8,64.7,101c0,11.5,5.6,22.4,14.9,29.2l4.9,3.6l-6.1,0
			c-12.8,0.1-25,5.5-33.7,14.9L33,161.7c-1.3,1.3-1.3,3.5,0,4.8L53.8,187l0.2,0.2c0.7,0.5,1.5,0.8,2.4,0.8c0.9,0,1.8-0.3,2.4-1
			l9.7-9c1-0.9,2.2-1.5,3.6-1.6l41.3-3.8c7-0.3,12.3-2.1,16.8-5.5l35.3-28.8C167.7,136.7,168.5,133.9,167.7,131.2z M117.1,155.8
			l-14.9-0.2l-0.4-3.9l22-5.2l1.6,3.6L117.1,155.8z"/>
		<path class="st2" d="M100.9,129.2c14.4,0,26.3-10.8,28.1-24.7c0.2-1.9-1.3-3.5-3.2-3.5H76.1c-1.9,0-3.4,1.6-3.2,3.5
			C74.6,118.4,86.5,129.2,100.9,129.2z M107.5,110.1c1.9,0,3.3,1.5,3.3,3.3c0,1.9-1.5,3.4-3.3,3.4c-1.9,0-3.4-1.5-3.4-3.4
			S105.7,110.1,107.5,110.1z M98.1,115.8c3,0,5.5,2.5,5.5,5.5s-2.5,5.5-5.5,5.5s-5.5-2.5-5.5-5.5S95,115.8,98.1,115.8z M91.7,103.8
			c1.1,0,2,0.9,2,2s-0.9,2-2,2c-1.1,0-2-0.9-2-2S90.6,103.8,91.7,103.8z"/>
		<path class="st2" d="M169.6,130.6c-0.4-1.4-1.2-2.6-2.2-3.6v0c-3-3-7.8-3.4-11.2-0.9L131,143.7c1.3-2.2,1.7-4.8,1-7.3
			c-0.5-1.7-1.4-3.3-2.6-4.6c-0.9-0.9-2-1.7-3.2-2.2c7.9-7,12.9-17.2,12.9-28.6c0-16-9.9-30.1-24.7-35.7V39.5
			c3.5-0.2,6.4-3.1,6.4-6.7c0-3.7-3-6.7-6.7-6.7H87.7c-3.7,0-6.7,3-6.7,6.7c0,3.6,2.8,6.5,6.4,6.7v25.8C72.6,70.9,62.7,85,62.7,101
			c0,12.7,6.2,23.9,15.8,30.8c-13.3,0.1-26,5.6-35.1,15.6l-11.8,12.8c-2.1,2.1-2.1,5.5,0,7.6l21,20.7l0.3,0.3
			c1.1,0.8,2.3,1.2,3.6,1.2c1.4,0,2.8-0.5,3.8-1.5l9.7-9c0.7-0.6,1.5-1,2.4-1.1l41.3-3.8c7.4-0.3,13.1-2.2,18-6l35.3-28.8
			C169.6,137.7,170.7,134,169.6,130.6z M67.4,101c0-14.5,9.3-27.3,23.1-31.8c1-0.3,1.6-1.2,1.6-2.2V37.2c0-1.3-1-2.3-2.3-2.3h-2
			c-1.1,0-2-0.9-2-2s0.9-2,2-2h26.4c1.1,0,2,0.9,2,2s-0.9,2-2,2h-2c-1.3,0-2.3,1-2.3,2.3v29.8c0,1,0.7,1.9,1.6,2.2
			c13.8,4.5,23.1,17.3,23.1,31.8c0,11.9-6.2,22.3-15.6,28.2l-26.5,3.3c-0.6,0.1-1.3,0.1-2.1,0.2C77,128.3,67.4,115.8,67.4,101z
			 M163.2,135.5l-33.9,27.6l-1.3,1.1c-3.8,3-8.5,4.5-14.8,4.8l-41.4,3.8c-2.1,0.2-4.2,1.1-5.8,2.6l-9.7,8.9L35.8,164l11.7-12.7
			c9.7-10.5,23.9-15.5,38-13.2c2.2,0.5,5.6,0.5,7.6,0.2l28.2-3.6l0.3-0.1c1.3-0.3,2.7,0.1,3.7,1.1c0.6,0.6,0.9,1.2,1.1,2
			c0.6,2.3-1,4.4-2.7,4.9L92.5,150l-0.2,0.1c-2.3,0.8-3.7,3.3-3.1,5.7l0.1,0.2c0.2,0.7,0.6,1.3,1.1,1.8c1,1,2.4,1.5,3.8,1.4l24,0.3
			l41.4-28.7c1.4-1,3-0.6,3.9,0.3c0.3,0.3,0.6,0.8,0.7,1.2C164.5,133.5,164.1,134.8,163.2,135.5z M124.2,148.4l-7.7,5.4l-14.2-0.2
			L124.2,148.4z"/>
	</g>
</g>
</svg>
