<?xml version="1.0" encoding="utf-8"?>
<!-- Generator: Adobe Illustrator 21.1.0, SVG Export Plug-In . SVG Version: 6.00 Build 0)  -->
<svg version="1.1" id="Calque_1" xmlns="http://www.w3.org/2000/svg" xmlns:xlink="http://www.w3.org/1999/xlink" x="0px" y="0px"
	 viewBox="0 0 200 190" style="enable-background:new 0 0 200 190;" xml:space="preserve">
<style type="text/css">
	.st0{fill:#FFFFFF;}
	.st1{fill:#FF6444;}
	.st2{fill:#FF6449;}
</style>
<path class="st0" d="M167.7,131.2c-0.3-1-0.9-2-1.7-2.8c-1.3-1.3-3-2-4.8-2c-1.4,0-2.7,0.4-3.9,1.3l-25.3,17.5l-2.9-2.6
	c1-1.8,1.3-3.9,0.8-5.8c-0.4-1.4-1.1-2.7-2.1-3.7c-1.5-1.5-3.4-2.3-5.5-2.3c-0.5,0-1,0.1-1.7,0.2l-28.1,3.5
	c-0.8,0.1-1.8,0.2-2.9,0.2c-0.8,0-2.4,0-3.6-0.3c-2.4-0.4-4.9-0.6-7.4-0.6c-12.9,0-25.3,5.5-34,15L33,161.7c-1.3,1.3-1.3,3.5,0,4.8
	L53.8,187l0.2,0.2c0.7,0.5,1.5,0.8,2.4,0.8c0.9,0,1.8-0.3,2.4-1l9.7-9c1-0.9,2.2-1.5,3.6-1.6l41.3-3.8c7-0.3,12.3-2.1,16.8-5.5
	l35.3-28.8C167.7,136.7,168.5,133.9,167.7,131.2z M117.1,155.8l-14.9-0.2l-0.4-3.9l22-5.2l1.6,3.6L117.1,155.8z"/>
<g>
	<path class="st1" d="M170.5,112.1l-10.4-6c-0.3-0.2-0.7-0.2-1,0s-0.5,0.5-0.5,0.9v3.8h-23.5c-0.6,0-1,0.4-1,1v2.4c0,0.6,0.4,1,1,1
		h23.5v3.8c0,0.4,0.2,0.7,0.5,0.9c0.2,0.1,0.3,0.1,0.5,0.1s0.3,0,0.5-0.1l10.4-6c0.3-0.2,0.5-0.5,0.5-0.9S170.8,112.3,170.5,112.1z"
		/>
	<path class="st1" d="M151.5,68.8c0-26.2-21.3-47.5-47.5-47.5c-13.3,0-26.1,5.7-35.2,15.6c-2.4,2.7-5.7,4.4-9.3,4.7
		c-3.6,0.3-7.1-0.9-9.9-3.2c-2.7-2.4-4.4-5.7-4.7-9.3c-0.3-3.6,0.9-7.1,3.2-9.9c4.2-4.9,11.4-6.1,16.9-3l-2.5,1.6
		c-0.3,0.2-0.5,0.5-0.5,0.9c0,0.4,0.2,0.7,0.5,0.8L73.3,25c0.3,0.2,0.7,0.1,1,0s0.5-0.5,0.5-0.9l-0.6-11.9c0-0.4-0.2-0.7-0.5-0.8
		c-0.3-0.2-0.7-0.1-1,0l-3.5,2.2c-7.6-5.6-18.1-4.5-24.3,2.7c-3.1,3.6-4.7,8.3-4.3,13.1c0.4,4.8,2.6,9.1,6.2,12.3
		c3.6,3.1,8.3,4.7,13.1,4.3c0.9-0.1,1.8-0.2,2.7-0.4c-4,7.1-6.1,15.1-6.1,23.3c0,7.2,1.7,14.4,4.9,20.9l-5.3,4.2
		c-0.3,0.2-0.4,0.6-0.4,0.9s0.3,0.7,0.6,0.8l18.5,7.4c0.3,0.1,0.7,0.1,1-0.1c0.3-0.2,0.4-0.6,0.4-0.9l-2.9-19.7
		c-0.1-0.4-0.3-0.7-0.6-0.8c-0.3-0.1-0.7-0.1-1,0.1l-4.7,3.7c-2.3-5.2-3.5-10.8-3.5-16.5c0-22.4,18.2-40.6,40.6-40.6
		s40.6,18.2,40.6,40.6s-18.2,40.6-40.6,40.6H37.8c-0.6,0-1,0.4-1,1v5c0,0.6,0.4,1,1,1h66.1C130.1,116.4,151.5,95,151.5,68.8z"/>
</g>
<path class="st2" d="M56.4,190c-1.2,0-2.5-0.4-3.6-1.2l-0.3-0.3l-21-20.7c-2.1-2.1-2.1-5.6,0-7.6l11.8-12.8c11-12,27.2-17.6,43.2-15
	l0.2,0c1.3,0.3,3.9,0.3,5.7,0.1l28.2-3.6c3.2-0.7,6.5,0.3,8.8,2.7c1.3,1.3,2.2,2.9,2.6,4.6c0.7,2.6,0.2,5.2-1,7.3l25.3-17.5
	c3.4-2.5,8.2-2.1,11.2,0.9v0c1,1,1.7,2.2,2.2,3.6c1.1,3.4,0,7.1-2.8,9.3l-35.3,28.8c-4.9,3.7-10.5,5.6-18,6l-41.3,3.8
	c-0.9,0.1-1.7,0.5-2.4,1.1l-9.7,9C59.2,189.5,57.8,190,56.4,190z M35.8,164l20.5,20.2l9.7-8.9c1.6-1.5,3.6-2.4,5.8-2.6l41.4-3.8
	c6.3-0.3,11-1.8,14.8-4.8l1.3-1.1l33.9-27.6c0.9-0.8,1.3-2,1-3.2c-0.1-0.5-0.4-0.9-0.7-1.2c-0.9-0.9-2.5-1.3-3.9-0.3l-41.4,28.7
	l-24-0.3c-1.4,0.1-2.8-0.4-3.8-1.4c-0.5-0.5-0.9-1.1-1.1-1.8l-0.1-0.2c-0.6-2.4,0.8-5,3.1-5.7l0.2-0.1l31.3-7.4
	c1.7-0.5,3.3-2.6,2.7-4.9c-0.2-0.8-0.6-1.4-1.1-2c-1-1-2.4-1.4-3.7-1.1l-0.3,0.1l-28.2,3.6c-2,0.3-5.4,0.3-7.6-0.2
	c-14.1-2.2-28.3,2.7-38,13.2L35.8,164z M35.7,164.2L35.7,164.2C35.7,164.2,35.7,164.2,35.7,164.2z M102.2,153.6l14.2,0.2l7.7-5.4
	L102.2,153.6z"/>
</svg>
