<svg id="Calque_1" data-name="Calque 1" xmlns="http://www.w3.org/2000/svg" viewBox="0 0 683 554"><defs><style>.cls-1{fill:#e6e6e6;}</style></defs><title>background-road-grey</title><path class="cls-1" d="M34.61,193.38c53.25,0,94.18,55.9,91.69,120.29C125.74,315.86,83.15,482.88,63.7,554H76.93c13.6-41.76,29.34-92.38,32.57-106.65L87.41,554h12c8.12-35,17.07-72.86,25.28-106.63,3.69,44,10,83.9,14,106.63h56.5c9.23-45.77,32.39-158,44.54-193.36,15.3-44.86,59.64-191.45,66-221.74,0,0-23.43,122.93-29.14,152.83C271.34,318.87,230,479.87,220.26,554h25.9c5.5-40,19.36-134.77,39-226C310.66,208.28,341.71,43,353.53,4l1.19-4H309c-22.49,94.11-64.57,292.9-75.15,328-12.41,41-45.49,159.4-61.25,223.5-10.62-70.73-26.41-160.92-16.1-220.49,0.18-1,.38-2.13.58-3.22,3.15-10.09,4.34-14.2,4.34-14.2H160c13.27-57.23,47.34-152.86,65.88-220.48C229.76,79.09,242.36,35.42,252.6.09H215.87C209.75,23,203,48.76,198.67,66.84c-11.81,49.06-39.76,118.06-58.34,186.21-18.71-40.8-55.58-69.21-99.06-69.21-12.8,0-25.64-2.47-41.27,7.12l3.52,11C12.52,194.22,25.41,193.38,34.61,193.38Z" transform="translate(0 0)"/><path class="cls-1" d="M682.17,404.48c-3-30.73-18.27-55.26-34.87-86.6-8.76-45.81-21.19-158.35-31.08-183.95-5.72-14.86-24.9-77.56-41.87-133.85H528c0.59,5.81,1.16,12.08,1.64,18.61,3.55,47.88-28.31,70.29-57,114.34-14.54,22.2-25.14,40.15-36.11,59.9-4.79-16.18-8.69-29.44-11.14-37.77,21.41-53.83,37.77-116.73,53-155.07h-35C431,37.35,417.3,94.94,399,145.58h-2.05c4.78-13.77,9.43-27.17,13.54-38.93,13.72-39.7,16.66-78.36,23-106.56H385c-12.79,63.45-27.2,164.39-66.29,269.11C278.15,375.87,257.25,505.36,250.39,554h67.46c24.48-125.67,64.67-197.74,64.67-197.74s14-39.51.6,4.38c-10.67,34.65-32,147.43-40.54,193.36h26.95c15.85-128.8,40.78-198.93,56.28-240.71,8.12,30.27,16.29,61.55,23.38,89.26,15.62,60.34,25.54,123,29.65,151.46h25.91c-7.48-51.46-41.32-158-45.39-176.18L437.51,280l0.21-.67c9,28.91,43.27,117.05,55.85,145.43,10.47,23.51,28.35,96.75,36,129.26h23.08c-13.17-43.81-41.12-123.71-51.83-151.46-6.67-17.36-29.66-93.35-49-158.23,15-32.43,35.62-68.34,47.89-88.87,12.81-21.52,41.14-47.74,55.48-80.25,5.42,20.23,10.73,40.37,15.49,58.75,7.25,27.66,32.84,147.23,35.89,155.81,18.23,51.1,35.15,76,42.39,112.29,8.26,41.08-12.15,103.53-25.83,152h35C667.41,525.5,687.29,456.75,682.17,404.48Zm-296.31-227,0.79,2c-15,41.25-26.28,71.76-26.28,71.76S372.27,216.76,385.86,177.48Zm13.19,84.71C367.33,320,312.91,515.57,312.91,515.57c3.79-64.06,54.89-216.4,85.57-292.63l1.27-3.19c2.41,8.16,5,17.19,7.75,26.86C404.83,251.56,402,256.74,399.06,262.19ZM579.5,111.74L563.71,42.29c0.11-1.66.18-3.34,0.2-5,0-.46,0-1,0-1.46,11.57,33,36.24,95.89,46.07,118.07,7.06,15.87,12.3,72.39,15.47,117.21a342.41,342.41,0,0,1-14.6-47.2C599.33,175.24,582.47,124.79,579.5,111.74Z" transform="translate(0 0)"/></svg>