<svg id="Calque_1" data-name="Calque 1" xmlns="http://www.w3.org/2000/svg" viewBox="0 0 43.5 50"><defs><style>.cls-1{fill:#06a99c;}.cls-2{fill:#6a205f;}</style></defs><title>logo-agile</title><path class="cls-1" d="M5,28.74H0v7.18H13.34A19.88,19.88,0,0,1,5,28.74Z"/><path class="cls-1" d="M21.7,28.74a10.79,10.79,0,1,1,5.94-1.8h9.6a18,18,0,1,0-15.54,9h7.18l2.87-3.59-2.87-3.59H21.7Z"/><polygon class="cls-2" points="28.89 35.92 43.5 35.92 43.5 28.73 28.89 28.73 31.76 32.33 28.89 35.92"/><path class="cls-2" d="M8,46.93H3L1.89,50H0.24L4.85,38.07H6.24L10.78,50H9.13Zm-4.5-1.35h4l-2-5.43h0Z"/><path class="cls-2" d="M20.3,48.25a3.82,3.82,0,0,1-1.48,1.2,5.88,5.88,0,0,1-2.72.55,4.84,4.84,0,0,1-3.53-1.37,4.73,4.73,0,0,1-1.4-3.54V43a4.92,4.92,0,0,1,1.3-3.54,4.43,4.43,0,0,1,3.36-1.37,4.78,4.78,0,0,1,3.22,1,3.34,3.34,0,0,1,1.2,2.6l0,0H18.68A2.5,2.5,0,0,0,17.89,40a2.92,2.92,0,0,0-2.07-.67,2.7,2.7,0,0,0-2.2,1A4,4,0,0,0,12.79,43v2.13a3.74,3.74,0,0,0,.93,2.61,3.07,3.07,0,0,0,2.38,1,4.36,4.36,0,0,0,1.66-.27,2.33,2.33,0,0,0,.93-0.61V45.31H16.07V44H20.3v4.2Z"/><path class="cls-2" d="M24,50H22.35V38.07H24V50Z"/><path class="cls-2" d="M28.62,48.73h5.64V50H27V38.07h1.61V48.73Z"/><path class="cls-2" d="M42.66,44.47H37.2v4.26h6.3V50H35.59V38.07h7.82v1.27H37.2V43.2h5.46v1.27Z"/></svg>