<?xml version="1.0" encoding="utf-8"?>
<!-- Generator: Adobe Illustrator 19.2.1, SVG Export Plug-In . SVG Version: 6.00 Build 0)  -->
<svg version="1.1" id="Calque_1" xmlns="http://www.w3.org/2000/svg" xmlns:xlink="http://www.w3.org/1999/xlink" x="0px" y="0px"
	 viewBox="0 0 100 16" style="enable-background:new 0 0 100 16;" xml:space="preserve">
<g>
	<path d="M63.9,0.2h-8.5c-1.7,0-3.1,1.4-3.1,3.2v9.2c0,1.8,1.4,3.2,3.1,3.2h8.5c1.7,0,3.1-1.4,3.1-3.2V3.4
		C67.1,1.6,65.7,0.2,63.9,0.2z M64.7,12.6c0,0.4-0.3,0.8-0.8,0.8h-8.5c-0.4,0-0.8-0.3-0.8-0.8V3.4c0-0.4,0.3-0.8,0.8-0.8h8.5
		c0.4,0,0.8,0.3,0.8,0.8V12.6z"/>
	<path d="M11.7,0.2H0v15.6h11.7c1.8,0,3.2-1.3,3.5-3.1c0.2-1.2,0.3-3.1,0.3-4.7s-0.1-3.5-0.3-4.8C15,1.5,13.5,0.2,11.7,0.2z
		 M12.9,12.3c-0.1,0.6-0.6,1-1.2,1H2.4V2.6h9.4c0.6,0,1.1,0.4,1.2,1c0.2,1.1,0.3,3,0.3,4.4C13.2,9.5,13.1,11.2,12.9,12.3z"/>
	<polygon points="32.8,2.7 32.7,0.2 18.4,0.2 18.4,15.8 32.7,15.8 32.7,13.4 20.7,13.4 20.7,9 32.7,9 32.7,6.6 20.7,6.6 20.7,2.7 	
		"/>
	<polygon points="42.7,13 36.8,0.2 34.1,0.2 41.4,15.8 44,15.8 51.2,0.2 48.6,0.2 	"/>
	<polygon points="80.9,0.2 76.2,6.1 71.5,0.2 68.4,0.2 74.7,8 68.4,15.8 71.5,15.8 76.2,9.9 80.9,15.8 83.9,15.8 77.7,8 83.9,0.2 	
		"/>
	<polygon points="100,0.2 96.9,0.2 92.2,6.1 87.6,0.2 84.5,0.2 90.7,8 84.5,15.8 87.6,15.8 92.2,9.9 96.9,15.8 100,15.8 93.8,8 	"/>
</g>
</svg>
