<?xml version="1.0" encoding="utf-8"?>
<!-- Generator: Adobe Illustrator 19.2.1, SVG Export Plug-In . SVG Version: 6.00 Build 0)  -->
<svg version="1.1" id="Calque_1" xmlns="http://www.w3.org/2000/svg" xmlns:xlink="http://www.w3.org/1999/xlink" x="0px" y="0px"
	 viewBox="0 0 200 50" style="enable-background:new 0 0 200 50;" xml:space="preserve">
<style type="text/css">
	.st0{fill:#6A205F;}
</style>
<g>
	<path class="st0" d="M61.7,12.3c-3.8,0-6.8,1.2-9.1,3.5C50.4,18.1,49,21.2,49,25c0,3.8,1.5,6.9,3.8,9.2c2.3,2.3,5.4,3.5,9.3,3.5
		c8.2,0,11-7.2,11.4-8.4h-6.4c-1.5,2.3-4,2.9-5.5,2.9c-5.5,0-6.5-4-6.7-5.4H74l0-1.9c0-4-1.1-7.1-3.3-9.3
		C68.5,13.4,65.5,12.3,61.7,12.3z M55.3,22.4c0-3.1,3.9-4.8,6.1-4.8c3.2,0,5.7,1.1,6.5,4.8H55.3z"/>
	<path class="st0" d="M91.3,12.3c-3,0-5.5,0.6-8.5,2.3V5.2H77V37h5.9v-1.3c3,1.7,5.4,2,8.3,2c3.5,0,6.5-1.2,8.8-3.6
		c2.3-2.4,3.5-5.5,3.5-9.2c0-3.6-1.2-6.6-3.5-9C97.7,13.5,94.8,12.3,91.3,12.3z M94.7,30.3c-1.3,1.3-2.9,2-4.9,2c-2.1,0-3.8-0.7-5-2
		c-1.3-1.3-1.9-3-1.9-5.2c0-2.1,0.6-3.8,1.9-5.1c1.3-1.3,3-2,5.1-2c1.9,0,3.6,0.7,4.9,2c1.3,1.3,1.9,3.1,1.9,5.2
		C96.7,27.3,96,28.9,94.7,30.3z"/>
	<rect x="105.9" y="13" class="st0" width="6" height="24.1"/>
	<rect x="105.9" y="5.2" class="st0" width="6" height="5.7"/>
	<polygon class="st0" points="60.9,0.9 46.1,0.9 30.5,16.8 14.8,0.9 0,0.9 23.1,25 0,49.1 14.8,49.1 30.5,33.2 46.1,49.1 60.9,49.1 
		37.9,25 	"/>
	<path class="st0" d="M162.8,12.5c-7,0-12.6,5.6-12.6,12.6s5.6,12.6,12.6,12.6c7,0,12.6-5.6,12.6-12.6S169.7,12.5,162.8,12.5z
		 M162.8,32.2c-3.9,0-7.1-3.2-7.1-7.1c0-3.9,3.2-7.1,7.1-7.1s7.1,3.2,7.1,7.1C169.9,29.1,166.7,32.2,162.8,32.2z"/>
	<path class="st0" d="M133.1,32.2c-6,0-10.8-4.8-10.8-10.8s4.8-10.8,10.8-10.8c3.1,0,5.8,1.3,7.8,3.3h7.9c-2.8-5.9-8.7-9.9-15.7-9.9
		c-9.6,0-17.4,7.8-17.4,17.4c0,9.6,7.8,17.4,17.4,17.4c6.9,0,12.9-4.1,15.7-9.9h-7.9C139,30.9,136.2,32.2,133.1,32.2z"/>
	<path class="st0" d="M193,21.7c0-2.5-2.1-4.6-4.6-4.6s-4.6,2.1-4.6,4.6V37h-6V13h6v1.4c1.8-1.8,3.6-2.8,6.9-2.8
		c5.5,0,9.3,3.9,9.3,9.7V37h-7V21.7z"/>
</g>
</svg>
