<svg id="Calque_1" data-name="Calque 1" xmlns="http://www.w3.org/2000/svg" viewBox="0 0 70 20.81"><defs><style>.cls-1{fill:#06a99c;}</style></defs><title>logo-bigdata</title><path class="cls-1" d="M0,0.27H3.14q0.69,0,1.44,0A9.59,9.59,0,0,1,6,.53,6.11,6.11,0,0,1,7.36,1a3.62,3.62,0,0,1,1.11.82,3.82,3.82,0,0,1,.75,1.27A5.27,5.27,0,0,1,9.5,4.91v1a4.6,4.6,0,0,1-.23,1.5,4.44,4.44,0,0,1-.62,1.2,3.72,3.72,0,0,1-.87.86,2.92,2.92,0,0,1-1,.46V10a3.32,3.32,0,0,1,2.29,1.44,5.31,5.31,0,0,1,.77,3v1a6.78,6.78,0,0,1-.25,1.93,4.33,4.33,0,0,1-.69,1.4,3.8,3.8,0,0,1-1.05,1,5.47,5.47,0,0,1-1.34.58A8.54,8.54,0,0,1,5,20.64q-0.83.08-1.7,0.08H0V0.27ZM3.64,9a4.06,4.06,0,0,0,1.14-.15,2.3,2.3,0,0,0,.88-0.47,2.06,2.06,0,0,0,.56-0.83,3.39,3.39,0,0,0,.2-1.23V5.52a5,5,0,0,0-.14-1.27A2.3,2.3,0,0,0,5.8,3.31a2,2,0,0,0-.86-0.58,3.75,3.75,0,0,0-1.3-.2H3V9h0.6Zm0.29,9.54a3.72,3.72,0,0,0,1.13-.16A2.18,2.18,0,0,0,6.49,17a3.54,3.54,0,0,0,.2-1.24V14.19a5.12,5.12,0,0,0-.14-1.27A2.25,2.25,0,0,0,6.07,12a2.08,2.08,0,0,0-.86-0.57,3.7,3.7,0,0,0-1.29-.2H3v7.35H3.93Z" transform="translate(0 -0.09)"/><path class="cls-1" d="M11.55,0.27h3.1V20.71h-3.1V0.27Z" transform="translate(0 -0.09)"/><path class="cls-1" d="M21.29,20.91a5.31,5.31,0,0,1-.84-0.08,3.5,3.5,0,0,1-1-.33,4.17,4.17,0,0,1-1-.71,4.41,4.41,0,0,1-.88-1.22A7.68,7.68,0,0,1,17,16.7a12.65,12.65,0,0,1-.24-2.64V6.82A12,12,0,0,1,17,4.18a7,7,0,0,1,.67-1.84,4.08,4.08,0,0,1,1-1.19A4.34,4.34,0,0,1,19.74.47,4.72,4.72,0,0,1,20.9.17,8.63,8.63,0,0,1,22,.09a5.69,5.69,0,0,1,2.1.34,3.64,3.64,0,0,1,1.39.93,3.54,3.54,0,0,1,.77,1.38,5.88,5.88,0,0,1,.23,1.68,8.8,8.8,0,0,1-.08,1.21q-0.08.56-.21,1.23H23.68v-1q0-3.36-1.81-3.36A2,2,0,0,0,21,2.7a1.38,1.38,0,0,0-.6.57,3.11,3.11,0,0,0-.35,1.06A9.87,9.87,0,0,0,20,6v9.26a9.26,9.26,0,0,0,.11,1.59,3,3,0,0,0,.35,1,1.34,1.34,0,0,0,.59.54,2,2,0,0,0,.84.16,1.47,1.47,0,0,0,.89-0.27,2,2,0,0,0,.61-0.74,3.92,3.92,0,0,0,.35-1.1,7.81,7.81,0,0,0,.11-1.38V12.4H22.22v-2h4.61V20.71H24.77l-0.34-1.94a4.18,4.18,0,0,1-1.35,1.63A3.22,3.22,0,0,1,21.29,20.91Z" transform="translate(0 -0.09)"/><path class="cls-1" d="M28.71,0.27h3.22q0.73,0,1.51,0A6.83,6.83,0,0,1,35,.57a5,5,0,0,1,1.41.66,4.09,4.09,0,0,1,1.17,1.26,6.87,6.87,0,0,1,.8,2,13.1,13.1,0,0,1,.29,3v5.94a13.18,13.18,0,0,1-.29,3,6.79,6.79,0,0,1-.8,2,4.11,4.11,0,0,1-1.17,1.25,5,5,0,0,1-1.41.66,6.83,6.83,0,0,1-1.53.26q-0.78,0-1.51,0H28.71V0.27ZM32.6,18.55A3.79,3.79,0,0,0,34,18.33a1.71,1.71,0,0,0,.86-0.76,4,4,0,0,0,.44-1.48,19.38,19.38,0,0,0,.12-2.38V7.37A19.38,19.38,0,0,0,35.28,5a4,4,0,0,0-.44-1.48A1.71,1.71,0,0,0,34,2.75a3.79,3.79,0,0,0-1.38-.22H31.81v16H32.6Z" transform="translate(0 -0.09)"/><path class="cls-1" d="M42.68,0.27h3.57L50,20.71H46.89l-0.56-3.66H42.59l-0.54,3.66H38.91ZM46,14.72L44.53,4.53H44.4L43,14.72h3Z" transform="translate(0 -0.09)"/><path class="cls-1" d="M52.91,2.72H49.62V0.27h9.67V2.72H56v18h-3.1v-18Z" transform="translate(0 -0.09)"/><path class="cls-1" d="M62.65,0.27h3.57L70,20.71H66.86L66.3,17.05H62.57L62,20.71H58.88Zm3.29,14.44L64.51,4.53H64.38L62.93,14.72h3Z" transform="translate(0 -0.09)"/></svg>