<svg id="Calque_1" data-name="Calque 1" xmlns="http://www.w3.org/2000/svg" viewBox="0 0 299 93.16"><defs><style>.cls-1{fill:#e6e6e6;}</style></defs><title>background-paris-grey-line</title><path class="cls-1" d="M299,93.29c0.15-2.88-.51-5.75-0.18-8.65a10.14,10.14,0,0,0,.42-1.23c-0.82-1.24-.64-2.87-1.65-4.19-2.12.71-2.45-1.34-3.38-2.41-0.52.05-.23,0.65-0.8,0.74h-1.59a1.83,1.83,0,0,1-1.67-.45,0.38,0.38,0,0,0-.54.15,0.67,0.67,0,0,1-1.05.19,2.64,2.64,0,0,1-1.1-.36,2.37,2.37,0,0,0-.29-1c-0.32-.28-0.73-0.49-0.94-0.09-0.43.81-1.07,0.66-1.78,0.71-0.36,0-.94-0.27-1.26.43a1,1,0,0,1-1.33,0c-0.39-.4-0.6-0.47-0.92,0a0.71,0.71,0,0,1-.69.18h-2.51c-0.27-.28-0.06-0.71-0.5-0.74C275.55,79,275.55,79,273.81,79c-1.05,1.26-.85,2.93-1.56,4,0.8,2.67.3,5.17,0.17,7.72a9.76,9.76,0,0,1-2.26-.1,4.3,4.3,0,0,1,0-1.41,1.94,1.94,0,0,0-.32-1.91,2.73,2.73,0,0,1-.42-1.63c0-5.38-.1-10.77-0.15-16.15a2,2,0,0,1,.22-1.31,1.68,1.68,0,0,0,0-1.56c-0.5-1.26-1.46-2.36-1-3.88a0.7,0.7,0,0,0-.5-0.65,1.9,1.9,0,0,0-.35,1.86,0.37,0.37,0,0,1,0,.45,7.27,7.27,0,0,0-1,1.9,2,2,0,0,0-.06,1.94,1.72,1.72,0,0,1,.18.8c-0.07,5.22-.12,10.43-0.17,15.65,0,1,.18,2-0.63,2.94a1.64,1.64,0,0,0-.17,1.38,6.43,6.43,0,0,1,0,1.67,9.41,9.41,0,0,1-2.18-.09,5,5,0,0,1-.1-1.4c-0.18-2-.54-4,0.26-5.94a0.43,0.43,0,0,0,0-.34c-0.81-1.22-.62-2.81-1.6-4.1-1.29.48-2.07-.22-2.71-1.35-0.17-.3-0.35-0.62-0.54-0.92a0.56,0.56,0,0,0-.29-0.1c-0.39.12-.1,0.59-0.58,0.76-1-.25-2.2.46-3.26-0.45a0.46,0.46,0,0,0-.64.16,1,1,0,0,1-1.38.15c-0.37-.76-1-0.31-1.42-0.42A2,2,0,0,1,250,76.3c-0.57-.69-1.15-0.55-1.38.31-0.09.32,0,.68-0.55,0.66a23.25,23.25,0,0,1-.11-2.93,3.57,3.57,0,0,1,.78-2.77,1.82,1.82,0,0,0,.45-1.35c-0.35-.21-0.82.09-1.17-0.26,0.06-1-.2-2,0.42-3-1,.28-0.43-0.75-1-0.79H222.62c-0.24.27-.18,1-1.1,0.75,0.83,1.08.55,2.12,0.57,3.07a7.22,7.22,0,0,1-1.14.25c-0.24,1.24,1.17,1.84,1.16,3s0,2.24,0,3.36,0.4,2.17-.34,3.25a2,2,0,0,1,.4,1.5c0,2.82,0,5.64,0,8.45a1.36,1.36,0,0,1-.16,1c-0.27-.53,0-1.1-0.24-1.68l-3.41-.85a0.79,0.79,0,0,1-.74,1,4.57,4.57,0,0,0-1.32.42c-0.22.39,0.09,0.82-.42,1.24A5.39,5.39,0,0,1,216.2,88a2.81,2.81,0,0,1-.94-2.08,36.09,36.09,0,0,1,.12-5.44,0.62,0.62,0,0,0-.24-0.74c-0.71.83-1.72,0.16-2.57,0.52a3,3,0,0,1-.39-2.18,0.94,0.94,0,0,0-.35-1.2,0.71,0.71,0,0,1-.16-0.69,5.13,5.13,0,0,0-1.48-3.46,3.43,3.43,0,0,1-1-3.22,2.14,2.14,0,0,0-.48-2.08l-0.42-.24a2.93,2.93,0,0,0-.54,2.57,3.17,3.17,0,0,1-1.57,3.39c0.41-1-.51-1.6-0.42-2.39a12.61,12.61,0,0,0-.57-4,10.48,10.48,0,0,0-3.47-6.27,3.06,3.06,0,0,1-1.11-1.74,7.71,7.71,0,0,1-.17-2.81,5.87,5.87,0,0,0-.89-4.21l-0.25,0c-0.19.41-.41,0.81-0.56,1.23a5.65,5.65,0,0,0-.33,2.52c0.16,1.7.29,3.54-1.17,4.83a11.16,11.16,0,0,0-3.63,6.73,1.27,1.27,0,0,1-.28.91,1.75,1.75,0,0,0-.4,1.73,2.82,2.82,0,0,1-.31,2,1.3,1.3,0,0,0,0,1.61h0l0,0,0.3,0.93c-0.28-.4-0.65-0.6-0.3-0.93h0a0.61,0.61,0,0,1-.15.1c-0.88-.87-1.87-1.76-1.61-3.12a7.23,7.23,0,0,0-.71-4,9.32,9.32,0,0,0-.2.93,4.19,4.19,0,0,0-.45,2.84,2.4,2.4,0,0,1-.8,2.34,5.22,5.22,0,0,0-.83,1.07c-0.95,1.23-.69,2.88-1.44,4.19a0.65,0.65,0,0,0,0,.48,2.56,2.56,0,0,1-.33,2.07c-0.71.12-.61-0.36-0.69-0.76-0.46-2.34.12-4.73-.73-7.11-0.65-1.82-.33-3.94-0.32-5.93,0-.42.19-1,0.15-1.26-0.11-.84.44-1.66,0-2.47-0.22,0-.4.37-0.68,0a23.2,23.2,0,0,1-.13-6.37,4.34,4.34,0,0,0-.42-2.37,1.08,1.08,0,0,1-.21-0.43c0.18-1.45-1.22-2.08-1.6-3.5a6.49,6.49,0,0,1-.62,1.86h-5.38a4.16,4.16,0,0,1-.72,2,2.7,2.7,0,0,0-.41,1.82c0.43,1.59.13,3.18,0.21,4.76a5.83,5.83,0,0,1-.09,2.16H168.7c0-1.33,0-2.61,0-3.88a7.9,7.9,0,0,1,.08-2.47,3,3,0,0,0-.18-2.2c-0.29-.7-0.61-1.42-1-2.22H162.4a5.58,5.58,0,0,0-.89-1.62c0.09,1.11-1.09,1.48-1.17,2.37a21.63,21.63,0,0,1-.81,2.53,1,1,0,0,0-.17.54c0.54,2.37.22,4.75,0.15,6.92-0.33.52-.5,0-0.76,0.16-0.52.68,0,1.39,0,2.08,0,1.32,0,2.64,0,3.95a11.83,11.83,0,0,1-.58,4.28,2.68,2.68,0,0,0-.19.84c0,4.38-.45,8.75-0.31,13.14,0,0.45,0,.9,0,1.43a2.4,2.4,0,0,0-2.32,1.76,0.82,0.82,0,0,1-1,.58l-1-.06c-0.33-.7.1-1.39-0.22-2a5.2,5.2,0,0,0-1.58.08c-0.09.48,0,1.32-.93,0.75a9.22,9.22,0,0,1-.1-1c-0.83-.14-0.5-0.75-0.5-1.16,0-3.3,0-6.6-.1-9.9a0.65,0.65,0,0,1,.21-0.65c1.19-.58.92-1.59,0.86-2.56a2.82,2.82,0,0,0-1.51-.1,7.11,7.11,0,0,1-6.32-2.05,2.45,2.45,0,0,0-1.93-.62c-1.94,0-3.88,0-5.91,0,0-1-.23-1.88.59-2.59a1.43,1.43,0,0,1-.76-1.86,0.4,0.4,0,0,0-.07-0.45,2.5,2.5,0,0,1-.36-1.9c0.11-1.56-.25-3.11.07-4.7,0.11-.53-0.1-1.11.53-1.55-0.72.06-.9-0.27-0.73-0.8-0.93-.21-1.82.1-2.7-0.22,0-.82-0.05-1.61,0-2.39a3.91,3.91,0,0,1,.29-1.62c0.2-.38-0.51-0.87-0.58-1.44a9.14,9.14,0,0,0-4.74-7.16c-0.44-.26-0.75-0.55-0.4-1.07a0.53,0.53,0,0,0-.23-0.8c-0.84-.16-0.75-0.84-0.83-1.38a4.51,4.51,0,0,1,0-1.48,2.76,2.76,0,0,0-.7-2.32,4.18,4.18,0,0,1-.68-1.28H124c-0.45.15-.2,0.64-0.48,0.93a4,4,0,0,0-1,3.47c0.09,0.74.31,1.75-.84,2.11a0.48,0.48,0,0,0-.26.63c0.55,0.85-.15,1.06-0.65,1.37a9.2,9.2,0,0,0-4.37,6.47A2.58,2.58,0,0,1,116,53a0.76,0.76,0,0,0-.09.87,13.25,13.25,0,0,1,0,3.84h-2.6c0.34,0.7-.27.73-0.56,0.91,0,0.42.56,0.34,0.54,0.66a8.43,8.43,0,0,0-.21.9c0.15,2.24.55,4.49-.31,6.69a0.59,0.59,0,0,0,.08.34c0.32,0.87-.18,1.36-0.87,1.79a2.29,2.29,0,0,1,.58,2.59,27.73,27.73,0,0,1-3.28,0,7.4,7.4,0,0,0-6.54,2.12,2.14,2.14,0,0,1-1.71.56c-1.36,0-2.72,0-4.11,0-0.08,1.11-.29,2.11.89,2.68a0.73,0.73,0,0,1,.21.77c0,2.84-.18,5.68,0,8.51,0.09,1.62-.91,2.94-0.82,4.52-0.5-1.09.2-2.4-.73-3.46a4.83,4.83,0,0,0-.69,0A1.56,1.56,0,0,1,94,86.13c-1.06-2.28-2.21-4.53-3.31-6.79a1.49,1.49,0,0,1-.08-1.83,0.73,0.73,0,0,0,0-.7c-0.86-.63-0.43-1.32-0.09-2-0.52-.35-1.05,0-1.58-0.3a118.94,118.94,0,0,1-3-12.34,1,1,0,0,1,.4-1.09,0.75,0.75,0,0,0,0-1.33,1.89,1.89,0,0,1-.87-1.61q-0.64-4.24-1-8.5c-0.59-6.6-.62-13.22-1-19.83-0.2-3.68-.35-7.35-0.49-11,0-.65-0.31-1.4.08-1.95,1-1.37.35-2.83,0.4-4.26a2.17,2.17,0,0,0-.9-1.69c-0.27-.25-0.56-0.48-0.83-0.71a7.24,7.24,0,0,0,.05-3.61,9.94,9.94,0,0,1-.4-2.73c0-.74,0-1.48,0-2.31a1.07,1.07,0,0,0-1,.18c0,1,0,2,0,2.95a1.94,1.94,0,0,1-.08,1c-0.68,1.21-.36,2.54-0.36,3.81a1.41,1.41,0,0,1-.49,1.24,2.78,2.78,0,0,0-1,3.09,0.5,0.5,0,0,1,0,.57c-0.64.52-.22,1,0,1.55A3.68,3.68,0,0,1,79,17.52c-0.07.95,0,1.9-.08,2.86Q78.45,31.54,78,42.7a134,134,0,0,1-1.5,15.93,1,1,0,0,1-.56,1c-0.71.38-.7,0.93-0.13,1.57a1.31,1.31,0,0,1,.27,1.25q-0.73,4-1.76,8c-0.37,1.43-.69,2.88-1.17,4.21-0.64.28-1.32-.13-1.91,0.36,0.56,0.4.91,0.93,0.27,1.37s-0.55.83-.2,1.38a1.6,1.6,0,0,1,.16,1.6c-1.31,2.67-2.63,5.33-3.94,8a0.69,0.69,0,0,1-1.07.35V73.38h-4c-0.12,2.92.1,5.8-.14,8.75a8,8,0,0,1-1.87-.2c0-.47,0-0.93,0-1.38,0-3.77-.07-7.54.09-11.31a1.18,1.18,0,0,0-.82-1.32c-0.72-.3-1.39-0.73-2.12-1a1.22,1.22,0,0,1-.9-1.4c0.07-.78,0-1.57,0-2.36,0-.37-0.16-0.53-0.68-0.35V84.73c-0.53.21-1,0-1.35,0.22a4.4,4.4,0,0,0-.09,1.37c0,0.63,0,.63-0.83.61V60.64H28.21V87a1.3,1.3,0,0,1-.34,0c-0.63-1.43,0-3-.36-4.41-0.27-.33-0.77,0-1.09-0.53v-9H23.77v-6.7H20.86c-0.26-.73.12-1.46-0.29-2.16-1,.55-0.21,1.49-0.66,2.17-0.82-.19-0.63.45-0.63,0.92,0,3.4,0,6.8,0,10.19a2.51,2.51,0,0,1-.11,1.25,13.7,13.7,0,0,0-1.86.2v4.83a1,1,0,0,1-1.08-.18V65.34H9.81V83.82a1.14,1.14,0,0,1-.94-0.16V69.58H4.74c-0.12,6.29.16,12.54-.24,18.77-1.26.4-2.42,0.84-2.27,2.35-0.46.24-.93,0-1.24,0.26v3.71H300C300,94.18,299,93.74,299,93.29ZM45.61,85.78H34.29v-15H45.61v15ZM79,64.86c1.35-.14,2.61,0,4-0.06a64.59,64.59,0,0,0,1.63,9.8c-2.44.19-4.74,0.16-7.16,0.13A56.41,56.41,0,0,0,79,64.86Zm9.33,22.82a5,5,0,0,1-.23,2c-0.37-.74-0.1-1.56-0.29-2.35H85.37c-0.33.2,0,.58-0.44,0.88H82.4c-0.38.34-.08,0.74-0.36,1H79.43v-1.9H76.52c-0.26.11,0.09,0.57-.24,0.85H75a1,1,0,0,0-.29.77,3.37,3.37,0,0,1-1.07.08c-0.43-.42.33-1.51-1-1.26a9.41,9.41,0,0,1,6.37-5c3.16-.87,5.86.29,8.26,2.21A3,3,0,0,1,88.35,87.69ZM206,73.76c0,0.13,0,.32-0.15.27s-0.11-.27,0-0.41a2.26,2.26,0,0,1,.24-0.22C206.3,73.57,206.08,73.65,206,73.76Zm31.09,15.93a11.38,11.38,0,0,1-.22-1.83,13.92,13.92,0,0,0-2.8-.11v3a12.46,12.46,0,0,1-2.51,0,2.69,2.69,0,0,1-.15-1.46c0-1.82,0-3.64,0-5.46a4.31,4.31,0,0,1,.32-2,0.65,0.65,0,0,0,.11-0.45,1.43,1.43,0,0,1,.23-1.81,3.58,3.58,0,0,1,5.86-.18c0.4,0.53.94,1.1,0.4,1.88a0.65,0.65,0,0,0,0,.47c0.81,2.59.08,5.24,0.43,8h-1.68Z" transform="translate(-1 -1.51)"/></svg>