<?xml version="1.0" encoding="utf-8"?>
<!-- Generator: Adobe Illustrator 19.2.1, SVG Export Plug-In . SVG Version: 6.00 Build 0)  -->
<svg version="1.1" id="Calque_1" xmlns="http://www.w3.org/2000/svg" xmlns:xlink="http://www.w3.org/1999/xlink" x="0px" y="0px"
	 viewBox="0 0 65 65" style="enable-background:new 0 0 65 65;" xml:space="preserve">
<style type="text/css">
	.st0{fill:none;}
	.st1{fill:#FFFFFF;}
	.st2{fill:#06A99C;}
</style>
<rect y="0" class="st0" width="65" height="65"/>
<path class="st1" d="M46.9,31c0-8-6.5-14.5-14.5-14.5c-8,0-14.5,6.5-14.5,14.4c0,0.2-0.6,5.3,3.4,9c1.3,1.4,4.8,5.9,4.9,8.9
	c0,0.5,0.5,1,1,1h5.2h5.2c0.5,0,1-0.4,1-1c0.1-3,3.6-7.4,4.8-8.8C47.4,36.1,46.9,31.1,46.9,31z M42,38.5c-0.2,0.2-4.6,5-5.3,9.2
	h-4.3h-4.3c-0.7-4.2-5.1-9-5.4-9.2c-3.3-3.1-2.8-7.1-2.8-7.4c0-6.9,5.6-12.5,12.5-12.5c6.9,0,12.5,5.6,12.5,12.6
	C44.9,31.3,45.3,35.4,42,38.5z"/>
<path class="st2" d="M30,22.9c-5.3,1.5-7.1,7.1-7.2,7.4c-0.2,0.5,0.1,1.1,0.7,1.3c0.1,0,0.2,0,0.3,0c0.4,0,0.8-0.3,1-0.7
	c0,0,1.6-4.9,5.8-6c0.5-0.1,0.9-0.7,0.7-1.2C31.1,23,30.6,22.7,30,22.9z"/>
<path class="st1" d="M36.7,52.2h-8.6c-0.4,0-0.8,0.4-0.8,0.8c0,0.5,0.4,0.8,0.8,0.8h8.6c0.4,0,0.8-0.4,0.8-0.8
	C37.5,52.6,37.1,52.2,36.7,52.2z"/>
<path class="st1" d="M35.6,55.9h-6.4c-0.4,0-0.8,0.4-0.8,0.8c0,0.5,0.4,0.8,0.8,0.8h6.4c0.5,0,0.8-0.4,0.8-0.8
	C36.4,56.2,36,55.9,35.6,55.9z"/>
<path class="st2" d="M32.6,13.8c0.6,0,1-0.5,1-1V8.5c0-0.6-0.5-1-1-1c-0.6,0-1,0.5-1,1v4.3C31.5,13.3,32,13.8,32.6,13.8z"/>
<path class="st2" d="M13.6,30H9.4c-0.6,0-1,0.5-1,1c0,0.6,0.5,1,1,1h4.3c0.6,0,1-0.5,1-1C14.7,30.4,14.2,30,13.6,30z"/>
<path class="st2" d="M55.6,30h-4.3c-0.6,0-1,0.5-1,1c0,0.6,0.5,1,1,1h4.3c0.6,0,1-0.5,1-1C56.6,30.4,56.2,30,55.6,30z"/>
<path class="st2" d="M18.5,44.2l-3,3c-0.4,0.4-0.4,1,0,1.4c0.2,0.2,0.5,0.3,0.7,0.3c0.3,0,0.5-0.1,0.7-0.3l3-3c0.4-0.4,0.4-1,0-1.4
	C19.5,43.8,18.9,43.8,18.5,44.2z"/>
<path class="st2" d="M45.9,19.3c0.3,0,0.5-0.1,0.7-0.3l3-3c0.4-0.4,0.4-1,0-1.4c-0.4-0.4-1-0.4-1.4,0l-3,3c-0.4,0.4-0.4,1,0,1.4
	C45.4,19.2,45.6,19.3,45.9,19.3z"/>
<path class="st2" d="M46.6,44.2c-0.4-0.4-1-0.4-1.4,0c-0.4,0.4-0.4,1,0,1.4l3,3c0.2,0.2,0.5,0.3,0.7,0.3c0.3,0,0.5-0.1,0.7-0.3
	c0.4-0.4,0.4-1,0-1.4L46.6,44.2z"/>
<path class="st2" d="M18.5,19c0.2,0.2,0.5,0.3,0.7,0.3s0.5-0.1,0.7-0.3c0.4-0.4,0.4-1,0-1.4l-3-3c-0.4-0.4-1-0.4-1.4,0
	c-0.4,0.4-0.4,1,0,1.4L18.5,19z"/>
</svg>
