<?xml version="1.0" encoding="utf-8"?>
<!-- Generator: Adobe Illustrator 19.2.1, SVG Export Plug-In . SVG Version: 6.00 Build 0)  -->
<svg version="1.1" id="Calque_1" xmlns="http://www.w3.org/2000/svg" xmlns:xlink="http://www.w3.org/1999/xlink" x="0px" y="0px"
	 viewBox="0 0 65 65" style="enable-background:new 0 0 65 65;" xml:space="preserve">
<style type="text/css">
	.st0{fill:none;}
	.st1{fill:#FFFFFF;}
	.st2{fill:#06A99C;}
</style>
<rect y="0" class="st0" width="65" height="65"/>
<path class="st1" d="M56.8,28.9H55v-7.5c0-1.5-1.2-2.8-2.8-2.8h-7.7V17c0-0.1-0.1-0.1-0.1-0.1h-4.3c-0.1,0-0.1,0-0.1,0.1v1.6H35
	v-1.7c0-0.6-0.5-1.1-1.1-1.1h-2.1c-0.6,0-1.1,0.5-1.1,1.1v1.7H10.3c-1.5,0-2.8,1.2-2.8,2.8v25.1c0,1.5,1.2,2.8,2.8,2.8h42
	c1.5,0,2.8-1.2,2.8-2.8V36.3h1.8c0.4,0,0.7-0.3,0.7-0.7v-6C57.5,29.2,57.2,28.9,56.8,28.9z M53.6,28.9h-5.2c-0.4,0-0.7,0.3-0.7,0.7
	v6c0,0.4,0.3,0.7,0.7,0.7h5.2v10.2c0,0.8-0.6,1.4-1.4,1.4H36v-4.9c0-0.4-0.3-0.7-0.7-0.7h-6.8c-0.4,0-0.7,0.3-0.7,0.7v4.9H10.3
	c-0.6,0-1.1-0.4-1.3-0.9h1.7c0.4,0,0.6-0.3,0.6-0.6v-2.8c0-0.4-0.3-0.6-0.6-0.6H8.9v-20h17.4V20h3.8v5.7c0,0.3,0.2,0.5,0.5,0.5H35
	c0.3,0,0.5-0.2,0.5-0.5V20H39v5.3h6.6V20h6.6c0.8,0,1.4,0.6,1.4,1.4V28.9z"/>
<path class="st2" d="M23.7,36.5c0,0.2,0.2,0.4,0.4,0.4h7.2c0.2,0,0.4-0.2,0.4-0.4v-7.2c0-0.2-0.2-0.4-0.4-0.4h-7.2
	c-0.2,0-0.4,0.2-0.4,0.4L23.7,36.5L23.7,36.5z"/>
<path class="st2" d="M13.8,39c0,0.2,0.2,0.4,0.4,0.4h1.5c0.2,0,0.4-0.2,0.4-0.4V27.7c0-0.2-0.2-0.4-0.4-0.4h-1.5
	c-0.2,0-0.4,0.2-0.4,0.4V39z"/>
</svg>
