<svg id="Calque_1" data-name="Calque 1" xmlns="http://www.w3.org/2000/svg" viewBox="0 0 24 16.5"><defs><style>.cls-1{fill:#fff;}</style></defs><title>camera-icon</title><path class="cls-1" d="M12,6a1.5,1.5,0,1,0-1.5-1.5A1.5,1.5,0,0,0,12,6m0-2.25a0.75,0.75,0,1,1-.75.75A0.75,0.75,0,0,1,12,3.75m11.25-1.5a0.74,0.74,0,0,0-.31.07h0L16.5,5.22V1.5A1.5,1.5,0,0,0,15,0H1.5A1.5,1.5,0,0,0,0,1.5V15a1.5,1.5,0,0,0,1.5,1.5H15A1.5,1.5,0,0,0,16.5,15V11.28l6.44,2.9h0A0.75,0.75,0,0,0,24,13.5V3a0.75,0.75,0,0,0-.75-0.75M15,15H1.5V13.5H15V12.75H1.5V1.5H15V15Zm7.5-2.66-6-2.7V6.86l6-2.7v8.18ZM8.25,5.25A0.75,0.75,0,1,0,7.5,4.5a0.75,0.75,0,0,0,.75.75" transform="translate(0)"/></svg>