<svg id="Calque_1" data-name="Calque 1" xmlns="http://www.w3.org/2000/svg" viewBox="0 0 171 192.89"><defs><style>.cls-1{fill:#e6e6e6;}.cls-2{fill:#fff;}.cls-3{font-size:78.82px;}.cls-3,.cls-4{fill:#6a205f;font-family:Roboto;}.cls-4{font-size:24px;}.cls-5{fill:#06a99c;}</style></defs><title>chrono-20sec</title><path class="cls-1" d="M92.34,22.19V13.68h6.08A6.84,6.84,0,0,0,98.42,0H72.58a6.84,6.84,0,0,0,0,13.68h6.08v8.5A85.52,85.52,0,1,0,92.34,22.19Zm-6.84,157a71.82,71.82,0,1,1,71.82-71.82A71.9,71.9,0,0,1,85.5,179.21Z" transform="translate(0 0)"/><path class="cls-1" d="M132.94,29.48A91.78,91.78,0,0,1,144,37.43a6.84,6.84,0,0,0,8.78-10.49,105.72,105.72,0,0,0-12.72-9.13A6.84,6.84,0,1,0,132.94,29.48Z" transform="translate(0 0)"/><circle class="cls-2" cx="85.5" cy="107.39" r="71.82"/><text class="cls-3" transform="translate(36.11 125)">20</text><text class="cls-4" transform="translate(64.62 150.35)">sec</text><path class="cls-5" d="M85.64,22q-3.52,0-7,.29v13.6c2.3-.22,4.62-0.34,7-0.34a71.82,71.82,0,0,1,50.72,122.67l9.58,9.58A85.36,85.36,0,0,0,85.64,22Z" transform="translate(0 0)"/></svg>