<?xml version="1.0" encoding="UTF-8" standalone="no"?>
<svg width="172px" height="193px" viewBox="0 0 172 193" version="1.1" xmlns="http://www.w3.org/2000/svg" xmlns:xlink="http://www.w3.org/1999/xlink">
    <!-- Generator: Sketch 3.8.3 (29802) - http://www.bohemiancoding.com/sketch -->
    <title>chrono-20sec</title>
    <desc>Created with Sketch.</desc>
    <defs></defs>
    <g id="Page-1" stroke="none" stroke-width="1" fill="none" fill-rule="evenodd">
        <g id="chrono-20sec">
            <g id="Calque_1">
                <path d="M93.34,22.19 L93.34,13.68 L99.42,13.68 C103.197628,13.6799999 106.26,10.6176276 106.26,6.84 C106.26,3.06237235 103.197628,5.62910388e-08 99.42,0 L73.58,0 C69.8023724,5.62910383e-08 66.7400001,3.06237235 66.7400001,6.84 C66.7400001,10.6176276 69.8023724,13.6799999 73.58,13.68 L79.66,13.68 L79.66,22.18 C33.9045292,25.8176839 -0.819783023,64.9268799 0.983727702,110.79128 C2.78723843,156.65568 40.4753375,192.917427 86.3751711,192.950979 C132.275005,192.984532 170.016078,156.777924 171.88664,110.916209 C173.757202,65.0544947 139.090104,25.8945739 93.34,22.19 L93.34,22.19 Z M86.5,179.19 C46.8349093,179.19 14.68,147.035091 14.68,107.37 C14.68,67.7049093 46.8349093,35.55 86.5,35.55 C126.165091,35.55 158.32,67.7049093 158.32,107.37 C158.286933,147.024624 126.154614,179.165892 86.5,179.21 L86.5,179.19 Z" id="Shape" fill="#E6E6E6"></path>
                <path d="M133.94,29.48 C137.818489,31.8524009 141.515333,34.5097167 145,37.43 C147.899865,39.814954 152.180133,39.4165304 154.58999,36.5373273 C156.999847,33.6581242 156.638327,29.3745816 153.78,26.94 C149.771502,23.5864405 145.519844,20.53474 141.06,17.81 C138.97208,16.426974 136.295254,16.295613 134.081952,17.467563 C131.86865,18.6395131 130.472806,20.927365 130.443213,23.4316208 C130.41362,25.9358766 131.75501,28.2560748 133.94,29.48 L133.94,29.48 Z" id="Shape" fill="#E6E6E6"></path>
                <circle id="Oval" fill="#FFFFFF" cx="86.5" cy="107.39" r="71.82"></circle>
                <text id="20" fill="#000000" font-family="Roboto" font-size="78.82" font-weight="normal">
                    <tspan x="43" y="128">20</tspan>
                </text>
                <text id="sec" fill="#000000" font-family="Helvetica" font-size="24" font-weight="normal">
                    <tspan x="68" y="152">sec</tspan>
                </text>
                <path d="M86.64,22 C84.2933333,22 81.96,22.0966667 79.64,22.29 L79.64,35.89 C81.94,35.67 84.26,35.55 86.64,35.55 C115.705603,35.5494873 141.905992,53.0677733 153.011799,79.9279734 C164.117606,106.788173 157.93903,137.694094 137.36,158.22 L146.94,167.8 C171.403483,143.40243 178.747308,106.663979 165.542851,74.736784 C152.338394,42.8095891 121.190013,21.9907541 86.64,22 L86.64,22 Z" id="Shape" fill="#06A99C"></path>
            </g>
        </g>
    </g>
</svg>