<svg id="Calque_1" data-name="Calque 1" xmlns="http://www.w3.org/2000/svg" viewBox="0 0 20 20"><defs><style>.cls-1{fill:#fff;}</style></defs><title>close-icon</title><path class="cls-1" d="M10,0A10,10,0,1,0,20,10,10,10,0,0,0,10,0Zm0,19.12A9.12,9.12,0,1,1,19.12,10,9.13,9.13,0,0,1,10,19.12Z" transform="translate(0)"/><path class="cls-1" d="M14.75,13.89L10.6,9.75,14.75,5.6a0.43,0.43,0,0,0-.6-0.6L10,9.14,5.86,5a0.43,0.43,0,0,0-.6.6L9.4,9.75,5.25,13.89a0.43,0.43,0,1,0,.6.6L10,10.35l4.14,4.14A0.43,0.43,0,0,0,14.75,13.89Z" transform="translate(0)"/></svg>