<?xml version="1.0" encoding="utf-8"?>
<!-- Generator: Adobe Illustrator 19.2.1, SVG Export Plug-In . SVG Version: 6.00 Build 0)  -->
<svg version="1.1" id="Calque_1" xmlns="http://www.w3.org/2000/svg" xmlns:xlink="http://www.w3.org/1999/xlink" x="0px" y="0px"
	 viewBox="0 0 65 65" style="enable-background:new 0 0 65 65;" xml:space="preserve">
<style type="text/css">
	.st0{fill:none;}
	.st1{fill:#FFFFFF;}
	.st2{fill:#06A99C;}
</style>
<rect y="0" class="st0" width="65" height="65"/>
<path class="st1" d="M32.3,18.9c-3.1,0-5.7-2.5-5.7-5.7s2.5-5.7,5.7-5.7S38,10,38,13.2C38,16.3,35.4,18.9,32.3,18.9z M32.3,9.8
	c-1.8,0-3.3,1.5-3.3,3.3s1.5,3.3,3.3,3.3c1.8,0,3.3-1.5,3.3-3.3S34.1,9.8,32.3,9.8z"/>
<path class="st2" d="M18.1,20.3c-2.6,0-4.8-2.1-4.8-4.8c0-2.6,2.1-4.8,4.8-4.8c2.6,0,4.8,2.1,4.8,4.8C22.8,18.1,20.7,20.3,18.1,20.3
	z M18.1,13.1c-1.3,0-2.4,1.1-2.4,2.4c0,1.3,1.1,2.4,2.4,2.4c1.3,0,2.4-1.1,2.4-2.4S19.4,13.1,18.1,13.1z"/>
<path class="st2" d="M46.3,20.3c-2.6,0-4.8-2.1-4.8-4.8c0-2.6,2.1-4.8,4.8-4.8c2.6,0,4.8,2.1,4.8,4.8C51.1,18.1,48.9,20.3,46.3,20.3
	z M46.3,13.1c-1.3,0-2.4,1.1-2.4,2.4c0,1.3,1.1,2.4,2.4,2.4c1.3,0,2.4-1.1,2.4-2.4S47.6,13.1,46.3,13.1z"/>
<path class="st1" d="M40.6,20.8H24c-2.4,0-4.3,1.9-4.3,4.3v12.6c0,2.4,1.9,4.3,4.3,4.3h1v12.1c0,1.8,1.5,3.3,3.3,3.3h1.9
	c0.8,0,1.6-0.3,2.2-0.8c0.6,0.5,1.3,0.8,2.2,0.8h1.5c1.8,0,3.3-1.5,3.3-3.3V42h1.2c2.4,0,4.3-1.9,4.3-4.3V25.1
	C44.9,22.7,42.9,20.8,40.6,20.8z M42.5,37.7c0,1.1-0.9,2-2,2h-1.2V27.9H37v26.3c0,0.5-0.4,1-1,1h-1.5c-0.5,0-1-0.4-1-1V40.9h-2.3
	v13.3c0,0.5-0.4,1-1,1h-1.9c-0.5,0-1-0.4-1-1V27.9H25v11.8h-1c-1.1,0-2-0.9-2-2V25.1c0-1.1,0.9-2,2-2h16.5c1.1,0,2,0.9,2,2
	L42.5,37.7L42.5,37.7z"/>
<path class="st2" d="M17.5,43.5v5.7c0,0.5-0.4,1-1,1h-1c-0.5,0-1-0.4-1-1V27.9h-2.3V37h-1.1c-0.6,0-1.1-0.5-1.1-1.1V25.2
	c0-0.6,0.5-1.1,1.1-1.1h7v-2.3h-7c-1.9,0-3.4,1.5-3.4,3.4v10.7c0,1.9,1.5,3.4,3.4,3.4h1.1v9.8c0,1.8,1.5,3.3,3.3,3.3h1
	c1.8,0,3.3-1.5,3.3-3.3v-5.7H17.5z"/>
<path class="st2" d="M53.9,21.8h-7v2.3h7c0.6,0,1.1,0.5,1.1,1.1v10.7c0,0.6-0.5,1.1-1.1,1.1h-1.1v-9.2h-2.3v21.3c0,0.5-0.4,1-1,1h-1
	c-0.5,0-1-0.4-1-1v-5.7h-2.3v5.7c0,1.8,1.5,3.3,3.3,3.3h1c1.8,0,3.3-1.5,3.3-3.3v-9.8h1.1c1.9,0,3.4-1.5,3.4-3.4V25.2
	C57.3,23.3,55.8,21.8,53.9,21.8z"/>
</svg>
