<?xml version="1.0" encoding="utf-8"?>
<!-- Generator: Adobe Illustrator 19.2.1, SVG Export Plug-In . SVG Version: 6.00 Build 0)  -->
<svg version="1.1" id="Calque_1" xmlns="http://www.w3.org/2000/svg" xmlns:xlink="http://www.w3.org/1999/xlink" x="0px" y="0px"
	 viewBox="0 0 160 70" style="enable-background:new 0 0 160 70;" xml:space="preserve">
<style type="text/css">
	.st0{fill:none;}
	.st1{fill:#EBA138;}
</style>
<rect class="st0" width="160" height="70"/>
<g>
	<path d="M15,43.7V26.3h16c1.2,0,2.3,0.1,3.1,0.3c0.8,0.2,1.5,0.5,2,1s0.8,1,1.1,1.6c0.2,0.6,0.3,1.4,0.3,2.3v7.3
		c0,0.8-0.1,1.6-0.3,2.2c-0.2,0.6-0.6,1.1-1.1,1.6c-0.5,0.4-1.2,0.7-2,0.9c-0.8,0.2-1.9,0.3-3.1,0.3H15z M34.2,31.4
		c0-0.5,0-0.9-0.1-1.2c-0.1-0.3-0.3-0.6-0.5-0.8c-0.2-0.2-0.6-0.3-1-0.4c-0.4-0.1-0.9-0.1-1.5-0.1H18.3v12.3H31c0.6,0,1.1,0,1.5-0.1
		c0.4-0.1,0.7-0.2,1-0.4c0.2-0.2,0.4-0.4,0.5-0.7c0.1-0.3,0.1-0.7,0.1-1.2V31.4z"/>
	<path d="M40.6,43.7V26.3h18v2.6H43.9v4.4h13.9v2.6H43.9v5.4h14.7v2.6H40.6z"/>
	<path d="M71.4,43.7L59.8,26.3h3.8l9.1,14.1l9-14.1h3.7L73.8,43.7H71.4z"/>
	<path d="M91.2,43.7c-1,0-1.8-0.1-2.5-0.3c-0.7-0.2-1.3-0.5-1.7-0.9c-0.4-0.4-0.8-0.8-1-1.3c-0.2-0.5-0.3-1.1-0.3-1.7v-9
		c0-0.6,0.1-1.2,0.3-1.7c0.2-0.5,0.5-1,1-1.3c0.4-0.4,1-0.7,1.7-0.9c0.7-0.2,1.5-0.3,2.5-0.3h11.6c1,0,1.8,0.1,2.5,0.3
		c0.7,0.2,1.3,0.5,1.7,0.9c0.4,0.4,0.8,0.8,1,1.3c0.2,0.5,0.3,1.1,0.3,1.7v9c0,0.6-0.1,1.2-0.3,1.7c-0.2,0.5-0.5,1-1,1.3
		c-0.4,0.4-1,0.7-1.7,0.9c-0.7,0.2-1.5,0.3-2.5,0.3H91.2z M105,30.5c0-1.1-0.7-1.6-2.2-1.6H91.2c-1.5,0-2.2,0.5-2.2,1.6v9.1
		c0,1.1,0.7,1.6,2.2,1.6h11.6c1.5,0,2.2-0.5,2.2-1.6V30.5z"/>
	<path d="M128.7,43.7l-7.8-7l-7.8,7h-4.3l10-8.7l-10-8.7h4.3l7.8,7l7.8-7h4.2l-9.9,8.6l10,8.9H128.7z"/>
	<path class="st1" d="M140.7,43.7l-7.8-7l-7.8,7h-4.3l10-8.7l-10-8.7h4.3l7.8,7l7.8-7h4.2l-9.9,8.6l10,8.9H140.7z"/>
</g>
</svg>
