<svg id="Calque_1" data-name="Calque 1" xmlns="http://www.w3.org/2000/svg" viewBox="0 0 24 30.72"><defs><style>.cls-1{fill:#fff;}</style></defs><title>document-icon</title><path class="cls-1" d="M4.8,19.34H19.2v-1H4.8v1ZM13.44,6.86H4.8v1h8.64v-1ZM4.8,15.5H19.2v-1H4.8v1ZM23.72,6.18h0L18,0.42A1,1,0,0,0,17.28.14H1.92A1.92,1.92,0,0,0,0,2.06V28.94a1.92,1.92,0,0,0,1.92,1.92H22.08A1.92,1.92,0,0,0,24,28.94V6.86a1,1,0,0,0-.28-0.68M17.28,2.46l4.4,4.4h-4.4V2.46Zm4.8,26.48H1.92V2.06h14.4V7.34a0.48,0.48,0,0,0,.48.48h5.28V28.94ZM4.8,11.66H19.2v-1H4.8v1Zm0,11.52H15.36v-1H4.8v1Z" transform="translate(0 -0.14)"/></svg>