<svg id="Calque_1" data-name="Calque 1" xmlns="http://www.w3.org/2000/svg" viewBox="0 0 50 50"><defs><style>.cls-1{fill:#fff;}</style></defs><title>icon-world-white-xebia-conseil-it</title><path id="_Tracé_transparent_" data-name="&lt;Tracé transparent&gt;" class="cls-1" d="M30,0h0a25,25,0,0,0,0,50h0A25,25,0,1,0,30,0ZM16.16,25a34.52,34.52,0,0,1,.46-5.61,0.42,0.42,0,0,1,.31-0.34,49.72,49.72,0,0,1,11.39-1.5,0.43,0.43,0,0,1,.44.42V32a0.43,0.43,0,0,1-.44.42,49.72,49.72,0,0,1-11.39-1.5,0.42,0.42,0,0,1-.31-0.34A34.52,34.52,0,0,1,16.16,25Zm-2.26,4.33a0.42,0.42,0,0,1-.57.43C9.49,28.21,7.5,26.32,7.5,25s2-3.21,5.84-4.76a0.42,0.42,0,0,1,.57.43A38.47,38.47,0,0,0,13.91,29.33ZM31.75,2.69c4.75,1,8.83,6.15,10.81,13a0.42,0.42,0,0,1-.49.52A55.46,55.46,0,0,0,31.65,15a0.41,0.41,0,0,1-.41-0.41V3.11A0.42,0.42,0,0,1,31.75,2.69Zm-3,.42V14.62a0.41,0.41,0,0,1-.41.41,55.46,55.46,0,0,0-10.42,1.22,0.42,0.42,0,0,1-.49-0.52c2-6.89,6.06-12,10.81-13A0.42,0.42,0,0,1,28.75,3.11Zm0,32.27V46.89a0.42,0.42,0,0,1-.5.42c-4.75-1-8.83-6.15-10.81-13a0.42,0.42,0,0,1,.49-0.52A55.46,55.46,0,0,0,28.34,35,0.41,0.41,0,0,1,28.75,35.38Zm2.5,11.52V35.38A0.41,0.41,0,0,1,31.65,35a55.46,55.46,0,0,0,10.42-1.22,0.42,0.42,0,0,1,.49.52c-2,6.89-6.06,12-10.81,13A0.42,0.42,0,0,1,31.25,46.89Zm0-14.86V18a0.43,0.43,0,0,1,.44-0.42,49.72,49.72,0,0,1,11.39,1.5,0.42,0.42,0,0,1,.31.34,34.55,34.55,0,0,1,0,11.21,0.42,0.42,0,0,1-.31.34,49.72,49.72,0,0,1-11.39,1.5A0.43,0.43,0,0,1,31.25,32ZM46.09,20.67a0.42,0.42,0,0,1,.57-0.43c3.85,1.55,5.84,3.44,5.84,4.76s-2,3.21-5.84,4.76a0.42,0.42,0,0,1-.57-0.43A38.46,38.46,0,0,0,46.09,20.67Zm5-1a24.25,24.25,0,0,0-5.38-2.41,0.41,0.41,0,0,1-.27-0.3A28.28,28.28,0,0,0,40.73,6.16a0.42,0.42,0,0,1,.53-0.62A22.58,22.58,0,0,1,51.74,19.2,0.41,0.41,0,0,1,51.12,19.66ZM19.27,6.16a28.28,28.28,0,0,0-4.73,10.79,0.41,0.41,0,0,1-.27.3,24.27,24.27,0,0,0-5.38,2.41,0.41,0.41,0,0,1-.62-0.46A22.58,22.58,0,0,1,18.73,5.54,0.42,0.42,0,0,1,19.27,6.16ZM8.88,30.34a24.24,24.24,0,0,0,5.38,2.41,0.41,0.41,0,0,1,.27.3,28.28,28.28,0,0,0,4.73,10.79,0.42,0.42,0,0,1-.53.62A22.58,22.58,0,0,1,8.26,30.8,0.41,0.41,0,0,1,8.88,30.34Zm31.85,13.5a28.28,28.28,0,0,0,4.74-10.79,0.41,0.41,0,0,1,.27-0.3,24.26,24.26,0,0,0,5.38-2.41,0.41,0.41,0,0,1,.62.46A22.58,22.58,0,0,1,41.26,44.47,0.42,0.42,0,0,1,40.73,43.84Z" transform="translate(-5)"/></svg>