<svg id="Calque_1" data-name="Calque 1" xmlns="http://www.w3.org/2000/svg" viewBox="0 0 49.98 49.98"><defs><style>.cls-1{fill:#06a99c;}</style></defs><title>icon-pen-vert</title><path id="_Tracé_transparent_" data-name=" Tracé transparent " class="cls-1" d="M49.71,8.55L41.45,0.29a1,1,0,0,0-1.39,0L34.63,5.71h0L5.17,35.17a1,1,0,0,0-.23.35L0.06,48.67a1,1,0,0,0,1.27,1.27L14.47,45a1,1,0,0,0,.4-0.18L42.54,17.1h0L49.7,9.94A1,1,0,0,0,49.71,8.55ZM41.45,3.77l4.78,4.78a1,1,0,0,1,0,1.39l-3,3a1,1,0,0,1-1.39,0l-2.39-2.39-2.38-2.4a1,1,0,0,1,0-1.39l3-3A1,1,0,0,1,41.45,3.77ZM7.65,39.31l3,3A1,1,0,0,1,10.33,44L5.51,45.79a1,1,0,0,1-1.27-1.27L6,39.7A1,1,0,0,1,7.65,39.31Zm5.64,2.16L8.52,36.7a1,1,0,0,1,0-1.39L33.94,9.89a1,1,0,0,1,1.39,0l2.39,2.39,2.39,2.39a1,1,0,0,1,0,1.39L14.69,41.48a1,1,0,0,1-1.39,0h0Z" transform="translate(-0.01 -0.01)"/></svg>