<svg id="Calque_1" data-name="Calque 1" xmlns="http://www.w3.org/2000/svg" viewBox="0 0 58.54 50"><defs><style>.cls-1{fill:#06a99c;}</style></defs><title>icon-people-vert</title><g id="_Groupe_" data-name=" Groupe "><path class="cls-1" d="M58.54,29.64a15,15,0,0,0-7.08-12.75,1,1,0,0,0-1.22.15l-0.33.33a1,1,0,0,0,.19,1.56,12.59,12.59,0,0,1,6,10.71c0,1.5-2,2.8-5,3.61a1,1,0,0,1-1.21-.63,22.07,22.07,0,0,0-9.54-11.38,1,1,0,0,0-1.22.19l-0.3.29A1,1,0,0,0,39,23.3a19.5,19.5,0,0,1,9.81,16.9c0,2.16-2.59,3.8-4.79,4.51a1,1,0,0,1-1.2-.5l-1.33-2.62a1,1,0,0,0-1.89.55l0.33,3.39a1,1,0,0,1-.78,1.08,48.92,48.92,0,0,1-9.85,1,60.87,60.87,0,0,1-9.46-.74A1,1,0,0,1,19,45.79l0.34-3.42a1,1,0,0,0-1.89-.54L16.1,44.5a1,1,0,0,1-1.25.5c-2.94-1.06-5.06-3-5.09-4.8a19.17,19.17,0,0,1,9.81-16.9,1,1,0,0,0,.17-1.59l-0.29-.29a1,1,0,0,0-1.22-.19A22.07,22.07,0,0,0,8.68,32.62a1,1,0,0,1-1.21.63c-3.06-.81-5-2.11-5-3.61a12.59,12.59,0,0,1,6-10.71,1,1,0,0,0,.21-1.56L8.3,17a1,1,0,0,0-1.22-.15A15,15,0,0,0,0,29.64c0,3,2.88,4.9,6.85,6a1,1,0,0,1,.74,1.14,21.8,21.8,0,0,0-.28,3.44c0,6.77,11,9.81,22,9.81s22-3,22-9.81A21.8,21.8,0,0,0,51,36.78a1,1,0,0,1,.65-1.18C55.68,34.55,58.54,32.6,58.54,29.64Z" transform="translate(0 -0.03)"/><path class="cls-1" d="M8.85,15a8.52,8.52,0,0,0,6.38,2.89,1,1,0,0,0,.92-1.36,9.5,9.5,0,0,1-.37-1.16,5.22,5.22,0,0,1-.73.07A5.34,5.34,0,0,1,10.5,7.35a1.22,1.22,0,0,1,.18-0.26c2-2.09,3.84-2.44,5.4-2.09a1,1,0,0,0,1.09-.49l0.22-.36a1,1,0,0,0-.63-1.52A7.65,7.65,0,0,0,15,2.43C9.3,2.43,5,8.72,8.68,14.76A1.24,1.24,0,0,0,8.85,15Z" transform="translate(0 -0.03)"/><path class="cls-1" d="M47.88,7.13a1.22,1.22,0,0,1,.19.27,5.34,5.34,0,0,1-4.57,8,5.09,5.09,0,0,1-.73-0.07,11.06,11.06,0,0,1-.38,1.15,1,1,0,0,0,.91,1.36,8.76,8.76,0,0,0,6.14-2.53,1.2,1.2,0,0,0,.2-0.23c4-6.08-.29-12.64-6.14-12.64a7.66,7.66,0,0,0-1.72.2,1,1,0,0,0-.63,1.52l0.22,0.36A1,1,0,0,0,42.46,5C44,4.65,45.83,5,47.88,7.13Z" transform="translate(0 -0.03)"/><path class="cls-1" d="M21.37,19.1c11.62,8.76,24.78-4.4,16-16a1.16,1.16,0,0,0-.22-0.22c-11.62-8.76-24.78,4.4-16,16A1.16,1.16,0,0,0,21.37,19.1ZM23.16,4.63c9-6.76,19.21,3.44,12.45,12.46a1.18,1.18,0,0,1-.23.23c-9,6.76-19.21-3.44-12.45-12.46A1.18,1.18,0,0,1,23.16,4.63Z" transform="translate(0 -0.03)"/></g></svg>