<svg id="Calque_1" data-name="Calque 1" xmlns="http://www.w3.org/2000/svg" viewBox="0 0 50 50"><defs><style>.cls-1{fill:#06a99c;}</style></defs><title>icon-birthday-cake-vert</title><g id="_Groupe_" data-name=" Groupe "><path id="_Tracé_transparent_" data-name=" Tracé transparent " class="cls-1" d="M48.86,27.26a6.5,6.5,0,0,0-5.39-2.86H40.14V16a1,1,0,0,0-1-1h-5a1,1,0,0,0-1,1v8.4H28.41V13.06a1,1,0,0,0-1-1h-5a1,1,0,0,0-1,1V24.4H16.63V13.06a1,1,0,0,0-1-1h-5a1,1,0,0,0-1,1V24.4H6.53a6.5,6.5,0,0,0-5.46,3,6.63,6.63,0,0,0-1,3.53V49a1,1,0,0,0,1,1h48a1,1,0,0,0,1-1V30.93A6.68,6.68,0,0,0,48.86,27.26ZM35.18,16.93h3V24.4h-3V16.93ZM23.45,14h3V24.4h-3V14ZM11.68,14h3V24.4h-3V14ZM6.48,26.35h37a4.54,4.54,0,0,1,3.77,2c-0.92,2-3,5.7-4.93,5.7a4.89,4.89,0,0,1-3-1.27A7,7,0,0,0,34.93,31c-1.94,0-3.26,1.65-4.66,3.39S27.36,38,25.21,38s-3.75-1.7-5.14-3.37c-1.22-1.42-2.37-2.76-3.91-2.76s-2.52,1.33-3.38,2.62-1.89,2.79-3.71,2.79c-2.72,0-5.34-5.84-6.4-8.83h0A4.65,4.65,0,0,1,6.48,26.35ZM48.07,48.09H1.91V30.93a4.64,4.64,0,0,1,.16-1.13c1.15,3,3.71,8.48,7,8.48,2.39,0,3.54-1.71,4.55-3.23,0.73-1.17,1.45-2.17,2.45-2.17s2,1.12,3.15,2.41C20.77,37,22.48,39,25.21,39s4.33-2.12,5.84-4c1.25-1.55,2.42-3,3.88-3a6,6,0,0,1,3.8,1.5A5.82,5.82,0,0,0,42.31,35c2.4,0,4.5-3.55,5.51-5.58a4.48,4.48,0,0,1,.25,1.51V48.09Z" transform="translate(-0.07 0)"/><path id="_Tracé_transparent_2" data-name=" Tracé transparent 2" class="cls-1" d="M25,10.44a3.74,3.74,0,0,0,3.77-3.71q0-.08,0-0.15c0-1.81-2.53-5.48-3-6.2A0.93,0.93,0,0,0,24.93,0a1,1,0,0,0-.76.38c-0.48.72-3.1,4.39-3.1,6.2A3.88,3.88,0,0,0,25,10.44h0Zm0-7.77a11.58,11.58,0,0,1,2,4,1.93,1.93,0,0,1-1.86,2H25a2,2,0,0,1-2-2A11.58,11.58,0,0,1,25,2.67Z" transform="translate(-0.07 0)"/><path id="_Tracé_transparent_3" data-name=" Tracé transparent 3" class="cls-1" d="M36.75,13.36a3.77,3.77,0,0,0,3.77-3.77s0-.06,0-0.09c0-1.81-2.53-5.48-3-6.2a0.93,0.93,0,0,0-.76-0.38A1,1,0,0,0,36,3.3c-0.48.72-3,4.39-3,6.2A3.88,3.88,0,0,0,36.75,13.36Zm0-7.77a13.78,13.78,0,0,1,2,4,1.93,1.93,0,0,1-1.86,2H36.75a2,2,0,0,1-2-2A11.59,11.59,0,0,1,36.75,5.59Z" transform="translate(-0.07 0)"/><path id="_Tracé_transparent_4" data-name=" Tracé transparent 4" class="cls-1" d="M13.2,10.44A3.71,3.71,0,0,0,17,6.79q0-.11,0-0.21c0-1.81-2.53-5.48-3-6.2A0.93,0.93,0,0,0,13.15,0a1,1,0,0,0-.76.38c-0.48.72-3.05,4.39-3.05,6.2A3.88,3.88,0,0,0,13.2,10.44Zm0-7.77a11.58,11.58,0,0,1,2,4,1.93,1.93,0,0,1-1.86,2H13.2a2,2,0,0,1-2-2A11.58,11.58,0,0,1,13.2,2.67Z" transform="translate(-0.07 0)"/></g></svg>