<svg id="Calque_1" data-name="Calque 1" xmlns="http://www.w3.org/2000/svg" viewBox="0 0 50 50"><defs><style>.cls-1{fill:#fff;}</style></defs><title>icon-pen-white-xebia-conseil-it</title><path id="_Tracé_transparent_" data-name="&lt;Tracé transparent&gt;" class="cls-1" d="M54.84,8.55L46.58,0.29a1,1,0,0,0-1.39,0L39.76,5.71h0L10.3,35.17a1,1,0,0,0-.23.35L5.19,48.67a1,1,0,0,0,1.27,1.27L19.6,45A1,1,0,0,0,20,44.82L47.67,17.1h0l7.16-7.16A1,1,0,0,0,54.84,8.55ZM46.58,3.77l4.78,4.78a1,1,0,0,1,0,1.39l-3,3a1,1,0,0,1-1.39,0l-2.39-2.39L42.2,8.15a1,1,0,0,1,0-1.39l3-3A1,1,0,0,1,46.58,3.77ZM12.78,39.31l3,3A1,1,0,0,1,15.46,44l-4.82,1.79a1,1,0,0,1-1.27-1.27l1.79-4.82A1,1,0,0,1,12.78,39.31Zm5.64,2.16L13.65,36.7a1,1,0,0,1,0-1.39L39.07,9.89a1,1,0,0,1,1.39,0l2.39,2.39,2.39,2.39a1,1,0,0,1,0,1.39L19.82,41.48A1,1,0,0,1,18.43,41.48Z" transform="translate(-5.13 0)"/></svg>