<svg id="Calque_1" data-name="Calque 1" xmlns="http://www.w3.org/2000/svg" viewBox="0 0 61.18 49.89"><defs><style>.cls-1{fill:#fff;}</style></defs><title>icon-brain-white-xebia-conseil-it</title><g id="_Groupe_" data-name="&lt;Groupe&gt;"><path id="_Tracé_" data-name="&lt;Tracé&gt;" class="cls-1" d="M17.08,21a4.79,4.79,0,0,1-3.42-1.42h0a6.58,6.58,0,0,0-1.71-3,0.92,0.92,0,0,0-1.3,1.3,4.84,4.84,0,0,1,0,6.83,0.92,0.92,0,0,0,1.3,1.3,6.61,6.61,0,0,0,1.88-4,6.59,6.59,0,0,0,8-1.07,0.92,0.92,0,0,0-1.3-1.3A4.79,4.79,0,0,1,17.08,21" transform="translate(0 -0.06)"/><path id="_Tracé_2" data-name="&lt;Tracé&gt;" class="cls-1" d="M27.15,17.14a4.83,4.83,0,0,1,0-6.83A0.92,0.92,0,0,0,25.85,9,6.6,6.6,0,0,0,24,13a6.59,6.59,0,0,0-8,1.07,0.92,0.92,0,0,0,1.3,1.3,4.83,4.83,0,0,1,6.83,0h0a6.62,6.62,0,0,0,1.72,3.05,0.92,0.92,0,0,0,1.3-1.3" transform="translate(0 -0.06)"/><path id="_Tracé_3" data-name="&lt;Tracé&gt;" class="cls-1" d="M29.06,23.3a0.92,0.92,0,0,0-1.3-1.3A6.62,6.62,0,0,0,26,25h0a4.83,4.83,0,0,1-6.83,0,0.92,0.92,0,1,0-1.3,1.3,6.59,6.59,0,0,0,8,1.07,6.59,6.59,0,0,0,1.88,4,0.92,0.92,0,1,0,1.3-1.3,4.83,4.83,0,0,1,0-6.83" transform="translate(0 -0.06)"/><path id="_Tracé_4" data-name="&lt;Tracé&gt;" class="cls-1" d="M32.7,27.84a0.92,0.92,0,0,0,.92.92,4.84,4.84,0,0,1,4.83,4.83v0A6.6,6.6,0,0,0,37.52,37a0.92,0.92,0,0,0,1.84,0,4.83,4.83,0,0,1,4.83-4.83,0.92,0.92,0,1,0,0-1.84A6.61,6.61,0,0,0,40,31.8a6.66,6.66,0,0,0-6.4-4.89,0.92,0.92,0,0,0-.92.92" transform="translate(0 -0.06)"/><path id="_Tracé_5" data-name="&lt;Tracé&gt;" class="cls-1" d="M39.9,12a0.92,0.92,0,0,0-1.3-1.3,4.83,4.83,0,0,1-6.83,0,0.92,0.92,0,0,0-1.3,1.3,6.59,6.59,0,0,0,4,1.89,6.66,6.66,0,0,0,1.07,8,0.92,0.92,0,0,0,1.3-1.3,4.83,4.83,0,0,1,0-6.83h0A6.6,6.6,0,0,0,39.9,12" transform="translate(0 -0.06)"/><path id="_Tracé_6" data-name="&lt;Tracé&gt;" class="cls-1" d="M52,20.87A0.92,0.92,0,0,0,51.06,20a6.6,6.6,0,0,0-4.16,1.5,6.58,6.58,0,0,0-6.4-4.88,0.92,0.92,0,1,0,0,1.84,4.83,4.83,0,0,1,4.83,4.83h0a6.61,6.61,0,0,0-.94,3.37,0.92,0.92,0,0,0,1.84,0,4.83,4.83,0,0,1,4.83-4.83A0.92,0.92,0,0,0,52,20.87" transform="translate(0 -0.06)"/><path id="_Tracé_transparent_" data-name="&lt;Tracé transparent&gt;" class="cls-1" d="M40.52,49.94a8.44,8.44,0,0,1-8.4-7.67,8.41,8.41,0,0,1-4-3.45,8.71,8.71,0,0,1-5.89-1.41,8.43,8.43,0,0,1-12.4-3.31A8.43,8.43,0,0,1,0,25.81a8.32,8.32,0,0,1,1.24-4.4A8.34,8.34,0,0,1,.07,17.12,8.46,8.46,0,0,1,6.48,8.93,8.44,8.44,0,0,1,18.25,3.32,8.43,8.43,0,0,1,30.16,1.89,8.44,8.44,0,0,1,35.4.06,9.82,9.82,0,0,1,41.76,3,8.43,8.43,0,0,1,52.69,8.74,8.42,8.42,0,0,1,59,21.38,8.41,8.41,0,0,1,61.18,27,8.31,8.31,0,0,1,56,34.8c0,0.19,0,.37,0,0.55a8.45,8.45,0,0,1-7.36,8.36A8.48,8.48,0,0,1,40.52,49.94Zm-11-14,0.43,1a5.92,5.92,0,0,0,3.72,3.26l0.91,0.27,0,1a5.93,5.93,0,0,0,11.8.94l0.15-1.07h1.08a5.92,5.92,0,0,0,5.78-7.09L53.18,33l1.14-.3A5.84,5.84,0,0,0,58.68,27a5.93,5.93,0,0,0-2.1-4.52l-0.92-.78,0.74-.95a5.92,5.92,0,0,0-4.66-9.58H50.66l-0.23-1.07A5.93,5.93,0,0,0,44.56,5a5.84,5.84,0,0,0-2.63.61l-1,.49-0.61-.92A7.11,7.11,0,0,0,35.4,2.56a5.92,5.92,0,0,0-4.33,1.88l-0.92,1-0.92-1a5.92,5.92,0,0,0-4.33-1.88,5.85,5.85,0,0,0-5.18,3L19.08,6.77,18,6a5.88,5.88,0,0,0-3.29-1,6,6,0,0,0-5.88,5.14l-0.13.95-0.95.13a6,6,0,0,0-5.14,5.88,5.85,5.85,0,0,0,1.18,3.55l0.58,0.76-0.59.76A5.84,5.84,0,0,0,2.5,25.81a5.93,5.93,0,0,0,7.75,5.64l1.2-.39,0.38,1.21a5.93,5.93,0,0,0,9.6,2.64l0.83-.74,0.83,0.73a6.12,6.12,0,0,0,5.45,1.32Z" transform="translate(0 -0.06)"/></g></svg>