<svg id="Calque_1" data-name="Calque 1" xmlns="http://www.w3.org/2000/svg" viewBox="0 0 49.95 50.02"><defs><style>.cls-1{fill:#06a99c;}</style></defs><title>icon-evolution-vert</title><path id="_Tracé_" data-name=" Tracé " class="cls-1" d="M50,3.5a3.5,3.5,0,1,0-5.72,2.69L39.65,20a3.48,3.48,0,0,0-1.81.58l-5.36-3.75a3.5,3.5,0,1,0-5.82,1.66l-4.14,9.67H22.4A3.49,3.49,0,0,0,19.33,30l-4.24-.53a3.49,3.49,0,1,0-6,3.14L3.67,43H3.5A3.5,3.5,0,1,0,6,44l5.3-10.21h0.4A3.49,3.49,0,0,0,14.77,32L19,32.5a3.49,3.49,0,1,0,5.82-3.35L29,19.49h0.1a3.48,3.48,0,0,0,2-.6l5.36,3.75A3.5,3.5,0,1,0,42,20.81L46.65,7A3.49,3.49,0,0,0,50,3.5Z" transform="translate(-0.05 0.02)"/></svg>