<svg id="Calque_1" data-name="Calque 1" xmlns="http://www.w3.org/2000/svg" viewBox="0 0 61.18 49.88"><defs><style>.cls-1{fill:#06a99c;}</style></defs><title>icon-brain-vert</title><g id="_Groupe_" data-name=" Groupe "><path id="_Tracé_" data-name=" Tracé " class="cls-1" d="M17.08,20.94a4.79,4.79,0,0,1-3.42-1.42h0a6.58,6.58,0,0,0-1.71-3,0.92,0.92,0,0,0-1.3,1.3,4.84,4.84,0,0,1,0,6.83,0.92,0.92,0,0,0,1.3,1.3,6.61,6.61,0,0,0,1.88-4,6.59,6.59,0,0,0,8-1.07,0.92,0.92,0,0,0-1.3-1.3,4.79,4.79,0,0,1-3.45,1.36" transform="translate(0 0)"/><path id="_Tracé_2" data-name=" Tracé 2" class="cls-1" d="M27.15,17.08a4.83,4.83,0,0,1,0-6.83,0.92,0.92,0,1,0-1.3-1.31h0a6.6,6.6,0,0,0-1.85,4A6.59,6.59,0,0,0,16,14a0.92,0.92,0,0,0,1.3,1.3,4.83,4.83,0,0,1,6.83,0h0a6.62,6.62,0,0,0,1.72,3.05,0.92,0.92,0,0,0,1.3-1.3" transform="translate(0 0)"/><path id="_Tracé_3" data-name=" Tracé 3" class="cls-1" d="M29.06,23.24a0.92,0.92,0,0,0-1.3-1.3,6.62,6.62,0,0,0-1.76,3h0a4.83,4.83,0,0,1-6.83,0,0.92,0.92,0,1,0-1.35,1.25l0.05,0.05a6.59,6.59,0,0,0,8,1.07,6.59,6.59,0,0,0,1.88,4,0.92,0.92,0,1,0,1.35-1.25L29,30a4.83,4.83,0,0,1,0-6.83" transform="translate(0 0)"/><path id="_Tracé_4" data-name=" Tracé 4" class="cls-1" d="M32.7,27.78a0.92,0.92,0,0,0,.92.92,4.84,4.84,0,0,1,4.83,4.83h0a6.6,6.6,0,0,0-.93,3.41,0.92,0.92,0,0,0,1.84,0,4.83,4.83,0,0,1,4.83-4.83h0a0.92,0.92,0,0,0,0-1.84A6.61,6.61,0,0,0,40,31.74a6.66,6.66,0,0,0-6.4-4.89,0.92,0.92,0,0,0-.92.92" transform="translate(0 0)"/><path id="_Tracé_5" data-name=" Tracé 5" class="cls-1" d="M39.9,11.94a0.92,0.92,0,0,0-1.3-1.3,4.83,4.83,0,0,1-6.83,0,0.92,0.92,0,0,0-1.3,1.3,6.59,6.59,0,0,0,4,1.89,6.66,6.66,0,0,0,1.07,8,0.92,0.92,0,0,0,1.3-1.3,4.83,4.83,0,0,1,0-6.83h0a6.6,6.6,0,0,0,3.06-1.76" transform="translate(0 0)"/><path id="_Tracé_6" data-name=" Tracé 6" class="cls-1" d="M52,20.81a0.92,0.92,0,0,0-.94-0.87,6.6,6.6,0,0,0-4.16,1.5,6.58,6.58,0,0,0-6.4-4.88,0.92,0.92,0,0,0,0,1.84,4.83,4.83,0,0,1,4.83,4.83h0a6.61,6.61,0,0,0-.94,3.37,0.92,0.92,0,1,0,1.84,0,4.83,4.83,0,0,1,4.83-4.83h0a0.92,0.92,0,0,0,.94-0.9s0,0,0-.06" transform="translate(0 0)"/><path id="_Tracé_transparent_" data-name=" Tracé transparent " class="cls-1" d="M40.52,49.88a8.44,8.44,0,0,1-8.4-7.67,8.41,8.41,0,0,1-4-3.45,8.71,8.71,0,0,1-5.89-1.41A8.43,8.43,0,0,1,9.83,34,8.43,8.43,0,0,1,0,25.75a8.32,8.32,0,0,1,1.24-4.4A8.34,8.34,0,0,1,.07,17.06,8.46,8.46,0,0,1,6.48,8.87,8.44,8.44,0,0,1,18.25,3.26,8.43,8.43,0,0,1,30.08,1.77l0.08,0.06A8.44,8.44,0,0,1,35.4,0a9.82,9.82,0,0,1,6.36,2.94A8.43,8.43,0,0,1,52.51,8.1q0.1,0.29.18,0.58A8.42,8.42,0,0,1,59,21.32a8.41,8.41,0,0,1,2.18,5.62A8.31,8.31,0,0,1,56,34.74v0.55a8.45,8.45,0,0,1-7.36,8.36A8.48,8.48,0,0,1,40.52,49.88Zm-11-14,0.43,1a5.92,5.92,0,0,0,3.72,3.26l0.91,0.27v1a5.93,5.93,0,0,0,11.8.94l0.15-1.07h1.08a5.92,5.92,0,0,0,5.78-7.09l-0.21-1.25,1.14-.3a5.84,5.84,0,0,0,4.36-5.7,5.93,5.93,0,0,0-2.1-4.52l-0.92-.78,0.74-1a5.92,5.92,0,0,0-4.66-9.58H50.66L50.43,10a5.93,5.93,0,0,0-5.87-5.1,5.84,5.84,0,0,0-2.63.61l-1,.49-0.61-.92A7.11,7.11,0,0,0,35.4,2.5a5.92,5.92,0,0,0-4.33,1.88l-0.92,1-0.92-1A5.92,5.92,0,0,0,24.9,2.5a5.85,5.85,0,0,0-5.18,3L19.08,6.71,18,5.94a5.88,5.88,0,0,0-3.29-1,6,6,0,0,0-5.88,5.14L8.7,11l-0.95.13A6,6,0,0,0,2.61,17a5.85,5.85,0,0,0,1.18,3.55l0.58,0.76-0.59.76A5.84,5.84,0,0,0,2.5,25.75a5.93,5.93,0,0,0,7.75,5.64l1.2-.39,0.38,1.21a5.93,5.93,0,0,0,9.6,2.64l0.83-.74,0.83,0.73a6.12,6.12,0,0,0,5.45,1.32Z" transform="translate(0 0)"/></g></svg>