<svg id="Calque_1" data-name="Calque 1" xmlns="http://www.w3.org/2000/svg" viewBox="0 0 50 50"><defs><style>.cls-1{fill:#fff;}</style></defs><title>icon-evolution-white-xebia-conseil-it</title><path id="_Tracé_" data-name="&lt;Tracé&gt;" class="cls-1" d="M56,3.5a3.5,3.5,0,1,0-5.72,2.69L45.65,20a3.48,3.48,0,0,0-1.81.58l-5.36-3.75a3.5,3.5,0,1,0-5.82,1.66l-4.14,9.67H28.4A3.49,3.49,0,0,0,25.33,30l-4.24-.53a3.49,3.49,0,1,0-6,3.14L9.67,43,9.5,43A3.5,3.5,0,1,0,12,44L17.3,33.79a3.41,3.41,0,0,0,.4,0A3.49,3.49,0,0,0,20.77,32L25,32.5a3.49,3.49,0,1,0,5.82-3.35L35,19.49H35.1a3.48,3.48,0,0,0,2-.6l5.36,3.75A3.5,3.5,0,1,0,48,20.81L52.65,7A3.49,3.49,0,0,0,56,3.5Z" transform="translate(-6)"/></svg>