<svg id="Calque_1" data-name="Calque 1" xmlns="http://www.w3.org/2000/svg" viewBox="0 0 50 50"><defs><style>.cls-1{fill:#fff;}</style></defs><title>icon-birthday-cake-white-xebia-conseil-it</title><g id="_Groupe_" data-name="&lt;Groupe&gt;"><path id="_Tracé_transparent_" data-name="&lt;Tracé transparent&gt;" class="cls-1" d="M53.79,27.26A6.5,6.5,0,0,0,48.4,24.4H45.07V16a1,1,0,0,0-1-1h-5a1,1,0,0,0-1,1V24.4H33.34V13.06a1,1,0,0,0-1-1h-5a1,1,0,0,0-1,1V24.4H21.56V13.06a1,1,0,0,0-1-1h-5a1,1,0,0,0-1,1V24.4H11.46A6.5,6.5,0,0,0,6,27.4a6.63,6.63,0,0,0-1,3.53V49a1,1,0,0,0,1,1h48a1,1,0,0,0,1-1V30.93A6.68,6.68,0,0,0,53.79,27.26ZM40.11,16.93h3.05V24.4H40.11V16.93ZM28.38,14h3.05V24.4H28.38V14ZM16.61,14h3.05V24.4H16.61V14ZM11.41,26.35h37a4.54,4.54,0,0,1,3.77,1.95c-0.92,2-3,5.7-4.93,5.7a4.89,4.89,0,0,1-3-1.27A7,7,0,0,0,39.86,31c-1.94,0-3.26,1.65-4.66,3.39S32.29,38,30.14,38,26.39,36.3,25,34.63c-1.22-1.42-2.37-2.76-3.91-2.76s-2.52,1.33-3.38,2.62S15.82,37.28,14,37.28c-2.72,0-5.34-5.84-6.4-8.83h0A4.65,4.65,0,0,1,11.41,26.35ZM53,48.09H6.84V30.93A4.64,4.64,0,0,1,7,29.8c1.15,3,3.71,8.48,7,8.48,2.39,0,3.54-1.71,4.55-3.23C19.28,33.88,20,32.88,21,32.88s2,1.12,3.15,2.41C25.7,37,27.41,39,30.14,39s4.33-2.12,5.84-4c1.25-1.55,2.42-3,3.88-3a6,6,0,0,1,3.8,1.5A5.82,5.82,0,0,0,47.24,35c2.4,0,4.5-3.55,5.51-5.58A4.48,4.48,0,0,1,53,30.93V48.09Z" transform="translate(-4.93)"/><path id="_Tracé_transparent_2" data-name="&lt;Tracé transparent&gt;" class="cls-1" d="M29.91,10.44a3.74,3.74,0,0,0,3.77-3.86c0-1.81-2.53-5.48-3.05-6.2A0.93,0.93,0,0,0,29.86,0a1,1,0,0,0-.76.38C28.62,1.1,26,4.77,26,6.58A3.88,3.88,0,0,0,29.91,10.44Zm0-7.77a11.58,11.58,0,0,1,2,4,1.93,1.93,0,0,1-2,2,2,2,0,0,1-2-2A11.58,11.58,0,0,1,29.91,2.67Z" transform="translate(-4.93)"/><path id="_Tracé_transparent_3" data-name="&lt;Tracé transparent&gt;" class="cls-1" d="M41.68,13.36A3.77,3.77,0,0,0,45.45,9.5c0-1.81-2.53-5.48-3.05-6.2a0.93,0.93,0,0,0-.76-0.38,1,1,0,0,0-.76.38c-0.48.72-3.05,4.39-3.05,6.2A3.88,3.88,0,0,0,41.68,13.36Zm0-7.77a13.78,13.78,0,0,1,2,4,1.93,1.93,0,0,1-2,2,2,2,0,0,1-2-2A11.59,11.59,0,0,1,41.68,5.59Z" transform="translate(-4.93)"/><path id="_Tracé_transparent_4" data-name="&lt;Tracé transparent&gt;" class="cls-1" d="M18.13,10.44A3.71,3.71,0,0,0,21.9,6.58c0-1.81-2.53-5.48-3.05-6.2A0.93,0.93,0,0,0,18.08,0a1,1,0,0,0-.76.38c-0.48.72-3.05,4.39-3.05,6.2A3.88,3.88,0,0,0,18.13,10.44Zm0-7.77a11.58,11.58,0,0,1,2,4,1.93,1.93,0,0,1-2,2,2,2,0,0,1-2-2A11.58,11.58,0,0,1,18.13,2.67Z" transform="translate(-4.93)"/></g></svg>