<?xml version="1.0" encoding="utf-8"?>
<!-- Generator: Adobe Illustrator 19.2.1, SVG Export Plug-In . SVG Version: 6.00 Build 0)  -->
<svg version="1.1" xmlns="http://www.w3.org/2000/svg" xmlns:xlink="http://www.w3.org/1999/xlink" x="0px" y="0px"
	 viewBox="0 0 65 65" style="enable-background:new 0 0 65 65;" xml:space="preserve">
<style type="text/css">
	.st0{fill:none;}
	.st1{fill:#FFFFFF;}
	.st2{fill:#06A99C;}
</style>
<g id="Calque_1">
	<rect y="0" class="st0" width="65" height="65"/>
</g>
<g id="Calque_2">
	<path class="st1" d="M32.6,42.4c-0.1,0-5.3-2.2-7.8-5.9h14.8c-1,1.5-2.6,3-4.7,4.6c-0.5,0.4-0.6,1.1-0.2,1.6
		c0.2,0.3,0.6,0.5,0.9,0.5c0.2,0,0.5-0.1,0.7-0.2C41.6,39,44,35,43.4,31.1c-0.9-6.4-9.6-9.9-10.5-10.3c-4.6-2.5-7-5.1-8.2-7.3h15.4
		C39.2,15.1,37.7,17,35,19c-0.5,0.4-0.6,1.1-0.2,1.6c0.2,0.3,0.6,0.5,0.9,0.5c0.2,0,0.5-0.1,0.7-0.2c9-6.6,6.9-12.4,6.8-12.6
		c-0.2-0.6-0.9-0.9-1.4-0.6C41.1,7.8,40.8,8.4,41,9c0,0.1,0.3,0.9,0,2.3H23.8c-0.4-1.5-0.3-2.4-0.3-2.5c0.1-0.6-0.3-1.2-1-1.3
		c-0.6-0.1-1.2,0.3-1.3,0.9c-0.1,0.3-1.1,8.2,10.7,14.4c0,0,0.1,0,0.1,0.1c0.1,0,4.9,1.9,7.5,5.1H25.2c0.9-1.3,2.2-2.5,3.8-3.8
		c0.5-0.4,0.6-1.1,0.2-1.6c-0.4-0.5-1.1-0.6-1.6-0.2c-2.4,1.8-4.1,3.7-5.1,5.6h-0.2v0.3c-0.9,1.8-1.3,3.5-1,5.3
		c0.9,6.8,10.1,10.7,10.4,10.8c4.7,2.2,7.2,4.7,8.5,6.8H24.4c0.8-1.6,2.3-3.2,4.8-4.6c0.6-0.3,0.8-1,0.5-1.5c-0.3-0.5-1-0.8-1.5-0.5
		c-8.1,4.4-7,11.6-6.9,11.9c0.1,0.6,0.6,0.9,1.1,0.9c0.1,0,0.1,0,0.2,0c0.6-0.1,1-0.7,0.9-1.3c0,0-0.2-1.1,0.2-2.7h17.7
		c0.5,1.5,0.3,2.6,0.3,2.7c-0.1,0.6,0.3,1.2,0.9,1.3c0.1,0,0.1,0,0.2,0c0.5,0,1-0.4,1.1-0.9C43.9,56.2,45.1,48.1,32.6,42.4z
		 M23.7,34.2c-0.1-0.3-0.2-0.6-0.2-0.9c-0.1-1,0-2,0.4-3h16.9c0.1,0.4,0.2,0.8,0.3,1.2c0.1,0.9,0,1.8-0.3,2.8H23.7z"/>
	<path class="st1" d="M32.6,42.4c-0.1,0-5.3-2.2-7.8-5.9h14.8c-1,1.5-2.6,3-4.7,4.6c-0.5,0.4-0.6,1.1-0.2,1.6
		c0.2,0.3,0.6,0.5,0.9,0.5c0.2,0,0.5-0.1,0.7-0.2C41.6,39,44,35,43.4,31.1c-0.9-6.4-9.6-9.9-10.5-10.3c-4.6-2.5-7-5.1-8.2-7.3h15.4
		C39.2,15.1,37.7,17,35,19c-0.5,0.4-0.6,1.1-0.2,1.6c0.2,0.3,0.6,0.5,0.9,0.5c0.2,0,0.5-0.1,0.7-0.2c9-6.6,6.9-12.4,6.8-12.6
		c-0.2-0.6-0.9-0.9-1.4-0.6C41.1,7.8,40.8,8.4,41,9c0,0.1,0.3,0.9,0,2.3H23.8c-0.4-1.5-0.3-2.4-0.3-2.5c0.1-0.6-0.3-1.2-1-1.3
		c-0.6-0.1-1.2,0.3-1.3,0.9c-0.1,0.3-1.1,8.2,10.7,14.4c0,0,0.1,0,0.1,0.1c0.1,0,4.9,1.9,7.5,5.1H25.2c0.9-1.3,2.2-2.5,3.8-3.8
		c0.5-0.4,0.6-1.1,0.2-1.6c-0.4-0.5-1.1-0.6-1.6-0.2c-2.4,1.8-4.1,3.7-5.1,5.6h-0.2v0.3c-0.9,1.8-1.3,3.5-1,5.3
		c0.9,6.8,10.1,10.7,10.4,10.8c4.7,2.2,7.2,4.7,8.5,6.8H24.4c0.8-1.6,2.3-3.2,4.8-4.6c0.6-0.3,0.8-1,0.5-1.5c-0.3-0.5-1-0.8-1.5-0.5
		c-8.1,4.4-7,11.6-6.9,11.9c0.1,0.6,0.6,0.9,1.1,0.9c0.1,0,0.1,0,0.2,0c0.6-0.1,1-0.7,0.9-1.3c0,0-0.2-1.1,0.2-2.7h17.7
		c0.5,1.5,0.3,2.6,0.3,2.7c-0.1,0.6,0.3,1.2,0.9,1.3c0.1,0,0.1,0,0.2,0c0.5,0,1-0.4,1.1-0.9C43.9,56.2,45.1,48.1,32.6,42.4z
		 M23.7,34.2c-0.1-0.3-0.2-0.6-0.2-0.9c-0.1-1,0-2,0.4-3h16.9c0.1,0.4,0.2,0.8,0.3,1.2c0.1,0.9,0,1.8-0.3,2.8H23.7z"/>
	<path class="st2" d="M41.1,31.4c0,0-0.2,1.1-0.9,2.3H24.8c0,0-0.8-1.1-1-2.3H41.1z"/>
	<path class="st2" d="M23.7,33.6c0,0,0.1-1.1,0.8-2.3h15.8c0,0,0.8,1.1,1,2.3H23.7z"/>
</g>
</svg>
