<svg id="Calque_1" data-name="Calque 1" xmlns="http://www.w3.org/2000/svg" viewBox="0 0 30 30"><defs><style>.cls-1{fill:#02aa9d;}.cls-2{fill:#fff;}</style></defs><title>link-external</title><circle class="cls-1" cx="15" cy="15" r="15"/><path class="cls-2" d="M25,15a4.58,4.58,0,0,0-4.59-4.57h-3a4.08,4.08,0,0,1,2,2.3h0.86a2.28,2.28,0,0,1,0,4.56h-4A2.3,2.3,0,0,1,15.07,17a2.36,2.36,0,0,1-.84-2.75l-2.58,0a4.56,4.56,0,0,0,3.27,5.25,4.2,4.2,0,0,0,1.24.16h4.26A4.57,4.57,0,0,0,25,15Zm-9.76-4.4A3.63,3.63,0,0,0,14,10.44H9.58a4.57,4.57,0,1,0,0,9.13h3a4.09,4.09,0,0,1-2-2.3H9.72A2.27,2.27,0,0,1,7.51,15a2.29,2.29,0,0,1,2.22-2.3h4.15a2.34,2.34,0,0,1,1.21.34,2.35,2.35,0,0,1,.84,2.75l2.59,0.05A4.57,4.57,0,0,0,15.24,10.6Z" transform="translate(0)"/></svg>