<?xml version="1.0" encoding="utf-8"?>
<!-- Generator: Adobe Illustrator 19.2.1, SVG Export Plug-In . SVG Version: 6.00 Build 0)  -->
<svg version="1.1" id="Calque_1" xmlns="http://www.w3.org/2000/svg" xmlns:xlink="http://www.w3.org/1999/xlink" x="0px" y="0px"
	 viewBox="0 0 160 70" style="enable-background:new 0 0 160 70;" xml:space="preserve">
<style type="text/css">
	.st0{fill:none;}
	.st1{fill:#F00101;}
	.st2{fill:#FFFFFF;}
	.st3{fill:#030303;}
</style>
<rect class="st0" width="160" height="70"/>
<g>
	<path class="st1" d="M113.5,60h-67c-2.2,0-4-1.8-4-4V14c0-2.2,1.8-4,4-4h67c2.2,0,4,1.8,4,4v42C117.5,58.2,115.7,60,113.5,60z"/>
	<rect id="rect8591_1_" x="43.4" y="23.4" class="st2" width="73.3" height="30"/>
	
		<path id="path8587_1_" inkscape:connector-curvature="0" sodipodi:nodetypes="cssssssssssscsscccssssssssssssccsssscssssssssscssssssscccsscssssscssscsscsssssssscscsssssssssssssscsccssssssssssscsssssscssssssssssscssssssssssscsssssssssss" class="st3" d="
		M101.5,51.1c-0.3-0.2-0.8-3.1-1-5.7c-0.1-1.2-0.2-1.4-0.6-1.7c-0.6-0.6-0.5-1.4,0.2-1.4c0.3,0,0.4-0.4,0.5-1.5
		c0.2-2,0.8-4.5,1.5-5.9c0.8-1.5,2.7-3.2,3.8-3.2c0.3,0,1.2,0.3,2.3,0.8c0.2,0.1,0.5,0.2,0.7,0.3c0.3,0.1,0.5,0.4,0.8,1
		c0.7,1.5,0.7,3.3-0.1,5.2c-0.6,1.7-3.9,4.7-5.6,5.1l-0.8,0.2l0,1.5c0,1.8,0.2,3.6,0.6,4.5c0.1,0.4,0.2,0.7,0.1,0.8
		C103.9,51.2,101.6,51.3,101.5,51.1L101.5,51.1z M104.9,40.6c0.6-0.6,1.3-1.4,1.6-1.9c0.5-0.9,0.7-2.3,0.6-3.5
		c-0.1-1.3-0.3-1.3-1-0.5c-1.1,1.2-1.6,2.5-2.3,5.3c-0.1,0.6-0.3,1.3-0.3,1.4C103.4,41.9,103.8,41.7,104.9,40.6L104.9,40.6z
		 M85.3,42.8c-0.1-1.6-0.2-2.9-0.3-3c0-0.1-0.6-0.2-1.3-0.2c-1.4-0.1-1.6-0.3-1.6-0.9c0-0.7,0.5-0.9,1.7-0.8l1,0.1l0-0.6
		c0-0.3-0.1-1.1-0.2-1.8c-0.6-4.7-0.7-8-0.3-9.1c0.1-0.3,0.2-0.4,0.8-0.4c0.6,0,2,0.6,2.2,0.9c0.1,0.1,0.2,4.8,0.3,9.1
		c0,0.3,0,0.7-0.1,1c-0.1,0.4-0.1,0.5,0.2,0.5c0.3,0,0.3-0.1,0.3-0.4c0-0.4,0-0.4,0.4-0.5c0.3,0,0.6,0.2,1.5,1
		c0.6,0.6,1,1.1,0.9,1.1c-0.2,0.2-1.3,0.5-2,0.5c-1.5,0-1.4-0.2-1.3,3.1c0.1,3.3,0.2,3.1-1.3,3.2l-0.8,0.1L85.3,42.8z M62.5,44.8
		c-0.1-0.4-0.4-1.1-0.6-1.6c-0.4-0.9-0.9-2.7-1.5-4.9c-0.2-0.8-0.4-1.5-0.5-1.6c-0.2-0.3-0.3,0.7-0.4,3.6c0,1.4-0.2,2.8-0.3,3.2
		l-0.2,0.7l-1.5,0.1L56,44.5l-0.3-0.4c-0.2-0.2-0.8-1.2-1.3-2c-0.5-0.9-1-1.6-1-1.6c0,0,0,0.7,0.2,1.5c0.1,0.8,0.2,1.6,0.1,1.7
		c-0.1,0.4-1.6,1-2.4,1c-0.7,0-0.9-0.3-1.1-2.1c-0.4-3.1-0.4-3.8-0.3-6.5l0.1-2.7l0.7-0.2c1.1-0.3,2.3-0.2,2.7,0.1
		c0.2,0.2,0.9,1.5,1.7,3l1.4,2.7l0.2-1.5c0.3-2.2,1.1-5.1,1.9-6.4l0.3-0.5l1.4,0c1.1,0,1.4,0.1,1.7,0.3c0.4,0.4,1.1,3.2,2.2,8.4
		c0.1,0.6,0.3,1.4,0.5,1.8c0.1,0.4,0.2,0.8,0.2,0.9s0.2,0.8,0.4,1.5c0.4,1.2,0.5,1.6,0.3,1.4c-0.1-0.1-0.2,0-0.3,0.1
		c-0.2,0.1-1.8,0.6-2.2,0.6C62.7,45.6,62.6,45.2,62.5,44.8L62.5,44.8z M68.8,45.2c-0.7-0.2-1.1-0.3-2.1-1.1
		c-1.2-0.9-1.4-1.4-1.4-3.8c0-2.5,0.1-3.5,0.5-4.8c0.4-1.2,1.3-2.3,2.6-3.2c0.8-0.5,0.9-0.6,1.7-0.4c1.5,0.2,2.2,0.5,2.4,1
		c0.5,0.9,0.7,6.2,0.2,6.9c-0.2,0.2-2.7,0.3-3.6,0c-0.3-0.1-0.6-0.1-0.7-0.1c-0.1,0-0.1,0.6-0.1,1.2c0,1.3,0.3,2.2,1.1,2.8
		c0.5,0.4,0.6,0.4,1.2,0.3c0.4-0.1,0.9-0.2,1.1-0.3c0.5-0.3,2,0,2.5,0.5l0.3,0.4l-0.8,0.3C72.2,45.3,70,45.5,68.8,45.2L68.8,45.2z
		 M69.8,37.4c0.1-0.9,0-2.5-0.2-2.5c-0.1,0-0.8,1.5-0.9,2.3c-0.1,0.5-0.1,0.6,0.2,0.7C69.6,38.1,69.7,38,69.8,37.4z M78.7,45
		c-2.3-0.3-3.1-0.7-4.1-2.1c-0.7-1.1-0.7-1.1-0.8-2.5c-0.1-1,0-1.6,0.1-2c0.1-0.3,0.3-1,0.4-1.7c0.5-2.2,1-3.1,2.7-4.9
		c0.8-0.8,1-0.9,1.4-0.9c0.3,0,0.9,0.1,1.2,0.3c0.4,0.2,0.8,0.3,0.9,0.3c0.1,0,0.3,0.2,0.5,0.3c0.3,0.3,0.4,0.4,0.3,2.1
		c-0.1,0.9-0.2,1.8-0.2,1.9c-0.1,0.1-0.2,1.1-0.2,2.2l0,2L80,40.3c-0.8,0.2-1,0.2-2,0c-1.3-0.2-1.4-0.2-1.4,0.6
		c0,0.6,0.6,1.7,1.2,2.4c0.4,0.4,0.6,0.5,1.2,0.5c1,0,1.9-0.3,2.2-0.7c0.3-0.4,0.6-0.5,1.2,0c0.8,0.5,0.7,1-0.2,1.4
		C80.9,45,80,45.2,78.7,45L78.7,45z M78.3,38.4c0.1-0.2,0.1-1.1,0.1-2.1c0-1.6,0-1.7-0.2-1.3c-0.3,0.6-1.1,3-1.1,3.3
		c0,0.3,0.2,0.4,0.8,0.4C78.1,38.7,78.3,38.6,78.3,38.4L78.3,38.4z M92.9,44.7c-0.8-0.6-1.5-2.9-1.8-6.3c-0.1-1.6-0.1-2.5,0.1-2.8
		c0.1-0.2,1-0.1,1.7,0.2c1.4,0.6,1.3,0.5,1.5,3.7c0.1,3.2,0.2,3.9,0.5,3.8c0.3-0.1,1.6-2.1,1.8-2.9c0.1-0.4,0.2-1.4,0.2-2.2
		c0-0.8,0-1.6,0-1.8c0-0.4,0.3-0.8,0.7-0.8c0.4,0,2.2,0.9,2.5,1.2c0.2,0.2,0.2,0.5,0,1.7c-0.2,1.6-0.4,2.2-0.8,2.6
		c-0.2,0.1-0.4,0.6-0.6,0.9c-0.2,0.4-0.3,0.5-0.4,0.6c0,0-0.2,0.1-0.2,0.2c0,0.3-1.5,1.8-2,1.9C95.2,45,93.3,45,92.9,44.7L92.9,44.7
		z"/>
</g>
</svg>
