<?xml version="1.0" encoding="utf-8"?>
<!-- Generator: Adobe Illustrator 19.2.1, SVG Export Plug-In . SVG Version: 6.00 Build 0)  -->
<svg version="1.1" id="Calque_1" xmlns="http://www.w3.org/2000/svg" xmlns:xlink="http://www.w3.org/1999/xlink" x="0px" y="0px"
	 viewBox="0 0 160 70" style="enable-background:new 0 0 160 70;" xml:space="preserve">
<style type="text/css">
	.st0{fill:none;}
	.st1{fill:#1D1D1B;}
	.st2{fill:#245529;}
	.st3{fill:#37A146;}
</style>
<rect class="st0" width="160" height="70"/>
<g>
	<path class="st1" d="M111.8,54.7h-4.3c-0.1,0-0.2,0.1-0.2,0.2v0.9c0,0.2,0,0.5,0.1,0.7c0.1,0.2,0.2,0.4,0.4,0.6
		c0.2,0.2,0.3,0.3,0.6,0.4c0.2,0.1,0.4,0.1,0.7,0.1c0.4,0,0.8-0.2,1.1-0.5c0.2-0.2,0.3-0.3,0.4-0.4c0.1-0.1,0.2-0.2,0.2-0.2
		c0,0,0.1,0,0.1,0l0.7,0.4c0.1,0,0.1,0.1,0.1,0.1c0,0.1-0.1,0.3-0.2,0.5c-0.1,0.2-0.3,0.3-0.5,0.5c-0.2,0.2-0.5,0.3-0.8,0.4
		c-0.3,0.1-0.7,0.2-1,0.2c-0.9,0-1.6-0.3-2.1-0.8c-0.5-0.5-0.8-1.2-0.8-2v-2.3c0-0.3,0.1-0.6,0.2-1c0.1-0.3,0.3-0.6,0.6-0.9
		c0.5-0.6,1.2-0.9,2.1-0.9c0.4,0,0.8,0.1,1.1,0.2c0.4,0.2,0.7,0.4,0.9,0.6c0.3,0.3,0.5,0.5,0.6,0.9c0.1,0.3,0.2,0.7,0.2,1v1
		C112,54.7,111.9,54.7,111.8,54.7z M110.9,53.5c0-0.2,0-0.5-0.1-0.7c-0.1-0.2-0.2-0.4-0.4-0.6c-0.2-0.2-0.3-0.3-0.6-0.4
		c-0.2-0.1-0.5-0.1-0.7-0.1c-0.3,0-0.5,0-0.7,0.1c-0.2,0.1-0.4,0.2-0.6,0.4c-0.2,0.2-0.3,0.3-0.4,0.6c-0.1,0.2-0.1,0.5-0.1,0.7v0.2
		c0,0.1,0.1,0.2,0.2,0.2h3.2c0.1,0,0.2-0.1,0.2-0.2V53.5z M104.9,52.7C104.8,52.7,104.8,52.7,104.9,52.7c-0.1,0-0.2,0-0.2-0.1
		c-0.1-0.1-0.2-0.2-0.3-0.3c-0.1-0.1-0.2-0.2-0.3-0.3c-0.1-0.1-0.2-0.2-0.4-0.2c-0.1-0.1-0.3-0.1-0.5-0.1c-0.3,0-0.5,0-0.7,0.1
		c-0.2,0.1-0.4,0.2-0.6,0.4c-0.2,0.2-0.3,0.3-0.4,0.6c-0.1,0.2-0.1,0.5-0.1,0.7v2.3c0,0.2,0,0.5,0.1,0.7c0.1,0.2,0.2,0.4,0.4,0.6
		c0.2,0.2,0.3,0.3,0.6,0.4c0.2,0.1,0.4,0.1,0.7,0.1c0.4,0,0.8-0.2,1.1-0.5c0.2-0.2,0.3-0.3,0.4-0.4c0.1-0.1,0.2-0.2,0.2-0.2
		c0,0,0.1,0,0.1,0l0.7,0.4c0.1,0,0.1,0.1,0.1,0.1c0,0.1-0.1,0.3-0.2,0.5c-0.1,0.2-0.3,0.3-0.5,0.5c-0.2,0.2-0.5,0.3-0.8,0.4
		c-0.3,0.1-0.7,0.2-1,0.2c-0.9,0-1.6-0.3-2.1-0.8c-0.5-0.5-0.8-1.2-0.8-2v-2.3c0-0.8,0.3-1.5,0.8-2c0.5-0.5,1.2-0.7,2.1-0.7
		c0.4,0,0.7,0.1,1,0.2c0.3,0.1,0.6,0.2,0.8,0.4c0.2,0.1,0.4,0.3,0.5,0.5c0.1,0.2,0.2,0.3,0.2,0.5c0,0.1,0,0.1-0.1,0.1L104.9,52.7z
		 M100.1,52.1c-0.1,0-0.2,0-0.3,0c-0.1,0-0.2,0-0.4,0c-0.3,0-0.5,0-0.7,0.1c-0.2,0.1-0.4,0.2-0.6,0.4c-0.2,0.2-0.3,0.4-0.4,0.6
		c-0.1,0.2-0.1,0.4-0.1,0.7v4.4c0,0.1-0.1,0.2-0.2,0.2h-0.8c-0.1,0-0.2-0.1-0.2-0.2v-7.2c0-0.1,0.1-0.2,0.2-0.2h0.6
		c0.1,0,0.2,0.1,0.2,0.2v0.8c0,0.1,0,0.2,0.1,0.2c0.1,0,0.2-0.1,0.4-0.3c0.2-0.2,0.4-0.4,0.7-0.6c0.1-0.1,0.2-0.1,0.4-0.2
		c0.1-0.1,0.3-0.1,0.4-0.1h0.6c0.1,0,0.2,0.1,0.2,0.2v0.9C100.2,52.1,100.2,52.1,100.1,52.1z M95.2,58.4h-0.6
		c-0.1,0-0.2-0.1-0.2-0.2v-0.7c0-0.1,0-0.2-0.1-0.2c-0.1,0-0.2,0.1-0.2,0.2c-0.1,0.1-0.2,0.2-0.4,0.4c-0.4,0.3-0.8,0.5-1.4,0.5
		c-0.4,0-0.7-0.1-1.1-0.2c-0.3-0.1-0.6-0.3-0.9-0.6c-0.2-0.2-0.4-0.5-0.6-0.9c-0.1-0.3-0.2-0.7-0.2-1.1v-4.5c0-0.1,0.1-0.2,0.2-0.2
		h0.8c0.1,0,0.2,0.1,0.2,0.2v4.5c0,0.2,0,0.5,0.1,0.7c0.1,0.2,0.2,0.4,0.4,0.6c0.2,0.2,0.3,0.3,0.6,0.4c0.2,0.1,0.4,0.1,0.7,0.1
		c0.3,0,0.5,0,0.7-0.1c0.2-0.1,0.4-0.2,0.6-0.4c0.2-0.2,0.3-0.4,0.4-0.6c0.1-0.2,0.1-0.5,0.1-0.7v-4.5c0-0.1,0.1-0.2,0.2-0.2h0.8
		c0.1,0,0.2,0.1,0.2,0.2v7.2C95.3,58.4,95.3,58.4,95.2,58.4z M85.8,58.6c-0.9,0-1.6-0.3-2.1-0.8c-0.5-0.5-0.8-1.2-0.8-2v-2.3
		c0-0.8,0.3-1.5,0.8-2c0.5-0.5,1.2-0.7,2.1-0.7c0.4,0,0.8,0.1,1.2,0.2c0.4,0.1,0.7,0.3,0.9,0.6c0.3,0.2,0.4,0.5,0.6,0.9
		c0.1,0.3,0.2,0.7,0.2,1.1v2.3c0,0.8-0.3,1.5-0.8,2C87.4,58.3,86.7,58.6,85.8,58.6z M87.6,53.5c0-0.2,0-0.5-0.1-0.7
		c-0.1-0.2-0.2-0.4-0.4-0.6c-0.2-0.2-0.3-0.3-0.6-0.4c-0.2-0.1-0.5-0.1-0.7-0.1c-0.3,0-0.5,0-0.7,0.1c-0.2,0.1-0.4,0.2-0.6,0.4
		c-0.2,0.2-0.3,0.3-0.4,0.6c-0.1,0.2-0.1,0.5-0.1,0.7v2.3c0,0.2,0,0.5,0.1,0.7c0.1,0.2,0.2,0.4,0.4,0.6c0.2,0.2,0.3,0.3,0.6,0.4
		c0.2,0.1,0.4,0.1,0.7,0.1c0.2,0,0.5,0,0.7-0.1c0.2-0.1,0.4-0.2,0.6-0.4c0.2-0.2,0.3-0.4,0.4-0.6c0.1-0.2,0.1-0.5,0.1-0.7V53.5z
		 M79.4,54c0.5,0.1,0.9,0.2,1.3,0.3c0.4,0.1,0.7,0.2,0.9,0.4c0.2,0.1,0.4,0.3,0.6,0.6c0.1,0.2,0.2,0.5,0.2,0.9
		c0,0.7-0.2,1.3-0.7,1.8c-0.5,0.5-1.1,0.7-1.9,0.7h-0.5c-0.4,0-0.7-0.1-1-0.2c-0.3-0.1-0.6-0.2-0.8-0.4c-0.2-0.2-0.4-0.3-0.5-0.5
		c-0.1-0.2-0.2-0.3-0.2-0.5c0,0,0-0.1,0.1-0.1l0.6-0.3c0,0,0,0,0.1,0c0,0,0.1,0,0.1,0.1c0.1,0.1,0.2,0.2,0.3,0.4
		c0.1,0.1,0.2,0.2,0.3,0.3c0.1,0.1,0.3,0.2,0.4,0.2c0.1,0.1,0.3,0.1,0.5,0.1h0.5c0.5,0,0.8-0.1,1.1-0.4c0.3-0.2,0.4-0.5,0.4-0.9
		c0-0.6-0.5-1-1.6-1.2c-0.5-0.1-0.9-0.2-1.3-0.3c-0.4-0.1-0.7-0.2-0.9-0.4c-0.3-0.1-0.4-0.3-0.6-0.6c-0.1-0.2-0.2-0.5-0.2-0.9
		c0-0.7,0.2-1.3,0.7-1.7c0.5-0.4,1.1-0.7,1.8-0.7h0.5c0.4,0,0.7,0.1,1,0.2c0.3,0.1,0.6,0.2,0.8,0.4c0.2,0.1,0.4,0.3,0.5,0.5
		s0.2,0.3,0.2,0.4c0,0,0,0.1-0.1,0.1l-0.6,0.3c0,0,0,0-0.1,0c0,0-0.1,0-0.1-0.1c-0.2-0.3-0.5-0.5-0.7-0.7c-0.2-0.2-0.5-0.3-0.9-0.3
		h-0.5c-0.5,0-0.8,0.1-1.1,0.3c-0.2,0.2-0.4,0.5-0.4,0.8c0,0.4,0.1,0.6,0.4,0.8C78.4,53.8,78.8,53.9,79.4,54z M73.5,58.7h-1.2
		c-0.1,0-0.2-0.1-0.2-0.2v-4.6c0-0.2,0-0.4-0.1-0.6c-0.1-0.2-0.2-0.4-0.3-0.5c-0.1-0.1-0.3-0.3-0.5-0.3c-0.2-0.1-0.4-0.1-0.6-0.1
		c-0.4,0-0.8,0.1-1.1,0.4c-0.3,0.3-0.4,0.7-0.4,1.1v4.6c0,0.1-0.1,0.2-0.2,0.2h-1.2c-0.1,0-0.2-0.1-0.2-0.2v-7.3
		c0-0.1,0.1-0.2,0.2-0.2h1c0.1,0,0.2,0.1,0.2,0.2v0.2c0,0.1,0,0.2,0.1,0.2c0.1,0,0.1,0,0.2-0.1c0.1-0.1,0.2-0.1,0.3-0.2
		c0.1-0.1,0.3-0.1,0.5-0.2c0.2-0.1,0.4-0.1,0.6-0.1c0.4,0,0.8,0.1,1.1,0.2c0.3,0.1,0.6,0.3,0.9,0.6c0.3,0.3,0.4,0.6,0.6,0.9
		c0.1,0.4,0.2,0.7,0.2,1.2v4.6C73.7,58.6,73.7,58.7,73.5,58.7z M66.9,55.1h-4.1c-0.1,0-0.2,0.1-0.2,0.2V56c0,0.2,0,0.4,0.1,0.6
		c0.1,0.2,0.2,0.4,0.3,0.5c0.1,0.1,0.3,0.3,0.5,0.3c0.2,0.1,0.4,0.1,0.6,0.1c0.2,0,0.4,0,0.5-0.1c0.2-0.1,0.3-0.2,0.4-0.3
		c0.2-0.2,0.3-0.4,0.4-0.5c0.1-0.1,0.2-0.2,0.2-0.2c0,0,0.1,0,0.1,0l1,0.5c0.1,0,0.1,0.1,0.1,0.1c0,0.1-0.1,0.2-0.2,0.4
		c-0.1,0.2-0.3,0.4-0.5,0.7c-0.5,0.5-1.2,0.7-2.1,0.7c-0.4,0-0.9-0.1-1.2-0.2c-0.4-0.1-0.7-0.3-0.9-0.6c-0.3-0.3-0.5-0.6-0.6-0.9
		c-0.1-0.4-0.2-0.7-0.2-1.2v-2.2c0-0.4,0.1-0.8,0.2-1.1c0.2-0.4,0.4-0.7,0.6-0.9c0.3-0.3,0.6-0.5,0.9-0.6c0.4-0.2,0.7-0.2,1.2-0.2
		c0.4,0,0.8,0.1,1.2,0.2c0.4,0.2,0.7,0.4,0.9,0.6c0.3,0.3,0.5,0.6,0.6,0.9C67,53,67,53.4,67,53.8V55C67,55.1,67,55.1,66.9,55.1z
		 M65.4,53.1c-0.1-0.2-0.2-0.3-0.3-0.4c-0.1-0.1-0.3-0.2-0.5-0.3c-0.2-0.1-0.4-0.1-0.6-0.1c-0.2,0-0.4,0-0.6,0.1
		c-0.2,0.1-0.3,0.2-0.5,0.3c-0.1,0.1-0.2,0.3-0.3,0.5c-0.1,0.2-0.1,0.4-0.1,0.5c0,0.1,0,0.2,0,0.2c0,0,0.1,0.1,0.1,0.1h2.6
		c0.1,0,0.1,0,0.1-0.1c0,0,0-0.1,0-0.2C65.6,53.5,65.5,53.3,65.4,53.1z M59.8,57.9c-0.2,0.3-0.5,0.5-0.9,0.6
		c-0.3,0.1-0.7,0.2-1.1,0.2c-0.2,0-0.5,0-0.6-0.1c-0.2-0.1-0.3-0.1-0.5-0.2c-0.1-0.1-0.2-0.1-0.3-0.2c-0.1-0.1-0.1-0.1-0.2-0.1
		c-0.1,0-0.1,0.1-0.1,0.2v4c0,0.1-0.1,0.2-0.2,0.2h-1.2c-0.1,0-0.2-0.1-0.2-0.2V51.2c0-0.1,0.1-0.2,0.2-0.2h1c0.1,0,0.2,0.1,0.2,0.2
		v0.2c0,0.1,0,0.2,0.1,0.2c0.1,0,0.1,0,0.2-0.1c0.1-0.1,0.2-0.1,0.3-0.2c0.1-0.1,0.3-0.1,0.5-0.2c0.2-0.1,0.4-0.1,0.6-0.1
		c0.4,0,0.8,0.1,1.1,0.2c0.3,0.1,0.6,0.3,0.9,0.6c0.3,0.3,0.4,0.6,0.6,0.9c0.1,0.4,0.2,0.7,0.2,1.2v1.9c0,0.4-0.1,0.8-0.2,1.2
		C60.3,57.3,60.1,57.6,59.8,57.9z M59.1,53.9c0-0.2,0-0.4-0.1-0.6c-0.1-0.2-0.2-0.4-0.3-0.5c-0.1-0.1-0.3-0.3-0.5-0.3
		c-0.2-0.1-0.4-0.1-0.6-0.1c-0.4,0-0.8,0.1-1.1,0.4c-0.3,0.3-0.4,0.7-0.4,1.1v1.9c0,0.4,0.1,0.8,0.4,1.1c0.3,0.3,0.6,0.4,1.1,0.4
		c0.2,0,0.4,0,0.6-0.1c0.2-0.1,0.3-0.2,0.5-0.3c0.1-0.1,0.2-0.3,0.3-0.5c0.1-0.2,0.1-0.4,0.1-0.6V53.9z M53.1,58.1
		c-0.3,0.3-0.6,0.4-0.9,0.6c-0.4,0.1-0.8,0.2-1.2,0.2c-0.4,0-0.9-0.1-1.2-0.2c-0.4-0.1-0.7-0.3-0.9-0.6c-0.3-0.3-0.5-0.6-0.6-0.9
		C48.1,56.8,48,56.4,48,56v-2.2c0-0.4,0.1-0.8,0.2-1.2c0.1-0.4,0.3-0.7,0.6-0.9c0.3-0.3,0.6-0.4,0.9-0.6c0.4-0.1,0.8-0.2,1.2-0.2
		c0.4,0,0.9,0.1,1.2,0.2c0.4,0.1,0.7,0.3,0.9,0.6c0.3,0.3,0.5,0.6,0.6,0.9c0.1,0.4,0.2,0.7,0.2,1.2V56c0,0.4-0.1,0.8-0.2,1.2
		C53.6,57.5,53.4,57.8,53.1,58.1z M52.5,53.8c0-0.4-0.1-0.8-0.4-1.1c-0.3-0.3-0.6-0.4-1.1-0.4c-0.4,0-0.8,0.1-1.1,0.4
		c-0.3,0.3-0.4,0.7-0.4,1.1V56c0,0.2,0,0.4,0.1,0.6c0.1,0.2,0.2,0.4,0.3,0.5c0.1,0.1,0.3,0.3,0.5,0.3c0.2,0.1,0.4,0.1,0.6,0.1
		c0.4,0,0.8-0.1,1.1-0.4c0.3-0.3,0.4-0.7,0.4-1.1V53.8z"/>
	<path class="st2" d="M76.2,7.8c4.5-0.8,9.2,0,13.2,2.3c4,2.2,7.2,5.8,8.9,10c1.8,4.2,2,9,0.7,13.4c-1.7,6.1-6.5,11.2-12.4,13.3
		c-0.5,0.2-0.9-0.3-1-0.7c-1.5-3.9-3-7.8-4.4-11.7c-0.3-0.7,0.5-1,1-1.2c2.6-1.2,3.9-4.4,3.1-7.1c-0.7-2.2-2.7-3.9-4.9-4.2
		c-2.6-0.4-5.4,1.1-6.4,3.5c-1,2.2-0.5,4.9,1.1,6.6c0.7,0.7,1.6,1.2,2.4,1.6c0.4,0.2,0.3,0.7,0.1,1c-1.5,3.9-2.9,7.7-4.4,11.6
		c-0.1,0.3-0.4,0.7-0.8,0.6c-7.1-2.5-12.5-9.4-13.2-16.9c-0.5-4.9,0.8-10.1,3.8-14.1C66.3,11.6,71.1,8.6,76.2,7.8L76.2,7.8z"/>
	<path class="st3" d="M75.3,9.4C79,8.5,83,8.8,86.6,10.3c4.1,1.6,7.6,4.7,9.6,8.6c1.9,3.4,2.6,7.5,2.1,11.3c-0.5,4-2.3,7.8-5,10.7
		c-1.8,1.9-4,3.4-6.5,4.5c-1.3-3.6-2.7-7.2-4-10.8c2.2-1.1,3.8-3.3,4.1-5.7c0.5-3.3-1.6-6.8-4.7-7.9c-2.9-1.2-6.4-0.2-8.4,2.2
		c-1.9,2.2-2.2,5.6-0.9,8.1c0.7,1.4,2,2.5,3.3,3.3c-1.3,3.6-2.7,7.2-4,10.8c-3.7-1.6-6.9-4.3-9-7.7c-1.7-2.9-2.7-6.3-2.7-9.7
		c-0.1-4.2,1.4-8.4,4-11.7C67.3,12.8,71.1,10.4,75.3,9.4L75.3,9.4z"/>
	<g>
		<path class="st2" d="M105.3,44.9c-0.3-0.8-0.5-1.7-0.6-2.5c-0.4,0.9-1,1.8-1.5,2.7c-0.5-0.9-1-1.8-1.5-2.7
			c-0.1,0.9-0.4,1.7-0.6,2.6c-0.2,0-0.5,0-0.7,0c0.4-1.5,0.8-3,1.1-4.4c0.6,1,1.1,2.1,1.6,3.2c0.6-1,1.1-2.1,1.7-3.1
			c0.3,1.5,0.8,3,1.1,4.5C105.8,45,105.5,44.9,105.3,44.9z"/>
		<path class="st2" d="M98.8,41.3c0,1.2,0,2.4,0,3.7c-0.3,0-0.5,0-0.8,0c0-1.2,0-2.4,0-3.7c-0.4,0-0.8,0-1.3,0c0-0.2,0-0.4,0-0.6
			c1.1,0,2.2,0,3.3,0c0,0.2,0,0.4,0,0.6C99.6,41.3,99.2,41.3,98.8,41.3z"/>
	</g>
</g>
</svg>
