<svg id="Calque_1" data-name="Calque 1" xmlns="http://www.w3.org/2000/svg" viewBox="0 0 40 40"><defs><style>.cls-1{fill:#09aa9d;}.cls-2{fill:#fff;}</style></defs><title>pdf-icon-green</title><path class="cls-1" d="M4,0H40a0,0,0,0,1,0,0V40a0,0,0,0,1,0,0H4a4,4,0,0,1-4-4V4A4,4,0,0,1,4,0Z"/><path class="cls-2" d="M32,23.84a1.19,1.19,0,0,0-.33-0.78,4.85,4.85,0,0,0-3-.69,26,26,0,0,0-3.94.3,10.5,10.5,0,0,1-1.94-1.37,13.81,13.81,0,0,1-3.36-5.37c0.05-.2.1-0.4,0.14-0.6,0.21-.95.35-4.08,0.35-4.08S19.29,13.6,19.2,14s-0.13.47-.22,0.72a17.21,17.21,0,0,1-.68-4.38,9.62,9.62,0,0,1,.12-1.51,0.87,0.87,0,0,1,.31-0.65,2.05,2.05,0,0,1,.88,1.19,4.32,4.32,0,0,1,.25,1.75,6.3,6.3,0,0,0,.22-1.72A1.46,1.46,0,0,0,18.87,8H18.54a1.18,1.18,0,0,0-1.2.73c-0.47,1.75.06,4.47,0.92,7.85L18,17.23c-0.66,1.66-1.49,3.31-2.23,4.77-3,6-5.36,9.29-6.93,9.46,0-.75,1.33-2.7,3.17-4.24,0.19-.16,1-1,1-1s-1.11.6-1.35,0.75C9.36,28.42,8.21,29.83,8,30.76a0.71,0.71,0,0,0,.22.76l0.59,0.3c1.61,0.82,3.58-1.34,6.21-6a56.36,56.36,0,0,1,9-2.2c2.72,1.59,5.83,2.34,7,2a1.2,1.2,0,0,0,.59-0.41,4.44,4.44,0,0,0,.23-0.78,1.62,1.62,0,0,1-.41.41c-0.76.37-3.15-.24-5.61-1.47a13.66,13.66,0,0,1,4.84.07c1.2,0.39,1.2.79,1.18,0.88A2.39,2.39,0,0,0,32,23.84ZM15.28,25.2c0.45-.83.95-1.73,1.45-2.7a37.92,37.92,0,0,0,2.06-4.71,13.65,13.65,0,0,0,3.28,4.37c0.32,0.27.65,0.53,1,.78A37.85,37.85,0,0,0,15.28,25.2Z" transform="translate(0)"/></svg>