<?xml version="1.0" encoding="utf-8"?>
<!-- Generator: Adobe Illustrator 19.2.1, SVG Export Plug-In . SVG Version: 6.00 Build 0)  -->
<svg version="1.1" id="Calque_1" xmlns="http://www.w3.org/2000/svg" xmlns:xlink="http://www.w3.org/1999/xlink" x="0px" y="0px"
	 viewBox="0 0 65 65" style="enable-background:new 0 0 65 65;" xml:space="preserve">
<style type="text/css">
	.st0{fill:none;}
	.st1{fill:#FFFFFF;}
	.st2{fill:#06A99C;}
</style>
<rect y="0" class="st0" width="65" height="65"/>
<path class="st1" d="M51.5,24.1c-0.1-0.1-3.3-3.7-9-7.3c-5.3-3.3-13.9-7.3-24.7-7.3H17v50l35-34.9L51.5,24.1z M18.6,19.1
	c3.1,0,15.1,0.6,25.8,10.9L18.6,55.6V19.1z M45.5,28.9C34.3,18.1,22,17.5,18.6,17.5v-6.4C35.8,11.4,47.3,22,49.8,24.6L45.5,28.9z"/>
<path class="st2" d="M23.9,32c-0.5,0-1-0.1-1.5-0.3c-0.9-0.4-1.6-1.1-1.9-2c-0.4-0.9-0.3-1.9,0.1-2.8c0.6-1.3,1.9-2.2,3.3-2.2
	c0.5,0,1,0.1,1.5,0.3c1.8,0.8,2.7,3,1.9,4.8C26.7,31.2,25.4,32,23.9,32z M24,26.3c-0.8,0-1.6,0.5-1.9,1.3c-0.2,0.5-0.2,1.1,0,1.6
	c0.2,0.5,0.6,0.9,1.1,1.2c0.3,0.1,0.5,0.2,0.8,0.2c0.8,0,1.6-0.5,1.9-1.3c0.5-1.1,0-2.3-1.1-2.8C24.5,26.4,24.2,26.3,24,26.3z"/>
<path class="st2" d="M29.2,41.4c-0.5,0-1-0.1-1.5-0.3c-1.8-0.8-2.7-3-1.9-4.8c0.6-1.3,1.9-2.2,3.3-2.2c0.5,0,1,0.1,1.5,0.3
	c1.8,0.8,2.7,3,1.9,4.8C32,40.5,30.6,41.4,29.2,41.4z M29.2,35.6c-0.8,0-1.6,0.5-1.9,1.3c-0.5,1.1,0,2.3,1.1,2.8
	c0.3,0.1,0.5,0.2,0.8,0.2c0.8,0,1.6-0.5,1.9-1.3c0.5-1.1,0-2.3-1.1-2.8C29.8,35.7,29.5,35.6,29.2,35.6z"/>
<rect x="32.8" y="29" transform="matrix(0.9312 -0.3645 0.3645 0.9312 -8.4243 14.9671)" class="st2" width="5.2" height="1.6"/>
<rect x="20.7" y="36" transform="matrix(0.9312 -0.3644 0.3644 0.9312 -12.6004 10.4899)" class="st2" width="1.6" height="5.2"/>
<circle class="st2" cx="36" cy="35" r="1.2"/>
<circle class="st2" cx="23.9" cy="44.6" r="1.2"/>
<circle class="st2" cx="31.8" cy="25.7" r="1.2"/>
</svg>
