<?xml version="1.0" encoding="utf-8"?>
<!-- Generator: Adobe Illustrator 19.2.1, SVG Export Plug-In . SVG Version: 6.00 Build 0)  -->
<svg version="1.1" id="Calque_1" xmlns="http://www.w3.org/2000/svg" xmlns:xlink="http://www.w3.org/1999/xlink" x="0px" y="0px"
	 viewBox="0 0 65 65" style="enable-background:new 0 0 65 65;" xml:space="preserve">
<style type="text/css">
	.st0{fill:none;}
	.st1{fill:#FFFFFF;}
	.st2{fill:#06A99C;}
	.st3{fill:#6A205F;}
</style>
<rect y="0" class="st0" width="65" height="65"/>
<path class="st1" d="M52.8,13.3c-2.6,0-4.7,2.1-4.7,4.7c0,1.4,0.6,2.6,1.6,3.5L38.2,42.4c-0.2,0-0.4-0.1-0.6-0.1
	c-0.8,0-1.5,0.2-2.2,0.6L26.5,34c0.4-0.7,0.6-1.5,0.6-2.3c0-2.6-2.1-4.7-4.7-4.7c-2.6,0-4.7,2.1-4.7,4.7c0,0.8,0.2,1.6,0.6,2.3
	l-3.8,3.8c-0.7-0.5-1.6-0.7-2.5-0.7c-2.6,0-4.7,2.1-4.7,4.7c0,2.6,2.1,4.7,4.7,4.7c2.6,0,4.7-2.1,4.7-4.7c0-0.8-0.2-1.5-0.5-2.1
	l3.9-3.9c0.7,0.4,1.4,0.6,2.3,0.6c0.8,0,1.6-0.2,2.3-0.6l8.9,8.9c-0.4,0.7-0.7,1.5-0.7,2.4c0,2.6,2.1,4.7,4.7,4.7
	c2.6,0,4.7-2.1,4.7-4.7c0-1.5-0.7-2.7-1.7-3.6L52,22.6c0.3,0,0.5,0.1,0.8,0.1c2.6,0,4.7-2.1,4.7-4.7C57.5,15.4,55.4,13.3,52.8,13.3z
	 M12.2,43.8c-1.2,0-2.2-1-2.2-2.2c0-1.2,1-2.2,2.2-2.2s2.2,1,2.2,2.2C14.3,42.9,13.4,43.8,12.2,43.8z M20.3,31.7
	c0-1.2,1-2.2,2.2-2.2c1.2,0,2.2,1,2.2,2.2c0,1.2-1,2.2-2.2,2.2C21.2,33.8,20.3,32.9,20.3,31.7z M37.6,49.1c-1.2,0-2.2-1-2.2-2.2
	c0-1.2,1-2.2,2.2-2.2c1.2,0,2.2,1,2.2,2.2C39.7,48.2,38.8,49.1,37.6,49.1z M52.8,20.2c-1.2,0-2.2-1-2.2-2.2c0-1.2,1-2.2,2.2-2.2
	c1.2,0,2.2,1,2.2,2.2C55,19.2,54,20.2,52.8,20.2z"/>
<circle class="st2" cx="12.2" cy="41.7" r="4.9"/>
<circle class="st3" cx="12.2" cy="41.7" r="2.2"/>
<circle class="st2" cx="22.4" cy="31.7" r="4.9"/>
<circle class="st3" cx="22.4" cy="31.7" r="2.2"/>
<circle class="st2" cx="37.6" cy="47" r="4.9"/>
<circle class="st3" cx="37.6" cy="47" r="2.2"/>
<circle class="st2" cx="52.8" cy="18" r="4.9"/>
<circle class="st3" cx="52.8" cy="18" r="2.2"/>
</svg>
