<?xml version="1.0" encoding="utf-8"?>
<!-- Generator: Adobe Illustrator 19.2.1, SVG Export Plug-In . SVG Version: 6.00 Build 0)  -->
<svg version="1.1" id="Calque_1" xmlns="http://www.w3.org/2000/svg" xmlns:xlink="http://www.w3.org/1999/xlink" x="0px" y="0px"
	 viewBox="0 0 160 70" style="enable-background:new 0 0 160 70;" xml:space="preserve">
<style type="text/css">
	.st0{fill:none;}
	.st1{fill:#06A99C;}
</style>
<rect class="st0" width="160" height="70"/>
<path class="st1" d="M102.5,45.2c1.2-2.6,0-5.7-2.6-6.8c-0.2-0.1-0.5-0.2-0.8-0.2l2.4-11.5c2.4,0.5,4.8-0.7,5.8-3
	c1.2-2.6,0-5.7-2.6-6.8c-2.6-1.2-5.7,0-6.8,2.6c-0.1,0.3-0.2,0.5-0.3,0.8l-21.1-5.5c0.3-2.2-0.9-4.5-3-5.4c-2.6-1.2-5.7,0-6.8,2.6
	c-1,2.3-0.2,5,1.8,6.4l-9.7,16.8l-0.1,0c-2.6-1.2-5.7,0-6.8,2.6c-1.2,2.6,0,5.7,2.6,6.8c1.8,0.8,3.9,0.5,5.4-0.8l13.8,11
	c-0.1,0.2-0.3,0.4-0.4,0.6c-1.2,2.6,0,5.7,2.6,6.8s5.7,0,6.8-2.6c0.7-1.7,0.5-3.4-0.4-4.9l11.5-8.3c0.5,0.6,1.1,1.1,1.8,1.4
	C98.3,49,101.3,47.8,102.5,45.2z M101.7,44.8c-1,2.2-3.6,3.2-5.8,2.2c-2.2-1-3.2-3.6-2.2-5.8c1-2.2,3.6-3.2,5.8-2.2
	C101.7,40,102.7,42.7,101.7,44.8z M79.7,52.6c-0.6-0.2-1.3-0.3-1.9-0.3l-1.6-10.7l10.3,1L79.7,52.6z M76.1,40.8L75,33.1l9.7-3.8
	l6.3,6.9l-3.8,5.6L76.1,40.8z M61.6,38.4l12.7-5l1.1,7.3l-13.6-1.3C61.6,39.1,61.6,38.7,61.6,38.4z M74.6,18.1l9.5,10.5l-9.3,3.7
	L72.7,19C73.4,18.9,74.1,18.5,74.6,18.1z M98,24c0.1,0.3,0.3,0.6,0.5,0.8l-7.3,10.7l-5.9-6.6L98,24z M91.4,36.9l2.5,2.8
	c-0.3,0.4-0.6,0.9-0.9,1.4c-0.2,0.4-0.3,0.9-0.4,1.4L88,42L91.4,36.9z M98.2,38c-1.3-0.1-2.7,0.3-3.8,1.1l-2.6-2.9L99,25.5
	c0.4,0.4,0.9,0.6,1.4,0.9c0.1,0,0.1,0.1,0.2,0.1L98.2,38z M104.3,17.6c2.2,1,3.2,3.6,2.2,5.8s-3.6,3.2-5.8,2.2s-3.2-3.6-2.2-5.8
	S102.2,16.7,104.3,17.6z M97.4,21.1c-0.1,0.8,0,1.5,0.3,2.1l-12.9,5.1l-9.7-10.8c0.4-0.4,0.7-0.9,1-1.4c0.1-0.2,0.2-0.4,0.2-0.6
	L97.4,21.1z M67.4,12.3c1-2.2,3.6-3.2,5.8-2.2c2.2,1,3.2,3.6,2.2,5.8c-1,2.2-3.6,3.2-5.8,2.2c-0.1-0.1-0.3-0.1-0.4-0.2l0,0l0,0
	C67.3,16.7,66.5,14.3,67.4,12.3z M69.1,18.7c0.1,0,0.1,0.1,0.1,0.1c0.9,0.4,1.8,0.5,2.7,0.4L74,32.6l-12.8,5.1
	c-0.4-0.9-1-1.7-1.9-2.2L69.1,18.7z M54.8,43.7c-2.2-1-3.2-3.6-2.2-5.8c1-2.2,3.6-3.2,5.8-2.2c2.2,1,3.2,3.6,2.2,5.8
	C59.6,43.7,57,44.7,54.8,43.7z M60.4,43.1c0.3-0.4,0.6-0.9,0.9-1.4s0.4-1.1,0.4-1.6l13.8,1.4l1.7,10.8c-1.1,0.2-2.3,0.8-3,1.7
	L60.4,43.1z M82,59.3c-1,2.2-3.6,3.2-5.8,2.2c-2.2-1-3.2-3.6-2.2-5.8c1-2.2,3.6-3.2,5.8-2.2C81.9,54.5,83,57,82,59.3z M81.8,54.1
	c-0.4-0.4-0.9-0.8-1.3-1.1l7-10.2l5.1,0.5c0,1,0.3,1.9,0.8,2.6L81.8,54.1z"/>
</svg>
