<svg id="Calque_1" data-name="Calque 1" xmlns="http://www.w3.org/2000/svg" viewBox="0 0 166 185"><defs><style>.cls-1{fill:#f2f2f2;}</style></defs><title>settings-background-grey</title><path class="cls-1" d="M55.08,94.4a27.56,27.56,0,0,0,0-6L49,86A22.07,22.07,0,0,0,46.6,80l2.55-6a27.81,27.81,0,0,0-4.23-4.24l-6,2.56A21.92,21.92,0,0,0,33,69.91l-2.43-6.05a27.26,27.26,0,0,0-6,0l-2.43,6.05a21.92,21.92,0,0,0-5.9,2.45l-6-2.56A27.81,27.81,0,0,0,6.09,74l2.55,6A22.07,22.07,0,0,0,6.2,86l-6,2.44a27.57,27.57,0,0,0,0,6l6,2.43a22.07,22.07,0,0,0,2.45,5.92l-2.55,6A27.81,27.81,0,0,0,10.32,113l6-2.56a21.92,21.92,0,0,0,5.9,2.45l2.43,6.05a27.26,27.26,0,0,0,6,0L33,112.89a21.92,21.92,0,0,0,5.9-2.45l6,2.56a27.81,27.81,0,0,0,4.23-4.24l-2.55-6A22.07,22.07,0,0,0,49,96.83ZM27.62,105.66A14.26,14.26,0,1,1,41.84,91.4,14.23,14.23,0,0,1,27.62,105.66Z" transform="translate(0 0)"/><path class="cls-1" d="M41.31,47.68L34,55a43.56,43.56,0,0,0,3.72,8.74L48,63.51a34.83,34.83,0,0,0,7.23,7.09V80.93a43.86,43.86,0,0,0,8.79,3.54L71.2,77a34.68,34.68,0,0,0,10.11-.1l7.28,7.3a43.28,43.28,0,0,0,8.71-3.73L97.09,70.16a34.84,34.84,0,0,0,7.07-7.25h10.29A44.19,44.19,0,0,0,118,54.09l-7.43-7.15a35,35,0,0,0-.1-10.14l7.28-7.31A43.56,43.56,0,0,0,114,20.75L103.72,21a34.85,34.85,0,0,0-7.23-7.09V3.54A43.91,43.91,0,0,0,87.69,0L80.57,7.45a34.69,34.69,0,0,0-10.11.1l-7.28-7.3A43.32,43.32,0,0,0,54.46,4l0.21,10.33a34.85,34.85,0,0,0-7.07,7.25H37.31a44.19,44.19,0,0,0-3.53,8.82l7.43,7.15A35,35,0,0,0,41.31,47.68ZM65.95,18.89A25.38,25.38,0,1,1,52.6,52.2,25.28,25.28,0,0,1,65.95,18.89Z" transform="translate(0 0)"/><path class="cls-1" d="M128.32,117.13a21.19,21.19,0,1,1-29.53,0l2,5.68,12.78-15-19.33-3.61,2.2,6.25a27.76,27.76,0,1,0,36.46,1.92Z" transform="translate(0 0)"/><rect class="cls-1" x="71.76" y="54.05" width="7.07" height="6.03"/><path class="cls-1" d="M71.64,34.16A3.93,3.93,0,0,1,72.9,31a4.48,4.48,0,0,1,3-1.06,4.32,4.32,0,0,1,3.33,1.25,4.9,4.9,0,0,1,1.17,3.47,6.63,6.63,0,0,1-1,3.62,12.71,12.71,0,0,1-2.73,3,16.56,16.56,0,0,0-3.88,3.81,9.79,9.79,0,0,0-1,4.94h7A8.73,8.73,0,0,1,79.24,47a5.74,5.74,0,0,1,1.92-2.28,16,16,0,0,0,4.48-4.36,9.8,9.8,0,0,0,1.79-5.67,9.47,9.47,0,0,0-3.07-7.44q-3.06-2.74-8.45-2.74a12.7,12.7,0,0,0-8.11,2.46,8.32,8.32,0,0,0-3,7.09l0,0.14h6.83Z" transform="translate(0 0)"/><path class="cls-1" d="M166,141V123.83l-7.21-2.91a46.6,46.6,0,0,0-5.16-12.49L159,95.76a58.72,58.72,0,0,0-8.93-9l-12.63,5.4A46.31,46.31,0,0,0,125,87l-5.12-12.77a57.65,57.65,0,0,0-12.63,0L102.12,87A46.31,46.31,0,0,0,89.67,92.2L77,86.8a58.72,58.72,0,0,0-8.93,9l5.38,12.67a46.6,46.6,0,0,0-5.16,12.49l-12.73,5.14a58.17,58.17,0,0,0,0,12.67l12.73,5.14a46.59,46.59,0,0,0,5.16,12.49L68.11,169A58.7,58.7,0,0,0,77,178l12.63-5.4a46.28,46.28,0,0,0,12.45,5.18L105,185H122.1l2.9-7.23a46.28,46.28,0,0,0,12.45-5.18l12.63,5.4a58.7,58.7,0,0,0,8.93-9l-5.38-12.67a46.59,46.59,0,0,0,5.16-12.49Zm-52.44,28.38a36.95,36.95,0,1,1,36.83-36.95A36.89,36.89,0,0,1,113.56,169.34Z" transform="translate(0 0)"/></svg>