<?xml version="1.0" encoding="utf-8"?>
<!-- Generator: Adobe Illustrator 19.2.1, SVG Export Plug-In . SVG Version: 6.00 Build 0)  -->
<svg version="1.1" id="Calque_1" xmlns="http://www.w3.org/2000/svg" xmlns:xlink="http://www.w3.org/1999/xlink" x="0px" y="0px"
	 viewBox="0 0 160 70" style="enable-background:new 0 0 160 70;" xml:space="preserve">
<style type="text/css">
	.st0{fill:none;}
	.st1{fill:#E6E6E6;}
	.st2{fill:#6A205F;}
</style>
<rect class="st0" width="160" height="70"/>
<g>
	
		<rect x="56.6" y="34.9" transform="matrix(0.2843 -0.9587 0.9587 0.2843 16.6134 92.2555)" class="st1" width="26.9" height="0.3"/>
	<g>
		<path d="M23.7,36.8c2.9,0,5.4,0,8,0c0-1.3,0-2.9,0-4.2c-2.6,0-5.1,0-8,0c0-1,0-1.6,0-2.2c3.5,0,6.7,0,9.9,0c0-1.6,0-2.9,0-4.5
			c-5.1,0-10.2,0-15.4,0c0,6.1,0,12.2,0,18.2c5.1,0,10.2,0,15.4,0c0-1.6,0-2.9,0-4.5c-3.2,0-6.4,0-9.9,0
			C23.7,38.7,23.7,37.8,23.7,36.8z"/>
		<path d="M46,39.3c-1.7,1.6-5.3,1.1-6-2c-0.3-1.4-0.3-2.8-0.1-4.2c0.2-0.9,0.6-1.8,1.3-2.5c1.3-1.2,4.3-1.4,5.6,0.9
			c0.1,0.2,0.2,0.4,0.4,0.6c1.4-0.8,2.8-1.6,4.2-2.4c-0.8-1.6-2-2.8-3.6-3.5c-2.3-1-4.7-1.1-7.2-0.5c-2.7,0.7-4.7,2.3-5.7,4.9
			c-1.1,2.7-1.1,5.4-0.3,8.1c0.8,2.5,2.4,4.3,4.9,5.2c2.1,0.7,4.3,0.8,6.4,0.4c1.8-0.4,3.3-1.2,4.5-2.6c0.4-0.4,0.7-0.9,1-1.4
			c-0.4-0.3-4-2.3-4.2-2.4C46.9,38.4,46.5,38.8,46,39.3z"/>
		<path d="M0,30.4c2,0,4.2,0,6.1,0c0,4.5,0,9,0,13.8c1.9,0,3.5,0,5.4,0c0-4.8,0-9.3,0-13.8c2.2,0,4.2,0,6.1,0c0-1.6,0-2.9,0-4.5
			c-5.8,0-11.7,0-17.6,0C0,27.5,0,28.8,0,30.4z"/>
		<path d="M65.3,25.6c0,0,0,0.1,0,0.1c0,2.1,0,4.1,0,6.3c-2.6,0-4.8,0-7.4,0c0-2.2,0-4.2,0-6.4c-1.6,0-3.5,0-5.4,0
			c0,6.1,0,12.2,0,18.2c1.9,0,3.8,0,5.4,0c0-2.6,0-4.8,0-7c2.6,0,5.1,0,7.4,0c0,2.2,0,4.8,0,7c0.6,0,1.4,0,2,0l3.4-11.3v-6.9H65.3z"
			/>
	</g>
	<g>
		<path class="st2" d="M128.3,42.3C128.3,42.3,128.3,42.3,128.3,42.3c-0.1-0.1-0.2-0.2-0.2-0.3c-1.3-2.3-2.6-4.6-4-6.9
			c-1.7-3-3.5-6-5.2-9c-0.1-0.1-0.1-0.2-0.2-0.2c-0.5,0-1,0-1.6,0c0,6.1,0,12.1,0,18.2c0.3,0,0.6,0,1,0c0-5.5,0-11,0-16.4
			c0.6,0.8,1,1.6,1.5,2.3c2.7,4.6,5.4,9.2,8.1,13.9c0.1,0.1,0.1,0.2,0.3,0.2c0.6,0,1.1,0,1.7,0c0-6.1,0-12,0-18.1
			c-0.3,0-0.6,0-1.3,0C128.3,31.4,128.3,36.8,128.3,42.3z"/>
		<polygon class="st2" points="105,35.2 112.6,35.2 112.6,34.3 105,34.3 105,26.9 113.3,26.9 113.3,25.9 103.7,25.9 103.7,43.9 
			113.6,43.9 113.6,42.9 105,42.9 		"/>
		<path class="st2" d="M159.8,38.3c-0.3-1-0.7-1.9-1.5-2.6c-0.8-0.7-1.8-1.1-2.8-1.5c-1-0.4-2-0.6-2.9-1.1c-0.7-0.4-1.4-0.8-1.8-1.5
			c-1-1.8,0-4,1.9-4.6c1.5-0.5,3-0.4,4.5,0c0.5,0.2,1,0.4,1.6,0.6l0.5-1.2c-0.7-0.2-1.3-0.4-1.9-0.5c-1.8-0.4-3.5-0.4-5.3,0.2
			c-1.5,0.5-2.6,1.4-2.9,3.1c-0.4,2.2,0.3,3.8,2.1,4.8c0.7,0.4,1.4,0.7,2.1,0.9c1.1,0.4,2.2,0.7,3.2,1.3c0.7,0.4,1.3,0.9,1.6,1.7
			c0.9,2.1-0.1,4.5-2.3,5.1c-1.6,0.5-3.3,0.4-4.9-0.1c-0.5-0.1-1.4-0.5-1.4-0.5l-0.5,1.1c2.1,0.6,4,1,6,0.7c0.8-0.1,1.6-0.3,2.4-0.7
			c1.6-0.8,2.2-2.2,2.5-3.8C160,39.3,160,38.8,159.8,38.3z"/>
		<path class="st2" d="M74.2,26.9h5.4v17H81c0,0,0-11.5,0-17h5.4v-1.3H74.2V26.9z"/>
		<path class="st2" d="M96.1,35.5c1.8-0.4,3.1-1.3,3.6-3.1c0.2-0.9,0.3-1.8,0.1-2.7c-0.2-1.4-1-2.5-2.3-3.1
			c-0.8-0.4-1.7-0.6-2.7-0.6c-1.8,0-5.6,0-5.6,0v18.3h1.3v-8.6H93l6.2,8.6h1.6l-6.3-8.4C94.9,35.7,95.6,35.6,96.1,35.5z M93.3,34.6
			l-2.8,0v-7.7h1.4c1.5,0,1.6,0,3.1,0c0.5,0,0.9,0.1,1.4,0.3c1.1,0.4,1.8,1.2,2,2.4c0.2,0.9,0.1,1.8-0.1,2.7
			c-0.4,1.4-1.5,2.1-2.8,2.2C94.8,34.6,93.3,34.6,93.3,34.6z"/>
		<path class="st2" d="M141.5,26.4c-1-0.3-2.2-0.4-3.7-0.4h-3.8v17.9h3.8c1.4,0,2.6-0.1,3.7-0.4c1.1-0.3,2.2-0.7,3.2-2
			c1.1-1.4,1.6-3.4,1.6-6.5c0-3.2-0.5-5.1-1.6-6.5C143.7,27.1,142.6,26.7,141.5,26.4z M143.8,40.8c-0.8,1-1.6,1.4-2.6,1.7
			c-0.9,0.3-2,0.4-3.3,0.4h-2.5V27.2h2.5c1.3,0,2.4,0.1,3.3,0.3c1,0.3,1.9,0.7,2.6,1.6c1,1.2,1.4,2.9,1.4,5.8
			C145.2,37.9,144.8,39.6,143.8,40.8z"/>
	</g>
</g>
</svg>
