<?xml version="1.0" encoding="utf-8"?>
<!-- Generator: Adobe Illustrator 19.2.1, SVG Export Plug-In . SVG Version: 6.00 Build 0)  -->
<svg version="1.1" id="Calque_1" xmlns="http://www.w3.org/2000/svg" xmlns:xlink="http://www.w3.org/1999/xlink" x="0px" y="0px"
	 viewBox="0 0 160 70" style="enable-background:new 0 0 160 70;" xml:space="preserve">
<style type="text/css">
	.st0{fill:none;}
	.st1{fill:#6A205F;}
	.st2{font-family:'ArialMT';}
	.st3{font-size:15.9429px;}
	.st4{opacity:0.3;fill:#6A205F;}
</style>
<rect class="st0" width="160" height="70"/>
<g>
	<g>
		<path class="st1" d="M60.5,37.2H46.1c0.1,1.1,0.9,4.2,5,4.2c1.1,0,3-0.5,4.1-2.2h4.8c-0.3,0.9-2.4,6.4-8.5,6.4
			c-2.9,0-5.2-0.9-7-2.7c-1.7-1.8-2.8-4.2-2.8-7.1c0-2.9,1.1-5.3,2.8-7.1c1.7-1.8,4-2.7,6.8-2.7c2.8,0,5.1,0.9,6.8,2.6
			c1.6,1.7,2.5,4.1,2.5,7.2L60.5,37.2z M55.9,33.8c-0.6-2.8-2.5-3.7-4.9-3.7c-1.6,0-4.6,1.3-4.6,3.7H55.9z"/>
		<path class="st1" d="M67.1,20.5v7.2c2.3-1.3,4.1-1.8,6.3-1.8c2.6,0,4.8,0.9,6.5,2.8c1.7,1.9,2.6,4.2,2.6,6.9
			c0,2.9-0.9,5.2-2.6,7.1c-1.7,1.9-3.9,2.8-6.6,2.8c-2.2,0-4-0.2-6.3-1.5v1h-4.4V20.5H67.1z M77.4,36c0-1.6-0.5-3-1.4-4
			c-1-1-2.2-1.6-3.6-1.6c-1.6,0-2.8,0.5-3.8,1.5c-1,1-1.5,2.3-1.5,3.9c0,1.7,0.5,3,1.4,4c1,1,2.2,1.5,3.8,1.5c1.5,0,2.7-0.5,3.7-1.5
			C76.9,38.8,77.4,37.5,77.4,36z"/>
		<path class="st1" d="M88.9,26.5V45h-4.5V26.5H88.9z"/>
		<path class="st1" d="M88.9,20.5v4.4h-4.5v-4.4H88.9z"/>
		<path class="st1" d="M106.2,26.5h4.1V45h-4.1v-1.9c-1.9,1.9-4,2.5-6.1,2.5c-2.6,0-4.8-0.9-6.5-2.8c-1.7-1.9-2.5-4.3-2.5-7.1
			c0-2.8,0.8-5.1,2.5-6.9c1.7-1.9,3.8-2.8,6.3-2.8c2.2,0,4.4,0.5,6.2,2.7V26.5z M95.6,35.7c0,1.6,0.5,2.9,1.4,3.9
			c0.9,1,2.1,1.5,3.6,1.5c1.5,0,2.8-0.5,3.7-1.5c0.9-1,1.4-2.3,1.4-3.9c0-1.6-0.5-2.9-1.4-3.9c-0.9-1-2.2-1.5-3.7-1.5
			c-1.4,0-2.6,0.5-3.6,1.5C96.1,33,95.6,34.2,95.6,35.7z"/>
		<polygon class="st1" points="50.7,16 39.6,16 27.8,28.2 16.1,16 5,16 22.3,35 5,54 16.1,54 27.8,41.8 39.6,54 50.7,54 33.4,35 		
			"/>
	</g>
	<g>
		<text transform="matrix(0.9053 0.4248 -0.4248 0.9053 124.3477 35.0135)" class="st1 st2 st3">TV</text>
		<g>
			<g>
				<path class="st1" d="M151.5,31.2l-22.7-11.1c-0.9-0.4-2,0-2.5,0.9l-6.7,13.7c-0.4,0.9-0.1,2.1,0.8,2.5l22.7,11.1
					c0.9,0.4,2.3,0.1,2.8-0.8l6.7-13.7C153.1,33,152.5,31.7,151.5,31.2z M143.9,45.1c-0.4,0.8-1.2,1-1.9,0.7l-18.7-9.1
					c-0.7-0.4-0.9-1.1-0.6-1.9l5.7-11.7c0.4-0.8,1.1-1.1,1.8-0.8l18.7,9.1c0.7,0.4,1,1.2,0.6,2L143.9,45.1z"/>
				<g>
					
						<ellipse transform="matrix(0.4388 -0.8986 0.8986 0.4388 63.0769 146.754)" class="st1" cx="149" cy="22.9" rx="0.9" ry="0.9"/>
					<polyline class="st1" points="148.9,23 147.5,29.5 154.2,27.1 					"/>
					
						<ellipse transform="matrix(0.4388 -0.8986 0.8986 0.4388 61.9665 153.8028)" class="st1" cx="154.1" cy="27.3" rx="0.9" ry="0.9"/>
				</g>
				<path class="st1" d="M125,39.1l-0.8-0.9l-0.1-0.1l-0.8-0.9l-2.7,3.1c-0.3,0.3-0.4,0.7-0.1,1c0.2,0.3,0.6,0.3,1,0.1l0,0L125,39.1
					z"/>
				<path class="st1" d="M139.3,46.1l1.2,0l0.1,0l1.2,0l-0.8,4.1c0,0.4-0.3,0.7-0.7,0.7c-0.3,0-0.6-0.3-0.6-0.7l0,0L139.3,46.1z"/>
				<polyline class="st1" points="150,22.5 151.2,21.6 150.7,24.1 152.9,23.6 150.9,25.4 153,24.2 153,27 				"/>
			</g>
			<ellipse class="st4" cx="134.3" cy="49.6" rx="14.8" ry="3.3"/>
		</g>
	</g>
</g>
</svg>
