<svg id="Calque_1" data-name="Calque 1" xmlns="http://www.w3.org/2000/svg" viewBox="0 0 136.36 60"><defs><style>.cls-1{fill:#fff;}</style></defs><title>xke-logo-white</title><polygon id="_Tracé_" data-name="&lt;Tracé&gt;" class="cls-1" points="57.22 1 43.34 1 28.61 15.93 13.88 1 0 1 21.67 23.5 0 46 13.88 46 28.61 31.07 43.34 46 57.22 46 35.55 23.5 57.22 1"/><path class="cls-1" d="M72.85,26.29v1.07l1-1-0.55-.51Z"/><polygon class="cls-1" points="72.85 15.59 62.24 26.19 62.24 27.26 72.85 16.65 72.85 15.59"/><polygon class="cls-1" points="90.58 0 76.85 13.72 72.85 18.56 72.85 17.73 62.24 28.33 62.24 29.4 91.64 0 90.58 0"/><path class="cls-1" d="M81.35,33.83l6.42-6.42-0.51-.55-6.42,6.42Z"/><polygon class="cls-1" points="97 0 62.24 34.75 62.24 35.82 98.06 0 97 0"/><polygon class="cls-1" points="92.72 0 62.24 30.47 62.24 31.54 93.78 0 92.72 0"/><polygon class="cls-1" points="94.86 0 62.24 32.61 62.24 33.68 95.92 0 94.86 0"/><path class="cls-1" d="M82.36,35l6.43-6.43L88.29,28l-6.43,6.43Z"/><path class="cls-1" d="M77.11,29.51l6.39-6.39-0.56-.51L76.57,29Z"/><path class="cls-1" d="M76,28.46l6.35-6.35-0.57-.5-6.33,6.33Z"/><path class="cls-1" d="M80.31,32.73l6.42-6.42-0.52-.54-6.42,6.42Z"/><path class="cls-1" d="M79.26,31.64l6.42-6.42-0.54-.53-6.41,6.41Z"/><path class="cls-1" d="M78.19,30.57l6.41-6.41-0.54-.52L77.66,30Z"/><polygon class="cls-1" points="81.99 7.51 89.5 0 88.44 0 87.1 1.34 81.99 7.51"/><polygon class="cls-1" points="72.85 0.61 62.24 11.21 62.24 12.28 72.85 1.67 72.85 0.61"/><polygon class="cls-1" points="71.32 0 62.24 9.07 62.24 10.14 72.38 0 71.32 0"/><polygon class="cls-1" points="69.18 0 62.24 6.93 62.24 8 70.24 0 69.18 0"/><polygon class="cls-1" points="72.85 2.75 62.24 13.35 62.24 14.42 72.85 3.81 72.85 2.75"/><polygon class="cls-1" points="67.04 0 62.24 4.79 62.24 5.86 68.1 0 67.04 0"/><polygon class="cls-1" points="72.85 4.89 62.24 15.49 62.24 16.56 72.85 5.95 72.85 4.89"/><polygon class="cls-1" points="72.85 11.31 62.24 21.91 62.24 22.98 72.85 12.37 72.85 11.31"/><polygon class="cls-1" points="72.85 13.45 62.24 24.05 62.24 25.12 72.85 14.51 72.85 13.45"/><polygon class="cls-1" points="72.85 9.16 62.24 19.77 62.24 20.84 72.85 10.23 72.85 9.16"/><path class="cls-1" d="M74.93,27.41l8.5-8.5,5.06-6.12L74.38,26.9Z"/><polygon class="cls-1" points="72.85 7.03 62.24 17.63 62.24 18.7 72.85 8.09 72.85 7.03"/><polygon class="cls-1" points="72.85 30.57 62.24 41.17 62.24 42.24 72.85 31.63 72.85 30.57"/><path class="cls-1" d="M94.92,36.32L88.1,43.13l0.39,0.67,6.87-6.87Z"/><path class="cls-1" d="M94,35.07L87.3,41.8l0.4,0.66,6.77-6.77Z"/><path class="cls-1" d="M95.8,37.57l-6.92,6.92L89.16,45h0.28l6.8-6.8Z"/><path class="cls-1" d="M92.19,32.62L85.61,39.2,86,39.84l6.61-6.61Z"/><path class="cls-1" d="M93.12,33.84l-6.65,6.65,0.42,0.65,6.69-6.69Z"/><path class="cls-1" d="M96.67,38.84L90.52,45h1.07l5.52-5.52Z"/><path class="cls-1" d="M91.25,31.42l-6.52,6.52,0.44,0.62L91.72,32Z"/><path class="cls-1" d="M100.05,44l-1,1h1.58Z"/><path class="cls-1" d="M73.82,26.38L93.57,6.63l5.06-6.12L73.27,25.87Z"/><path class="cls-1" d="M98.38,41.41L94.8,45h1.07l2.94-2.94Z"/><path class="cls-1" d="M97.53,40.12L92.66,45h1.07L98,40.76Z"/><path class="cls-1" d="M99.22,42.71L96.94,45H98l1.64-1.64Z"/><polygon class="cls-1" points="72.85 32.7 62.24 43.31 62.24 44.38 72.85 33.77 72.85 32.7"/><polygon class="cls-1" points="64.9 0 62.24 2.65 62.24 3.72 65.96 0 64.9 0"/><path class="cls-1" d="M90.65,30.69l-0.37-.44-6.47,6.47,0.46,0.6,6.49-6.5Z"/><polygon class="cls-1" points="72.85 26.29 62.24 36.89 62.24 37.96 72.85 27.35 72.85 26.29"/><polygon class="cls-1" points="72.85 34.84 62.7 45 63.76 45 72.85 35.91 72.85 34.84"/><polygon class="cls-1" points="72.85 28.43 62.24 39.03 62.24 40.1 72.85 29.49 72.85 28.43"/><polygon class="cls-1" points="72.85 43.41 71.26 45 72.32 45 72.85 44.47 72.85 43.41"/><path class="cls-1" d="M89.3,29.1l-6.44,6.44,0.07,0.08,0.41,0.51,6.45-6.45Z"/><polygon class="cls-1" points="72.85 36.98 64.84 45 65.9 45 72.85 38.05 72.85 36.98"/><polygon class="cls-1" points="72.85 39.13 66.98 45 68.04 45 72.85 40.19 72.85 39.13"/><polygon class="cls-1" points="72.85 41.27 69.12 45 70.18 45 72.85 42.33 72.85 41.27"/><polygon class="cls-1" points="62.24 0 62.24 1.58 63.82 0 62.24 0"/><polygon class="cls-1" points="136.36 39.56 130.92 45 131.99 45 136.36 40.62 136.36 39.56"/><polygon class="cls-1" points="124.27 36.67 115.94 45 117.01 45 125.33 36.67 124.27 36.67"/><polygon class="cls-1" points="117.85 36.67 109.52 45 110.59 45 118.92 36.67 117.85 36.67"/><polygon class="cls-1" points="136.36 37.42 128.78 45 129.85 45 136.36 38.48 136.36 37.42"/><polygon class="cls-1" points="136.36 41.7 133.06 45 134.13 45 136.36 42.76 136.36 41.7"/><polygon class="cls-1" points="136.36 43.84 135.2 45 136.36 45 136.36 43.84"/><polygon class="cls-1" points="119.97 17.43 104.84 32.56 104.84 33.63 121.04 17.43 119.97 17.43"/><polygon class="cls-1" points="114.95 28.87 104.84 38.98 104.84 40.05 114.95 29.94 114.95 28.87"/><polygon class="cls-1" points="126.41 36.67 118.08 45 119.15 45 127.47 36.67 126.41 36.67"/><polygon class="cls-1" points="122.11 17.43 104.84 34.7 104.84 35.77 123.18 17.43 122.11 17.43"/><polygon class="cls-1" points="114.95 26.73 104.84 36.84 104.84 37.91 114.95 27.8 114.95 26.73"/><polygon class="cls-1" points="114.95 35.29 105.24 45 106.31 45 114.95 36.36 114.95 35.29"/><polygon class="cls-1" points="122.13 36.67 113.8 45 114.87 45 123.19 36.67 122.13 36.67"/><polygon class="cls-1" points="115.71 36.67 107.38 45 108.45 45 116.78 36.67 115.71 36.67"/><polygon class="cls-1" points="114.95 33.15 104.84 43.26 104.84 44.33 114.95 34.22 114.95 33.15"/><polygon class="cls-1" points="130.69 36.67 122.36 45 123.43 45 131.75 36.67 130.69 36.67"/><polygon class="cls-1" points="132.83 36.67 124.5 45 125.57 45 133.9 36.67 132.83 36.67"/><polygon class="cls-1" points="128.55 36.67 120.22 45 121.29 45 129.62 36.67 128.55 36.67"/><polygon class="cls-1" points="119.99 36.67 111.66 45 112.73 45 121.06 36.67 119.99 36.67"/><polygon class="cls-1" points="134.97 36.67 126.64 45 127.71 45 136.03 36.67 134.97 36.67"/><polygon class="cls-1" points="114.95 31.01 104.84 41.12 104.84 42.19 114.95 32.08 114.95 31.01"/><polygon class="cls-1" points="114.95 11.75 104.84 21.86 104.84 22.93 114.95 12.82 114.95 11.75"/><polygon class="cls-1" points="115.93 25.75 116.99 25.75 125.32 17.43 124.25 17.43 115.93 25.75"/><polygon class="cls-1" points="119.13 25.75 127.46 17.43 126.39 17.43 118.07 25.75 119.13 25.75"/><polygon class="cls-1" points="121.27 25.75 129.6 17.43 128.53 17.43 120.21 25.75 121.27 25.75"/><polygon class="cls-1" points="123.41 25.75 131.74 17.43 130.67 17.43 122.35 25.75 123.41 25.75"/><polygon class="cls-1" points="134.42 8.33 134.98 7.76 134.98 6.7 133.35 8.33 134.42 8.33"/><polygon class="cls-1" points="125.86 8.33 134.19 0 133.12 0 124.79 8.33 125.86 8.33"/><polygon class="cls-1" points="121.58 8.33 129.91 0 128.84 0 120.51 8.33 121.58 8.33"/><polygon class="cls-1" points="132.28 8.33 134.98 5.63 134.98 4.56 131.21 8.33 132.28 8.33"/><polygon class="cls-1" points="123.72 8.33 132.05 0 130.98 0 122.65 8.33 123.72 8.33"/><polygon class="cls-1" points="128 8.33 134.98 1.34 134.98 0.28 126.93 8.33 128 8.33"/><polygon class="cls-1" points="130.14 8.33 134.98 3.48 134.98 2.42 129.07 8.33 130.14 8.33"/><polygon class="cls-1" points="125.55 25.75 132.81 18.5 132.81 17.43 124.49 25.75 125.55 25.75"/><polygon class="cls-1" points="111.72 0 104.84 6.88 104.84 7.95 112.79 0 111.72 0"/><polygon class="cls-1" points="107.44 0 104.84 2.6 104.84 3.67 108.51 0 107.44 0"/><polygon class="cls-1" points="127.69 25.75 132.81 20.64 132.81 19.57 126.63 25.75 127.69 25.75"/><polygon class="cls-1" points="113.86 0 104.84 9.02 104.84 10.09 114.93 0 113.86 0"/><polygon class="cls-1" points="118.14 0 104.84 13.3 104.84 14.37 119.21 0 118.14 0"/><polygon class="cls-1" points="109.58 0 104.84 4.74 104.84 5.81 110.65 0 109.58 0"/><polygon class="cls-1" points="131.97 25.75 132.81 24.91 132.81 23.85 130.91 25.75 131.97 25.75"/><polygon class="cls-1" points="129.83 25.75 132.81 22.77 132.81 21.71 128.76 25.75 129.83 25.75"/><polygon class="cls-1" points="120.28 0 104.84 15.44 104.84 16.51 121.35 0 120.28 0"/><polygon class="cls-1" points="104.84 0 104.84 1.53 106.37 0 104.84 0"/><polygon class="cls-1" points="116 0 104.84 11.16 104.84 12.23 117.07 0 116 0"/><polygon class="cls-1" points="114.95 9.61 104.84 19.72 104.84 20.79 114.95 10.68 114.95 9.61"/><polygon class="cls-1" points="114.95 13.89 104.84 24 104.84 25.07 114.95 14.96 114.95 13.89"/><polygon class="cls-1" points="114.95 16.03 104.84 26.14 104.84 27.21 114.95 17.1 114.95 16.03"/><polygon class="cls-1" points="114.95 8.33 115.16 8.33 123.49 0 122.42 0 104.84 17.58 104.84 18.65 114.95 8.54 114.95 8.33"/><polygon class="cls-1" points="115.69 17.43 104.84 28.28 104.84 29.35 116.76 17.43 115.69 17.43"/><polygon class="cls-1" points="119.44 8.33 127.77 0 126.7 0 118.37 8.33 119.44 8.33"/><polygon class="cls-1" points="117.3 8.33 125.63 0 124.56 0 116.23 8.33 117.3 8.33"/><polygon class="cls-1" points="117.83 17.43 104.84 30.42 104.84 31.49 118.9 17.43 117.83 17.43"/><path class="cls-1" d="M2.93,53.27l-2.66-3.7H1.12l2.24,3.17,2.21-3.17H6.45l-2.64,3.7L6.7,57.36H5.8L3.33,53.84,0.87,57.36H0Z"/><path class="cls-1" d="M12.08,56.4a2.22,2.22,0,0,1-1,.84,3,3,0,0,1-1.25.25,2.71,2.71,0,0,1-1.06-.2A2.38,2.38,0,0,1,8,56.74a2.45,2.45,0,0,1-.52-0.85,3.09,3.09,0,0,1-.18-1.08,2.91,2.91,0,0,1,.19-1.06A2.52,2.52,0,0,1,8,52.91a2.47,2.47,0,0,1,.8-0.56,2.52,2.52,0,0,1,1-.2,2.46,2.46,0,0,1,1,.2,2.27,2.27,0,0,1,.75.54,2.29,2.29,0,0,1,.46.76,2.55,2.55,0,0,1,.15.87V55H8a2.27,2.27,0,0,0,.08.53,1.88,1.88,0,0,0,.3.63,1.9,1.9,0,0,0,.59.53,1.83,1.83,0,0,0,1,.22,2.12,2.12,0,0,0,1-.24A1.77,1.77,0,0,0,11.6,56Zm-0.51-2a1.5,1.5,0,0,0-.14-0.64,1.69,1.69,0,0,0-.37-0.52,1.78,1.78,0,0,0-.56-0.36,1.81,1.81,0,0,0-.69-0.13,1.68,1.68,0,0,0-.9.22,2,2,0,0,0-.57.51,2,2,0,0,0-.3.56,1.51,1.51,0,0,0-.09.37h3.61Z"/><path class="cls-1" d="M13.57,49h0.66v4.13h0a1.7,1.7,0,0,1,.38-0.46,2.34,2.34,0,0,1,.5-0.32,2.49,2.49,0,0,1,.57-0.19,2.91,2.91,0,0,1,.58-0.06,2.84,2.84,0,0,1,1.07.2,2.49,2.49,0,0,1,1.4,1.4,3,3,0,0,1,0,2.15,2.49,2.49,0,0,1-1.4,1.4,2.84,2.84,0,0,1-1.07.2,2.91,2.91,0,0,1-.58-0.06,2.49,2.49,0,0,1-.57-0.19,2.34,2.34,0,0,1-.5-0.32,1.7,1.7,0,0,1-.38-0.46h0v0.89H13.57V49Zm0.59,5.78a2,2,0,0,0,.17.81,2.07,2.07,0,0,0,.45.66,2.18,2.18,0,0,0,.67.45,2.11,2.11,0,0,0,.84.16,2.06,2.06,0,0,0,.84-0.16,2,2,0,0,0,.64-0.45,1.9,1.9,0,0,0,.4-0.66,2.45,2.45,0,0,0,0-1.62,1.9,1.9,0,0,0-.4-0.66,1.94,1.94,0,0,0-.64-0.45,2.05,2.05,0,0,0-.84-0.17,2.1,2.1,0,0,0-.84.17,2.17,2.17,0,0,0-.67.45,2.07,2.07,0,0,0-.45.66A2,2,0,0,0,14.16,54.82Z"/><path class="cls-1" d="M20.38,50.26a0.49,0.49,0,1,1,.14.35A0.48,0.48,0,0,1,20.38,50.26Zm0.17,2H21.2v5.08H20.54V52.28Z"/><path class="cls-1" d="M27,55.23q0,0.37,0,.67c0,0.2,0,.38,0,0.55s0,0.33,0,.47,0,0.29.05,0.44H26.5a4.76,4.76,0,0,1-.07-0.83h0a1.86,1.86,0,0,1-.71.73,2.23,2.23,0,0,1-1.07.23A2.57,2.57,0,0,1,24,57.41a1.7,1.7,0,0,1-.57-0.26A1.42,1.42,0,0,1,23,56.68,1.4,1.4,0,0,1,22.84,56a1.35,1.35,0,0,1,.3-0.92,1.85,1.85,0,0,1,.73-0.51,3.47,3.47,0,0,1,.92-0.22,8.59,8.59,0,0,1,.86,0h0.77V54A1.08,1.08,0,0,0,26,53a1.74,1.74,0,0,0-1-.29,2.32,2.32,0,0,0-1.55.57l-0.38-.45a2.35,2.35,0,0,1,.9-0.53,3.24,3.24,0,0,1,1-.18,2.31,2.31,0,0,1,1.47.43A1.68,1.68,0,0,1,27,54v1.24Zm-1.32-.42a5.81,5.81,0,0,0-.81.05,2.83,2.83,0,0,0-.7.19,1.31,1.31,0,0,0-.5.35,0.89,0.89,0,0,0-.08,1,0.91,0.91,0,0,0,.27.3,1.26,1.26,0,0,0,.37.18,1.44,1.44,0,0,0,.41.06,2.13,2.13,0,0,0,.87-0.15,1.49,1.49,0,0,0,.54-0.4,1.41,1.41,0,0,0,.28-0.56,2.68,2.68,0,0,0,.08-0.63V54.81H25.7Z"/><path class="cls-1" d="M31.83,49.57h0.73V53h0.07l3.77-3.43h1l-3.94,3.57,4.16,4.22h-1l-3.95-4H32.56v4H31.83V49.57Z"/><path class="cls-1" d="M38.36,53.71c0-.1,0-0.21,0-0.35s0-.27,0-0.41,0-.27,0-0.39,0-.21,0-0.28H39c0,0.19,0,.37,0,0.55a1.76,1.76,0,0,0,0,.34h0a1.78,1.78,0,0,1,.66-0.72,1.92,1.92,0,0,1,1.08-.3,2.17,2.17,0,0,1,1,.19,1.56,1.56,0,0,1,.59.49,1.84,1.84,0,0,1,.3.7,3.93,3.93,0,0,1,.08.81v3H42.06v-3a3.24,3.24,0,0,0-.05-0.6,1.6,1.6,0,0,0-.19-0.52,1,1,0,0,0-.38-0.37,1.32,1.32,0,0,0-.64-0.14,1.88,1.88,0,0,0-.69.13,1.47,1.47,0,0,0-.56.39,1.86,1.86,0,0,0-.37.65,2.75,2.75,0,0,0-.14.92v2.54H38.36V53.71Z"/><path class="cls-1" d="M44.2,54.82a2.83,2.83,0,0,1,.2-1.07,2.58,2.58,0,0,1,.55-0.85,2.47,2.47,0,0,1,.85-0.56,2.87,2.87,0,0,1,1.08-.2,2.84,2.84,0,0,1,1.07.2,2.49,2.49,0,0,1,1.4,1.4,3,3,0,0,1,0,2.15,2.49,2.49,0,0,1-1.4,1.4,2.84,2.84,0,0,1-1.07.2,2.87,2.87,0,0,1-1.08-.2,2.46,2.46,0,0,1-.85-0.56,2.57,2.57,0,0,1-.55-0.85A2.83,2.83,0,0,1,44.2,54.82Zm0.66,0a2.36,2.36,0,0,0,.14.81,1.9,1.9,0,0,0,.4.66,2,2,0,0,0,.64.45,2.2,2.2,0,0,0,1.67,0,1.93,1.93,0,0,0,.64-0.45,1.88,1.88,0,0,0,.4-0.66,2.45,2.45,0,0,0,0-1.62,1.88,1.88,0,0,0-.4-0.66,1.92,1.92,0,0,0-.64-0.45,2.2,2.2,0,0,0-1.67,0,1.94,1.94,0,0,0-.64.45A1.9,1.9,0,0,0,45,54,2.36,2.36,0,0,0,44.86,54.82Z"/><path class="cls-1" d="M50.3,52.28H51l1.23,4.26h0l1.42-4.26h0.63l1.51,4.26h0l1.2-4.26h0.66l-1.5,5.08H55.54L54,53.2h0l-1.42,4.16H51.9Z"/><path class="cls-1" d="M58.87,49h0.66v8.32H58.87V49Z"/><path class="cls-1" d="M65.89,56.4a2.22,2.22,0,0,1-1,.84,3,3,0,0,1-1.25.25,2.71,2.71,0,0,1-1.06-.2,2.38,2.38,0,0,1-.81-0.56,2.45,2.45,0,0,1-.52-0.85,3.09,3.09,0,0,1-.18-1.08,2.91,2.91,0,0,1,.19-1.06,2.52,2.52,0,0,1,.53-0.84,2.47,2.47,0,0,1,.8-0.56,2.52,2.52,0,0,1,1-.2,2.46,2.46,0,0,1,1,.2,2.27,2.27,0,0,1,.75.54,2.29,2.29,0,0,1,.46.76,2.55,2.55,0,0,1,.15.87V55H61.78a2.27,2.27,0,0,0,.08.53,1.88,1.88,0,0,0,.3.63,1.9,1.9,0,0,0,.59.53,1.83,1.83,0,0,0,1,.22,2.12,2.12,0,0,0,1-.24A1.77,1.77,0,0,0,65.41,56Zm-0.51-2a1.5,1.5,0,0,0-.14-0.64,1.69,1.69,0,0,0-.37-0.52,1.78,1.78,0,0,0-.56-0.36,1.81,1.81,0,0,0-.69-0.13,1.68,1.68,0,0,0-.9.22,2,2,0,0,0-.57.51,2,2,0,0,0-.3.56,1.51,1.51,0,0,0-.09.37h3.61Z"/><path class="cls-1" d="M72,56.47h0a1.71,1.71,0,0,1-.39.46,2.29,2.29,0,0,1-.5.32,2.5,2.5,0,0,1-.57.19,2.92,2.92,0,0,1-.58.06,2.87,2.87,0,0,1-1.08-.2A2.46,2.46,0,0,1,68,56.74a2.57,2.57,0,0,1-.55-0.85,3,3,0,0,1,0-2.15A2.58,2.58,0,0,1,68,52.9a2.47,2.47,0,0,1,.85-0.56,2.87,2.87,0,0,1,1.08-.2,2.92,2.92,0,0,1,.58.06,2.5,2.5,0,0,1,.57.19,2.29,2.29,0,0,1,.5.32,1.71,1.71,0,0,1,.39.46h0V49h0.66v8.32H72V56.47ZM72,54.82A2,2,0,0,0,71.87,54a2.06,2.06,0,0,0-.45-0.66,2.16,2.16,0,0,0-.67-0.45,2.11,2.11,0,0,0-.84-0.17,2,2,0,0,0-.84.17,1.94,1.94,0,0,0-.64.45A1.9,1.9,0,0,0,68,54a2.45,2.45,0,0,0,0,1.62,1.9,1.9,0,0,0,.4.66,2,2,0,0,0,.64.45,2.06,2.06,0,0,0,.84.16,2.12,2.12,0,0,0,.84-0.16,2.17,2.17,0,0,0,.67-0.45,2.06,2.06,0,0,0,.45-0.66A2,2,0,0,0,72,54.82Z"/><path class="cls-1" d="M79.35,57a3.62,3.62,0,0,1-.28,1.53,2.42,2.42,0,0,1-.69.9,2.28,2.28,0,0,1-.89.43,3.8,3.8,0,0,1-.86.11,3.94,3.94,0,0,1-.75-0.07,3.58,3.58,0,0,1-.7-0.21,2.87,2.87,0,0,1-.6-0.34,2.32,2.32,0,0,1-.47-0.45l0.52-.48a2.1,2.1,0,0,0,.88.73,2.77,2.77,0,0,0,1.12.23,2.42,2.42,0,0,0,.85-0.13,1.69,1.69,0,0,0,.57-0.35,1.67,1.67,0,0,0,.35-0.47,2.38,2.38,0,0,0,.19-0.52,2.69,2.69,0,0,0,.07-0.49c0-.15,0-0.28,0-0.37v-0.7h0a2,2,0,0,1-.78.73,2.39,2.39,0,0,1-1.15.26,2.75,2.75,0,0,1-1.06-.2,2.69,2.69,0,0,1-1.45-1.39,2.49,2.49,0,0,1,0-2,2.63,2.63,0,0,1,.58-0.83,2.81,2.81,0,0,1,.86-0.56,2.68,2.68,0,0,1,1.06-.21,2.39,2.39,0,0,1,1.15.26,2,2,0,0,1,.78.73h0V52.28h0.66V57Zm-0.64-2.28A2,2,0,0,0,78.55,54a2,2,0,0,0-1.07-1.07,2,2,0,0,0-1.57,0A2,2,0,0,0,74.84,54a2,2,0,0,0,0,1.57,2,2,0,0,0,1.07,1.07,2,2,0,0,0,1.57,0,2,2,0,0,0,1.07-1.07A2,2,0,0,0,78.71,54.75Z"/><path class="cls-1" d="M85.46,56.4a2.22,2.22,0,0,1-1,.84,3,3,0,0,1-1.25.25,2.71,2.71,0,0,1-1.06-.2,2.38,2.38,0,0,1-.81-0.56,2.45,2.45,0,0,1-.52-0.85,3.09,3.09,0,0,1-.18-1.08,2.91,2.91,0,0,1,.19-1.06,2.52,2.52,0,0,1,.53-0.84,2.47,2.47,0,0,1,.8-0.56,2.52,2.52,0,0,1,1-.2,2.46,2.46,0,0,1,1,.2,2.27,2.27,0,0,1,.75.54,2.29,2.29,0,0,1,.46.76,2.55,2.55,0,0,1,.15.87V55H81.34a2.27,2.27,0,0,0,.08.53,1.88,1.88,0,0,0,.3.63,1.9,1.9,0,0,0,.59.53,1.83,1.83,0,0,0,1,.22,2.12,2.12,0,0,0,1-.24A1.77,1.77,0,0,0,85,56Zm-0.51-2a1.5,1.5,0,0,0-.14-0.64,1.69,1.69,0,0,0-.37-0.52,1.78,1.78,0,0,0-.56-0.36,1.81,1.81,0,0,0-.69-0.13,1.68,1.68,0,0,0-.9.22,2,2,0,0,0-.57.51,2,2,0,0,0-.3.56,1.51,1.51,0,0,0-.09.37h3.61Z"/><path class="cls-1" d="M90.13,49.57H94.9v0.66h-4V53h3.79v0.66H90.86v3h4.21v0.66H90.13V49.57Z"/><path class="cls-1" d="M97.77,54.61L96,52.28H96.8l1.41,1.93,1.4-1.93h0.83l-1.79,2.33,2.18,2.75H100l-1.77-2.3-1.74,2.3H95.65Z"/><path class="cls-1" d="M106,56.61a2.38,2.38,0,0,1-.85.67,2.44,2.44,0,0,1-1,.21,2.87,2.87,0,0,1-1.08-.2,2.46,2.46,0,0,1-.85-0.56,2.57,2.57,0,0,1-.55-0.85,3,3,0,0,1,0-2.15,2.58,2.58,0,0,1,.55-0.85,2.47,2.47,0,0,1,.85-0.56,2.87,2.87,0,0,1,1.08-.2,2.36,2.36,0,0,1,1,.23A2.74,2.74,0,0,1,106,53l-0.53.4a2.3,2.3,0,0,0-.63-0.5,1.54,1.54,0,0,0-.74-0.18,2,2,0,0,0-.84.17,1.94,1.94,0,0,0-.64.45,1.9,1.9,0,0,0-.4.66,2.45,2.45,0,0,0,0,1.62,1.9,1.9,0,0,0,.4.66,2,2,0,0,0,.64.45,2.06,2.06,0,0,0,.84.16,1.55,1.55,0,0,0,.77-0.19,2,2,0,0,0,.6-0.51Z"/><path class="cls-1" d="M107.05,49h0.66v4.13h0a1.78,1.78,0,0,1,.66-0.72,1.92,1.92,0,0,1,1.08-.3,2.17,2.17,0,0,1,1,.19,1.56,1.56,0,0,1,.59.49,1.84,1.84,0,0,1,.3.7,3.93,3.93,0,0,1,.08.81v3h-0.66v-3a3.24,3.24,0,0,0-.05-0.6,1.6,1.6,0,0,0-.19-0.52,1,1,0,0,0-.38-0.37,1.32,1.32,0,0,0-.64-0.14,1.88,1.88,0,0,0-.69.13,1.47,1.47,0,0,0-.56.39,1.86,1.86,0,0,0-.37.65,2.75,2.75,0,0,0-.14.92v2.54h-0.66V49Z"/><path class="cls-1" d="M117.12,55.23q0,0.37,0,.67c0,0.2,0,.38,0,0.55s0,0.33,0,.47,0,0.29.05,0.44H116.6a4.76,4.76,0,0,1-.07-0.83h0a1.86,1.86,0,0,1-.71.73,2.23,2.23,0,0,1-1.07.23,2.57,2.57,0,0,1-.65-0.08,1.7,1.7,0,0,1-.57-0.26,1.42,1.42,0,0,1-.41-0.47,1.4,1.4,0,0,1-.16-0.69,1.35,1.35,0,0,1,.3-0.92,1.85,1.85,0,0,1,.73-0.51,3.47,3.47,0,0,1,.92-0.22,8.59,8.59,0,0,1,.86,0h0.77V54a1.08,1.08,0,0,0-.41-0.95,1.74,1.74,0,0,0-1-.29,2.32,2.32,0,0,0-1.55.57l-0.38-.45a2.35,2.35,0,0,1,.9-0.53,3.24,3.24,0,0,1,1-.18,2.31,2.31,0,0,1,1.47.43,1.68,1.68,0,0,1,.55,1.4v1.24Zm-1.32-.42a5.81,5.81,0,0,0-.81.05,2.83,2.83,0,0,0-.7.19,1.31,1.31,0,0,0-.5.35,0.89,0.89,0,0,0-.08,1,0.91,0.91,0,0,0,.27.3,1.26,1.26,0,0,0,.37.18,1.44,1.44,0,0,0,.41.06,2.13,2.13,0,0,0,.87-0.15,1.49,1.49,0,0,0,.54-0.4,1.41,1.41,0,0,0,.28-0.56,2.68,2.68,0,0,0,.08-0.63V54.81H115.8Z"/><path class="cls-1" d="M118.88,53.71c0-.1,0-0.21,0-0.35s0-.27,0-0.41,0-.27,0-0.39,0-.21,0-0.28h0.66c0,0.19,0,.37,0,0.55a1.76,1.76,0,0,0,0,.34h0a1.78,1.78,0,0,1,.66-0.72,1.92,1.92,0,0,1,1.08-.3,2.17,2.17,0,0,1,1,.19,1.56,1.56,0,0,1,.59.49,1.84,1.84,0,0,1,.3.7,3.93,3.93,0,0,1,.08.81v3h-0.66v-3a3.24,3.24,0,0,0-.05-0.6,1.6,1.6,0,0,0-.19-0.52,1,1,0,0,0-.38-0.37,1.32,1.32,0,0,0-.64-0.14,1.88,1.88,0,0,0-.69.13,1.47,1.47,0,0,0-.56.39,1.86,1.86,0,0,0-.37.65,2.75,2.75,0,0,0-.14.92v2.54h-0.66V53.71Z"/><path class="cls-1" d="M130.1,57a3.62,3.62,0,0,1-.28,1.53,2.42,2.42,0,0,1-.69.9,2.28,2.28,0,0,1-.89.43,3.8,3.8,0,0,1-.86.11,3.94,3.94,0,0,1-.75-0.07,3.58,3.58,0,0,1-.7-0.21,2.87,2.87,0,0,1-.6-0.34,2.32,2.32,0,0,1-.47-0.45l0.52-.48a2.1,2.1,0,0,0,.88.73,2.77,2.77,0,0,0,1.12.23,2.42,2.42,0,0,0,.85-0.13,1.69,1.69,0,0,0,.57-0.35,1.67,1.67,0,0,0,.35-0.47,2.38,2.38,0,0,0,.19-0.52,2.69,2.69,0,0,0,.07-0.49c0-.15,0-0.28,0-0.37v-0.7h0a2,2,0,0,1-.78.73,2.39,2.39,0,0,1-1.15.26,2.75,2.75,0,0,1-1.06-.2A2.69,2.69,0,0,1,125,55.76a2.49,2.49,0,0,1,0-2,2.63,2.63,0,0,1,.58-0.83,2.81,2.81,0,0,1,.86-0.56,2.68,2.68,0,0,1,1.06-.21,2.39,2.39,0,0,1,1.15.26,2,2,0,0,1,.78.73h0V52.28h0.66V57Zm-0.64-2.28a2,2,0,0,0-.16-0.79,2,2,0,0,0-1.07-1.07,2,2,0,0,0-1.57,0A2,2,0,0,0,125.6,54a2,2,0,0,0,0,1.57,2,2,0,0,0,1.07,1.07,2,2,0,0,0,1.57,0,2,2,0,0,0,1.07-1.07A2,2,0,0,0,129.47,54.75Z"/><path class="cls-1" d="M136.21,56.4a2.22,2.22,0,0,1-1,.84,3,3,0,0,1-1.25.25,2.71,2.71,0,0,1-1.06-.2,2.38,2.38,0,0,1-.81-0.56,2.45,2.45,0,0,1-.52-0.85,3.09,3.09,0,0,1-.18-1.08,2.91,2.91,0,0,1,.19-1.06,2.52,2.52,0,0,1,.53-0.84,2.47,2.47,0,0,1,.8-0.56,2.52,2.52,0,0,1,1-.2,2.46,2.46,0,0,1,1,.2,2.27,2.27,0,0,1,.75.54,2.29,2.29,0,0,1,.46.76,2.55,2.55,0,0,1,.15.87V55h-4.27a2.27,2.27,0,0,0,.08.53,1.88,1.88,0,0,0,.3.63,1.9,1.9,0,0,0,.59.53,1.83,1.83,0,0,0,1,.22,2.12,2.12,0,0,0,1-.24,1.77,1.77,0,0,0,.73-0.66Zm-0.51-2a1.5,1.5,0,0,0-.14-0.64,1.69,1.69,0,0,0-.37-0.52,1.78,1.78,0,0,0-.56-0.36,1.81,1.81,0,0,0-.69-0.13,1.68,1.68,0,0,0-.9.22,2,2,0,0,0-.57.51,2,2,0,0,0-.3.56,1.51,1.51,0,0,0-.09.37h3.61Z"/></svg>