<?xml version="1.0" encoding="utf-8"?>
<!-- Generator: Adobe Illustrator 19.2.1, SVG Export Plug-In . SVG Version: 6.00 Build 0)  -->
<svg version="1.1" id="Calque_1" xmlns="http://www.w3.org/2000/svg" xmlns:xlink="http://www.w3.org/1999/xlink" x="0px" y="0px"
	 viewBox="0 0 160 70" style="enable-background:new 0 0 160 70;" xml:space="preserve">
<style type="text/css">
	.st0{fill:none;}
	.st1{fill:#6A205F;}
</style>
<rect class="st0" width="160" height="70"/>
<g>
	<polygon id="XMLID_8_" class="st1" points="72.7,18 63.4,18 53.6,28 43.8,18 34.5,18 49,33.5 34.5,49 43.8,49 53.6,39 63.4,49 
		72.7,49 58.2,33.5 	"/>
	<g>
		<path class="st1" d="M83.1,35.5v0.7l0.6-0.6c-0.1-0.1-0.3-0.2-0.4-0.3L83.1,35.5z"/>
		<polygon class="st1" points="83.1,28.4 76,35.5 76,36.2 83.1,29.1 		"/>
		<polygon class="st1" points="94.9,18 85.8,27.1 83.1,30.4 83.1,29.8 76,36.9 76,37.6 95.6,18 		"/>
		<path class="st1" d="M88.8,40.6l4.3-4.3c-0.1-0.1-0.2-0.2-0.3-0.4l-4.3,4.3C88.6,40.3,88.7,40.4,88.8,40.6z"/>
		<polygon class="st1" points="99.2,18 76,41.2 76,41.9 99.9,18 		"/>
		<polygon class="st1" points="96.4,18 76,38.3 76,39 97.1,18 		"/>
		<polygon class="st1" points="97.8,18 76,39.7 76,40.5 98.5,18 		"/>
		<path class="st1" d="M89.5,41.3l4.3-4.3c-0.1-0.1-0.2-0.3-0.3-0.4l-4.3,4.3C89.2,41.1,89.3,41.2,89.5,41.3z"/>
		<path class="st1" d="M86,37.7l4.3-4.3c-0.1-0.1-0.3-0.2-0.4-0.3l-4.2,4.2C85.7,37.4,85.8,37.6,86,37.7z"/>
		<path class="st1" d="M85.2,37l4.2-4.2c-0.2-0.1-0.3-0.2-0.4-0.3l-4.2,4.2C85,36.7,85.1,36.9,85.2,37z"/>
		<path class="st1" d="M88.1,39.8l4.3-4.3c-0.1-0.1-0.2-0.2-0.3-0.4l-4.3,4.3C87.9,39.6,88,39.7,88.1,39.8z"/>
		<path class="st1" d="M87.4,39.1l4.3-4.3c-0.1-0.1-0.2-0.2-0.4-0.4L87,38.7C87.2,38.9,87.3,39,87.4,39.1z"/>
		<path class="st1" d="M86.7,38.4l4.3-4.3c-0.1-0.1-0.2-0.2-0.4-0.3L86.3,38C86.4,38.1,86.6,38.3,86.7,38.4z"/>
		<polygon class="st1" points="89.2,23 94.2,18 93.5,18 92.6,18.9 		"/>
		<polygon class="st1" points="83.1,18.4 76,25.5 76,26.2 83.1,19.1 		"/>
		<polygon class="st1" points="82.1,18 76,24 76,24.8 82.8,18 		"/>
		<polygon class="st1" points="80.7,18 76,22.6 76,23.3 81.4,18 		"/>
		<polygon class="st1" points="83.1,19.8 76,26.9 76,27.6 83.1,20.5 		"/>
		<polygon class="st1" points="79.2,18 76,21.2 76,21.9 79.9,18 		"/>
		<polygon class="st1" points="83.1,21.3 76,28.3 76,29 83.1,22 		"/>
		<polygon class="st1" points="83.1,25.5 76,32.6 76,33.3 83.1,26.2 		"/>
		<polygon class="st1" points="83.1,27 76,34 76,34.7 83.1,27.7 		"/>
		<polygon class="st1" points="83.1,24.1 76,31.2 76,31.9 83.1,24.8 		"/>
		<path class="st1" d="M84.5,36.3l5.7-5.7l3.4-4.1l-9.4,9.4C84.2,36,84.4,36.2,84.5,36.3z"/>
		<polygon class="st1" points="83.1,22.7 76,29.8 76,30.5 83.1,23.4 		"/>
		<polygon class="st1" points="83.1,38.4 76,45.4 76,46.2 83.1,39.1 		"/>
		<path class="st1" d="M97.8,42.2l-4.5,4.5c0.1,0.2,0.2,0.3,0.3,0.4l4.6-4.6C98,42.5,97.9,42.3,97.8,42.2z"/>
		<path class="st1" d="M97.2,41.4l-4.5,4.5c0.1,0.2,0.2,0.3,0.3,0.4l4.5-4.5C97.4,41.7,97.3,41.5,97.2,41.4z"/>
		<path class="st1" d="M98.4,43l-4.6,4.6C93.9,47.9,94,48,94,48h0.2l4.5-4.5C98.6,43.3,98.5,43.2,98.4,43z"/>
		<path class="st1" d="M96,39.7l-4.4,4.4c0.1,0.1,0.2,0.3,0.3,0.4l4.4-4.4C96.2,40,96.1,39.9,96,39.7z"/>
		<path class="st1" d="M96.6,40.6L92.2,45c0.1,0.1,0.2,0.3,0.3,0.4l4.5-4.5C96.8,40.8,96.7,40.7,96.6,40.6z"/>
		<path class="st1" d="M99,43.9L94.9,48h0.7l3.7-3.7C99.2,44.2,99.1,44,99,43.9z"/>
		<path class="st1" d="M95.4,38.9L91,43.3c0.1,0.1,0.2,0.3,0.3,0.4l4.4-4.4C95.6,39.2,95.5,39.1,95.4,38.9z"/>
		<path class="st1" d="M101.2,47.3l-0.7,0.7h1.1C101.7,48,101.5,47.8,101.2,47.3z"/>
		<path class="st1" d="M83.8,35.6l13.2-13.2l3.4-4.1L83.4,35.2C83.5,35.3,83.6,35.5,83.8,35.6z"/>
		<path class="st1" d="M100.1,45.6L97.7,48h0.7l2-2C100.3,45.9,100.2,45.8,100.1,45.6z"/>
		<path class="st1" d="M99.6,44.7L96.3,48H97l2.8-2.8C99.8,45,99.7,44.9,99.6,44.7z"/>
		<path class="st1" d="M100.7,46.5L99.2,48h0.7l1.1-1.1C100.9,46.8,100.8,46.6,100.7,46.5z"/>
		<polygon class="st1" points="83.1,39.8 76,46.9 76,47.6 83.1,40.5 		"/>
		<polygon class="st1" points="77.8,18 76,19.8 76,20.5 78.5,18 		"/>
		<path class="st1" d="M95,38.5c-0.1-0.1-0.2-0.2-0.2-0.3l-4.3,4.3c0.1,0.1,0.2,0.3,0.3,0.4L95,38.5C95,38.5,95,38.5,95,38.5z"/>
		<polygon class="st1" points="83.1,35.5 76,42.6 76,43.3 83.1,36.2 		"/>
		<polygon class="st1" points="83.1,41.2 76.3,48 77.1,48 83.1,41.9 		"/>
		<polygon class="st1" points="83.1,37 76,44 76,44.7 83.1,37.7 		"/>
		<polygon class="st1" points="83.1,46.9 82,48 82.8,48 83.1,47.6 		"/>
		<path class="st1" d="M94.1,37.4l-4.3,4.3c0,0,0,0,0,0.1c0.1,0.1,0.2,0.2,0.3,0.3l4.3-4.3C94.3,37.6,94.2,37.5,94.1,37.4z"/>
		<polygon class="st1" points="83.1,42.7 77.8,48 78.5,48 83.1,43.4 		"/>
		<polygon class="st1" points="83.1,44.1 79.2,48 79.9,48 83.1,44.8 		"/>
		<polygon class="st1" points="83.1,45.5 80.6,48 81.3,48 83.1,46.2 		"/>
		<polygon class="st1" points="76,18 76,19.1 77.1,18 		"/>
	</g>
	<g>
		<polygon class="st1" points="125.5,44.4 121.8,48 122.5,48 125.5,45.1 		"/>
		<polygon class="st1" points="117.4,42.4 111.8,48 112.5,48 118.1,42.4 		"/>
		<polygon class="st1" points="113.1,42.4 107.6,48 108.3,48 113.8,42.4 		"/>
		<polygon class="st1" points="125.5,42.9 120.4,48 121.1,48 125.5,43.7 		"/>
		<polygon class="st1" points="125.5,45.8 123.3,48 124,48 125.5,46.5 		"/>
		<polygon class="st1" points="125.5,47.2 124.7,48 125.5,48 		"/>
		<polygon class="st1" points="114.5,29.6 104.4,39.7 104.4,40.4 115.2,29.6 		"/>
		<polygon class="st1" points="111.2,37.2 104.4,44 104.4,44.7 111.2,38 		"/>
		<polygon class="st1" points="118.8,42.4 113.3,48 114,48 119.5,42.4 		"/>
		<polygon class="st1" points="116,29.6 104.4,41.1 104.4,41.8 116.7,29.6 		"/>
		<polygon class="st1" points="111.2,35.8 104.4,42.6 104.4,43.3 111.2,36.5 		"/>
		<polygon class="st1" points="111.2,41.5 104.7,48 105.4,48 111.2,42.2 		"/>
		<polygon class="st1" points="116,42.4 110.4,48 111.1,48 116.7,42.4 		"/>
		<polygon class="st1" points="111.7,42.4 106.1,48 106.8,48 112.4,42.4 		"/>
		<polygon class="st1" points="111.2,40.1 104.4,46.8 104.4,47.6 111.2,40.8 		"/>
		<polygon class="st1" points="121.7,42.4 116.1,48 116.8,48 122.4,42.4 		"/>
		<polygon class="st1" points="123.1,42.4 117.5,48 118.3,48 123.8,42.4 		"/>
		<polygon class="st1" points="120.2,42.4 114.7,48 115.4,48 121,42.4 		"/>
		<polygon class="st1" points="114.5,42.4 109,48 109.7,48 115.2,42.4 		"/>
		<polygon class="st1" points="124.5,42.4 119,48 119.7,48 125.2,42.4 		"/>
		<polygon class="st1" points="111.2,38.7 104.4,45.4 104.4,46.1 111.2,39.4 		"/>
		<polygon class="st1" points="111.2,25.8 104.4,32.6 104.4,33.3 111.2,26.5 		"/>
		<polygon class="st1" points="111.8,35.2 112.5,35.2 118.1,29.6 117.4,29.6 		"/>
		<polygon class="st1" points="114,35.2 119.5,29.6 118.8,29.6 113.3,35.2 		"/>
		<polygon class="st1" points="115.4,35.2 120.9,29.6 120.2,29.6 114.7,35.2 		"/>
		<polygon class="st1" points="116.8,35.2 122.4,29.6 121.7,29.6 116.1,35.2 		"/>
		<polygon class="st1" points="124.2,23.6 124.5,23.2 124.5,22.5 123.4,23.6 		"/>
		<polygon class="st1" points="118.5,23.6 124,18 123.3,18 117.7,23.6 		"/>
		<polygon class="st1" points="115.6,23.6 121.2,18 120.4,18 114.9,23.6 		"/>
		<polygon class="st1" points="122.7,23.6 124.5,21.7 124.5,21 122,23.6 		"/>
		<polygon class="st1" points="117,23.6 122.6,18 121.9,18 116.3,23.6 		"/>
		<polygon class="st1" points="119.9,23.6 124.5,18.9 124.5,18.2 119.2,23.6 		"/>
		<polygon class="st1" points="121.3,23.6 124.5,20.3 124.5,19.6 120.6,23.6 		"/>
		<polygon class="st1" points="118.2,35.2 123.1,30.3 123.1,29.6 117.5,35.2 		"/>
		<polygon class="st1" points="109,18 104.4,22.6 104.4,23.3 109.7,18 		"/>
		<polygon class="st1" points="106.2,18 104.4,19.7 104.4,20.4 106.9,18 		"/>
		<polygon class="st1" points="119.7,35.2 123.1,31.8 123.1,31 119,35.2 		"/>
		<polygon class="st1" points="110.5,18 104.4,24 104.4,24.7 111.2,18 		"/>
		<polygon class="st1" points="113.3,18 104.4,26.9 104.4,27.6 114,18 		"/>
		<polygon class="st1" points="107.6,18 104.4,21.2 104.4,21.9 108.3,18 		"/>
		<polygon class="st1" points="122.5,35.2 123.1,34.6 123.1,33.9 121.8,35.2 		"/>
		<polygon class="st1" points="121.1,35.2 123.1,33.2 123.1,32.5 120.4,35.2 		"/>
		<polygon class="st1" points="114.7,18 104.4,28.3 104.4,29 115.4,18 		"/>
		<polygon class="st1" points="104.4,18 104.4,19 105.5,18 		"/>
		<polygon class="st1" points="111.9,18 104.4,25.4 104.4,26.2 112.6,18 		"/>
		<polygon class="st1" points="111.2,24.4 104.4,31.1 104.4,31.9 111.2,25.1 		"/>
		<polygon class="st1" points="111.2,27.3 104.4,34 104.4,34.7 111.2,28 		"/>
		<polygon class="st1" points="111.2,28.7 104.4,35.4 104.4,36.1 111.2,29.4 		"/>
		<polygon class="st1" points="111.2,23.6 111.3,23.6 116.9,18 116.2,18 104.4,29.7 104.4,30.4 111.2,23.7 		"/>
		<polygon class="st1" points="111.7,29.6 104.4,36.9 104.4,37.6 112.4,29.6 		"/>
		<polygon class="st1" points="114.2,23.6 119.7,18 119,18 113.5,23.6 		"/>
		<polygon class="st1" points="112.7,23.6 118.3,18 117.6,18 112,23.6 		"/>
		<polygon class="st1" points="113.1,29.6 104.4,38.3 104.4,39 113.8,29.6 		"/>
	</g>
	<g>
		<path class="st1" d="M36.5,53.5L34.7,51h0.6l1.5,2.1l1.5-2.1h0.6l-1.8,2.5l1.9,2.7h-0.6l-1.6-2.3l-1.6,2.3h-0.6L36.5,53.5z"/>
		<path class="st1" d="M42.6,55.6c-0.2,0.3-0.4,0.4-0.6,0.6c-0.3,0.1-0.5,0.2-0.8,0.2c-0.3,0-0.5,0-0.7-0.1
			c-0.2-0.1-0.4-0.2-0.5-0.4c-0.2-0.2-0.3-0.3-0.3-0.6c-0.1-0.2-0.1-0.5-0.1-0.7c0-0.3,0-0.5,0.1-0.7s0.2-0.4,0.4-0.6
			c0.2-0.2,0.3-0.3,0.5-0.4c0.2-0.1,0.4-0.1,0.7-0.1c0.3,0,0.5,0,0.7,0.1c0.2,0.1,0.4,0.2,0.5,0.4c0.1,0.1,0.2,0.3,0.3,0.5
			c0.1,0.2,0.1,0.4,0.1,0.6v0.3h-2.8c0,0.1,0,0.2,0.1,0.4c0,0.1,0.1,0.3,0.2,0.4c0.1,0.1,0.2,0.3,0.4,0.4c0.2,0.1,0.4,0.1,0.6,0.1
			c0.2,0,0.4-0.1,0.7-0.2c0.2-0.1,0.4-0.3,0.5-0.4L42.6,55.6z M42.3,54.3c0-0.2,0-0.3-0.1-0.4c-0.1-0.1-0.1-0.2-0.2-0.3
			s-0.2-0.2-0.4-0.2c-0.1-0.1-0.3-0.1-0.5-0.1c-0.2,0-0.4,0-0.6,0.1c-0.2,0.1-0.3,0.2-0.4,0.3C40,53.8,40,53.9,39.9,54
			c0,0.1-0.1,0.2-0.1,0.2H42.3z"/>
		<path class="st1" d="M43.6,50.7H44v2.8h0c0.1-0.1,0.2-0.2,0.3-0.3c0.1-0.1,0.2-0.2,0.3-0.2c0.1-0.1,0.2-0.1,0.4-0.1
			c0.1,0,0.3,0,0.4,0c0.3,0,0.5,0,0.7,0.1c0.2,0.1,0.4,0.2,0.6,0.4c0.2,0.2,0.3,0.3,0.4,0.6c0.1,0.2,0.1,0.5,0.1,0.7
			c0,0.3,0,0.5-0.1,0.7c-0.1,0.2-0.2,0.4-0.4,0.6c-0.2,0.2-0.3,0.3-0.6,0.4c-0.2,0.1-0.5,0.1-0.7,0.1c-0.1,0-0.3,0-0.4,0
			c-0.1,0-0.3-0.1-0.4-0.1c-0.1-0.1-0.2-0.1-0.3-0.2c-0.1-0.1-0.2-0.2-0.3-0.3h0v0.6h-0.4V50.7z M44,54.5c0,0.2,0,0.4,0.1,0.5
			c0.1,0.2,0.2,0.3,0.3,0.4c0.1,0.1,0.3,0.2,0.4,0.3c0.2,0.1,0.4,0.1,0.6,0.1c0.2,0,0.4,0,0.6-0.1c0.2-0.1,0.3-0.2,0.4-0.3
			c0.1-0.1,0.2-0.3,0.3-0.4c0.1-0.2,0.1-0.3,0.1-0.5c0-0.2,0-0.4-0.1-0.5c-0.1-0.2-0.2-0.3-0.3-0.4c-0.1-0.1-0.3-0.2-0.4-0.3
			c-0.2-0.1-0.4-0.1-0.6-0.1c-0.2,0-0.4,0-0.6,0.1c-0.2,0.1-0.3,0.2-0.4,0.3c-0.1,0.1-0.2,0.3-0.3,0.4C44,54.2,44,54.4,44,54.5z"/>
		<path class="st1" d="M48.1,51.5c0-0.1,0-0.2,0.1-0.2c0.1-0.1,0.1-0.1,0.2-0.1c0.1,0,0.2,0,0.2,0.1c0.1,0.1,0.1,0.1,0.1,0.2
			c0,0.1,0,0.2-0.1,0.2c-0.1,0.1-0.1,0.1-0.2,0.1c-0.1,0-0.2,0-0.2-0.1C48.2,51.7,48.1,51.6,48.1,51.5z M48.2,52.9h0.4v3.4h-0.4
			V52.9z"/>
		<path class="st1" d="M52.6,54.8c0,0.2,0,0.3,0,0.4c0,0.1,0,0.3,0,0.4c0,0.1,0,0.2,0,0.3c0,0.1,0,0.2,0,0.3h-0.4c0-0.2,0-0.3,0-0.6
			h0c-0.1,0.2-0.3,0.4-0.5,0.5c-0.2,0.1-0.4,0.2-0.7,0.2c-0.1,0-0.3,0-0.4-0.1c-0.1,0-0.3-0.1-0.4-0.2C50,56,50,55.9,49.9,55.8
			c-0.1-0.1-0.1-0.3-0.1-0.5c0-0.3,0.1-0.5,0.2-0.6c0.1-0.2,0.3-0.3,0.5-0.3c0.2-0.1,0.4-0.1,0.6-0.1c0.2,0,0.4,0,0.6,0h0.5V54
			c0-0.3-0.1-0.5-0.3-0.6c-0.2-0.1-0.4-0.2-0.7-0.2c-0.4,0-0.7,0.1-1,0.4l-0.3-0.3c0.2-0.2,0.4-0.3,0.6-0.4c0.2-0.1,0.5-0.1,0.7-0.1
			c0.4,0,0.7,0.1,1,0.3c0.2,0.2,0.4,0.5,0.4,0.9V54.8z M51.7,54.5c-0.2,0-0.4,0-0.5,0c-0.2,0-0.3,0.1-0.5,0.1
			c-0.1,0.1-0.3,0.1-0.3,0.2c-0.1,0.1-0.1,0.2-0.1,0.4c0,0.1,0,0.2,0.1,0.3c0,0.1,0.1,0.1,0.2,0.2c0.1,0.1,0.2,0.1,0.2,0.1
			c0.1,0,0.2,0,0.3,0c0.2,0,0.4,0,0.6-0.1c0.2-0.1,0.3-0.2,0.4-0.3c0.1-0.1,0.2-0.2,0.2-0.4c0-0.1,0.1-0.3,0.1-0.4v-0.2H51.7z"/>
		<path class="st1" d="M55.8,51h0.5v2.3h0l2.5-2.3h0.7l-2.6,2.4l2.8,2.8h-0.7l-2.6-2.7h0v2.7h-0.5V51z"/>
		<path class="st1" d="M60.1,53.8c0-0.1,0-0.1,0-0.2c0-0.1,0-0.2,0-0.3c0-0.1,0-0.2,0-0.3c0-0.1,0-0.1,0-0.2h0.4c0,0.1,0,0.2,0,0.4
			c0,0.1,0,0.2,0,0.2h0c0.1-0.2,0.2-0.3,0.4-0.5c0.2-0.1,0.4-0.2,0.7-0.2c0.3,0,0.5,0,0.6,0.1c0.2,0.1,0.3,0.2,0.4,0.3
			c0.1,0.1,0.2,0.3,0.2,0.5c0,0.2,0.1,0.4,0.1,0.5v2h-0.4v-2c0-0.1,0-0.3,0-0.4c0-0.1-0.1-0.2-0.1-0.3c-0.1-0.1-0.1-0.2-0.3-0.2
			c-0.1-0.1-0.3-0.1-0.4-0.1c-0.2,0-0.3,0-0.5,0.1c-0.1,0.1-0.3,0.1-0.4,0.3c-0.1,0.1-0.2,0.3-0.2,0.4c-0.1,0.2-0.1,0.4-0.1,0.6v1.7
			h-0.4V53.8z"/>
		<path class="st1" d="M64,54.5c0-0.3,0-0.5,0.1-0.7c0.1-0.2,0.2-0.4,0.4-0.6c0.2-0.2,0.3-0.3,0.6-0.4c0.2-0.1,0.5-0.1,0.7-0.1
			s0.5,0,0.7,0.1c0.2,0.1,0.4,0.2,0.6,0.4c0.2,0.2,0.3,0.3,0.4,0.6c0.1,0.2,0.1,0.5,0.1,0.7c0,0.3,0,0.5-0.1,0.7
			c-0.1,0.2-0.2,0.4-0.4,0.6c-0.2,0.2-0.3,0.3-0.6,0.4c-0.2,0.1-0.5,0.1-0.7,0.1s-0.5,0-0.7-0.1c-0.2-0.1-0.4-0.2-0.6-0.4
			c-0.2-0.2-0.3-0.3-0.4-0.6C64.1,55,64,54.8,64,54.5z M64.4,54.5c0,0.2,0,0.4,0.1,0.5c0.1,0.2,0.2,0.3,0.3,0.4
			c0.1,0.1,0.3,0.2,0.4,0.3c0.2,0.1,0.4,0.1,0.6,0.1c0.2,0,0.4,0,0.6-0.1c0.2-0.1,0.3-0.2,0.4-0.3c0.1-0.1,0.2-0.3,0.3-0.4
			c0.1-0.2,0.1-0.3,0.1-0.5c0-0.2,0-0.4-0.1-0.5c-0.1-0.2-0.2-0.3-0.3-0.4c-0.1-0.1-0.3-0.2-0.4-0.3c-0.2-0.1-0.4-0.1-0.6-0.1
			c-0.2,0-0.4,0-0.6,0.1c-0.2,0.1-0.3,0.2-0.4,0.3c-0.1,0.1-0.2,0.3-0.3,0.4C64.5,54.2,64.4,54.4,64.4,54.5z"/>
		<path class="st1" d="M68.1,52.9h0.5l0.8,2.8h0l0.9-2.8h0.4l1,2.8h0l0.8-2.8H73l-1,3.4h-0.5l-1-2.8h0l-0.9,2.8h-0.5L68.1,52.9z"/>
		<path class="st1" d="M73.8,50.7h0.4v5.5h-0.4V50.7z"/>
		<path class="st1" d="M78.5,55.6c-0.2,0.3-0.4,0.4-0.6,0.6c-0.3,0.1-0.5,0.2-0.8,0.2c-0.3,0-0.5,0-0.7-0.1
			c-0.2-0.1-0.4-0.2-0.5-0.4c-0.2-0.2-0.3-0.3-0.3-0.6c-0.1-0.2-0.1-0.5-0.1-0.7c0-0.3,0-0.5,0.1-0.7s0.2-0.4,0.4-0.6
			c0.2-0.2,0.3-0.3,0.5-0.4c0.2-0.1,0.4-0.1,0.7-0.1c0.3,0,0.5,0,0.7,0.1c0.2,0.1,0.4,0.2,0.5,0.4c0.1,0.1,0.2,0.3,0.3,0.5
			c0.1,0.2,0.1,0.4,0.1,0.6v0.3h-2.8c0,0.1,0,0.2,0.1,0.4c0,0.1,0.1,0.3,0.2,0.4c0.1,0.1,0.2,0.3,0.4,0.4c0.2,0.1,0.4,0.1,0.6,0.1
			c0.2,0,0.4-0.1,0.7-0.2c0.2-0.1,0.4-0.3,0.5-0.4L78.5,55.6z M78.1,54.3c0-0.2,0-0.3-0.1-0.4c-0.1-0.1-0.1-0.2-0.2-0.3
			c-0.1-0.1-0.2-0.2-0.4-0.2c-0.1-0.1-0.3-0.1-0.5-0.1c-0.2,0-0.4,0-0.6,0.1c-0.2,0.1-0.3,0.2-0.4,0.3c-0.1,0.1-0.2,0.3-0.2,0.4
			c0,0.1-0.1,0.2-0.1,0.2H78.1z"/>
		<path class="st1" d="M82.5,55.6L82.5,55.6c-0.1,0.1-0.2,0.2-0.3,0.3c-0.1,0.1-0.2,0.2-0.3,0.2c-0.1,0.1-0.2,0.1-0.4,0.1
			c-0.1,0-0.3,0-0.4,0c-0.3,0-0.5,0-0.7-0.1c-0.2-0.1-0.4-0.2-0.6-0.4c-0.2-0.2-0.3-0.3-0.4-0.6c-0.1-0.2-0.1-0.5-0.1-0.7
			c0-0.3,0-0.5,0.1-0.7c0.1-0.2,0.2-0.4,0.4-0.6c0.2-0.2,0.3-0.3,0.6-0.4c0.2-0.1,0.5-0.1,0.7-0.1c0.1,0,0.3,0,0.4,0
			c0.1,0,0.3,0.1,0.4,0.1c0.1,0.1,0.2,0.1,0.3,0.2c0.1,0.1,0.2,0.2,0.3,0.3h0v-2.8H83v5.5h-0.4V55.6z M82.6,54.5
			c0-0.2,0-0.4-0.1-0.5c-0.1-0.2-0.2-0.3-0.3-0.4c-0.1-0.1-0.3-0.2-0.4-0.3c-0.2-0.1-0.4-0.1-0.6-0.1c-0.2,0-0.4,0-0.6,0.1
			c-0.2,0.1-0.3,0.2-0.4,0.3c-0.1,0.1-0.2,0.3-0.3,0.4c-0.1,0.2-0.1,0.3-0.1,0.5c0,0.2,0,0.4,0.1,0.5c0.1,0.2,0.2,0.3,0.3,0.4
			c0.1,0.1,0.3,0.2,0.4,0.3c0.2,0.1,0.4,0.1,0.6,0.1c0.2,0,0.4,0,0.6-0.1c0.2-0.1,0.3-0.2,0.4-0.3c0.1-0.1,0.2-0.3,0.3-0.4
			C82.5,54.9,82.6,54.7,82.6,54.5z"/>
		<path class="st1" d="M87.4,56c0,0.4-0.1,0.8-0.2,1c-0.1,0.3-0.3,0.5-0.5,0.6c-0.2,0.1-0.4,0.2-0.6,0.3C86,58,85.8,58,85.6,58
			c-0.2,0-0.3,0-0.5,0c-0.2,0-0.3-0.1-0.5-0.1s-0.3-0.1-0.4-0.2c-0.1-0.1-0.2-0.2-0.3-0.3l0.3-0.3c0.2,0.2,0.4,0.4,0.6,0.5
			c0.2,0.1,0.5,0.2,0.7,0.2c0.2,0,0.4,0,0.6-0.1c0.2-0.1,0.3-0.1,0.4-0.2c0.1-0.1,0.2-0.2,0.2-0.3c0.1-0.1,0.1-0.2,0.1-0.3
			c0-0.1,0-0.2,0-0.3s0-0.2,0-0.2v-0.5h0c-0.1,0.2-0.3,0.4-0.5,0.5c-0.2,0.1-0.5,0.2-0.8,0.2c-0.2,0-0.5,0-0.7-0.1
			c-0.2-0.1-0.4-0.2-0.6-0.4c-0.2-0.2-0.3-0.3-0.4-0.6c-0.1-0.2-0.1-0.4-0.1-0.7s0-0.5,0.1-0.7c0.1-0.2,0.2-0.4,0.4-0.6
			c0.2-0.2,0.4-0.3,0.6-0.4c0.2-0.1,0.5-0.1,0.7-0.1c0.3,0,0.5,0.1,0.8,0.2c0.2,0.1,0.4,0.3,0.5,0.5h0v-0.6h0.4V56z M87,54.5
			c0-0.2,0-0.4-0.1-0.5c-0.1-0.2-0.2-0.3-0.3-0.4c-0.1-0.1-0.3-0.2-0.4-0.3c-0.2-0.1-0.3-0.1-0.5-0.1c-0.2,0-0.4,0-0.5,0.1
			c-0.2,0.1-0.3,0.2-0.4,0.3c-0.1,0.1-0.2,0.3-0.3,0.4c-0.1,0.2-0.1,0.3-0.1,0.5c0,0.2,0,0.4,0.1,0.5c0.1,0.2,0.2,0.3,0.3,0.4
			c0.1,0.1,0.3,0.2,0.4,0.3c0.2,0.1,0.3,0.1,0.5,0.1c0.2,0,0.4,0,0.5-0.1c0.2-0.1,0.3-0.2,0.4-0.3c0.1-0.1,0.2-0.3,0.3-0.4
			C87,54.9,87,54.7,87,54.5z"/>
		<path class="st1" d="M91.5,55.6c-0.2,0.3-0.4,0.4-0.6,0.6c-0.3,0.1-0.5,0.2-0.8,0.2c-0.3,0-0.5,0-0.7-0.1
			c-0.2-0.1-0.4-0.2-0.5-0.4c-0.2-0.2-0.3-0.3-0.3-0.6c-0.1-0.2-0.1-0.5-0.1-0.7c0-0.3,0-0.5,0.1-0.7s0.2-0.4,0.4-0.6
			c0.2-0.2,0.3-0.3,0.5-0.4c0.2-0.1,0.4-0.1,0.7-0.1c0.3,0,0.5,0,0.7,0.1c0.2,0.1,0.4,0.2,0.5,0.4c0.1,0.1,0.2,0.3,0.3,0.5
			c0.1,0.2,0.1,0.4,0.1,0.6v0.3h-2.8c0,0.1,0,0.2,0.1,0.4c0,0.1,0.1,0.3,0.2,0.4c0.1,0.1,0.2,0.3,0.4,0.4c0.2,0.1,0.4,0.1,0.6,0.1
			c0.2,0,0.4-0.1,0.7-0.2c0.2-0.1,0.4-0.3,0.5-0.4L91.5,55.6z M91.2,54.3c0-0.2,0-0.3-0.1-0.4c-0.1-0.1-0.1-0.2-0.2-0.3
			c-0.1-0.1-0.2-0.2-0.4-0.2c-0.1-0.1-0.3-0.1-0.5-0.1c-0.2,0-0.4,0-0.6,0.1c-0.2,0.1-0.3,0.2-0.4,0.3c-0.1,0.1-0.2,0.3-0.2,0.4
			c0,0.1-0.1,0.2-0.1,0.2H91.2z"/>
		<path class="st1" d="M94.6,51h3.2v0.4h-2.7v1.8h2.5v0.4h-2.5v2h2.8v0.4h-3.3V51z"/>
		<path class="st1" d="M99.7,54.4l-1.2-1.6h0.6l0.9,1.3l0.9-1.3h0.6l-1.2,1.6l1.5,1.8h-0.6l-1.2-1.5l-1.2,1.5h-0.5L99.7,54.4z"/>
		<path class="st1" d="M105.2,55.7c-0.2,0.2-0.4,0.3-0.6,0.4c-0.2,0.1-0.4,0.1-0.7,0.1c-0.3,0-0.5,0-0.7-0.1
			c-0.2-0.1-0.4-0.2-0.6-0.4c-0.2-0.2-0.3-0.3-0.4-0.6c-0.1-0.2-0.1-0.5-0.1-0.7c0-0.3,0-0.5,0.1-0.7c0.1-0.2,0.2-0.4,0.4-0.6
			c0.2-0.2,0.3-0.3,0.6-0.4c0.2-0.1,0.5-0.1,0.7-0.1c0.2,0,0.5,0.1,0.7,0.2c0.2,0.1,0.4,0.2,0.6,0.4l-0.4,0.3
			c-0.1-0.1-0.3-0.3-0.4-0.3c-0.2-0.1-0.3-0.1-0.5-0.1c-0.2,0-0.4,0-0.6,0.1c-0.2,0.1-0.3,0.2-0.4,0.3c-0.1,0.1-0.2,0.3-0.3,0.4
			c-0.1,0.2-0.1,0.3-0.1,0.5c0,0.2,0,0.4,0.1,0.5c0.1,0.2,0.2,0.3,0.3,0.4c0.1,0.1,0.3,0.2,0.4,0.3c0.2,0.1,0.4,0.1,0.6,0.1
			c0.2,0,0.4,0,0.5-0.1c0.2-0.1,0.3-0.2,0.4-0.3L105.2,55.7z"/>
		<path class="st1" d="M105.9,50.7h0.4v2.8h0c0.1-0.2,0.2-0.3,0.4-0.5c0.2-0.1,0.4-0.2,0.7-0.2c0.3,0,0.5,0,0.6,0.1
			c0.2,0.1,0.3,0.2,0.4,0.3c0.1,0.1,0.2,0.3,0.2,0.5c0,0.2,0.1,0.4,0.1,0.5v2h-0.4v-2c0-0.1,0-0.3,0-0.4c0-0.1-0.1-0.2-0.1-0.3
			c-0.1-0.1-0.1-0.2-0.3-0.2c-0.1-0.1-0.3-0.1-0.4-0.1c-0.2,0-0.3,0-0.5,0.1c-0.1,0.1-0.3,0.1-0.4,0.3c-0.1,0.1-0.2,0.3-0.2,0.4
			c-0.1,0.2-0.1,0.4-0.1,0.6v1.7h-0.4V50.7z"/>
		<path class="st1" d="M112.6,54.8c0,0.2,0,0.3,0,0.4c0,0.1,0,0.3,0,0.4c0,0.1,0,0.2,0,0.3c0,0.1,0,0.2,0,0.3h-0.4
			c0-0.2,0-0.3,0-0.6h0c-0.1,0.2-0.3,0.4-0.5,0.5c-0.2,0.1-0.4,0.2-0.7,0.2c-0.1,0-0.3,0-0.4-0.1c-0.1,0-0.3-0.1-0.4-0.2
			c-0.1-0.1-0.2-0.2-0.3-0.3c-0.1-0.1-0.1-0.3-0.1-0.5c0-0.3,0.1-0.5,0.2-0.6c0.1-0.2,0.3-0.3,0.5-0.3c0.2-0.1,0.4-0.1,0.6-0.1
			c0.2,0,0.4,0,0.6,0h0.5V54c0-0.3-0.1-0.5-0.3-0.6c-0.2-0.1-0.4-0.2-0.7-0.2c-0.4,0-0.7,0.1-1,0.4l-0.3-0.3
			c0.2-0.2,0.4-0.3,0.6-0.4c0.2-0.1,0.5-0.1,0.7-0.1c0.4,0,0.7,0.1,1,0.3c0.2,0.2,0.4,0.5,0.4,0.9V54.8z M111.7,54.5
			c-0.2,0-0.4,0-0.5,0c-0.2,0-0.3,0.1-0.5,0.1c-0.1,0.1-0.3,0.1-0.3,0.2c-0.1,0.1-0.1,0.2-0.1,0.4c0,0.1,0,0.2,0.1,0.3
			c0,0.1,0.1,0.1,0.2,0.2c0.1,0.1,0.2,0.1,0.2,0.1c0.1,0,0.2,0,0.3,0c0.2,0,0.4,0,0.6-0.1c0.2-0.1,0.3-0.2,0.4-0.3
			c0.1-0.1,0.2-0.2,0.2-0.4c0-0.1,0.1-0.3,0.1-0.4v-0.2H111.7z"/>
		<path class="st1" d="M113.8,53.8c0-0.1,0-0.1,0-0.2c0-0.1,0-0.2,0-0.3c0-0.1,0-0.2,0-0.3c0-0.1,0-0.1,0-0.2h0.4c0,0.1,0,0.2,0,0.4
			c0,0.1,0,0.2,0,0.2h0c0.1-0.2,0.2-0.3,0.4-0.5c0.2-0.1,0.4-0.2,0.7-0.2c0.3,0,0.5,0,0.6,0.1c0.2,0.1,0.3,0.2,0.4,0.3
			c0.1,0.1,0.2,0.3,0.2,0.5c0,0.2,0.1,0.4,0.1,0.5v2h-0.4v-2c0-0.1,0-0.3,0-0.4c0-0.1-0.1-0.2-0.1-0.3c-0.1-0.1-0.1-0.2-0.3-0.2
			c-0.1-0.1-0.3-0.1-0.4-0.1c-0.2,0-0.3,0-0.5,0.1c-0.1,0.1-0.3,0.1-0.4,0.3c-0.1,0.1-0.2,0.3-0.2,0.4c-0.1,0.2-0.1,0.4-0.1,0.6v1.7
			h-0.4V53.8z"/>
		<path class="st1" d="M121.3,56c0,0.4-0.1,0.8-0.2,1c-0.1,0.3-0.3,0.5-0.5,0.6c-0.2,0.1-0.4,0.2-0.6,0.3c-0.2,0-0.4,0.1-0.6,0.1
			c-0.2,0-0.3,0-0.5,0c-0.2,0-0.3-0.1-0.5-0.1s-0.3-0.1-0.4-0.2c-0.1-0.1-0.2-0.2-0.3-0.3l0.3-0.3c0.2,0.2,0.4,0.4,0.6,0.5
			c0.2,0.1,0.5,0.2,0.7,0.2c0.2,0,0.4,0,0.6-0.1c0.2-0.1,0.3-0.1,0.4-0.2c0.1-0.1,0.2-0.2,0.2-0.3c0.1-0.1,0.1-0.2,0.1-0.3
			c0-0.1,0-0.2,0-0.3s0-0.2,0-0.2v-0.5h0c-0.1,0.2-0.3,0.4-0.5,0.5c-0.2,0.1-0.5,0.2-0.8,0.2c-0.2,0-0.5,0-0.7-0.1
			c-0.2-0.1-0.4-0.2-0.6-0.4c-0.2-0.2-0.3-0.3-0.4-0.6c-0.1-0.2-0.1-0.4-0.1-0.7s0-0.5,0.1-0.7c0.1-0.2,0.2-0.4,0.4-0.6
			c0.2-0.2,0.4-0.3,0.6-0.4c0.2-0.1,0.5-0.1,0.7-0.1c0.3,0,0.5,0.1,0.8,0.2c0.2,0.1,0.4,0.3,0.5,0.5h0v-0.6h0.4V56z M120.9,54.5
			c0-0.2,0-0.4-0.1-0.5c-0.1-0.2-0.2-0.3-0.3-0.4c-0.1-0.1-0.3-0.2-0.4-0.3c-0.2-0.1-0.3-0.1-0.5-0.1c-0.2,0-0.4,0-0.5,0.1
			c-0.2,0.1-0.3,0.2-0.4,0.3c-0.1,0.1-0.2,0.3-0.3,0.4c-0.1,0.2-0.1,0.3-0.1,0.5c0,0.2,0,0.4,0.1,0.5c0.1,0.2,0.2,0.3,0.3,0.4
			c0.1,0.1,0.3,0.2,0.4,0.3c0.2,0.1,0.3,0.1,0.5,0.1c0.2,0,0.4,0,0.5-0.1c0.2-0.1,0.3-0.2,0.4-0.3c0.1-0.1,0.2-0.3,0.3-0.4
			C120.8,54.9,120.9,54.7,120.9,54.5z"/>
		<path class="st1" d="M125.4,55.6c-0.2,0.3-0.4,0.4-0.6,0.6c-0.3,0.1-0.5,0.2-0.8,0.2c-0.3,0-0.5,0-0.7-0.1
			c-0.2-0.1-0.4-0.2-0.5-0.4c-0.2-0.2-0.3-0.3-0.3-0.6c-0.1-0.2-0.1-0.5-0.1-0.7c0-0.3,0-0.5,0.1-0.7s0.2-0.4,0.4-0.6
			c0.2-0.2,0.3-0.3,0.5-0.4c0.2-0.1,0.4-0.1,0.7-0.1c0.3,0,0.5,0,0.7,0.1c0.2,0.1,0.4,0.2,0.5,0.4c0.1,0.1,0.2,0.3,0.3,0.5
			c0.1,0.2,0.1,0.4,0.1,0.6v0.3h-2.8c0,0.1,0,0.2,0.1,0.4c0,0.1,0.1,0.3,0.2,0.4c0.1,0.1,0.2,0.3,0.4,0.4c0.2,0.1,0.4,0.1,0.6,0.1
			c0.2,0,0.4-0.1,0.7-0.2c0.2-0.1,0.4-0.3,0.5-0.4L125.4,55.6z M125,54.3c0-0.2,0-0.3-0.1-0.4c-0.1-0.1-0.1-0.2-0.2-0.3
			s-0.2-0.2-0.4-0.2c-0.1-0.1-0.3-0.1-0.5-0.1c-0.2,0-0.4,0-0.6,0.1c-0.2,0.1-0.3,0.2-0.4,0.3c-0.1,0.1-0.2,0.3-0.2,0.4
			c0,0.1-0.1,0.2-0.1,0.2H125z"/>
	</g>
</g>
</svg>
