<?xml version="1.0" encoding="utf-8"?>
<!-- Generator: Adobe Illustrator 19.2.1, SVG Export Plug-In . SVG Version: 6.00 Build 0)  -->
<svg version="1.1" id="Calque_1" xmlns="http://www.w3.org/2000/svg" xmlns:xlink="http://www.w3.org/1999/xlink" x="0px" y="0px"
	 viewBox="0 0 160 70" style="enable-background:new 0 0 160 70;" xml:space="preserve">
<style type="text/css">
	.st0{fill:none;}
	.st1{fill:#6A205F;}
</style>
<rect class="st0" width="160" height="70"/>
<g>
	<polygon id="_Tracé_" class="st1" points="46.1,24.7 39.8,24.7 33.1,31.5 26.3,24.7 20,24.7 29.9,35 20,45.2 26.3,45.2 33.1,38.4 
		39.8,45.2 46.1,45.2 36.2,35 	"/>
	<line class="st0" x1="109.2" y1="41.6" x2="109.2" y2="41.1"/>
	<line class="st0" x1="106.5" y1="43.9" x2="106.5" y2="44.4"/>
	<line class="st0" x1="85.3" y1="27.7" x2="85.3" y2="27.2"/>
	<line class="st0" x1="76.2" y1="36.3" x2="76.4" y2="36.6"/>
	<line class="st0" x1="73.2" y1="38.8" x2="73" y2="38.5"/>
	<line class="st0" x1="70.2" y1="41.4" x2="70.2" y2="41.9"/>
	<line class="st0" x1="72.8" y1="38.3" x2="72.6" y2="38"/>
	<line class="st0" x1="70.2" y1="40.4" x2="70.2" y2="40.9"/>
	<line class="st0" x1="85.3" y1="26.7" x2="85.3" y2="26.2"/>
	<line class="st0" x1="75.8" y1="35.7" x2="76" y2="36"/>
	<line class="st0" x1="124.4" y1="27.4" x2="124.4" y2="26.9"/>
	<line class="st0" x1="113.7" y1="37.8" x2="113.7" y2="38.3"/>
	<line class="st0" x1="124.4" y1="28.4" x2="124.4" y2="27.9"/>
	<line class="st0" x1="113.7" y1="38.8" x2="113.7" y2="39.3"/>
	<line class="st0" x1="72.4" y1="37.7" x2="72.1" y2="37.4"/>
	<line class="st0" x1="70.2" y1="39.4" x2="70.2" y2="39.9"/>
	<line class="st0" x1="85.3" y1="25.7" x2="85.3" y2="25.2"/>
	<line class="st0" x1="75.3" y1="35.2" x2="75.6" y2="35.5"/>
	<path class="st0" d="M56.5,28.6c-0.1,0-0.3-0.1-0.4-0.1"/>
	<path class="st0" d="M52.8,31.9c0.1,0,0.2,0.1,0.4,0.1"/>
	<line class="st0" x1="74.5" y1="40.5" x2="74.3" y2="40.2"/>
	<line class="st0" x1="70.2" y1="44.4" x2="70.2" y2="44.9"/>
	<line class="st0" x1="85.3" y1="30.7" x2="85.3" y2="30.2"/>
	<line class="st0" x1="77.6" y1="37.9" x2="77.8" y2="38.2"/>
	<line class="st0" x1="85.3" y1="31.6" x2="85.3" y2="31.2"/>
	<line class="st0" x1="78" y1="38.5" x2="78.2" y2="38.8"/>
	<line class="st0" x1="93.5" y1="25.5" x2="93.5" y2="25"/>
	<line class="st0" x1="89.7" y1="28.8" x2="89.7" y2="29.4"/>
	<line class="st0" x1="85.3" y1="32.6" x2="85.3" y2="32.1"/>
	<line class="st0" x1="78.4" y1="39.1" x2="78.7" y2="39.3"/>
	<line class="st0" x1="85.3" y1="28.7" x2="85.3" y2="28.2"/>
	<line class="st0" x1="76.7" y1="36.8" x2="76.9" y2="37.1"/>
	<line class="st0" x1="124.4" y1="26.4" x2="124.4" y2="25.9"/>
	<line class="st0" x1="113.7" y1="36.8" x2="113.7" y2="37.3"/>
	<line class="st0" x1="73.6" y1="39.4" x2="73.4" y2="39.1"/>
	<line class="st0" x1="70.2" y1="42.4" x2="70.2" y2="42.9"/>
	<line class="st0" x1="74.1" y1="40" x2="73.8" y2="39.7"/>
	<line class="st0" x1="70.2" y1="43.4" x2="70.2" y2="43.9"/>
	<line class="st0" x1="85.3" y1="29.7" x2="85.3" y2="29.2"/>
	<line class="st0" x1="77.1" y1="37.4" x2="77.3" y2="37.7"/>
	<line class="st0" x1="129.3" y1="28.5" x2="128.8" y2="28.5"/>
	<line class="st0" x1="116.1" y1="41.4" x2="116.6" y2="41.4"/>
	<line class="st0" x1="124.4" y1="42.4" x2="124.4" y2="41.9"/>
	<line class="st0" x1="122.3" y1="44.1" x2="122.3" y2="44.6"/>
	<line class="st0" x1="125.2" y1="40.7" x2="126.6" y2="38.8"/>
	<line class="st0" x1="122.3" y1="43.1" x2="122.3" y2="43.6"/>
	<line class="st0" x1="128" y1="36.9" x2="129.4" y2="35"/>
	<line class="st0" x1="122.3" y1="42.1" x2="122.3" y2="42.6"/>
	<path class="st0" d="M53.8,28.3c-0.2,0-0.4,0-0.6,0.1"/>
	<path class="st0" d="M51.3,30.4c0,0.1,0,0.3,0.1,0.4"/>
	<path class="st0" d="M54.8,28.3c-0.2,0-0.3,0-0.5,0"/>
	<path class="st0" d="M51.5,31.1c0.1,0.1,0.2,0.2,0.3,0.2"/>
	<path class="st0" d="M55.7,28.4c-0.1,0-0.3,0-0.4-0.1"/>
	<path class="st0" d="M52.1,31.5c0.1,0.1,0.2,0.1,0.3,0.2"/>
	<line class="st0" x1="130.8" y1="33.1" x2="132.2" y2="31.2"/>
	<polyline class="st0" points="122.1,41.4 122.3,41.4 122.3,41.6 	"/>
	<path class="st0" d="M52.6,28.6c-0.6,0.2-1,0.7-1.2,1.2"/>
	<line class="st0" x1="85.3" y1="33.6" x2="85.3" y2="33.1"/>
	<line class="st0" x1="78.9" y1="39.6" x2="79.1" y2="39.9"/>
	<line class="st0" x1="125.3" y1="28.5" x2="124.8" y2="28.5"/>
	<line class="st0" x1="113.7" y1="39.7" x2="113.7" y2="40.2"/>
	<line class="st0" x1="128.3" y1="28.5" x2="127.8" y2="28.5"/>
	<line class="st0" x1="115.1" y1="41.4" x2="115.6" y2="41.4"/>
	<line class="st0" x1="127.3" y1="28.5" x2="126.8" y2="28.5"/>
	<line class="st0" x1="114.1" y1="41.4" x2="114.6" y2="41.4"/>
	<polyline class="st0" points="133.5,29.3 134.1,28.5 133.8,28.5 	"/>
	<line class="st0" x1="121.1" y1="41.4" x2="121.6" y2="41.4"/>
	<line class="st0" x1="126.3" y1="28.5" x2="125.8" y2="28.5"/>
	<line class="st0" x1="113.7" y1="40.7" x2="113.7" y2="41.2"/>
	<line class="st0" x1="133.3" y1="28.5" x2="132.8" y2="28.5"/>
	<line class="st0" x1="120.1" y1="41.4" x2="120.6" y2="41.4"/>
	<line class="st0" x1="132.3" y1="28.5" x2="131.8" y2="28.5"/>
	<line class="st0" x1="119.1" y1="41.4" x2="119.6" y2="41.4"/>
	<line class="st0" x1="131.3" y1="28.5" x2="130.8" y2="28.5"/>
	<line class="st0" x1="118.1" y1="41.4" x2="118.6" y2="41.4"/>
	<line class="st0" x1="130.3" y1="28.5" x2="129.8" y2="28.5"/>
	<line class="st0" x1="117.1" y1="41.4" x2="117.6" y2="41.4"/>
	<polyline class="st0" points="71.9,37.1 71.8,37 70.6,38.5 	"/>
	<line class="st0" x1="93.5" y1="38.5" x2="93.5" y2="38"/>
	<line class="st0" x1="89.7" y1="41.7" x2="89.7" y2="42.4"/>
	<line class="st0" x1="109.2" y1="34.6" x2="109.2" y2="34.1"/>
	<line class="st0" x1="102.1" y1="41.4" x2="102.6" y2="41.4"/>
	<line class="st0" x1="93.5" y1="37.5" x2="93.5" y2="37"/>
	<line class="st0" x1="89.7" y1="40.7" x2="89.7" y2="41.4"/>
	<line class="st0" x1="109.2" y1="35.6" x2="109.2" y2="35.1"/>
	<line class="st0" x1="103.1" y1="41.4" x2="103.6" y2="41.4"/>
	<line class="st0" x1="93.5" y1="39.5" x2="93.5" y2="39"/>
	<line class="st0" x1="89.7" y1="42.7" x2="89.7" y2="43.4"/>
	<line class="st0" x1="109.2" y1="36.6" x2="109.2" y2="36.1"/>
	<line class="st0" x1="104.1" y1="41.4" x2="104.6" y2="41.4"/>
	<line class="st0" x1="93.5" y1="35.5" x2="93.5" y2="35"/>
	<line class="st0" x1="89.7" y1="38.8" x2="89.7" y2="39.4"/>
	<line class="st0" x1="85.3" y1="42.6" x2="85.3" y2="42.1"/>
	<line class="st0" x1="82.9" y1="44.6" x2="83.1" y2="44.9"/>
	<line class="st0" x1="109.2" y1="38.6" x2="109.2" y2="38.1"/>
	<polyline class="st0" points="106.1,41.4 106.5,41.4 106.5,41.4 	"/>
	<line class="st0" x1="93.5" y1="36.5" x2="93.5" y2="36"/>
	<line class="st0" x1="89.7" y1="39.7" x2="89.7" y2="40.4"/>
	<line class="st0" x1="109.2" y1="37.6" x2="109.2" y2="37.1"/>
	<line class="st0" x1="105.1" y1="41.4" x2="105.6" y2="41.4"/>
	<line class="st0" x1="109.2" y1="32.6" x2="109.2" y2="32.1"/>
	<line class="st0" x1="100.1" y1="41.4" x2="100.6" y2="41.4"/>
	<line class="st0" x1="109.2" y1="31.6" x2="109.2" y2="31.2"/>
	<line class="st0" x1="99.1" y1="41.4" x2="99.6" y2="41.4"/>
	<line class="st0" x1="109.2" y1="30.7" x2="109.2" y2="30.2"/>
	<line class="st0" x1="98.1" y1="41.4" x2="98.6" y2="41.4"/>
	<line class="st0" x1="109.2" y1="33.6" x2="109.2" y2="33.1"/>
	<line class="st0" x1="101.1" y1="41.4" x2="101.6" y2="41.4"/>
	<line class="st0" x1="109.2" y1="28.7" x2="109.2" y2="28.2"/>
	<line class="st0" x1="97.9" y1="39.5" x2="97.9" y2="40.1"/>
	<line class="st0" x1="109.2" y1="29.7" x2="109.2" y2="29.2"/>
	<line class="st0" x1="97.9" y1="40.5" x2="97.9" y2="41.1"/>
	<line class="st0" x1="109.2" y1="26.7" x2="109.2" y2="26.2"/>
	<line class="st0" x1="97.9" y1="37.5" x2="97.9" y2="38.1"/>
	<line class="st0" x1="109.2" y1="27.7" x2="109.2" y2="27.2"/>
	<line class="st0" x1="97.9" y1="38.5" x2="97.9" y2="39.1"/>
	<line class="st0" x1="109.2" y1="25.7" x2="109.2" y2="25.2"/>
	<line class="st0" x1="97.9" y1="36.5" x2="97.9" y2="37.1"/>
	<line class="st0" x1="109.2" y1="40.6" x2="109.2" y2="40.1"/>
	<line class="st0" x1="106.5" y1="42.9" x2="106.5" y2="43.4"/>
	<line class="st0" x1="93.5" y1="29.5" x2="93.5" y2="29"/>
	<line class="st0" x1="89.7" y1="32.8" x2="89.7" y2="33.4"/>
	<line class="st0" x1="85.3" y1="37.6" x2="85.3" y2="37.1"/>
	<line class="st0" x1="80.7" y1="41.8" x2="80.9" y2="42.1"/>
	<line class="st0" x1="85.3" y1="36.6" x2="85.3" y2="36.1"/>
	<line class="st0" x1="80.2" y1="41.3" x2="80.4" y2="41.6"/>
	<line class="st0" x1="85.3" y1="38.6" x2="85.3" y2="38.1"/>
	<line class="st0" x1="81.1" y1="42.4" x2="81.3" y2="42.7"/>
	<line class="st0" x1="93.5" y1="30.5" x2="93.5" y2="30"/>
	<line class="st0" x1="89.7" y1="33.8" x2="89.7" y2="34.4"/>
	<line class="st0" x1="85.3" y1="34.6" x2="85.3" y2="34.1"/>
	<line class="st0" x1="79.3" y1="40.2" x2="79.5" y2="40.4"/>
	<line class="st0" x1="93.5" y1="28.5" x2="93.5" y2="28"/>
	<line class="st0" x1="89.7" y1="31.8" x2="89.7" y2="32.4"/>
	<line class="st0" x1="93.5" y1="27.5" x2="93.5" y2="27"/>
	<line class="st0" x1="89.7" y1="30.8" x2="89.7" y2="31.4"/>
	<line class="st0" x1="85.3" y1="35.6" x2="85.3" y2="35.1"/>
	<line class="st0" x1="79.8" y1="40.7" x2="80" y2="41"/>
	<line class="st0" x1="93.5" y1="34.5" x2="93.5" y2="34"/>
	<line class="st0" x1="89.7" y1="37.8" x2="89.7" y2="38.4"/>
	<line class="st0" x1="109.2" y1="39.6" x2="109.2" y2="39.1"/>
	<line class="st0" x1="106.5" y1="41.9" x2="106.5" y2="42.4"/>
	<line class="st0" x1="93.5" y1="33.5" x2="93.5" y2="33"/>
	<line class="st0" x1="89.7" y1="36.8" x2="89.7" y2="37.4"/>
	<line class="st0" x1="85.3" y1="41.6" x2="85.3" y2="41.1"/>
	<line class="st0" x1="82.4" y1="44" x2="82.6" y2="44.3"/>
	<line class="st0" x1="85.3" y1="40.6" x2="85.3" y2="40.1"/>
	<line class="st0" x1="82" y1="43.5" x2="82.2" y2="43.8"/>
	<line class="st0" x1="85.3" y1="39.6" x2="85.3" y2="39.1"/>
	<line class="st0" x1="81.5" y1="42.9" x2="81.8" y2="43.2"/>
	<line class="st0" x1="93.5" y1="26.5" x2="93.5" y2="26"/>
	<line class="st0" x1="89.7" y1="29.8" x2="89.7" y2="30.4"/>
	<line class="st0" x1="124.4" y1="25.4" x2="124.4" y2="24.9"/>
	<line class="st0" x1="113.7" y1="35.8" x2="113.7" y2="36.3"/>
	<line class="st0" x1="93.5" y1="31.5" x2="93.5" y2="31"/>
	<line class="st0" x1="89.7" y1="34.8" x2="89.7" y2="35.4"/>
	<line class="st0" x1="93.5" y1="32.5" x2="93.5" y2="32"/>
	<line class="st0" x1="89.7" y1="35.8" x2="89.7" y2="36.4"/>
	<line class="st0" x1="93.5" y1="40.5" x2="93.5" y2="40"/>
	<line class="st0" x1="89.7" y1="43.7" x2="89.7" y2="44.4"/>
	<path class="st0" d="M59.2,29.9c-0.1-0.1-0.2-0.1-0.3-0.2"/>
	<path class="st0" d="M55.9,32.7l0.4,0.1"/>
	<line class="st0" x1="65.9" y1="38.1" x2="65.9" y2="37.6"/>
	<path class="st0" d="M62.7,40.8c-0.1,0.3-0.2,0.5-0.3,0.8"/>
	<path class="st0" d="M57.4,41.2c0.4-0.2,0.8-0.5,1-1"/>
	<line class="st0" x1="65.9" y1="33.1" x2="65.9" y2="32.6"/>
	<path class="st0" d="M62.3,36.3c0.1,0.1,0.1,0.2,0.2,0.3"/>
	<path class="st0" d="M58.6,39.5c0,0,0-0.1,0-0.1c0-0.1,0-0.2,0-0.3"/>
	<path class="st0" d="M56,41.6c0.2,0,0.4-0.1,0.6-0.1"/>
	<path class="st0" d="M59.8,30.3c-0.1-0.1-0.2-0.2-0.3-0.2"/>
	<path class="st0" d="M56.7,32.9l0.4,0.1"/>
	<path class="st0" d="M52.6,36.6c-0.1,0-0.3-0.1-0.4-0.1"/>
	<path class="st0" d="M49.1,39.5c0.1,0.1,0.2,0.2,0.3,0.2"/>
	<path class="st0" d="M51.8,36.3c-0.1,0-0.3-0.1-0.4-0.1"/>
	<path class="st0" d="M48.6,39c0.1,0.1,0.2,0.2,0.3,0.2"/>
	<line class="st0" x1="74.1" y1="28.9" x2="76.1" y2="26.5"/>
	<line class="st0" x1="70.2" y1="32.4" x2="70.2" y2="32.9"/>
	<line class="st0" x1="65.9" y1="37.1" x2="65.9" y2="36.6"/>
	<path class="st0" d="M62.9,39.6c0,0.2-0.1,0.4-0.1,0.6"/>
	<polyline class="st0" points="70.2,33.4 70.2,33.8 70.3,33.8 72.2,31.3 	"/>
	<path class="st0" d="M58.6,29.5c-0.1-0.1-0.2-0.1-0.3-0.2"/>
	<path class="st0" d="M55.1,32.5l0.4,0.1"/>
	<line class="st0" x1="65.9" y1="34.1" x2="65.9" y2="33.6"/>
	<path class="st0" d="M62.6,36.9c0,0.1,0.1,0.2,0.1,0.4"/>
	<line class="st0" x1="65.9" y1="36.1" x2="65.9" y2="35.6"/>
	<path class="st0" d="M63,38.6c0,0.1,0,0.3,0,0.4c0,0,0,0.1,0,0.1"/>
	<line class="st0" x1="65.9" y1="35.1" x2="65.9" y2="34.6"/>
	<path class="st0" d="M62.8,37.7c0,0.1,0,0.3,0.1,0.4"/>
	<path class="st0" d="M53.4,36.8l-0.4-0.1"/>
	<path class="st0" d="M49.7,39.9c0.1,0.1,0.2,0.1,0.3,0.2"/>
	<line class="st0" x1="65.9" y1="28.2" x2="65.9" y2="27.7"/>
	<path class="st0" d="M59.6,33.9c0.1,0.1,0.2,0.1,0.3,0.2"/>
	<line class="st0" x1="65.9" y1="30.2" x2="65.9" y2="29.7"/>
	<path class="st0" d="M60.9,34.7c0.1,0.1,0.2,0.1,0.3,0.2"/>
	<path class="st0" d="M57.9,38.2c-0.1-0.1-0.2-0.1-0.3-0.2"/>
	<path class="st0" d="M54,41.6c0.2,0,0.3,0,0.5,0"/>
	<path class="st0" d="M55.8,37.3l-0.4-0.1"/>
	<path class="st0" d="M51.6,41c0.1,0,0.2,0.1,0.4,0.1"/>
	<line class="st0" x1="65.9" y1="32.1" x2="65.9" y2="31.6"/>
	<path class="st0" d="M61.9,35.7c0.1,0.1,0.1,0.2,0.2,0.3"/>
	<path class="st0" d="M56.5,37.6c-0.1,0-0.2-0.1-0.4-0.1"/>
	<path class="st0" d="M52.3,41.3c0.1,0,0.3,0.1,0.4,0.1"/>
	<line class="st0" x1="65.9" y1="29.2" x2="65.9" y2="28.7"/>
	<path class="st0" d="M60.3,34.3c0.1,0.1,0.2,0.1,0.3,0.2"/>
	<path class="st0" d="M57.3,37.8c-0.1-0.1-0.2-0.1-0.4-0.1"/>
	<path class="st0" d="M53.1,41.5c0.1,0,0.3,0.1,0.4,0.1"/>
	<line class="st0" x1="65.9" y1="26.2" x2="65.9" y2="25.7"/>
	<path class="st0" d="M58.2,33.4c0.1,0,0.2,0.1,0.4,0.1"/>
	<path class="st0" d="M54.2,37l-0.4-0.1"/>
	<path class="st0" d="M50.3,40.3c0.1,0.1,0.2,0.1,0.3,0.2"/>
	<path class="st0" d="M58.4,38.7c-0.1-0.1-0.1-0.2-0.2-0.3"/>
	<path class="st0" d="M54.9,41.7H55c0.1,0,0.3,0,0.4,0"/>
	<path class="st0" d="M55,37.1L54.6,37"/>
	<path class="st0" d="M50.9,40.7c0.1,0.1,0.2,0.1,0.3,0.2"/>
	<line class="st0" x1="65.9" y1="31.2" x2="65.9" y2="30.7"/>
	<path class="st0" d="M61.4,35.1c0.1,0.1,0.2,0.2,0.2,0.3"/>
	<line class="st0" x1="65.9" y1="27.2" x2="65.9" y2="26.7"/>
	<path class="st0" d="M59,33.6c0.1,0,0.2,0.1,0.3,0.2"/>
	<path class="st0" d="M57.3,28.9c-0.1,0-0.3-0.1-0.4-0.1"/>
	<path class="st0" d="M53.5,32.1c0.1,0,0.3,0.1,0.4,0.1"/>
	<path class="st0" d="M58,29.2c-0.1-0.1-0.2-0.1-0.4-0.2"/>
	<path class="st0" d="M54.3,32.3l0.4,0.1"/>
	<path class="st1" d="M48.6,39l-0.5,0.5l-1.2,1.7l2-2C48.8,39.2,48.7,39.1,48.6,39z"/>
	<path class="st1" d="M54.6,24.5c-0.1,0-0.3,0-0.4,0l-7.3,7.3c0,0.1,0.1,0.3,0.1,0.4l7.7-7.7L54.6,24.5z"/>
	<path class="st1" d="M56.1,37.5c0.1,0,0.3,0.1,0.4,0.1l3.5-3.5c-0.1-0.1-0.2-0.1-0.3-0.2L56.1,37.5z"/>
	<path class="st1" d="M54.3,32.3l-3.6,3.6c0.1,0,0.2,0.1,0.4,0.1l3.7-3.7L54.3,32.3z"/>
	<path class="st1" d="M51.6,41l-3.1,3.1c0.1,0.1,0.2,0.1,0.3,0.2l3.1-3.1C51.8,41.1,51.7,41.1,51.6,41z"/>
	<path class="st1" d="M50.3,40.3l-3,3c0.1,0.1,0.2,0.1,0.3,0.2l3-3C50.5,40.5,50.4,40.4,50.3,40.3z"/>
	<path class="st1" d="M50.9,40.7l-3,3c0.1,0.1,0.2,0.1,0.3,0.2l3-3C51.1,40.8,51,40.7,50.9,40.7z"/>
	<path class="st1" d="M49.1,39.5l-2.9,2.9c0.1,0.1,0.2,0.2,0.3,0.2l2.9-2.9C49.3,39.6,49.2,39.6,49.1,39.5z"/>
	<path class="st1" d="M49.7,39.9l-2.9,2.9c0.1,0.1,0.2,0.2,0.3,0.2l3-3C49.9,40.1,49.8,40,49.7,39.9z"/>
	<path class="st1" d="M59.2,29.9l2.9-2.9c-0.1-0.1-0.2-0.2-0.3-0.2l-2.9,2.9C59,29.7,59.1,29.8,59.2,29.9z"/>
	<path class="st1" d="M51.5,31.1l-3.3,3.3c0.1,0.1,0.2,0.2,0.3,0.2l3.3-3.3C51.7,31.3,51.6,31.2,51.5,31.1z"/>
	<path class="st1" d="M54.8,28.3l3.4-3.4c-0.1,0-0.3-0.1-0.4-0.1l-3.5,3.5C54.5,28.3,54.6,28.3,54.8,28.3z"/>
	<path class="st1" d="M58,29.2l3-3c-0.1-0.1-0.2-0.1-0.3-0.2l-3,3C57.7,29,57.9,29.1,58,29.2z"/>
	<path class="st1" d="M53.8,28.3l3.6-3.6c-0.1,0-0.3-0.1-0.4-0.1l-3.7,3.7C53.4,28.4,53.6,28.3,53.8,28.3z"/>
	<path class="st1" d="M57.3,28.9l3.1-3.1c-0.1-0.1-0.2-0.1-0.3-0.2l-3.1,3.1C57,28.8,57.1,28.8,57.3,28.9z"/>
	<path class="st1" d="M55.7,28.4l3.3-3.3c-0.1,0-0.2-0.1-0.4-0.1l-3.3,3.3C55.4,28.4,55.5,28.4,55.7,28.4z"/>
	<path class="st1" d="M58.6,29.5l2.9-2.9c-0.1-0.1-0.2-0.1-0.3-0.2l-3,3C58.4,29.4,58.5,29.4,58.6,29.5z"/>
	<path class="st1" d="M52.6,28.6l4-4c-0.1,0-0.3,0-0.5-0.1l-8.7,8.7c0.1,0.1,0.1,0.2,0.2,0.3l3.8-3.8C51.5,29.3,51.9,28.8,52.6,28.6
		z"/>
	<path class="st1" d="M61.8,42.8l-1.1,1.1C61.1,43.6,61.5,43.2,61.8,42.8z"/>
	<path class="st1" d="M52.1,31.5l-3.3,3.3c0.1,0.1,0.2,0.1,0.3,0.2l3.4-3.4C52.3,31.7,52.2,31.6,52.1,31.5z"/>
	<path class="st1" d="M52.8,31.9l-3.4,3.4c0.1,0.1,0.2,0.1,0.3,0.2l3.5-3.5C53,31.9,52.9,31.9,52.8,31.9z"/>
	<path class="st1" d="M48.3,26.9l0.4-0.4C48.6,26.6,48.4,26.7,48.3,26.9z"/>
	<path class="st1" d="M51.3,30.4l-3.5,3.5c0.1,0.1,0.1,0.2,0.2,0.3l3.4-3.4C51.3,30.6,51.3,30.5,51.3,30.4z"/>
	<path class="st1" d="M50.3,25.4l-2.9,2.9c-0.1,0.3-0.2,0.5-0.3,0.8l4.1-4.1C50.8,25.1,50.5,25.3,50.3,25.4z"/>
	<path class="st1" d="M52.3,41.3l-3.1,3.1c0.1,0.1,0.2,0.1,0.4,0.2l3.2-3.2C52.6,41.3,52.5,41.3,52.3,41.3z"/>
	<path class="st1" d="M57.6,38c0.1,0.1,0.2,0.1,0.3,0.2l3.3-3.3c-0.1-0.1-0.2-0.2-0.3-0.2L57.6,38z"/>
	<path class="st1" d="M52.9,36.7l0.4,0.1l3.8-3.8l-0.4-0.1L52.9,36.7z"/>
	<path class="st1" d="M62.9,37.7L55,45.5c0.2,0,0.4,0,0.5,0l7.4-7.4C62.9,38,62.9,37.9,62.9,37.7z"/>
	<path class="st1" d="M58.5,39.1c0,0.1,0,0.2,0,0.3c0,0,0,0.1,0,0.1l3.6-3.6c-0.1-0.1-0.1-0.2-0.2-0.3L58.5,39.1z"/>
	<path class="st1" d="M59.8,30.3l1.8-1.8l0.9-1.2c0,0-0.1-0.1-0.1-0.1l-2.9,2.9C59.6,30.2,59.7,30.2,59.8,30.3z"/>
	<path class="st1" d="M54.2,37l3.7-3.7c-0.1,0-0.3-0.1-0.4-0.1l-3.7,3.7L54.2,37z"/>
	<path class="st1" d="M56.5,28.6l3.2-3.2c-0.1-0.1-0.2-0.1-0.4-0.1l-3.2,3.2C56.2,28.6,56.4,28.6,56.5,28.6z"/>
	<path class="st1" d="M51.4,36.2c0.1,0,0.3,0.1,0.4,0.1l3.7-3.7l-0.4-0.1L51.4,36.2z"/>
	<path class="st1" d="M56.9,37.7c0.1,0,0.2,0.1,0.4,0.1l3.4-3.4c-0.1-0.1-0.2-0.1-0.3-0.2L56.9,37.7z"/>
	<path class="st1" d="M52.2,36.4c0.1,0,0.3,0.1,0.4,0.1l3.8-3.8l-0.4-0.1L52.2,36.4z"/>
	<path class="st1" d="M63,39c0-0.1,0-0.3,0-0.4l-6.9,6.9c0.2,0,0.4,0,0.6-0.1l6.3-6.3C63,39.1,63,39,63,39z"/>
	<path class="st1" d="M63,39.6l-5.7,5.7c0.2,0,0.4-0.1,0.7-0.1l5-5C62.9,40,62.9,39.8,63,39.6z"/>
	<path class="st1" d="M62.8,40.8L58.6,45c0.3-0.1,0.6-0.2,0.8-0.3l3-3C62.6,41.3,62.7,41.1,62.8,40.8z"/>
	<path class="st1" d="M62.6,36.9l-8.6,8.6c0.2,0,0.3,0,0.5,0l8.2-8.2C62.7,37.2,62.7,37.1,62.6,36.9z"/>
	<path class="st1" d="M55.2,24.5l-8.1,8.1c0,0.1,0.1,0.2,0.1,0.4l8.4-8.4C55.5,24.5,55.3,24.5,55.2,24.5z"/>
	<path class="st1" d="M54.6,37l0.4,0.1l3.7-3.7c-0.1,0-0.2-0.1-0.4-0.1L54.6,37z"/>
	<path class="st1" d="M61.5,35.1l-3.3,3.3c0.1,0.1,0.2,0.2,0.2,0.3l3.3-3.3C61.6,35.3,61.5,35.2,61.5,35.1z"/>
	<path class="st1" d="M55.4,37.2l0.4,0.1l3.6-3.6c-0.1-0.1-0.2-0.1-0.4-0.2L55.4,37.2z"/>
	<path class="st1" d="M53.1,24.6l-6.3,6.3c0,0.2,0,0.3,0,0.5l6.8-6.8C53.5,24.5,53.3,24.5,53.1,24.6z"/>
	<path class="st1" d="M51.8,24.8l-5,5c0,0.2-0.1,0.4-0.1,0.6l5.7-5.7C52.3,24.7,52.1,24.7,51.8,24.8z"/>
	<path class="st1" d="M62.3,36.3l-3.9,3.9c-0.2,0.4-0.5,0.8-1,1l-4.3,4.3c0.2,0,0.3,0,0.5,0l8.9-8.9C62.4,36.5,62.4,36.4,62.3,36.3z
		"/>
	<path class="st1" d="M55,41.7h-0.1l-3.5,3.5c0.1,0,0.3,0.1,0.4,0.1l3.6-3.6C55.3,41.7,55.2,41.7,55,41.7z"/>
	<path class="st1" d="M56,41.6l-3.7,3.7c0.1,0,0.3,0,0.4,0.1l3.9-3.9C56.4,41.5,56.2,41.6,56,41.6z"/>
	<path class="st1" d="M54,41.6l-3.3,3.3c0.1,0,0.3,0.1,0.4,0.1l3.4-3.4C54.3,41.7,54.1,41.6,54,41.6z"/>
	<path class="st1" d="M53.1,41.5l-3.2,3.2c0.1,0,0.2,0.1,0.4,0.1l3.3-3.3C53.4,41.5,53.3,41.5,53.1,41.5z"/>
	<path class="st1" d="M60.1,30.6l0.1-0.1L60.1,30.6L60.1,30.6z"/>
	<path class="st1" d="M53.5,32.1L50,35.6c0.1,0.1,0.2,0.1,0.3,0.2l3.6-3.6C53.8,32.2,53.6,32.1,53.5,32.1z"/>
	<polygon class="st1" points="70.2,43.3 68.4,45.1 68.9,45.1 70.2,43.8 	"/>
	<polygon class="st1" points="70.2,44.3 69.4,45.1 69.9,45.1 70.2,44.8 	"/>
	<polygon class="st1" points="71.8,37 71.9,37.1 74.7,34.4 74.7,34.3 77.4,31.1 65.9,42.7 65.9,43.2 70.6,38.5 	"/>
	<polygon class="st1" points="72.4,37.7 75.1,34.9 74.9,34.6 72.1,37.4 	"/>
	<polygon class="st1" points="65.9,28.2 69.3,24.8 68.8,24.8 65.9,27.7 	"/>
	<polygon class="st1" points="70.2,42.3 67.4,45.1 67.9,45.1 70.2,42.8 	"/>
	<polygon class="st1" points="70.2,41.3 66.4,45.1 66.9,45.1 70.2,41.8 	"/>
	<polygon class="st1" points="65.9,26.2 67.3,24.8 66.8,24.8 65.9,25.7 	"/>
	<polygon class="st1" points="70.2,39.3 65.9,43.7 65.9,44.2 70.2,39.8 	"/>
	<polygon class="st1" points="65.9,27.2 68.3,24.8 67.8,24.8 65.9,26.7 	"/>
	<polygon class="st1" points="70.2,40.3 65.9,44.7 65.9,45.2 70.2,40.8 	"/>
	<polygon class="st1" points="73,38.5 73.2,38.8 76,36 75.8,35.7 	"/>
	<polygon class="st1" points="65.9,36.2 70.2,31.8 70.2,31.3 65.9,35.7 	"/>
	<polygon class="st1" points="74.1,28.9 78.3,24.8 77.8,24.8 76.1,26.5 	"/>
	<polygon class="st1" points="65.9,36.7 65.9,37.2 70.2,32.8 70.2,32.3 	"/>
	<polygon class="st1" points="72.6,38 72.8,38.3 75.6,35.5 75.4,35.2 	"/>
	<polygon class="st1" points="65.9,35.2 70.2,30.8 70.2,30.3 65.9,34.7 	"/>
	<polygon class="st1" points="65.9,24.8 65.9,25.2 66.3,24.8 	"/>
	<polygon class="st1" points="70.3,33.8 79.3,24.8 78.8,24.8 72.3,31.3 	"/>
	<polygon class="st1" points="65.9,37.7 65.9,38.2 70.2,33.8 70.2,33.3 	"/>
	<polygon class="st1" points="65.9,34.2 70.2,29.9 70.2,29.3 65.9,33.7 	"/>
	<polygon class="st1" points="73.9,39.7 74.1,40 76.9,37.1 76.7,36.8 	"/>
	<polygon class="st1" points="73.4,39.1 73.7,39.4 76.5,36.6 76.3,36.3 	"/>
	<polygon class="st1" points="65.9,29.2 70.2,24.9 70.2,24.8 69.8,24.8 65.9,28.7 	"/>
	<polygon class="st1" points="65.9,30.2 70.2,25.9 70.2,25.4 65.9,29.7 	"/>
	<polygon class="st1" points="65.9,32.2 70.2,27.9 70.2,27.4 65.9,31.7 	"/>
	<polygon class="st1" points="65.9,33.2 70.2,28.9 70.2,28.3 65.9,32.7 	"/>
	<polygon class="st1" points="74.3,40.2 74.5,40.5 77.4,37.7 77.1,37.4 	"/>
	<polygon class="st1" points="65.9,31.2 70.2,26.9 70.2,26.4 65.9,30.7 	"/>
	<polygon class="st1" points="81.8,24.8 65.9,40.7 65.9,41.2 82.3,24.8 	"/>
	<polygon class="st1" points="80.8,24.8 65.9,39.7 65.9,40.2 81.3,24.8 	"/>
	<polygon class="st1" points="79.8,40.7 76.9,43.7 77.1,43.9 80,41 	"/>
	<polygon class="st1" points="82,43.5 80.3,45.1 80.8,45.1 82.2,43.7 	"/>
	<polygon class="st1" points="82.9,44.6 82.3,45.1 82.8,45.1 83.1,44.8 	"/>
	<polygon class="st1" points="79.4,40.2 76.4,43.1 76.7,43.4 79.6,40.4 	"/>
	<polygon class="st1" points="80.7,41.8 77.7,44.8 77.9,45.1 80.9,42.1 	"/>
	<polygon class="st1" points="80.2,41.3 77.3,44.2 77.5,44.5 80.5,41.6 	"/>
	<polygon class="st1" points="82.5,44 81.3,45.1 81.8,45.1 82.7,44.3 	"/>
	<polygon class="st1" points="83.4,45.2 83.3,45.2 83.3,45.2 	"/>
	<polygon class="st1" points="81.1,42.4 78.3,45.1 78.8,45.1 81.3,42.6 	"/>
	<polygon class="st1" points="78,38.5 75.1,41.4 75.4,41.7 78.2,38.8 	"/>
	<polygon class="st1" points="78.5,39.1 75.6,41.9 75.8,42.2 78.7,39.3 	"/>
	<polygon class="st1" points="81.6,42.9 79.3,45.1 79.8,45.1 81.8,43.2 	"/>
	<polygon class="st1" points="79.8,24.8 65.9,38.7 65.9,39.2 80.3,24.8 	"/>
	<polygon class="st1" points="78.9,39.6 76,42.5 76.2,42.8 79.1,39.9 	"/>
	<polygon class="st1" points="82.8,24.8 82.8,24.8 65.9,41.7 65.9,42.2 80.1,28 	"/>
	<polygon class="st1" points="77.6,37.9 74.7,40.8 74.9,41.1 77.8,38.2 	"/>
	<polygon class="st1" points="89.7,42.8 87.3,45.1 87.8,45.1 89.7,43.3 	"/>
	<polygon class="st1" points="85.3,25.7 86.3,24.8 85.8,24.8 85.3,25.2 	"/>
	<polygon class="st1" points="85.3,27.7 88.3,24.8 87.8,24.8 85.3,27.2 	"/>
	<polygon class="st1" points="85.3,26.7 87.3,24.8 86.8,24.8 85.3,26.2 	"/>
	<polygon class="st1" points="89.7,43.8 88.3,45.1 88.8,45.1 89.7,44.3 	"/>
	<polygon class="st1" points="89.7,40.8 85.3,45.1 85.3,45.1 85.8,45.1 89.7,41.3 	"/>
	<polygon class="st1" points="89.7,39.8 85.3,44.2 85.3,44.7 89.7,40.3 	"/>
	<polygon class="st1" points="89.7,38.8 85.3,43.2 85.3,43.7 89.7,39.3 	"/>
	<polygon class="st1" points="89.7,41.8 86.3,45.1 86.8,45.1 89.7,42.3 	"/>
	<polygon class="st1" points="85.3,28.7 89.3,24.8 88.8,24.8 85.3,28.2 	"/>
	<polygon class="st1" points="85.3,35.2 85.3,35.7 89.7,31.3 89.7,30.8 	"/>
	<polygon class="st1" points="85.3,38.2 85.3,38.7 89.7,34.3 89.7,33.8 	"/>
	<polygon class="st1" points="85.3,36.2 85.3,36.7 89.7,32.3 89.7,31.8 	"/>
	<polygon class="st1" points="85.3,39.2 85.3,39.7 89.7,35.3 89.7,34.8 	"/>
	<polygon class="st1" points="85.3,37.2 85.3,37.7 89.7,33.3 89.7,32.8 	"/>
	<polygon class="st1" points="85.3,42.2 85.3,42.7 89.7,38.3 89.7,37.8 	"/>
	<polygon class="st1" points="85.3,41.2 85.3,41.7 89.7,37.3 89.7,36.8 	"/>
	<polygon class="st1" points="85.3,40.2 85.3,40.7 89.7,36.3 89.7,35.8 	"/>
	<polygon class="st1" points="85.3,31.7 89.7,27.4 89.7,26.8 85.3,31.2 	"/>
	<polygon class="st1" points="85.3,33.2 85.3,33.7 89.7,29.4 89.7,28.8 	"/>
	<polygon class="st1" points="85.3,29.7 89.7,25.4 89.7,24.9 85.3,29.2 	"/>
	<polygon class="st1" points="89.7,45.1 89.7,44.8 89.3,45.1 	"/>
	<polygon class="st1" points="85.3,30.7 89.7,26.4 89.7,25.9 85.3,30.2 	"/>
	<polygon class="st1" points="85.3,32.7 89.7,28.4 89.7,27.8 85.3,32.2 	"/>
	<polygon class="st1" points="85.3,34.2 85.3,34.7 89.7,30.3 89.7,29.8 	"/>
	<polygon class="st1" points="93.5,30.5 97.9,26.1 97.9,25.6 93.5,30 	"/>
	<polygon class="st1" points="93.5,31.5 97.9,27.1 97.9,26.6 93.5,31 	"/>
	<polygon class="st1" points="93.5,28.5 97.2,24.8 96.7,24.8 93.5,28 	"/>
	<polygon class="st1" points="106.5,45.1 106.5,44.9 106.3,45.1 	"/>
	<polygon class="st1" points="93.5,29.5 97.9,25.1 97.9,24.8 97.7,24.8 93.5,29 	"/>
	<polygon class="st1" points="93.5,26.5 95.3,24.8 94.7,24.8 93.5,26 	"/>
	<polygon class="st1" points="93.5,25.5 94.3,24.8 93.7,24.8 93.5,25 	"/>
	<polygon class="st1" points="93.5,27.5 96.2,24.8 95.7,24.8 93.5,27 	"/>
	<polygon class="st1" points="93.5,32.5 97.9,28.1 97.9,27.6 93.5,32 	"/>
	<polygon class="st1" points="93.5,40.5 97.9,36.1 97.9,35.6 93.5,39.9 	"/>
	<polygon class="st1" points="99.1,41.4 95.3,45.1 95.8,45.1 99.6,41.4 	"/>
	<polygon class="st1" points="93.5,35.5 97.9,31.1 97.9,30.6 93.5,35 	"/>
	<polygon class="st1" points="93.5,39.5 97.9,35.1 97.9,34.6 93.5,38.9 	"/>
	<polygon class="st1" points="104.1,41.4 100.3,45.1 100.8,45.1 104.6,41.4 	"/>
	<polygon class="st1" points="98.1,41.4 94.3,45.1 94.8,45.1 98.6,41.4 	"/>
	<polygon class="st1" points="105.1,41.4 101.3,45.1 101.8,45.1 105.6,41.4 	"/>
	<polygon class="st1" points="100.1,41.4 96.3,45.1 96.8,45.1 100.6,41.4 	"/>
	<polygon class="st1" points="93.5,37.5 97.9,33.1 97.9,32.6 93.5,37 	"/>
	<polygon class="st1" points="103.1,41.4 99.3,45.1 99.8,45.1 103.6,41.4 	"/>
	<polygon class="st1" points="106.5,41.4 106.1,41.4 102.3,45.1 102.8,45.1 106.5,41.4 	"/>
	<polygon class="st1" points="102.1,41.4 98.3,45.1 98.8,45.1 102.6,41.4 	"/>
	<polygon class="st1" points="101.1,41.4 97.3,45.1 97.8,45.1 101.6,41.4 	"/>
	<polygon class="st1" points="93.5,36.5 97.9,32.1 97.9,31.6 93.5,36 	"/>
	<polygon class="st1" points="97.9,38.6 93.5,42.9 93.5,43.4 97.9,39.1 	"/>
	<polygon class="st1" points="97.9,37.6 93.5,41.9 93.5,42.4 97.9,38.1 	"/>
	<polygon class="st1" points="106.5,41.9 103.3,45.1 103.8,45.1 106.5,42.4 	"/>
	<polygon class="st1" points="97.9,36.6 93.5,40.9 93.5,41.4 97.9,37.1 	"/>
	<polygon class="st1" points="93.5,33.5 97.9,29.1 97.9,28.6 93.5,33 	"/>
	<polygon class="st1" points="93.5,38.5 97.9,34.1 97.9,33.6 93.5,38 	"/>
	<polygon class="st1" points="106.5,43.9 105.3,45.1 105.8,45.1 106.5,44.4 	"/>
	<polygon class="st1" points="106.5,42.9 104.3,45.1 104.8,45.1 106.5,43.4 	"/>
	<polygon class="st1" points="93.5,34.5 97.9,30.1 97.9,29.6 93.5,34 	"/>
	<polygon class="st1" points="97.9,40.6 93.5,44.9 93.5,45.1 93.8,45.1 97.9,41.1 	"/>
	<polygon class="st1" points="97.9,39.6 93.5,43.9 93.5,44.4 97.9,40.1 	"/>
	<polygon class="st1" points="121,41.4 117.2,45.1 117.7,45.1 121.5,41.4 	"/>
	<polygon class="st1" points="109.2,36.7 113.7,32.3 113.7,31.8 109.2,36.2 	"/>
	<polygon class="st1" points="122.3,41.4 122,41.4 118.2,45.1 118.7,45.1 122.3,41.6 	"/>
	<polygon class="st1" points="109.2,35.7 113.7,31.3 113.7,30.8 109.2,35.2 	"/>
	<polygon class="st1" points="120,41.4 116.2,45.1 116.7,45.1 120.5,41.4 	"/>
	<polygon class="st1" points="109.2,37.7 113.7,33.3 113.7,32.8 109.2,37.2 	"/>
	<polygon class="st1" points="109.2,34.7 113.7,30.3 113.7,29.8 109.2,34.2 	"/>
	<polygon class="st1" points="109.2,39.7 113.7,35.3 113.7,34.8 109.2,39.2 	"/>
	<polygon class="st1" points="109.2,38.7 113.7,34.3 113.7,33.8 109.2,38.2 	"/>
	<polygon class="st1" points="122.3,43.1 120.2,45.1 120.7,45.1 122.3,43.6 	"/>
	<polygon class="st1" points="122.3,44.1 121.2,45.1 121.7,45.1 122.3,44.6 	"/>
	<polygon class="st1" points="122.3,42.1 119.2,45.1 119.7,45.1 122.3,42.6 	"/>
	<polygon class="st1" points="109.2,41.1 109.2,41.7 113.7,37.3 113.7,36.8 	"/>
	<polygon class="st1" points="109.2,33.7 113.7,29.3 113.7,28.8 109.2,33.2 	"/>
	<polygon class="st1" points="109.2,40.2 109.2,40.7 113.7,36.3 113.7,35.8 	"/>
	<polygon class="st1" points="109.2,27.7 112.2,24.8 111.7,24.8 109.2,27.2 	"/>
	<polygon class="st1" points="113.7,39.8 109.2,44.1 109.2,44.6 113.7,40.3 	"/>
	<polygon class="st1" points="109.2,26.7 111.2,24.8 110.7,24.8 109.2,26.2 	"/>
	<polygon class="st1" points="114.1,41.4 110.2,45.1 110.7,45.1 114.6,41.4 	"/>
	<polygon class="st1" points="109.2,28.7 113.2,24.8 112.7,24.8 109.2,28.2 	"/>
	<polygon class="st1" points="115.1,41.4 111.2,45.1 111.7,45.1 115.6,41.4 	"/>
	<polygon class="st1" points="113.7,38.8 109.2,43.1 109.2,43.6 113.7,39.3 	"/>
	<polygon class="st1" points="109.2,25.7 110.2,24.8 109.7,24.8 109.2,25.2 	"/>
	<polygon class="st1" points="113.7,37.8 109.2,42.1 109.2,42.7 113.7,38.3 	"/>
	<polygon class="st1" points="119,41.4 115.2,45.1 115.7,45.1 119.6,41.4 	"/>
	<polygon class="st1" points="118,41.4 114.2,45.1 114.7,45.1 118.6,41.4 	"/>
	<polygon class="st1" points="109.2,31.7 113.7,27.3 113.7,26.8 109.2,31.2 	"/>
	<polygon class="st1" points="116.1,41.4 112.2,45.1 112.7,45.1 116.6,41.4 	"/>
	<polygon class="st1" points="109.2,32.7 113.7,28.3 113.7,27.8 109.2,32.2 	"/>
	<polygon class="st1" points="117.1,41.4 113.2,45.1 113.7,45.1 117.6,41.4 	"/>
	<polygon class="st1" points="109.2,29.7 113.7,25.3 113.7,24.8 109.2,29.2 	"/>
	<polygon class="st1" points="109.2,30.7 113.7,26.3 113.7,25.8 109.2,30.2 	"/>
	<polygon class="st1" points="113.7,40.8 109.2,45.1 109.2,45.1 109.7,45.1 113.7,41.3 	"/>
	<polygon class="st1" points="122.3,45.2 122.3,45.1 122.2,45.2 	"/>
	<polygon class="st1" points="133,41.4 129.2,45.1 129.7,45.1 133.5,41.4 	"/>
	<polygon class="st1" points="140,41.4 140,41.4 136.2,45.1 136.7,45.1 140,41.8 	"/>
	<polygon class="st1" points="140,42.3 137.2,45.1 137.7,45.1 140,42.8 	"/>
	<polygon class="st1" points="134,41.4 130.2,45.1 130.7,45.1 134.5,41.4 	"/>
	<polygon class="st1" points="139,41.4 135.2,45.1 135.7,45.1 139.5,41.4 	"/>
	<polygon class="st1" points="131.3,28.5 135.1,24.8 134.6,24.8 130.8,28.5 	"/>
	<polygon class="st1" points="125.1,40.7 139.8,26.1 139.8,25.6 126.5,38.8 	"/>
	<polygon class="st1" points="127.9,36.9 139.8,25.1 139.8,24.8 139.6,24.8 129.4,35 	"/>
	<polygon class="st1" points="124.4,26.5 126.2,24.8 125.6,24.8 124.4,26 	"/>
	<polygon class="st1" points="140,43.3 138.2,45.1 138.7,45.1 140,43.8 	"/>
	<polygon class="st1" points="135,41.4 131.2,45.1 131.7,45.1 135.5,41.4 	"/>
	<polygon class="st1" points="124.4,42.4 139.8,27.1 139.8,26.6 124.4,41.9 	"/>
	<polygon class="st1" points="138,41.4 134.2,45.1 134.7,45.1 138.5,41.4 	"/>
	<polygon class="st1" points="130.7,33.2 139.1,24.8 138.6,24.8 132.2,31.2 	"/>
	<polygon class="st1" points="130.2,41.4 130.6,40.8 126.2,45.1 126.7,45.1 130.5,41.4 	"/>
	<polygon class="st1" points="133.3,37 125.2,45.1 125.7,45.1 131.9,38.9 	"/>
	<polygon class="st1" points="132.3,28.5 136.1,24.8 135.6,24.8 131.8,28.5 	"/>
	<polygon class="st1" points="136.1,33.2 124.4,44.9 124.4,45.1 124.7,45.1 134.7,35.1 	"/>
	<polygon class="st1" points="138.9,29.5 124.4,43.9 124.4,44.4 137.4,31.4 	"/>
	<polygon class="st1" points="129.3,28.5 133.1,24.8 132.6,24.8 128.8,28.5 	"/>
	<polygon class="st1" points="139.8,27.6 124.4,42.9 124.4,43.4 139.8,28.1 	"/>
	<polygon class="st1" points="131,41.4 127.2,45.1 127.7,45.1 131.5,41.4 	"/>
	<polygon class="st1" points="132,41.4 128.2,45.1 128.7,45.1 132.5,41.4 	"/>
	<polygon class="st1" points="136,41.4 132.2,45.1 132.7,45.1 136.5,41.4 	"/>
	<polygon class="st1" points="130.3,28.5 134.1,24.8 133.6,24.8 129.8,28.5 	"/>
	<polygon class="st1" points="137,41.4 133.2,45.1 133.7,45.1 137.5,41.4 	"/>
	<polygon class="st1" points="124.4,25.5 125.2,24.8 124.7,24.8 124.4,25 	"/>
	<polygon class="st1" points="124.4,27.5 127.2,24.8 126.6,24.8 124.4,27 	"/>
	<polygon class="st1" points="127.3,28.5 131.1,24.8 130.6,24.8 126.8,28.5 	"/>
	<polygon class="st1" points="133.3,28.5 137.1,24.8 136.6,24.8 132.8,28.5 	"/>
	<polygon class="st1" points="124.4,28.5 128.1,24.8 127.6,24.8 124.4,27.9 	"/>
	<polygon class="st1" points="125.3,28.5 129.1,24.8 128.6,24.8 124.8,28.5 	"/>
	<polygon class="st1" points="128.3,28.5 132.1,24.8 131.6,24.8 127.8,28.5 	"/>
	<polygon class="st1" points="134.1,28.5 133.5,29.3 138.1,24.8 137.6,24.8 133.8,28.5 	"/>
	<polygon class="st1" points="126.3,28.5 130.1,24.8 129.6,24.8 125.8,28.5 	"/>
	<polygon class="st1" points="140,44.3 139.1,45.1 139.7,45.1 140,44.8 	"/>
	<line class="st0" x1="47.3" y1="28.3" x2="50.3" y2="25.4"/>
	<line class="st0" x1="48.7" y1="26.4" x2="48.3" y2="26.9"/>
	<line class="st0" x1="46.9" y1="29.8" x2="51.8" y2="24.8"/>
	<line class="st0" x1="51.1" y1="25" x2="47" y2="29.1"/>
	<line class="st0" x1="46.8" y1="30.8" x2="53.1" y2="24.6"/>
	<line class="st0" x1="52.5" y1="24.7" x2="46.8" y2="30.3"/>
	<line class="st0" x1="46.9" y1="31.7" x2="54.2" y2="24.5"/>
	<line class="st0" x1="53.7" y1="24.5" x2="46.8" y2="31.3"/>
	<line class="st0" x1="47.1" y1="32.5" x2="55.2" y2="24.5"/>
	<line class="st0" x1="54.7" y1="24.5" x2="47" y2="32.2"/>
	<line class="st0" x1="47.4" y1="33.2" x2="56.1" y2="24.5"/>
	<line class="st0" x1="55.6" y1="24.5" x2="47.2" y2="32.9"/>
	<line class="st0" x1="53.2" y1="28.4" x2="57" y2="24.7"/>
	<line class="st0" x1="47.8" y1="33.9" x2="51.3" y2="30.4"/>
	<line class="st0" x1="51.4" y1="29.8" x2="47.6" y2="33.6"/>
	<line class="st0" x1="56.5" y1="24.6" x2="52.6" y2="28.6"/>
	<line class="st0" x1="54.3" y1="28.3" x2="57.8" y2="24.8"/>
	<line class="st0" x1="48.2" y1="34.4" x2="51.5" y2="31.1"/>
	<line class="st0" x1="51.4" y1="30.8" x2="48" y2="34.1"/>
	<line class="st0" x1="57.4" y1="24.7" x2="53.8" y2="28.3"/>
	<line class="st0" x1="55.2" y1="28.4" x2="58.6" y2="25.1"/>
	<line class="st0" x1="48.8" y1="34.9" x2="52.1" y2="31.5"/>
	<line class="st0" x1="51.8" y1="31.3" x2="48.5" y2="34.6"/>
	<line class="st0" x1="58.2" y1="24.9" x2="54.8" y2="28.3"/>
	<line class="st0" x1="56.1" y1="28.5" x2="59.3" y2="25.3"/>
	<line class="st0" x1="49.4" y1="35.3" x2="52.8" y2="31.9"/>
	<line class="st0" x1="52.4" y1="31.7" x2="49.1" y2="35.1"/>
	<line class="st0" x1="59" y1="25.2" x2="55.7" y2="28.4"/>
	<line class="st0" x1="56.9" y1="28.7" x2="60" y2="25.6"/>
	<line class="st0" x1="50" y1="35.6" x2="53.5" y2="32.1"/>
	<line class="st0" x1="53.1" y1="32" x2="49.7" y2="35.5"/>
	<line class="st0" x1="59.7" y1="25.5" x2="56.5" y2="28.6"/>
	<line class="st0" x1="57.6" y1="29" x2="60.7" y2="26"/>
	<line class="st0" x1="50.7" y1="35.9" x2="54.3" y2="32.3"/>
	<line class="st0" x1="53.9" y1="32.2" x2="50.3" y2="35.8"/>
	<line class="st0" x1="60.3" y1="25.8" x2="57.3" y2="28.9"/>
	<line class="st0" x1="58.3" y1="29.3" x2="61.3" y2="26.3"/>
	<line class="st0" x1="51.4" y1="36.2" x2="55.1" y2="32.5"/>
	<line class="st0" x1="48.1" y1="39.5" x2="48.6" y2="39"/>
	<line class="st0" x1="54.7" y1="32.4" x2="51" y2="36.1"/>
	<line class="st0" x1="61" y1="26.2" x2="58" y2="29.2"/>
	<line class="st0" x1="58.9" y1="29.7" x2="61.9" y2="26.8"/>
	<line class="st0" x1="52.2" y1="36.5" x2="55.9" y2="32.7"/>
	<line class="st0" x1="46.2" y1="42.4" x2="49.1" y2="39.5"/>
	<line class="st0" x1="48.9" y1="39.2" x2="46.9" y2="41.2"/>
	<line class="st0" x1="55.5" y1="32.6" x2="51.8" y2="36.3"/>
	<line class="st0" x1="61.6" y1="26.6" x2="58.6" y2="29.5"/>
	<line class="st0" x1="59.5" y1="30.1" x2="62.4" y2="27.2"/>
	<line class="st0" x1="52.9" y1="36.7" x2="56.7" y2="32.9"/>
	<line class="st0" x1="46.8" y1="42.9" x2="49.7" y2="39.9"/>
	<line class="st0" x1="49.4" y1="39.7" x2="46.5" y2="42.6"/>
	<line class="st0" x1="56.3" y1="32.8" x2="52.6" y2="36.6"/>
	<line class="st0" x1="62.1" y1="27" x2="59.2" y2="29.9"/>
	<line class="st0" x1="60.1" y1="30.5" x2="60.2" y2="30.4"/>
	<line class="st0" x1="53.7" y1="36.9" x2="57.5" y2="33.1"/>
	<line class="st0" x1="47.3" y1="43.3" x2="50.3" y2="40.3"/>
	<line class="st0" x1="50" y1="40.1" x2="47" y2="43.1"/>
	<line class="st0" x1="57.1" y1="33" x2="53.4" y2="36.8"/>
	<line class="st0" x1="61.6" y1="28.5" x2="59.8" y2="30.3"/>
	<line class="st0" x1="65.9" y1="25.7" x2="66.8" y2="24.8"/>
	<line class="st0" x1="54.6" y1="37" x2="58.3" y2="33.4"/>
	<line class="st0" x1="47.9" y1="43.7" x2="50.9" y2="40.7"/>
	<line class="st0" x1="50.6" y1="40.5" x2="47.6" y2="43.5"/>
	<line class="st0" x1="57.9" y1="33.2" x2="54.2" y2="37"/>
	<line class="st0" x1="66.3" y1="24.8" x2="65.9" y2="25.2"/>
	<line class="st0" x1="65.9" y1="26.7" x2="67.8" y2="24.8"/>
	<line class="st0" x1="55.4" y1="37.2" x2="59" y2="33.6"/>
	<line class="st0" x1="48.5" y1="44.1" x2="51.6" y2="41"/>
	<line class="st0" x1="51.3" y1="40.9" x2="48.2" y2="43.9"/>
	<line class="st0" x1="58.6" y1="33.5" x2="55" y2="37.1"/>
	<line class="st0" x1="67.3" y1="24.8" x2="65.9" y2="26.2"/>
	<line class="st0" x1="65.9" y1="27.7" x2="68.8" y2="24.8"/>
	<line class="st0" x1="56.1" y1="37.5" x2="59.7" y2="33.9"/>
	<line class="st0" x1="49.2" y1="44.4" x2="52.3" y2="41.3"/>
	<line class="st0" x1="52" y1="41.1" x2="48.9" y2="44.2"/>
	<line class="st0" x1="59.3" y1="33.8" x2="55.8" y2="37.3"/>
	<line class="st0" x1="68.3" y1="24.8" x2="65.9" y2="27.2"/>
	<line class="st0" x1="65.9" y1="28.7" x2="69.8" y2="24.8"/>
	<line class="st0" x1="56.9" y1="37.7" x2="60.3" y2="34.3"/>
	<line class="st0" x1="49.9" y1="44.7" x2="53.1" y2="41.5"/>
	<line class="st0" x1="52.7" y1="41.4" x2="49.5" y2="44.6"/>
	<line class="st0" x1="60" y1="34.1" x2="56.5" y2="37.6"/>
	<line class="st0" x1="69.3" y1="24.8" x2="65.9" y2="28.2"/>
	<line class="st0" x1="65.9" y1="29.7" x2="70.2" y2="25.4"/>
	<line class="st0" x1="57.6" y1="38" x2="60.9" y2="34.7"/>
	<line class="st0" x1="50.6" y1="45" x2="54" y2="41.6"/>
	<line class="st0" x1="53.5" y1="41.6" x2="50.3" y2="44.8"/>
	<line class="st0" x1="60.6" y1="34.5" x2="57.3" y2="37.8"/>
	<line class="st0" x1="70.2" y1="24.9" x2="65.9" y2="29.2"/>
	<line class="st0" x1="65.9" y1="30.7" x2="70.2" y2="26.4"/>
	<line class="st0" x1="58.2" y1="38.4" x2="61.5" y2="35.1"/>
	<line class="st0" x1="51.4" y1="45.2" x2="54.9" y2="41.7"/>
	<line class="st0" x1="54.4" y1="41.7" x2="51" y2="45.1"/>
	<line class="st0" x1="61.2" y1="34.9" x2="57.9" y2="38.2"/>
	<line class="st0" x1="70.2" y1="25.9" x2="65.9" y2="30.2"/>
	<line class="st0" x1="65.9" y1="31.7" x2="70.2" y2="27.4"/>
	<line class="st0" x1="58.5" y1="39.1" x2="61.9" y2="35.7"/>
	<line class="st0" x1="52.3" y1="45.3" x2="56" y2="41.6"/>
	<line class="st0" x1="55.4" y1="41.7" x2="51.8" y2="45.3"/>
	<line class="st0" x1="61.7" y1="35.4" x2="58.4" y2="38.7"/>
	<line class="st0" x1="70.2" y1="26.9" x2="65.9" y2="31.2"/>
	<line class="st0" x1="65.9" y1="32.7" x2="70.2" y2="28.3"/>
	<line class="st0" x1="58.4" y1="40.2" x2="62.3" y2="36.3"/>
	<line class="st0" x1="53.1" y1="45.4" x2="57.4" y2="41.2"/>
	<line class="st0" x1="56.6" y1="41.5" x2="52.7" y2="45.4"/>
	<line class="st0" x1="62.1" y1="36" x2="58.6" y2="39.5"/>
	<line class="st0" x1="70.2" y1="27.9" x2="65.9" y2="32.2"/>
	<line class="st0" x1="65.9" y1="33.7" x2="70.2" y2="29.3"/>
	<line class="st0" x1="54.1" y1="45.5" x2="62.6" y2="36.9"/>
	<line class="st0" x1="62.5" y1="36.6" x2="53.6" y2="45.5"/>
	<line class="st0" x1="70.2" y1="28.9" x2="65.9" y2="33.2"/>
	<line class="st0" x1="65.9" y1="34.7" x2="70.2" y2="30.3"/>
	<line class="st0" x1="55" y1="45.5" x2="62.9" y2="37.7"/>
	<line class="st0" x1="62.8" y1="37.3" x2="54.6" y2="45.5"/>
	<line class="st0" x1="70.2" y1="29.9" x2="65.9" y2="34.2"/>
	<line class="st0" x1="65.9" y1="35.7" x2="70.2" y2="31.3"/>
	<line class="st0" x1="56.1" y1="45.5" x2="63" y2="38.6"/>
	<line class="st0" x1="62.9" y1="38.1" x2="55.6" y2="45.5"/>
	<line class="st0" x1="70.2" y1="30.8" x2="65.9" y2="35.2"/>
	<line class="st0" x1="76.1" y1="26.5" x2="77.8" y2="24.8"/>
	<line class="st0" x1="65.9" y1="36.7" x2="70.2" y2="32.3"/>
	<line class="st0" x1="57.2" y1="45.3" x2="63" y2="39.6"/>
	<line class="st0" x1="63" y1="39.1" x2="56.7" y2="45.4"/>
	<line class="st0" x1="70.2" y1="31.8" x2="65.9" y2="36.2"/>
	<line class="st0" x1="72.3" y1="31.3" x2="78.8" y2="24.8"/>
	<line class="st0" x1="65.9" y1="37.7" x2="70.2" y2="33.3"/>
	<line class="st0" x1="58.6" y1="45" x2="62.8" y2="40.8"/>
	<line class="st0" x1="62.9" y1="40.2" x2="57.9" y2="45.2"/>
	<line class="st0" x1="70.2" y1="32.8" x2="65.9" y2="37.2"/>
	<line class="st0" x1="78.3" y1="24.8" x2="74.1" y2="28.9"/>
	<line class="st0" x1="65.9" y1="38.7" x2="79.8" y2="24.8"/>
	<line class="st0" x1="60.7" y1="43.9" x2="61.8" y2="42.8"/>
	<line class="st0" x1="62.5" y1="41.6" x2="59.4" y2="44.6"/>
	<polyline class="st1" points="79.3,24.8 70.3,33.8 70.2,33.8 65.9,38.2 	"/>
	<line class="st0" x1="65.9" y1="39.7" x2="80.8" y2="24.8"/>
	<line class="st0" x1="80.3" y1="24.8" x2="65.9" y2="39.2"/>
	<line class="st0" x1="65.9" y1="40.7" x2="81.8" y2="24.8"/>
	<line class="st0" x1="81.3" y1="24.8" x2="65.9" y2="40.2"/>
	<line class="st0" x1="65.9" y1="41.7" x2="82.8" y2="24.8"/>
	<line class="st0" x1="82.3" y1="24.8" x2="65.9" y2="41.2"/>
	<line class="st0" x1="65.9" y1="42.7" x2="77.4" y2="31.1"/>
	<line class="st0" x1="80.1" y1="28" x2="65.9" y2="42.2"/>
	<line class="st0" x1="72.1" y1="37.4" x2="74.9" y2="34.6"/>
	<line class="st0" x1="65.9" y1="43.7" x2="70.2" y2="39.3"/>
	<line class="st0" x1="70.6" y1="38.5" x2="65.9" y2="43.2"/>
	<line class="st0" x1="74.7" y1="34.4" x2="71.9" y2="37.1"/>
	<line class="st0" x1="85.3" y1="25.2" x2="85.8" y2="24.8"/>
	<line class="st0" x1="72.6" y1="38" x2="75.4" y2="35.2"/>
	<line class="st0" x1="65.9" y1="44.7" x2="70.2" y2="40.3"/>
	<line class="st0" x1="70.2" y1="39.8" x2="65.9" y2="44.2"/>
	<line class="st0" x1="75.1" y1="34.9" x2="72.4" y2="37.7"/>
	<line class="st0" x1="85.3" y1="26.2" x2="86.8" y2="24.8"/>
	<line class="st0" x1="73" y1="38.5" x2="75.8" y2="35.7"/>
	<line class="st0" x1="66.4" y1="45.2" x2="70.2" y2="41.3"/>
	<line class="st0" x1="70.2" y1="40.8" x2="65.9" y2="45.2"/>
	<line class="st0" x1="75.6" y1="35.5" x2="72.8" y2="38.3"/>
	<line class="st0" x1="86.3" y1="24.8" x2="85.3" y2="25.7"/>
	<line class="st0" x1="85.3" y1="27.2" x2="87.8" y2="24.8"/>
	<line class="st0" x1="73.4" y1="39.1" x2="76.3" y2="36.3"/>
	<line class="st0" x1="67.4" y1="45.2" x2="70.2" y2="42.3"/>
	<line class="st0" x1="70.2" y1="41.8" x2="66.9" y2="45.2"/>
	<line class="st0" x1="76" y1="36" x2="73.2" y2="38.8"/>
	<line class="st0" x1="87.3" y1="24.8" x2="85.3" y2="26.7"/>
	<line class="st0" x1="85.3" y1="28.2" x2="88.8" y2="24.8"/>
	<line class="st0" x1="73.9" y1="39.7" x2="76.7" y2="36.8"/>
	<line class="st0" x1="68.4" y1="45.2" x2="70.2" y2="43.3"/>
	<line class="st0" x1="70.2" y1="42.8" x2="67.9" y2="45.2"/>
	<line class="st0" x1="76.5" y1="36.6" x2="73.7" y2="39.4"/>
	<line class="st0" x1="88.3" y1="24.8" x2="85.3" y2="27.7"/>
	<line class="st0" x1="85.3" y1="29.2" x2="89.7" y2="24.9"/>
	<line class="st0" x1="74.3" y1="40.2" x2="77.1" y2="37.4"/>
	<line class="st0" x1="69.4" y1="45.2" x2="70.2" y2="44.3"/>
	<line class="st0" x1="70.2" y1="43.8" x2="68.9" y2="45.2"/>
	<line class="st0" x1="76.9" y1="37.1" x2="74.1" y2="40"/>
	<line class="st0" x1="89.3" y1="24.8" x2="85.3" y2="28.7"/>
	<line class="st0" x1="85.3" y1="30.2" x2="89.7" y2="25.9"/>
	<line class="st0" x1="74.7" y1="40.8" x2="77.6" y2="37.9"/>
	<line class="st0" x1="70.2" y1="44.8" x2="69.9" y2="45.2"/>
	<line class="st0" x1="77.4" y1="37.7" x2="74.5" y2="40.5"/>
	<line class="st0" x1="89.7" y1="25.4" x2="85.3" y2="29.7"/>
	<line class="st0" x1="85.3" y1="31.2" x2="89.7" y2="26.8"/>
	<line class="st0" x1="75.1" y1="41.4" x2="78" y2="38.5"/>
	<line class="st0" x1="77.8" y1="38.2" x2="74.9" y2="41.1"/>
	<line class="st0" x1="89.7" y1="26.4" x2="85.3" y2="30.7"/>
	<line class="st0" x1="85.3" y1="32.2" x2="89.7" y2="27.8"/>
	<line class="st0" x1="75.6" y1="41.9" x2="78.5" y2="39.1"/>
	<line class="st0" x1="78.2" y1="38.8" x2="75.4" y2="41.7"/>
	<line class="st0" x1="89.7" y1="27.4" x2="85.3" y2="31.7"/>
	<line class="st0" x1="93.5" y1="25" x2="93.7" y2="24.8"/>
	<line class="st0" x1="85.3" y1="33.2" x2="89.7" y2="28.8"/>
	<line class="st0" x1="76" y1="42.5" x2="78.9" y2="39.6"/>
	<line class="st0" x1="78.7" y1="39.3" x2="75.8" y2="42.2"/>
	<line class="st0" x1="89.7" y1="28.4" x2="85.3" y2="32.7"/>
	<line class="st0" x1="93.5" y1="26" x2="94.7" y2="24.8"/>
	<line class="st0" x1="85.3" y1="34.2" x2="89.7" y2="29.8"/>
	<line class="st0" x1="76.4" y1="43.1" x2="79.4" y2="40.2"/>
	<line class="st0" x1="79.1" y1="39.9" x2="76.2" y2="42.8"/>
	<line class="st0" x1="89.7" y1="29.4" x2="85.3" y2="33.7"/>
	<line class="st0" x1="94.3" y1="24.8" x2="93.5" y2="25.5"/>
	<line class="st0" x1="93.5" y1="27" x2="95.7" y2="24.8"/>
	<line class="st0" x1="85.3" y1="35.2" x2="89.7" y2="30.8"/>
	<line class="st0" x1="76.9" y1="43.7" x2="79.8" y2="40.7"/>
	<line class="st0" x1="79.6" y1="40.4" x2="76.7" y2="43.4"/>
	<line class="st0" x1="89.7" y1="30.3" x2="85.3" y2="34.7"/>
	<line class="st0" x1="95.3" y1="24.8" x2="93.5" y2="26.5"/>
	<line class="st0" x1="93.5" y1="28" x2="96.7" y2="24.8"/>
	<line class="st0" x1="85.3" y1="36.2" x2="89.7" y2="31.8"/>
	<line class="st0" x1="77.3" y1="44.2" x2="80.2" y2="41.3"/>
	<line class="st0" x1="80" y1="41" x2="77.1" y2="43.9"/>
	<line class="st0" x1="89.7" y1="31.3" x2="85.3" y2="35.7"/>
	<line class="st0" x1="96.2" y1="24.8" x2="93.5" y2="27.5"/>
	<line class="st0" x1="93.5" y1="29" x2="97.7" y2="24.8"/>
	<line class="st0" x1="85.3" y1="37.2" x2="89.7" y2="32.8"/>
	<line class="st0" x1="77.7" y1="44.8" x2="80.7" y2="41.8"/>
	<line class="st0" x1="80.5" y1="41.6" x2="77.5" y2="44.5"/>
	<line class="st0" x1="89.7" y1="32.3" x2="85.3" y2="36.7"/>
	<line class="st0" x1="97.2" y1="24.8" x2="93.5" y2="28.5"/>
	<line class="st0" x1="93.5" y1="30" x2="97.9" y2="25.6"/>
	<line class="st0" x1="85.3" y1="38.2" x2="89.7" y2="33.8"/>
	<line class="st0" x1="78.3" y1="45.2" x2="81.1" y2="42.4"/>
	<line class="st0" x1="80.9" y1="42.1" x2="77.9" y2="45.1"/>
	<line class="st0" x1="89.7" y1="33.3" x2="85.3" y2="37.7"/>
	<line class="st0" x1="97.9" y1="25.1" x2="93.5" y2="29.5"/>
	<line class="st0" x1="93.5" y1="31" x2="97.9" y2="26.6"/>
	<line class="st0" x1="85.3" y1="39.2" x2="89.7" y2="34.8"/>
	<line class="st0" x1="79.3" y1="45.2" x2="81.6" y2="42.9"/>
	<line class="st0" x1="81.3" y1="42.7" x2="78.8" y2="45.2"/>
	<line class="st0" x1="89.7" y1="34.3" x2="85.3" y2="38.7"/>
	<line class="st0" x1="97.9" y1="26.1" x2="93.5" y2="30.5"/>
	<line class="st0" x1="93.5" y1="32" x2="97.9" y2="27.6"/>
	<line class="st0" x1="85.3" y1="40.2" x2="89.7" y2="35.8"/>
	<line class="st0" x1="80.3" y1="45.2" x2="82" y2="43.5"/>
	<line class="st0" x1="81.8" y1="43.2" x2="79.8" y2="45.2"/>
	<line class="st0" x1="89.7" y1="35.3" x2="85.3" y2="39.7"/>
	<line class="st0" x1="97.9" y1="27.1" x2="93.5" y2="31.5"/>
	<line class="st0" x1="93.5" y1="33" x2="97.9" y2="28.6"/>
	<line class="st0" x1="85.3" y1="41.2" x2="89.7" y2="36.8"/>
	<line class="st0" x1="81.3" y1="45.2" x2="82.5" y2="44"/>
	<line class="st0" x1="82.2" y1="43.8" x2="80.8" y2="45.2"/>
	<line class="st0" x1="89.7" y1="36.3" x2="85.3" y2="40.7"/>
	<line class="st0" x1="97.9" y1="28.1" x2="93.5" y2="32.5"/>
	<line class="st0" x1="93.5" y1="34" x2="97.9" y2="29.6"/>
	<line class="st0" x1="85.3" y1="42.2" x2="89.7" y2="37.8"/>
	<line class="st0" x1="82.3" y1="45.2" x2="82.9" y2="44.6"/>
	<line class="st0" x1="82.7" y1="44.3" x2="81.8" y2="45.2"/>
	<line class="st0" x1="89.7" y1="37.3" x2="85.3" y2="41.7"/>
	<line class="st0" x1="97.9" y1="29.1" x2="93.5" y2="33.5"/>
	<line class="st0" x1="93.5" y1="35" x2="97.9" y2="30.6"/>
	<line class="st0" x1="85.3" y1="43.2" x2="89.7" y2="38.8"/>
	<line class="st0" x1="83.3" y1="45.2" x2="83.3" y2="45.2"/>
	<line class="st0" x1="83.1" y1="44.9" x2="82.8" y2="45.2"/>
	<line class="st0" x1="89.7" y1="38.3" x2="85.3" y2="42.7"/>
	<line class="st0" x1="97.9" y1="30.1" x2="93.5" y2="34.5"/>
	<line class="st0" x1="93.5" y1="36" x2="97.9" y2="31.6"/>
	<line class="st0" x1="85.3" y1="44.2" x2="89.7" y2="39.8"/>
	<line class="st0" x1="89.7" y1="39.3" x2="85.3" y2="43.7"/>
	<line class="st0" x1="97.9" y1="31.1" x2="93.5" y2="35.5"/>
	<line class="st0" x1="93.5" y1="37" x2="97.9" y2="32.6"/>
	<line class="st0" x1="85.3" y1="45.1" x2="89.7" y2="40.8"/>
	<line class="st0" x1="89.7" y1="40.3" x2="85.3" y2="44.7"/>
	<line class="st0" x1="97.9" y1="32.1" x2="93.5" y2="36.5"/>
	<line class="st0" x1="93.5" y1="38" x2="97.9" y2="33.6"/>
	<line class="st0" x1="86.3" y1="45.2" x2="89.7" y2="41.8"/>
	<line class="st0" x1="89.7" y1="41.3" x2="85.8" y2="45.2"/>
	<line class="st0" x1="97.9" y1="33.1" x2="93.5" y2="37.5"/>
	<line class="st0" x1="93.5" y1="38.9" x2="97.9" y2="34.6"/>
	<line class="st0" x1="87.3" y1="45.2" x2="89.7" y2="42.8"/>
	<line class="st0" x1="89.7" y1="42.3" x2="86.8" y2="45.2"/>
	<line class="st0" x1="97.9" y1="34.1" x2="93.5" y2="38.5"/>
	<line class="st0" x1="93.5" y1="39.9" x2="97.9" y2="35.6"/>
	<line class="st0" x1="88.3" y1="45.2" x2="89.7" y2="43.8"/>
	<line class="st0" x1="89.7" y1="43.3" x2="87.8" y2="45.2"/>
	<line class="st0" x1="97.9" y1="35.1" x2="93.5" y2="39.5"/>
	<line class="st0" x1="109.3" y1="25.2" x2="109.7" y2="24.8"/>
	<line class="st0" x1="93.5" y1="40.9" x2="97.9" y2="36.6"/>
	<line class="st0" x1="89.3" y1="45.2" x2="89.7" y2="44.8"/>
	<line class="st0" x1="89.7" y1="44.3" x2="88.8" y2="45.2"/>
	<line class="st0" x1="97.9" y1="36.1" x2="93.5" y2="40.5"/>
	<line class="st0" x1="109.3" y1="26.2" x2="110.7" y2="24.8"/>
	<line class="st0" x1="93.5" y1="41.9" x2="97.9" y2="37.6"/>
	<line class="st0" x1="97.9" y1="37.1" x2="93.5" y2="41.4"/>
	<line class="st0" x1="110.2" y1="24.8" x2="109.3" y2="25.7"/>
	<line class="st0" x1="109.3" y1="27.2" x2="111.7" y2="24.8"/>
	<line class="st0" x1="93.5" y1="42.9" x2="97.9" y2="38.6"/>
	<line class="st0" x1="97.9" y1="38.1" x2="93.5" y2="42.4"/>
	<line class="st0" x1="111.2" y1="24.8" x2="109.3" y2="26.7"/>
	<line class="st0" x1="109.3" y1="28.2" x2="112.7" y2="24.8"/>
	<line class="st0" x1="93.5" y1="43.9" x2="97.9" y2="39.6"/>
	<line class="st0" x1="97.9" y1="39.1" x2="93.5" y2="43.4"/>
	<line class="st0" x1="112.2" y1="24.8" x2="109.3" y2="27.7"/>
	<line class="st0" x1="109.3" y1="29.2" x2="113.6" y2="24.8"/>
	<line class="st0" x1="93.5" y1="44.9" x2="97.9" y2="40.6"/>
	<line class="st0" x1="97.9" y1="40.1" x2="93.5" y2="44.4"/>
	<line class="st0" x1="113.2" y1="24.8" x2="109.3" y2="28.7"/>
	<line class="st0" x1="109.3" y1="30.2" x2="113.6" y2="25.8"/>
	<line class="st0" x1="94.3" y1="45.2" x2="98.1" y2="41.3"/>
	<line class="st0" x1="97.9" y1="41.1" x2="93.8" y2="45.2"/>
	<line class="st0" x1="113.6" y1="25.3" x2="109.3" y2="29.7"/>
	<line class="st0" x1="109.3" y1="31.2" x2="113.6" y2="26.8"/>
	<line class="st0" x1="95.3" y1="45.2" x2="99.1" y2="41.3"/>
	<line class="st0" x1="98.6" y1="41.3" x2="94.8" y2="45.2"/>
	<line class="st0" x1="113.6" y1="26.3" x2="109.3" y2="30.7"/>
	<line class="st0" x1="109.3" y1="32.2" x2="113.6" y2="27.8"/>
	<line class="st0" x1="96.3" y1="45.2" x2="100.1" y2="41.3"/>
	<line class="st0" x1="99.6" y1="41.3" x2="95.8" y2="45.2"/>
	<line class="st0" x1="113.6" y1="27.3" x2="109.3" y2="31.7"/>
	<line class="st0" x1="109.3" y1="33.2" x2="113.6" y2="28.8"/>
	<line class="st0" x1="97.3" y1="45.2" x2="101.1" y2="41.3"/>
	<line class="st0" x1="100.6" y1="41.3" x2="96.8" y2="45.2"/>
	<line class="st0" x1="113.6" y1="28.3" x2="109.3" y2="32.7"/>
	<line class="st0" x1="109.3" y1="34.2" x2="113.6" y2="29.8"/>
	<line class="st0" x1="98.3" y1="45.2" x2="102.1" y2="41.3"/>
	<line class="st0" x1="101.6" y1="41.3" x2="97.8" y2="45.2"/>
	<line class="st0" x1="113.6" y1="29.3" x2="109.3" y2="33.7"/>
	<line class="st0" x1="109.3" y1="35.2" x2="113.6" y2="30.8"/>
	<line class="st0" x1="99.3" y1="45.2" x2="103.1" y2="41.3"/>
	<line class="st0" x1="102.6" y1="41.3" x2="98.8" y2="45.2"/>
	<line class="st0" x1="113.6" y1="30.3" x2="109.3" y2="34.7"/>
	<line class="st0" x1="109.3" y1="36.2" x2="113.6" y2="31.8"/>
	<line class="st0" x1="100.3" y1="45.2" x2="104.1" y2="41.3"/>
	<line class="st0" x1="103.6" y1="41.3" x2="99.8" y2="45.2"/>
	<line class="st0" x1="113.6" y1="31.3" x2="109.3" y2="35.7"/>
	<line class="st0" x1="109.3" y1="37.2" x2="113.6" y2="32.8"/>
	<line class="st0" x1="101.3" y1="45.2" x2="105.1" y2="41.3"/>
	<line class="st0" x1="104.6" y1="41.3" x2="100.8" y2="45.2"/>
	<line class="st0" x1="113.6" y1="32.3" x2="109.3" y2="36.7"/>
	<line class="st0" x1="109.3" y1="38.2" x2="113.6" y2="33.8"/>
	<line class="st0" x1="102.3" y1="45.2" x2="106.1" y2="41.3"/>
	<line class="st0" x1="105.6" y1="41.3" x2="101.8" y2="45.2"/>
	<line class="st0" x1="113.6" y1="33.3" x2="109.3" y2="37.7"/>
	<line class="st0" x1="109.3" y1="39.2" x2="113.6" y2="34.8"/>
	<line class="st0" x1="103.3" y1="45.2" x2="106.5" y2="41.9"/>
	<line class="st0" x1="106.5" y1="41.4" x2="102.8" y2="45.2"/>
	<line class="st0" x1="113.6" y1="34.3" x2="109.3" y2="38.7"/>
	<line class="st0" x1="124.5" y1="25" x2="124.7" y2="24.8"/>
	<line class="st0" x1="109.3" y1="40.2" x2="113.6" y2="35.8"/>
	<line class="st0" x1="104.3" y1="45.2" x2="106.5" y2="42.9"/>
	<line class="st0" x1="106.5" y1="42.4" x2="103.8" y2="45.2"/>
	<line class="st0" x1="113.6" y1="35.3" x2="109.3" y2="39.7"/>
	<line class="st0" x1="124.5" y1="26" x2="125.6" y2="24.8"/>
	<line class="st0" x1="109.3" y1="41.1" x2="113.6" y2="36.8"/>
	<line class="st0" x1="105.3" y1="45.2" x2="106.5" y2="43.9"/>
	<line class="st0" x1="106.5" y1="43.4" x2="104.8" y2="45.2"/>
	<line class="st0" x1="113.6" y1="36.3" x2="109.3" y2="40.7"/>
	<line class="st0" x1="125.2" y1="24.8" x2="124.5" y2="25.5"/>
	<line class="st0" x1="124.5" y1="27" x2="126.6" y2="24.8"/>
	<line class="st0" x1="109.3" y1="42.1" x2="113.6" y2="37.8"/>
	<line class="st0" x1="106.3" y1="45.2" x2="106.5" y2="44.9"/>
	<line class="st0" x1="106.5" y1="44.4" x2="105.8" y2="45.2"/>
	<line class="st0" x1="113.6" y1="37.3" x2="109.3" y2="41.7"/>
	<line class="st0" x1="126.2" y1="24.8" x2="124.5" y2="26.5"/>
	<line class="st0" x1="124.5" y1="27.9" x2="127.6" y2="24.8"/>
	<line class="st0" x1="109.3" y1="43.1" x2="113.6" y2="38.8"/>
	<line class="st0" x1="113.6" y1="38.3" x2="109.3" y2="42.7"/>
	<line class="st0" x1="127.2" y1="24.8" x2="124.5" y2="27.5"/>
	<line class="st0" x1="124.8" y1="28.6" x2="128.6" y2="24.8"/>
	<line class="st0" x1="109.3" y1="44.1" x2="113.6" y2="39.8"/>
	<line class="st0" x1="113.6" y1="39.3" x2="109.3" y2="43.6"/>
	<line class="st0" x1="128.1" y1="24.8" x2="124.5" y2="28.5"/>
	<line class="st0" x1="125.8" y1="28.6" x2="129.6" y2="24.8"/>
	<line class="st0" x1="109.3" y1="45.1" x2="113.6" y2="40.8"/>
	<line class="st0" x1="113.6" y1="40.3" x2="109.3" y2="44.6"/>
	<line class="st0" x1="129.1" y1="24.8" x2="125.3" y2="28.6"/>
	<line class="st0" x1="126.8" y1="28.6" x2="130.6" y2="24.8"/>
	<line class="st0" x1="110.2" y1="45.2" x2="114.1" y2="41.3"/>
	<line class="st0" x1="113.6" y1="41.3" x2="109.7" y2="45.2"/>
	<line class="st0" x1="130.1" y1="24.8" x2="126.3" y2="28.6"/>
	<line class="st0" x1="127.8" y1="28.6" x2="131.6" y2="24.8"/>
	<line class="st0" x1="111.2" y1="45.2" x2="115.1" y2="41.3"/>
	<line class="st0" x1="114.6" y1="41.3" x2="110.7" y2="45.2"/>
	<line class="st0" x1="131.1" y1="24.8" x2="127.3" y2="28.6"/>
	<line class="st0" x1="128.8" y1="28.6" x2="132.6" y2="24.8"/>
	<line class="st0" x1="112.2" y1="45.2" x2="116.1" y2="41.3"/>
	<line class="st0" x1="115.6" y1="41.3" x2="111.7" y2="45.2"/>
	<line class="st0" x1="132.1" y1="24.8" x2="128.3" y2="28.6"/>
	<line class="st0" x1="129.8" y1="28.6" x2="133.6" y2="24.8"/>
	<line class="st0" x1="113.2" y1="45.2" x2="117.1" y2="41.3"/>
	<line class="st0" x1="116.6" y1="41.3" x2="112.7" y2="45.2"/>
	<line class="st0" x1="133.1" y1="24.8" x2="129.3" y2="28.6"/>
	<line class="st0" x1="130.8" y1="28.6" x2="134.6" y2="24.8"/>
	<line class="st0" x1="114.2" y1="45.2" x2="118" y2="41.3"/>
	<line class="st0" x1="117.6" y1="41.3" x2="113.7" y2="45.2"/>
	<line class="st0" x1="134.1" y1="24.8" x2="130.3" y2="28.6"/>
	<line class="st0" x1="131.8" y1="28.6" x2="135.6" y2="24.8"/>
	<line class="st0" x1="115.2" y1="45.2" x2="119" y2="41.3"/>
	<line class="st0" x1="118.6" y1="41.3" x2="114.7" y2="45.2"/>
	<line class="st0" x1="135.1" y1="24.8" x2="131.3" y2="28.6"/>
	<line class="st0" x1="132.8" y1="28.6" x2="136.6" y2="24.8"/>
	<line class="st0" x1="116.2" y1="45.2" x2="120" y2="41.3"/>
	<line class="st0" x1="119.6" y1="41.3" x2="115.7" y2="45.2"/>
	<line class="st0" x1="136.1" y1="24.8" x2="132.3" y2="28.6"/>
	<line class="st0" x1="133.8" y1="28.6" x2="137.6" y2="24.8"/>
	<line class="st0" x1="117.2" y1="45.2" x2="121" y2="41.3"/>
	<line class="st0" x1="120.5" y1="41.3" x2="116.7" y2="45.2"/>
	<line class="st0" x1="137.1" y1="24.8" x2="133.3" y2="28.6"/>
	<line class="st0" x1="132.2" y1="31.2" x2="138.6" y2="24.8"/>
	<line class="st0" x1="118.2" y1="45.2" x2="122" y2="41.3"/>
	<line class="st0" x1="121.5" y1="41.3" x2="117.7" y2="45.2"/>
	<line class="st0" x1="138.1" y1="24.8" x2="133.5" y2="29.3"/>
	<line class="st0" x1="129.4" y1="35" x2="139.6" y2="24.8"/>
	<line class="st0" x1="119.2" y1="45.2" x2="122.3" y2="42.1"/>
	<line class="st0" x1="122.3" y1="41.6" x2="118.7" y2="45.2"/>
	<line class="st0" x1="139.1" y1="24.8" x2="130.7" y2="33.1"/>
	<line class="st0" x1="126.6" y1="38.8" x2="139.8" y2="25.6"/>
	<line class="st0" x1="120.2" y1="45.2" x2="122.3" y2="43.1"/>
	<line class="st0" x1="122.3" y1="42.6" x2="119.7" y2="45.2"/>
	<line class="st0" x1="139.8" y1="25.1" x2="127.9" y2="36.9"/>
	<line class="st0" x1="124.5" y1="41.9" x2="139.8" y2="26.6"/>
	<line class="st0" x1="121.2" y1="45.2" x2="122.3" y2="44.1"/>
	<line class="st0" x1="122.3" y1="43.6" x2="120.7" y2="45.2"/>
	<line class="st0" x1="139.8" y1="26.1" x2="125.1" y2="40.7"/>
	<line class="st0" x1="124.5" y1="42.9" x2="139.8" y2="27.6"/>
	<line class="st0" x1="122.2" y1="45.2" x2="122.3" y2="45.1"/>
	<line class="st0" x1="122.3" y1="44.6" x2="121.7" y2="45.2"/>
	<line class="st0" x1="139.8" y1="27.1" x2="124.5" y2="42.4"/>
	<line class="st0" x1="124.5" y1="43.9" x2="138.9" y2="29.5"/>
	<line class="st0" x1="139.8" y1="28.1" x2="124.5" y2="43.4"/>
	<line class="st0" x1="124.5" y1="44.9" x2="136.1" y2="33.2"/>
	<line class="st0" x1="137.5" y1="31.4" x2="124.5" y2="44.4"/>
	<line class="st0" x1="125.2" y1="45.2" x2="133.3" y2="37"/>
	<line class="st0" x1="134.7" y1="35.2" x2="124.7" y2="45.2"/>
	<line class="st0" x1="126.2" y1="45.2" x2="130.6" y2="40.8"/>
	<line class="st0" x1="131.9" y1="38.9" x2="125.7" y2="45.2"/>
	<line class="st0" x1="127.2" y1="45.2" x2="131" y2="41.3"/>
	<line class="st0" x1="130.5" y1="41.3" x2="126.7" y2="45.2"/>
	<line class="st0" x1="128.2" y1="45.2" x2="132" y2="41.3"/>
	<line class="st0" x1="131.5" y1="41.3" x2="127.7" y2="45.2"/>
	<line class="st0" x1="129.2" y1="45.2" x2="133" y2="41.3"/>
	<line class="st0" x1="132.5" y1="41.3" x2="128.7" y2="45.2"/>
	<line class="st0" x1="130.2" y1="45.2" x2="134" y2="41.3"/>
	<line class="st0" x1="133.5" y1="41.3" x2="129.7" y2="45.2"/>
	<line class="st0" x1="131.2" y1="45.2" x2="135" y2="41.3"/>
	<line class="st0" x1="134.5" y1="41.3" x2="130.7" y2="45.2"/>
	<line class="st0" x1="132.2" y1="45.2" x2="136" y2="41.3"/>
	<line class="st0" x1="135.5" y1="41.3" x2="131.7" y2="45.2"/>
	<line class="st0" x1="133.2" y1="45.2" x2="137" y2="41.3"/>
	<line class="st0" x1="136.5" y1="41.3" x2="132.7" y2="45.2"/>
	<line class="st0" x1="134.2" y1="45.2" x2="138" y2="41.3"/>
	<line class="st0" x1="137.5" y1="41.3" x2="133.7" y2="45.2"/>
	<line class="st0" x1="135.2" y1="45.2" x2="139" y2="41.3"/>
	<line class="st0" x1="138.5" y1="41.3" x2="134.7" y2="45.2"/>
	<line class="st0" x1="136.2" y1="45.2" x2="140" y2="41.3"/>
	<line class="st0" x1="139.5" y1="41.3" x2="135.7" y2="45.2"/>
	<line class="st0" x1="137.2" y1="45.2" x2="140" y2="42.3"/>
	<line class="st0" x1="140" y1="41.8" x2="136.7" y2="45.2"/>
	<line class="st0" x1="138.2" y1="45.2" x2="140" y2="43.3"/>
	<line class="st0" x1="140" y1="42.8" x2="137.7" y2="45.2"/>
	<line class="st0" x1="139.1" y1="45.2" x2="140" y2="44.3"/>
	<line class="st0" x1="140" y1="43.8" x2="138.7" y2="45.2"/>
	<line class="st0" x1="140" y1="44.8" x2="139.7" y2="45.2"/>
</g>
</svg>
